<svg width="162" height="48" viewBox="0 0 162 48" fill="none" xmlns="http://www.w3.org/2000/svg">
<g clip-path="url(#clip0_15427_5405)">
<path d="M12.5013 1.7559C15.6903 0.468654 19.2204 0.0565613 22.6226 0.544754C27.3581 1.20525 31.7992 3.69288 34.8641 7.35935C36.4873 9.28484 37.7365 11.5255 38.5126 13.922C39.4746 16.8727 39.7036 20.0531 39.2097 23.1158C38.7711 25.8568 37.7351 28.5017 36.1879 30.807C35.0048 32.5759 33.5273 34.1461 31.843 35.4462C31.698 35.5589 31.5702 35.691 31.4424 35.8224C29.4164 37.8807 26.7507 39.2778 23.9199 39.8292C23.5574 39.9031 23.192 39.9613 22.8265 40.0144C22.9464 40.5256 23.1202 41.0224 23.319 41.5084C23.1869 41.6391 23.0548 41.7712 22.9227 41.9033C22.5659 41.7037 22.0655 41.8157 21.8796 42.1933C21.6391 42.6097 21.932 43.1927 22.4065 43.2544C22.7906 43.327 23.1252 43.0721 23.3657 42.8029C23.5193 43.4325 23.4698 44.1174 23.1539 44.6903C22.5329 45.8526 21.3885 46.6503 20.1831 47.1205C20.0101 47.1765 19.827 47.2957 19.6439 47.2088C18.3754 46.7673 17.1628 45.9761 16.4736 44.7958C16.1146 44.2021 16.0363 43.4756 16.2051 42.8079C16.4456 43.1073 16.8325 43.3485 17.2281 43.2394C17.6459 43.1389 17.8936 42.6313 17.7084 42.2414C17.5519 41.8559 17.0544 41.6908 16.6918 41.8868C16.549 41.7576 16.4133 41.6204 16.2776 41.4833C16.5863 40.9528 16.8749 40.4079 17.0817 39.8285C16.3329 39.682 15.602 39.4595 14.8697 39.2541C13.9077 39.6031 12.8365 39.6634 11.8558 39.3546C10.3539 38.9088 9.14421 37.6453 8.7393 36.1347C5.71825 34.0822 3.29165 31.1674 1.82635 27.8218C0.532638 24.8919 -0.016579 21.6411 0.228953 18.4485C0.483101 15.0276 1.67056 11.6834 3.62261 8.86342C5.80225 5.69375 8.92955 3.18602 12.5013 1.7559ZM17.4385 1.04443C13.9457 1.47376 10.5873 2.91034 7.85481 5.12515C4.77489 7.60129 2.49115 11.0538 1.44154 14.8653C0.509664 18.2173 0.524741 21.8249 1.48318 25.1691C2.63115 29.229 5.18555 32.8681 8.60074 35.3436C8.51531 34.3959 8.74505 33.4332 9.22391 32.614C8.99201 32.3943 8.76945 32.1653 8.55838 31.9255C8.60936 31.8882 8.66033 31.8508 8.71202 31.8142C8.93027 32.0045 9.16719 32.1725 9.40626 32.3376C9.89517 31.6426 10.57 31.0841 11.3461 30.7388C9.80758 29.5334 8.52823 27.997 7.63082 26.2596C6.44264 24.0089 5.91137 21.4164 6.1167 18.8793C6.31772 16.1921 7.35011 13.5766 9.02719 11.4681C10.7969 9.22453 13.2795 7.55104 16.0292 6.76993C18.3007 6.1202 20.7395 6.06636 23.0362 6.61917C25.3651 7.17628 27.5383 8.35943 29.2736 10.01C30.7467 11.4042 31.9091 13.1272 32.6406 15.0204C33.4182 17.0198 33.7068 19.2045 33.4892 21.3375C33.2372 23.8847 32.2393 26.3479 30.6606 28.3617C28.9749 30.5241 26.6323 32.1703 24.0176 33.0017C23.7311 33.0792 23.4784 33.2544 23.3061 33.4956C22.8624 34.1094 22.6894 34.8755 22.6176 35.6178C25.4886 36.2654 28.5542 36.1426 31.324 35.1246C34.3192 32.8926 36.6209 29.7408 37.8377 26.2093C38.8543 23.2708 39.1315 20.0818 38.6548 17.0105C38.2362 14.3003 37.2139 11.687 35.6911 9.40761C33.5553 6.19702 30.4287 3.65411 26.8412 2.23548C23.8747 1.05161 20.606 0.647418 17.4385 1.04443ZM17.5813 6.98316C15.019 7.41535 12.6018 8.64445 10.728 10.4421C8.7472 12.326 7.3738 14.8409 6.87986 17.531C6.45485 19.7882 6.63577 22.1566 7.40826 24.3205C8.25039 26.7162 9.80471 28.852 11.8185 30.3992C11.8925 30.4487 11.97 30.5392 12.0698 30.4939C12.8416 30.2987 13.6622 30.2994 14.4296 30.5155C15.6666 30.8508 16.7493 31.7223 17.3286 32.8674C19.9857 33.3858 22.8021 33.0541 25.2632 31.9255C27.595 30.8666 29.6002 29.1083 30.9621 26.9402C32.5724 24.4037 33.2574 21.3023 32.8783 18.3229C32.6155 16.1698 31.8007 14.0885 30.5393 12.3253C29.1515 10.3768 27.2282 8.81316 25.0306 7.86765C22.7045 6.85536 20.0797 6.54881 17.5813 6.98316ZM9.8844 32.6499C10.1285 32.7964 10.374 32.9407 10.6224 33.0807C11.2334 32.2457 12.2507 31.718 13.2903 31.7467C13.7921 31.7453 14.2803 31.8875 14.7355 32.0913C15.3328 32.339 15.9466 32.5458 16.5734 32.7037C15.8389 31.5981 14.5395 30.8902 13.2091 30.8996C11.9003 30.8867 10.621 31.5723 9.8844 32.6499ZM11.1336 33.3578C11.8659 33.7239 12.6075 34.0721 13.3628 34.3894C13.581 34.4864 13.8424 34.5704 13.95 34.8058C14.1353 35.1512 13.9256 35.6293 13.5401 35.7162C13.2558 35.8038 13.0002 35.6142 12.7705 35.4764C12.077 35.0255 11.4201 34.5208 10.7876 33.9881C10.4911 34.6737 10.532 35.4922 10.8644 36.1577C11.176 36.783 11.746 37.2332 12.3526 37.5541C14.1001 38.5089 16.0277 39.1141 17.9884 39.4365C19.537 39.6964 21.12 39.6734 22.6743 39.4803C24.3076 39.2728 25.9158 38.8191 27.3883 38.076C28.4932 37.5254 29.5112 36.8103 30.4316 35.9897C27.9432 36.676 25.2948 36.7407 22.7705 36.2108C20.1257 35.6724 17.6416 34.5273 15.3543 33.1173C14.8274 32.8258 14.3327 32.4309 13.721 32.339C12.7554 32.1545 11.7166 32.5681 11.1336 33.3578ZM9.64892 33.0196C9.24257 33.7907 9.07458 34.6888 9.2117 35.5525C9.39621 36.872 10.2857 38.0609 11.4926 38.6209C12.2679 38.995 13.156 39.0818 13.9996 38.939C13.1137 38.5585 12.2155 38.1823 11.4179 37.6323C10.8845 37.249 10.4401 36.7249 10.2103 36.1046C9.90378 35.3005 9.95619 34.3794 10.3152 33.6012C10.094 33.4059 9.87507 33.2084 9.64892 33.0196ZM16.6581 33.2616C17.1542 33.5351 17.661 33.7871 18.1693 34.0362C18.2842 33.8776 18.4141 33.7311 18.5592 33.6004C17.918 33.5344 17.2884 33.3922 16.6581 33.2616ZM19.8888 33.6572C19.4164 33.6536 18.9447 33.8776 18.6747 34.2703C19.7603 34.7692 20.8888 35.1756 22.0447 35.48C22.1201 34.7297 22.3211 33.9766 22.7425 33.3427C21.8049 33.543 20.8472 33.65 19.8888 33.6572ZM17.0695 41.2256C17.4019 41.2636 17.74 41.372 17.9776 41.6183C18.4931 42.1108 18.478 43.0348 17.9432 43.5064C17.6158 43.8051 17.1434 43.8762 16.7191 43.8008C16.8555 44.4469 17.2583 45.0005 17.7364 45.4413C18.3136 45.9718 19.0071 46.3774 19.7509 46.6259C20.2161 46.5354 20.6455 46.2805 21.0547 46.0422C21.8695 45.5231 22.6456 44.7815 22.8466 43.7994C22.3886 43.8913 21.8774 43.7749 21.5544 43.4246C21.0619 42.917 21.0992 41.9959 21.6484 41.5436C21.909 41.3153 22.2615 41.2306 22.6011 41.2299C22.4676 40.853 22.3348 40.4746 22.2472 40.0841C20.7194 40.2384 19.1716 40.2126 17.6574 39.9412C17.4988 40.3849 17.3006 40.8142 17.0695 41.2256Z" fill="black" fill-opacity="1"/>
<path d="M16.0615 2.20212C16.2546 2.13966 16.4506 2.08581 16.6473 2.03125C16.4987 2.79297 16.3278 3.55111 16.1914 4.31427C16.2898 4.75723 16.4405 5.18656 16.5583 5.62521C16.3874 5.67547 16.2158 5.72644 16.0464 5.781C15.9143 5.39404 15.8202 4.99487 15.7018 4.60288C15.6709 4.46575 15.5596 4.37242 15.4692 4.27407C15.0535 3.8512 14.6514 3.41542 14.2343 2.994C14.1747 2.92795 14.1022 2.8662 14.0742 2.77862C14.2472 2.7219 14.4231 2.67595 14.5969 2.62139C14.9953 3.02199 15.3801 3.43624 15.7743 3.84115C15.8676 3.29481 15.976 2.75062 16.0615 2.20212Z" fill="black" fill-opacity="1"/>
<path d="M24.2362 2.49646C24.8945 2.36006 25.6282 2.70394 25.9039 3.32495C26.2521 4.11468 25.9879 5.11117 25.3389 5.66613C24.9168 6.03299 24.2843 6.10406 23.776 5.88438C23.2332 5.66541 22.8757 5.1047 22.8592 4.52605C22.806 3.65879 23.328 2.67092 24.2362 2.49646ZM24.3015 2.98681C23.8004 3.14475 23.5204 3.66453 23.4342 4.15345C23.3509 4.5921 23.4594 5.11834 23.8571 5.37249C24.2354 5.63525 24.7875 5.53833 25.074 5.18368C25.433 4.74861 25.6182 4.12473 25.4358 3.57695C25.2894 3.12178 24.7588 2.84107 24.3015 2.98681Z" fill="black" fill-opacity="1"/>
<path d="M19.6327 3.13229C19.9587 2.99804 20.342 3.32685 20.253 3.67002C20.1992 4.01104 19.7332 4.17042 19.4834 3.92991C19.2134 3.71525 19.3025 3.23495 19.6327 3.13229Z" fill="black" fill-opacity="1"/>
<path d="M10.5352 4.38905C11.2761 4.00496 12.0162 3.62015 12.7564 3.23462C12.8275 3.37462 12.8986 3.51461 12.9689 3.65461C12.6803 3.80178 12.3946 3.95255 12.1081 4.10331C12.5655 4.97345 13.0113 5.85004 13.4751 6.71658C13.315 6.80776 13.1527 6.89463 12.9898 6.97935C12.5317 6.10491 12.0758 5.22903 11.6199 4.35316C11.3313 4.50536 11.0427 4.65756 10.752 4.80545C10.6795 4.66689 10.6069 4.52761 10.5352 4.38905Z" fill="black" fill-opacity="1"/>
<path d="M26.5352 6.8804C27.1117 5.89253 27.6953 4.90968 28.2761 3.92468C28.8225 4.24488 29.3681 4.56795 29.9145 4.88886C29.8348 5.02383 29.7544 5.15881 29.6747 5.29378C29.2863 5.06117 28.895 4.8343 28.5044 4.60456C28.3443 4.8745 28.1886 5.14804 28.022 5.41511C28.386 5.64197 28.7636 5.84658 29.1262 6.07704C29.0465 6.20483 28.9697 6.33406 28.8936 6.46329C28.5253 6.24934 28.1584 6.03324 27.7923 5.81571C27.5288 6.26155 27.266 6.7081 27.0032 7.15393C26.8482 7.0606 26.6924 6.96871 26.5352 6.8804Z" fill="black" fill-opacity="1"/>
<path d="M8.65625 5.71675C8.80486 5.61049 8.9506 5.50065 9.0985 5.39368C9.77981 6.30904 10.4827 7.20717 11.1712 8.11751C11.0261 8.22807 10.8818 8.33863 10.7382 8.45063C10.0426 7.54029 9.33972 6.6357 8.65625 5.71675Z" fill="black" fill-opacity="1"/>
<path d="M96.8896 6.22755C97.9363 6.01289 99.1023 6.25484 99.8999 6.99071C99.7484 7.19604 99.579 7.38701 99.4232 7.58947C98.9651 7.25707 98.4288 7.01512 97.8595 6.97707C97.367 6.93974 96.8293 7.018 96.4416 7.34609C96.0669 7.65624 95.9376 8.21048 96.1078 8.66134C96.2097 8.91477 96.4172 9.10933 96.6412 9.25722C97.3907 9.73967 98.2788 9.96366 99.0053 10.4856C99.4835 10.8259 99.8654 11.3356 99.953 11.9265C100.054 12.6035 99.8819 13.3372 99.4239 13.857C99.0922 14.2418 98.6227 14.4866 98.1316 14.5972C96.9987 14.8535 95.7624 14.5448 94.8672 13.8089C95.0172 13.5892 95.1687 13.3695 95.3123 13.1448C95.8866 13.4995 96.5206 13.8039 97.2048 13.8484C97.6556 13.8642 98.1409 13.7931 98.5071 13.5081C98.9163 13.19 99.0628 12.6243 98.9802 12.1282C98.9034 11.7147 98.5882 11.3959 98.2501 11.1712C97.4395 10.6371 96.4466 10.4117 95.7115 9.75905C94.9655 9.11005 94.911 7.88741 95.4753 7.10558C95.8077 6.64036 96.3368 6.34601 96.8896 6.22755Z" fill="black" fill-opacity="1"/>
<path d="M127.943 6.18561C128.806 6.07935 129.719 6.26027 130.433 6.76857C131.429 7.45778 131.967 8.65385 132.068 9.83628C132.19 11.1724 131.883 12.6269 130.93 13.6176C129.867 14.7469 128.032 14.9982 126.68 14.2652C125.616 13.7045 124.947 12.5781 124.751 11.4143C124.532 10.1041 124.731 8.66534 125.534 7.57767C126.098 6.80375 126.993 6.2933 127.943 6.18561ZM127.68 7.07943C127.191 7.20722 126.751 7.50301 126.439 7.90003C126 8.44853 125.789 9.14564 125.718 9.83628C125.643 10.603 125.711 11.3985 126.013 12.1136C126.227 12.6283 126.572 13.0971 127.036 13.4123C127.935 14.0419 129.275 13.9608 130.071 13.1962C130.585 12.7116 130.861 12.026 130.986 11.3418C131.121 10.537 131.111 9.69198 130.851 8.91303C130.659 8.34084 130.313 7.80813 129.818 7.45491C129.21 7.01338 128.4 6.89277 127.68 7.07943Z" fill="black" fill-opacity="1"/>
<path d="M49.7506 6.30776C50.0759 6.30704 50.4018 6.31135 50.7277 6.30273C50.7471 8.1751 50.7241 10.0475 50.7392 11.9198C50.7414 12.403 50.8498 12.9206 51.2037 13.2738C51.6969 13.7699 52.4544 13.8999 53.1249 13.803C53.6777 13.7261 54.209 13.3973 54.4531 12.884C54.6347 12.4949 54.6476 12.0548 54.6613 11.6327C54.6756 9.85649 54.6562 8.08033 54.672 6.30417C54.9937 6.30991 55.3146 6.30776 55.6369 6.30776C55.6369 7.53327 55.6362 8.75806 55.6369 9.98356C55.624 10.7977 55.6721 11.6169 55.5659 12.4267C55.4948 12.986 55.2729 13.5438 54.8501 13.93C54.2434 14.5072 53.3719 14.7075 52.5549 14.6767C51.6776 14.653 50.7593 14.3069 50.2288 13.579C49.8339 13.0434 49.7614 12.3542 49.7549 11.7088C49.7456 9.90818 49.7528 8.10833 49.7506 6.30776Z" fill="black" fill-opacity="1"/>
<path d="M58.7974 6.30702C59.1334 6.30702 59.4701 6.30631 59.8068 6.30846C61.1307 8.55558 62.4373 10.8142 63.7755 13.0527C63.7813 10.8041 63.7605 8.55558 63.7569 6.30702C64.0591 6.30774 64.3628 6.30343 64.6665 6.31277C64.6543 9.05095 64.6715 11.7899 64.6572 14.528C64.314 14.5209 63.9708 14.5295 63.6284 14.5201C62.3189 12.2759 61.0022 10.036 59.6776 7.80104C59.6812 10.0431 59.7006 12.2859 59.697 14.528C59.3969 14.523 59.0968 14.5245 58.7974 14.5252C58.7967 11.7856 58.7967 9.04665 58.7974 6.30702Z" fill="black" fill-opacity="1"/>
<path d="M68.0978 14.5309C68.0871 11.7891 68.0871 9.04659 68.0986 6.30481C68.4252 6.31199 68.7533 6.3084 69.0807 6.30912C69.0814 9.04802 69.0814 11.7876 69.0807 14.5266C68.7533 14.5266 68.4252 14.523 68.0978 14.5309Z" fill="black" fill-opacity="1"/>
<path d="M71.2617 6.30808C71.6049 6.30808 71.9488 6.30808 72.292 6.30808C73.0932 8.72678 73.8893 11.1469 74.6927 13.5649C75.5119 11.1441 76.3361 8.72463 77.1631 6.30664C77.4804 6.30879 77.7992 6.30736 78.1172 6.30808C77.1552 9.04698 76.1903 11.7852 75.2304 14.5248C74.8521 14.5269 74.473 14.5262 74.0947 14.5255C73.152 11.7859 72.2051 9.0477 71.2617 6.30808Z" fill="black" fill-opacity="1"/>
<path d="M80.3562 6.31055C81.8445 6.30409 83.3327 6.3163 84.8217 6.30481C84.8318 6.57978 84.8296 6.85546 84.8246 7.13043C83.6594 7.1254 82.4935 7.13043 81.3283 7.12756C81.3261 8.03215 81.3275 8.93602 81.3275 9.8399C82.4245 9.84349 83.5215 9.832 84.6193 9.84564C84.6114 10.1063 84.6114 10.3669 84.62 10.6275C83.523 10.6548 82.4253 10.6325 81.3275 10.639C81.3247 11.652 81.3319 12.665 81.3247 13.6772C82.5251 13.6894 83.7254 13.678 84.9265 13.683C84.9251 13.9644 84.9251 14.2451 84.9258 14.5258C83.4024 14.5251 81.8789 14.5294 80.3555 14.5237C80.3598 11.7862 80.3583 9.04874 80.3562 6.31055Z" fill="black" fill-opacity="1"/>
<path d="M87.5391 14.52C87.5556 11.7811 87.5304 9.0415 87.552 6.30188C88.4501 6.31911 89.349 6.29111 90.2471 6.32701C90.8107 6.35644 91.408 6.48711 91.8287 6.8913C92.5086 7.50657 92.6895 8.54685 92.3951 9.39472C92.1475 10.0918 91.4525 10.5441 90.741 10.6497C91.2328 10.7179 91.571 11.1271 91.7662 11.5535C92.2315 12.5357 92.6586 13.5343 93.1037 14.5258C92.7634 14.5265 92.4239 14.5215 92.0843 14.5301C91.6909 13.6937 91.3448 12.835 90.9435 12.0015C90.7475 11.6088 90.4991 11.1738 90.0468 11.0452C89.5478 10.9131 89.0245 10.962 88.5147 10.9505C88.514 12.1422 88.514 13.334 88.514 14.5251C88.1888 14.5243 87.8636 14.5294 87.5391 14.52ZM88.5147 7.09735C88.514 8.11968 88.514 9.14273 88.5147 10.1651C89.1386 10.1557 89.7747 10.2074 90.3864 10.0516C90.7755 9.95399 91.1416 9.71779 91.3434 9.36314C91.637 8.8613 91.6191 8.19291 91.3046 7.70472C91.039 7.31273 90.5572 7.13468 90.0999 7.11099C89.5722 7.08155 89.0424 7.10453 88.5147 7.09735Z" fill="black" fill-opacity="1"/>
<path d="M102.707 6.30859C103.037 6.30859 103.366 6.30859 103.696 6.30859C103.697 9.0475 103.697 11.7864 103.696 14.526C103.366 14.526 103.037 14.526 102.707 14.5253C102.707 11.7864 102.707 9.0475 102.707 6.30859Z" fill="black" fill-opacity="1"/>
<path d="M105.91 6.30949C107.867 6.30806 109.824 6.30877 111.781 6.30877C111.78 6.58159 111.78 6.85512 111.781 7.12793C110.969 7.12721 110.157 7.12937 109.345 7.12721C109.343 9.59331 109.345 12.0601 109.344 14.5262C109.017 14.5269 108.691 14.5212 108.365 14.5327C108.34 12.0637 108.369 9.59331 108.351 7.12434C107.538 7.13296 106.724 7.12578 105.91 7.12793C105.91 6.85512 105.91 6.5823 105.91 6.30949Z" fill="black" fill-opacity="1"/>
<path d="M112.926 6.30792C113.304 6.30863 113.682 6.30217 114.062 6.31294C114.721 7.59588 115.404 8.8659 116.068 10.1467C116.756 8.88313 117.384 7.58655 118.046 6.30792C118.403 6.30648 118.76 6.3072 119.119 6.30792C118.266 7.93187 117.414 9.55511 116.561 11.1784C116.503 11.2746 116.506 11.388 116.507 11.4964C116.51 12.5058 116.508 13.5152 116.509 14.5246C116.182 14.5246 115.854 14.5289 115.528 14.5203C115.53 13.4398 115.546 12.3572 115.52 11.2774C114.675 9.61183 113.782 7.96921 112.926 6.30792Z" fill="black" fill-opacity="1"/>
<path d="M134.801 6.30859C136.257 6.30859 137.712 6.30859 139.168 6.30859C139.167 6.58141 139.167 6.85494 139.168 7.12775C138.039 7.12847 136.911 7.12775 135.782 7.12775C135.782 8.03163 135.784 8.93478 135.781 9.83866C136.843 9.8444 137.904 9.83148 138.966 9.8444C138.959 10.1072 138.959 10.3699 138.965 10.632C137.904 10.6478 136.843 10.6341 135.782 10.6392C135.783 11.935 135.782 13.2302 135.782 14.526C135.455 14.526 135.127 14.526 134.801 14.526C134.801 11.7864 134.801 9.0475 134.801 6.30859Z" fill="black" fill-opacity="1"/>
<path d="M6.08811 8.40802C6.17929 7.78701 6.74574 7.30097 7.35598 7.21985C7.39188 7.37277 7.42131 7.52712 7.44931 7.68148C7.06737 7.74681 6.67179 8.00024 6.59426 8.403C6.54185 8.65571 6.80102 8.88976 7.04799 8.82442C7.50818 8.7275 7.91381 8.41448 8.39985 8.431C8.98209 8.4353 9.45377 9.0556 9.30229 9.61845C9.14219 10.2244 8.5621 10.6472 7.95904 10.742C7.92243 10.5891 7.88438 10.4362 7.84489 10.284C8.21175 10.182 8.63318 10.0155 8.76815 9.62348C8.8902 9.33846 8.64754 8.97375 8.33093 9.00821C7.85207 9.04842 7.45003 9.38728 6.96399 9.39949C6.45498 9.42102 6.00483 8.91129 6.08811 8.40802Z" fill="black" fill-opacity="1"/>
<path d="M30.81 7.54618C31.1043 7.38536 31.505 7.63448 31.4892 7.97119C31.5042 8.32729 31.0534 8.5721 30.7633 8.36462C30.4589 8.18729 30.4876 7.68761 30.81 7.54618Z" fill="black" fill-opacity="1"/>
<path d="M33.4178 9.59399C33.7559 9.50281 34.1271 9.50066 34.4545 9.63634C35.1623 9.91634 35.5989 10.78 35.3404 11.5094C35.0934 12.2123 34.4035 12.7012 33.6848 12.824C33.1335 12.923 32.5405 12.6825 32.2203 12.2216C31.9367 11.8433 31.8355 11.3271 31.9905 10.8762C32.203 10.238 32.7846 9.77562 33.4178 9.59399ZM33.6346 10.0987C33.1055 10.2588 32.5778 10.6422 32.4493 11.2072C32.3179 11.76 32.8032 12.3652 33.3797 12.3171C33.9419 12.2704 34.499 11.951 34.7854 11.4585C35.0338 11.037 34.8795 10.4526 34.4731 10.1892C34.2276 10.0262 33.9103 10.0219 33.6346 10.0987Z" fill="black" fill-opacity="1"/>
<path d="M15.4739 9.80239C15.5134 9.79808 15.593 9.78946 15.6333 9.78516C16.0173 10.3049 16.3978 10.8297 16.7503 11.3718C16.5709 11.4149 16.3892 11.4493 16.209 11.4895C16.4101 11.8485 16.662 12.1759 16.8889 12.519C17.2299 12.2714 17.5516 11.9957 17.8567 11.7056C17.7181 11.6331 17.5745 11.5706 17.4403 11.491C17.4554 11.3926 17.553 11.3495 17.6226 11.2942C17.9601 11.0616 18.2961 10.8262 18.6299 10.5878C18.7225 10.5203 18.8237 10.4571 18.9436 10.4564C18.6845 11.3251 18.3836 12.1802 18.108 13.0438C17.2522 12.7524 16.3347 12.7294 15.4394 12.7215C14.6303 12.7466 13.7975 12.7689 13.0279 13.0467C12.7386 12.1888 12.4564 11.3287 12.1836 10.465C12.4069 10.4514 12.5598 10.6402 12.7386 10.7422C13.0781 10.9956 13.4737 11.1822 13.7717 11.4881C13.6274 11.5556 13.478 11.6152 13.3474 11.7078C13.6116 12.0079 13.9318 12.2534 14.2268 12.5226C14.4673 12.1845 14.7279 11.8542 14.9132 11.4809C14.7351 11.4479 14.5571 11.4184 14.3819 11.3725C14.7208 10.8326 15.1142 10.3286 15.4739 9.80239Z" fill="black" fill-opacity="1"/>
<path d="M23.2094 10.864C23.4643 10.5029 23.722 10.1439 23.9748 9.78134C24.2153 9.7756 24.2871 10.0434 24.4206 10.1949C24.679 10.5983 25.0129 10.9559 25.2218 11.3888C25.0473 11.4197 24.8736 11.4484 24.7006 11.4836C24.8858 11.8511 25.1514 12.1692 25.3704 12.5167C25.7193 12.2797 26.0323 11.9918 26.3432 11.7083C26.2011 11.6307 26.0546 11.5611 25.9081 11.4929C26.0532 11.294 26.2829 11.1878 26.4746 11.042C26.751 10.8568 27.0095 10.6443 27.2966 10.4756C27.3318 10.4749 27.4007 10.472 27.4352 10.4706C27.1595 11.3299 26.8723 12.1857 26.5945 13.0436C25.7559 12.7579 24.8571 12.7328 23.9798 12.7213C23.1499 12.7407 22.3005 12.7701 21.5087 13.0443C21.2287 12.1857 20.9437 11.3292 20.668 10.4698C20.9207 10.4555 21.0951 10.6816 21.3012 10.7951C21.6135 11.0327 21.9926 11.1935 22.2503 11.4943C22.1031 11.5575 21.9574 11.625 21.8159 11.7011C22.1017 11.9689 22.3817 12.246 22.6854 12.493L22.7385 12.4887C22.9804 12.1799 23.18 11.8418 23.4076 11.523C23.2496 11.4283 23.0615 11.4232 22.8849 11.3917C22.951 11.1921 23.0917 11.0334 23.2094 10.864Z" fill="black" fill-opacity="1"/>
<path d="M4.09143 11.058C4.25009 10.8089 4.49778 10.5871 4.80649 10.5749C5.3715 10.5095 5.98964 11.0322 5.83241 11.6281C6.1002 11.4953 6.40245 11.5563 6.68746 11.5757C7.01484 11.6058 7.34294 11.6288 7.67031 11.6625C7.56621 11.8248 7.47216 11.9928 7.38386 12.1644C6.93156 12.1414 6.4807 12.0552 6.02697 12.0732C5.73836 12.0911 5.62852 12.3955 5.50575 12.6095C5.92646 12.8328 6.34214 13.0647 6.76069 13.293C6.67454 13.4516 6.58695 13.6096 6.49578 13.7654C5.49426 13.2147 4.48916 12.6698 3.48047 12.1313C3.67934 11.7709 3.86959 11.4048 4.09143 11.058ZM4.59398 11.1937C4.38793 11.3775 4.28168 11.6417 4.13666 11.8707C4.45829 12.0473 4.78136 12.2211 5.10515 12.3941C5.2315 12.1529 5.39591 11.9131 5.40739 11.6317C5.41529 11.249 4.907 10.9511 4.59398 11.1937Z" fill="black" fill-opacity="1"/>
<path d="M36.5873 13.0215C36.6591 13.2139 36.7237 13.4084 36.7898 13.6023C36.4983 13.9713 36.153 14.2965 35.8809 14.6806C36.3382 14.7768 36.7948 14.8781 37.2492 14.9915C37.3024 15.1753 37.3627 15.3576 37.4223 15.54C36.7941 15.3842 36.1644 15.2334 35.5348 15.0848C35.0919 15.6197 34.6381 16.1459 34.2031 16.688C34.1241 16.4955 34.0587 16.2981 34.0049 16.0985C34.3481 15.7159 34.679 15.3232 35.0093 14.9297C34.5161 14.8041 34.0128 14.7165 33.5225 14.5815C33.4126 14.4193 33.3882 14.2061 33.3164 14.0237C34.0006 14.1766 34.6776 14.3647 35.3647 14.504C35.7581 13.9986 36.1896 13.5233 36.5873 13.0215Z" fill="black" fill-opacity="1"/>
<path d="M14.133 13.3799C14.9787 13.265 15.8373 13.2622 16.6859 13.3419C17.0607 13.3885 17.4469 13.428 17.793 13.5888C17.9007 13.6211 17.9976 13.774 17.8655 13.8451C17.6386 13.9959 17.3586 14.0339 17.0959 14.0849C16.2365 14.2141 15.3599 14.2206 14.4948 14.1438C14.1157 14.1029 13.7288 14.0598 13.3748 13.9119C13.2786 13.8796 13.2233 13.7913 13.1602 13.7195C13.4229 13.4761 13.7962 13.4402 14.133 13.3799Z" fill="black" fill-opacity="1"/>
<path d="M21.7962 13.6042C22.1645 13.4204 22.5852 13.3852 22.988 13.3356C23.917 13.2588 24.8618 13.261 25.7814 13.4318C26.0219 13.4943 26.3263 13.5245 26.4541 13.7714C26.1641 14.0091 25.7793 14.0529 25.4225 14.1096C24.4676 14.2266 23.4955 14.2259 22.5428 14.0888C22.265 14.032 21.957 14.0026 21.7258 13.8224C21.6289 13.7556 21.7187 13.6372 21.7962 13.6042Z" fill="black" fill-opacity="1"/>
<path d="M2.15625 15.9993C2.34435 15.366 2.53604 14.7335 2.71911 14.0996C2.87131 14.1377 3.02351 14.1779 3.17499 14.2195C3.03643 14.679 2.89644 15.1377 2.75716 15.5965C3.06443 15.6747 3.36883 15.7616 3.67467 15.8463C3.79816 15.4292 3.89292 15.0035 4.04225 14.5957C4.18369 14.6402 4.32512 14.6833 4.46727 14.7264C4.35025 15.1406 4.23251 15.5541 4.1162 15.9684C4.46224 16.0581 4.80685 16.1572 5.15217 16.2512C5.27638 15.8004 5.40919 15.3524 5.53124 14.9008C5.6856 14.9396 5.83923 14.9812 5.99359 15.0222C5.82559 15.6532 5.64755 16.2807 5.47524 16.9103C4.37035 16.6009 3.26186 16.3058 2.15625 15.9993Z" fill="black" fill-opacity="1"/>
<path d="M13.3594 15.5645C14.6524 15.5645 15.9454 15.5652 17.2384 15.5645C17.7574 15.5738 18.3152 15.5637 18.7754 15.8401C19.3031 16.1524 19.5278 16.79 19.5307 17.3765C19.5386 19.7471 19.53 22.1177 19.535 24.4876C19.5364 24.6369 19.5293 24.7863 19.5085 24.9342C19.362 24.7159 19.4101 24.418 19.2299 24.2134C18.9219 23.7991 18.3555 23.7611 17.8823 23.7467C16.3754 23.7424 14.8685 23.7431 13.3622 23.746C13.3565 21.0193 13.3615 18.2919 13.3594 15.5645ZM13.8576 16.8632C13.8935 16.9027 13.9646 16.9824 13.9998 17.0219C14.0227 17.2853 14.0163 17.5517 14.0062 17.8166C14.022 17.9272 13.8935 17.9638 13.8361 18.0327C14.1656 18.0219 14.5318 18.0916 14.8268 17.9063C15.1686 17.7039 15.1844 17.1066 14.8031 16.9371C14.5045 16.8158 14.1714 16.8747 13.8576 16.8632ZM15.6 16.8912C15.1628 17.0707 15.1197 17.7793 15.5505 17.9918C15.9382 18.2136 16.4845 17.9078 16.4551 17.4505C16.4989 17.0075 15.9856 16.6952 15.6 16.8912ZM16.5635 16.8646C16.6217 16.9335 16.7588 16.9687 16.738 17.0829C16.7394 17.3234 16.7236 17.5639 16.6963 17.803C16.7006 17.9121 16.5951 17.9645 16.5319 18.0356C16.6985 18.037 16.8672 18.042 17.0316 18.0069C16.9864 17.981 16.8952 17.9293 16.8492 17.9035C16.8227 17.6759 16.8406 17.4461 16.8485 17.2178C16.9921 17.4713 17.0639 17.757 17.191 18.0183C17.2125 18.0155 17.2556 18.0104 17.2771 18.0083C17.4107 17.724 17.4882 17.4167 17.6354 17.1389C17.6418 17.3945 17.6404 17.6508 17.6368 17.9071C17.5937 17.9379 17.5083 17.9982 17.4652 18.0284C17.6741 18.0356 17.8823 18.0349 18.0913 18.0341C18.0539 17.9939 17.9785 17.9135 17.9405 17.8733C17.9146 17.5897 17.9067 17.3033 17.9154 17.0183C17.9548 16.9788 18.0338 16.9005 18.074 16.861C17.919 16.8618 17.7646 16.8625 17.6102 16.8618C17.5191 17.0987 17.4272 17.3356 17.3381 17.5732C17.2269 17.3377 17.122 17.0994 17.0187 16.861C16.8665 16.8618 16.715 16.8625 16.5635 16.8646ZM18.1638 16.8646C18.3914 16.9781 18.3181 17.2408 18.331 17.4454C18.3181 17.6522 18.3914 17.9121 18.1674 18.0334C18.377 18.0341 18.5866 18.0341 18.7963 18.0356C18.7589 17.9954 18.6843 17.9157 18.6462 17.8762C18.6247 17.5912 18.6275 17.3033 18.6448 17.0183C18.6828 16.9838 18.7596 16.9142 18.7984 16.879C18.5873 16.856 18.3748 16.8574 18.1638 16.8646ZM14.5849 19.0256C14.6488 19.0974 14.7794 19.1333 14.7852 19.2431C14.8103 19.5159 14.7931 19.7902 14.7787 20.063C14.7385 20.0953 14.6567 20.1592 14.6165 20.1915C14.7859 20.2023 14.9561 20.2016 15.1248 20.1779C14.7629 20.0802 14.9482 19.6409 14.9036 19.3731C15.1413 19.6351 15.3452 19.9259 15.567 20.2016C15.6043 20.2087 15.6783 20.2231 15.7149 20.2296C15.7587 19.8649 15.6869 19.4908 15.7673 19.1319L15.9274 19.0823C15.7673 18.9897 15.5785 19.0299 15.4033 19.0285C15.725 19.1405 15.5964 19.508 15.623 19.7658C15.4098 19.5274 15.2174 19.2718 15.0156 19.0249C14.8721 19.0256 14.7285 19.0249 14.5849 19.0256ZM15.9647 19.106C16.2677 19.3996 16.2426 19.918 16.514 20.2217L16.5937 20.203C16.8069 19.8196 16.8306 19.3121 17.1903 19.0256C17.0273 19.0256 16.8636 19.0256 16.7006 19.0249C16.7394 19.0593 16.8162 19.1283 16.855 19.1627C16.7975 19.3759 16.7193 19.5827 16.6432 19.7902C16.5312 19.5827 16.4565 19.358 16.3768 19.1376C16.4192 19.111 16.5053 19.0579 16.5477 19.0306C16.3381 19.0256 16.1284 19.0256 15.9195 19.0177C15.9303 19.0392 15.9533 19.0837 15.9647 19.106ZM17.4013 19.0665C17.2283 19.1656 17.1766 19.4384 17.3281 19.5784C17.4494 19.6811 17.6031 19.7356 17.7244 19.8383C17.8077 19.9481 17.7438 20.1326 17.5959 20.1348C17.4049 20.1183 17.3417 19.9058 17.1989 19.8089C17.2118 19.928 17.2333 20.0458 17.2556 20.1635C17.4329 20.2123 17.6311 20.2612 17.8055 20.1736C17.9986 20.0939 18.0812 19.8354 17.9728 19.6588C17.8579 19.4908 17.6246 19.4664 17.5004 19.3113C17.4279 19.1785 17.6023 19.0349 17.7244 19.1103C17.8156 19.185 17.8831 19.2841 17.962 19.3709C17.9527 19.2596 17.9426 19.1484 17.9319 19.0371C17.7567 19.0091 17.5614 18.9631 17.4013 19.0665ZM14.4384 21.2016C14.4822 21.2296 14.5698 21.2856 14.6136 21.3136C14.6251 21.6188 14.6237 21.9246 14.6158 22.2297C14.5562 22.2685 14.4973 22.3073 14.4384 22.346C14.6545 22.3647 14.8706 22.3625 15.0874 22.3618C15.0379 22.3037 14.9697 22.2592 14.9367 22.1895C14.9144 21.9002 14.9302 21.6101 14.9331 21.3208C14.9898 21.277 15.0465 21.2332 15.1032 21.188C14.8814 21.1858 14.6595 21.1851 14.4384 21.2016ZM15.1549 21.1959C15.2109 21.2325 15.2662 21.2691 15.3229 21.3057C15.3351 21.6116 15.3531 21.9203 15.32 22.2247C15.2777 22.2548 15.193 22.3144 15.1506 22.3439C15.4572 22.3762 15.7652 22.3539 16.0724 22.3661C16.1004 22.2477 16.1241 22.1292 16.1442 22.0093C16.0193 22.1744 15.8772 22.3216 15.6496 22.2592C15.6431 21.9705 15.6295 21.6805 15.6489 21.3919C15.646 21.2885 15.7594 21.2476 15.8176 21.1823C15.5964 21.1887 15.3753 21.1866 15.1549 21.1959ZM16.165 21.1937C16.2218 21.2354 16.2785 21.2777 16.3352 21.3201C16.3388 21.6116 16.3539 21.9038 16.333 22.1953C16.2914 22.2355 16.2074 22.3173 16.1658 22.3582C16.473 22.3618 16.7803 22.3618 17.0883 22.3604C17.1098 22.2441 17.1299 22.1271 17.1472 22.0108C17.0237 22.1737 16.8837 22.318 16.659 22.2663C16.6497 21.9763 16.6367 21.6855 16.6554 21.3962C16.6504 21.2914 16.7638 21.2483 16.8227 21.1823C16.603 21.1887 16.384 21.188 16.165 21.1937ZM16.9354 21.1844C17.0079 21.2548 17.1019 21.3129 17.1393 21.4134C17.2714 21.7257 17.3827 22.0474 17.5047 22.3647C17.5384 22.3697 17.6074 22.3812 17.6411 22.3862C17.7775 22.061 17.8881 21.7243 18.0374 21.4048C18.0798 21.3086 18.1745 21.2533 18.2485 21.1844C18.0783 21.1887 17.9082 21.188 17.738 21.1873C17.7825 21.2196 17.8701 21.2828 17.9146 21.3151C17.8393 21.5355 17.7653 21.7566 17.6907 21.977C17.5959 21.7588 17.5133 21.5355 17.4272 21.3136C17.4674 21.2821 17.5478 21.2182 17.588 21.1866C17.3697 21.188 17.1522 21.1902 16.9354 21.1844Z" fill="black" fill-opacity="1"/>
<path d="M20.6943 15.9564C21.1071 15.6082 21.675 15.5774 22.1905 15.5659C23.561 15.5616 24.9315 15.5652 26.3021 15.5644C26.3049 18.289 26.297 21.0135 26.3056 23.7374C24.9811 23.7517 23.6565 23.7395 22.3312 23.7438C21.8222 23.751 21.2887 23.7065 20.8056 23.9011C20.5019 24.0209 20.2772 24.3088 20.2341 24.6326C20.1961 24.7202 20.2334 24.8652 20.1235 24.9062C20.1056 24.8143 20.097 24.7224 20.0977 24.629C20.102 22.2362 20.097 19.8433 20.0999 17.4504C20.097 16.9048 20.2535 16.3118 20.6943 15.9564ZM20.8709 16.8625C20.9319 16.9098 20.9887 16.9615 21.0411 17.0183C21.0511 17.2789 21.0296 17.5395 21.0023 17.7986C21.0073 17.9071 20.9039 17.9616 20.8415 18.0341C20.9951 18.0334 21.148 18.0334 21.3017 18.0348L21.3053 17.9832C21.2672 17.9623 21.1911 17.9193 21.1531 17.8984C21.1294 17.6709 21.1459 17.4418 21.1566 17.215C21.2959 17.4691 21.3692 17.7513 21.4941 18.0119C21.5156 18.0119 21.5594 18.0104 21.5809 18.0097C21.7138 17.7247 21.7949 17.4174 21.9406 17.1381C21.9464 17.3945 21.9464 17.6508 21.9413 17.9071C21.899 17.9372 21.815 17.9982 21.7726 18.0284C21.9815 18.0341 22.1905 18.0341 22.3994 18.0334C22.3613 17.9932 22.2845 17.9128 22.2465 17.8726C22.2199 17.5869 22.2142 17.299 22.2192 17.0125C22.2615 16.9752 22.3463 16.8998 22.3886 16.8625C22.2307 16.8617 22.0734 16.8617 21.9155 16.861C21.8265 17.0915 21.7389 17.3227 21.6513 17.5538C21.5206 17.3356 21.4273 17.0987 21.3304 16.8646C21.1767 16.861 21.0238 16.8617 20.8709 16.8625ZM22.4798 16.8617C22.5157 16.9034 22.5882 16.9867 22.6241 17.029C22.642 17.309 22.6428 17.5926 22.6234 17.8733C22.5846 17.9128 22.5064 17.9925 22.4676 18.0327C22.6815 18.0334 22.8955 18.0327 23.1101 18.0341C23.0706 17.9946 22.9917 17.9164 22.9522 17.8769C22.9307 17.5933 22.9321 17.3069 22.9508 17.0233C22.9902 16.9824 23.0685 16.902 23.1073 16.861C22.8983 16.861 22.6887 16.861 22.4798 16.8617ZM23.1381 16.8661C23.2078 16.9142 23.2724 16.9687 23.3313 17.0297C23.3628 17.2638 23.3506 17.5014 23.3435 17.7369C23.3621 17.869 23.286 17.9623 23.169 18.0147C23.3442 18.0449 23.5237 18.0435 23.6967 18.0018C23.6428 17.9824 23.5351 17.9437 23.4806 17.9236C23.454 17.6888 23.4512 17.4519 23.4619 17.2157C23.6278 17.3966 23.7742 17.5948 23.9243 17.79C24.0205 17.9085 24.1045 18.07 24.2811 18.0657C24.289 17.7369 24.2689 17.4074 24.2947 17.0793C24.2854 16.9673 24.4103 16.9307 24.472 16.8617C24.2983 16.861 24.1253 16.8617 23.953 16.8653C24.0198 16.9113 24.0851 16.9594 24.1497 17.0096C24.1827 17.2064 24.1705 17.4081 24.1763 17.607C23.9652 17.3621 23.7699 17.1037 23.561 16.8567C23.4196 16.8603 23.2788 16.8625 23.1381 16.8661ZM24.3866 18.0334C24.5496 18.0341 24.7126 18.032 24.8755 18.0269C24.8325 17.9997 24.7463 17.9437 24.7025 17.9157C24.7276 17.8374 24.7528 17.7592 24.7772 17.6809C24.8748 17.6788 24.9724 17.6773 25.0701 17.6752C25.0981 17.7577 25.1246 17.8403 25.1526 17.9236C25.1153 17.9494 25.0399 18.0011 25.0019 18.0269C25.2122 18.0356 25.4233 18.0341 25.6344 18.032C25.5626 17.9602 25.4671 17.9049 25.4334 17.8044C25.2998 17.4878 25.2108 17.1547 25.0722 16.8402L24.9868 16.8474C24.7341 17.2128 24.7441 17.7383 24.3866 18.0334ZM21.6779 18.9854C21.6743 19.1189 21.6714 19.2525 21.6707 19.386C21.7511 19.2417 21.8473 19.106 22.0282 19.0995C22.0368 19.4219 22.0368 19.745 22.0261 20.0673C21.9787 20.0967 21.8839 20.1563 21.8365 20.1865C22.0742 20.2023 22.3125 20.2023 22.5501 20.185C22.4999 20.1556 22.3987 20.0982 22.3477 20.0695C22.3369 19.7457 22.3362 19.4219 22.347 19.0988C22.5243 19.1024 22.6176 19.2467 22.7074 19.3781C22.7081 19.2517 22.7031 19.1254 22.693 18.999C22.3563 19.027 22.0117 19.0557 21.6779 18.9854ZM22.8029 19.0292C22.8603 19.0744 22.9184 19.1196 22.9773 19.1641C22.9716 19.4571 22.9953 19.7507 22.9658 20.0429C22.9285 20.0809 22.8538 20.1563 22.8165 20.1944C23.0297 20.198 23.243 20.1994 23.4569 20.1886C23.4153 20.1578 23.332 20.0946 23.2903 20.063C23.286 19.7873 23.2745 19.5109 23.2903 19.2359C23.2781 19.1297 23.3973 19.0916 23.4526 19.0234C23.2358 19.0242 23.019 19.0227 22.8029 19.0292ZM23.8733 19.0809C23.5574 19.2611 23.477 19.7356 23.7082 20.0142C23.9178 20.2734 24.3464 20.2913 24.5905 20.0709C24.8461 19.8347 24.8526 19.3731 24.5891 19.1405C24.3967 18.9689 24.0937 18.9595 23.8733 19.0809ZM21.3849 21.1851C21.4776 21.2598 21.6018 21.3309 21.5623 21.4723C21.5293 21.771 21.6061 22.1227 21.3878 22.3647C21.5436 22.3611 21.7037 22.3755 21.8552 22.3288C21.5178 22.2534 21.7016 21.827 21.6815 21.5872C21.8437 21.8349 21.8976 22.1342 22.044 22.3905C22.24 22.1019 22.3104 21.7523 22.4554 21.4386C22.4152 21.7415 22.5961 22.1421 22.3125 22.3611C22.5171 22.3611 22.721 22.3597 22.9249 22.3568C22.8876 22.3245 22.8122 22.2613 22.7749 22.2297C22.7246 21.9296 22.7454 21.6216 22.7332 21.3179C22.795 21.2741 22.8567 21.2304 22.9192 21.1873C22.7555 21.1873 22.5925 21.188 22.4295 21.1916C22.3427 21.4271 22.2515 21.6611 22.1646 21.8959C22.0454 21.6633 21.9485 21.4206 21.8372 21.1844C21.6865 21.1873 21.5357 21.1873 21.3849 21.1851ZM22.9816 21.1866C23.0225 21.221 23.1044 21.2885 23.146 21.323C23.1496 21.6137 23.1654 21.9052 23.1424 22.196C23.0965 22.2355 23.0053 22.3144 22.9594 22.3539C23.281 22.3632 23.6034 22.3625 23.9257 22.3575C23.9451 22.2383 23.963 22.1192 23.9781 22.0007C23.902 22.0797 23.836 22.1673 23.7599 22.2455C23.6629 22.2584 23.5653 22.2649 23.4684 22.2642C23.4605 22.1041 23.4576 21.9433 23.4576 21.7824C23.6141 21.7789 23.7211 21.8765 23.8015 21.9978C23.8058 21.8399 23.808 21.6819 23.8051 21.5247C23.7161 21.6324 23.6062 21.7085 23.4612 21.7135C23.4576 21.5699 23.4569 21.4271 23.4555 21.2849C23.655 21.2383 23.7843 21.3646 23.8841 21.519C23.8826 21.4098 23.8812 21.3014 23.8805 21.1937C23.5804 21.1844 23.281 21.188 22.9816 21.1866ZM23.9717 22.3589C24.1246 22.3604 24.2775 22.3604 24.4304 22.3582C24.3816 22.3144 24.3328 22.2721 24.2832 22.2304C24.3076 22.1543 24.3313 22.0797 24.3565 22.0043C24.4555 22.005 24.556 22.0057 24.6558 22.0064C24.7147 22.1314 24.7226 22.2584 24.6257 22.3668C24.8217 22.3611 25.0184 22.3589 25.2151 22.351C25.1325 22.2807 25.0313 22.2197 25.0004 22.1084C24.8698 21.7846 24.77 21.4486 24.6321 21.1277C24.2832 21.4551 24.3493 22.0452 23.9717 22.3589Z" fill="black" fill-opacity="1"/>
<path d="M10.4938 16.1025C10.6804 15.8319 11.1392 15.8232 11.3122 16.1119C11.4278 16.3531 11.7229 16.3473 11.9418 16.4299C11.9411 16.3653 11.9404 16.2368 11.9397 16.1722C12.1278 16.1714 12.3166 16.1714 12.5054 16.1714C12.5076 19.0525 12.5047 21.9343 12.5068 24.816C14.5903 24.8139 16.6737 24.816 18.7571 24.8153C18.8526 25.0587 18.9761 25.3279 19.2446 25.4184C19.61 25.5426 20.0236 25.5426 20.3897 25.4213C20.6625 25.3344 20.7918 25.0623 20.8872 24.8153C22.9771 24.8117 25.0678 24.8218 27.1576 24.8103C27.1505 21.9307 27.1562 19.0511 27.1548 16.1714C27.3429 16.1714 27.531 16.1714 27.7191 16.1707C27.7212 19.2406 27.7198 22.3105 27.7198 25.3803C25.5581 25.3818 23.3964 25.3775 21.2347 25.3818C20.8851 25.9999 20.1018 26.1536 19.4507 26.0473C19.0221 25.9992 18.6308 25.7501 18.4075 25.3811C16.253 25.3803 14.0992 25.3767 11.9447 25.3832C11.9397 25.1779 11.9404 24.9733 11.9404 24.7679C11.7674 24.8383 11.5951 24.9115 11.4271 24.9927C11.3467 25.2439 11.1133 25.4636 10.8326 25.4112C10.4773 25.3739 10.2662 24.9237 10.4708 24.6287C10.6201 24.3745 10.9575 24.3372 11.2038 24.4643C11.4508 24.3616 11.6977 24.2568 11.9418 24.1469C11.9404 23.9222 11.9404 23.6982 11.9404 23.4749C11.7731 23.5252 11.6066 23.5762 11.4414 23.6315C11.3388 23.8598 11.1069 24.0536 10.842 23.9926C10.4715 23.943 10.2848 23.4477 10.5318 23.1662C10.7048 22.9322 11.0451 22.9286 11.2727 23.0844C11.496 23.0205 11.7171 22.9523 11.9397 22.8855C11.9411 22.6536 11.9404 22.4217 11.9411 22.1899C11.771 22.2179 11.6008 22.2459 11.4314 22.276C11.305 22.4684 11.0904 22.6364 10.8456 22.5761C10.4744 22.5223 10.2956 22.024 10.5455 21.7455C10.7379 21.4942 11.1126 21.5186 11.3345 21.7153C11.5369 21.6837 11.7387 21.6485 11.9404 21.6134C11.9404 21.3772 11.9404 21.1402 11.9411 20.904C11.7631 20.9098 11.5857 20.9162 11.4084 20.9249C11.2196 21.1855 10.8082 21.2666 10.5806 21.011C10.2999 20.7432 10.465 20.2148 10.8477 20.1538C11.0624 20.0928 11.2397 20.2421 11.4063 20.3512C11.5843 20.3591 11.7623 20.3433 11.9404 20.3376C11.9404 20.0813 11.9404 19.8257 11.9418 19.5701C11.7523 19.5594 11.5628 19.5507 11.3732 19.5457C11.2311 19.68 11.0444 19.7991 10.8391 19.7446C10.506 19.6886 10.3157 19.2672 10.4995 18.9821C10.6474 18.705 11.0638 18.6383 11.2835 18.8687C11.45 19.0539 11.7207 18.9707 11.9404 19.0015C11.9404 18.7653 11.9404 18.5298 11.9411 18.2951C11.7329 18.2563 11.5261 18.2168 11.3172 18.1852C11.1622 18.2965 10.9669 18.3884 10.7752 18.3145C10.4629 18.2254 10.315 17.8133 10.5017 17.5477C10.6653 17.272 11.1047 17.2246 11.3057 17.4831C11.4429 17.7014 11.7214 17.6647 11.9411 17.7171C11.9404 17.4853 11.9404 17.2534 11.9397 17.0208C11.7157 16.9583 11.4974 16.8757 11.2706 16.8255C11.0961 16.8635 10.9202 16.9777 10.7379 16.8966C10.4177 16.7982 10.2827 16.3638 10.4938 16.1025Z" fill="black" fill-opacity="1"/>
<path d="M14.3194 16.9494C14.7911 16.9049 14.8672 17.5704 14.6231 17.8526C14.5585 17.9358 14.3532 17.9997 14.3295 17.8533C14.2979 17.5532 14.3202 17.2502 14.3194 16.9494Z" fill="black" fill-opacity="1"/>
<path d="M15.7416 16.9549C15.9233 16.8515 16.0683 17.0776 16.0906 17.2334C16.1236 17.461 16.1616 17.7525 15.9886 17.9334C15.7998 18.0547 15.6332 17.8264 15.6074 17.6584C15.5665 17.4273 15.5378 17.1193 15.7416 16.9549Z" fill="black" fill-opacity="1"/>
<path d="M24.8008 17.5653C24.8424 17.4541 24.8855 17.3442 24.93 17.2344C24.9659 17.3485 25.0025 17.4634 25.0391 17.5783C24.9594 17.574 24.8798 17.5696 24.8008 17.5653Z" fill="black" fill-opacity="1"/>
<path d="M34.3672 17.8831C35.5087 17.7941 36.6488 17.6885 37.7917 17.6074C37.829 18.2378 37.8922 18.8667 37.9396 19.4963C37.7831 19.5092 37.6273 19.5214 37.4715 19.5343C37.4349 19.0842 37.3969 18.6341 37.3631 18.1832C37.0501 18.2055 36.7378 18.2378 36.4241 18.25C36.4399 18.6786 36.4894 19.105 36.5195 19.5322C36.3659 19.5437 36.213 19.5566 36.0608 19.5674C36.0292 19.1431 35.9926 18.7195 35.9581 18.2959C35.4419 18.3426 34.9257 18.3821 34.4088 18.4201C34.3952 18.2406 34.3815 18.0619 34.3672 17.8831Z" fill="black" fill-opacity="1"/>
<path d="M1.81409 17.6689C2.94411 18.1205 4.06983 18.5836 5.19841 19.0395C5.19195 19.2283 5.18405 19.4171 5.17544 19.6066C4.01813 19.9556 2.85939 20.3002 1.69994 20.6426C1.70065 20.4545 1.70137 20.2664 1.69922 20.079C2.62822 19.8113 3.56153 19.5593 4.49053 19.2922C3.61107 18.9009 2.69499 18.5936 1.80116 18.234C1.80547 18.0459 1.80978 17.857 1.81409 17.6689Z" fill="black" fill-opacity="1"/>
<path d="M24.0756 19.1139C24.184 19.0522 24.3089 19.1283 24.3591 19.2288C24.4632 19.4305 24.4611 19.671 24.4259 19.8907C24.4115 20.0113 24.3297 20.1391 24.1933 20.1348C23.9923 20.0874 23.9327 19.8584 23.9147 19.6804C23.9025 19.4858 23.9025 19.2417 24.0756 19.1139Z" fill="black" fill-opacity="1"/>
<path d="M35.3523 21.006C36.1887 20.7885 37.2333 21.0979 37.6282 21.9135C37.9268 22.5496 37.7315 23.3917 37.1479 23.7973C36.3739 24.3157 35.2339 24.1513 34.5928 23.4908C34.1921 23.0636 34.1153 22.3966 34.3372 21.8661C34.5145 21.4396 34.9072 21.118 35.3523 21.006ZM35.5778 21.52C35.1089 21.5811 34.6933 21.9817 34.7004 22.4692C34.6638 22.9258 35.0522 23.2811 35.4528 23.4183C35.9008 23.5827 36.44 23.6178 36.8585 23.3572C37.3065 23.0859 37.435 22.4045 37.094 21.9996C36.7336 21.5681 36.1126 21.4432 35.5778 21.52Z" fill="black" fill-opacity="1"/>
<path d="M24.3789 21.9038C24.4184 21.7853 24.46 21.6683 24.5017 21.5505C24.539 21.6654 24.5771 21.7803 24.6165 21.8951C24.557 21.8973 24.4385 21.9016 24.3789 21.9038Z" fill="black" fill-opacity="1"/>
<path d="M56.2578 21.8098C58.7798 21.5471 61.4269 22.2801 63.3523 23.9564C64.4572 24.9048 65.3137 26.1404 65.8156 27.508C66.7604 30.0933 66.4782 33.1093 65.0337 35.4577C64.0207 37.1204 62.4269 38.4084 60.6034 39.0847C57.718 40.1587 54.2964 39.7782 51.7807 37.9762C50.0635 36.7629 48.8229 34.8998 48.367 32.8473C47.7675 30.183 48.3641 27.2359 50.0929 25.0994C51.5847 23.2191 53.8764 22.0367 56.2578 21.8098ZM56.4695 22.6749C55.5161 22.7898 54.5929 23.1588 53.8362 23.7518C52.8864 24.4884 52.2079 25.5265 51.7678 26.6343C51.1648 28.1592 50.9666 29.8219 51.052 31.4531C51.1238 32.8243 51.3988 34.2027 52.004 35.4433C52.5137 36.4936 53.2898 37.4356 54.3014 38.035C55.4056 38.702 56.7431 38.9188 58.0145 38.7673C59.0053 38.6517 59.9673 38.2633 60.742 37.6316C61.6781 36.8785 62.3415 35.8324 62.7694 34.7196C63.376 33.1359 63.5534 31.4114 63.4342 29.7279C63.3344 28.348 63.0214 26.9638 62.3659 25.7376C61.8167 24.7103 60.9954 23.8064 59.9544 23.2651C58.894 22.7015 57.6541 22.5328 56.4695 22.6749Z" fill="black" fill-opacity="1"/>
<path d="M111.831 21.8171C114.407 21.5306 117.122 22.288 119.069 24.0254C120.112 24.9436 120.926 26.1189 121.42 27.4184C122.449 30.1357 122.105 33.3485 120.476 35.7621C119.303 37.5168 117.468 38.8011 115.432 39.3446C112.616 40.1099 109.428 39.5665 107.117 37.7522C105.313 36.3609 104.116 34.2258 103.851 31.9643C103.523 29.3675 104.301 26.6136 106.091 24.6794C107.561 23.0541 109.657 22.0411 111.831 21.8171ZM112.113 22.6743C111.31 22.7719 110.527 23.0433 109.849 23.4862C108.86 24.1216 108.118 25.0865 107.621 26.1419C106.98 27.5059 106.702 29.0193 106.675 30.5198C106.655 32.0784 106.868 33.6629 107.487 35.1031C107.962 36.2101 108.707 37.2253 109.719 37.8958C110.681 38.5434 111.853 38.8378 113.006 38.8119C114.116 38.799 115.231 38.4709 116.135 37.8176C117.157 37.0889 117.888 36.012 118.354 34.8583C118.998 33.2602 119.191 31.507 119.079 29.7954C118.985 28.3911 118.671 26.9804 118.002 25.7334C117.46 24.7204 116.654 23.8294 115.633 23.2859C114.565 22.708 113.31 22.5307 112.113 22.6743Z" fill="black" fill-opacity="1"/>
<path d="M1.90234 22.3237C3.03452 22.1636 4.16454 21.9877 5.296 21.8262C5.32185 22.0057 5.34769 22.1851 5.37354 22.3646C4.24352 22.5348 3.11349 22.7049 1.98203 22.8665C1.95547 22.6855 1.92891 22.5039 1.90234 22.3237Z" fill="black" fill-opacity="1"/>
<path d="M67.1861 22.0444C69.7254 22.0451 72.2647 22.0437 74.8047 22.0451C74.8033 22.2555 74.8033 22.4658 74.8026 22.6762C74.2562 22.7889 73.7099 22.903 73.1628 23.0107C73.025 23.0459 72.8613 23.0674 72.7752 23.1938C72.7414 23.3575 72.8591 23.4946 72.9403 23.6231C74.2555 25.4991 75.5629 27.38 76.8796 29.2553C76.9291 29.3874 77.049 29.3156 77.0935 29.2237C78.4439 27.3363 79.7979 25.4517 81.1455 23.5628C81.2597 23.4357 81.3207 23.2024 81.1067 23.1414C80.531 22.9418 79.9265 22.8305 79.337 22.6754C79.3356 22.4651 79.3356 22.2547 79.3356 22.0444C81.3767 22.0437 83.4177 22.0444 85.4595 22.0444C85.4588 22.2555 85.4588 22.4665 85.4574 22.6783C84.7725 22.8679 84.0646 22.9806 83.3969 23.2275C82.814 23.4436 82.4493 23.9663 82.0846 24.4365C80.5733 26.3398 79.0614 28.2423 77.5523 30.1469C79.3514 32.5132 81.1462 34.8824 82.9439 37.2502C83.234 37.6716 83.5879 38.0772 84.0826 38.2567C84.672 38.4721 85.2916 38.5891 85.8932 38.765C85.8932 38.9732 85.8932 39.1821 85.8968 39.391C83.3567 39.3996 80.816 39.3917 78.2767 39.3946C78.2759 39.1857 78.2759 38.9768 78.2745 38.7686C78.9142 38.6185 79.5711 38.5352 80.2014 38.3493C80.4261 38.2761 80.3084 38.0219 80.2065 37.8927C78.9587 36.1287 77.7052 34.3691 76.4545 32.6073C76.242 32.3173 76.0496 32.0121 75.817 31.7379C74.4723 33.5363 73.1793 35.3756 71.8548 37.1899C71.6581 37.482 71.4168 37.7462 71.256 38.06C71.1878 38.2466 71.4269 38.3163 71.5583 38.3615C72.0917 38.5065 72.6323 38.6221 73.1664 38.7657C73.1671 38.9761 73.1671 39.1871 73.1585 39.3975C71.1203 39.3917 69.0828 39.3939 67.0453 39.396C67.0425 39.1857 67.0425 38.9753 67.0439 38.765C67.6204 38.6236 68.1976 38.485 68.7705 38.3292C69.2286 38.2043 69.655 37.9523 69.9573 37.5818C71.7212 35.3821 73.4701 33.1687 75.2376 30.9719C73.6194 28.8015 71.9804 26.647 70.3536 24.4825C69.9925 24.0151 69.6723 23.4637 69.1001 23.2275C68.4841 22.9784 67.825 22.8571 67.1875 22.6754C67.1853 22.4651 67.1853 22.2547 67.1861 22.0444Z" fill="black" fill-opacity="1"/>
<path d="M88.2539 22.0459C92.6254 22.0423 96.9969 22.0452 101.369 22.0445C101.368 23.4918 101.368 24.9385 101.369 26.3851C101.126 26.3858 100.885 26.3858 100.644 26.3851C100.369 25.5056 100.092 24.6269 99.8162 23.7481C99.73 23.4803 99.6173 23.1975 99.3804 23.028C99.1679 22.8766 98.8958 22.8651 98.6445 22.8665C96.8676 22.8723 95.09 22.8608 93.3132 22.8723C93.3203 25.3599 93.3139 27.8468 93.316 30.3337C94.5667 30.3344 95.8173 30.3337 97.0687 30.3344C97.4305 30.3272 97.8297 30.3789 98.152 30.1736C98.432 29.9956 98.5605 29.6711 98.6495 29.3659C98.7845 28.9022 98.918 28.4377 99.0552 27.9739C99.2935 27.9753 99.5326 27.9753 99.7724 27.9703C99.7867 29.8986 99.7738 31.827 99.7788 33.7554C99.5376 33.7561 99.2971 33.7561 99.0573 33.7582C98.9066 33.1817 98.7673 32.6024 98.6201 32.0252C98.5562 31.7732 98.4464 31.5161 98.2303 31.3582C98.0027 31.1823 97.704 31.1543 97.4269 31.1529C96.0564 31.1521 94.6866 31.1529 93.316 31.1529C93.3175 33.283 93.3132 35.4131 93.3182 37.5432C93.2938 37.872 93.4977 38.2022 93.8286 38.2769C94.5537 38.4535 95.2875 38.5964 96.0147 38.7651C96.0147 38.9718 96.0155 39.1793 96.0226 39.3875C93.4338 39.404 90.8442 39.3897 88.2553 39.3947C88.2546 39.1844 88.2546 38.9747 88.2546 38.7658C88.8003 38.6366 89.3444 38.503 89.8894 38.3717C90.1413 38.3027 90.4206 38.2424 90.6051 38.0414C90.7573 37.8705 90.7609 37.6264 90.7638 37.4096C90.7609 32.9118 90.7659 28.4132 90.7616 23.9147C90.7904 23.5852 90.5829 23.2714 90.2634 23.1824C89.6029 22.9799 88.923 22.8457 88.2546 22.6727C88.2546 22.4638 88.2546 22.2548 88.2539 22.0459Z" fill="black" fill-opacity="1"/>
<path d="M123.977 22.045C126.231 22.045 128.485 22.045 130.739 22.045C132.109 22.0457 133.511 22.0241 134.837 22.4197C136.15 22.8002 137.255 23.8096 137.769 25.0732C138.247 26.2068 138.214 27.5551 137.621 28.6406C137.019 29.7756 135.91 30.5639 134.72 30.9918C134.422 31.1103 134.101 31.1591 133.811 31.2941C134.427 31.6236 134.847 32.1965 135.278 32.7278C136.545 34.3402 137.765 35.9879 139.005 37.6212C139.289 37.9981 139.705 38.2745 140.169 38.3707C140.767 38.4978 141.363 38.6342 141.961 38.7648C141.96 38.973 141.961 39.182 141.965 39.3909C140.542 39.3973 139.119 39.3988 137.697 39.3902C137.231 39.3887 136.908 39.0075 136.657 38.6636C135.309 36.7812 133.964 34.8981 132.618 33.0142C132.213 32.4707 131.765 31.8591 131.062 31.7069C130.398 31.5748 129.715 31.6623 129.043 31.6344C129.038 33.6087 129.039 35.583 129.042 37.5573C129.021 37.8897 129.237 38.2135 129.571 38.2824C130.291 38.4554 131.018 38.5997 131.74 38.7656C131.739 38.9759 131.739 39.1863 131.738 39.3966C129.153 39.3945 126.567 39.393 123.982 39.3973C123.976 39.1863 123.976 38.9759 123.978 38.7656C124.648 38.5933 125.33 38.4655 125.991 38.2573C126.298 38.1697 126.503 37.871 126.482 37.553C126.487 33.0063 126.485 28.4582 126.483 23.9116C126.507 23.5863 126.309 23.2719 125.989 23.1836C125.328 22.9819 124.648 22.8462 123.978 22.6746C123.976 22.4642 123.976 22.2546 123.977 22.045ZM129.04 22.8684C129.044 25.5197 129.032 28.1711 129.046 30.8224C129.8 30.8102 130.555 30.8252 131.309 30.8145C132.058 30.8023 132.826 30.6852 133.493 30.3284C134.011 30.0549 134.445 29.6256 134.715 29.1044C135.094 28.3943 135.208 27.5759 135.211 26.7797C135.216 25.9168 134.98 25.0359 134.456 24.3416C133.852 23.5311 132.888 23.0271 131.889 22.9244C130.942 22.8253 129.989 22.8842 129.04 22.8684Z" fill="black" fill-opacity="1"/>
<path d="M143.361 22.0448C145.566 22.0448 147.771 22.0448 149.977 22.0448C151.611 22.0469 153.265 22.0017 154.872 22.3564C156.194 22.6277 157.456 23.2136 158.483 24.0945C160.232 25.5705 161.208 27.8205 161.364 30.0791C161.512 32.2688 161.058 34.587 159.691 36.3503C158.892 37.3834 157.797 38.1709 156.589 38.6584C155.308 39.1574 153.924 39.3117 152.559 39.3749C149.495 39.4209 146.429 39.3792 143.365 39.3979C143.359 39.1861 143.358 38.9757 143.362 38.7647C144.012 38.6031 144.67 38.4624 145.315 38.2786C145.645 38.1997 145.893 37.8981 145.866 37.5528C145.872 33.0521 145.866 28.5514 145.869 24.05C145.868 23.8217 145.866 23.5611 145.698 23.3852C145.522 23.2057 145.269 23.1439 145.036 23.0815C144.476 22.9487 143.92 22.8072 143.361 22.6758C143.359 22.4655 143.359 22.2551 143.361 22.0448ZM148.424 22.8675C148.424 27.8349 148.425 32.8023 148.424 37.7696C148.432 37.9814 148.418 38.2212 148.555 38.3992C148.711 38.5773 148.97 38.5672 149.188 38.5766C150.05 38.573 150.911 38.583 151.774 38.5694C152.873 38.5378 153.998 38.4323 155.023 38.0022C156.082 37.5636 156.918 36.6949 157.463 35.7005C158.112 34.5095 158.384 33.1505 158.47 31.8072C158.55 30.4252 158.47 29.0223 158.119 27.6798C157.814 26.529 157.28 25.4155 156.445 24.5554C155.731 23.8109 154.794 23.2861 153.779 23.0951C152.015 22.7476 150.208 22.9056 148.424 22.8675Z" fill="black" fill-opacity="1"/>
<path d="M2.38672 24.9012C3.46864 24.5308 4.54554 24.146 5.6253 23.7698C5.68705 23.932 5.74663 24.0957 5.8055 24.2601C5.17803 25.0175 4.5642 25.7864 3.93099 26.5388C4.71712 26.2186 5.50828 25.9042 6.30159 25.5991C6.35472 25.7584 6.41144 25.9157 6.46887 26.0736C5.40777 26.4922 4.3359 26.8834 3.27695 27.3085C3.20516 27.1448 3.1427 26.9775 3.08742 26.8081C3.71058 26.06 4.32513 25.304 4.94542 24.553C4.1478 24.8223 3.35664 25.1109 2.55974 25.3822C2.50159 25.2221 2.44344 25.0613 2.38672 24.9012Z" fill="black" fill-opacity="1"/>
<path d="M33.6686 24.8779C34.7096 25.341 35.747 25.8134 36.7858 26.2822C36.569 26.7417 36.4219 27.2435 36.1088 27.6506C35.7054 28.1474 34.8151 27.9701 34.5639 27.405C34.5064 27.2773 34.5035 27.1358 34.4906 26.9994C33.9069 27.1767 33.2845 27.0655 32.6836 27.0985C32.759 26.9255 32.8351 26.7532 32.9054 26.5787C33.3534 26.5442 33.805 26.5981 34.2516 26.5442C34.5502 26.5105 34.6435 26.1846 34.7455 25.9512C34.3104 25.7631 33.8825 25.5614 33.4496 25.3704C33.5229 25.2067 33.5954 25.0423 33.6686 24.8779ZM34.9271 26.9255C34.9501 27.3067 35.4677 27.5486 35.7657 27.3045C35.9595 27.1107 36.0363 26.8372 36.1584 26.5981C35.8332 26.4322 35.495 26.2951 35.164 26.1429C35.0628 26.3942 34.9121 26.6448 34.9271 26.9255Z" fill="black" fill-opacity="1"/>
<path d="M19.1621 27.7162C19.3588 27.4549 19.5246 27.1691 19.7393 26.9222C19.9224 26.8654 19.987 27.0622 20.0789 27.1742C20.3675 27.6042 20.6913 28.0105 20.9655 28.4492C20.883 28.6172 20.6051 28.5411 20.4493 28.6287C20.6826 28.9704 20.8916 29.3308 21.1615 29.646C21.4745 29.3782 21.7962 29.1205 22.1006 28.8433C21.9634 28.7522 21.8127 28.684 21.6641 28.615C21.9541 28.3042 22.3482 28.1146 22.6799 27.8526C22.84 27.7621 22.975 27.574 23.1739 27.5898C22.9499 28.4593 22.6153 29.3007 22.3612 30.1629C21.5399 29.9016 20.6704 29.8556 19.8154 29.8463C18.9567 29.8556 18.0852 29.9001 17.2617 30.1629C17.0076 29.3581 16.7369 28.5576 16.4763 27.755C16.4224 27.6774 16.4648 27.5094 16.579 27.6013C17.0664 27.9215 17.5575 28.2396 18.0249 28.5892C17.8763 28.6754 17.7248 28.7558 17.5776 28.8441C17.8705 29.1154 18.1685 29.3811 18.465 29.6481C18.7249 29.3258 18.9438 28.9733 19.17 28.6287C18.9969 28.5727 18.8167 28.5418 18.638 28.5138C18.7672 28.2202 18.9869 27.9818 19.1621 27.7162Z" fill="black" fill-opacity="1"/>
<path d="M6.08879 27.9157C6.3975 27.7097 6.78303 27.5467 7.15348 27.6853C7.73931 27.9006 8.14135 28.5382 8.09828 29.1592C8.07315 29.5246 7.77736 29.7852 7.5024 29.9884C6.90292 30.4206 6.30202 30.8499 5.6968 31.2735C5.59485 31.122 5.49147 30.9719 5.38737 30.8226C5.95095 30.4256 6.51022 30.0228 7.07307 29.6244C7.26979 29.4743 7.51819 29.3315 7.5785 29.0723C7.64311 28.6365 7.27912 28.1462 6.81821 28.1677C6.64231 28.1871 6.4937 28.2926 6.34796 28.3838C5.74634 28.793 5.14399 29.2015 4.54165 29.6086C4.43899 29.4614 4.33632 29.3135 4.23438 29.1664C4.85323 28.7514 5.46563 28.3249 6.08879 27.9157Z" fill="black" fill-opacity="1"/>
<path d="M31.3561 29.0031C31.5995 28.6585 31.8702 28.3347 32.1337 28.0059C33.0246 28.7202 33.9191 29.431 34.8108 30.1453C34.4404 30.5861 34.123 31.0836 33.6628 31.4383C33.2192 31.7879 32.5773 31.7843 32.0863 31.5374C31.5579 31.2703 31.1142 30.7692 31.0345 30.1683C30.9699 29.7533 31.1214 29.3391 31.3561 29.0031ZM31.6017 29.5171C31.4301 29.8739 31.5385 30.3075 31.7898 30.5983C32.1035 30.9709 32.5859 31.2832 33.0935 31.1698C33.5609 31.0657 33.8165 30.622 34.113 30.2889C33.4647 29.7662 32.8186 29.24 32.1595 28.7324C31.9384 28.965 31.7424 29.2278 31.6017 29.5171Z" fill="black" fill-opacity="1"/>
<path d="M18.7463 30.4604C19.6545 30.3843 20.5763 30.3879 21.4759 30.5452C21.7021 30.5961 21.9497 30.6313 22.135 30.7814C22.2448 30.8661 22.1206 30.9838 22.0345 31.019C21.6554 31.1913 21.2332 31.2294 20.824 31.2739C19.9259 31.3464 19.0148 31.3399 18.1253 31.1834C17.8963 31.1296 17.6407 31.0937 17.4605 30.9293C17.3902 30.8108 17.5302 30.734 17.6192 30.6938C17.976 30.5459 18.3651 30.5028 18.7463 30.4604Z" fill="black" fill-opacity="1"/>
<path d="M17.4831 36.453C17.7674 36.2778 18.1737 36.5004 18.1838 36.8321C18.2218 37.1795 17.809 37.4567 17.5032 37.2851C17.1701 37.1386 17.1578 36.6152 17.4831 36.453Z" fill="black" fill-opacity="1"/>
<path d="M22.2819 37.2294C22.5956 37.0514 23.0185 37.3443 22.9646 37.6997C22.9416 38.0472 22.4886 38.2475 22.2173 38.0278C21.9358 37.8404 21.9753 37.3687 22.2819 37.2294Z" fill="black" fill-opacity="1"/>
</g>
<defs>
<clipPath id="clip0_15427_5405">
<rect width="161.606" height="47.678" fill="white"/>
</clipPath>
</defs>
</svg>
