<?xml version="1.0" encoding="UTF-8"?><svg xmlns="http://www.w3.org/2000/svg" viewBox="747 780 755 711"><path d="M0 0 C0.9 -0.0 1.9 -0.0 2.9 -0.1 C13 -0.1 21 2.9 28 9.8 C36 19 40 31 40 42 C40 44 40 44 40 45 C39 59 35 78 24 88 C23 98 25 104 30 112 C37 120 50 123 59 126 C69 129 77 134 83 144 C88 155 90 167 91 179 C93 194 95 209 98 224 C98 225 99 226 99 227 C100 234 102 239 107 244 C108 245 109 246 110 247 C128 266 128 266 150 275 C156 274 161 273 167 271 C170 270 174 270 177 270 C180 272 182 273 183 276 C183 279 183 282 183 284 C184 284 185 284 186 283 C190 282 192 282 196 283 C198 286 198 288 197 291 C193 299 187 304 179 306 C176 307 173 308 169 308 C170 309 170 309 170 310 C171 311 171 311 172 312 C172 313 173 314 173 314 C176 320 176 326 175 332 C170 345 161 352 149 358 C134 365 115 371 97 370 C98 371 98 371 99 372 C105 379 108 384 108 394 C107 396 107 396 106 399 C101 402 97 402 92 401 C90 401 89 400 87 400 C81 397 75 396 68 395 C67 395 66 395 65 394 C63 394 60 393 58 393 C54 392 51 392 47 391 C43 390 38 389 33 389 C30 388 26 387 23 386 C15 385 6.4 384 -1.9 383 C-3.4 383 -3.4 383 -4.9 383 C-7.8 383 -11 383 -14 382 C-15 382 -16 382 -17 382 C-27 382 -36 384 -45 386 C-47 387 -48 387 -50 388 C-61 390 -71 393 -81 397 C-88 399 -93 401 -100 398 C-103 395 -104 394 -105 389 C-105 384 -103 380 -100 376 C-99 375 -99 375 -99 372 C-100 372 -100 372 -101 372 C-104 371 -107 370 -110 370 C-112 369 -114 369 -116 368 C-135 364 -157 357 -169 340 C-173 333 -173 326 -173 318 C-171 314 -169 310 -166 306 C-166 306 -167 306 -168 307 C-175 307 -181 306 -187 301 C-194 294 -194 294 -195 288 C-195 285 -195 285 -194 283 C-190 281 -185 283 -181 284 C-181 283 -181 283 -181 283 C-181 278 -181 276 -179 272 C-175 270 -174 270 -170 270 C-167 271 -165 272 -163 273 C-157 275 -150 277 -143 274 C-136 271 -130 265 -123 260 C-121 258 -119 256 -117 254 C-115 253 -113 251 -112 250 C-110 248 -108 247 -106 245 C-95 237 -95 222 -93 209 C-92 208 -92 208 -92 207 C-90 196 -89 185 -88 173 C-86 159 -83 144 -73 133 C-65 128 -56 125 -46 122 C-38 119 -30 116 -25 108 C-22 102 -22 96 -23 89 C-24 86 -26 83 -29 80 C-31 76 -33 72 -34 68 C-35 67 -35 66 -36 65 C-40 50 -39 33 -33 19 C-28 11 -22 5.8 -14 1.2 C-9.1 -0.1 -4.6 0.0 0 0 Z " fill="#94B6A5" transform="translate(1022.6875,845.625)"/><path d="M0 0 C0.9 -0.0 1.9 -0.0 2.9 -0.1 C13 -0.1 21 2.9 28 9.8 C36 19 40 31 40 42 C40 44 40 44 40 45 C39 59 35 78 24 88 C23 98 25 104 30 112 C37 120 50 123 59 126 C69 129 77 134 83 144 C88 155 90 167 91 179 C93 194 95 209 98 224 C98 225 99 226 99 227 C100 234 102 239 107 244 C108 245 109 246 110 247 C128 266 128 266 150 275 C156 274 161 273 167 271 C170 270 174 270 177 270 C180 272 182 273 183 276 C183 279 183 282 183 284 C184 284 185 284 186 283 C190 282 192 282 196 283 C198 286 198 288 197 291 C193 299 187 304 179 306 C176 307 173 308 169 308 C170 309 170 309 170 310 C171 311 171 311 172 312 C172 313 173 314 173 314 C176 320 176 326 175 332 C170 345 161 352 149 358 C134 365 115 371 97 370 C98 371 98 371 99 372 C105 379 108 384 108 394 C107 396 107 396 106 399 C101 402 97 402 92 401 C90 401 89 400 87 400 C81 397 75 396 68 395 C67 395 66 395 65 394 C63 394 60 393 58 393 C54 392 51 392 47 391 C43 390 38 389 33 389 C30 388 26 387 23 386 C15 385 6.4 384 -1.9 383 C-3.4 383 -3.4 383 -4.9 383 C-7.8 383 -11 383 -14 382 C-15 382 -16 382 -17 382 C-27 382 -36 384 -45 386 C-47 387 -48 387 -50 388 C-61 390 -71 393 -81 397 C-88 399 -93 401 -100 398 C-103 395 -104 394 -105 389 C-105 384 -103 380 -100 376 C-99 375 -99 375 -99 372 C-100 372 -100 372 -101 372 C-104 371 -107 370 -110 370 C-112 369 -114 369 -116 368 C-135 364 -157 357 -169 340 C-173 333 -173 326 -173 318 C-171 314 -169 310 -166 306 C-166 306 -167 306 -168 307 C-175 307 -181 306 -187 301 C-194 294 -194 294 -195 288 C-195 285 -195 285 -194 283 C-190 281 -185 283 -181 284 C-181 283 -181 283 -181 283 C-181 278 -181 276 -179 272 C-175 270 -174 270 -170 270 C-167 271 -165 272 -163 273 C-157 275 -150 277 -143 274 C-136 271 -130 265 -123 260 C-121 258 -119 256 -117 254 C-115 253 -113 251 -112 250 C-110 248 -108 247 -106 245 C-95 237 -95 222 -93 209 C-92 208 -92 208 -92 207 C-90 196 -89 185 -88 173 C-86 159 -83 144 -73 133 C-65 128 -56 125 -46 122 C-38 119 -30 116 -25 108 C-22 102 -22 96 -23 89 C-24 86 -26 83 -29 80 C-31 76 -33 72 -34 68 C-35 67 -35 66 -36 65 C-40 50 -39 33 -33 19 C-28 11 -22 5.8 -14 1.2 C-9.1 -0.1 -4.6 0.0 0 0 Z M-16 96 C-16 97 -16 98 -16 99 C-18 110 -21 116 -29 122 C-36 126 -43 128 -50 130 C-61 134 -69 138 -74 148 C-80 161 -81 176 -83 191 C-84 200 -86 209 -88 217 C-88 219 -88 220 -88 221 C-91 237 -96 247 -109 257 C-112 259 -115 262 -118 264 C-129 274 -141 283 -157 281 C-161 281 -165 280 -169 278 C-170 278 -171 278 -173 277 C-173 280 -173 280 -174 282 C-171 285 -168 285 -164 285 C-165 290 -165 290 -168 291 C-175 292 -181 291 -188 289 C-186 294 -183 296 -179 298 C-168 303 -158 300 -148 296 C-146 296 -144 295 -142 294 C-130 290 -119 285 -108 280 C-106 279 -106 279 -105 279 C-83 269 -83 269 -70 251 C-68 245 -66 239 -65 233 C-64 232 -64 232 -64 231 C-63 225 -61 219 -60 212 C-59 212 -59 211 -59 210 C-58 207 -58 205 -57 202 C-57 201 -57 201 -57 200 C-56 195 -56 190 -56 184 C-55 185 -54 185 -53 185 C-52 188 -51 190 -50 193 C-50 194 -50 194 -50 195 C-49 197 -49 199 -48 201 C-48 203 -47 206 -46 209 C-39 236 -40 260 -53 284 C-54 287 -55 289 -57 291 C-58 292 -58 292 -58 294 C-54 295 -51 296 -48 297 C-48 298 -48 299 -48 299 C-57 299 -67 299 -77 299 C-85 298 -94 298 -102 298 C-103 298 -105 298 -106 298 C-124 298 -148 299 -162 312 C-165 317 -166 323 -166 329 C-162 340 -153 346 -143 351 C-105 371 -51 372 -8.0 376 C16 378 40 382 64 387 C66 387 68 388 71 388 C76 389 81 390 86 392 C91 394 95 394 100 393 C101 388 100 385 96 380 C89 372 75 364 64 363 C63 363 62 363 61 363 C61 363 60 363 59 363 C56 363 56 363 53 364 C27 368 4.2 354 -19 342 C-49 326 -81 309 -117 315 C-117 314 -117 313 -117 312 C-82 305 -50 318 -20 335 C-19 335 -19 336 -18 336 C-16 337 -15 338 -14 339 C-8.8 341 -6.1 342 -0.7 340 C1.6 340 3.8 339 6.1 338 C6.7 338 7.4 337 8.1 337 C13 336 17 334 21 332 C33 327 45 322 57 318 C58 318 59 318 60 317 C72 313 84 311 97 311 C99 311 101 311 103 311 C114 311 114 311 117 312 C117 313 117 314 117 315 C116 315 116 315 115 315 C99 316 84 317 68 321 C68 322 67 322 66 322 C54 326 42 330 31 335 C22 338 14 341 5.3 344 C5.3 345 5.3 346 5.3 347 C26 358 26 358 48 359 C60 357 72 357 83 364 C96 370 123 360 136 356 C147 352 160 346 167 334 C169 330 169 325 168 320 C165 313 160 308 153 305 C142 301 132 299 121 299 C120 299 119 299 118 299 C114 299 111 299 107 299 C106 299 105 299 104 299 C88 299 71 299 55 301 C53 301 53 301 51 301 C51 300 51 299 51 298 C55 298 58 297 61 296 C60 294 59 291 58 289 C42 259 42 234 50 201 C51 200 51 198 51 196 C53 189 53 189 54 186 C55 186 56 186 57 185 C57 186 58 187 58 188 C62 231 62 231 83 265 C104 279 145 304 171 301 C179 300 185 297 190 291 C190 291 190 290 190 289 C190 290 189 290 188 290 C175 293 175 293 168 290 C168 289 167 289 166 288 C166 288 166 287 166 286 C169 285 172 284 175 283 C176 282 176 280 176 278 C176 278 176 278 175 277 C169 278 164 279 158 281 C152 283 147 283 142 280 C139 278 136 276 133 274 C132 274 132 274 131 273 C123 267 116 261 109 255 C107 253 105 251 102 249 C91 239 89 218 87 204 C87 202 87 201 86 199 C85 191 84 183 83 175 C82 161 79 147 69 138 C65 135 62 134 58 132 C57 132 56 132 56 132 C52 130 49 129 45 128 C35 125 27 121 22 111 C19 106 18 101 17 96 C15 97 12 98 9.7 100 C1.9 102 -4.8 101 -12 97 C-14 96 -14 96 -16 96 Z " fill="#477463" transform="translate(1022.6875,845.625)"/><path d="M0 0 C0.8 0.4 1.5 0.8 2.3 1.3 C3.8 2.1 5.2 2.9 6.7 3.8 C11 6.4 14 6.9 19 5.5 C22 4.7 24 3.9 26 3.1 C27 2.8 28 2.6 28 2.3 C33 0.6 37 -1.2 42 -3.1 C53 -7.9 65 -13 77 -17 C78 -17 79 -17 80 -18 C92 -22 104 -24 117 -24 C119 -24 121 -24 123 -24 C135 -24 135 -24 138 -22 C138 -20 138 -19 137 -18 C137 -18 136 -18 135 -18 C119 -17 104 -16 88 -12 C88 -11 87 -11 86 -11 C74 -7.3 63 -2.5 51 2.1 C42 5.4 34 8.5 25 11 C29 14 33 16 37 18 C38 18 39 19 39 19 C49 23 58 26 68 24 C80 22 93 23 103 29 C116 35 143 25 156 21 C166 18 174 13 182 5.9 C184 4.3 185 3.9 187 3.5 C188 3.1 189 2.8 189 2.5 C190 5.2 190 5.2 189 8.5 C187 11 187 11 184 13 C184 14 183 15 182 16 C166 30 138 37 117 36 C118 37 118 37 119 38 C125 45 128 50 128 60 C127 62 127 62 126 65 C121 68 117 68 112 67 C111 67 109 66 107 66 C101 64 95 62 88 61 C87 61 87 61 85 60 C83 60 80 60 78 59 C75 58 71 58 67 57 C63 56 58 55 54 55 C50 54 46 53 43 53 C35 51 27 50 18 49 C17 49 17 49 15 49 C12 49 9.4 49 6.5 48 C5.5 48 4.5 48 3.5 48 C-6.3 48 -15 50 -25 52 C-27 53 -28 53 -30 54 C-41 56 -51 59 -61 63 C-67 65 -73 67 -79 64 C-83 61 -84 60 -85 55 C-85 50 -82 47 -80 43 C-78 41 -78 41 -79 38 C-79 38 -80 38 -81 38 C-84 37 -87 36 -90 36 C-92 35 -94 35 -96 34 C-115 30 -137 23 -149 5.6 C-152 0.9 -152 0.9 -152 -1.5 C-151 -1.5 -150 -1.5 -150 -1.5 C-150 -2.5 -150 -3.5 -150 -4.5 C-148 -4.5 -147 -4.5 -146 -4.5 C-144 -2.6 -143 -0.7 -142 1.2 C-129 21 -101 25 -80 29 C-49 35 -18 38 12 41 C36 43 60 47 84 52 C86 52 89 53 91 53 C96 54 101 56 106 57 C111 59 115 59 120 59 C120 52 117 47 111 42 C101 35 89 29 76 30 C76 31 75 31 74 31 C47 35 24 21 1.6 9.2 C-15 0.2 -33 -7.9 -51 -15 C-51 -15 -52 -15 -53 -15 C-66 -20 -82 -19 -97 -19 C-97 -20 -97 -21 -97 -22 C-64 -33 -28 -16 0 0 Z " fill="#467764" transform="translate(1002.50390625,1179.53125)"/><path d="M0 0 C0.6 0.4 1.2 0.9 1.8 1.3 C16 12 29 25 40 39 C41 40 41 40 42 42 C69 74 87 119 87 162 C87 162 87 163 87 164 C87 195 85 227 71 256 C70 256 69 256 68 256 C68 252 69 249 71 245 C73 240 74 234 76 229 C76 228 76 227 76 226 C80 212 80 198 80 183 C80 182 80 181 80 180 C80 124 59 70 20 29 C19 29 18 28 17 27 C16 26 16 26 15 25 C3.9 13 -8.7 4.3 -22 -4 C-23 -4.6 -23 -4.6 -24 -5.1 C-42 -17 -64 -24 -85 -29 C-87 -29 -87 -29 -88 -30 C-103 -33 -118 -34 -134 -34 C-134 -35 -135 -35 -136 -35 C-152 -35 -167 -33 -182 -29 C-183 -28 -184 -28 -185 -28 C-218 -19 -250 -2.1 -275 22 C-276 23 -278 24 -279 26 C-288 33 -294 41 -301 50 C-301 51 -302 51 -302 52 C-309 61 -315 70 -320 80 C-320 81 -321 81 -321 82 C-329 96 -334 111 -338 127 C-338 128 -339 129 -339 129 C-343 147 -345 165 -344 183 C-344 184 -344 185 -344 186 C-344 202 -343 216 -339 231 C-339 232 -339 232 -338 234 C-337 238 -336 242 -334 246 C-333 249 -332 253 -332 256 C-333 256 -334 256 -335 256 C-350 217 -356 177 -348 136 C-348 134 -347 133 -347 131 C-341 100 -328 72 -309 46 C-308 45 -308 44 -307 43 C-294 26 -278 10 -261 -2 C-260 -2.4 -260 -2.8 -259 -3.2 C-233 -22 -202 -36 -170 -41 C-169 -41 -168 -41 -167 -41 C-108 -51 -48 -36 0 0 Z " fill="#92B4A2" transform="translate(1156,840)"/><path d="M0 0 C1.0 0.3 2.0 0.7 3 1 C3.1 1.9 3.3 2.9 3.4 3.8 C7.8 45 7.8 45 26 79 C32 83 38 87 45 90 C46 91 46 91 48 91 C84 111 84 111 122 114 C127 112 132 110 135 105 C134 105 134 105 133 106 C126 108 120 110 113 107 C112 106 112 106 111 105 C111 104 111 102 111 101 C114 100 117 99 120 98 C120 97 120 95 120 94 C119 93 118 93 117 92 C118 92 118 92 119 92 C119 90 118 89 118 87 C120 87 120 87 123 88 C124 89 124 89 125 91 C126 91 127 92 128 92 C128 95 128 97 128 100 C129 100 130 99 131 99 C134 98 137 98 141 99 C142 102 142 104 142 107 C138 114 132 119 124 122 C121 123 117 123 114 124 C114 125 115 125 115 126 C116 126 116 127 116 128 C117 129 117 129 118 130 C121 135 121 140 120 145 C119 149 118 152 116 156 C115 156 115 157 114 157 C114 156 113 154 113 153 C112 154 111 154 110 155 C110 151 110 151 111 149 C113 144 113 139 111 134 C107 125 100 122 91 119 C82 117 74 116 66 116 C64 116 64 116 62 116 C59 116 55 116 52 116 C51 116 50 116 49 116 C32 116 16 116 -0.1 118 C-2 118 -2 118 -4 117 C-4 116 -4 115 -4 114 C-0.4 113 2.1 112 6 112 C5.6 112 5.3 111 4.9 111 C0.1 104 -3.1 97 -6.2 89 C-6.9 87 -7.7 85 -8.6 83 C-17 62 -11 39 -6 17 C-5.6 15 -5.2 14 -4.8 12 C-2.4 2.4 -2.4 2.4 0 0 Z " fill="#487765" transform="translate(1078,1030)"/><path d="M0 0 C2.0 0.5 2.0 0.5 4 1 C5.5 6.0 6.9 11 8.2 16 C8.7 18 9.3 20 9.8 22 C18 51 17 77 2.1 103 C0.8 106 -0.6 108 -2 110 C1.3 111 4.6 111 8 112 C8 113 8 115 8 116 C-1.8 116 -11 116 -21 116 C-30 115 -38 115 -46 115 C-48 115 -49 115 -50 115 C-69 115 -88 117 -104 127 C-108 131 -109 135 -109 140 C-109 142 -110 143 -110 144 C-110 145 -110 146 -110 147 C-111 146 -113 146 -114 145 C-114 146 -114 147 -114 148 C-115 148 -115 148 -116 148 C-118 143 -118 136 -116 132 C-114 128 -112 125 -110 122 C-111 122 -111 122 -112 122 C-120 123 -125 121 -131 117 C-139 110 -139 110 -139 104 C-139 101 -139 101 -138 99 C-134 97 -129 99 -125 100 C-125 99 -125 99 -125 98 C-125 94 -125 92 -123 88 C-120 86 -118 85 -114 86 C-112 88 -112 88 -112 92 C-114 93 -114 93 -117 94 C-117 96 -116 97 -116 99 C-113 100 -111 100 -108 101 C-108 103 -108 103 -109 106 C-114 109 -119 108 -124 108 C-127 107 -129 106 -132 105 C-128 111 -123 114 -116 115 C-114 115 -112 115 -110 115 C-108 115 -108 115 -107 115 C-101 115 -97 113 -92 111 C-90 110 -88 110 -86 109 C-75 105 -63 100 -52 95 C-50 94 -50 94 -49 93 C-28 84 -28 84 -15 67 C-13 61 -11 55 -10 49 C-9.7 48 -9.7 48 -9.4 46 C-7.0 37 -4.8 27 -2.8 18 C-2.6 17 -2.4 16 -2.3 15 C-1.2 10 -0.5 5.2 0 0 Z " fill="#467563" transform="translate(967,1030)"/><path d="M0 0 C9.2 5.5 13 12 16 22 C17 23 17 24 18 25 C21 41 17 59 8.1 72 C3.5 79 -2.8 86 -11 87 C-19 88 -24 85 -31 80 C-43 67 -46 48 -46 30 C-46 24 -44 19 -41 13 C-40 12 -40 11 -39 10 C-31 -2.2 -14 -6.3 0 0 Z " fill="#91B6A4" transform="translate(1037.5625,854.0625)"/><path d="M0 0 C1.3 0 2.6 0 4 0 C5.3 1.9 6.5 3.8 7.6 5.8 C21 25 49 30 70 34 C100 40 131 43 161 45 C162 45 163 45 164 46 C164 46 165 46 166 46 C168 46 170 46 172 47 C172 48 172 48 172 49 C170 49 168 49 166 49 C166 50 166 50 166 51 C169 51 173 52 176 52 C176 52 176 53 176 53 C175 53 174 53 174 53 C144 51 116 57 88 68 C82 70 77 72 70 69 C66 66 65 64 64 59 C65 54 67 51 70 47 C71 45 71 45 71 43 C70 43 69 43 69 42 C65 42 62 41 59 40 C57 40 55 39 54 39 C35 34 12 27 0.8 10 C-2 5.5 -2 5.5 -2 3 C-1.3 3 -0.7 3 0 3 C0 2.0 0 1.0 0 0 Z " fill="#487765" transform="translate(853,1175)"/><path d="M0 0 C-0.4 2.4 -0.6 3.6 -2.5 5.2 C-3.1 5.5 -3.7 5.9 -4.3 6.2 C-5.0 6.6 -5.7 7.0 -6.4 7.4 C-7.2 7.8 -7.9 8.2 -8.7 8.6 C-22 16 -33 24 -44 35 C-45 36 -46 37 -47 38 C-66 56 -79 82 -87 106 C-87 107 -88 108 -88 109 C-89 111 -89 114 -90 117 C-90 119 -90 119 -91 121 C-97 152 -93 182 -82 211 C-81 214 -81 216 -81 219 C-84 218 -84 218 -85 215 C-87 212 -88 209 -89 206 C-90 205 -90 203 -91 202 C-105 167 -105 127 -92 92 C-92 91 -91 90 -91 88 C-84 69 -72 52 -58 37 C-57 36 -56 35 -55 34 C-43 21 -26 11 -9.8 2.9 C-8.8 2.5 -8.8 2.5 -7.8 2.0 C-5.0 0.8 -3.1 0 0 0 Z " fill="#93B4A3" transform="translate(952,872)"/><path d="M0 0 C5.7 0.5 10 2.1 15 4.6 C16 4.9 17 5.3 17 5.6 C32 13 44 23 56 34 C57 35 57 35 58 36 C85 61 100 101 101 138 C102 166 97 193 83 218 C82 218 81 218 80 218 C81 214 82 210 83 206 C93 178 98 147 90 117 C90 116 89 114 89 113 C83 86 70 61 51 41 C49 39 49 39 47 36 C43 31 38 28 33 24 C32 23 32 23 31 22 C23 16 15 11 6.9 6.2 C6.0 5.7 5.1 5.2 4.2 4.6 C3.0 3.9 3.0 3.9 1.7 3.2 C1.2 2.8 0.6 2.4 0 2 C0 1.3 0 0.7 0 0 Z " fill="#90B2A1" transform="translate(1096,873)"/><path d="M0 0 C2.3 2.3 2.4 3.2 3.0 6.3 C3.2 7.1 3.4 8.0 3.6 8.9 C3.8 9.9 4.0 11 4.2 12 C5.9 20 7.9 28 10 35 C11 36 11 37 11 38 C18 56 30 64 47 72 C52 75 58 78 63 80 C63 80 63 81 63 81 C62 81 62 81 61 81 C49 81 37 82 25 83 C21 84 16 84 12 84 C-3.8 54 -3.8 54 -5 40 C-5.1 39 -5.2 38 -5.3 37 C-5.8 24 -2.7 12 0 0 Z " fill="#F2F4EB" transform="translate(1077,1056)"/><path d="M0 0 C6.3 6.3 7.2 22 7.5 31 C7.5 48 -0.3 67 -10 82 C-13 83 -14 83 -17 83 C-18 83 -19 83 -20 83 C-21 83 -22 83 -23 83 C-24 83 -25 83 -26 83 C-30 82 -34 82 -37 82 C-40 82 -42 82 -44 82 C-50 82 -56 81 -62 81 C-59 79 -56 77 -53 76 C-52 75 -51 75 -50 74 C-49 74 -48 73 -47 73 C-25 63 -25 63 -11 44 C-11 43 -10 41 -10 40 C-9.7 39 -9.4 38 -9.2 37 C-5.1 25 -1.8 13 0 0 Z " fill="#F1F4EB" transform="translate(969,1056)"/><path d="M0 0 C15 1.8 31 18 40 29 C42 32 43 34 45 37 C46 38 46 38 47 40 C62 64 66 95 60 123 C56 138 56 138 54 142 C52 143 52 143 50 143 C50 140 51 136 52 133 C56 113 56 90 50 70 C50 69 50 69 49 68 C41 42 24 20 2.2 4.8 C1.5 4.2 0.7 3.6 0 3 C0 2.0 0 1.0 0 0 Z " fill="#91B2A1" transform="translate(1091,920)"/><path d="M0 0 C-0.6 3.3 -1.5 4.8 -4.1 6.9 C-4.7 7.4 -5.3 8.0 -6.0 8.5 C-6.6 9.1 -7.3 9.6 -8 10 C-9.4 11 -11 13 -12 14 C-13 14 -13 15 -14 15 C-32 31 -45 52 -50 75 C-50 76 -51 77 -51 78 C-53 87 -53 95 -53 104 C-53 106 -53 108 -53 110 C-54 119 -52 127 -50 136 C-49 139 -49 139 -49 143 C-51 143 -51 143 -53 142 C-63 121 -64 93 -58 70 C-58 69 -57 68 -57 67 C-50 40 -32 17 -8.8 3.6 C-2.4 0 -2.4 0 0 0 Z " fill="#94B4A3" transform="translate(956,920)"/><path d="M0 0 C1.5 4.3 0.3 6.8 -1.6 11 C-6.8 19 -18 23 -27 27 C-42 33 -50 39 -56 55 C-60 63 -61 72 -62 81 C-62 83 -63 84 -63 86 C-64 92 -65 98 -66 104 C-66 111 -68 117 -69 124 C-70 125 -70 126 -70 126 C-71 131 -72 134 -75 138 C-76 138 -76 138 -77 138 C-76 133 -75 128 -74 123 C-71 112 -69 100 -67 89 C-67 88 -67 86 -66 85 C-66 80 -65 75 -64 69 C-62 55 -60 42 -49 32 C-43 28 -35 25 -28 23 C-17 20 -7.9 15 -2 5 C-0.6 2.2 -0.6 2.2 0 0 Z " fill="#ECF5ED" transform="translate(1006,951)"/><path d="M0 0 C10 0.7 20 1.8 30 3.1 C32 3.3 33 3.4 35 3.6 C39 4.1 42 4.5 46 5 C46 5.7 45 6.3 45 7 C43 7.6 43 7.6 39 8.2 C33 9.5 27 11 20 13 C19 13 19 13 18 14 C13 15 7.8 17 2.9 18 C0.2 19 -2.2 19 -5 19 C-7 17 -7 17 -7.3 14 C-6.7 8.6 -3.1 4.6 0 0 Z " fill="#96B8A6" transform="translate(932,1219)"/><path d="M0 0 C2.4 0.3 2.4 0.3 5 1 C5.7 2.0 6.3 3.0 7 4 C8.0 4.3 9.0 4.7 10 5 C10 8.0 11 11 11 14 C12 14 13 14 14 14 C13 17 13 18 11 20 C5.7 22 0.1 22 -5.1 20 C-6.0 19 -6.0 19 -7 18 C-7 17 -7 15 -7 14 C-4.0 13 -1.1 12 2 11 C2 9.7 2 8.4 2 7 C1.0 6.3 0.0 5.7 -1 5 C-0.3 5 0.3 5 1 5 C0.7 3.4 0.3 1.7 0 0 Z " fill="#4E7C69" transform="translate(1196,1117)"/><path d="M0 0 C13 0.2 25 2.7 34 12 C39 17 40 21 39 27 C39 33 36 38 31 42 C30 42 30 41 29 41 C29 41 30 40 30 40 C34 35 35 31 34 25 C33 18 30 14 25 10 C17 5.4 8.5 3.4 0 1 C0 0.7 0 0.3 0 0 Z " fill="#E6F5EB" transform="translate(1152,1146)"/><path d="M0 0 C1.5 1.0 1.5 1.0 3 3 C3.0 5.6 2.8 8.0 2.4 11 C2.3 12 2.3 12 2.1 13 C1.8 16 1.4 18 1 21 C0.9 22 0.7 23 0.6 24 C-1.0 35 -2.7 47 -5.6 58 C-5.9 59 -5.9 59 -6.2 60 C-7.3 64 -8.5 68 -11 71 C-12 71 -12 71 -13 71 C-12 66 -11 61 -9.6 56 C-4.9 38 -2.3 19 0 0 Z " fill="#DAEAE2" transform="translate(942,1018)"/><path d="M0 0 C5.6 3.3 11 7.8 13 14 C13 15 13 15 12 17 C12 16 11 16 11 15 C5.4 8.6 0.3 3.6 -8.5 2.8 C-11 2.7 -13 2.7 -15 2.6 C-16 2.6 -17 2.6 -18 2.5 C-24 2.5 -27 4.0 -33 6.9 C-34 7.6 -35 8.3 -37 8.9 C-35 5.1 -33 3.8 -30 1.8 C-29 1.2 -28 0.7 -27 0.2 C-19 -3.8 -7.8 -3.7 0 0 Z " fill="#E0F0E7" transform="translate(1037.5625,854.0625)"/><path d="M0 0 C0.3 0 0.7 0 1 0 C1.6 22 -3.2 37 -13 57 C-15 57 -16 57 -18 57 C-18 56 -17 56 -17 55 C-8.0 37 -1.3 20 0 0 Z " fill="#E0EFE7" transform="translate(983,1083)"/><path d="M0 0 C5.7 1.0 11 2.9 16 4.8 C17 5.2 18 5.5 20 5.9 C28 8.8 35 12 40 20 C44 27 46 35 46 43 C44 40 43 37 42 33 C38 22 34 16 23 11 C18 8.6 13 6.6 7.6 4.7 C6.8 4.3 5.9 4.0 5.1 3.7 C3.9 3.3 3.9 3.3 2.8 2.9 C1 2 1 2 0 0 Z " fill="#E3F1E8" transform="translate(1058,971)"/><path d="M0 0 C2.5 2.5 3.1 4.7 4.2 8 C8.2 19 14 27 22 35 C23 35 23 35 25 36 C25 37 25 37 25 38 C26 38 26 38 27 39 C30 40 30 40 31 42 C21 39 12 33 7.1 24 C3.4 17 0 8.7 0 0 Z " fill="#ECF6EF" transform="translate(1090,1077)"/><path d="M0 0 C9.0 2.1 17 8.6 22 16 C23 19 23 22 23 25 C21 25 18 25 16 25 C17 25 18 24 19 24 C15 14 9.9 8.0 1.5 2.1 C1.0 1.8 0.5 1.4 0 1 C0 0.7 0 0.3 0 0 Z " fill="#DDEDE1" transform="translate(1100,1214)"/><path d="M0 0 C0.7 0.7 1.3 1.3 2 2 C1.7 2.7 1.3 3.3 1 4 C1.7 4 2.3 4 3 4 C3.3 3.3 3.7 2.7 4 2 C2.8 8.8 1.1 15 -1 22 C-1.7 22 -2.3 22 -3 22 C-3 21 -3 21 -3 20 C-3.7 20 -4.3 20 -5 20 C-5 19 -5 17 -5 16 C-5.7 16 -6.3 16 -7 16 C-6.7 14 -6.3 11 -6 9 C-5.3 9.3 -4.7 9.7 -4 10 C-2.7 6.7 -1.4 3.4 0 0 Z " fill="#8EB19F" transform="translate(905,979)"/><path d="M0 0 C0.7 0.3 1.3 0.7 2 1 C3.0 0.7 4.0 0.3 5 0 C4.4 4.4 2.8 7.5 0.5 11 C-0.1 12 -0.8 13 -1.4 14 C-3 17 -3 17 -4 18 C-4.2 20 -4.4 22 -4.6 24 C-4.6 25 -4.7 26 -4.8 27 C-4.9 27 -4.9 28 -5 29 C-5.3 29 -5.7 29 -6 29 C-6 24 -6 20 -6 15 C-6.7 15 -7.3 15 -8 15 C-6.5 9.2 -3.4 4.8 0 0 Z " fill="#426E5F" transform="translate(1051,916)"/><path d="M0 0 C1.5 4.3 0.3 6.8 -1.6 11 C-7.6 20 -22 25 -32 28 C-32 27 -32 27 -32 26 C-33 26 -33 25 -34 25 C-33 25 -32 24 -31 24 C-19 21 -8.5 16 -2 5 C-0.6 2.2 -0.6 2.2 0 0 Z " fill="#DDEFE7" transform="translate(1006,951)"/><path d="M0 0 C0.3 0 0.7 0 1 0 C1.2 9.9 1.3 20 0.1 30 C0.0 30 -0.0 31 -0.1 32 C-0.3 34 -0.7 35 -1 37 C-2.0 37 -2.0 37 -3 38 C-5.7 34 -6.1 32 -5.6 27 C-5.5 26 -5.4 25 -5.3 24 C-5.2 23 -5.1 23 -5 22 C-4.0 22 -3.0 23 -2 23 C-1.3 15 -0.7 7.8 0 0 Z " fill="#8FAE9D" transform="translate(1242,1012)"/><path d="M0 0 C0.7 0 1.3 0 2 0 C5.2 3.2 6.3 5.3 6.4 9.7 C6.2 16 4.1 21 -0.2 26 C-0.8 26 -1.4 26 -2 27 C-2.7 27 -3.3 26 -4 26 C-3.6 26 -3.3 25 -2.9 25 C2.2 18 1.6 11 0.5 2.8 C0.3 1.9 0.2 1.0 0 0 Z " fill="#DCECE0" transform="translate(1185,1161)"/><path d="M0 0 C-1.5 4.5 -5.1 6.7 -9 9 C-13 11 -17 11 -22 11 C-18 8.9 -14 7.5 -10 6 C-11 5.8 -11 5.8 -12 5.7 C-13 5.5 -14 5.4 -15 5.2 C-17 5.0 -17 5.0 -18 4.7 C-21 4.0 -22 3.2 -24 1 C-23 1.2 -23 1.3 -22 1.5 C-14 2.8 -7.7 0 0 0 Z " fill="#D2E5D9" transform="translate(1213,1135)"/><path d="M0 0 C0.3 0 0.7 0 1 0 C1.3 4.0 1.7 7.9 2 12 C3.3 11 4.6 10 6 9 C7 10 7 10 7.1 14 C7.1 17 6.7 21 6 24 C5.0 24 4.0 23 3 23 C2.3 23 1.7 24 1 24 C-0.3 19 -0.1 14 -0.1 9.2 C-0.1 8.3 -0.1 7.4 -0.0 6.5 C-0.0 4.3 -0.0 2.2 0 0 Z " fill="#98B8A8" transform="translate(1190,1017)"/><path d="M0 0 C0.7 0.3 1.3 0.7 2 1 C2.4 3.7 2.4 3.7 2.7 7.2 C2.8 8.9 2.8 8.9 2.9 11 C3.0 14 2.6 17 2 20 C0.3 20 -1.3 19 -3 19 C-3.3 16 -3.7 14 -4 11 C-3.7 11 -3.3 11 -3 11 C-2.0 7.4 -1.0 3.7 0 0 Z " fill="#497665" transform="translate(979,1085)"/><path d="M0 0 C0.7 0 1.3 0 2 0 C1.4 4.7 -0.5 8.6 -2.6 13 C-3.1 14 -3.1 14 -3.6 15 C-4.4 17 -5.2 18 -6 20 C-7.7 20 -9.3 20 -11 20 C-9.1 16 -7.0 12 -4.9 8.3 C-4.6 7.6 -4.2 6.9 -3.8 6.2 C-1.1 1.1 -1.1 1.1 0 0 Z " fill="#EAF5EE" transform="translate(976,1120)"/><path d="M0 0 C0.7 0.3 1.3 0.7 2 1 C1.5 7.6 -0.3 13 -3 19 C-4.0 19 -5.0 19 -6 19 C-5.3 13 -4.1 6.8 -2 1 C-1.3 0.7 -0.7 0.3 0 0 Z " fill="#8EB1A0" transform="translate(1147,1044)"/><path d="M0 0 C3.2 1.6 3.9 4.8 5.2 7.9 C5.5 8.6 5.8 9.2 6.1 9.9 C6.8 12 7.4 13 8 15 C7.7 16 7.3 16 7 17 C4.5 13 4.5 13 2 9 C1.7 9.7 1.3 10 1 11 C2.3 13 2.3 13 4 16 C5.8 19 5.8 19 7 21 C6.7 22 6.3 22 6 23 C1.7 18 -3 12 -3 5 C-2.3 4.7 -1.7 4.3 -1 4 C-0.3 2.0 -0.3 2.0 0 0 Z " fill="#426B5A" transform="translate(994,911)"/><path d="M0 0 C5.3 0 11 0 16 0 C15 0.5 15 0.5 14 1 C14 2.3 14 3.6 14 5 C15 5.3 16 5.7 17 6 C11 6 5.8 6 0 6 C3 4 3 4 5 4 C5 3.0 5 2.0 5 1 C3.4 1 1.7 1 0 1 C0 0.7 0 0.3 0 0 Z " fill="#3F685A" transform="translate(1016,846)"/><path d="M0 0 C6.4 0.9 10 4.9 14 9.7 C16 11 16 11 17 14 C17 15 16 16 16 17 C16 16 15 16 15 15 C11 11 7.0 6.9 1.5 4.1 C1.0 3.7 0.5 3.4 0 3 C0 2.0 0 1.0 0 0 Z " fill="#EEFAF0" transform="translate(1034,854)"/><path d="M0 0 C0.3 0 0.7 0 1 0 C0.3 8.9 -0.7 19 -6 26 C-6.7 26 -7.3 26 -8 26 C-7.3 23 -6.7 20 -6 17 C-5.8 16 -5.5 15 -5.3 14 C-4.9 12 -4.9 12 -4.6 11 C-4.3 9.8 -4.1 8.8 -3.9 7.8 C-3.0 4.8 -1.7 2.5 0 0 Z " fill="#DAEAE3" transform="translate(937,1063)"/><path d="M0 0 C4.6 0.5 6.1 1.1 10 4 C1.1 4 -7.8 4 -17 4 C-17 3.3 -17 2.7 -17 2 C-14 1 -14 1 -11 2 C-9.3 2.1 -7.5 2.1 -5.8 2.1 C-4.9 2.1 -4.0 2.0 -3.1 2.0 C-2.1 2.0 -2.1 2.0 -1 2 C-0.7 1.3 -0.3 0.7 0 0 Z " fill="#F3FBF4" transform="translate(1130,1133)"/><path d="M0 0 C0 3 0 3 -1 6 C-1.3 7.7 -1.7 9.3 -2 11 C-3.8 12 -3.8 12 -6 12 C-7.0 11 -8.0 11 -9 10 C-8.5 5.7 -6.1 3.7 -3 1 C-2.0 0.7 -1.0 0.3 0 0 Z " fill="#4A7A6B" transform="translate(1002,853)"/><path d="M0 0 C4.8 1.5 7.8 4.8 10 9.1 C10 10 9.7 11 9.4 12 C9.0 11 8.7 9.4 8.4 8.1 C7.7 8.1 7.1 8.1 6.4 8.1 C6.0 9.1 5.7 10 5.4 11 C4.3 9.7 4.3 9.7 3.1 8.3 C1.0 5.8 -1.2 3.4 -3.6 1.1 C-2.6 0.1 -2.6 0.1 0 0 Z " fill="#EAF7EB" transform="translate(1178.625,1152.9375)"/><path d="M0 0 C1.6 -0.1 3.2 -0.1 4.8 -0.1 C5.7 -0.1 6.6 -0.2 7.5 -0.2 C10 0 10 0 13 2 C11 2 9.7 2 8 2 C8 2.7 8 3.3 8 4 C9.0 4.3 10.0 4.7 11 5 C5.2 5.1 -0.3 4.8 -6 4 C-6 3.7 -6 3.3 -6 3 C-4.3 3 -2.7 3 -1 3 C-0.7 2.0 -0.3 1.0 0 0 Z " fill="#3D705B" transform="translate(929,1155)"/><path d="M0 0 C1.6 0.5 3.3 0.9 4.9 1.4 C5.8 1.6 6.7 1.9 7.6 2.1 C10 3 10 3 12 5 C8.4 7.3 5.2 7.3 1 7 C0.3 6.3 -0.3 5.7 -1 5 C-0.6 2.4 -0.6 2.4 0 0 Z " fill="#E7F4EA" transform="translate(850,1123)"/><path d="M0 0 C0.6 2.4 0.6 2.4 1 5 C-1 7 -1 7 -4.1 7.1 C-5.1 7.1 -6.0 7.0 -7 7 C-7.7 5.3 -8.3 3.7 -9 2 C-5.9 0.1 -3.6 -0.2 0 0 Z " fill="#E0F0E5" transform="translate(1198,1123)"/><path d="M0 0 C0.3 0 0.7 0 1 0 C1.3 3.6 1.7 7.3 2 11 C2.7 11 3.3 11 4 11 C4.1 13 4.1 16 4.1 18 C4.1 19 4.2 20 4.2 22 C4 25 4 25 2 27 C2 26 2 25 2 24 C1.3 24 0.7 24 0 24 C0 16 0 8.2 0 0 Z " fill="#9FBEAD" transform="translate(1237,1010)"/><path d="M0 0 C0.3 0 0.7 0 1 0 C1.1 0.8 1.3 1.5 1.4 2.3 C3.6 12 7.3 20 15 27 C9.0 25 5.6 21 2 16 C-0.1 11 -0.2 5.5 0 0 Z " fill="#D8EDE3" transform="translate(1039,942)"/><path d="M0 0 C9.2 3.8 18 16 24 24 C24 25 24 26 24 27 C16 18 7.8 9.2 0 0 Z " fill="#90AC9A" transform="translate(1172,855)"/><path d="M0 0 C6.3 1.3 13 2.6 19 4 C19 4.3 19 4.7 19 5 C18 5.1 18 5.1 17 5.1 C16 5.2 15 5.3 15 5.4 C14 5.4 13 5.5 12 5.6 C11 5.8 11 5.8 10 6 C9.7 6.7 9.3 7.3 9 8 C5.1 6.7 2.7 5.2 0 2 C0 1.3 0 0.7 0 0 Z " fill="#9DBDAB" transform="translate(835,1135)"/><path d="M0 0 C-0.3 2.0 -0.7 4.0 -1 6 C-6.8 5.2 -6.8 5.2 -9 3 C-9 1.7 -9 0.4 -9 -1 C-5.8 -2.6 -3.3 -1.0 0 0 Z " fill="#497364" transform="translate(1039,848)"/><path d="M0 0 C2.6 0.3 5.3 0.7 8 1 C8 2.3 8 3.6 8 5 C1.4 5 -5.2 5 -12 5 C-12 4.7 -12 4.3 -12 4 C-5.6 3.5 -5.6 3.5 1 3 C0.7 2.0 0.3 1.0 0 0 Z " fill="#4F7C6A" transform="translate(967,1141)"/><path d="M0 0 C1.3 0.7 2.6 1.3 4 2 C3.0 3.5 2.1 4.9 1.1 6.4 C0.6 7.2 0.1 8.0 -0.5 8.8 C-2 11 -2 11 -4 13 C-5 11 -5 11 -4.1 8 C-3.7 7.0 -3.4 6.0 -3 5 C-3 4.3 -3 3.7 -3 3 C-4.3 3 -5.6 3 -7 3 C-7 2.3 -7 1.7 -7 1 C-4.7 1.3 -2.4 1.7 0 2 C0 1.3 0 0.7 0 0 Z " fill="#E9F2E8" transform="translate(922,1217)"/><path d="M0 0 C2.0 0.6 2.0 0.6 4 2 C4.6 4.8 4.6 4.8 4.8 8.1 C4.8 9.2 4.9 10 4.9 11 C4.9 12 5.0 13 5 14 C4.7 13 4.3 13 4 12 C3.0 12 2.0 13 1 13 C-0.0 10.0 -0.1 8.0 -0.1 4.8 C-0.1 3.9 -0.0 3.0 -0.0 2.1 C-0.0 1.4 -0.0 0.7 0 0 Z " fill="#8EAC9D" transform="translate(807,1037)"/><path d="M0 0 C5.0 0.8 9.6 2.5 14 4.1 C15 4.3 16 4.6 17 4.9 C19 5.6 21 6.3 23 7 C19 9.1 19 9.1 16 8.2 C15 7.7 14 7.3 13 6.8 C12 6.4 10 5.9 9.3 5.5 C6.1 4.1 3.1 2.6 0 1 C0 0.7 0 0.3 0 0 Z " fill="#D1E7DB" transform="translate(1058,971)"/><path d="M0 0 C0.3 0 0.7 0 1 0 C1.0 1.0 1.1 1.9 1.1 2.9 C1.2 4.1 1.3 5.4 1.4 6.7 C1.5 8.5 1.5 8.5 1.6 10 C2.0 14 2.6 16 4 19 C3.3 20 2.7 20 2 21 C2 20 2 19 2 18 C0.7 18 -0.6 19 -2 19 C-2.3 18 -2.7 18 -3 17 C-2.7 16 -2.4 15 -2.1 15 C-0.6 9.8 -0.3 5.0 0 0 Z " fill="#587E70" transform="translate(1001,937)"/><path d="M0 0 C2.8 2.8 2.6 5.2 3 9 C2.0 9.3 1.0 9.7 0 10 C-0.1 11 -0.2 12 -0.4 13 C-0.6 15 -0.8 16 -1 17 C-1.7 17 -2.3 18 -3 18 C-2.5 12 -1.7 6.0 0 0 Z " fill="#E1F0E8" transform="translate(1077,1056)"/><path d="M0 0 C3 3 3 3 3.4 6.7 C3.4 8.2 3.3 9.6 3.3 11 C3.3 12 3.3 13 3.3 13 C3.3 19 3.3 19 1 21 C0.7 14 0.3 7.1 0 0 Z " fill="#D9E5DE" transform="translate(973,1077)"/><path d="M0 0 C1.5 1.2 1.5 1.2 3 3 C3.2 5.0 3.2 5.0 2.9 7.2 C2.8 8.0 2.7 8.8 2.6 9.7 C2.4 10 2.3 11 2.2 12 C2.1 13 2.0 14 1.9 15 C1.6 17 1.3 19 1 21 C0.7 21 0.3 21 0 21 C-0.7 14 -1.3 7.1 0 0 Z " fill="#D4E6DC" transform="translate(942,1018)"/><path d="M0 0 C0.9 3.2 1.1 6.0 1.1 9.2 C1.1 10 1.0 11 1.0 12 C1.0 13 1.0 13 1 14 C0.7 13 0.3 13 0 12 C-2.0 11 -2.0 11 -4 11 C-3.7 8.7 -3.3 6.4 -3 4 C-2.3 4 -1.7 4 -1 4 C-0.7 2.7 -0.3 1.4 0 0 Z " fill="#50816E" transform="translate(966,1059)"/><path d="M0 0 C0.3 1.0 0.7 2.0 1 3 C-2.7 4.2 -6.2 4.1 -10 4 C-10 3.0 -10 2.0 -10 1 C-6.8 -0.6 -3.6 -0.1 0 0 Z " fill="#3E6F5B" transform="translate(916,1157)"/><path d="M0 0 C3.1 1.5 6.1 3.1 9 5 C9 5.7 9 6.3 9 7 C9.8 7.3 11 7.6 11 7.9 C14 9 14 9 15 11 C9.4 9.6 4.4 6.8 0 3 C0 2.0 0 1.0 0 0 Z " fill="#D8EAE2" transform="translate(1106,1108)"/><path d="M0 0 C2.3 3.6 2.0 6.0 1.3 10 C1.1 11 1.0 12 0.8 13 C-0.0 16 -0.7 17 -3 19 C-2.5 13 -1.5 6.3 0 0 Z " fill="#E7F2E7" transform="translate(816,970)"/><path d="M0 0 C1.0 0.3 2.0 0.7 3 1 C3.3 3.3 3.7 5.6 4 8 C3.7 7.3 3.3 6.7 3 6 C2.3 6 1.7 6 1 6 C0.3 6.7 -0.3 7.3 -1 8 C-2.1 6.2 -2.1 6.2 -3 4 C-2.7 3.0 -2.3 2.0 -2 1 C-1.3 0.7 -0.7 0.3 0 0 Z " fill="#446C5B" transform="translate(1091,1091)"/><path d="M0 0 C0.7 0 1.3 0 2 0 C2.4 1.6 2.7 3.2 3.1 4.8 C3.3 5.7 3.5 6.6 3.7 7.5 C4 10 4 10 3 13 C2.0 13 1.0 12 0 12 C0 8.0 0 4.1 0 0 Z " fill="#DBE7E1" transform="translate(1046,934)"/><path d="M0 0 C3.6 0 7.3 0 11 0 C10 2 10 2 8.2 2.6 C3.3 3.7 -1.0 4.2 -6 4 C-6 3.7 -6 3.3 -6 3 C-5.2 2.9 -4.4 2.8 -3.6 2.6 C-2.7 2.4 -1.9 2.2 -1 2 C-0.7 1.3 -0.3 0.7 0 0 Z " fill="#9CBFAE" transform="translate(967,1224)"/><path d="M0 0 C0.7 0 1.3 0 2 0 C0.5 5.0 -2.3 7.5 -6 11 C-7.0 11 -8.0 10 -9 10 C-7.5 8.3 -6.1 6.7 -4.6 5 C-3.8 4.1 -3.0 3.1 -2.2 2.2 C-1.4 1.5 -0.7 0.7 0 0 Z " fill="#E7F1EA" transform="translate(923,1081)"/><path d="M0 0 C0.3 0 0.7 0 1 0 C3.3 12 3.3 12 3 17 C-0.6 12 -0.1 6.2 0 0 Z M-2 10 C-1.0 11 -0.0 13 1 14 C0.3 15 -0.3 17 -1 18 C-1.3 15 -1.7 13 -2 10 Z " fill="#88AA99" transform="translate(857,1038)"/><path d="M0 0 C1.0 0.3 2.0 0.7 3 1 C3.9 3.3 3.9 3.3 4.7 6.2 C4.9 7.2 5.2 8.2 5.4 9.1 C6.0 12 6.1 14 6 17 C4.0 14 3.0 11 1.9 7.9 C1.5 6.9 1.2 5.8 0.8 4.7 C0 2 0 2 0 0 Z " fill="#D6EBE0" transform="translate(1098,997)"/><path d="M0 0 C3.8 0.5 6.1 1.5 9 4 C8.7 4.7 8.3 5.3 8 6 C4.6 5.5 2.9 4.9 0 3 C0 2.0 0 1.0 0 0 Z " fill="#F1FAF3" transform="translate(1034,854)"/><path d="M0 0 C0.7 0.3 1.3 0.7 2 1 C1.5 5.7 1.0 9.7 -1 14 C-2.3 10 -1.4 8.6 0 5 C-0.7 5 -1.3 5 -2 5 C-2 3.7 -2 2.4 -2 1 C-1.3 0.7 -0.7 0.3 0 0 Z " fill="#8CAD9C" transform="translate(1147,1044)"/><path d="M0 0 C0.3 0.7 0.7 1.3 1 2 C0.0 4.0 -1.0 6.0 -2 8 C-2.4 9.3 -2.7 11 -3 12 C-3.7 14 -4.3 16 -5 18 C-5.3 18 -5.7 18 -6 18 C-5.7 12 -4.7 4.7 0 0 Z " fill="#4A6D5E" transform="translate(993,861)"/><path d="M0 0 C1.1 0.3 1.1 0.3 2.3 0.7 C2.0 1.3 1.7 2.0 1.3 2.7 C-0.8 3.3 -0.8 3.3 -2.7 3.7 C-3.0 5.7 -3.3 7.6 -3.7 9.7 C-4.3 9.4 -5.0 9.0 -5.7 8.7 C-6.0 3.3 -6.0 3.3 -4.5 0.8 C-2.7 -0.3 -2.7 -0.3 0 0 Z " fill="#517364" transform="translate(833.6875,1128.3125)"/><path d="M0 0 C3.7 3.4 6.1 6.4 8 11 C8 12 8 13 8 14 C7.0 14 6.0 14 5 14 C4.9 13 4.8 13 4.7 12 C3.9 8.6 2.6 6.0 1 3 C0.7 2.0 0.3 1.0 0 0 Z " fill="#96AD9D" transform="translate(1111,1224)"/><path d="M0 0 C2.5 2.5 3.0 4.7 4.1 8.1 C4.5 9.2 4.8 10 5.2 11 C5.5 12 5.7 13 6 14 C5.0 14 4.0 15 3 15 C2.5 13 2.0 12 1.5 9.8 C1.2 8.8 0.9 7.8 0.7 6.8 C0 4 0 4 0 0 Z " fill="#E0F1E8" transform="translate(1090,1077)"/><path d="M0 0 C0.7 0 1.3 0 2 0 C3.0 1.4 3.9 2.8 4.8 4.3 C6.7 7.0 8.8 9.5 11 12 C9 11 7 10 5 9 C5 8.3 5 7.7 5 7 C4.3 7 3.7 7 3 7 C0.7 4.4 0 3.5 0 0 Z " fill="#43715E" transform="translate(857,1178)"/><path d="M0 0 C0.7 1.3 1.3 2.6 2 4 C3.0 3.7 4.0 3.3 5 3 C5 5.0 5 7.0 5 9 C3.7 9 2.4 9 1 9 C-0.5 6.0 -0.1 3.3 0 0 Z " fill="#8AAD9C" transform="translate(807,986)"/><path d="M0 0 C0 1.3 0 2.6 0 4 C-5.3 3.7 -11 3.3 -16 3 C-16 2.7 -16 2.3 -16 2 C-15 1.9 -14 1.9 -14 1.8 C-13 1.7 -12 1.6 -11 1.6 C-9.7 1.5 -8.7 1.4 -7.7 1.3 C-5.0 1.0 -2.7 0 0 0 Z " fill="#D9E8DC" transform="translate(1034,853)"/><path d="M0 0 C-0.3 1.6 -0.7 3.3 -1 5 C-2.6 5 -4.3 5 -6 5 C-6 3.7 -6 2.4 -6 1 C-4 0 -4 0 0 0 Z " fill="#F2F6ED" transform="translate(1197,1125)"/><path d="M0 0 C0.7 0 1.3 0 2 0 C0.7 4 -0.7 8 -2 12 C-2.7 11 -3.3 10 -4 9 C-3.1 5.5 -2.0 3.0 0 0 Z " fill="#4A6F5F" transform="translate(923,1221)"/><path d="M0 0 C4.3 0.3 8.6 0.7 13 1 C12 2.5 12 2.5 11 4 C7.4 3.0 3.7 2.0 0 1 C0 0.7 0 0.3 0 0 Z " fill="#D2E8DA" transform="translate(1152,1146)"/><path d="M0 0 C0.7 1.0 1.3 2.0 2 3 C1.1 5.7 1.1 5.7 0 8 C0.7 8.3 1.3 8.7 2 9 C1.3 9.7 0.7 10 0 11 C-0.7 11 -1.3 11 -2 11 C-3.0 8.8 -3.1 7.4 -2.4 5.2 C-1.6 3.4 -0.8 1.7 0 0 Z " fill="#E3EFE7" transform="translate(949,993)"/><path d="M0 0 C1.3 0.3 2.7 0.7 4 1 C5.2 1.3 6.4 1.6 7.7 1.9 C8.8 2.2 9.9 2.6 11 3 C11 4.0 12 5.0 12 6 C11 5.6 9.1 5.1 7.7 4.7 C6.9 4.4 6.1 4.2 5.3 3.9 C2.9 3.0 1.7 1.9 0 0 Z " fill="#E8F3EA" transform="translate(1059,962)"/><path d="M0 0 C-1.8 0.9 -3.5 1.8 -5.3 2.6 C-6.8 3.4 -6.8 3.4 -8.3 4.1 C-9.2 4.4 -10 4.7 -11 5 C-12 4.3 -13 3.7 -14 3 C-12 2.3 -10 1.6 -8.7 0.9 C-7.2 0.4 -7.2 0.4 -5.7 -0.2 C-3 -1 -3 -1 0 0 Z " fill="#E4F3E9" transform="translate(1169,1206)"/><path d="M0 0 C1.3 0 2.7 0 4 0 C4.3 3.3 4.7 6.6 5 10 C4.0 8.7 3.0 7.4 2 6 C1.3 5.3 0.7 4.7 0 4 C0 2.7 0 1.4 0 0 Z " fill="#94B7A5" transform="translate(1188,1047)"/><path d="M0 0 C0.3 0 0.7 0 1 0 C0.9 1.4 0.8 2.9 0.6 4.3 C0.6 5.1 0.5 5.9 0.4 6.7 C0 9 0 9 -2 12 C-2.3 3.4 -2.3 3.4 0 0 Z " fill="#EFFBF2" transform="translate(945,1012)"/><path d="M0 0 C3.3 0.6 4.8 1.5 7 4 C6.0 4.7 5.0 5.3 4 6 C2.6 4.7 1.3 3.4 0 2 C0 1.3 0 0.7 0 0 Z " fill="#D7E7DC" transform="translate(1120,1216)"/><path d="M0 0 C-1.0 0.7 -2.0 1.3 -3 2 C-2.7 2.7 -2.3 3.3 -2 4 C-3.6 3.7 -5.3 3.3 -7 3 C-7 2.0 -7 1.0 -7 0 C-3.9 -1.0 -3.0 -0.9 0 0 Z " fill="#99BFAC" transform="translate(1035,1190)"/><path d="M0 0 C3.3 1.0 6.6 2.0 10 3 C10 3.3 10 3.7 10 4 C7.4 4 4.7 4 2 4 C1.3 2.7 0.7 1.4 0 0 Z " fill="#C5DFD1" transform="translate(835,1135)"/><path d="M0 0 C0.7 0 1.3 0 2 0 C1.7 1.4 1.5 2.9 1.2 4.3 C1.0 5.1 0.9 5.9 0.7 6.7 C0 9 0 9 -3 12 C-2.0 8.0 -1.0 4.1 0 0 Z " fill="#41685B" transform="translate(930,1077)"/><path d="M0 0 C0.3 0 0.7 0 1 0 C0.9 1.4 0.8 2.8 0.6 4.2 C0.6 5.0 0.5 5.8 0.4 6.6 C-0.0 9.1 -0.8 11 -2 13 C-2.1 12 -2.1 10 -2.1 8.8 C-2.1 8.0 -2.2 7.2 -2.2 6.4 C-2.0 3.8 -1.3 2.2 0 0 Z " fill="#EAF7EE" transform="translate(937,1063)"/><path d="M0 0 C0.2 1.0 0.2 1.0 0.4 1.9 C0.7 3.0 0.7 3.0 1 4 C1.7 4.3 2.3 4.7 3 5 C1.7 6.3 0.4 7.6 -1 9 C-1.8 6.1 -2.2 4.5 -1.1 1.7 C-0.7 1.1 -0.4 0.6 0 0 Z " fill="#E7EEE5" transform="translate(996,949)"/><path d="M0 0 C4 4.6 4 4.6 4 8 C2.1 7.7 2.1 7.7 0 7 C-1.0 3.9 -0.9 3.0 0 0 Z " fill="#E1EBE2" transform="translate(995,927)"/><path d="M0 0 C0 1.0 0 2.0 0 3 C-0.6 3.1 -1.3 3.2 -1.9 3.3 C-2.6 3.5 -3.3 3.8 -4 4 C-4.3 5.0 -4.7 6.0 -5 7 C-5.7 6.0 -6.3 5.0 -7 4 C-4.6 2.1 -2.9 1.0 0 0 Z " fill="#588373" transform="translate(1002,853)"/><path d="M0 0 C1.0 0.5 1.0 0.5 2 1 C1.0 1.5 1.0 1.5 0 2 C0 1.3 0 0.7 0 0 Z M0 2 C0 2.7 0 3.3 0 4 C-4.6 6.1 -4.6 6.1 -8 5 C-4.9 2.4 -4.3 2 0 2 Z " fill="#F8FBF5" transform="translate(967,967)"/><path d="M0 0 C0.7 0.3 1.3 0.7 2 1 C0.6 4.4 -1.3 6.5 -4 9 C-2.9 5.6 -2.0 3.0 0 0 Z " fill="#E9F1E8" transform="translate(834,922)"/><path d="M0 0 C1.0 0.3 2.0 0.7 3 1 C3 3.3 3 5.6 3 8 C2.0 8 1.0 8 0 8 C0 5.4 0 2.7 0 0 Z " fill="#E7F6EB" transform="translate(1120,1231)"/><path d="M0 0 C2.2 4.4 2.0 5.5 1 10 C0.0 10 -1.0 10 -2 10 C-1.3 6.7 -0.7 3.4 0 0 Z " fill="#A1BAAB" transform="translate(814,1061)"/><path d="M0 0 C1.5 1.0 1.5 1.0 3 2 C2.7 5.6 2.3 9.3 2 13 C1.7 13 1.3 13 1 13 C0.7 8.7 0.3 4.4 0 0 Z " fill="#BFD5CA" transform="translate(941,1026)"/><path d="M0 0 C1.7 2.6 2.4 4.0 3 7 C1.3 7 -0.3 7 -2 7 C-1.1 2.2 -1.1 2.2 0 0 Z " fill="#E7F0E5" transform="translate(988,912)"/><path d="M0 0 C0.3 0 0.7 0 1 0 C1.3 2.0 1.7 4.0 2 6 C-0.3 6 -2.6 6 -5 6 C-4.0 5.7 -3.0 5.3 -2 5 C-0.8 2.5 -0.8 2.5 0 0 Z " fill="#A7BFB3" transform="translate(972,1135)"/><path d="M0 0 C0.3 1.0 0.7 2.0 1 3 C1.7 3 2.3 3 3 3 C2.7 4.3 2.3 5.6 2 7 C1.0 7 0.0 7 -1 7 C-0.7 4.7 -0.3 2.4 0 0 Z " fill="#9DB6A7" transform="translate(1142,1056)"/><path d="M0 0 C0.3 1.0 0.7 2.0 1 3 C-0.4 5.7 -0.4 5.7 -2 8 C-3.0 7.7 -4.0 7.3 -5 7 C-3.4 4.7 -1.7 2.4 0 0 Z " fill="#E7F3E7" transform="translate(898,916)"/><path d="M0 0 C0.7 0.3 1.3 0.7 2 1 C0.5 5.0 0.5 5.0 -1 9 C-1.7 8.7 -2.3 8.3 -3 8 C-1.1 1.1 -1.1 1.1 0 0 Z " fill="#E6F1E6" transform="translate(989,864)"/><path d="M0 0 C2.5 0.5 2.5 0.5 5 1 C5 2.0 5 3.0 5 4 C3.1 3.7 3.1 3.7 1 3 C0.7 2.0 0.3 1.0 0 0 Z " fill="#E8F5EC" transform="translate(1113,1224)"/><path d="M0 0 C1.0 1.0 2.0 2.0 3 3 C1.7 4.5 1.7 4.5 0 6 C-1.0 6 -2.0 6 -3 6 C-2.7 4.7 -2.3 3.4 -2 2 C-1.3 2 -0.7 2 0 2 C0 1.3 0 0.7 0 0 Z " fill="#EBEFE4" transform="translate(1210,1124)"/><path d="M0 0 C1.0 0.3 2.0 0.7 3 1 C2.7 2.3 2.3 3.6 2 5 C1.0 5 0.0 5 -1 5 C-1.3 5.7 -1.7 6.3 -2 7 C-1.1 1.1 -1.1 1.1 0 0 Z " fill="#99B7A7" transform="translate(858,1052)"/><path d="M0 0 C1.0 0.3 2.0 0.7 3 1 C3 3.0 3 5.0 3 7 C2.0 7.3 1.0 7.7 0 8 C0 5.4 0 2.7 0 0 Z " fill="#97B7A7" transform="translate(808,1032)"/><path d="M0 0 C0.7 0 1.3 0 2 0 C3.1 1.8 3.1 1.8 4 4 C3.7 5.0 3.3 6.0 3 7 C1.7 5.3 0.4 3.7 -1 2 C-0.7 1.3 -0.3 0.7 0 0 Z " fill="#DCEEE3" transform="translate(1047,864)"/></svg> 