<?xml version="1.0" encoding="UTF-8"?><svg xmlns="http://www.w3.org/2000/svg" viewBox="1442 78 695 712"><path d="M0 0 C0.7 -0.0 1.5 -0.0 2.2 -0.0 C3.8 -0.0 5.3 -0.0 6.9 -0.0 C9.2 -0.0 12 -0.0 14 -0.1 C27 -0.1 41 0.2 52 8.6 C54 11 55 13 56 16 C57 16 58 16 58 16 C75 13 90 20 104 29 C118 40 132 56 136 74 C136 77 137 79 137 82 C137 83 137 83 137 84 C139 85 139 85 141 86 C151 98 153 111 153 126 C153 128 154 129 154 130 C154 143 150 154 143 164 C142 166 142 166 141 167 C138 170 136 171 133 173 C128 176 126 178 125 184 C125 185 124 186 124 188 C121 198 114 208 104 214 C95 219 87 223 76 222 C75 222 75 223 74 223 C68 223 63 221 57 219 C57 220 57 221 58 222 C58 223 58 224 59 225 C59 226 59 228 59 229 C61 235 61 241 61 248 C61 248 61 249 61 250 C61 252 61 254 61 256 C60 256 58 256 57 256 C55 252 54 249 54 245 C54 243 54 241 53 240 C53 238 53 235 52 233 C52 231 52 228 52 226 C51 225 51 225 51 224 C51 219 49 216 45 213 C34 202 34 202 32 196 C32 194 32 194 33 192 C34 192 36 192 37 191 C38 192 38 193 38 193 C45 203 53 210 65 213 C67 214 67 214 68 214 C81 215 92 213 102 205 C110 198 116 189 119 178 C118 178 118 179 117 179 C108 180 100 178 92 177 C65 171 46 176 21 186 C20 186 19 187 18 187 C17 188 16 188 15 188 C12 189 12 189 8.1 189 C8.5 190 9.0 190 9.4 191 C11 193 12 194 14 196 C15 198 17 200 19 203 C29 214 36 227 42 241 C42 242 42 242 43 243 C44 248 46 252 46 257 C44 257 43 258 41 258 C39 254 37 249 35 245 C30 233 25 223 17 213 C15 210 13 207 11 204 C7.3 198 7.3 198 2.1 193 C-4.6 192 -12 193 -18 193 C-30 194 -41 188 -50 181 C-56 175 -61 167 -63 158 C-63 156 -63 154 -63 151 C-64 151 -65 151 -65 152 C-82 154 -96 151 -110 142 C-121 134 -127 121 -130 108 C-130 104 -130 100 -130 96 C-130 95 -130 94 -130 93 C-130 77 -124 65 -113 53 C-109 49 -105 45 -99 45 C-99 44 -98 44 -98 43 C-92 30 -79 20 -66 15 C-58 12 -51 12 -44 12 C-39 11 -37 9.6 -34 7.2 C-31 5.9 -28 4.9 -24 4.0 C-24 3.7 -23 3.5 -22 3.2 C-15 0.9 -7.7 0.0 0 0 Z " fill="#2A5589" transform="translate(1695.91796875,166.83203125)"/><path d="M0 0 C2.1 0.0 4.2 0.0 6.3 -0.0 C32 -0.0 32 -0.0 40 6.8 C41 8.4 41 8.4 43 11 C42 12 42 12 41 13 C25 22 14 33 8.2 51 C7.3 55 7.1 59 7.1 63 C7.1 64 7.1 65 7.1 66 C7.2 67 7.2 68 7.2 68 C8.7 69 8.7 69 10 69 C10 68 10 68 10 67 C13 52 18 36 30 26 C31 25 31 25 32 24 C41 18 51 14 61 15 C80 17 97 30 109 44 C118 56 125 67 123 82 C121 89 119 95 113 99 C110 99 109 98 106 96 C105 93 104 90 103 87 C101 78 96 69 88 64 C85 61 85 59 84 54 C84 52 84 52 82 49 C78 47 76 46 71 46 C67 48 67 48 64 52 C64 57 63 61 66 65 C69 67 70 68 73 68 C77 83 75 100 68 114 C66 115 66 115 64 115 C58 116 55 119 52 124 C50 125 50 125 47 125 C46 125 45 125 44 125 C42 125 42 125 40 125 C26 126 12 129 -0.8 135 C-3.9 135 -5.1 134 -7.8 132 C-11 132 -14 132 -17 132 C-20 135 -20 135 -22 137 C-22 138 -22 138 -23 138 C-23 144 -23 144 -21 149 C-17 153 -15 153 -10 153 C-7.5 152 -7.5 152 -4.9 150 C-2.6 147 -2.6 147 -2.2 144 C-0.6 140 0.1 139 3.9 138 C18 132 36 127 51 130 C54 132 55 134 56 137 C57 139 57 139 60 141 C64 142 68 142 72 140 C74 138 74 138 76 135 C88 136 97 142 105 150 C106 151 107 152 107 152 C111 156 113 159 113 164 C103 165 94 165 85 162 C60 157 39 162 16 171 C-1.4 177 -20 183 -38 176 C-47 172 -57 165 -60 156 C-62 148 -62 140 -58 132 C-50 119 -37 111 -22 107 C-17 106 -13 106 -9.0 106 C-1.6 106 3.9 103 10 99 C20 94 28 92 39 92 C40 92 41 92 42 92 C44 92 47 92 49 92 C50 91 50 91 50 89 C40 85 26 86 15 90 C12 91 9.7 93 7.0 94 C-2.1 100 -10 101 -21 101 C-23 101 -25 102 -28 102 C-34 90 -40 79 -41 65 C-39 63 -39 63 -36 61 C-34 57 -34 55 -35 51 C-35 48 -35 48 -34 45 C-32 43 -30 42 -28 40 C-27 39 -27 39 -26 39 C-23 37 -21 36 -18 36 C-15 37 -15 37 -13 38 C-8.9 39 -6.0 39 -2.8 36 C-0.5 33 -0.3 30 -0.4 26 C-1.1 23 -3.0 21 -5.8 19 C-9.6 18 -12 18 -16 19 C-20 19 -22 17 -25 14 C-29 11 -33 9.8 -37 8.3 C-37 7.6 -37 6.9 -37 6.3 C-35 5.6 -33 5.0 -31 4.4 C-30 4.0 -29 3.7 -28 3.3 C-18 0.7 -9.6 -0.1 0 0 Z " fill="#F3F4EE" transform="translate(1702.822021484375,173.7392578125)"/><path d="M0 0 C9.0 0.7 17 3.5 23 10 C24 13 24 13 25 15 C26 15 27 15 27 14 C44 12 59 18 73 28 C87 39 101 55 105 73 C105 76 105 78 105 81 C106 82 106 82 106 83 C108 84 108 84 110 85 C120 97 122 110 122 125 C122 126 122 128 122 129 C122 142 119 152 112 163 C111 164 111 165 110 166 C107 169 105 170 101 172 C97 175 95 177 94 183 C93 184 93 185 93 186 C90 197 83 207 73 213 C64 218 56 221 45 221 C44 221 43 221 43 221 C37 221 32 220 26 218 C26 219 26 220 27 221 C27 222 27 223 27 224 C28 225 28 226 28 228 C30 234 30 240 30 246 C30 247 30 248 30 249 C30 251 30 253 30 255 C29 255 27 255 26 255 C24 251 23 248 23 243 C23 242 22 240 22 239 C22 236 22 234 21 232 C21 229 21 227 21 225 C20 224 20 224 20 223 C20 218 18 215 14 212 C3.2 201 3.2 201 1 195 C1.4 193 1.4 193 2 191 C3.3 191 4.6 190 6 190 C6.4 191 6.9 191 7.4 192 C14 202 22 209 34 212 C35 212 35 212 37 213 C49 214 61 212 71 204 C79 197 85 188 88 177 C87 177 87 178 86 178 C77 179 69 177 61 176 C34 170 15 175 -10 185 C-11 185 -12 186 -13 186 C-14 186 -15 187 -16 187 C-19 188 -19 188 -23 188 C-23 189 -22 189 -22 190 C-20 191 -19 193 -18 195 C-16 197 -14 199 -12 201 C-2.3 213 4.7 225 10 240 C11 240 11 241 12 242 C13 247 15 251 15 256 C13 256 12 257 10 257 C7.7 253 5.6 248 3.6 243 C-1.2 232 -6.3 221 -14 212 C-16 209 -18 206 -20 203 C-24 197 -24 197 -29 192 C-36 190 -43 191 -50 192 C-52 192 -55 192 -58 191 C-56 190 -56 190 -54 189 C-54 188 -54 187 -54 186 C-50 184 -47 184 -42 184 C-28 183 -15 178 -1.8 173 C20 165 40 162 63 167 C71 169 80 170 89 170 C85 159 78 152 68 146 C62 144 58 142 52 142 C49 144 49 144 47 147 C43 149 39 148 35 147 C32 145 31 144 30 141 C28 138 28 138 25 136 C23 136 21 136 18 136 C17 136 17 136 16 136 C3.7 137 -7.3 139 -18 144 C-21 145 -23 145 -25 146 C-25 147 -25 148 -25 149 C-26 153 -27 155 -30 158 C-33 160 -37 160 -41 159 C-44 157 -46 155 -48 152 C-49 145 -49 145 -47 142 C-45 139 -43 137 -39 137 C-34 137 -32 137 -28 140 C-23 139 -18 137 -14 135 C-3.0 131 7.5 130 19 130 C22 130 25 130 28 129 C31 126 31 126 32 123 C36 120 39 120 44 120 C44 119 45 117 45 116 C46 114 46 114 46 113 C46 112 47 111 47 110 C47 109 48 108 48 107 C50 100 49 94 49 88 C49 86 49 85 49 84 C49 80 49 77 49 74 C48 74 47 74 47 74 C43 73 41 71 39 68 C38 63 38 59 41 55 C44 52 46 51 51 51 C55 52 57 54 60 57 C60 57 61 58 61 58 C61 59 61 61 61 62 C61 66 61 66 63 69 C65 70 66 70 67 71 C76 79 81 91 83 102 C85 103 88 103 90 104 C96 94 99 87 98 76 C97 72 96 69 94 66 C94 65 93 64 93 63 C88 55 83 49 76 42 C75 41 75 41 74 40 C63 29 48 22 32 22 C20 23 9.9 29 1.3 38 C-7.5 48 -11 61 -14 75 C-15 75 -17 74 -18 74 C-19 59 -15 46 -5.2 34 C1.5 27 9.0 21 18 17 C15 12 11 10 5.1 8.8 C1.3 7.8 -2.2 7.3 -6 7 C-5.4 7.0 -4.8 6.9 -4.1 6.9 C-3.4 6.6 -2.7 6.3 -2 6 C-0.7 3.0 -0.7 3.0 0 0 Z " fill="#2B578D" transform="translate(1727,168)"/><path d="M0 0 C32 27 49 65 54 106 C54 111 54 116 54 121 C54 122 54 123 54 125 C54 165 38 196 16 229 C-3.4 259 -16 286 -9.6 323 C-6.6 338 -2.1 353 2.9 367 C4.8 372 5.3 376 5.0 382 C3.7 383 2.3 383 1.0 383 C-2.5 379 -4.3 376 -5.9 371 C-6.2 370 -6.4 369 -6.7 368 C-7.2 367 -7.7 365 -8.2 364 C-9.0 361 -9.8 359 -11 357 C-21 325 -27 291 -12 259 C-12 259 -11 258 -11 257 C-5.4 246 1.5 235 8.6 224 C27 196 44 166 44 132 C44 131 44 131 44 130 C45 108 45 108 41 86 C41 86 41 85 40 84 C37 72 33 61 28 50 C28 49 27 48 27 47 C10.0 15 -22 -9.2 -57 -21 C-60 -22 -64 -23 -67 -24 C-68 -24 -69 -24 -69 -24 C-118 -37 -174 -33 -218 -7.7 C-252 13 -270 43 -283 80 C-283 81 -284 82 -284 83 C-289 98 -292 113 -289 129 C-286 142 -286 151 -292 162 C-292 163 -293 164 -293 165 C-298 174 -304 182 -309 190 C-312 194 -314 197 -317 201 C-317 201 -318 202 -318 203 C-321 208 -321 208 -324 214 C-323 217 -321 219 -319 221 C-315 223 -310 225 -306 226 C-301 228 -298 230 -295 234 C-294 241 -295 247 -297 253 C-298 256 -298 258 -298 260 C-296 264 -292 265 -288 266 C-288 271 -289 274 -292 277 C-293 280 -293 280 -292 282 C-291 284 -289 285 -288 286 C-284 289 -282 292 -282 297 C-282 301 -282 305 -284 310 C-286 316 -286 323 -284 330 C-279 336 -274 339 -266 341 C-262 342 -259 342 -255 342 C-254 342 -254 342 -252 342 C-245 342 -238 341 -231 339 C-221 337 -208 336 -199 342 C-198 343 -198 343 -197 343 C-186 351 -184 366 -181 377 C-181 379 -180 380 -180 381 C-178 389 -178 396 -178 403 C-179 404 -181 404 -182 404 C-184 401 -186 399 -186 395 C-187 394 -187 394 -187 393 C-187 392 -188 391 -188 389 C-188 387 -189 385 -190 383 C-190 380 -191 378 -192 375 C-195 360 -195 360 -205 349 C-215 345 -225 347 -236 349 C-251 352 -266 354 -280 346 C-287 341 -292 336 -294 328 C-294 326 -294 323 -294 320 C-294 320 -294 319 -294 318 C-294 313 -293 309 -292 304 C-291 301 -291 298 -292 295 C-294 293 -296 290 -299 288 C-301 286 -302 285 -302 282 C-302 282 -302 281 -302 280 C-302 279 -302 278 -302 278 C-302 275 -301 273 -300 271 C-301 271 -301 271 -301 270 C-302 270 -302 269 -303 268 C-304 268 -304 267 -305 267 C-308 263 -307 259 -307 255 C-307 252 -306 249 -305 246 C-304 243 -304 241 -304 237 C-308 235 -311 233 -315 232 C-322 230 -327 226 -331 220 C-333 216 -333 211 -331 206 C-328 199 -323 193 -319 187 C-301 164 -301 164 -296 136 C-296 135 -297 133 -298 131 C-306 99 -288 60 -273 33 C-252 -1.4 -218 -24 -179 -33 C-176 -34 -172 -35 -169 -36 C-168 -36 -167 -36 -166 -36 C-110 -48 -45 -37 0 0 Z " fill="#2B578C" transform="translate(1825.025390625,174.693359375)"/><path d="M0 0 C2.2 1.0 4.0 2.0 5.8 3.5 C8.7 5.5 12 6.2 15 7 C15 8.0 15 8.0 15 9.0 C16 16 18 22 20 28 C20 29 20 29 21 30 C22 34 24 38 26 42 C25 43 24 43 23 44 C21 45 20 46 18 47 C18 47 17 47 16 48 C9.7 52 3.7 56 -0.6 63 C-1.2 64 -1.8 65 -2.4 65 C-4.0 68 -4.0 68 -5.3 70 C-6.4 72 -7.4 74 -9 76 C-12 77 -14 77 -17 77 C-18 77 -19 77 -20 77 C-34 78 -47 74 -57 64 C-64 57 -69 46 -69 36 C-69 34 -69 33 -69 32 C-69 31 -69 30 -69 28 C-69 27 -69 26 -69 24 C-69 23 -69 22 -69 21 C-69 20 -69 19 -69 18 C-69 15 -69 15 -67 13 C-66 14 -66 15 -65 17 C-62 24 -57 28 -50 31 C-46 33 -44 35 -42 40 C-40 42 -38 44 -35 44 C-31 44 -28 44 -25 42 C-22 38 -23 34 -23 30 C-24 29 -24 28 -25 27 C-25 20 -20 15 -15 11 C-10 7.0 -5.1 3.5 0 0 Z " fill="#F3F4ED" transform="translate(1643,235)"/><path d="M0 0 C2.2 1.5 4.0 3.0 5.9 4.9 C6.3 7.8 6.3 7.8 5.9 11 C3.6 13 3.6 13 0.7 14 C-3.6 17 -6.9 19 -10 23 C-12 22 -12 22 -13 22 C-18 20 -23 20 -28 22 C-31 24 -32 26 -33 30 C-33 31 -33 32 -33 34 C-34 37 -34 38 -37 40 C-38 41 -39 42 -41 42 C-42 43 -43 44 -45 45 C-45 45 -46 45 -46 46 C-52 50 -56 54 -59 60 C-61 65 -61 65 -64 66 C-67 66 -67 66 -69 66 C-72 66 -73 68 -75 70 C-81 70 -84 67 -88 64 C-91 61 -92 58 -94 55 C-94 54 -95 54 -95 53 C-96 48 -96 43 -94 39 C-93 38 -92 37 -91 36 C-91 35 -90 35 -89 34 C-82 26 -75 23 -64 22 C-64 21 -65 20 -65 19 C-67 19 -69 18 -71 18 C-55 -5.3 -25 -16 0 0 Z " fill="#F3F3ED" transform="translate(1676.125,193.125)"/><path d="M0 0 C5.8 0.7 9.5 5.7 13 10 C17 16 22 25 22 33 C21 35 21 35 19 37 C18 42 18 45 21 49 C24 52 24 52 27 52 C28 52 29 52 29 52 C30 52 31 52 32 52 C35 51 35 50 37 48 C38 45 38 45 38 42 C39 36 40 33 44 28 C46 24 47 20 48 16 C56 23 58 34 59 44 C59 45 59 47 59 48 C59 49 59 50 59 50 C60 64 58 76 49 88 C47 91 44 93 41 95 C38 94 38 94 37 92 C37 91 36 90 36 90 C30 78 20 72 8 67 C6.2 66 4.4 66 2.6 66 C-1 64 -1 64 -1.8 62 C-2.3 60 -2.3 60 -2.6 58 C-2.9 56 -2.9 56 -5.3 54 C-7 51 -7 51 -6.7 49 C-5.7 45 -4.5 41 -3.2 38 C-0.8 30 -0.7 23 -0.9 14 C-0.9 12 -1.0 9.3 -1.0 6.8 C-1.0 5.7 -1.0 4.6 -1.1 3.5 C-1 1 -1 1 0 0 Z " fill="#F2F4EE" transform="translate(1783,240)"/><path d="M0 0 C1.0 0.8 1.0 0.8 2.1 1.6 C4.5 3.4 5.3 3.1 8.2 2.7 C9.5 2.5 11 2.2 12 2 C12 3.0 12 4.0 12 5 C13 4.7 14 4.4 14 4.1 C16 3.5 16 3.5 17 2.9 C18 2.6 19 2.2 20 1.8 C23 1 23 1 26 2 C24 3.0 21 4.0 19 4.9 C18 5.2 17 5.5 17 5.8 C13 7.1 10 8.2 7 9 C6.9 10 6.8 11 6.8 12 C5.9 16 4.9 18 2 21 C-1.5 23 -5.2 23 -9 22 C-12 20 -14 18 -16 15 C-17 8.2 -17 8.2 -15 5.2 C-10 -0.3 -6.7 -0.7 0 0 Z " fill="#235691" transform="translate(1695,305)"/><path d="M0 0 C11 3.1 19 11 28 18 C29 19 30 19 30 20 C36 24 40 29 44 34 C45 35 45 35 46 36 C53 44 53 44 53 48 C54 48 54 48 55 48 C58 54 61 59 64 65 C65 67 65 67 66 68 C67 71 68 74 68 77 C69 77 69 77 70 77 C70 76 70 75 70 74 C71 74 71 74 72 74 C71 72 70 69 69 67 C69 66 69 66 68 65 C67 61 65 58 64 54 C63 53 63 52 62 51 C62 50 62 50 63 49 C72 65 81 82 81 101 C79 98 78 94 77 91 C75 94 74 96 74 100 C72 97 72 96 71 93 C70 92 70 92 70 90 C70 89 70 89 69 88 C67 78 63 70 59 61 C59 60 58 59 58 58 C45 34 24 16 1.5 2.0 C1.0 1.7 0.5 1.3 0 1 C0 0.7 0 0.3 0 0 Z " fill="#2A4F7F" transform="translate(1794,164)"/><path d="M0 0 C0.7 0 1.3 0 2 0 C11 13 14 24 15 40 C16 38 17 37 18 35 C20 36 20 36 22 38 C22 39 22 40 22 41 C23 41 23 41 24 41 C24 39 23 37 23 35 C27 38 29 41 31 45 C32 46 32 47 33 49 C36 57 36 64 36 73 C36 74 36 75 36 77 C36 79 36 82 36 85 C36 85 35 85 35 85 C35 80 34 76 34 71 C32 74 32 75 31 78 C31 79 31 81 31 82 C31 82 30 82 30 82 C30 81 30 81 30 80 C29 65 27 52 19 38 C19 39 18 40 18 41 C18 42 17 43 17 44 C16 46 16 47 15 48 C14 51 14 51 12 52 C12 51 12 50 13 49 C13 45 13 45 12 42 C12 40 12 38 12 36 C13 24 8.9 16 2.5 5.6 C1 3 1 3 0 0 Z " fill="#254C7E" transform="translate(1813,219)"/><path d="M0 0 C0.3 0 0.7 0 1 0 C1.7 4.3 2.3 8.6 3 13 C4.0 11 5.0 9.0 6 7 C6.3 7 6.7 7 7 7 C8.5 24 7.9 37 -2 51 C-2.4 52 -2.8 52 -3.2 53 C-5.6 56 -6.9 57 -11 58 C-12 58 -13 58 -14 58 C-13 55 -11 53 -8.9 50 C-8.3 50 -7.8 49 -7.2 48 C-6.6 48 -6.6 48 -6 47 C-6.7 46 -7.3 46 -8 45 C-7.6 44 -7.2 43 -6.8 43 C-6.2 42 -5.7 41 -5.1 39 C-4.6 38 -4.1 37 -3.5 36 C0.2 28 0.3 21 0.1 13 C0.1 11 0.1 10 0.1 8.9 C0.1 5.9 0.0 3.0 0 0 Z " fill="#2F598D" transform="translate(1841,280)"/><path d="M0 0 C1 3 1 3 -0.1 6.4 C-0.7 10 0.1 11 2.2 14 C4.6 17 7.3 20 10 23 C6.7 23 4.9 22 2 21 C0.2 19 0.2 19 -1.3 16 C-2.1 15 -2.1 15 -2.9 14 C-4 12 -4 12 -4 10 C-5.0 10 -6.0 11 -7 11 C-8.7 11 -10 11 -12 11 C-13 11 -14 11 -15 11 C-16 11 -17 11 -18 11 C-20 11 -20 11 -21 11 C-26 11 -31 11 -36 10 C-35 9.3 -33 8.7 -32 8 C-32 7.0 -32 6.0 -32 5 C-28 2.5 -24 2.6 -20 2.5 C-13 2.3 -6.5 0 0 0 Z " fill="#356196" transform="translate(1705,349)"/><path d="M0 0 C1.8 0.1 1.8 0.1 3.6 0.2 C6.5 0.3 9.4 0.5 12 0.7 C13 1.5 13 2.2 13 3.0 C15 7.5 17 11 21 14 C24 14 27 14 30 15 C30 15 30 16 29 17 C24 17 21 17 16 14 C16 12 15 11 14 9.6 C12 6.6 12 6.6 9.3 5.0 C6.9 4.8 4.7 4.9 2.3 5.1 C1.5 5.1 0.6 5.1 -0.2 5.2 C-11 5.6 -21 7.3 -31 9.7 C-32 10 -34 10 -36 11 C-36 9.4 -36 8.0 -37 6.7 C-35 6.1 -34 5.5 -32 4.9 C-31 4.5 -30 4.2 -29 3.9 C-19 0.6 -11 -0.7 0 0 Z " fill="#365D8D" transform="translate(1742.75,299.3125)"/><path d="M0 0 C0.8 -0.0 1.7 -0.0 2.5 -0.1 C7.7 -0.1 11 0.5 16 3.2 C15 4.6 15 5.9 15 7.2 C14 7.2 13 7.2 13 7.2 C9.9 7.1 7.0 7.1 4.2 7.1 C3.2 7.0 2.3 7.0 1.3 7.0 C-4.8 6.9 -9.7 7.6 -15 9.7 C-17 10 -17 10 -20 9.2 C-21 8.6 -21 7.9 -21 7.2 C-24 7.9 -27 8.6 -29 9.2 C-27 6.3 -24 5.1 -21 3.6 C-20 3.2 -19 2.8 -17 2.3 C-12 0.2 -6.2 0.0 0 0 Z " fill="#244C7E" transform="translate(1737.4375,259.75)"/><path d="M0 0 C1.0 0.3 2.0 0.7 3 1 C1.3 2.0 -0.5 3.0 -2.2 3.9 C-3.7 4.8 -3.7 4.8 -5.2 5.6 C-8 7 -8 7 -10 7.6 C-11 7.7 -11 7.9 -12 8 C-12 8.7 -13 9.3 -13 10 C-6.8 9.1 -1.6 8.0 4 5 C4.7 5.3 5.3 5.7 6 6 C4.5 6.8 2.9 7.6 1.4 8.4 C0.5 8.8 -0.3 9.3 -1.2 9.7 C-7.6 13 -13 13 -20 13 C-21 13 -22 13 -22 13 C-28 13 -33 12 -39 10 C-39 11 -40 13 -40 14 C-40 12 -40 11 -40 9 C-39 8.9 -39 8.9 -38 8.9 C-37 8.7 -37 8.7 -36 8.6 C-35 8.6 -34 8.5 -33 8.4 C-32 8.3 -32 8.1 -31 8 C-31 7.3 -30 6.7 -30 6 C-31 5.7 -31 5.3 -32 5 C-30 5.1 -30 5.1 -29 5.1 C-18 5.4 -9.5 4.7 0 0 Z " fill="#295285" transform="translate(1792,376)"/><path d="M0 0 C0.3 0 0.7 0 1 0 C1.8 9.0 1.8 9.0 -1.4 13 C-2.2 14 -3.1 14 -4 15 C-5.4 16 -6.9 18 -8.3 19 C-11 22 -11 22 -13 24 C-17 26 -19 29 -21 33 C-21 33 -22 34 -22 35 C-23 36 -24 38 -25 39 C-27 36 -27 36 -27 33 C-24 22 -12 13 -2 8 C-1.3 8 -0.7 8 0 8 C0 5.4 0 2.7 0 0 Z " fill="#2F5685" transform="translate(1642,223)"/><path d="M0 0 C0.3 0 0.7 0 1 0 C1.0 1.3 1.1 2.5 1.1 3.8 C1.4 13 1.9 21 5 29 C5.1 30 5.3 30 5.4 31 C7.7 39 16 45 22 49 C21 50 21 52 20 53 C11 48 4.2 43 0 34 C-0.4 31 -0.4 27 -0.2 24 C-0.0 21 -0.1 19 -0.6 17 C-1.4 11 -0.6 5.6 0 0 Z " fill="#325D92" transform="translate(1573,258)"/><path d="M0 0 C-0.3 2.0 -0.7 4.0 -1 6 C-2.0 5.9 -3.1 5.9 -4.2 5.8 C-16 5.4 -26 6.8 -36 12 C-38 13 -38 13 -42 13 C-42 11 -42 11 -40 8 C-38 7.1 -35 6.4 -33 5.9 C-31 5.2 -31 5.2 -30 2.9 C-29 2.3 -29 1.6 -29 1 C-29 1.7 -28 2.3 -28 3 C-27 2.8 -27 2.8 -26 2.6 C-17 1.1 -8.7 0 0 0 Z " fill="#2A5C98" transform="translate(1702,274)"/><path d="M0 0 C0.7 0.3 1.3 0.7 2 1 C1.7 2.0 1.3 3.0 1 4 C0.9 5.4 0.7 6.7 0.6 8.1 C0.4 9.4 0.2 11 0 12 C-1.0 13 -2.0 13 -3 14 C-3 15 -3 16 -3 16 C-3 21 -4.0 26 -6 30 C-7.3 31 -8.6 32 -10 33 C-11 35 -11 35 -12 37 C-12 38 -13 39 -13 40 C-16 36 -15 34 -14 29 C-13 29 -12 29 -11 29 C-11 28 -11 28 -11 27 C-7.3 7.3 -7.3 7.3 0 0 Z " fill="#2D5C96" transform="translate(1542,239)"/><path d="M0 0 C7.5 9.0 7.5 9.0 7 16 C8.7 16 8.7 16 10 16 C24 20 36 27 44 39 C44 40 43 41 43 42 C42 41 42 41 42 40 C38 36 35 32 31 29 C31 28 31 28 31 27 C27 26 24 24 20 23 C20 24 20 24 20 25 C21 25 21 25 22 26 C25 27 27 29 30 31 C31 31 31 32 32 33 C33 33 33 34 34 34 C33 35 33 35 32 36 C32 36 31 35 31 34 C24 27 15 24 6 21 C6 20 6 20 6 19 C7.0 19 8.0 19 9 19 C8.4 19 7.8 18 7.1 18 C4.3 15 4.2 13 3.6 9.2 C3.2 6.9 3.2 6.9 1.4 5.5 C0 4 0 4 0 0 Z " fill="#32547E" transform="translate(1775,288)"/><path d="M0 0 C2.1 1.7 2.9 2.6 3.4 5.3 C3.4 12 2.2 19 -1 25 C-1.7 25 -2.3 26 -3 26 C-3.7 26 -4.3 25 -5 25 C-5.3 26 -5.7 28 -6 29 C-7.3 29 -8.6 30 -10 30 C-9.2 25 -7.6 20 -6.1 16 C-5.8 15 -5.5 14 -5.3 13 C-1.7 1.7 -1.7 1.7 0 0 Z " fill="#2B5A94" transform="translate(1870,329)"/><path d="M0 0 C7.2 3.3 11 9.1 15 16 C16 18 16 18 18 20 C16 14 13 9.1 9 4 C9.3 3.3 9.7 2.7 10 2 C18 10 23 20 23 31 C22 31 22 31 21 31 C21 32 21 32 21 33 C20 35 20 35 18 37 C17 41 17 44 19 48 C20 49 21 51 22 52 C19 51 17 49 15 46 C15 43 14 40 15 37 C16 36 17 35 18 34 C18 24 12 14 6 7 C5.4 6.3 4.9 5.7 4.3 5.0 C2.9 3.3 1.4 1.6 0 0 Z " fill="#31547E" transform="translate(1786,240)"/><path d="M0 0 C0.7 0.3 1.3 0.7 2 1 C1.0 6.6 -2.8 10 -7 14 C-9.3 15 -9.3 15 -12 15 C-13 15 -15 16 -16 16 C-20 18 -24 19 -28 19 C-27 17 -27 17 -26 15 C-25 15 -23 14 -22 14 C-20 13 -19 12 -17 11 C-16 11 -16 11 -15 10 C-14 9.7 -14 9.4 -13 9 C-13 8.3 -13 7.7 -13 7 C-12 6.7 -12 6.5 -11 6.2 C-5.0 3.8 -5.0 3.8 0 0 Z " fill="#2F5D96" transform="translate(1806,368)"/><path d="M0 0 C2.2 2.1 4.0 4.3 5.8 6.8 C12 15 19 19 29 23 C26 24 26 24 23 24 C23 24 24 25 24 25 C26 27 27 28 28 29 C18 29 9.4 23 2.0 16 C-1.3 13 -6 7.2 -6 2 C-5.3 2 -4.7 2 -4 2 C-3.5 3.2 -2.9 4.4 -2.4 5.6 C1.7 14 7.3 18 15 23 C16 23 16 22 17 22 C17 21 17 21 17 20 C15 19 15 19 13 17 C8.0 13 3.7 8.6 0 3 C0 2.0 0 1.0 0 0 Z " fill="#2E517C" transform="translate(1577,287)"/><path d="M0 0 C4.1 -0.0 8.1 -0.0 12 -0.1 C14 -0.1 15 -0.1 16 -0.1 C18 -0.1 20 -0.1 22 -0.1 C23 -0.1 25 -0.1 26 -0.1 C28 -0.0 31 0.2 33 1 C32 3.0 32 5.0 31 7 C22 6.7 13 6.3 4 6 C4 5.7 4 5.3 4 5 C8.5 4.5 8.5 4.5 13 4 C13 3.3 13 2.7 13 2 C8.7 1.7 4.4 1.3 0 1 C0 0.7 0 0.3 0 0 Z " fill="#224E83" transform="translate(1694,167)"/><path d="M0 0 C1.4 -0.1 2.9 -0.1 4.3 -0.1 C5.1 -0.1 5.9 -0.2 6.7 -0.2 C9 0 9 0 12 2 C15 2.4 15 2.4 17 2.4 C18 2.5 19 2.5 20 2.5 C22 2.6 23 2.6 24 2.6 C25 2.7 26 2.7 27 2.7 C30 2.8 32 2.9 35 3 C35 3.7 35 4.3 35 5 C29 7.2 24 7.5 18 7.8 C17 7.8 16 7.9 16 7.9 C15 8.0 14 8.0 13 8.0 C12 8.1 12 8.1 10 8.2 C6.2 7.9 4.4 6.4 1.8 3.4 C0 1 0 1 0 0 Z " fill="#2E5D95" transform="translate(1599,310)"/><path d="M0 0 C2 1 2 1 2.7 3 C2.8 3.7 2.9 4.3 3 5 C2.7 5.3 2.3 5.7 2 6 C4.0 6.7 6.0 7.3 8 8 C8 9.0 8 10.0 8 11 C3.7 12 -0.5 13 -4.9 14 C-8.1 14 -8.1 14 -10 16 C-11 16 -12 16 -13 16 C-13 14 -14 12 -14 10 C-13 9.9 -12 9.8 -11 9.6 C-7.9 9.2 -7.9 9.2 -5 7 C-4.0 5.0 -3.0 3.0 -2 1 C-1.3 0.7 -0.7 0.3 0 0 Z " fill="#2E5D96" transform="translate(1604,204)"/><path d="M0 0 C1.4 0.5 2.9 0.9 4.3 1.4 C5.1 1.6 5.9 1.9 6.7 2.1 C9 3 9 3 12 5 C12 5.7 12 6.3 12 7 C13 7.2 13 7.5 14 7.8 C16 9.2 18 11 20 13 C21 15 23 17 25 19 C27 21 27 21 27 24 C27 24 27 25 27 26 C25 25 25 25 24 22 C23 23 22 24 21 25 C21 24 20 23 20 22 C18 19 16 17 14 15 C14 14 13 14 13 13 C12 11 11 9.5 8.6 7.9 C8.0 7.4 7.5 6.9 6.9 6.4 C5.0 4.9 5.0 4.9 2.8 4.0 C1 3 1 3 0 0 Z " fill="#33598C" transform="translate(1794,310)"/><path d="M0 0 C11 3.1 19 11 28 18 C29 19 30 19 30 20 C36 24 40 29 44 34 C45 35 45 35 46 36 C53 44 53 44 53 48 C54 48 54 48 55 48 C55 49 54 51 54 52 C53 51 53 50 52 50 C47 42 42 35 36 29 C35 28 34 27 34 26 C24 16 13 9.0 1.5 2.0 C1.0 1.7 0.5 1.3 0 1 C0 0.7 0 0.3 0 0 Z " fill="#315077" transform="translate(1794,164)"/><path d="M0 0 C0.7 0.3 1.3 0.7 2 1 C-3.0 11 -8.7 19 -15 28 C-16 29 -16 29 -17 30 C-18 32 -19 33 -20 35 C-23 40 -26 45 -29 50 C-30 46 -30 46 -29 44 C-29 43 -28 43 -28 42 C-27 42 -27 42 -26 42 C-26 41 -26 41 -26 40 C-25 38 -24 36 -22 34 C-21 32 -20 30 -19 27 C-18 26 -16 24 -15 23 C-14 22 -14 21 -13 20 C-13 20 -12 19 -12 18 C-11 18 -11 18 -10 18 C-10 17 -10 17 -10 16 C-9.3 16 -8.7 16 -8 16 C-7.9 15 -7.8 15 -7.8 14 C-6.8 10 -5.1 8.0 -3 5 C-2.7 4.0 -2.3 3.0 -2 2 C-1.3 2 -0.7 2 0 2 C0 1.3 0 0.7 0 0 Z " fill="#E4EFF5" transform="translate(1524,331)"/><path d="M0 0 C1.0 1.3 2.0 2.6 3 4 C2.6 4.5 2.2 4.9 1.7 5.4 C1.2 6.0 0.6 6.7 0.1 7.3 C-0.5 7.9 -1.0 8.5 -1.6 9.2 C-3.2 11 -3.2 11 -4 14 C-3.3 14 -2.7 14 -2 14 C-1.3 13 -0.7 11 0 10 C0.3 10 0.7 10 1 10 C1.0 12 1.0 14 1.1 15 C1.1 16 1.1 17 1.1 18 C1 21 1 21 0 22 C-0.1 26 -0.2 29 1 32 C0.3 32 -0.3 32 -1 32 C-4.1 24 -5.9 17 -7 9 C-6.2 8.4 -5.4 7.9 -4.6 7.3 C-1.9 4.9 -1.0 3.4 0 0 Z " fill="#EBF2F1" transform="translate(1669,230)"/><path d="M0 0 C0.3 0 0.7 0 1 0 C1.3 5.3 0.8 8.5 -2 13 C-2.7 14 -3.4 14 -4.2 15 C-6.4 17 -6.4 17 -5.7 20 C-5.4 21 -5.1 23 -4.8 24 C-3.0 31 -2.0 36 -5 42 C-9.0 37 -10 32 -10 26 C-9.3 26 -8.7 27 -8 27 C-8.1 26 -8.1 25 -8.2 25 C-8.3 21 -8.4 18 -8 15 C-5.6 13 -5.6 13 -3 11 C-1.1 7.5 -0.5 3.9 0 0 Z " fill="#2E527E" transform="translate(1669,223)"/><path d="M0 0 C1.0 0.3 2.0 0.7 3 1 C3.3 3.2 3.3 3.2 3 6 C1.4 7.7 -0.3 9.4 -2 11 C-2.9 13 -2.9 13 -3 15 C-3.7 15 -4.3 15 -5 15 C-5.7 14 -6.3 13 -7 12 C-7.7 12 -8.3 12 -9 12 C-9.2 13 -9.4 14 -9.6 15 C-11 19 -13 20 -17 22 C-18 22 -18 22 -19 22 C-19 21 -19 21 -19 20 C-18 20 -17 20 -17 20 C-16 20 -15 19 -14 19 C-13 17 -13 16 -12 14 C-11 12 -9.5 11 -8.1 8.9 C-7.4 8.1 -6.8 7.3 -6.1 6.4 C-4.1 4.2 -2.1 2.1 0 0 Z " fill="#2B517E" transform="translate(1611,193)"/><path d="M0 0 C2.0 2.8 2.0 4.1 1.7 7.6 C1.4 8.9 1.2 10 0.9 12 C0.7 13 0.7 13 0.4 14 C-0.5 19 -1.9 23 -4.0 27 C-5.2 29 -5.7 32 -6.4 34 C-7.9 40 -11 45 -14 50 C-14 51 -15 51 -15 52 C-16 52 -16 52 -17 52 C-16 48 -14 44 -12 39 C-5.8 27 -1.8 14 0 0 Z " fill="#DFECF4" transform="translate(1877,321)"/><path d="M0 0 C0.5 0.4 1.0 0.8 1.5 1.1 C6.2 4.7 11 8.0 16 11 C15 12 15 14 14 15 C8.0 15 4.3 12 0 8 C-0.3 7.3 -0.7 6.7 -1 6 C0.3 5.7 1.6 5.3 3 5 C2.3 4.3 2.3 4.3 1.5 3.6 C0 2 0 2 0 0 Z " fill="#294E80" transform="translate(1584,253)"/><path d="M0 0 C0.3 1.0 0.7 2.0 1 3 C3.3 3.3 5.6 3.7 8 4 C8 4.3 8 4.7 8 5 C-11 5.2 -11 5.2 -21 4 C-21 3.0 -21 2.0 -21 1 C-18 -0.5 -15 -0.4 -12 -0.6 C-11 -0.7 -10 -0.7 -9.6 -0.8 C-2.8 -1.2 -2.8 -1.2 0 0 Z " fill="#356095" transform="translate(1707,169)"/><path d="M0 0 C21 0.6 21 0.6 28 6.6 C29 8.2 29 8.2 31 11 C29 12 27 14 25 15 C24 15 23 16 23 16 C18 19 18 19 16 20 C15 19 15 19 14 18 C15 18 17 17 18 17 C18 16 18 16 18 15 C21 14 23 12 26 11 C26 10 26 9.0 26 8 C18 4.8 8.9 3.4 0 2 C0 1.3 0 0.7 0 0 Z " fill="#E0EDF4" transform="translate(1715,174)"/><path d="M0 0 C17 -1.4 17 -1.4 21 1.9 C23 4.4 23 4.4 24 6.8 C25 9.2 25 9.2 27 10 C32 12 36 12 40 9.7 C42 8.0 42 8.0 44 5 C46 5.3 49 5.7 51 6 C50 6.2 50 6.5 49 6.8 C46 8.5 43 10 40 13 C28 14 28 14 23 11 C20 8.1 19 6.5 18 3 C15 1.4 11 1.6 7.9 1.4 C7.1 1.4 6.4 1.4 5.6 1.3 C3.7 1.2 1.9 1.1 0 1 C0 0.7 0 0.3 0 0 Z " fill="#E2F0F7" transform="translate(1735,304)"/><path d="M0 0 C2.6 1.5 2.6 1.5 4 3 C3.7 3.7 3.3 4.3 3 5 C2.0 4.3 1.0 3.7 0 3 C-4.0 2.6 -4.0 2.6 -8 3 C-10 4.9 -10 4.9 -12 7 C-13 7 -13 7 -14 7 C-14 8.6 -13 10 -13 12 C-13 13 -13 14 -13 15 C-12 17 -12 17 -10 19 C-8.0 20 -8.0 20 -5.9 20 C-4.0 21 -4.0 21 -2 21 C-2 21 -2 22 -2 22 C-8.0 23 -8.0 23 -11 21 C-15 18 -16 16 -16 11 C-16 7.9 -16 6.2 -14 3.6 C-9.4 -0.6 -5.8 -0.6 0 0 Z " fill="#2F517A" transform="translate(1695,305)"/><path d="M0 0 C0.7 0 1.3 0 2 0 C10 12 14 22 15 37 C15 40 15 40 16 42 C16 48 16 48 13 51 C13 51 12 52 12 52 C12 51 12 50 13 49 C13 45 13 45 12 42 C12 40 12 38 12 36 C13 24 8.9 16 2.5 5.6 C1 3 1 3 0 0 Z " fill="#2C4F7B" transform="translate(1813,219)"/><path d="M0 0 C2 2 2 2 2.2 4.2 C2.2 5.0 2.2 5.9 2.2 6.8 C2.2 7.8 2.2 8.8 2.2 9.8 C2.2 11 2.2 12 2.2 13 C2.2 14 2.2 15 2.2 16 C2.2 20 2.0 25 1 29 C-1 26 -1 26 -1 24 C-2.0 24 -3.0 23 -4 23 C-4 18 -4 12 -4 7 C-3.7 7 -3.3 7 -3 7 C-3 11 -3 16 -3 20 C-2.3 20 -1.7 20 -1 20 C-0.7 13 -0.3 6.8 0 0 Z " fill="#426187" transform="translate(1781,245)"/><path d="M0 0 C0.7 0.3 1.3 0.7 2 1 C0.6 3 0.6 3 -1 5 C-1.7 5 -2.3 5 -3 5 C-3.3 5.6 -3.5 6.2 -3.8 6.8 C-5.0 9.0 -6.3 11 -8 13 C-8.5 13 -9.0 14 -9.6 15 C-11 16 -11 16 -13 16 C-13 21 -12 27 -12 32 C-16 27 -16 22 -15 16 C-12 9.6 -5.9 3.9 0 0 Z " fill="#E5EFF4" transform="translate(1596,219)"/><path d="M0 0 C0.7 0.3 1.3 0.7 2 1 C0.7 2.0 -0.6 3.0 -2 4 C-1.3 2.7 -0.7 1.4 0 0 Z M-3 4 C-3 7.1 -3.5 8.4 -4.8 11 C-5.3 12 -5.3 12 -5.8 13 C-7 15 -7 15 -10 16 C-9.8 17 -9.6 17 -9.3 18 C-9.2 19 -9.1 19 -9 20 C-10 21 -12 23 -13 24 C-16 28 -18 32 -19 36 C-20 36 -20 35 -21 35 C-18 24 -11 12 -3 4 Z " fill="#E3EEF4" transform="translate(1573,194)"/><path d="M0 0 C-0.3 1.3 -0.7 2.6 -1 4 C-4.4 4.1 -4.4 4.1 -8 4 C-8.7 3.3 -9.3 2.7 -10 2 C-13 1.5 -13 1.5 -16 1.4 C-17 1.3 -18 1.2 -19 1.1 C-19 1.1 -20 1.1 -21 1 C-19 -2 -19 -2 -17 -2.5 C-11 -3.1 -5.6 -3.2 0 0 Z " fill="#2D5689" transform="translate(1753,263)"/><path d="M0 0 C0.7 0.7 1.3 1.3 2 2 C1.5 4.7 0.9 7.2 0.2 9.8 C-0.2 11 -0.6 13 -1.0 14 C-1.1 15 -1.3 15 -1.5 16 C-2.7 21 -3.1 25 -3.1 30 C-3.1 31 -3.1 33 -3.1 34 C-3.1 35 -3.1 36 -3.1 37 C-3.1 39 -3.1 40 -3.0 41 C-3.0 44 -3.0 47 -3 50 C-4.0 50 -4.0 50 -5 51 C-5.8 14 -5.8 14 -1 1 C-0.7 0.7 -0.3 0.3 0 0 Z " fill="#E8F5F9" transform="translate(1808,441)"/><path d="M0 0 C3.0 3.7 3.0 3.7 2.8 6.4 C2.5 7.2 2.3 8.1 2 9 C1.7 10 1.3 11 1 12 C0 15 0 15 -1 16 C-1.2 18 -1.4 19 -1.6 21 C-1.7 22 -1.7 22 -1.8 24 C-1.9 25 -1.9 25 -2 26 C-2.3 26 -2.7 26 -3 26 C-3 22 -3 17 -3 13 C-5.0 14 -5.0 14 -7 15 C-5.6 11 -4.1 8.1 -2.4 4.7 C-1.7 3.4 -1.7 3.4 -1.0 2.0 C-0.7 1.3 -0.3 0.7 0 0 Z " fill="#375E8D" transform="translate(1824,259)"/><path d="M0 0 C2.7 4.0 2.3 8.0 2.2 13 C2.2 13 2.2 14 2.2 15 C2.1 21 2.1 21 1 23 C0.3 23 -0.3 23 -1 23 C-1.7 16 -2.3 8.5 -3 1 C-2.0 0.7 -1.0 0.3 0 0 Z " fill="#366093" transform="translate(1779,242)"/><path d="M0 0 C1.4 5.0 1.5 10 1.8 15 C1.8 16 1.9 17 2.0 18 C2.4 27 0.8 33 -3 40 C-3.1 34 -3.1 34 -2.5 31 C-1.9 28 -1.8 25 -1.7 22 C-1.7 20 -1.6 19 -1.6 18 C-1.5 15 -1.5 13 -1.4 10 C-1.4 9.2 -1.3 8.1 -1.3 6.8 C-1.3 5.7 -1.2 4.6 -1.2 3.5 C-1 1 -1 1 0 0 Z " fill="#F3FAFD" transform="translate(1784,241)"/><path d="M0 0 C0.7 0.7 1.3 1.3 2 2 C1.3 2.7 0.6 3.4 -0.1 4.1 C-1.0 5.0 -1.9 5.9 -2.9 6.8 C-3.8 7.7 -4.7 8.6 -5.6 9.5 C-8.1 12 -8.1 12 -10 15 C-11 15 -11 15 -12 15 C-12 16 -12 16 -13 17 C-13 18 -13 19 -13 19 C-14 20 -14 21 -14 22 C-14 23 -15 23 -15 24 C-16 24 -17 25 -18 25 C-15 14 -8.6 6.8 0 0 Z " fill="#EAF3F7" transform="translate(1736,198)"/><path d="M0 0 C0.7 0.1 1.4 0.3 2.2 0.4 C3.6 0.7 3.6 0.7 5 1 C5.7 1.2 6.5 1.3 7.2 1.5 C10 2.1 14 2.1 17 2.1 C18 2.1 19 2.1 21 2.1 C22 2.1 23 2.1 25 2.1 C26 2.1 28 2.1 29 2.0 C32 2.0 36 2.0 39 2 C31 7.2 16 6.1 6.9 4.4 C4.4 3.6 4.4 3.6 1 2 C0.7 1.3 0.3 0.7 0 0 Z " fill="#33567E" transform="translate(1549,521)"/><path d="M0 0 C0.3 0 0.7 0 1 0 C1.7 4.3 2.3 8.6 3 13 C4.0 11 5.0 9.0 6 7 C6.3 7 6.7 7 7 7 C7 12 7 18 7 23 C4 23 4 23 1 22 C0.7 15 0.3 7.5 0 0 Z " fill="#436A99" transform="translate(1841,280)"/><path d="M0 0 C3.2 1.0 6.3 2.1 9.5 3.3 C20 6.8 29 7.9 40 8 C32 12 21 9.7 12 8 C7.6 6.5 3.9 4.6 0 2 C0 1.3 0 0.7 0 0 Z " fill="#EFF8FB" transform="translate(1589,311)"/><path d="M0 0 C1.0 0 2.0 0 3 0 C4.0 9.5 1.2 20 -3 28 C-5.0 28 -7.0 28 -9 28 C-9 27 -9 27 -9 26 C-8.2 26 -7.4 26 -6.6 25 C-3.8 24 -3.8 24 -2.6 21 C-0.5 14 0.5 7.6 0 0 Z " fill="#EEF7FA" transform="translate(1774,260)"/><path d="M0 0 C1.0 0.3 2.0 0.7 3 1 C2.6 1.4 2.1 1.8 1.6 2.2 C-3.8 7.4 -9.3 13 -10 21 C-12 20 -12 20 -13 18 C-13 13 -11 11 -7.6 7.3 C-6.8 6.4 -6.0 5.4 -5.2 4.4 C-3 2 -3 2 0 0 Z " fill="#E8F0F5" transform="translate(1631,244)"/><path d="M0 0 C12 5.2 21 20 28 31 C28 32 27 32 27 33 C27 33 26 32 26 32 C15 17 15 17 2.2 3.9 C1.5 3.2 0.8 2.6 0 2 C0 1.3 0 0.7 0 0 Z " fill="#2E4C73" transform="translate(1827,178)"/><path d="M0 0 C3.3 1.6 3.5 4.8 4.7 8.1 C5.0 9.1 5.3 10 5.6 11 C5.9 12 6.3 13 6.6 14 C8.6 20 9.3 25 9 31 C7.7 31 6.4 32 5 32 C3.7 30 2.4 29 1 27 C4 27 4 27 5.7 28 C6.1 29 6.6 29 7 30 C6.5 23 5.2 18 2.9 12 C2.4 10 1.8 8.5 1.3 6.9 C1.0 6.2 0.8 5.6 0.5 4.9 C0 3 0 3 0 0 Z " fill="#36577D" transform="translate(1821,526)"/><path d="M0 0 C0 1.0 0 2.0 0 3 C-0.7 3 -1.3 3 -2 3 C-2.3 4.0 -2.7 5.0 -3 6 C-1.9 5.5 -1.9 5.5 -0.8 5.1 C1.8 4.1 4.3 3.5 7 3 C4.2 5.2 1.2 7.2 -1.8 9.2 C-2.5 9.7 -3.3 10 -4.2 11 C-4.8 11 -5.4 12 -6 12 C-6.7 12 -7.3 11 -8 11 C-7.7 10 -7.3 9.7 -7 9 C-9.0 9.7 -11 10 -13 11 C-9.2 6.0 -5.7 2.8 0 0 Z " fill="#2F527F" transform="translate(1679,205)"/><path d="M0 0 C11 2.0 11 2.0 15 6 C15 11 15 14 13 19 C12 22 11 26 11 29 C11 29 10 29 10 29 C9.8 23 10 18 12 12 C13 8.8 13 8.8 11 6 C8.5 4.7 6.0 3.7 3.2 2.9 C1 2 1 2 0 0 Z " fill="#E9F5FA" transform="translate(1507,406)"/><path d="M0 0 C1.4 0.5 2.9 0.9 4.3 1.4 C5.1 1.6 5.9 1.9 6.7 2.1 C9 3 9 3 12 5 C12 5.7 12 6.3 12 7 C13 7.2 13 7.5 14 7.8 C16 9.2 17 11 19 13 C14 13 14 12 10 9.1 C6.6 6.2 6.6 6.2 2.8 3.9 C1 3 1 3 0 0 Z " fill="#2F5C96" transform="translate(1794,310)"/><path d="M0 0 C0.3 0 0.7 0 1 0 C1.3 2.6 1.7 5.3 2 8 C2.3 7.0 2.7 6.0 3 5 C3.7 5 4.3 5 5 5 C5.7 7.3 6.3 9.6 7 12 C5 14 5 14 2.5 16 C-0.2 18 -0.2 18 -2 21 C-3 18 -3 18 -2.1 16 C-0.5 10 -0.3 5.3 0 0 Z " fill="#F1F2EA" transform="translate(1538,313)"/><path d="M0 0 C1.0 0.3 2.0 0.7 3 1 C1.0 3.6 -1.0 6.0 -3.4 8.2 C-6.2 11 -8.4 14 -11 18 C-12 20 -13 22 -15 24 C-15 23 -16 23 -16 22 C-15 20 -14 19 -13 17 C-12 15 -12 15 -12 12 C-11 8.8 -7.9 7.4 -4.8 5.3 C-2.9 4.1 -2.9 4.1 -2 2 C-1.3 2 -0.7 2 0 2 C0 1.3 0 0.7 0 0 Z " fill="#E2EDF2" transform="translate(1650,285)"/><path d="M0 0 C22 22 22 22 24 32 C21 29 19 27 17 24 C13 18 9.1 13 4.9 8.4 C0 2.3 0 2.3 0 0 Z " fill="#30517A" transform="translate(1704,358)"/><path d="M0 0 C-7.6 5.3 -14 7.2 -23 7 C-20 4.0 -17 3.2 -13 1.8 C-12 1.5 -11 1.2 -10 0.9 C-9.6 0.7 -8.8 0.4 -8.0 0.1 C-7.4 -0.1 -6.7 -0.3 -6.0 -0.6 C-3.7 -1.1 -2.2 -0.7 0 0 Z " fill="#D7E7EF" transform="translate(1646,152)"/><path d="M0 0 C1.3 2.5 0.9 3.9 0.6 6.6 C0.4 7.9 0.4 7.9 0.3 9.1 C0.2 9.7 0.1 10 0 11 C0.7 11 1.3 11 2 11 C2.5 12 2.9 13 3.4 13 C4.8 16 4.8 16 8 17 C8 18 8 18 8 19 C8.7 19 9.3 19 10 19 C12 22 11 25 11 29 C11 29 10 29 10 29 C9.9 28 9.7 27 9.6 26 C8.2 21 4.6 18 1.0 15 C-1.2 13 -1.9 12 -2.2 8.9 C-2.2 8.1 -2.2 7.3 -2.2 6.5 C-2.2 5.7 -2.2 4.9 -2.2 4.1 C-2 2 -2 2 0 0 Z " fill="#2A4E79" transform="translate(1525,448)"/><path d="M0 0 C1.0 0.3 2.0 0.7 3 1 C3.3 3.3 3.7 5.6 4 8 C4.7 8 5.3 8 6 8 C6.8 11 7.6 13 8.4 16 C8.7 16 8.9 17 9.1 18 C9.4 19 9.6 19 9.8 20 C10 21 10 21 10 22 C11 23 11 23 11 24 C11 25 11 25 12 26 C12 28 12 28 11 30 C10 31 9.5 31 9 32 C7.7 32 6.4 31 5 31 C6.3 30 7.6 30 9 29 C8.5 23 6.4 17 3.9 12 C3.2 9.9 2.5 8.1 1.7 6.3 C1.2 5.1 1.2 5.1 0.7 4.0 C0 2 0 2 0 0 Z " fill="#E9F2F8" transform="translate(1732,395)"/><path d="M0 0 C0.3 0 0.7 0 1 0 C2.0 12 -3.6 24 -9 35 C-9.7 35 -10 35 -11 35 C-9.9 32 -8.8 28 -7.6 25 C-4.6 17 -1.9 8.6 0 0 Z " fill="#385981" transform="translate(1867,327)"/><path d="M0 0 C7.5 9.0 7.5 9.0 7 16 C7.9 16 8.9 16 9.9 16 C13 17 13 17 15 19 C14 19 12 19 11 19 C11 20 11 20 11 21 C12 21 14 22 15 22 C12 23 11 23 8.2 22 C7.1 22 7.1 22 6 21 C6 20 6 20 6 19 C7.0 19 8.0 19 9 19 C8.4 19 7.8 18 7.1 18 C4.3 15 4.2 13 3.6 9.2 C3.2 6.9 3.2 6.9 1.4 5.5 C0 4 0 4 0 0 Z " fill="#2D5079" transform="translate(1775,288)"/><path d="M0 0 C4.1 -0.0 8.1 -0.0 12 -0.1 C14 -0.1 15 -0.1 16 -0.1 C18 -0.1 20 -0.1 22 -0.1 C23 -0.1 25 -0.1 26 -0.1 C28 -0.0 31 0.2 33 1 C32 2.3 32 3.6 31 5 C30 4.7 30 4.3 29 4 C29 3.3 29 2.7 29 2 C28 2.0 26 2.0 25 2.0 C17 2.1 8.4 2.1 0 1 C0 0.7 0 0.3 0 0 Z " fill="#254975" transform="translate(1694,167)"/><path d="M0 0 C0.3 0.7 0.7 1.3 1 2 C-1.3 2 -3.6 2 -6 2 C-6.3 2.6 -6.5 3.2 -6.8 3.8 C-8 6 -8 6 -9.6 7.4 C-12 9.7 -12 12 -12 15 C-11 15 -11 15 -10 15 C-9.9 16 -9.8 16 -9.7 17 C-8.9 19 -7.9 20 -6 22 C-9.7 21 -11 20 -13 17 C-14 12 -14 8.2 -11 4 C-7.5 0.6 -5.1 -0.3 0 0 Z " fill="#30527D" transform="translate(1779,219)"/><path d="M0 0 C0.7 0 1.3 0 2 0 C3.4 2.1 3.4 2.1 5.1 4.9 C8.1 9.8 11 14 15 19 C18 22 20 26 23 30 C23 31 22 31 22 32 C16 24 10 16 4.2 8.1 C3.6 7.2 3.6 7.2 2.9 6.3 C0 2.2 0 2.2 0 0 Z " fill="#2F517C" transform="translate(1699,359)"/><path d="M0 0 C0 0.7 0 1.3 0 2 C-1.5 3.0 -1.5 3.0 -3.6 4.1 C-8.6 7.0 -12 11 -15 16 C-15 17 -15 17 -15 18 C-16 18 -17 18 -18 18 C-19 16 -19 16 -19 14 C-16 9.0 -6.1 0 0 0 Z " fill="#E2ECF1" transform="translate(1627,192)"/><path d="M0 0 C0.7 0.3 1.3 0.7 2 1 C1.5 1.8 1.1 2.6 0.6 3.5 C-1.3 7.0 -1.3 7.0 -0.9 11 C-1.1 13 -1.1 13 -2 15 C-5.8 18 -9.8 20 -14 22 C-14 21 -14 19 -14 18 C-12 18 -11 17 -9 17 C-9 16 -9 16 -9 15 C-8.4 15 -7.7 15 -7.1 14 C-4.8 13 -4.8 13 -4.3 11 C-4.2 9.8 -4.1 9.0 -3.9 8.1 C-3.4 4.3 -3.0 2.4 0 0 Z " fill="#E7F1F8" transform="translate(1644,216)"/><path d="M0 0 C1.0 0.3 2.0 0.7 3 1 C2.5 1.7 2.0 2.4 1.4 3.1 C-2.9 8.9 -6.7 15 -10 21 C-11 17 -10 14 -9 10 C-7.1 7.8 -7.1 7.8 -5 6 C-2.1 3.3 -2.1 3.3 0 0 Z " fill="#E2ECF0" transform="translate(1560,193)"/><path d="M0 0 C2.9 1.3 4.8 2.6 6.9 5.1 C7.4 5.7 7.9 6.3 8.5 6.9 C9.3 7.9 9.3 7.9 10 8.8 C11 9.4 11 10 12 11 C19 19 19 19 19 23 C20 23 20 23 21 23 C21 24 20 26 20 27 C19 26 19 25 18 25 C14 18 9.4 12 3.8 6.1 C2.1 4.1 1.0 2.4 0 0 Z " fill="#3A5981" transform="translate(1828,189)"/><path d="M0 0 C1 2 1 2 0.3 4.4 C-1 7 -1 7 -2.9 8.8 C-7.0 13 -9.2 19 -10 25 C-11 25 -11 24 -12 24 C-12 18 -9.4 14 -6 8.6 C-5.5 7.9 -5.1 7.2 -4.6 6.4 C-1.2 1.2 -1.2 1.2 0 0 Z " fill="#DAE6EF" transform="translate(1513,367)"/><path d="M0 0 C0.3 0 0.7 0 1 0 C1.1 1.0 1.1 2.1 1.2 3.1 C1.6 11 2.1 18 3 26 C2.7 25 2.3 25 2 24 C1.3 24 0.7 24 0 24 C-3.0 16 -2.2 7.8 0 0 Z " fill="#234975" transform="translate(1533,281)"/><path d="M0 0 C0.7 0.3 1.3 0.7 2 1 C1.8 1.6 1.6 2.1 1.4 2.7 C-1.7 12 -1.7 12 -3.4 21 C-3.6 23 -3.8 24 -4 25 C-5.0 26 -6.0 26 -7 27 C-6.5 20 -5.2 15 -2.9 8.4 C-2.7 7.6 -2.4 6.8 -2.1 6.0 C-1.4 4.0 -0.7 2.0 0 0 Z " fill="#395A82" transform="translate(1536,243)"/><path d="M0 0 C0.7 0.3 1.3 0.7 2 1 C1.5 1.4 1.0 1.8 0.5 2.2 C-0.1 2.7 -0.7 3.3 -1.4 3.8 C-2.0 4.3 -2.6 4.9 -3.3 5.4 C-5.2 7.1 -5.2 7.1 -7 10 C-7.7 10 -8.3 10 -9 10 C-9.1 11 -9.2 11 -9.2 12 C-10 16 -12 17 -14 19 C-14 20 -15 21 -15 22 C-16 22 -16 22 -17 22 C-15 12 -7.4 6.2 0 0 Z " fill="#E4F0F7" transform="translate(1660,290)"/><path d="M0 0 C0.8 2.9 1.2 5.6 1.2 8.6 C1.3 9.3 1.3 10 1.3 11 C1 13 1 13 -0.3 15 C-2 16 -2 16 -5 16 C-3.9 10 -2.5 5.3 0 0 Z " fill="#3C6290" transform="translate(1715,212)"/><path d="M0 0 C1.0 -0.0 2.1 -0.0 3.2 -0.0 C13 -0.1 13 -0.1 18 2.2 C18 2.8 18 3.5 19 4.2 C18 4.0 17 3.9 16 3.8 C14 3.6 13 3.4 11 3.2 C10 3.1 9.8 3.0 9.0 2.9 C4.0 2.3 -0.8 1.6 -5.8 2.8 C-8.6 3.3 -9.8 2.7 -12 1.2 C-9.7 -1.3 -3.3 0.0 0 0 Z " fill="#F3FAFB" transform="translate(1767.1875,340.8125)"/><path d="M0 0 C0.7 1.3 1.3 2.6 2 4 C3.0 4 4.0 4 5 4 C6.6 5.5 6.6 5.5 8.2 7.5 C9.0 8.5 9.0 8.5 9.8 9.5 C10 10.0 11 10 11 11 C11 12 10 12 10 13 C9.3 13 8.7 13 8 13 C6.4 10 6.4 10 5 8 C3.4 9.7 1.7 11 0 13 C0 8.7 0 4.4 0 0 Z " fill="#25538D" transform="translate(1827,247)"/><path d="M0 0 C0.7 1.8 0.7 1.8 1 4 C-0.0 5.7 -0.0 5.7 -1.6 7.3 C-2.1 7.9 -2.7 8.5 -3.2 9.1 C-3.8 9.7 -4.4 10 -5 11 C-6.1 12 -7.3 14 -8.4 15 C-9.2 16 -10 17 -11 18 C-12 18 -12 17 -13 17 C-12 15 -10 13 -8.8 11 C-8.4 10 -8.0 9.6 -7.6 9.0 C-5.3 5.7 -3.0 2.8 0 0 Z " fill="#2B517D" transform="translate(1568,187)"/><path d="M0 0 C1.1 0.6 2.2 1.1 3.4 1.7 C11 5.5 18 8.9 27 10 C24 12 24 12 21 12 C15 10 8.2 7.3 2 4 C2 3.3 2 2.7 2 2 C1.3 2 0.7 2 0 2 C0 1.3 0 0.7 0 0 Z " fill="#E5F0F8" transform="translate(1648,349)"/><path d="M0 0 C0.7 0.0 1.4 0.0 2.1 0.0 C3.7 0.1 5.4 0.1 7.1 0.1 C7.4 0.8 7.7 1.4 8.1 2.1 C5.2 2.5 2.3 2.8 -0.6 3.1 C-1.4 3.2 -2.2 3.3 -3.0 3.4 C-7.3 3.9 -12 4.2 -16 4.1 C-15 2.1 -15 2.1 -12 1.0 C-7.9 -0.0 -4.1 -0.1 0 0 Z " fill="#D8E7F1" transform="translate(1737.9375,265.875)"/><path d="M0 0 C2.5 0.2 2.5 0.2 4.5 2.2 C4.1 3.1 3.8 4.1 3.5 5.2 C2.8 4.5 2.2 3.8 1.5 3.2 C-0.7 2.9 -0.7 2.9 -3.2 3.0 C-4.1 3.0 -5.0 3.1 -6.0 3.1 C-7.9 3.1 -9.9 3.2 -12 3.2 C-13 3.2 -14 3.3 -15 3.3 C-15 3.3 -16 3.3 -17 3.4 C-20 3.1 -21 2.4 -24 1.2 C-20 1.0 -17 0.8 -14 0.7 C-13 0.6 -12 0.6 -11 0.5 C-7.4 0.3 -3.7 0.2 0 0 Z " fill="#F2FBFC" transform="translate(1695.5234375,358.84375)"/><path d="M0 0 C0 0.3 0 0.7 0 1 C-1.1 1.2 -2.2 1.5 -3.3 1.7 C-12 3.7 -21 5.9 -29 9 C-29 8.0 -29 7.0 -29 6 C-10 -0.5 -10 -0.5 0 0 Z " fill="#E5F1F8" transform="translate(1752,333)"/><path d="M0 0 C0.3 0 0.7 0 1 0 C1.1 0.6 1.1 1.2 1.2 1.8 C1.4 4.5 1.6 7.2 1.9 9.9 C2.0 11 2.0 12 2.1 13 C2.7 19 3.6 25 5 31 C4.3 31 3.7 32 3 32 C0.0 25 -0.4 19 -0.2 11 C-0.2 9.9 -0.2 8.8 -0.1 7.7 C-0.1 5.2 -0.1 2.6 0 0 Z " fill="#EDF6F9" transform="translate(1574,254)"/><path d="M0 0 C0.6 0.2 1.1 0.5 1.7 0.7 C-6.0 7.2 -14 6.2 -23 5.7 C-20 2.3 -15 3.3 -11 3.1 C-6.7 2.6 -3.9 -0.5 0 0 Z " fill="#EEF8FA" transform="translate(1706.3125,267.3125)"/><path d="M0 0 C0.7 0.7 1.3 1.3 2 2 C-1.0 11 -3.9 19 -7 28 C-7.7 28 -8.3 27 -9 27 C-6.3 18 -3.3 8.9 0 0 Z " fill="#E9F3F9" transform="translate(1537,235)"/><path d="M0 0 C0.3 1.0 0.7 2.0 1 3 C-0.1 5.1 -0.1 5.1 -1.7 7.4 C-5.2 13 -7.2 19 -9 25 C-9.3 25 -9.7 25 -10 25 C-9.6 17 -7.6 7.9 -1.8 1.6 C-1.2 1.1 -0.6 0.6 0 0 Z " fill="#ECF6FA" transform="translate(1719,203)"/><path d="M0 0 C2.9 4.4 4.1 8.9 5 14 C4.0 14 4.0 14 3 15 C2.0 14 1.0 13 0 12 C-0.6 11 -1.2 11 -1.9 10 C-3 8 -3 8 -2.5 6.0 C-1.8 3.9 -0.9 2.0 0 0 Z " fill="#375F90" transform="translate(1666,257)"/><path d="M0 0 C0.3 0 0.7 0 1 0 C1.8 9.0 1.8 9.0 -1.4 13 C-2.2 14 -3.1 14 -4 15 C-4.7 16 -5.3 16 -6 17 C-6.7 18 -7.3 18 -8 19 C-8.3 17 -8.7 15 -9 13 C-7.9 12 -6.8 11 -5.6 10 C-5.0 10 -4.4 9.6 -3.7 9.1 C-2 8 -2 8 0 8 C0 5.4 0 2.7 0 0 Z " fill="#3B5F8A" transform="translate(1642,223)"/><path d="M0 0 C1.0 0 2.0 0 3 0 C3 0.7 3 1.3 3 2 C3.6 2.1 4.1 2.2 4.7 2.3 C7.5 3.1 9.6 4.3 12 6 C12 7.0 13 8.0 13 9 C14 9.7 16 10 17 11 C18 12 20 14 21 15 C17 15 16 14 13 11 C10 8.7 7.0 6.3 3.4 4.1 C2.3 3.4 1.1 2.7 0 2 C0 1.3 0 0.7 0 0 Z " fill="#DDE9F1" transform="translate(1807,161)"/><path d="M0 0 C0.7 0 1.3 0 2 0 C2 1.0 2 2.0 2 3 C3.0 3.3 4.0 3.7 5 4 C5 5.0 5 6.0 5 7 C5.9 7.5 5.9 7.5 6.9 7.9 C8.2 8.6 9.6 9.3 11 10 C11 11 11 11 11 12 C13 12 16 13 18 13 C16 14 16 14 14 15 C8.3 13 3.2 8.0 0 3 C0 2.0 0 1.0 0 0 Z " fill="#EBF5F8" transform="translate(1540,501)"/><path d="M0 0 C1.6 1.1 1.6 1.1 3 3 C2.9 5.7 2.9 5.7 2.2 8.7 C2.0 9.7 1.8 11 1.5 12 C1.4 12 1.2 13 1 14 C-0.3 14 -1.6 13 -3 13 C-3 9.4 -3 5.7 -3 2 C-2.0 3.5 -2.0 3.5 -1 5 C-0.7 3.4 -0.3 1.7 0 0 Z " fill="#426187" transform="translate(1712,229)"/><path d="M0 0 C3.8 5.8 4.2 11 4 18 C1.3 17 1.0 15 -0.2 13 C-0.6 12 -0.9 11 -1.3 10 C-2 8 -2 8 -1 5 C-0.7 3.3 -0.3 1.7 0 0 Z " fill="#34629B" transform="translate(1729,391)"/><path d="M0 0 C-1.8 1.0 -3.6 2.0 -5.4 2.9 C-6.4 3.5 -7.4 4.0 -8.4 4.6 C-13 7.1 -16 6.9 -22 6.6 C-22 6.5 -23 6.5 -24 6.4 C-26 6.3 -28 6.1 -30 6 C-30 5.7 -30 5.3 -30 5 C-28 4.9 -28 4.9 -27 4.7 C-19 3.9 -12 3.2 -4.9 -0.3 C-3 -1 -3 -1 0 0 Z " fill="#264B79" transform="translate(1795,377)"/><path d="M0 0 C0.3 0.7 0.7 1.3 1 2 C2.0 1.7 3.0 1.3 4 1 C3.7 3.3 3.3 5.6 3 8 C2.0 8.3 1.0 8.7 0 9 C-1.2 11 -1.2 11 -2 14 C-3 15 -3 15 -6.6 15 C-7.7 15 -8.8 15 -10 15 C-10 15 -10 14 -10 14 C-8.0 14 -6.0 14 -4 14 C-3.5 12 -3.0 11 -2.6 9.2 C-2.2 7.9 -2.2 7.9 -1.8 6.6 C-1.1 4.4 -0.5 2.2 0 0 Z " fill="#3B5F8C" transform="translate(1775,274)"/><path d="M0 0 C3 1 3 1 4 3 C4.0 8.9 2.6 14 0 19 C-1.3 16 -0.7 15 -0.1 12 C0.1 12 0.3 11 0.5 9.9 C0.7 9.3 0.8 8.6 1 8 C0.3 8 -0.3 8 -1 8 C-1.1 2.2 -1.1 2.2 0 0 Z " fill="#2F5381" transform="translate(1777,268)"/><path d="M0 0 C0.7 0.3 1.3 0.7 2 1 C0.6 2.5 0.6 2.5 -1 4 C-1.7 4 -2.3 4 -3 4 C-3.2 4.7 -3.4 5.5 -3.6 6.2 C-4.0 7.7 -4.0 7.7 -4.4 9.2 C-4.6 10 -4.9 11 -5.1 12 C-5.9 15 -6.9 17 -8 20 C-8.7 20 -9.3 20 -10 20 C-9.5 17 -8.9 15 -8.4 12 C-8.2 12 -8.1 11 -7.9 10 C-7.1 6.1 -6.3 3.8 -2.9 1.5 C-1.9 1.0 -1.0 0.5 0 0 Z " fill="#DFEBF4" transform="translate(1828,340)"/><path d="M0 0 C0.7 0.3 1.3 0.7 2 1 C3.4 1.1 4.8 1.1 6.1 1.1 C8.0 1.0 8.0 1.0 10 1 C10 1.7 10 2.3 10 3 C4.6 3.9 1.2 4.2 -4 2 C-5.0 3.0 -6.0 4.0 -7 5 C-7 4.3 -7 3.7 -7 3 C-8.0 3.3 -9.0 3.7 -10 4 C-7.5 -1.4 -5.7 -1.2 0 0 Z " fill="#E3EFF5" transform="translate(1688,211)"/><path d="M0 0 C1.3 3.8 0.5 5.0 -0.9 8.7 C-1.3 9.7 -1.7 11 -2.1 12 C-2.4 12 -2.7 13 -3 14 C-3.7 14 -4.3 13 -5 13 C-5.7 16 -6.3 20 -7 23 C-7.3 23 -7.7 23 -8 23 C-8 19 -8 14 -8 10 C-6.3 9.7 -4.7 9.3 -3 9 C-2.7 7.9 -2.4 6.8 -2.1 5.6 C-1 2 -1 2 0 0 Z " fill="#2C507E" transform="translate(1718,218)"/><path d="M0 0 C0 0.3 0 0.7 0 1 C-11 0.7 -22 0.3 -33 0 C-33 -0.3 -33 -0.7 -33 -1 C-30 -1.2 -27 -1.3 -24 -1.5 C-23 -1.5 -22 -1.6 -21 -1.6 C-6.2 -2.5 -6.2 -2.5 0 0 Z " fill="#C2D2E1" transform="translate(1731,167)"/><path d="M0 0 C0.7 0 1.3 0 2 0 C0.8 7.9 -2.2 14 -7 20 C-7.7 20 -8.3 21 -9 21 C-9 20 -9 19 -9 18 C-8.3 18 -7.7 18 -7 18 C-6.7 16 -6.3 15 -6 13 C-5.3 13 -4.7 13 -4 13 C-3.9 12 -3.8 12 -3.7 11 C-2.8 7.2 -1.4 3.7 0 0 Z " fill="#D9E8F3" transform="translate(1813,345)"/><path d="M0 0 C1 3 1 3 0.8 6.9 C0.8 10.0 1.0 11 2.5 14 C5.9 17 8.6 17 13 18 C11 19 9.6 20 7.1 20 C4.4 19 2.3 18 0 16 C-1.2 13 -1.1 9.7 -1.1 6.3 C-1.1 5.3 -1.1 4.4 -1.1 3.4 C-1 1 -1 1 0 0 Z " fill="#E6F0F8" transform="translate(1679,309)"/><path d="M0 0 C0.3 0.7 0.7 1.3 1 2 C-0.2 4.6 -1.4 7.1 -2.8 9.6 C-5.6 15 -8.0 20 -10 26 C-11 26 -11 25 -12 25 C-9.8 17 -5.9 5.9 0 0 Z " fill="#284B74" transform="translate(1822,418)"/><path d="M0 0 C0.3 0.7 0.7 1.3 1 2 C0.0 4.2 -1.0 6.3 -2.2 8.4 C-5.3 14 -7.9 21 -10 27 C-11 27 -11 26 -12 26 C-10 20 -7.5 14 -4.3 7.9 C-3.9 7.2 -3.5 6.4 -3.1 5.6 C-2.0 3.7 -1.0 1.9 0 0 Z " fill="#214067" transform="translate(1551,211)"/><path d="M0 0 C-1.3 1.0 -2.6 2.0 -4 3 C-3.7 3.7 -3.3 4.3 -3 5 C-7.5 5.5 -7.5 5.5 -12 6 C-11 5.7 -11 5.3 -10 5 C-10 4.3 -10 3.7 -10 3 C-11 2.7 -13 2.3 -14 2 C-9.1 0.0 -5.2 -0.2 0 0 Z " fill="#2A517F" transform="translate(1734,300)"/><path d="M0 0 C2.9 0.4 3.8 0.7 5.6 3.0 C6.1 3.7 6.5 4.3 7 5 C4.9 6.3 2.8 7.6 0.6 8.9 C0.0 9.3 -0.6 9.7 -1.2 10 C-5.8 13 -5.8 13 -8 14 C-8.7 13 -9.3 13 -10 12 C-8.7 12 -7.4 11 -6 11 C-6 10 -6 9.7 -6 9 C-3.4 7.7 -0.7 6.4 2 5 C2 4.0 2 3.0 2 2 C1.3 1.3 0.7 0.7 0 0 Z " fill="#E7F3F8" transform="translate(1739,180)"/><path d="M0 0 C7.3 1.8 14 4.1 21 7 C18 8.1 16 7.9 12 7.1 C11 6.9 11 6.7 9.8 6.5 C8.9 6.2 8.9 6.2 8 6 C8 5.3 8 4.7 8 4 C3.5 3.0 3.5 3.0 -1 2 C-0.7 1.3 -0.3 0.7 0 0 Z " fill="#E4F0F6" transform="translate(1760,151)"/><path d="M0 0 C-4.0 4.0 -10 4.8 -16 5.2 C-18 5.2 -21 5.1 -23 5 C-23 4.7 -23 4.3 -23 4 C-20 4 -18 4 -15 4 C-15 3.3 -15 2.7 -15 2 C-9.8 0.5 -5.4 -0.2 0 0 Z " fill="#CFDCE8" transform="translate(1790,377)"/><path d="M0 0 C2 3 2 3 1.6 5.4 C-0.9 12 -3.9 17 -9 22 C-9 18 -8.1 17 -6.2 14 C-3.3 9.7 -1.4 5.2 0 0 Z " fill="#DBE8F1" transform="translate(1847,312)"/><path d="M0 0 C0 0.7 0 1.3 0 2 C-0.7 2 -1.3 2 -2 2 C-2.3 2.6 -2.5 3.3 -2.8 3.9 C-4 6 -4 6 -7 7 C-7.3 8.0 -7.7 9.0 -8 10 C-13 10 -19 10 -24 10 C-24 9.7 -24 9.3 -24 9 C-22 9.0 -22 9.0 -21 9.0 C-19 9.0 -18 8.9 -17 8.9 C-16 8.9 -16 8.9 -15 8.9 C-12 8.9 -12 8.9 -9 8 C-6.6 5.2 -6.6 5.2 -5 2 C-2 0 -2 0 0 0 Z " fill="#4E6E94" transform="translate(1764,289)"/><path d="M0 0 C1.0 1.3 2.0 2.6 3 4 C2.0 5.2 1.1 6.3 0.1 7.5 C-0.4 8.1 -0.9 8.8 -1.5 9.5 C-2.2 10 -2.2 10 -3 11 C-3.7 11 -4.3 11 -5 11 C-5 13 -5 14 -5 16 C-5.3 16 -5.7 16 -6 16 C-6.8 13 -6.8 13 -7 9 C-4.7 6.9 -4.7 6.9 -2 5 C-0.7 2.4 -0.7 2.4 0 0 Z " fill="#DDE8EF" transform="translate(1669,230)"/><path d="M0 0 C3.8 0.5 6.3 1.3 9 4 C10 6.4 10 6.4 10 9 C8.2 11 8.2 11 6 13 C5.0 14 5.0 14 4 16 C4 12 4 12 6 9 C6.2 6.4 6.2 6.4 6 4 C4.0 3.3 2.0 2.7 0 2 C0 1.3 0 0.7 0 0 Z " fill="#DAE6EE" transform="translate(1530,437)"/><path d="M0 0 C1.2 3.7 0.7 4.5 -1 8 C-2.2 10 -3.4 13 -4.6 15 C-5.1 16 -5.1 16 -5.6 17 C-6.4 18 -7.2 20 -8 21 C-9 18 -9 18 -8.4 16 C-8.1 16 -7.7 15 -7.4 14 C-6.8 13 -6.8 13 -6.3 12 C-5.9 11 -5.5 11 -5.1 9.9 C-4.7 9.2 -4.4 8.5 -4.0 7.7 C-3.3 6.4 -2.6 5.0 -1.9 3.6 C-1.2 2.4 -0.6 1.2 0 0 Z " fill="#DCEAF2" transform="translate(1827,425)"/><path d="M0 0 C0.3 0 0.7 0 1 0 C2.6 9.2 0.8 16 -3 24 C-3.3 24 -3.7 24 -4 24 C-3.6 20 -3.1 16 -2 13 C-0.8 8.4 -0.4 4.3 0 0 Z " fill="#D7E3ED" transform="translate(1530,411)"/><path d="M0 0 C0.7 0 1.3 0 2 0 C4.3 9.4 4.3 9.4 4 14 C5.3 15 6.6 15 8 16 C7.3 17 6.7 17 6 18 C1.7 15 1.2 11 0.3 6.4 C0 4 0 4 0 0 Z " fill="#38577D" transform="translate(1829,237)"/><path d="M0 0 C2.5 1 2.5 1 4 2 C2 3 2 3 -1.8 2.9 C-5.7 2.8 -7.8 3.7 -11 6 C-12 6.5 -12 6.5 -13 7 C-13 6.0 -14 5.0 -14 4 C-9.1 0.1 -6.3 -0.6 0 0 Z " fill="#35547C" transform="translate(1659,213)"/><path d="M0 0 C1.0 0 2.0 0 3 0 C0.6 5.4 -3.6 8.9 -8.9 11 C-9.6 12 -10 12 -11 12 C-11 10 -11 10 -9.6 8.5 C-9.0 8.0 -8.3 7.4 -7.7 6.9 C-7.1 6.3 -6.5 5.8 -5.8 5.2 C-4 4 -4 4 -1 4 C-0.7 2.7 -0.3 1.4 0 0 Z " fill="#EAF3F8" transform="translate(1801,365)"/><path d="M0 0 C1.1 3.8 0.6 5.4 -1 9 C-1 10.0 -1 11 -1 12 C-3.0 13 -5.0 14 -7 15 C-5.5 9.5 -2.8 4.9 0 0 Z " fill="#2D527F" transform="translate(1528,327)"/><path d="M0 0 C0.7 0 1.3 0 2 0 C3.6 5.9 4.9 12 4 18 C3.3 19 2.7 19 2 20 C1.3 13 0.7 6.8 0 0 Z " fill="#1F4674" transform="translate(1528,303)"/><path d="M0 0 C2.1 -0.1 4.2 -0.1 6.3 -0.1 C8.1 -0.2 8.1 -0.2 9.9 -0.2 C13 0 13 0 16 2 C16 2.7 15 3.3 15 4 C14 3.7 14 3.3 13 3 C11 2.8 11 2.8 8.6 2.8 C7.9 2.8 7.1 2.8 6.3 2.8 C3.8 3.0 2.2 3.7 0 5 C-0.3 4.0 -0.7 3.0 -1 2 C-0.7 1.3 -0.3 0.7 0 0 Z " fill="#E0EBF1" transform="translate(1682,303)"/><path d="M0 0 C1.0 0.3 2.0 0.7 3 1 C4.0 7.1 4.0 13 3.6 19 C3.5 20 3.5 21 3.4 22 C3.3 24 3.1 26 3 28 C2.7 28 2.3 28 2 28 C2.0 27 1.9 27 1.9 26 C1.8 23 1.7 20 1.6 17 C1.5 16 1.5 16 1.4 14 C1.2 9.5 1.0 4.8 0 0 Z " fill="#B0C3D7" transform="translate(1847,273)"/><path d="M0 0 C2 1 2 1 3.3 4.5 C3.8 5.9 4.2 7.4 4.7 8.8 C4.9 9.5 5.2 10 5.4 11 C6.6 15 7.2 17 6 21 C3.9 18 3.3 16 2.4 12 C2.2 11 1.9 10 1.7 9.1 C1.0 6.1 0.5 3.1 0 0 Z " fill="#DBE8F3" transform="translate(1859,240)"/><path d="M0 0 C0.7 0.3 1.3 0.7 2 1 C1.0 3.2 0.2 4.8 -1.6 6.5 C-3.3 8.3 -3.6 9.6 -4 12 C-4.7 12 -5.3 12 -6 12 C-6.9 9.9 -6.9 9.9 -7 7 C-4.9 4.4 -2.5 2.2 0 0 Z " fill="#25538B" transform="translate(1612,196)"/><path d="M0 0 C0.3 0.7 0.7 1.3 1 2 C1.7 2.3 2.3 2.7 3 3 C0.7 6.0 -1.6 8.9 -4 12 C-5.0 12 -6.0 11 -7 11 C-4.7 7.4 -2.4 3.7 0 0 Z " fill="#E1ECF1" transform="translate(1853,384)"/><path d="M0 0 C1.0 0.3 2.0 0.7 3 1 C-4.1 9.8 -4.1 9.8 -9 11 C-9.3 10 -9.7 9.0 -10 8 C-8.9 7.7 -8.9 7.7 -7.8 7.4 C-4.1 5.5 -2.5 3.3 0 0 Z " fill="#E9F3F9" transform="translate(1831,324)"/><path d="M0 0 C1.1 1.2 1.1 1.2 2.3 2.4 C5.8 5.8 7.9 7.2 13 7.6 C14 7.7 14 7.7 15 7.9 C16 7.9 16 7.9 17 8 C17 8.7 16 9.3 16 10 C11 10 7.5 9.8 3 7 C0.6 4.4 0 3.6 0 0 Z " fill="#37587E" transform="translate(1756,306)"/><path d="M0 0 C0.3 1.0 0.7 2.0 1 3 C-0.2 5.0 -0.2 5.0 -1.9 7.1 C-4.2 9.9 -4.2 9.9 -6 13 C-8.0 14 -10.0 14 -12 15 C-12 14 -12 13 -12 12 C-11 12 -9.4 12 -8 12 C-7.7 11 -7.3 9.4 -7 8 C-6.3 8 -5.7 8 -5 8 C-4.7 6.7 -4.3 5.4 -4 4 C-3.3 4 -2.7 4 -2 4 C-1.3 2.7 -0.7 1.4 0 0 Z " fill="#E9F4F8" transform="translate(1603,199)"/><path d="M0 0 C0.7 0.1 1.4 0.3 2.2 0.4 C4.9 1.0 4.9 1.0 7.5 1.2 C11 2.3 13 4.3 15 7 C16 7.6 16 8.2 17 8.8 C17 9.2 18 9.6 18 10 C18 11 17 11 17 12 C16 12 16 11 15 11 C10 7.1 5.3 3.9 0 1 C0 0.7 0 0.3 0 0 Z " fill="#DDE9F1" transform="translate(1786,188)"/><path d="M0 0 C0 0.7 0 1.3 0 2 C-0.8 2.3 -1.6 2.7 -2.4 3.0 C-9.1 5.7 -9.1 5.7 -16 8.9 C-16 9.2 -17 9.6 -18 10 C-19 9.7 -19 9.3 -20 9 C-18 7.9 -16 6.7 -14 5.6 C-13 5.0 -12 4.4 -11 3.7 C-7.3 1.6 -4.4 0 0 0 Z " fill="#2E4F75" transform="translate(1623,150)"/><path d="M0 0 C4.8 -0.2 8.5 0.5 13 2 C12 2.4 12 2.4 11 2.9 C8.8 4.0 8.8 4.0 6 6 C2.7 5.7 1.4 5.4 -1 3 C-0.3 2.7 0.3 2.3 1 2 C0.7 1.3 0.3 0.7 0 0 Z " fill="#436A98" transform="translate(1729,299)"/><path d="M0 0 C0.7 2.6 1.3 5.3 2 8 C2.7 8 3.3 8 4 8 C4 8.7 4 9.3 4 10 C5.0 10 6.0 11 7 11 C6.0 11 5.0 12 4 12 C2.7 11 1.4 9.5 0.1 8.2 C-0.7 7.5 -1.4 6.8 -2.2 6.0 C-4 4 -4 4 -5 1 C-2 0 -2 0 0 0 Z " fill="#E4EEF2" transform="translate(1586,291)"/><path d="M0 0 C0.3 0 0.7 0 1 0 C1 4.3 1 8.6 1 13 C1.7 13 2.3 13 3 13 C3.3 12 3.7 12 4 11 C4.3 15 4.7 18 5 22 C3 19 3 19 3 17 C2.0 17 1.0 16 0 16 C0 11 0 5.4 0 0 Z " fill="#5879A2" transform="translate(1777,252)"/><path d="M0 0 C0.7 1.0 1.3 2.0 2 3 C1.2 5.5 0.4 7.7 -0.7 10 C-1.0 11 -1.2 11 -1.5 12 C-3.0 15 -3.8 17 -7 19 C-4.9 13 -2.6 6.3 0 0 Z " fill="#DEEAF3" transform="translate(1551,229)"/><path d="M0 0 C1.8 -0.0 3.6 -0.0 5.4 -0.1 C6.4 -0.1 7.4 -0.1 8.4 -0.1 C11 0 11 0 13 1 C13 1.7 13 2.3 13 3 C17 3 21 3 25 3 C25 3.3 25 3.7 25 4 C16 4.4 8.5 3.6 0 1 C0 0.7 0 0.3 0 0 Z " fill="#BCCDDC" transform="translate(1601,308)"/><path d="M0 0 C-2.1 0.8 -4.2 1.7 -6.2 2.5 C-7.4 3.0 -8.6 3.4 -9.8 3.9 C-13 5 -13 5 -17 5 C-17 3.7 -18 2.4 -18 1 C-17 0.7 -15 0.3 -14 0 C-14 1.0 -14 2.0 -14 3 C-13 2.7 -12 2.4 -12 2.1 C-10 1.5 -10 1.5 -8.7 0.9 C-7.2 0.4 -7.2 0.4 -5.7 -0.2 C-3 -1 -3 -1 0 0 Z " fill="#284D7B" transform="translate(1721,307)"/><path d="M0 0 C3.0 2.6 4.6 5.4 6 9 C5.2 11 5.2 11 4 13 C3.7 12 3.5 11 3.2 11 C2.8 9.7 2.4 8.9 2 8 C1.0 7.7 0.0 7.3 -1 7 C-0.7 4.7 -0.3 2.4 0 0 Z " fill="#D0E1ED" transform="translate(1831,256)"/><path d="M0 0 C0.3 0 0.7 0 1 0 C2 6 3 12 4 18 C3.0 18 2.0 18 1 18 C0.0 14 -1.0 9.4 -2 5 C-1.3 5 -0.7 5 0 5 C0 3.4 0 1.7 0 0 Z " fill="#D3E1EB" transform="translate(1657,242)"/><path d="M0 0 C5.4 -0.2 9.8 0.5 15 2 C15 2.3 15 2.7 15 3 C14 3.1 14 3.1 13 3.2 C12 3.3 11 3.4 10 3.4 C9.2 3.5 8.3 3.6 7.4 3.7 C5.0 3.9 5.0 3.9 3 5 C2.0 3.4 1.0 1.7 0 0 Z " fill="#E7F1F4" transform="translate(1743,148)"/><path d="M0 0 C0.5 0.7 1.0 1.3 1.6 2 C4.6 5.8 7.8 9.4 11 13 C10 14 9.7 14 9 15 C8.3 15 7.7 14 7 14 C7 13 7 13 7 12 C6.3 12 5.7 12 5 12 C4.3 10 3.7 8.0 3 6 C2.3 6 1.7 6 1 6 C0.7 4.0 0.3 2.0 0 0 Z " fill="#DFEBF3" transform="translate(1636,334)"/><path d="M0 0 C0.7 0.3 1.3 0.7 2 1 C-0.0 5.8 -0.0 5.8 -2 8 C-5.0 9.0 -7.9 9.0 -11 9 C-12 9 -13 9 -14 9 C-13 7.5 -13 7.5 -11 6 C-7.3 5.8 -7.3 5.8 -4 6 C-3.7 5.0 -3.3 4.0 -3 3 C-2.3 3 -1.7 3 -1 3 C-0.7 2.0 -0.3 1.0 0 0 Z " fill="#D2E0EA" transform="translate(1616,250)"/><path d="M0 0 C2.6 1.3 2.6 2.2 3.6 4.9 C5.3 10 5.7 15 6 21 C3.8 17 2.7 13 1.4 8.8 C1.1 8.0 0.9 7.3 0.7 6.5 C0.1 4.7 -0.4 2.8 -1 1 C-0.7 0.7 -0.3 0.3 0 0 Z " fill="#E3EDF6" transform="translate(1868,233)"/><path d="M0 0 C0.7 0.3 1.3 0.7 2 1 C1.3 1.7 0.6 2.4 -0.1 3.1 C-2.8 5.7 -5.2 8.7 -7.6 12 C-9 13 -9 13 -12 13 C-11 9.6 -9.8 8.8 -7.1 6.5 C-4.6 4.4 -2.3 2.3 0 0 Z " fill="#ECF6FB" transform="translate(1811,370)"/><path d="M0 0 C-3.2 3.2 -7.1 3.9 -11 4.1 C-14 4.1 -16 4.1 -18 4 C-14 -0.3 -5.8 -0.3 0 0 Z " fill="#F1F9FC" transform="translate(1707,347)"/><path d="M0 0 C1.0 0.3 2.0 0.7 3 1 C3 2.0 3 3.0 3 4 C3.8 4.3 4.5 4.5 5.3 4.8 C7.9 5.9 9.2 6.9 11 9 C11 10.0 10 11 10 12 C5.4 8.4 2.2 5.5 0 0 Z " fill="#E0ECF4" transform="translate(1644,331)"/><path d="M0 0 C0 0.3 0 0.7 0 1 C-2.6 1 -5.3 1 -8 1 C-8 1.7 -8 2.3 -8 3 C-11 3 -15 3 -18 3 C-18 2.3 -18 1.7 -18 1 C-12 -0.3 -6.1 -0.1 0 0 Z " fill="#BCCDDA" transform="translate(1699,280)"/><path d="M0 0 C1.0 0.3 2.0 0.7 3 1 C0.4 3.8 -2.5 5.7 -5.7 7.7 C-6.7 8.3 -7.7 8.9 -8.7 9.6 C-9.5 10 -10 11 -11 11 C-9.6 8.2 -8.5 6.0 -6 4 C-5.0 4 -4.0 4 -3 4 C-3 3.3 -3 2.7 -3 2 C-2.0 1.3 -1.0 0.7 0 0 Z " fill="#DFEBF3" transform="translate(1621,183)"/><path d="M0 0 C0.7 0.7 1.3 1.3 2 2 C-3.9 5.5 -3.9 5.5 -10 9 C-10 8.0 -10 7.0 -10 6 C-6.8 3.6 -3.6 1.7 0 0 Z " fill="#E9F3F7" transform="translate(1667,275)"/><path d="M0 0 C0.7 1.0 1.3 2.0 2 3 C-0.3 7.6 -2.6 12 -5 17 C-5.3 17 -5.7 17 -6 17 C-6.4 13 -5.6 11 -3 8 C-1.9 5.4 -0.9 2.7 0 0 Z " fill="#D9E6F0" transform="translate(1547,213)"/><path d="M0 0 C1.0 0.3 2.0 0.7 3 1 C2.3 2.6 1.7 4.3 1 6 C0.3 6 -0.3 6 -1 6 C-1.3 6.7 -1.7 7.3 -2 8 C-2.7 7.0 -3.3 6.0 -4 5 C-5.0 4.7 -6.0 4.3 -7 4 C-6.7 3.3 -6.3 2.7 -6 2 C-4.3 1.6 -2.7 1.3 -1 1 C-0.7 0.7 -0.3 0.3 0 0 Z " fill="#355D90" transform="translate(1670,213)"/><path d="M0 0 C0.8 0.0 1.7 0.0 2.5 0.0 C4.6 0.0 6.6 0.0 8.6 0.1 C8.6 0.4 8.6 0.7 8.6 1.1 C7.4 1.2 7.4 1.2 6.1 1.2 C4.5 1.4 4.5 1.4 2.8 1.5 C1.7 1.6 0.7 1.7 -0.5 1.7 C-3.4 2.0 -3.4 2.0 -6.4 3.1 C-8.6 2.9 -8.6 2.9 -11 2.6 C-12 2.5 -12 2.5 -14 2.3 C-14 2.2 -15 2.1 -15 2.1 C-15 1.7 -15 1.4 -15 1.1 C-10 -0.0 -5.3 -0.1 0 0 Z " fill="#F0FAFB" transform="translate(1706.375,173.9375)"/><path d="M0 0 C6.0 1.7 9.6 3.7 13 9.1 C13 10 14 11 14 12 C14 13 13 13 13 14 C13 13 12 13 12 12 C8.4 7.5 5.0 4.3 0 1 C0 0.7 0 0.3 0 0 Z " fill="#32547E" transform="translate(1617,521)"/><path d="M0 0 C0.7 0.3 1.3 0.7 2 1 C-0.3 5.6 -2.6 10 -5 15 C-5.7 15 -6.3 14 -7 14 C-6.7 13 -6.5 13 -6.2 12 C-5.2 10 -4.4 8.5 -3.5 6.4 C-2 3 -2 3 0 0 Z " fill="#D7E6F0" transform="translate(1818,421)"/><path d="M0 0 C1.1 1.5 1.1 1.5 2 4 C1.6 6.8 0.8 9.3 0 12 C-0.7 12 -1.3 11 -2 11 C-2.2 3.4 -2.2 3.4 0 0 Z " fill="#335A8B" transform="translate(1871,337)"/><path d="M0 0 C0.3 0 0.7 0 1 0 C1.1 2.6 1.1 5.1 1.1 7.7 C1.1 8.4 1.2 9.1 1.2 9.9 C1.2 14 0.9 17 -1 21 C-1.7 21 -2.3 20 -3 20 C-2.7 19 -2.4 18 -2.1 17 C-0.7 11 -0.4 5.7 0 0 Z " fill="#DBE8F2" transform="translate(1538,313)"/><path d="M0 0 C0.7 0.7 1.3 1.3 2 2 C4.3 2.7 6.7 3.4 9 4 C10 4.6 12 5.3 13 6 C13 6.7 13 7.3 13 8 C11 7.5 9.8 7.0 8.2 6.6 C7.3 6.3 6.4 6.0 5.5 5.8 C3.6 5.2 1.8 4.6 0 4 C0 2.7 0 1.4 0 0 Z " fill="#D7E5EE" transform="translate(1782,300)"/><path d="M0 0 C0.6 0.8 1.2 1.5 1.8 2.3 C5.9 7.2 8.5 8.4 15 9 C15 9.3 15 9.7 15 10 C14 10 12 10 11 10 C10.0 10 9.2 10 8.4 10 C5.8 10.0 4.2 9.4 2 8 C0.0 5.0 0 3.8 0 0 Z " fill="#E0ECF5" transform="translate(1598,271)"/><path d="M0 0 C0.3 0.7 0.7 1.3 1 2 C4.5 1.5 4.5 1.5 8 1 C8.3 2.3 8.7 3.6 9 5 C6.3 6.4 4.0 6.1 1 6 C2.0 5.3 3.0 4.7 4 4 C2.4 3.7 0.7 3.3 -1 3 C-0.7 2.0 -0.3 1.0 0 0 Z " fill="#33537C" transform="translate(1603,210)"/><path d="M0 0 C3.7 1.5 6.0 3.8 8.8 6.6 C9.5 7.4 10 8.3 11 9.1 C12 10 12 10 13 11 C12 12 12 12 11 13 C11 13 10 12 9.9 12 C6.8 7.9 3.7 5.0 0 2 C0 1.3 0 0.7 0 0 Z " fill="#36567B" transform="translate(1827,178)"/><path d="M0 0 C0.7 0.3 1.3 0.7 2 1 C1.3 6.9 0.7 13 0 19 C-0.3 19 -0.7 19 -1 19 C-1.2 17 -1.4 15 -1.6 13 C-1.7 12 -1.9 11 -2.0 9.4 C-2.0 5.8 -1.3 3.3 0 0 Z " fill="#D1E0ED" transform="translate(1531,480)"/><path d="M0 0 C4.5 1.0 4.5 1.0 9 2 C9 2.3 9 2.7 9 3 C7.0 3 5.0 3 3 3 C3 6.3 3 9.6 3 13 C2.7 13 2.3 13 2 13 C1.3 8.7 0.7 4.4 0 0 Z " fill="#D9E8F6" transform="translate(1753,386)"/><path d="M0 0 C2.5 1.2 4.7 2.5 7 4 C7 4.7 7 5.3 7 6 C7.7 6 8.3 6 9 6 C9 6.7 9 7.3 9 8 C10.0 8.3 11 8.7 12 9 C12 9.7 11 10 11 11 C9.5 9.9 8.1 8.8 6.6 7.8 C5.8 7.1 5.0 6.5 4.2 5.9 C2.0 4.0 1.1 2.6 0 0 Z " fill="#DDE9F1" transform="translate(1738,365)"/><path d="M0 0 C0.3 1.0 0.7 2.0 1 3 C-0.4 5.6 -0.4 5.6 -2.3 8.6 C-2.9 9.5 -3.6 11 -4.2 12 C-6 14 -6 14 -8 16 C-7.5 13 -6.9 11 -6 8 C-5.3 8 -4.7 8 -4 8 C-3.9 7.4 -3.8 6.8 -3.7 6.2 C-2.9 3.7 -1.7 2.1 0 0 Z " fill="#D8E5F0" transform="translate(1502,365)"/><path d="M0 0 C0 1.0 0 2.0 0 3 C-2.8 5.7 -5.2 6.5 -9 7 C-9 6.3 -9 5.7 -9 5 C-10.0 4.7 -11 4.3 -12 4 C-11 3.8 -11 3.8 -9.9 3.6 C-8.5 3.4 -8.5 3.4 -7.1 3.1 C-5.8 2.9 -5.8 2.9 -4.4 2.6 C-1.8 2.2 -1.8 2.2 0 0 Z " fill="#F6F9F7" transform="translate(1700,324)"/><path d="M0 0 C0.7 0.3 1.3 0.7 2 1 C-4.2 8.5 -4.2 8.5 -8 11 C-8.7 11 -9.3 10 -10 10 C-6.9 6.1 -4.0 3.0 0 0 Z " fill="#2B4F78" transform="translate(1652,287)"/><path d="M0 0 C0.3 0 0.7 0 1 0 C1.3 5.5 0.2 11 -1 16 C-2.0 15 -3.0 15 -4 14 C-3.5 12 -3.0 10 -2.6 8.7 C-2.3 7.7 -2.0 6.7 -1.8 5.7 C-1.2 3.8 -0.6 1.9 0 0 Z " fill="#D5E3ED" transform="translate(1780,277)"/><path d="M0 0 C0.7 0 1.3 0 2 0 C5 3.5 5 3.5 5 6 C6.0 6.3 7.0 6.7 8 7 C7.7 8.7 7.3 10 7 12 C0 2.9 0 2.9 0 0 Z " fill="#E4EEF4" transform="translate(1819,215)"/><path d="M0 0 C0.7 0.3 1.3 0.7 2 1 C2 1.7 2 2.3 2 3 C2.7 3 3.3 3 4 3 C5.7 4.6 5.7 4.6 7.6 6.8 C8.5 7.8 8.5 7.8 9.4 8.9 C11 11 12 12 12 15 C7.7 11 3.3 6.3 -1 2 C-0.7 1.3 -0.3 0.7 0 0 Z " fill="#E8F3F9" transform="translate(1829,176)"/><path d="M0 0 C-3.6 2.5 -6.9 4.5 -11 6 C-12 5.3 -12 4.7 -13 4 C-12 3.7 -11 3.4 -11 3.1 C-7.9 2.3 -7.9 2.3 -7 0 C-3.9 -1.0 -3.0 -0.9 0 0 Z " fill="#E3EDEF" transform="translate(1646,152)"/><path d="M0 0 C-3.2 2.1 -6.1 3.3 -9.7 4.6 C-11 5.1 -12 5.5 -13 6.0 C-14 6.3 -15 6.7 -16 7 C-16 6.3 -16 5.7 -16 5 C-15 5 -15 5 -14 5 C-14 4.0 -13 3.0 -13 2 C-8.6 0.6 -4.7 -0.3 0 0 Z " fill="#E0EDF3" transform="translate(1633,145)"/><path d="M0 0 C0.7 0.3 1.3 0.7 2 1 C-0.3 5.6 -2.6 10 -5 15 C-5.7 14 -6.3 14 -7 13 C-6.6 12 -6.1 12 -5.7 11 C-4.4 8.7 -3.4 6.6 -2.4 4.2 C-1 1 -1 1 0 0 Z " fill="#E8F3FA" transform="translate(1856,357)"/><path d="M0 0 C0 4.0 -1.7 6.7 -3.5 10 C-4.0 11 -4.0 11 -4.5 12 C-5.3 14 -6.2 15 -7 17 C-8.1 13 -7.9 12 -6 8 C-4.1 5.3 -2.1 2.6 0 0 Z " fill="#274A74" transform="translate(1649,298)"/><path d="M0 0 C2 1 2 1 2.6 2.9 C3.6 7.3 4.2 11 4 16 C1.2 11 -0.3 6.0 0 0 Z " fill="#2E4C74" transform="translate(1871,249)"/><path d="M0 0 C0.7 0 1.3 0 2 0 C3.5 3.0 3.1 5.7 3 9 C1.7 9.3 0.4 9.7 -1 10 C-0.7 6.7 -0.3 3.4 0 0 Z " fill="#305B90" transform="translate(1659,241)"/><path d="M0 0 C1.0 0.3 2.0 0.7 3 1 C3 3.0 3 5.0 3 7 C1.0 8.0 1.0 8.0 -1 9 C-1.8 6.1 -2.2 4.5 -1.1 1.7 C-0.7 1.1 -0.4 0.6 0 0 Z " fill="#2F5D97" transform="translate(1717,212)"/><path d="M0 0 C4.1 1.4 6.7 3.2 9.8 6.1 C11 7.2 11 7.2 12 8.3 C13 8.9 13 9.4 14 10 C10.0 10 8.5 8.5 5.3 6.1 C4.3 5.4 3.3 4.7 2.3 3.9 C1.5 3.3 0.8 2.7 0 2 C0 1.3 0 0.7 0 0 Z " fill="#2B4C74" transform="translate(1813,167)"/><path d="M0 0 C1.0 0.7 2.0 1.3 3 2 C2.7 2.7 2.3 3.3 2 4 C2.7 4.3 3.3 4.7 4 5 C2.7 5.3 1.4 5.7 0 6 C0 7.7 0 9.3 0 11 C-0.3 11 -0.7 11 -1 11 C-2.1 4.2 -2.1 4.2 -1 2 C-1.7 1.7 -2.3 1.3 -3 1 C-2.0 0.7 -1.0 0.3 0 0 Z " fill="#39608D" transform="translate(1702,308)"/><path d="M0 0 C1.6 0.3 3.3 0.7 5 1 C3.7 1.3 2.4 1.7 1 2 C1 2.7 1 3.3 1 4 C2.3 4.3 3.6 4.7 5 5 C2.2 6.0 1.1 6.0 -1.8 5.1 C-2.5 4.7 -3.2 4.4 -4 4 C-4 3.3 -4 2.7 -4 2 C-3.0 2 -2.0 2 -1 2 C-0.7 1.3 -0.3 0.7 0 0 Z " fill="#254874" transform="translate(1785,305)"/><path d="M0 0 C2.9 2.0 3.1 3.3 3.8 6.9 C4.1 10 3.9 13 3 16 C2.7 16 2.3 16 2 16 C1.9 15 1.9 15 1.8 14 C1.7 13 1.6 12 1.6 11 C1.5 10 1.4 9.2 1.3 8.3 C1.2 6.0 1.2 6.0 0 5 C-0.0 3.3 -0.0 1.7 0 0 Z " fill="#D8E6F0" transform="translate(1837,269)"/><path d="M0 0 C2 1 2 1 2.9 3.3 C3.1 4.2 3.4 5.1 3.6 6.1 C3.9 7.0 4.1 7.9 4.4 8.8 C4.6 9.6 4.8 10 5 11 C4.0 11 3.0 10 2 10 C2 9.3 2 8.7 2 8 C1.3 8 0.7 8 0 8 C0 5.4 0 2.7 0 0 Z " fill="#E6F0F5" transform="translate(1661,262)"/><path d="M0 0 C-1.4 3.0 -2.9 5.3 -5.1 7.8 C-5.9 8.7 -5.9 8.7 -6.8 9.6 C-7.2 10 -7.6 11 -8 11 C-8.7 9.2 -8.7 9.2 -9 7 C-7.6 5.1 -7.6 5.1 -5.7 3.2 C-5.1 2.6 -4.4 2.0 -3.8 1.4 C-2 0 -2 0 0 0 Z " fill="#E1EEF4" transform="translate(1627,239)"/><path d="M0 0 C-1.0 0.3 -2.0 0.7 -3 1 C-3.3 1.7 -3.7 2.3 -4 3 C-6.1 3.4 -6.1 3.4 -8.6 3.6 C-9.4 3.7 -10 3.8 -11 3.9 C-12 3.9 -12 3.9 -13 4 C-13 3.3 -13 2.7 -13 2 C-12 1.5 -10 0.9 -8.8 0.4 C-8.0 0.1 -7.2 -0.1 -6.4 -0.4 C-3.8 -1.0 -2.4 -0.8 0 0 Z " fill="#E2EDF3" transform="translate(1645,187)"/><path d="M0 0 C0.7 1.3 1.3 2.6 2 4 C1.5 4.4 1.1 4.8 0.6 5.2 C-1.1 7.1 -2.0 8.8 -3 11 C-3.7 11 -4.3 10 -5 10 C-3.7 6.4 -2.0 3.2 0 0 Z " fill="#E0EBF1" transform="translate(1817,360)"/><path d="M0 0 C0.7 0.3 1.3 0.7 2 1 C1.8 3.3 1.8 3.3 1 6 C-1.4 7.9 -1.4 7.9 -4 9 C-5.0 8.7 -6.0 8.3 -7 8 C-6.2 7.4 -5.4 6.8 -4.6 6.2 C-2.2 4.2 -1.1 2.9 0 0 Z " fill="#E0ECF3" transform="translate(1821,285)"/><path d="M0 0 C0.3 0.7 0.7 1.3 1 2 C0.0 3.9 0.0 3.9 -1.4 6.1 C-1.9 6.8 -2.4 7.6 -2.9 8.3 C-3.2 8.9 -3.6 9.4 -4 10 C-6 7 -6 7 -5.6 4.3 C-5.4 3.5 -5.2 2.8 -5 2 C-4.7 2.7 -4.3 3.3 -4 4 C-2.7 2.7 -1.4 1.4 0 0 Z " fill="#284B79" transform="translate(1621,252)"/><path d="M0 0 C-0.3 2.0 -0.7 4.0 -1 6 C-3.3 5.3 -5.6 4.7 -8 4 C-8 3.3 -8 2.7 -8 2 C-2.2 0 -2.2 0 0 0 Z " fill="#D6E6F1" transform="translate(1674,178)"/><path d="M0 0 C-0.3 1.0 -0.7 2.0 -1 3 C-1.7 3 -2.3 3 -3 3 C-3.2 3.6 -3.5 4.3 -3.8 4.9 C-5 7 -5 7 -7.1 7.8 C-8.1 7.9 -8.1 7.9 -9 8 C-7.5 4.1 -4.5 0 0 0 Z " fill="#E7F2F6" transform="translate(1594,176)"/><path d="M0 0 C5.8 -0.2 11 0.1 16 2 C16 2.3 16 2.7 16 3 C13 3 9.4 3 6 3 C6 2.3 6 1.7 6 1 C4.0 1 2.0 1 0 1 C0 0.7 0 0.3 0 0 Z " fill="#284B76" transform="translate(1736,138)"/><path d="M0 0 C0.7 0.7 1.3 1.3 2 2 C-1.0 7.0 -1.0 7.0 -4 12 C-5.2 8.4 -4.5 7.4 -3 4 C-2.3 4 -1.7 4 -1 4 C-0.7 2.7 -0.3 1.4 0 0 Z " fill="#DDE9F2" transform="translate(1848,372)"/><path d="M0 0 C1.1 2.7 1.1 3.8 0.0 6.6 C-0.5 7.5 -0.9 8.3 -1.4 9.2 C-1.9 10 -2.4 11 -2.9 12 C-3.2 13 -3.6 13 -4 14 C-4.7 14 -5.3 13 -6 13 C-5.2 11 -4.4 9.4 -3.6 7.6 C-3.1 6.6 -2.7 5.6 -2.2 4.6 C-1.5 3.1 -0.8 1.5 0 0 Z " fill="#2A4D7A" transform="translate(1816,345)"/><path d="M0 0 C4.4 0.7 8.0 2.2 12 4 C12 4.7 12 5.3 12 6 C11 5.6 9.1 5.1 7.7 4.7 C6.9 4.4 6.1 4.2 5.3 3.9 C2.9 3.0 1.7 1.9 0 0 Z " fill="#D7E4EF" transform="translate(1656,344)"/><path d="M0 0 C1.0 0.3 2.0 0.7 3 1 C3 3.0 3 5.0 3 7 C2.1 6.4 1.2 5.7 0.3 5.1 C-2.7 3.2 -4.6 2.4 -8 2 C-8 1.7 -8 1.3 -8 1 C-5.3 1 -2.7 1 0 1 C0 0.7 0 0.3 0 0 Z " fill="#EEEFE6" transform="translate(1751,306)"/><path d="M0 0 C0.3 0 0.7 0 1 0 C1.1 0.6 1.2 1.2 1.4 1.9 C1.5 2.7 1.7 3.5 1.9 4.3 C2.0 5.1 2.2 5.9 2.4 6.7 C2.9 9.3 2.9 9.3 5 12 C4.0 12 4.0 12 3 13 C0 11 0 11 -0.5 9.2 C-0.6 8.5 -0.7 7.8 -0.8 7.1 C-0.9 6.0 -0.9 6.0 -1.0 5.0 C-1 3 -1 3 0 0 Z " fill="#DCE9F1" transform="translate(1800,279)"/><path d="M0 0 C-1.8 2.2 -2.6 3.0 -5.5 3.3 C-6.4 3.3 -7.3 3.2 -8.2 3.2 C-9.1 3.2 -10.0 3.1 -11 3.1 C-12 3.1 -12 3.1 -13 3 C-8.5 0.0 -5.3 -0.1 0 0 Z " fill="#DEE9F1" transform="translate(1611,216)"/><path d="M0 0 C0.3 0 0.7 0 1 0 C1 2.0 1 4.0 1 6 C2.0 6.3 3.0 6.7 4 7 C3.7 9.0 3.3 11 3 13 C2.7 12 2.3 11 2 10 C1.3 10 0.7 10 0 10 C0 6.7 0 3.4 0 0 Z " fill="#F9FCF9" transform="translate(1540,491)"/><path d="M0 0 C1.0 0 2.0 0 3 0 C2.7 2.0 2.3 4.0 2 6 C1.7 6 1.3 6 1 6 C0.7 8.6 0.3 11 0 14 C-0.3 14 -0.7 14 -1 14 C-1.0 12 -1.0 10 -1.1 8.7 C-1.1 7.7 -1.1 6.7 -1.1 5.7 C-1 3 -1 3 0 0 Z " fill="#DAE5EF" transform="translate(1540,487)"/><path d="M0 0 C0.3 0.7 0.7 1.3 1 2 C0.2 4.2 0.2 4.2 -0.9 6.6 C-1.3 7.4 -1.7 8.3 -2.1 9.1 C-2.4 9.7 -2.7 10 -3 11 C-3.7 11 -4.3 11 -5 11 C-5.3 12 -5.7 12 -6 13 C-5.5 7.8 -2.8 4.2 0 0 Z " fill="#274B76" transform="translate(1851,371)"/><path d="M0 0 C0.7 0 1.3 0 2 0 C3.0 3.3 3.1 6.3 3.1 9.8 C3.1 11 3.0 12 3.0 13 C3.0 13 3.0 14 3 15 C2.7 15 2.3 15 2 15 C1.8 13 1.5 11 1.3 8.8 C1.2 7.0 1.2 7.0 0 6 C-0.0 4.0 -0.0 2.0 0 0 Z " fill="#CBDBE9" transform="translate(1527,307)"/><path d="M0 0 C2.4 0.8 2.4 0.8 5 2 C5.8 4.1 5.8 4.1 6 6 C0.2 4.2 0.2 4.2 -2 2 C-1.3 2 -0.7 2 0 2 C0 1.3 0 0.7 0 0 Z " fill="#E9F0F3" transform="translate(1595,302)"/><path d="M0 0 C4.3 1.6 6.3 4.5 9 8 C6 8 6 8 4.4 6.8 C3.9 6.2 3.4 5.7 2.8 5.1 C2.3 4.6 1.8 4.1 1.2 3.5 C0 2 0 2 0 0 Z " fill="#3C5B82" transform="translate(1805,202)"/><path d="M0 0 C2.5 1.2 4.7 2.5 7 4 C4 6 4 6 1 6 C0.3 5.0 -0.3 4.0 -1 3 C-0.7 2.0 -0.3 1.0 0 0 Z " fill="#375C8C" transform="translate(1680,190)"/><path d="M0 0 C5.9 0.3 12 0.7 18 1 C18 1.3 18 1.7 18 2 C12 2.3 6.1 2.7 0 3 C0 2.0 0 1.0 0 0 Z " fill="#BCCEDD" transform="translate(1638,177)"/><path d="M0 0 C1.9 2.9 2.5 4.4 3.1 7.7 C3.3 8.5 3.5 9.3 3.6 10 C3.8 11 3.9 11 4 12 C3.0 12 3.0 12 2 13 C0.5 8.5 -0.2 4.8 0 0 Z " fill="#D8E6EF" transform="translate(1814,530)"/><path d="M0 0 C0.3 0 0.7 0 1 0 C1.2 2.1 1.4 4.1 1.6 6.2 C1.7 6.8 1.9 7.4 2 8 C2.7 8.3 3.3 8.7 4 9 C3.7 11 3.3 12 3 14 C2.3 14 1.7 14 1 14 C0.1 11 -0.1 8.0 -0.1 4.8 C-0.1 3.9 -0.0 3.0 -0.0 2.0 C-0.0 1.4 -0.0 0.7 0 0 Z " fill="#EFF8FA" transform="translate(1756,395)"/><path d="M0 0 C3.6 0.7 7.3 1.3 11 2 C11 2.7 11 3.3 11 4 C3.6 4.3 3.6 4.3 0 2 C0 1.3 0 0.7 0 0 Z " fill="#ECF6F8" transform="translate(1804,291)"/><path d="M0 0 C3 1 3 1 4.2 3.2 C5.1 6.3 5.1 8.8 5 12 C3.2 9.3 2.3 7.3 1.4 4.3 C1.1 3.5 0.9 2.7 0.6 1.9 C0.4 1.2 0.2 0.6 0 0 Z " fill="#E3EEF5" transform="translate(1804,253)"/><path d="M0 0 C1.0 0 2.0 0 3 0 C3 0.7 3 1.3 3 2 C3.7 2 4.3 2 5 2 C5 2.7 5 3.3 5 4 C5.7 4 6.3 4 7 4 C7.3 5.7 7.7 7.3 8 9 C6.8 8.1 5.7 7.1 4.6 6.2 C3.6 5.4 3.6 5.4 2.6 4.6 C1 3 1 3 0 0 Z " fill="#DFEBF1" transform="translate(1790,235)"/><path d="M0 0 C2.8 4.0 1.8 7.4 1 12 C0.7 12 0.3 12 0 12 C0 10 0 8.7 0 7 C-0.7 7 -1.3 7 -2 7 C-1.3 4.7 -0.7 2.4 0 0 Z " fill="#DFEAF1" transform="translate(1807,503)"/><path d="M0 0 C1.5 -0.0 2.9 -0.0 4.4 -0.1 C5.2 -0.1 6.0 -0.1 6.8 -0.1 C9 0 9 0 11 1 C11 1.7 11 2.3 11 3 C9.4 2.9 7.7 2.8 6.1 2.6 C5.1 2.6 4.2 2.5 3.3 2.4 C2.2 2.2 2.2 2.2 1 2 C0.7 1.3 0.3 0.7 0 0 Z " fill="#365985" transform="translate(1778,340)"/><path d="M0 0 C2.7 1.3 5.3 2.7 8 4 C8 4.7 8 5.3 8 6 C8.7 6 9.3 6 10 6 C9.7 7.0 9.3 8.0 9 9 C7.5 7.9 6.0 6.8 4.5 5.6 C3.7 5.0 2.8 4.4 2.0 3.7 C1.3 3.2 0.7 2.6 0 2 C0 1.3 0 0.7 0 0 Z " fill="#EAF3F9" transform="translate(1801,309)"/><path d="M0 0 C-0.3 1.0 -0.7 2.0 -1 3 C-4.3 3 -7.6 3 -11 3 C-7.0 0.3 -4.8 0 0 0 Z " fill="#DFEBF2" transform="translate(1727,306)"/><path d="M0 0 C1.0 0.7 2.0 1.3 3 2 C-0.4 4.3 -2.9 4.5 -7 5 C-7 4.3 -7 3.7 -7 3 C-3.7 1.4 -3.7 1.4 0 0 Z " fill="#E7F1F6" transform="translate(1722,298)"/><path d="M0 0 C0.7 1.0 1.3 2.0 2 3 C1.2 4.3 0.4 5.7 -0.4 7 C-1.1 8.1 -1.1 8.1 -1.8 9.2 C-2.2 9.8 -2.6 10 -3 11 C-3.3 11 -3.7 11 -4 11 C-4 9.3 -4 7.7 -4 6 C-3.3 6 -2.7 6 -2 6 C-1.3 4.0 -0.7 2.0 0 0 Z " fill="#E3EFF5" transform="translate(1828,403)"/><path d="M0 0 C-0.2 0.6 -0.3 1.2 -0.5 1.8 C-1.1 4.1 -1.1 4.1 -1 7 C-2.7 5.4 -4.4 3.7 -6 2 C-6 1.3 -6 0.7 -6 0 C-2.2 -1.1 -2.2 -1.1 0 0 Z " fill="#C9DEEC" transform="translate(1710,356)"/><path d="M0 0 C0.3 0.7 0.7 1.3 1 2 C0.1 4.6 0.1 4.6 -1 7 C-1.7 7 -2.3 7 -3 7 C-3.7 8.3 -4.3 9.6 -5 11 C-4.5 6.5 -2.6 3.7 0 0 Z " fill="#294C77" transform="translate(1641,299)"/><path d="M0 0 C1.0 0 2.0 0 3 0 C3 0.7 3 1.3 3 2 C5.3 2.3 7.6 2.7 10 3 C8.4 4.2 8.4 4.2 6 5 C2.8 3.6 2.8 3.6 0 2 C0 1.3 0 0.7 0 0 Z " fill="#DCE9F0" transform="translate(1548,511)"/><path d="M0 0 C3.1 0.7 6.0 1.8 9 3 C9 3.7 9 4.3 9 5 C6.0 4.0 3.1 3.0 0 2 C0 1.3 0 0.7 0 0 Z " fill="#DCE7EF" transform="translate(1507,395)"/><path d="M0 0 C-1.3 0.7 -2.7 1.3 -4 2 C-4.7 2.4 -5.4 2.8 -6.1 3.2 C-8 4 -8 4 -11 3 C-8.2 -1.2 -4.5 -0.2 0 0 Z " fill="#F8FBF7" transform="translate(1723,309)"/><path d="M0 0 C0.3 0 0.7 0 1 0 C1.3 8.6 1.3 8.6 -1 12 C-2.4 7.5 -1.5 4.4 0 0 Z " fill="#305587" transform="translate(1875,264)"/><path d="M0 0 C0.7 0 1.3 0 2 0 C2 1.0 2 2.0 2 3 C-0.3 4.3 -2.6 5.6 -5 7 C-5 5.7 -5 4.4 -5 3 C-3.4 2.7 -1.7 2.3 0 2 C0 1.3 0 0.7 0 0 Z " fill="#E1ECF2" transform="translate(1635,231)"/><path d="M0 0 C1 3 1 3 0.9 5.4 C1.0 8.5 2.0 9.7 4 12 C2.1 12 2.1 12 0 11 C-1.5 8.0 -1.1 5.3 -1 2 C-0.7 1.3 -0.3 0.7 0 0 Z " fill="#284D77" transform="translate(1526,427)"/><path d="M0 0 C0.7 0 1.3 0 2 0 C2 0.7 2 1.3 2 2 C3.0 2.3 4.0 2.7 5 3 C5.4 4.3 5.7 5.7 6 7 C6.7 7.3 7.3 7.7 8 8 C7.0 8 6.0 8 5 8 C0 2.7 0 2.7 0 0 Z " fill="#D9E7F1" transform="translate(1713,367)"/><path d="M0 0 C1 3 1 3 -0.2 6.1 C-2 9 -2 9 -5 10 C-3.7 6.4 -2.0 3.2 0 0 Z " fill="#E7F1F7" transform="translate(1519,358)"/><path d="M0 0 C0.8 1.7 0.8 1.7 1 4 C-1.4 6.8 -1.4 6.8 -4 9 C-5.0 8.7 -6.0 8.3 -7 8 C-6.2 7.2 -5.4 6.5 -4.6 5.7 C-1.9 3.1 -1.9 3.1 0 0 Z " fill="#E2EEF6" transform="translate(1702,318)"/><path d="M0 0 C0 0.7 0 1.3 0 2 C-1.3 2.4 -2.6 2.8 -3.9 3.1 C-4.6 3.3 -5.3 3.5 -6.1 3.8 C-6.7 3.8 -7.3 3.9 -8 4 C-8.7 3.3 -9.3 2.7 -10 2 C-6.4 0.7 -3.9 0 0 0 Z " fill="#D7E6EE" transform="translate(1681,282)"/><path d="M0 0 C0.7 0.3 1.3 0.7 2 1 C1.7 2.0 1.3 3.0 1 4 C-1.6 4.3 -4.3 4.7 -7 5 C-4.7 3.3 -2.4 1.6 0 0 Z " fill="#E2EEF4" transform="translate(1710,274)"/><path d="M0 0 C0.7 0 1.3 0 2 0 C2.3 3.0 2.7 5.9 3 9 C2.0 9.5 2.0 9.5 1 10 C0.7 6.7 0.3 3.4 0 0 Z " fill="#EEF7FB" transform="translate(1774,243)"/><path d="M0 0 C1.5 1.0 1.5 1.0 3 2 C2.5 4.2 2.0 6.0 1 8 C0.3 8 -0.3 8 -1 8 C-0.7 5.4 -0.3 2.7 0 0 Z " fill="#E9F1F3" transform="translate(1716,226)"/><path d="M0 0 C1.0 0 2.0 0 3 0 C1.6 3.4 0.0 5.0 -3 7 C-2.4 4.0 -1.7 2.6 0 0 Z " fill="#D4E1E9" transform="translate(1582,217)"/><path d="M0 0 C1.0 0.3 2.0 0.7 3 1 C0.0 5.0 0.0 5.0 -3 9 C-3.3 8.0 -3.7 7.0 -4 6 C-2.1 2.8 -2.1 2.8 0 0 Z " fill="#D8E6EE" transform="translate(1560,193)"/><path d="M0 0 C0.7 0.3 1.3 0.7 2 1 C2 1.7 2 2.3 2 3 C0.7 3.3 -0.6 3.7 -2 4 C-2.3 5.3 -2.7 6.6 -3 8 C-3.7 7.0 -4.3 6.0 -5 5 C-3.4 3.4 -1.7 1.7 0 0 Z " fill="#3B5D81" transform="translate(1573,181)"/><path d="M0 0 C3.3 0.3 6.6 0.7 10 1 C10 2.0 11 3.0 11 4 C7.4 3.0 3.7 2.0 0 1 C0 0.7 0 0.3 0 0 Z " fill="#DBE8F0" transform="translate(1768,144)"/><path d="M0 0 C1.0 0.3 2.0 0.7 3 1 C4.0 4.7 4.0 7.3 3 11 C2.7 11 2.3 11 2 11 C1.3 7.4 0.7 3.7 0 0 Z " fill="#DEE9F3" transform="translate(1541,465)"/><path d="M0 0 C1.2 1.6 1.2 1.6 2 4 C0.6 7.2 0.6 7.2 -1 10 C-2.5 6.2 -1.4 3.7 0 0 Z " fill="#DAE7F0" transform="translate(1817,446)"/><path d="M0 0 C5.9 0.9 5.9 0.9 7 2 C7.0 3.7 7.0 5.3 7 7 C6.0 7.5 6.0 7.5 5 8 C4.9 7.2 4.8 6.4 4.8 5.6 C4.3 2.9 4.3 2.9 1.9 1.7 C1.3 1.5 0.7 1.2 0 1 C0 0.7 0 0.3 0 0 Z " fill="#25446A" transform="translate(1530,439)"/><path d="M0 0 C2.2 3.3 3.0 6.2 4 10 C3.0 9.7 2.0 9.3 1 9 C0.7 6.0 0.3 3.1 0 0 Z " fill="#D9E6F1" transform="translate(1730,409)"/><path d="M0 0 C0.7 0 1.3 0 2 0 C0.7 3.9 -0.9 6.2 -4 9 C-3.5 5.2 -2.6 2.8 0 0 Z " fill="#DDEAF3" transform="translate(1834,395)"/><path d="M0 0 C0.7 0.3 1.3 0.7 2 1 C1.4 2.9 1.4 2.9 0 5 C-3.1 6.2 -3.1 6.2 -6 7 C-6 6.3 -6 5.7 -6 5 C-4.3 4.7 -2.7 4.3 -1 4 C-0.7 2.7 -0.3 1.4 0 0 Z " fill="#385B84" transform="translate(1598,208)"/><path d="M0 0 C0.3 1.0 0.7 2.0 1 3 C-0.4 5.3 -2.2 7.0 -4 9 C-4.3 8.0 -4.7 7.0 -5 6 C-4.7 5.3 -4.3 4.7 -4 4 C-3.3 4 -2.7 4 -2 4 C-1.3 2.7 -0.7 1.4 0 0 Z " fill="#E0EDF3" transform="translate(1603,199)"/><path d="M0 0 C1.0 0.3 2.0 0.7 3 1 C0.6 3.7 -1.6 4.8 -5 6 C-5.3 5.3 -5.7 4.7 -6 4 C-4.0 3.3 -2.0 2.7 0 2 C0 1.3 0 0.7 0 0 Z " fill="#DDE9F3" transform="translate(1679,202)"/><path d="M0 0 C0.7 1.0 1.3 2.0 2 3 C0.3 4.7 -1.3 6.3 -3 8 C-3.7 7.7 -4.3 7.3 -5 7 C-3.4 4.7 -1.7 2.4 0 0 Z " fill="#264B76" transform="translate(1560,197)"/><path d="M0 0 C1.7 0.1 1.7 0.1 3.4 0.1 C1.7 1.7 1.7 1.7 -0.6 3.1 C-3.4 2.8 -3.4 2.8 -5.6 2.1 C-3.6 0.1 -3.6 0.1 0 0 Z " fill="#E9F1F5" transform="translate(1751.625,190.875)"/><path d="M0 0 C-0.7 0.7 -1.3 1.3 -2 2 C-5.6 1.6 -5.6 1.6 -9 1 C-5.6 -1.1 -3.8 -1.0 0 0 Z " fill="#DAE5ED" transform="translate(1684,177)"/><path d="M0 0 C0.1 0.6 0.2 1.2 0.2 1.9 C0.8 4.2 0.8 4.2 3.1 5.2 C3.7 5.5 4.3 5.7 5 6 C5 7.0 5 8.0 5 9 C2.5 7.3 2.5 7.3 0 5 C-0.3 2.2 -0.3 2.2 0 0 Z " fill="#D9E9F3" transform="translate(1532,452)"/><path d="M0 0 C4.9 4.6 4.9 4.6 6 8 C4.1 7.8 4.1 7.8 2 7 C0.3 4.4 0 3.2 0 0 Z " fill="#DFECF6" transform="translate(1703,367)"/><path d="M0 0 C-4.0 2.0 -4.0 2.0 -8 4 C-8.7 3.3 -9.3 2.7 -10 2 C-4.5 -1.1 -4.5 -1.1 0 0 Z " fill="#E3F0F6" transform="translate(1673,286)"/><path d="M0 0 C3.4 1.4 5.0 3.0 7 6 C3.8 5.4 2.1 4.6 0 2 C0 1.3 0 0.7 0 0 Z " fill="#D6E2EB" transform="translate(1579,257)"/><path d="M0 0 C0.7 0.3 1.3 0.7 2 1 C1.0 4.0 0.0 6.9 -1 10 C-1.7 9.7 -2.3 9.3 -3 9 C-2.0 6.0 -1.0 3.1 0 0 Z " fill="#2B4B73" transform="translate(1542,228)"/><path d="M0 0 C0.7 0.3 1.3 0.7 2 1 C0.4 2.7 -1.3 4.4 -3 6 C-3.7 6 -4.3 6 -5 6 C-3.6 2.8 -3.0 2.0 0 0 Z " fill="#E6F1F7" transform="translate(1596,219)"/><path d="M0 0 C1.0 0.7 2.0 1.3 3 2 C1.0 4.0 -1.0 6.0 -3 8 C-3.7 7.7 -4.3 7.3 -5 7 C-4.4 6.2 -3.7 5.4 -3.1 4.6 C-1.0 2.2 -1.0 2.2 0 0 Z " fill="#355F93" transform="translate(1730,194)"/><path d="M0 0 C0.3 0.7 0.7 1.3 1 2 C0.3 2 -0.3 2 -1 2 C-1.7 3.3 -2.3 4.6 -3 6 C-4.0 6 -5.0 6 -6 6 C-4.8 2.3 -3.4 1.8 0 0 Z " fill="#E7F2F7" transform="translate(1601,170)"/><path d="M0 0 C0.7 0.3 1.3 0.7 2 1 C-0.3 2.6 -2.6 4.3 -5 6 C-5.3 5.0 -5.7 4.0 -6 3 C-5.0 3 -4.0 3 -3 3 C-3 2.3 -3 1.7 -3 1 C-2.0 0.7 -1.0 0.3 0 0 Z " fill="#DCE9F1" transform="translate(1592,164)"/></svg> 