<?xml version="1.0" encoding="UTF-8"?><svg xmlns="http://www.w3.org/2000/svg" viewBox="95 59 732 760"><path d="M0 0 C1.0 0 2.0 0 3 0 C4.9 5.0 6.1 9.3 6.5 15 C7.2 23 9.5 29 14 36 C19 44 22 53 25 63 C25 64 26 65 26 66 C30 81 29 96 26 111 C24 120 24 128 29 137 C29 138 30 139 30 140 C35 148 40 154 46 161 C49 165 49 168 49 173 C49 177 48 179 45 181 C41 185 36 186 31 188 C31 193 31 193 32 197 C33 202 33 207 30 211 C29 212 29 212 28 213 C27 214 27 214 26 215 C27 216 27 217 28 218 C29 222 28 224 26 227 C24 230 24 230 21 232 C18 236 18 240 18 245 C19 253 18 260 12 266 C11 266 11 267 10 267 C9.2 268 9.2 268 8.3 269 C-4.3 276 -19 272 -32 269 C-41 267 -50 265 -58 268 C-66 276 -69 285 -72 296 C-72 297 -73 298 -73 300 C-76 313 -76 329 -73 343 C-73 345 -73 348 -73 351 C-74 351 -75 350 -76 350 C-77 348 -78 345 -79 343 C-79 342 -79 341 -79 341 C-86 318 -84 294 -73 273 C-69 267 -65 262 -58 259 C-55 258 -52 258 -49 258 C-49 258 -48 258 -47 258 C-39 259 -32 260 -24 262 C-8.7 265 -8.7 265 6 260 C12 254 10 247 10 239 C10 231 10 231 13 227 C16 225 16 225 19 223 C20 221 20 221 19 218 C18 217 18 217 17 216 C16 215 16 215 16 213 C18 209 20 207 24 205 C24 202 23 198 22 195 C22 192 21 188 22 185 C26 180 31 179 37 177 C40 175 40 175 41 172 C41 167 39 165 36 161 C34 160 33 158 32 157 C32 156 31 156 31 155 C20 142 16 130 17 113 C17 110 18 108 18 105 C24 81 18 56 6 35 C5.7 35 5.3 35 5 35 C4.7 37 4.7 37 4.5 38 C3.8 42 3.1 46 2.4 50 C2.2 52 1.9 54 1.6 55 C-5.5 98 -29 132 -58 163 C-88 196 -113 237 -112 282 C-111 312 -100 337 -79 358 C-65 370 -48 376 -29 376 C-25 376 -21 375 -17 373 C-17 372 -17 372 -17 371 C-21 356 -15 339 -7 327 C6.1 309 25 301 45 295 C51 293 56 291 62 290 C63 289 64 289 65 289 C74 286 82 282 88 276 C93 277 93 277 94 278 C95 286 93 294 92 302 C92 303 92 304 92 305 C91 307 91 310 91 312 C90 314 90 317 89 320 C85 344 74 369 54 384 C40 393 24 398 7.7 395 C2.6 394 -1.7 393 -6 390 C-6 389 -6 389 -6 388 C-6.6 388 -7.2 388 -7.9 388 C-10 387 -10 387 -11 385 C-11 384 -12 384 -12 383 C-13 383 -15 384 -16 384 C-36 388 -55 383 -73 373 C-77 371 -80 368 -84 365 C-85 364 -86 364 -86 363 C-107 346 -118 320 -121 294 C-124 255 -112 221 -89 189 C-123 214 -143 253 -150 294 C-150 300 -150 306 -150 312 C-150 314 -150 315 -150 316 C-150 344 -142 368 -124 389 C-123 390 -123 391 -122 391 C-115 399 -107 404 -98 408 C-97 409 -97 409 -96 409 C-87 414 -79 415 -69 415 C-67 415 -67 415 -66 415 C-59 415 -53 414 -47 413 C-44 412 -44 412 -40 412 C-41 415 -42 417 -46 418 C-68 427 -93 424 -115 415 C-131 408 -144 398 -157 386 C-158 385 -158 385 -159 384 C-174 370 -185 349 -190 329 C-190 328 -190 328 -191 327 C-192 320 -192 312 -192 305 C-192 304 -192 304 -192 303 C-192 283 -187 268 -178 250 C-181 252 -183 255 -186 257 C-187 258 -188 259 -189 259 C-194 264 -199 269 -204 275 C-205 276 -205 276 -206 278 C-215 290 -223 302 -228 317 C-229 319 -229 319 -229 321 C-237 348 -232 377 -219 402 C-216 409 -211 414 -206 420 C-205 421 -205 421 -203 423 C-197 430 -190 434 -182 439 C-181 440 -179 441 -178 442 C-176 442 -176 442 -175 443 C-175 445 -175 446 -175 448 C-202 448 -230 426 -248 408 C-271 384 -281 354 -280 322 C-279 271 -249 230 -214 197 C-211 195 -209 192 -206 190 C-205 189 -204 188 -203 187 C-188 175 -173 163 -158 152 C-148 145 -139 138 -131 131 C-129 129 -127 128 -126 126 C-96 99 -82 66 -72 27 C-72 27 -71 27 -71 27 C-74 58 -82 87 -103 111 C-104 112 -104 112 -104 113 C-119 131 -137 146 -156 159 C-162 164 -168 169 -174 174 C-177 175 -179 177 -181 179 C-193 189 -205 199 -216 209 C-214 208 -214 208 -213 207 C-212 206 -211 206 -211 205 C-209 204 -207 202 -205 201 C-188 188 -169 179 -150 169 C-88 135 -43 95 -22 26 C-21 23 -20 19 -19 16 C-18 15 -18 13 -17 11 C-16 11 -15 11 -14 11 C-15 46 -35 83 -58 109 C-58 110 -59 110 -59 111 C-85 139 -117 158 -151 176 C-174 188 -196 201 -216 217 C-217 218 -218 219 -219 220 C-232 230 -243 241 -251 255 C-251 256 -252 256 -252 257 C-268 285 -277 320 -269 352 C-263 371 -256 386 -243 401 C-242 402 -242 402 -241 404 C-238 407 -235 410 -231 413 C-230 414 -230 414 -229 414 C-222 420 -215 426 -206 430 C-207 429 -207 429 -208 428 C-221 415 -230 399 -236 382 C-237 381 -237 381 -237 380 C-241 369 -241 358 -241 347 C-241 345 -241 345 -241 343 C-241 335 -241 327 -238 318 C-238 317 -238 317 -237 316 C-231 295 -219 277 -204 261 C-203 260 -202 259 -201 258 C-195 252 -188 246 -181 241 C-180 239 -178 238 -176 237 C-167 230 -157 223 -147 216 C-145 215 -144 214 -142 213 C-136 209 -131 205 -125 202 C-65 162 -20 119 -5.5 47 C-3.1 34 -1.7 21 -1.3 8.6 C-1.3 7.7 -1.2 6.9 -1.2 6.1 C-1.2 5.3 -1.2 4.6 -1.2 3.8 C-1 2 -1 2 0 0 Z " fill="#1F5F3C" transform="translate(476,150)"/><path d="M0 0 C3.3 1.3 6.7 2.4 10 3.4 C15 5.0 19 7.3 23 10 C26 11 28 12 31 13 C38 15 45 17 49 23 C49 25 49 26 49 27 C44 27 41 25 38 23 C29 19 17 20 8.9 23 C2.2 26 -3.1 30 -8.3 35 C-8.9 36 -9.4 36 -9.9 37 C-15 42 -19 47 -23 53 C-24 54 -25 55 -25 56 C-29 62 -33 68 -36 74 C-46 88 -55 103 -67 115 C-68 116 -69 117 -69 117 C-89 138 -112 152 -137 166 C-161 179 -184 193 -204 210 C-205 211 -206 212 -207 213 C-230 232 -241 266 -244 295 C-245 301 -245 306 -245 312 C-245 313 -245 315 -245 316 C-245 320 -245 323 -245 326 C-247 326 -248 326 -249 325 C-254 311 -251 288 -247 273 C-247 273 -247 272 -247 271 C-244 262 -241 253 -237 244 C-253 267 -262 291 -262 319 C-262 321 -262 323 -262 325 C-262 337 -260 347 -257 358 C-257 359 -257 359 -256 360 C-251 377 -243 392 -232 406 C-232 407 -231 407 -231 408 C-230 409 -230 409 -229 410 C-228 411 -228 411 -228 414 C-242 410 -251 393 -257 381 C-265 364 -270 346 -271 328 C-271 327 -271 326 -271 325 C-271 324 -271 322 -271 321 C-271 318 -271 316 -271 314 C-271 300 -269 288 -264 275 C-264 274 -264 273 -263 272 C-258 256 -249 243 -239 230 C-225 212 -216 192 -211 170 C-211 168 -210 166 -210 164 C-208 157 -207 149 -205 142 C-199 95 -184 50 -145 20 C-102 -10 -49 -19 0 0 Z " fill="#1E5F3A" transform="translate(425.3359375,121.59765625)"/><path d="M0 0 C1.4 -0.0 1.4 -0.0 2.8 -0.0 C4.2 -0.0 4.2 -0.0 5.5 -0.0 C6.3 -0.0 7.2 -0.0 8.0 -0.0 C11 0.1 13 0.6 15 1.1 C15 1.8 15 2.4 15 3.1 C14 3.3 13 3.4 12 3.6 C-19 8.6 -42 26 -61 51 C-71 64 -79 78 -88 92 C-96 105 -105 117 -114 128 C-117 132 -120 135 -122 138 C-124 140 -126 143 -128 145 C-129 146 -130 147 -130 148 C-131 149 -131 150 -132 150 C-134 153 -136 156 -138 160 C-133 156 -128 152 -124 147 C-123 146 -123 146 -122 145 C-118 140 -114 136 -110 131 C-108 129 -107 127 -105 125 C-94 112 -86 98 -77 84 C-70 74 -64 64 -57 54 C-56 53 -55 52 -55 51 C-37 29 -14 10 15 6.1 C24 5.3 31 5.5 38 9.1 C35 11 33 12 29 13 C15 18 5.3 28 -3.2 40 C-3.9 41 -4.5 41 -5.1 42 C-11 51 -17 59 -22 68 C-36 89 -36 89 -44 98 C-45 99 -45 99 -46 101 C-56 112 -66 121 -78 130 C-78 131 -79 131 -80 132 C-92 141 -105 147 -118 154 C-134 163 -134 163 -149 173 C-149 173 -150 172 -151 172 C-150 171 -149 170 -149 169 C-149 169 -149 170 -150 170 C-157 176 -165 183 -173 188 C-177 191 -182 195 -186 198 C-186 198 -187 197 -188 197 C-187 196 -186 195 -186 194 C-171 175 -161 153 -152 130 C-143 106 -133 83 -119 62 C-118 61 -117 60 -117 59 C-112 54 -108 48 -103 43 C-102 43 -101 42 -101 41 C-80 19 -48 5.9 -18 1.1 C-17 0.9 -15 0.8 -14 0.6 C-9.6 0.0 -4.8 -0.0 0 0 Z " fill="#F1F3EA" transform="translate(403.625,124.875)"/><path d="M0 0 C5.4 11 -4.4 39 -8.0 49 C-13 62 -19 74 -29 84 C-30 85 -30 85 -31 86 C-41 96 -55 101 -69 101 C-73 101 -77 101 -81 100 C-84 99 -86 99 -89 100 C-90 101 -90 102 -91 103 C-91 102 -91 102 -91 101 C-92 101 -92 101 -93 101 C-95 100 -95 100 -96 98 C-96 97 -97 97 -97 96 C-96 96 -96 96 -95 95 C-66 84 -36 65 -24 35 C-23 34 -23 34 -23 33 C-25 33 -25 33 -28 34 C-29 35 -29 37 -30 38 C-31 39 -32 40 -33 41 C-33 42 -34 43 -34 43 C-35 44 -36 45 -36 45 C-37 46 -37 47 -38 47 C-44 54 -50 60 -57 65 C-58 66 -58 66 -59 67 C-63 70 -63 70 -65 70 C-65 69 -64 67 -64 66 C-63 65 -63 64 -63 63 C-62 61 -62 59 -61 58 C-59 51 -59 45 -59 38 C-61 40 -62 42 -62 45 C-63 46 -63 47 -63 48 C-64 49 -64 50 -64 51 C-71 75 -71 75 -82 81 C-92 86 -92 86 -97 86 C-97 69 -93 53 -82 40 C-80 39 -79 37 -77 36 C-76 35 -76 35 -75 34 C-64 23 -48 18 -32 14 C-27 12 -21 10 -15 8.3 C-15 8.1 -14 7.8 -13 7.5 C-8.1 5.7 -4.2 3.2 0 0 Z " fill="#81B48B" transform="translate(561,437)"/><path d="M0 0 C0 3.9 -1.2 4.7 -3.8 7.6 C-31 40 -42 83 -39 124 C-37 147 -28 170 -12 186 C-10 188 -10 188 -10 190 C-9.4 190 -8.8 191 -8.2 191 C-6.1 192 -4.6 193 -2.8 195 C1.1 198 5.4 201 10 203 C4.7 205 -0.3 201 -5.1 199 C-10 196 -15 193 -19 190 C-20 189 -21 189 -22 188 C-44 171 -58 150 -66 123 C-66 122 -67 121 -67 120 C-69 114 -68 108 -68 102 C-68 100 -68 97 -68 95 C-69 82 -66 71 -61 59 C-60 58 -60 57 -60 57 C-52 40 -40 27 -24 17 C-19 13 -14 10 -8.7 6.5 C-7.9 6.0 -7.2 5.4 -6.4 4.9 C-3.1 2.6 -3.1 2.6 0 0 Z " fill="#F0F3EA" transform="translate(360,355)"/><path d="M0 0 C-2.7 1.5 -5.2 2.4 -8.2 3.0 C-39 9.5 -66 22 -89 44 C-90 45 -90 45 -91 46 C-103 57 -111 71 -119 85 C-119 86 -120 86 -120 87 C-128 101 -134 115 -139 130 C-157 175 -157 175 -169 189 C-170 187 -170 187 -169 185 C-169 184 -169 183 -168 182 C-166 175 -165 169 -164 162 C-163 161 -163 160 -163 159 C-162 152 -161 145 -160 138 C-153 96 -138 55 -103 28 C-99 26 -96 24 -93 22 C-92 22 -92 21 -91 21 C-75 11 -58 4.5 -39 1 C-38 0.8 -37 0.6 -36 0.3 C-24 -1.6 -11 -2.3 0 0 Z " fill="#F0F3EA" transform="translate(388,120)"/><path d="M0 0 C1.2 0.0 1.2 0.0 2.5 0.0 C10 0.3 18 1.7 25 3.1 C34 4.7 43 6.2 52 4.0 C53 3.6 53 3.6 55 4.6 C55 5.2 55 5.9 55 6.6 C56 6.6 57 6.6 57 6.6 C57 7.9 57 9.2 57 11 C44 16 31 13 17 10 C8.7 8.5 -0.9 6.6 -9 10 C-17 18 -20 27 -23 38 C-23 39 -23 40 -24 41 C-27 55 -27 70 -24 84 C-23 87 -23 90 -24 93 C-25 92 -26 92 -27 92 C-28 89 -28 87 -29 84 C-29 84 -30 83 -30 82 C-36 60 -35 36 -24 15 C-18 5.4 -11 -0.4 0 0 Z " fill="#21613F" transform="translate(426.5625,408.4375)"/><path d="M0 0 C7.1 0.2 11 3.4 16 8 C17 8.6 17 9.1 18 9.7 C27 18 32 29 35 41 C35 42 36 43 36 44 C37 49 37 54 37 59 C37 60 37 60 37 62 C37 73 35 82 31 93 C31 94 31 94 30 95 C30 97 30 97 28 100 C26 101 26 101 24 101 C25 97 26 93 27 89 C27 89 27 88 27 87 C28 85 29 83 29 81 C34 63 30 42 21 26 C15 17 7.4 10 -1 4 C-0.7 2.7 -0.3 1.4 0 0 Z " fill="#1C5B37" transform="translate(485,165)"/><path d="M0 0 C0.3 0 0.7 0 1 0 C-1.8 31 -10 60 -31 84 C-31 85 -32 85 -32 86 C-36 89 -39 93 -42 96 C-43 98 -44 99 -45 100 C-47 102 -47 102 -50 105 C-53 105 -53 105 -55 104 C-55 103 -56 102 -56 101 C-55 100 -55 100 -54 99 C-24 73 -9.7 39 0 0 Z " fill="#24613E" transform="translate(404,177)"/><path d="M0 0 C0.5 1.0 0.5 1.0 1 2 C1.7 2.3 2.3 2.7 3 3 C0.4 15 -7.6 23 -15 32 C-15 33 -16 33 -16 34 C-25 44 -34 54 -44 64 C-45 64 -45 63 -46 63 C-44 58 -41 54 -38 50 C-37 49 -35 47 -34 46 C-33 45 -33 45 -33 44 C-30 41 -28 38 -25 35 C-23 33 -22 31 -20 29 C-9.0 15 -9.0 15 0 0 Z " fill="#225E3A" transform="translate(311,222)"/><path d="M0 0 C0.3 0.7 0.7 1.3 1 2 C0.2 4.0 0.2 4.0 -1.1 6.6 C-11 27 -12 49 -13 71 C-13 71 -14 71 -14 71 C-14 64 -15 58 -15 51 C-16 51 -18 51 -19 51 C-19 52 -19 52 -19 53 C-20 55 -20 55 -22 56 C-23 56 -23 57 -24 57 C-22 39 -13 13 0 0 Z " fill="#F1F5EC" transform="translate(188,365)"/><path d="M0 0 C0.7 1.0 1.3 2.0 2 3 C2.4 3.6 2.7 4.1 3.1 4.7 C4.4 8.2 4.2 12 4.1 15 C4.1 16 4.1 17 4.1 18 C4.1 21 4.0 25 4.0 28 C3.8 41 3.8 41 5.6 54 C6.1 57 6.1 60 6 63 C5.0 63 4.0 62 3 62 C2.0 60 1.2 57 0.4 55 C0.2 54 0.0 53 -0.2 53 C-5.5 34 -5.0 18 0 0 Z " fill="#255A3B" transform="translate(397,438)"/><path d="M0 0 C0.3 0.7 0.7 1.3 1 2 C1.7 2 2.3 2 3 2 C3.3 3.0 3.7 4.0 4 5 C3.3 5 2.7 5 2 5 C2.3 6.9 2.3 6.9 2.7 8.9 C3.2 14 2.6 18 1.6 23 C-1.0 36 -0.8 50 -1 64 C-2.3 64 -3.6 63 -5 63 C-6.8 57 -6.2 51 -6.2 44 C-6.3 44 -6.3 43 -6.3 42 C-6.2 32 -5.6 21 -3 11 C-2.7 9.9 -2.4 8.7 -2.1 7.5 C-1.5 5.0 -0.8 2.5 0 0 Z " fill="#366B4C" transform="translate(181,384)"/><path d="M0 0 C2.2 0.9 2.2 0.9 3.2 1.9 C3.3 3.6 3.4 5.4 3.4 7.2 C3.4 8.2 3.4 9.1 3.4 10 C3.2 13 2.5 14 1.2 17 C0.9 19 0.6 20 0.4 22 C-0.1 25 -0.1 25 -0.8 27 C-3.4 28 -3.4 28 -5.8 29 C-7.0 23 -6.6 18 -5.8 12 C-8.1 14 -10 15 -13 17 C-13 16 -13 16 -14 15 C-16 14 -16 14 -19 14 C-20 13 -20 13 -22 13 C-22 13 -23 13 -24 13 C-21 11 -18 9.5 -15 8.1 C-11 6.3 -8.3 4.7 -5.4 1.9 C-2.8 -0.1 -2.8 -0.1 0 0 Z " fill="#226942" transform="translate(566.8125,426.125)"/><path d="M0 0 C-1.5 3.3 -3.4 6.3 -5.3 9.3 C-12 20 -19 31 -23 43 C-24 43 -24 42 -25 42 C-26 40 -26 40 -26 37 C-26 34 -26 34 -28 31 C-29 31 -30 31 -31 31 C-8.7 0 -8.7 0 0 0 Z M-25 36 C-24 38 -24 38 -24 38 Z " fill="#E5EFE4" transform="translate(387,339)"/><path d="M0 0 C1.6 0.7 3.3 1.3 5 2 C3.3 7.0 0.5 11 -2.4 16 C-2.9 17 -3.4 17 -4.0 18 C-7.8 24 -12 30 -16 36 C-16 37 -17 38 -17 38 C-18 39 -18 40 -19 41 C-19 41 -19 42 -20 43 C-21 44 -21 44 -23 45 C-23 44 -22 44 -22 43 C-20 39 -20 39 -21 34 C-21 31 -20 30 -19 28 C-18 27 -18 26 -17 25 C-17 25 -16 24 -16 23 C-15 22 -14 21 -14 20 C-12 18 -11 15 -9 13 C-8.2 12 -7.3 10 -6.5 9.1 C-1.3 1.3 -1.3 1.3 0 0 Z " fill="#1D5B37" transform="translate(333,189)"/><path d="M0 0 C0.7 1.0 1.3 2.0 2 3 C3.0 2.3 4.0 1.7 5 1 C5 2.0 5 3.0 5 4 C5.7 2.7 6.3 1.4 7 0 C8.2 6.5 7.6 12 6.2 18 C6.0 19 5.8 20 5.6 21 C4.7 25 3.6 30 2 34 C-0.3 34 -2.6 34 -5 34 C-6.1 31 -5.9 30 -5.0 26 C-4.7 25 -4.7 25 -4.4 23 C-4.1 22 -3.9 21 -3.6 20 C-2.0 14 -0.6 7.0 0 0 Z " fill="#215F3C" transform="translate(219,267)"/><path d="M0 0 C2.8 1.4 3.3 3.6 4.5 6.4 C10.0 19 18 30 28 39 C29 40 30 41 31 42 C32 43 32 43 33 44 C28 43 25 40 22 36 C21 36 21 35 20 35 C18 32 16 30 14 27 C13 26 13 26 12 25 C10 25 8.7 25 7 25 C9.3 28 12 31 14 34 C14 35 13 35 13 36 C6.6 29 -0.5 21 -2 12 C-2.4 11 -2.7 9.2 -3.1 7.9 C-4 4 -4 4 -3 1 C-2.3 1.7 -1.7 2.3 -1 3 C-0.7 2.0 -0.3 1.0 0 0 Z " fill="#1F5C3A" transform="translate(369,469)"/><path d="M0 0 C1.0 0.3 2.0 0.7 3 1 C5.6 0.6 5.6 0.6 8 0 C7.9 3.7 7.9 7.3 7.8 11 C7.7 13 7.7 13 7.7 14 C7.5 21 6.8 26 3 31 C0.2 34 0.2 34 -2 35 C-2.7 35 -3.3 34 -4 34 C-3.7 33 -3.3 33 -3 32 C-3.7 32 -4.3 32 -5 32 C-5 31 -5 31 -5 30 C-5.7 30 -6.3 29 -7 29 C-5.1 27 -5.1 27 -3.2 25 C-1.0 22 -0.8 20 -0.7 16 C-0.6 15 -0.6 14 -0.6 13 C-0.5 12 -0.5 11 -0.4 10 C-0.4 9.4 -0.4 8.4 -0.3 7.4 C-0.2 4.9 -0.1 2.5 0 0 Z " fill="#1A5938" transform="translate(487,383)"/><path d="M0 0 C0.8 1.7 0.8 1.7 1 4 C-0.5 6.1 -1.9 7.7 -3.7 9.5 C-4.2 10 -4.7 11 -5.2 11 C-6.2 12 -7.3 13 -8.4 14 C-10.0 16 -12 18 -13 19 C-14 20 -15 22 -16 23 C-17 23 -17 24 -18 24 C-21 27 -23 29 -27 30 C-27 29 -27 29 -27 28 C-28 28 -28 27 -29 27 C-27 25 -26 23 -24 21 C-25 21 -25 21 -26 21 C-26 19 -26 19 -25 18 C-24 17 -24 17 -23 16 C-22 15 -22 15 -21 14 C-19 13 -19 13 -17 12 C-13 11 -12 8.7 -9.3 5.9 C-4.2 0 -4.2 0 0 0 Z " fill="#1A5D36" transform="translate(364,225)"/><path d="M0 0 C0.3 0 0.7 0 1 0 C0.7 12 0.3 24 0 36 C-2.6 33 -2.5 32 -3 28 C-3.7 28 -4.3 29 -5 29 C-5.4 31 -5.7 34 -6 36 C-8.2 32 -8.3 30 -8.3 26 C-8.3 24 -8.3 23 -8.3 22 C-8.3 21 -8.3 19 -8.2 18 C-8.3 17 -8.3 15 -8.3 14 C-8.3 13 -8.3 11 -8.3 10 C-8.3 9.0 -8.3 7.9 -8.3 6.7 C-8 4 -8 4 -6 2 C-5.0 2.7 -4.0 3.3 -3 4 C-2.3 3.0 -2.3 3.0 -1.6 2 C-1.0 1.3 -0.5 0.7 0 0 Z " fill="#1B5B39" transform="translate(243,479)"/><path d="M0 0 C-2.8 1.5 -5.4 2.5 -8.6 3.1 C-9.5 3.3 -10 3.5 -11 3.8 C-12 4.0 -13 4.2 -14 4.4 C-21 5.9 -28 7.7 -34 10 C-36 11 -36 11 -38 11 C-38 9.0 -37 7.0 -37 5 C-39 5.7 -40 6.3 -42 7 C-42 6.0 -43 5.0 -43 4 C-44 3.3 -44 2.7 -45 2 C-30 -0.6 -15 -2.9 0 0 Z " fill="#ECF6E9" transform="translate(388,120)"/><path d="M0 0 C0.3 0.7 0.7 1.3 1 2 C1.7 2 2.3 2 3 2 C3 3.0 3 4.0 3 5 C3.7 5 4.3 5 5 5 C5.0 8.0 5.0 8.0 4.9 11 C4.9 13 4.9 13 6 15 C5.6 17 5.6 17 4.8 19 C4.4 20 4.4 20 4.0 21 C3.7 22 3.4 23 3.1 24 C2.8 24 2.5 25 2.2 26 C1.5 28 0.7 30 0 32 C-1.1 32 -2.2 32 -3.4 32 C-6.7 31 -6.7 31 -9 31 C-8.8 30 -8.6 30 -8.5 29 C-6.5 23 -4.6 16 -2.8 9.9 C-2.5 8.9 -2.3 8.0 -2.0 7.0 C-1.3 4.7 -0.7 2.3 0 0 Z " fill="#20653F" transform="translate(468,207)"/><path d="M0 0 C0.3 0 0.7 0 1 0 C1.1 0.6 1.2 1.3 1.4 1.9 C1.5 2.7 1.7 3.5 1.9 4.4 C2.1 5.6 2.1 5.6 2.4 6.8 C2.9 9.2 2.9 9.2 5 11 C5.4 13 5.7 16 6 18 C5.3 18 4.7 18 4 18 C3.3 19 2.7 21 2 22 C1.3 22 0.7 22 0 22 C-0.3 23 -0.7 24 -1 25 C-1.7 26 -2.3 26 -3 27 C-3.3 28 -3.7 28 -4 29 C-11 29 -18 29 -25 29 C-25 28 -24 26 -24 25 C-21 25 -19 25 -16 25 C-16 24 -17 23 -17 22 C-16 22 -15 22 -13 22 C-10 21 -7.8 21 -5 19 C-3.3 18 -1.7 18 0 17 C-0.2 16 -0.2 16 -0.5 15 C-1.1 12 -1.1 9.8 -1.1 6.8 C-1.1 5.7 -1.1 4.7 -1.1 3.6 C-1 1 -1 1 0 0 Z " fill="#276745" transform="translate(459,506)"/><path d="M0 0 C1.0 0.3 2.0 0.7 3 1 C1.7 2.3 0.4 3.6 -1 5 C-0.3 5.3 0.3 5.7 1 6 C0.1 6.8 -0.8 7.5 -1.7 8.3 C-11 16 -20 24 -28 34 C-28 33 -28 33 -29 31 C-30 32 -32 33 -33 34 C-32 29 -29 26 -25 23 C-25 22 -24 22 -24 21 C-23 20 -22 19 -20 18 C-19 16 -18 15 -17 14 C-12 8.4 -6.3 3.6 0 0 Z " fill="#1D5633" transform="translate(317,148)"/><path d="M0 0 C0.7 0 1.3 0 2 0 C2.4 16 1.4 30 -3.9 45 C-4.3 46 -4.3 46 -4.7 47 C-5.4 49 -5.4 49 -7 52 C-9.2 53 -9.2 53 -11 53 C-10 49 -9.0 45 -8.1 41 C-7.9 41 -7.7 40 -7.5 39 C-7.2 38 -6.8 36 -6.4 35 C-5.1 30 -4.6 25 -4.4 20 C-4.3 19 -4.3 18 -4.3 18 C-4.2 16 -4.1 14 -4 12 C-3.0 13 -2.0 15 -1 16 C-0.7 11 -0.3 5.4 0 0 Z " fill="#2C6142" transform="translate(520,213)"/><path d="M0 0 C1.3 0.7 2.6 1.3 4 2 C-0.8 8.4 -6.7 12 -14 16 C-14 17 -15 17 -16 18 C-23 22 -23 22 -27 21 C-27 20 -27 19 -27 18 C-28 18 -28 17 -29 17 C-28 17 -28 16 -27 16 C-25 15 -22 13 -20 12 C-19 11 -18 11 -17 10 C-11 7.2 -5.5 3.8 0 0 Z " fill="#25623E" transform="translate(366,295)"/><path d="M0 0 C0.4 0.7 0.9 1.3 1.3 2 C2.1 3.0 2.1 3.0 3 4 C4.0 4 5.0 4 6 4 C6.7 3.3 7.3 2.7 8 2 C9.0 2 10.0 2 11 2 C9.5 5.6 7.4 7.9 4.6 11 C3.8 11 3.0 12 2.2 13 C1.1 14 1.1 14 0 15 C-1.6 17 -3.0 18 -4.4 20 C-6 21 -6 21 -8.7 21 C-9.5 20 -10 20 -11 20 C-11 19 -12 18 -12 17 C-10 15 -8.9 12 -7.2 10 C-6.3 8.8 -5.3 7.5 -4.4 6.2 C-4.0 5.7 -3.6 5.1 -3.2 4.6 C-2.1 3.1 -1.0 1.5 0 0 Z " fill="#1F603D" transform="translate(234,376)"/><path d="M0 0 C3 2 3 2 3.5 3.9 C3.7 6.0 3.8 8.0 4 10 C4.3 10 4.7 10 5 10 C5.0 11 5.1 11 5.1 12 C5.2 14 5.3 17 5.4 20 C5.5 21 5.5 22 5.6 23 C5.9 29 6.3 35 6.9 41 C7.0 43 6.6 45 6 48 C0.7 43 0.6 39 0 32 C-0.2 26 -0.2 21 -0.1 15 C-0.1 14 -0.1 12 -0.1 11 C-0.1 7.2 -0.0 3.6 0 0 Z " fill="#3D6A50" transform="translate(320,447)"/><path d="M0 0 C0.7 0.1 1.5 0.2 2.2 0.3 C2.6 1.3 2.9 2.3 3.2 3.3 C2.3 4.4 2.3 4.4 1.3 5.4 C0.4 6.4 -0.4 7.3 -1.3 8.3 C-1.8 8.8 -2.3 9.3 -2.7 9.8 C-5.4 13 -7.9 16 -10 19 C-14 22 -17 25 -21 28 C-21 27 -22 26 -23 24 C-20 21 -17 17 -14 13 C-12 12 -11 10 -9.6 8.4 C-8.8 7.4 -8.0 6.4 -7.2 5.4 C-6.5 4.4 -5.8 3.5 -5.0 2.5 C-2.8 0.3 -2.8 0.3 0 0 Z " fill="#25603C" transform="translate(421.77734375,247.68359375)"/><path d="M0 0 C0 0.7 0 1.3 0 2 C0.7 2 1.3 2 2 2 C2 3.3 2 4.6 2 6 C-8.9 11 -21 10.0 -32 7 C-32 6.3 -31 5.7 -31 5 C-27 5.3 -23 5.7 -19 6 C-19 5.3 -19 4.7 -19 4 C-18 3.7 -18 3.3 -17 3 C-18 2.3 -19 1.7 -20 1 C-19 0.9 -18 0.9 -17 0.8 C-16 0.7 -14 0.6 -13 0.6 C-12 0.5 -11 0.4 -9.4 0.3 C-1.3 -0.4 -1.3 -0.4 0 0 Z " fill="#256B47" transform="translate(482,413)"/><path d="M0 0 C0.7 0 1.3 0 2 0 C2.9 3.1 2.9 3.1 3 7 C1.0 9.3 -0.6 11 -3 13 C-3.6 13 -4.2 14 -4.8 14 C-6.5 15 -8.3 17 -10 18 C-11 19 -11 19 -12 20 C-14 21 -15 22 -17 23 C-17 22 -17 20 -17 19 C-18 19 -18 18 -19 18 C-16 13 -13 9.7 -7.8 6.2 C-6.5 5.2 -5.3 4.3 -4.0 3.3 C-3.0 2.5 -2.0 1.8 -1 1 C-0.7 0.7 -0.3 0.3 0 0 Z " fill="#23623E" transform="translate(294,320)"/><path d="M0 0 C1.6 0.3 3.3 0.7 5 1 C6.5 5.7 5.4 8.6 3.7 13 C3.2 14 2.8 15 2.3 17 C1.3 19 0.3 22 -1 24 C-2.0 24 -3.0 24 -4 24 C-4.3 25 -4.7 25 -5 26 C-5 24 -5 21 -5 19 C-5.7 19 -6.3 19 -7 19 C-5.2 12 -2.9 6.2 0 0 Z " fill="#256745" transform="translate(294,408)"/><path d="M0 0 C0.2 0.6 0.5 1.3 0.8 1.9 C1.8 4.2 1.8 4.2 4.1 4.6 C4.7 4.8 5.3 4.9 6 5 C4.4 5.9 4.4 5.9 2.8 6.8 C-9.6 14 -21 21 -32 31 C-33 31 -33 30 -34 30 C-29 25 -24 20 -18 15 C-17 15 -17 14 -16 14 C-5.6 4.4 -5.6 4.4 0 0 Z M2 1 C4 2 4 2 4 2 Z " fill="#E5F3E6" transform="translate(293,329)"/><path d="M0 0 C0.3 0 0.7 0 1 0 C0.4 7.2 -0.6 14 -1.8 21 C-2.0 22 -2.2 23 -2.3 24 C-3.6 32 -5.3 38 -8 45 C-9.0 45 -10.0 44 -11 44 C-11 45 -12 46 -12 47 C-13 47 -13 46 -14 46 C-12 40 -11 35 -8.7 30 C-5.2 20 -2.6 10 0 0 Z " fill="#2C6143" transform="translate(404,177)"/><path d="M0 0 C3.4 2.8 4.8 6.5 6.6 10 C12 21 18 30 25 38 C26 40 26 40 26 43 C16 40 8.6 29 3 20 C2.2 18 2.2 18 2 16 C3.3 17 4.7 19 6 20 C6.9 21 7.7 22 8.6 22 C11 25 12 26 13 29 C14 29 14 30 15 30 C14 29 14 28 13 27 C9.6 21 5.9 15 2.4 8.8 C1.7 7.6 1.7 7.6 1.0 6.3 C0 4 0 4 0 0 Z " fill="#285B3B" transform="translate(171,493)"/><path d="M0 0 C1.2 1.6 1.2 1.6 2 4 C0.9 6.4 -0.2 8.4 -1.6 11 C-2.3 12 -3.1 13 -3.8 14 C-4.2 15 -4.6 16 -5.0 16 C-6.9 20 -8.4 23 -9.9 27 C-11 29 -11 29 -14 30 C-15 30 -16 29 -17 29 C-15 24 -13 19 -10 14 C-10 14 -9.7 13 -9.3 12 C-7.6 8.9 -6.0 5.9 -4 3 C-3.0 3 -2.0 3 -1 3 C-0.7 2.0 -0.3 1.0 0 0 Z " fill="#2A6242" transform="translate(350,372)"/><path d="M0 0 C-0.7 0.3 -1.3 0.7 -2.0 1.0 C-16 8.4 -30 18 -39 32 C-40 34 -40 34 -42 36 C-41 26 -33 18 -25 11 C-6.6 -2.4 -6.6 -2.4 0 0 Z " fill="#E4F6E7" transform="translate(513,458)"/><path d="M0 0 C1.1 0.1 2.2 0.3 3.3 0.4 C8.5 1.1 14 1.6 19 2.1 C20 2.2 21 2.2 22 2.3 C24 2.6 27 2.8 29 3 C29 3.3 29 3.7 29 4 C25 4.5 25 4.5 20 5 C22 5.5 22 5.5 25 6 C25 6.3 25 6.7 25 7 C23 7.2 21 7.4 20 7.6 C18 7.7 18 7.7 17 7.9 C14 8 14 8 12 7 C12 8.0 11 9.0 11 10 C5.7 9.6 1.0 8.9 -4 7 C-3.3 6.3 -2.7 5.7 -2 5 C0.1 5.4 0.1 5.4 2 6 C2 4.7 2 3.4 2 2 C1.3 1.3 0.7 0.7 0 0 Z " fill="#1D5637" transform="translate(423,524)"/><path d="M0 0 C0.3 0 0.7 0 1 0 C1.3 4.3 1.7 8.6 2 13 C2.3 13 2.7 13 3 13 C3.3 16 3.7 18 4 21 C4.3 19 4.7 17 5 15 C5.3 15 5.7 15 6 15 C6.1 16 6.1 16 6.1 17 C6.2 18 6.3 19 6.4 19 C6.5 21 6.5 21 6.6 22 C6.8 24 6.8 24 9 26 C9.0 28 9.0 28 8.6 31 C8.5 32 8.5 32 8.3 34 C8.2 35 8.1 35 8 36 C7.3 35 6.7 35 6 34 C5.7 35 5.3 35 5 36 C4.3 36 3.7 36 3 36 C2.7 37 2.3 38 2 39 C-0.9 26 -0.2 13 0 0 Z " fill="#286946" transform="translate(196,465)"/><path d="M0 0 C1.0 1.0 2.0 2.0 3 3 C2.8 3.7 2.6 4.3 2.4 5.0 C0.2 12 -1.4 18 0 25 C0.0 27 0.0 30 0 32 C-1.0 32 -2.0 31 -3 31 C-3.3 30 -3.7 30 -4 29 C-4.7 31 -5.3 33 -6 35 C-8.9 31 -7.9 27 -7 22 C-6.0 18 -4.7 14 -3.4 10 C-3.1 9.4 -2.8 8.4 -2.4 7.3 C-1.6 4.9 -0.8 2.4 0 0 Z " fill="#266845" transform="translate(206,424)"/><path d="M0 0 C2.9 1.9 5.0 4.1 7.4 6.6 C8.3 7.5 9.2 8.4 10 9.4 C13 13 13 15 12 19 C8.6 19 7.2 18 4.5 16 C2.2 13 1.4 12 0.1 8.4 C-0.7 7.3 -1.6 6.2 -2.5 5.2 C-4.9 2.4 -4.9 2.4 -4.9 0.4 C-1.9 -0.6 -1.9 -0.6 0 0 Z " fill="#1E6C44" transform="translate(380.859375,493.61328125)"/><path d="M0 0 C1.0 0 2.0 0 3 0 C5.0 5.9 2.7 11 0.4 17 C-0.1 18 -0.6 19 -1.0 20 C-3 23 -3 23 -6.7 24 C-7.8 24 -8.9 24 -10 24 C-8.4 19 -6.2 14 -3.9 8.6 C-3.5 7.8 -3.1 7.0 -2.7 6.1 C-1.8 4.1 -0.9 2.0 0 0 Z " fill="#276141" transform="translate(242,264)"/><path d="M0 0 C0.3 0 0.7 0 1 0 C1 3.0 1 5.9 1 9 C0.0 9.5 0.0 9.5 -1 10 C-1.8 12 -1.8 12 -2.5 15 C-2.9 16 -2.9 16 -3.3 18 C-3.6 19 -3.8 20 -4.1 21 C-4.4 22 -4.7 23 -5.0 24 C-5.7 26 -6.3 29 -7 31 C-7.8 28 -8.1 25 -8 22 C-8.7 22 -9.3 22 -10 22 C-10 21 -10 20 -10 19 C-11 19 -12 19 -13 19 C-3.6 4.8 -3.6 4.8 0 0 Z " fill="#E3EFE0" transform="translate(405,170)"/><path d="M0 0 C2.0 0 4.0 0 6 0 C8.0 7.4 8.1 14 7.6 22 C7.6 23 7.5 24 7.5 25 C7.3 28 7.2 30 7 33 C4 31 4 31 3.4 29 C3.3 28 3.2 27 3.1 26 C2.9 24 2.9 24 2.7 23 C2.5 21 2.5 21 2.4 19 C2.1 17 1.9 15 1.6 13 C1.5 12 1.4 11 1.3 9.8 C0.9 6.5 0.5 3.3 0 0 Z " fill="#165531" transform="translate(513,204)"/><path d="M0 0 C0.7 1.0 1.3 2.0 2 3 C2.4 3.6 2.7 4.1 3.1 4.7 C4.4 8.1 4.2 12 4.1 15 C4.1 16 4.1 17 4.1 18 C4.1 19 4.0 21 4 23 C2.0 24 0.0 24 -2 25 C-2.3 28 -2.7 30 -3 33 C-3.3 33 -3.7 33 -4 33 C-4.6 21 -3.1 11 0 0 Z " fill="#226B45" transform="translate(397,438)"/><path d="M0 0 C0.7 0.3 1.3 0.7 2 1 C2.6 10 1.1 17 -2 26 C-2.3 25 -2.7 24 -3 23 C-4.0 23 -5.0 24 -6 24 C-7.1 21 -6.9 19 -5.8 15 C-5.4 14 -5.4 14 -5.0 13 C-4.7 12 -4.4 11 -4.1 10 C-3.8 9.4 -3.6 8.6 -3.3 7.6 C-1.2 1.2 -1.2 1.2 0 0 Z " fill="#22683F" transform="translate(501,474)"/><path d="M0 0 C0.3 0.7 0.7 1.3 1 2 C0.2 4.0 0.2 4.0 -1.1 6.6 C-4.7 14 -6.8 22 -9 30 C-10 30 -12 30 -13 30 C-14 29 -14 29 -15 28 C-15 24 -14 22 -12 19 C-11 18 -11 17 -11 16 C-10 16 -9.7 15 -9.2 14 C-8.7 13 -8.3 12 -7.9 12 C-5.5 7.4 -3.1 3.6 0 0 Z " fill="#E4F0E3" transform="translate(188,365)"/><path d="M0 0 C-0.6 3.9 -2.5 6.2 -4.9 9.2 C-6.0 11 -6.0 11 -7.1 12 C-9 14 -9 14 -11 15 C-11 14 -10 12 -10 11 C-11 12 -11 12 -12 13 C-18 19 -23 24 -29 30 C-29 27 -29 27 -27 25 C-26 24 -25 23 -24 22 C-18 17 -14 11 -9.7 5.5 C-4.0 -2.0 -4.0 -2.0 0 0 Z " fill="#1F5837" transform="translate(381,248)"/><path d="M0 0 C1.6 0.3 3.2 0.5 4.8 0.8 C6.2 1.0 6.2 1.0 7.5 1.3 C10 2.1 11 2.8 13 5 C14 7.7 14 7.7 14 10 C11 11 8.5 11 5.2 9.6 C3.9 8.9 2.5 8.2 1.2 7.6 C0.5 7.2 -0.2 6.9 -0.9 6.5 C-2.6 5.7 -4.3 4.9 -6 4 C-5.0 3.0 -4.0 2.0 -3 1 C-2.0 1.3 -1.0 1.7 0 2 C0 1.3 0 0.7 0 0 Z " fill="#216D46" transform="translate(354,555)"/><path d="M0 0 C0.8 1.6 0.8 1.6 1 4 C-0.6 6.1 -2.1 7.9 -4 9.8 C-4.8 11 -4.8 11 -5.5 11 C-7.0 13 -8.5 14 -10 16 C-11 17 -12 18 -12 18 C-14 20 -15 21 -17 23 C-18 23 -18 22 -19 22 C-19 22 -18 21 -18 21 C-16 18 -15 16 -14 13 C-12 11 -12 11 -11 9 C-10 9 -9.7 9 -9 9 C-8.8 8.4 -8.5 7.9 -8.3 7.3 C-6.5 4.1 -3.9 0 0 0 Z " fill="#155531" transform="translate(364,225)"/><path d="M0 0 C-0.3 2.0 -0.7 4.0 -1 6 C0.1 5.3 1.2 4.6 2.4 3.9 C4.3 2.8 4.3 2.8 6 2 C6.7 2.3 7.3 2.7 8 3 C6.6 4.0 5.2 4.9 3.8 5.9 C2.6 6.7 2.6 6.7 1.5 7.5 C-1.0 9.0 -3.2 10 -6 11 C-7.0 11 -8.0 10 -9 10 C-7.7 9.7 -6.4 9.3 -5 9 C-5.3 7.3 -5.7 5.7 -6 4 C-6.7 4.3 -7.5 4.6 -8.2 4.9 C-18 8.2 -26 8.4 -36 8 C-36 7.7 -36 7.3 -36 7 C-35 7.0 -34 6.9 -33 6.9 C-24 6.4 -16 5.1 -7.1 1.3 C-4 0 -4 0 0 0 Z " fill="#185B36" transform="translate(521,531)"/><path d="M0 0 C1.0 0.3 2.0 0.7 3 1 C2.8 1.8 2.7 2.6 2.5 3.4 C1.9 5.9 1.9 5.9 2 8 C2.7 7.3 3.3 6.7 4 6 C2.1 17 2.1 17 0 21 C-0.3 20 -0.7 20 -1 19 C-2.0 19 -3.0 19 -4 19 C-4 18 -4 17 -4 16 C-4.7 16 -5.3 16 -6 16 C-4.9 13 -3.7 9.5 -2.4 6.3 C-2.0 5.1 -1.5 4.0 -1.1 2.7 C-0.7 1.8 -0.4 0.9 0 0 Z " fill="#155833" transform="translate(235,207)"/><path d="M0 0 C0 0.7 0 1.3 0 2 C-1.0 2.5 -1.0 2.5 -2 3 C-1.7 4.7 -1.3 6.3 -1 8 C-6.0 9.5 -6.0 9.5 -11 11 C-11 9.0 -10 7.0 -10 5 C-12 5.7 -13 6.3 -15 7 C-15 6.0 -16 5.0 -16 4 C-17 3.3 -17 2.7 -18 2 C-16 1.7 -14 1.3 -11 1 C-10.0 0.8 -8.7 0.6 -7.5 0.4 C-4 0 -4 0 0 0 Z " fill="#E3F0E3" transform="translate(361,120)"/><path d="M0 0 C0 0.7 0 1.3 0 2 C1.6 2 3.3 2 5 2 C1.7 5.3 -2.6 6.2 -6.9 7.7 C-7.9 8.0 -8.8 8.4 -9.7 8.7 C-11 9.0 -11 9.3 -12 9.6 C-13 9.9 -14 10 -15 11 C-17 11 -17 11 -20 10 C-19 9.6 -19 9.1 -18 8.7 C-16 7.1 -16 7.1 -15 4 C-13 2.8 -13 2.8 -9.7 1.8 C-8.2 1.3 -8.2 1.3 -6.8 0.8 C-4 0 -4 0 0 0 Z " fill="#235939" transform="translate(364,127)"/><path d="M0 0 C0.3 0 0.7 0 1 0 C1.7 10 2.3 20 3 31 C2.3 31 1.7 31 1 31 C0.7 30 0.3 28 0 27 C-0.1 28 -0.1 28 -0.2 29 C-0.3 30 -0.4 30 -0.4 31 C-0.6 32 -0.6 32 -0.7 34 C-1.0 36 -1.4 38 -2 40 C-3.8 36 -4.2 32 -3.8 27 C-3.6 26 -3.6 26 -3.5 24 C-3 21 -3 21 -1 18 C-0.6 16 -0.6 16 -0.6 14 C-0.5 13 -0.5 12 -0.5 11 C-0.4 11 -0.4 9.7 -0.4 8.8 C-0.3 8.0 -0.3 7.1 -0.3 6.3 C-0.2 4.2 -0.1 2.1 0 0 Z " fill="#185533" transform="translate(290,445)"/><path d="M0 0 C0.7 1.0 1.3 2.0 2 3 C1.0 7.8 -1.2 11 -4.4 15 C-5.1 15 -5.9 16 -6.7 17 C-7.5 18 -8.2 19 -9 20 C-10 22 -12 23 -13 25 C-14 25 -16 24 -17 24 C-16 23 -16 23 -15 22 C-9.4 15 -4.6 7.9 0 0 Z " fill="#266440" transform="translate(446,263)"/><path d="M0 0 C0.3 0 0.7 0 1 0 C0.6 7.8 -0.4 16 -3 23 C-3.7 23 -4.3 24 -5 24 C-4.5 20 -4.5 20 -4 15 C-4.7 15 -5.3 15 -6 15 C-6 14 -6 13 -6 12 C-6.7 12 -7.3 12 -8 12 C-8 11 -8 10 -8 9 C-7.0 9 -6.0 9 -5 9 C-4.9 8.4 -4.8 7.8 -4.6 7.2 C-3.8 4.1 -2.2 2.2 0 0 Z " fill="#175734" transform="translate(477,197)"/><path d="M0 0 C1.5 1.0 1.5 1.0 3 2 C3.3 4.9 3.3 4.9 3.3 8.5 C3.3 9.8 3.3 11 3.3 12 C3.2 14 3.2 15 3.2 17 C3.2 18 3.2 19 3.1 21 C3.1 24 3.1 28 3 31 C2.0 31 1.0 32 0 32 C0 21 0 11 0 0 Z " fill="#276240" transform="translate(320,447)"/><path d="M0 0 C0.7 1.3 1.3 2.6 2 4 C2.7 3.0 3.3 2.0 4 1 C4.9 3.6 5.7 6.1 6.6 8.7 C6.8 9.4 7.1 10 7.3 11 C8.6 15 9.4 18 8 22 C7.0 22 6.0 21 5 21 C3.9 19 3.1 16 2.3 14 C2.1 13 1.9 12 1.6 12 C0.3 7.8 -0.2 4.3 0 0 Z " fill="#23583A" transform="translate(323,489)"/><path d="M0 0 C0.7 1.0 1.3 2.0 2 3 C3.3 2.3 4.6 1.7 6 1 C5.1 8.8 5.1 8.8 4 11 C4.0 12 4.0 13 4.1 15 C4.1 19 3.2 23 2 27 C1.7 27 1.3 27 1 27 C1.0 26 1.0 25 1.1 25 C1.1 23 1.1 22 1.1 21 C1.1 20 1.2 19 1.2 18 C1.0 15 0.4 14 -1 11 C-1.4 7.2 -1.2 3.7 0 0 Z " fill="#226341" transform="translate(399,432)"/><path d="M0 0 C0.3 1.0 0.7 2.0 1 3 C-0.3 4.7 -1.6 6.4 -3 8 C-3 8.7 -3 9.3 -3 10 C-4.3 11 -4.3 11 -6.2 13 C-12 18 -18 23 -23 29 C-24 28 -24 28 -25 27 C-25 27 -24 26 -24 26 C-11 13 -11 13 0 0 Z " fill="#DEEFE0" transform="translate(369,223)"/><path d="M0 0 C0.3 0.7 0.7 1.3 1 2 C1.7 2 2.3 2 3 2 C3.3 3.0 3.7 4.0 4 5 C3.3 5 2.7 5 2 5 C2.1 5.7 2.2 6.4 2.3 7.0 C2.4 7.9 2.5 8.8 2.6 9.8 C2.7 11 2.8 12 2.9 12 C3.0 15 2.7 17 2 19 C0.7 19 -0.6 20 -2 20 C-3.3 13 -2.4 7.2 0 0 Z " fill="#2B6443" transform="translate(181,384)"/><path d="M0 0 C1.1 3.4 1.1 4.6 0 8 C-2.3 11 -2.3 11 -5.1 13 C-6.0 14 -6.9 15 -7.8 16 C-8.9 17 -8.9 17 -10 18 C-11 18 -11 17 -12 17 C-11 12 -8.0 9.2 -4.9 5.7 C-4.4 5.1 -3.9 4.6 -3.5 4.0 C-2.3 2.7 -1.2 1.3 0 0 Z " fill="#245838" transform="translate(277,268)"/><path d="M0 0 C0.7 4.6 -1.0 6.9 -3.6 10 C-4.0 11 -4.5 12 -5 12 C-5.5 13 -6.0 14 -6.4 14 C-7.6 16 -8.8 17 -10 19 C-10 16 -10 16 -8.9 14 C-7.7 11 -7.7 11 -8.6 8.5 C-9 6 -9 6 -7.2 3.2 C-4.5 0.5 -3.9 0 0 0 Z " fill="#225E3A" transform="translate(321,215)"/><path d="M0 0 C0.7 1.6 1.3 3.3 2 5 C-3.3 7.1 -8.5 8.7 -14 10 C-14 8.7 -15 7.4 -15 6 C-13 5.0 -11 4.0 -8.6 3 C-7.4 2.4 -6.3 1.9 -5.0 1.3 C-2 0 -2 0 0 0 Z " fill="#2A6140" transform="translate(396,133)"/><path d="M0 0 C0.3 0.7 0.7 1.3 1 2 C-0.4 4.6 -0.4 4.6 -2.3 7.6 C-3.3 9.0 -3.3 9.0 -4.2 11 C-6 13 -6 13 -8 14 C-7.3 12 -6.7 11 -6 9 C-8.3 11 -11 12 -13 14 C-11 9.5 -9.3 5.5 -6 2 C-2.7 0.6 -2.7 0.6 0 0 Z " fill="#195232" transform="translate(231,298)"/><path d="M0 0 C0.7 0 1.3 0 2 0 C2.3 1.6 2.7 3.3 3 5 C3.7 4.0 4.3 3.0 5 2 C5.7 2.3 6.3 2.7 7 3 C-0.1 16 -0.1 16 -5 20 C-3.3 13 -1.7 6.7 0 0 Z " fill="#E0F1E3" transform="translate(223,289)"/><path d="M0 0 C0.3 0 0.7 0 1 0 C0.8 1.3 0.7 2.5 0.5 3.8 C-0.1 9.1 -0.1 14 -0.1 20 C-0.1 20 -0.1 21 -0.0 22 C-0.0 25 -0.0 27 0 29 C-0.7 29 -1.3 30 -2 30 C-3.1 23 -3.1 16 -3 9 C-3.7 9.7 -4.3 10 -5 11 C-4.7 7.7 -4.3 4.4 -4 1 C-3.0 1 -2.0 1 -1 1 C-0.7 0.7 -0.3 0.3 0 0 Z " fill="#EDF6ED" transform="translate(494,254)"/><path d="M0 0 C1.0 0 2.0 0 3 0 C5.7 6.5 6.2 11 5 18 C3.7 18 2.4 17 1 17 C1.0 16 1.0 15 1.0 14 C1.0 13 1.1 12 1.1 11 C1.1 9.6 1.1 8.4 1.1 7.2 C1.0 4.6 0.8 2.5 0 0 Z " fill="#1B643B" transform="translate(476,150)"/><path d="M0 0 C3.4 2.8 4.8 6.5 6.6 10 C11 20 17 29 24 37 C24 38 23 38 23 39 C16 31 10 23 5.0 13 C4.0 11 2.9 9.1 1.7 7.3 C0 4 0 4 0 0 Z " fill="#205032" transform="translate(171,493)"/><path d="M0 0 C4.0 0.6 6.8 2.6 10 5 C12 8.2 12 11 12 15 C11 15 11 14 10 14 C10 13 10 12 10 11 C9.4 11 8.8 10 8.2 10 C5.9 9.0 4.2 7.6 2.2 5.9 C1.6 5.3 1.0 4.8 0.4 4.2 C-0.1 3.8 -0.5 3.4 -1 3 C-0.7 2.0 -0.3 1.0 0 0 Z " fill="#19653B" transform="translate(494,171)"/><path d="M0 0 C0.3 0 0.7 0 1 0 C1.1 0.6 1.2 1.3 1.4 1.9 C1.5 2.7 1.7 3.5 1.9 4.4 C2.0 5.2 2.2 6.0 2.4 6.8 C2.9 9.2 2.9 9.2 5 11 C5.4 13 5.7 16 6 18 C4.3 19 2.7 19 1 20 C0.3 19 -0.3 19 -1 18 C-0.7 18 -0.3 17 0 17 C-0.1 16 -0.3 16 -0.4 15 C-1.1 12 -1.1 9.8 -1.1 6.8 C-1.1 5.7 -1.1 4.7 -1.1 3.6 C-1 1 -1 1 0 0 Z " fill="#346E4B" transform="translate(459,506)"/><path d="M0 0 C3.1 0.2 3.1 0.2 5.1 2.2 C5.1 3.2 5.1 4.2 5.1 5.2 C0.1 7.7 0.1 7.7 -4.9 10 C-4.9 9.5 -4.9 8.9 -4.9 8.2 C-5.6 8.2 -6.3 8.2 -6.9 8.2 C-6.6 7.2 -6.3 6.2 -5.9 5.2 C-5.3 4.9 -4.6 4.5 -3.9 4.2 C-3.9 3.2 -3.9 2.2 -3.9 1.2 C-2.9 0.2 -2.9 0.2 0 0 Z " fill="#165E36" transform="translate(290.9375,276.8125)"/><path d="M0 0 C2.5 1.0 2.5 1.0 5 2 C3.7 5.6 2.1 8.6 -0.1 12 C-0.7 13 -1.2 13 -1.8 14 C-2.2 15 -2.6 15 -3 16 C-3.3 15 -3.7 15 -4 14 C-2.6 11 -2.6 11 -1 9 C-2.3 9.3 -3.6 9.7 -5 10 C-4.5 5.6 -2.9 3.3 0 0 Z " fill="#195331" transform="translate(333,189)"/><path d="M0 0 C0.3 0 0.7 0 1 0 C1 3.0 1 5.9 1 9 C0.0 9.5 0.0 9.5 -1 10 C-1.7 12 -1.7 12 -2.1 14 C-2.3 15 -2.5 16 -2.6 16 C-2.8 17 -2.9 17 -3 18 C-5 15 -5 15 -5 13 C-6.7 14 -8.3 14 -10 15 C-8.9 13 -7.8 11 -6.7 9.8 C-6.1 8.8 -5.5 7.8 -4.8 6.8 C-3.3 4.4 -1.8 2.2 0 0 Z " fill="#D0E1D2" transform="translate(405,170)"/><path d="M0 0 C-1.0 0.5 -1.0 0.5 -2 1 C-2.3 2.0 -2.7 3.0 -3 4 C-2.3 4.3 -1.7 4.7 -1 5 C-1.6 5.3 -2.2 5.5 -2.9 5.8 C-5.3 7.0 -5.3 7.0 -7 10 C-7 9.3 -7 8.7 -7 8 C-7.6 7.9 -8.2 7.8 -8.9 7.8 C-11 7 -11 7 -12 5.0 C-12 4.3 -13 3.7 -13 3 C-11 2.3 -9.8 1.6 -8.2 0.9 C-7.3 0.6 -6.4 0.2 -5.5 -0.2 C-3 -1 -3 -1 0 0 Z " fill="#A9C6AA" transform="translate(477,530)"/><path d="M0 0 C0.3 0 0.7 0 1 0 C0.4 11 -0.3 23 -1 34 C-1.3 34 -1.7 34 -2 34 C-2.3 27 -2.7 21 -3 14 C-3.3 14 -3.7 14 -4 14 C-4 11 -4 8.1 -4 5 C-3.0 4.7 -2.0 4.3 -1 4 C-0.3 2.0 -0.3 2.0 0 0 Z " fill="#1E5534" transform="translate(325,439)"/><path d="M0 0 C0.7 0.3 1.3 0.7 2 1 C2.3 2.6 2.7 4.3 3 6 C-1.0 8.6 -4.9 11 -9 14 C-9.7 14 -10 13 -11 13 C-11 13 -10 12 -9.8 12 C-8.1 10 -7.2 8.6 -6.1 6.5 C-4.5 3.6 -2.9 1.8 0 0 Z " fill="#D9EEE0" transform="translate(264,284)"/><path d="M0 0 C0 0.3 0 0.7 0 1 C-1.8 1.2 -3.6 1.4 -5.4 1.6 C-6.9 1.7 -6.9 1.7 -8.4 1.9 C-11 2 -11 2 -13 1 C-13 2.0 -14 3.0 -14 4 C-17 3.5 -17 3.5 -20 3 C-20 2.0 -21 1.0 -21 0 C-13 -2.1 -7.5 -2.9 0 0 Z " fill="#1B5F3D" transform="translate(448,530)"/><path d="M0 0 C0 4.1 -1.7 5.4 -4.3 8.5 C-5.1 9.5 -5.9 10 -6.7 11 C-8.4 13 -10 15 -12 17 C-13 15 -13 12 -14 10 C-13 9.4 -12 8.7 -11 8.1 C-10.0 7.2 -8.8 6.4 -7.6 5.6 C-6.6 4.9 -6.6 4.9 -5.7 4.3 C-2.7 2.3 -2.7 2.3 0 0 Z " fill="#CFE5D6" transform="translate(360,355)"/><path d="M0 0 C0.3 0 0.7 0 1 0 C1.3 2.0 1.7 4.0 2 6 C3.0 6 4.0 6 5 6 C4.7 11 4.3 15 4 20 C3.7 19 3.3 19 3 18 C2.0 18 1.0 18 0 18 C0 12 0 6.1 0 0 Z " fill="#1B5D3B" transform="translate(394,456)"/><path d="M0 0 C1.3 0.7 2.6 1.3 4 2 C4.1 3.5 4.1 4.9 4.1 6.4 C4.1 7.2 4.2 8.0 4.2 8.8 C4 11 4 11 2 13 C-0.1 13 -0.1 13 -2 12 C-1.9 10 -1.7 8.7 -1.6 7.1 C-1.5 6.2 -1.4 5.3 -1.3 4.4 C-1 2 -1 2 0 0 Z " fill="#E6EDE2" transform="translate(566,463)"/><path d="M0 0 C0.3 0 0.7 0 1 0 C1.4 2.8 1.7 5.5 2.1 8.3 C2.2 9.5 2.2 9.5 2.4 11 C2.5 11 2.6 12 2.7 13 C2.7 14 2.8 14 2.9 15 C3 17 3 17 2 20 C1.3 20 0.7 20 0 20 C0 19 0 18 0 17 C-0.7 17 -1.3 17 -2 17 C-2.1 15 -2.1 12 -2.1 9.6 C-2.1 8.9 -2.2 8.2 -2.2 7.5 C-2.2 5.7 -2.1 3.8 -2 2 C-1.3 1.3 -0.7 0.7 0 0 Z " fill="#276443" transform="translate(363,438)"/><path d="M0 0 C0.7 0.3 1.3 0.7 2 1 C2.0 3.6 2.0 6.2 2.1 8.9 C2.1 9.6 2.1 10 2.1 11 C2.1 17 2.1 17 1 19 C1.7 19 2.3 19 3 19 C2.7 21 2.3 23 2 25 C1.3 25 0.7 25 0 25 C-2.4 17 -1.5 7.9 0 0 Z " fill="#1D6C43" transform="translate(360,436)"/><path d="M0 0 C1.0 0 2.0 0 3 0 C2.6 1.1 2.3 2.2 1.9 3.3 C0.7 6.9 0.7 6.9 2 10 C1.3 14 1.3 14 0 17 C-2.1 18 -2.1 18 -4 19 C-3.4 12 -1.9 6.3 0 0 Z " fill="#D9E6D9" transform="translate(168,403)"/><path d="M0 0 C0.3 0.7 0.7 1.3 1 2 C0.1 4.4 0.1 4.4 -1.3 7.2 C-3.1 11 -4.8 15 -6 19 C-7.3 18 -8.6 18 -10 17 C-8.6 13 -6.7 9.8 -4.4 6.2 C-3.8 5.3 -3.2 4.3 -2.6 3.3 C-1 1 -1 1 0 0 Z " fill="#DBF0E0" transform="translate(188,365)"/><path d="M0 0 C2.0 1.0 4.0 2.0 6 3 C2.8 5.6 -0.3 8.1 -4 10 C-5.0 9.7 -6.0 9.3 -7 9 C-5.4 5.2 -3.0 2.8 0 0 Z " fill="#E3F1E3" transform="translate(273,279)"/><path d="M0 0 C8.6 0.7 17 1.3 26 2 C24 4 24 4 21 4.3 C13 4.2 6.3 3.9 -1 2 C-0.7 1.3 -0.3 0.7 0 0 Z " fill="#33674C" transform="translate(451,418)"/><path d="M0 0 C0.3 0 0.7 0 1 0 C1.3 2.0 1.7 4.0 2 6 C3.0 6.3 4.0 6.7 5 7 C4.5 8.0 4.0 8.9 3.5 9.9 C1.9 14 1.8 17 2.0 21 C2.0 24 1.5 28 1 32 C0.7 32 0.3 32 0 32 C0 21 0 11 0 0 Z " fill="#DCEBDC" transform="translate(163,427)"/><path d="M0 0 C0.3 0 0.7 0 1 0 C1 7.6 1 15 1 23 C0.0 23 -1.0 22 -2 22 C-3.5 19 -3.1 15 -3 11 C-2.0 11 -2.0 11 -1 12 C-0.7 8.0 -0.3 4.1 0 0 Z " fill="#28593A" transform="translate(178,425)"/><path d="M0 0 C0.3 0.7 0.7 1.3 1 2 C0.2 3.7 0.2 3.7 -1.0 5.7 C-1.4 6.5 -1.9 7.2 -2.3 8.0 C-2.8 8.7 -3.3 9.5 -3.8 10 C-4.2 11 -4.7 12 -5.1 13 C-6.4 15 -7.7 17 -9 19 C-10 21 -11 22 -12 24 C-13 22 -13 22 -12 19 C-12 18 -11 17 -11 16 C-10 16 -9.7 16 -9 16 C-8.8 15 -8.5 14 -8.3 13 C-7.0 8.5 -4.8 4.7 -2 1 C-1.3 0.7 -0.7 0.3 0 0 Z " fill="#1A4F31" transform="translate(186,365)"/><path d="M0 0 C1.0 0 2.0 0 3 0 C3.7 0.7 4.3 1.3 5 2 C2.7 6.6 0.4 11 -2 16 C-3.1 12 -2.7 10.0 -1.6 5.8 C-1.3 4.7 -1.0 3.6 -0.7 2.5 C-0.5 1.7 -0.2 0.8 0 0 Z " fill="#DDEADD" transform="translate(185,391)"/><path d="M0 0 C1.0 1.5 1.0 1.5 2 3 C3.0 2.3 4.0 1.7 5 1 C5 2.0 5 3.0 5 4 C5.7 2.7 6.3 1.4 7 0 C7.3 2.6 7.7 5.3 8 8 C7.0 8 6.0 8 5 8 C4.0 10.0 3.0 12 2 14 C1.7 14 1.3 14 1 14 C1.0 12 1.1 9.9 1.1 7.8 C1.2 6.0 1.2 6.0 0 5 C-0.0 3.3 -0.0 1.7 0 0 Z " fill="#2D6F4B" transform="translate(219,267)"/><path d="M0 0 C1.0 1.3 2.0 2.6 3 4 C0.5 6.6 -1.6 8.8 -5 10 C-7.2 9.6 -7.2 9.6 -9 9 C-6.3 5.4 -3.6 2.7 0 0 Z " fill="#2A6541" transform="translate(323,144)"/><path d="M0 0 C1.3 0.7 2.6 1.3 4 2 C2.0 4.3 0.0 6.6 -2 9 C-3.6 8.7 -5.3 8.3 -7 8 C-7.3 7.0 -7.7 6.0 -8 5 C-7.2 4.7 -6.5 4.5 -5.7 4.2 C-3.1 3.1 -1.8 2.1 0 0 Z " fill="#2D6945" transform="translate(356,273)"/><path d="M0 0 C1.0 0 2.0 0 3 0 C4.2 6.6 4.2 6.6 2 10 C1.0 10 0.0 10 -1 10 C-2 9 -2 9 -3 6 C-1.5 1.5 -1.5 1.5 0 0 Z " fill="#20663E" transform="translate(224,261)"/><path d="M0 0 C3.4 -0.0 6.8 -0.0 10 -0.1 C11 -0.1 12 -0.1 13 -0.1 C14 -0.1 15 -0.1 16 -0.1 C17 -0.1 17 -0.1 19 -0.1 C21 0.0 23 0.4 26 1 C26 1.7 26 2.3 26 3 C22 3.7 17 4.3 13 5 C14 4.0 15 3.0 16 2 C11 1.7 5.4 1.3 0 1 C0 0.7 0 0.3 0 0 Z " fill="#A5C8B3" transform="translate(393,125)"/><path d="M0 0 C1.0 0.3 2.0 0.7 3 1 C3.6 4.0 4.1 6.9 4 10 C2.1 13 2.1 13 0 14 C-0.7 14 -1.3 13 -2 13 C-1.3 8.7 -0.7 4.4 0 0 Z " fill="#2F6645" transform="translate(323,431)"/><path d="M0 0 C2.6 0 5.3 0 8 0 C8 0.3 8 0.7 8 1 C15 1.3 22 1.7 29 2 C29 2.3 29 2.7 29 3 C19 3.3 9.9 3.7 0 4 C1.0 3.3 2.0 2.7 3 2 C2.0 1.3 1.0 0.7 0 0 Z " fill="#104727" transform="translate(384,122)"/><path d="M0 0 C0.3 0.7 0.7 1.3 1 2 C1.7 2 2.3 2 3 2 C2.7 11 2.3 20 2 29 C1.7 29 1.3 29 1 29 C0.9 27 0.9 27 0.8 25 C0.7 24 0.6 22 0.6 21 C0.5 20 0.5 20 0.4 18 C0.3 15 0.1 12 -0.6 9.2 C-1.2 6.0 -0.6 3.2 0 0 Z " fill="#316549" transform="translate(202,457)"/><path d="M0 0 C0.7 0 1.3 0 2 0 C2.8 2.1 2.8 2.1 3 5 C1.1 8.3 1.1 8.3 -1 11 C-2.6 11 -4.3 10 -6 10 C-5.7 9.0 -5.3 8.0 -5 7 C-2.9 6.3 -2.9 6.3 -1 6 C-0.7 4.0 -0.3 2.0 0 0 Z " fill="#1C6A3C" transform="translate(379,198)"/><path d="M0 0 C0.3 1.6 0.7 3.3 1 5 C-2.0 5.7 -4.9 6.3 -8 7 C-8.3 5.7 -8.7 4.4 -9 3 C-2.2 0 -2.2 0 0 0 Z " fill="#25593B" transform="translate(405,130)"/><path d="M0 0 C0.3 0 0.7 0 1 0 C1.2 1.9 1.4 3.8 1.6 5.7 C1.7 6.7 1.8 7.8 1.9 8.9 C2.0 12 1.7 14 1 17 C-1 16 -1 16 -3 13 C-3.4 10 -3.2 7.8 -3 5 C-2.3 5 -1.7 5 -1 5 C-0.7 3.4 -0.3 1.7 0 0 Z " fill="#34684A" transform="translate(325,478)"/><path d="M0 0 C2.4 1.1 2.4 1.1 5 3 C5.8 6.7 5.8 6.7 6 10 C4.7 10 3.4 10 2 10 C1.7 11 1.3 11 1 12 C1 9.7 1 7.4 1 5 C0.3 5 -0.3 5 -1 5 C-0.7 3.4 -0.3 1.7 0 0 Z " fill="#2E6E4D" transform="translate(288,422)"/><path d="M0 0 C0.3 0 0.7 0 1 0 C0.7 9.9 0.3 20 0 30 C-0.3 30 -0.7 30 -1 30 C-1.1 29 -1.1 28 -1.2 26 C-1.3 25 -1.4 23 -1.4 22 C-1.5 21 -1.5 20 -1.6 19 C-1.6 19 -1.6 18 -1.7 17 C-1.7 16 -1.8 16 -1.8 15 C-2.0 13 -2.0 13 -2.6 11 C-3.2 8.3 -2.5 6.7 -1.6 4.2 C-1.3 3.5 -1.0 2.7 -0.7 1.8 C-0.5 1.2 -0.2 0.6 0 0 Z " fill="#CEE2D3" transform="translate(175,406)"/><path d="M0 0 C4.4 6.7 5.5 15 5 23 C2.5 20 2.6 19 2.3 15 C2.0 13 2.0 13 0.9 9.4 C0.0 6.1 -0.2 3.4 0 0 Z " fill="#C8DFCF" transform="translate(511,201)"/><path d="M0 0 C1.9 1.3 1.9 1.3 4 4 C4.7 7.7 4.9 11 5 15 C4.0 15 3.0 14 2 14 C1.0 12 1.0 12 0.2 9.2 C-0.0 8.3 -0.3 7.4 -0.5 6.5 C-1.0 3.9 -0.9 2.5 0 0 Z " fill="#477254" transform="translate(398,486)"/><path d="M0 0 C0.3 0 0.7 0 1 0 C0.7 8.6 0.3 17 0 26 C-0.3 26 -0.7 26 -1 26 C-3.6 5.4 -3.6 5.4 0 0 Z " fill="#28583B" transform="translate(243,479)"/><path d="M0 0 C0.3 0.7 0.7 1.3 1 2 C0.0 4.0 -1.0 6.0 -2 8 C-2 8.7 -2 9.3 -2 10 C-3.7 12 -5.3 13 -7 15 C-8.4 17 -9.7 19 -11 21 C-11 20 -12 20 -12 19 C-11 16 -9.3 14 -7.8 12 C-7.3 11 -6.9 10 -6.5 9.6 C-4.5 6.3 -2.4 3.1 0 0 Z " fill="#E3F2E5" transform="translate(355,371)"/><path d="M0 0 C0.3 1.3 0.7 2.6 1 4 C-1.1 5.6 -3.2 7.3 -5.2 8.9 C-6.1 9.6 -6.1 9.6 -7.0 10 C-9.9 13 -13 15 -16 16 C-11 10 -5.8 5.0 0 0 Z " fill="#D2EEDC" transform="translate(275,344)"/><path d="M0 0 C4.7 1.3 7.7 4.2 11 7.4 C13 9.1 13 9.1 15 10 C16 12 16 12 17 14 C17 16 17 16 16 18 C16 18 15 17 15 16 C11 12 7.4 7.2 3 3 C2.0 2.0 1.0 1.0 0 0 Z " fill="#2B5F42" transform="translate(489,172)"/><path d="M0 0 C2.0 0.5 2.0 0.5 4 1 C3.9 2.4 3.8 3.9 3.6 5.3 C3.6 6.1 3.5 6.9 3.4 7.7 C3 10 3 10 1 13 C0.7 11 0.3 9.7 0 8 C-0.3 8 -0.7 8 -1 8 C-1.1 2.2 -1.1 2.2 0 0 Z " fill="#235A38" transform="translate(325,425)"/><path d="M0 0 C-1.4 2.9 -2.9 5.6 -4.6 8.2 C-5.1 9.0 -5.5 9.7 -6.0 10 C-6.5 11 -6.5 11 -7 12 C-8.0 12 -9.0 11 -10 11 C-10 10 -11 9.0 -11 8 C-9.5 6.7 -8.1 5.3 -6.6 4 C-5.8 3.3 -5.0 2.5 -4.2 1.8 C-2 0 -2 0 0 0 Z " fill="#DDEEE4" transform="translate(387,339)"/><path d="M0 0 C0.7 0 1.3 0 2 0 C2.3 3.2 2.1 4.8 0.5 7.7 C-1.2 11 -1.5 15 -1.7 19 C-1.7 20 -1.8 20 -1.8 21 C-1.9 23 -1.9 24 -2 26 C-2.3 26 -2.7 26 -3 26 C-3.4 9.0 -3.4 9.0 -1 1 C-0.7 0.7 -0.3 0.3 0 0 Z " fill="#4F7A61" transform="translate(396,445)"/><path d="M0 0 C0.7 0 1.3 0 2 0 C5.9 6.6 5.9 6.6 7 10 C7.7 10 8.3 10 9 10 C9.1 11 9.2 11 9.3 12 C9.5 13 9.8 13 10 14 C11 14 12 15 13 15 C14 18 14 18 15 21 C11 17 7.8 13 4.7 8.8 C4.2 8.2 3.8 7.6 3.3 6.9 C0 2.3 0 2.3 0 0 Z " fill="#215537" transform="translate(501,295)"/><path d="M0 0 C2 2 2 2 2 5 C2.7 5.3 3.3 5.7 4 6 C-0.6 9 -0.6 9 -4 9 C-4.3 8.0 -4.7 7.0 -5 6 C-3.6 3.7 -1.8 2.0 0 0 Z " fill="#2A6642" transform="translate(295,245)"/><path d="M0 0 C0.3 1.0 0.7 2.0 1 3 C-0.8 5.5 -0.8 5.5 -3 8 C-4.0 9.5 -4.0 9.5 -5 11 C-6.6 12 -8.3 14 -10 15 C-11 15 -11 14 -12 14 C-10 12 -8.4 9.7 -6.6 7.6 C-6.0 7.0 -5.5 6.3 -5.0 5.7 C-1.1 1.1 -1.1 1.1 0 0 Z " fill="#DBECDD" transform="translate(299,170)"/><path d="M0 0 C0.3 0 0.7 0 1 0 C-0.5 16 -0.5 16 -3 20 C-3.7 20 -4.3 20 -5 20 C-3.6 13 -1.9 6.6 0 0 Z " fill="#496953" transform="translate(404,177)"/><path d="M0 0 C0.7 0.3 1.3 0.7 2 1 C-0.7 5.2 -3.4 8.5 -7 12 C-8.4 14 -9.7 15 -11 17 C-12 17 -12 16 -13 16 C-8.8 11 -4.5 5.2 0 0 Z " fill="#275839" transform="translate(265,156)"/><path d="M0 0 C2.6 0.7 5.3 1.3 8 2 C8 3.6 8 5.3 8 7 C6.3 7.3 4.7 7.7 3 8 C2.7 6.3 2.3 4.7 2 3 C1.0 2.7 0.0 2.3 -1 2 C-0.7 1.3 -0.3 0.7 0 0 Z " fill="#266641" transform="translate(431,124)"/><path d="M0 0 C3.0 -0.0 6.1 -0.0 9.1 -0.1 C10.0 -0.1 11 -0.1 12 -0.1 C16 -0.1 21 0.1 25 1 C21 3.4 17 3.6 13 4 C14 2 14 2 15 1 C10 1 5.1 1 0 1 C0 0.7 0 0.3 0 0 Z " fill="#B5D4C0" transform="translate(363,119)"/><path d="M0 0 C0.7 1.3 1.3 2.6 2 4 C1.1 4.9 0.2 5.9 -0.7 6.9 C-4.4 11 -6.7 16 -9 21 C-10 18 -10 18 -9.2 16 C-8.6 15 -8.6 15 -7.9 14 C-7.5 13 -7.0 12 -6.5 11 C-6.0 11 -5.6 9.7 -5.1 8.8 C-4.6 8.0 -4.1 7.1 -3.6 6.3 C-2.4 4.2 -1.2 2.1 0 0 Z " fill="#DCEDDF" transform="translate(309,396)"/><path d="M0 0 C1.3 3.9 0.3 5.8 -0.9 9.7 C-1.5 11 -1.5 11 -2.1 13 C-2.4 14 -2.7 15 -3 16 C-3.3 16 -3.7 16 -4 16 C-4.1 8.4 -4.1 8.4 -3 5 C-3.7 5 -4.3 5 -5 5 C-5 4.3 -5 3.7 -5 3 C-3.4 2.7 -1.7 2.3 0 2 C0 1.3 0 0.7 0 0 Z " fill="#185131" transform="translate(187,381)"/><path d="M0 0 C1.0 0 2.0 0 3 0 C1.6 3.2 -0.1 5.3 -2.6 7.8 C-3.6 8.7 -3.6 8.7 -4.5 9.6 C-5.0 10 -5.5 11 -6 11 C-6.7 11 -7.3 10 -8 10 C-7.3 8.7 -6.7 7.4 -6 6 C-5.3 6 -4.7 6 -4 6 C-3.7 5.4 -3.4 4.8 -3.1 4.1 C-2 2 -2 2 0 0 Z " fill="#296042" transform="translate(242,378)"/><path d="M0 0 C0.3 0.7 0.7 1.3 1 2 C1.7 2 2.3 2 3 2 C2.2 9.8 2.2 9.8 0 12 C-2.8 7.8 -1.9 5.9 -1 1 C-0.7 0.7 -0.3 0.3 0 0 Z " fill="#1D5033" transform="translate(456,173)"/><path d="M0 0 C-0.3 1.0 -0.7 2.0 -1 3 C-2.9 3.7 -2.9 3.7 -5.2 4.1 C-8.9 4.8 -12 5.7 -16 7 C-12 2.5 -5.9 -2.0 0 0 Z " fill="#296043" transform="translate(508,451)"/><path d="M0 0 C0.7 0.7 1.3 1.3 2 2 C3.0 1.3 4.0 0.7 5 0 C6.3 4.3 5.6 6.9 4 11 C3.7 11 3.3 11 3 11 C2.3 9.0 1.7 7.0 1 5 C0.3 5 -0.3 5 -1 5 C-0.7 3.4 -0.3 1.7 0 0 Z " fill="#205F3F" transform="translate(290,419)"/><path d="M0 0 C1.0 0.3 2.0 0.7 3 1 C3 3.3 3 5.6 3 8 C2.7 7.3 2.3 6.7 2 6 C1.3 6.7 0.7 7.3 0 8 C-1.0 8.7 -2.0 9.3 -3 10 C-2.2 3.4 -2.2 3.4 0 0 Z " fill="#19663E" transform="translate(470,211)"/><path d="M0 0 C0 3 0 3 -2.4 5.7 C-3.4 6.7 -4.5 7.7 -5.5 8.7 C-6.0 9.2 -6.5 9.7 -7.1 10 C-8.4 11 -9.7 13 -11 14 C-11 13 -12 12 -12 11 C-11 9.7 -9.5 8.5 -8.2 7.2 C-7.6 6.5 -6.9 5.8 -6.1 5.0 C-4.2 3.2 -2.2 1.6 0 0 Z " fill="#8DB191" transform="translate(491,471)"/><path d="M0 0 C0.3 0 0.7 0 1 0 C0.9 2.0 0.7 4.1 0.6 6.1 C0.5 7.3 0.4 8.4 0.3 9.6 C0.0 13 -0.4 16 -1 19 C-1.7 19 -2.3 18 -3 18 C-2.6 12 -2.0 6.0 0 0 Z " fill="#2B5C3E" transform="translate(224,242)"/><path d="M0 0 C2.4 2.1 3.7 4.1 5.0 7.0 C5.6 8.1 5.6 8.1 6.1 9.3 C6.5 10 6.8 11 7.2 12 C7.6 12 7.9 13 8.3 14 C9.2 16 10 18 11 20 C6.7 19 5.8 15 3.8 12 C3.4 11 3.1 10 2.7 9.6 C0.8 6.1 0 4.1 0 0 Z " fill="#255739" transform="translate(171,493)"/><path d="M0 0 C1.4 4.3 0.4 6.2 -1.6 10 C-2.0 11 -2.5 12 -3 13 C-4.3 11 -5.0 9.5 -4.9 7.1 C-3.7 4.3 -2.0 2.3 0 0 Z " fill="#265E3C" transform="translate(282,261)"/><path d="M0 0 C0.7 0 1.3 0 2 0 C2.0 1.7 2.0 3.3 2 5 C1.7 5.3 1.3 5.7 1 6 C0.5 8.8 0.0 12 -0.4 15 C-0.6 15 -0.8 16 -1 17 C-1.7 17 -2.3 18 -3 18 C-2.5 12 -1.7 6.0 0 0 Z " fill="#D8EADB" transform="translate(233,235)"/><path d="M0 0 C0.7 1.3 1.3 2.6 2 4 C-0.3 6.3 -2.6 8.6 -5 11 C-6.0 11 -7.0 10 -8 10 C-5.4 6.7 -2.7 3.4 0 0 Z " fill="#2C6541" transform="translate(407,155)"/><path d="M0 0 C4.5 3.7 8.4 7.4 12 12 C9.5 11 9.5 11 7 10 C6.7 11 6.3 11 6 12 C5.0 11 4.0 9.4 3 8 C3.7 8 4.3 8 5 8 C4.2 7.1 3.4 6.1 2.5 5.1 C0 2.2 0 2.2 0 0 Z " fill="#1D5534" transform="translate(348,536)"/><path d="M0 0 C0.7 0.3 1.3 0.7 2 1 C0.6 2.0 -0.8 2.9 -2.2 3.9 C-3.0 4.4 -3.7 4.9 -4.5 5.5 C-7.0 7.0 -9.2 8.1 -12 9 C-13 8.7 -14 8.3 -15 8 C-14 7.9 -14 7.8 -13 7.7 C-12 7.5 -12 7.2 -11 7 C-11 6.0 -10 5.0 -10 4 C-7.7 3.3 -5.3 2.6 -3 2 C-2.0 1.3 -1.0 0.7 0 0 Z " fill="#1F4E36" transform="translate(527,533)"/><path d="M0 0 C0.7 0.3 1.3 0.7 2 1 C1.4 4.5 -0.1 6.8 -2.1 9.8 C-2.6 11 -3.2 11 -3.7 12 C-4.1 13 -4.6 13 -5 14 C-5.7 12 -5.7 12 -6 10 C-4.8 7.4 -4.8 7.4 -3.1 4.8 C-2.5 3.9 -1.9 3.0 -1.3 2.0 C-0.9 1.4 -0.5 0.7 0 0 Z " fill="#CAE6CF" transform="translate(477,480)"/><path d="M0 0 C0.3 0.7 0.7 1.3 1 2 C1.7 2 2.3 2 3 2 C2.7 2.7 2.4 3.4 2.1 4.1 C1.0 7.0 0.2 9.8 -0.6 13 C-0.9 14 -1.1 15 -1.4 16 C-1.6 17 -1.8 17 -2 18 C-2.7 18 -3.3 17 -4 17 C-2.7 11 -1.4 5.8 0 0 Z " fill="#326749" transform="translate(468,207)"/><path d="M0 0 C1.0 0 2.0 0 3 0 C4.2 2.4 4.1 3.9 4.1 6.6 C4.1 7.4 4.0 8.3 4.0 9.1 C4.0 9.7 4.0 10 4 11 C3.0 11 2.0 10 1 10 C0.7 6.7 0.3 3.4 0 0 Z " fill="#356B4C" transform="translate(394,474)"/><path d="M0 0 C3.6 5.5 4.3 8.4 4 15 C3.7 16 3.3 16 3 17 C2.3 17 1.7 16 1 16 C1.2 15 1.4 15 1.6 14 C2.0 11 1.9 9.6 1 7 C0.3 7 -0.3 7 -1 7 C-0.7 4.7 -0.3 2.4 0 0 Z " fill="#2D6E4D" transform="translate(397,438)"/><path d="M0 0 C1.5 1.0 1.5 1.0 3 2 C3.3 5.0 3.3 5.0 3.2 8.6 C3.2 9.8 3.1 11 3.1 12 C3.1 13 3.0 14 3 15 C2.0 15 2.0 15 1 16 C0.7 11 0.3 5.4 0 0 Z " fill="#377451" transform="translate(320,447)"/><path d="M0 0 C1.0 0.3 2.0 0.7 3 1 C0.8 3.3 -1.3 5.3 -4 7 C-5.0 6.7 -6.0 6.3 -7 6 C-6.7 4.7 -6.3 3.4 -6 2 C-4.0 2 -2.0 2 0 2 C0 1.3 0 0.7 0 0 Z " fill="#15673C" transform="translate(271,290)"/><path d="M0 0 C1.3 0.7 2.6 1.3 4 2 C4 3.3 4 4.6 4 6 C3.4 6.1 2.8 6.3 2.1 6.4 C-0.0 6.9 -0.0 6.9 -2 8 C-2.7 7.3 -3.3 6.7 -4 6 C-3.5 5.4 -3.1 4.8 -2.6 4.1 C-1.0 2.1 -1.0 2.1 0 0 Z " fill="#266941" transform="translate(341,284)"/><path d="M0 0 C0 3 0 3 -1 5 C-0.0 5.3 1.0 5.7 2 6 C1.0 7.0 0.0 8.0 -1 9 C-1.3 8.0 -1.7 7.0 -2 6 C-2.6 6.4 -3.2 6.7 -3.8 7.1 C-6 8 -6 8 -9 7 C-6.0 4.7 -3.1 2.4 0 0 Z " fill="#275C3B" transform="translate(389,278)"/><path d="M0 0 C0.3 0.7 0.7 1.3 1 2 C-2.3 7.0 -5.6 12 -9 17 C-10 15 -10 15 -9.1 12 C-8.7 11 -8.4 10.0 -8 9 C-7.0 9 -6.0 9 -5 9 C-4.6 7.9 -4.6 7.9 -4.2 6.8 C-3.1 4.1 -1.8 2.2 0 0 Z " fill="#1C4D31" transform="translate(399,176)"/><path d="M0 0 C1.0 0 2.0 0 3 0 C4.3 2.2 5.1 3.5 4.8 6.1 C4 8 4 8 2 11 C1.7 11 1.3 10 1 10 C1 8 1 6 1 4 C0.6 1.7 0.6 1.7 0 0 Z " fill="#306E48" transform="translate(476,150)"/><path d="M0 0 C2.5 2.9 3.7 5.2 4 9 C3.0 10 3.0 10 2 12 C-0.5 10 -1.0 9.0 -1.7 5.8 C-1.8 4.9 -1.9 4.0 -2 3 C0 5 0 5 0 8 C0.7 8 1.3 8 2 8 C1.7 7.2 1.3 6.5 1 5.7 C0 3 0 3 0 0 Z " fill="#1C5032" transform="translate(328,499)"/><path d="M0 0 C0 3.2 -0.5 4.4 -2 7.2 C-2.4 7.9 -2.7 8.6 -3.1 9.4 C-3.6 10 -3.6 10 -4 11 C-4.7 10 -5.3 9.7 -6 9 C-5.9 6.6 -5.9 6.6 -5 4 C-2.4 1.7 -2.4 1.7 0 0 Z " fill="#CDE7D6" transform="translate(298,399)"/><path d="M0 0 C0 3 0 3 -2.0 5.0 C-2.8 5.8 -3.6 6.5 -4.5 7.2 C-5.3 7.9 -6.2 8.6 -7.0 9.4 C-7.7 9.9 -8.3 10 -9 11 C-9.7 10 -10 9.7 -11 9 C-7.4 6.0 -3.7 3.1 0 0 Z M-13 10 C-11 11 -11 11 -11 11 Z " fill="#E1F1E2" transform="translate(315,312)"/><path d="M0 0 C1.3 0.3 2.6 0.7 4 1 C1.7 3.6 -0.6 6.3 -3 9 C-3.7 8.0 -4.3 7.0 -5 6 C-3.4 4.0 -1.7 2.0 0 0 Z " fill="#2C6345" transform="translate(542,517)"/><path d="M0 0 C-1.8 1.0 -3.5 2.0 -5.3 3 C-6.8 3.8 -6.8 3.8 -8.3 4.7 C-11 6 -11 6 -14 6 C-14 5.3 -14 4.7 -14 4 C-12 3.1 -11 2.3 -9.2 1.4 C-8.4 1.0 -7.5 0.5 -6.6 -0.0 C-3.8 -1.1 -2.7 -1.1 0 0 Z " fill="#D0EDDA" transform="translate(513,458)"/><path d="M0 0 C2.6 2.6 4.9 4.9 7 8 C6.8 11 6.8 11 6 14 C5.0 14 5.0 14 4 15 C4.0 14 4.1 13 4.1 12 C4.0 8.9 3.2 6.3 2 3 C1.3 3 0.7 3 0 3 C0 2.0 0 1.0 0 0 Z " fill="#CDE5D5" transform="translate(511,311)"/><path d="M0 0 C0.7 1.0 1.3 2.0 2 3 C0.1 6.6 -1.2 8.5 -5 10 C-4.5 5.6 -2.9 3.3 0 0 Z " fill="#6B8A71" transform="translate(270,276)"/><path d="M0 0 C1.0 0.7 2.0 1.3 3 2 C1.6 5.2 1.0 6.0 -2 8 C-2.7 6.7 -3.3 5.4 -4 4 C-2.7 2.7 -1.4 1.4 0 0 Z " fill="#2B6541" transform="translate(403,268)"/><path d="M0 0 C0.3 0.7 0.7 1.3 1 2 C2.0 2 3.0 2 4 2 C3.2 4.9 3.2 4.9 2 8 C0.7 8.3 -0.6 8.7 -2 9 C-1.3 6.0 -0.7 3.1 0 0 Z " fill="#365E45" transform="translate(511,257)"/><path d="M0 0 C0.3 0.7 0.7 1.3 1 2 C2.3 1.7 3.6 1.3 5 1 C3.1 3.0 1.4 4.4 -1 6 C-2.0 6 -3.0 6 -4 6 C-4.3 4.7 -4.7 3.4 -5 2 C-2 0 -2 0 0 0 Z " fill="#215936" transform="translate(329,142)"/><path d="M0 0 C0.7 0.3 1.3 0.7 2 1 C-0.9 3.5 -3.9 5.7 -7.1 7.8 C-7.8 8.3 -8.5 8.7 -9.1 9.1 C-11 10 -11 10 -14 9 C-13 9 -13 9 -12 9 C-12 8.3 -12 7.7 -12 7 C-11 6.7 -11 6.5 -10 6.2 C-6.7 4.4 -3.2 2.7 0 0 Z " fill="#1A5734" transform="translate(498,514)"/><path d="M0 0 C3.9 0.9 3.9 0.9 5 2 C5.1 3.9 5.1 5.7 5.1 7.6 C5.1 8.6 5.0 9.6 5.0 11 C5.0 11 5.0 12 5 13 C4.3 13 3.7 13 3 13 C3.0 12 2.9 11 2.9 10 C2.8 9.3 2.7 8.2 2.6 7.1 C2.6 6.0 2.5 4.9 2.4 3.7 C2.3 2.8 2.1 1.9 2 1 C1.3 0.7 0.7 0.3 0 0 Z " fill="#356147" transform="translate(565,426)"/><path d="M0 0 C0.7 0.3 1.3 0.7 2 1 C-5.5 7.9 -5.5 7.9 -10 9 C-11 8.7 -12 8.3 -13 8 C-11 6.6 -8.8 5.3 -6.6 3.9 C-6.0 3.5 -5.4 3.2 -4.8 2.8 C-3.2 1.8 -1.6 0.9 0 0 Z " fill="#E1F0E4" transform="translate(268,298)"/><path d="M0 0 C0 3.2 -0.4 4.4 -2 7 C-5.2 9.2 -6.3 9.2 -10 9 C-6.8 5.7 -3.6 2.8 0 0 Z " fill="#2E6044" transform="translate(256,292)"/><path d="M0 0 C-6.4 3.0 -6.4 3.0 -13 6 C-11 2 -11 2 -8 0 C-4.7 -0.9 -3.3 -1.1 0 0 Z " fill="#E4F2E3" transform="translate(342,135)"/><path d="M0 0 C1.6 0 3.3 0 5 0 C4.1 3.3 3.6 4.7 0.6 6.4 C-2 7 -2 7 -5 6 C-4.4 5.6 -3.7 5.1 -3.1 4.7 C-0.7 3.1 -0.7 3.1 0 0 Z " fill="#1B5232" transform="translate(349,131)"/><path d="M0 0 C0 1.3 0 2.6 0 4 C-2.0 4.3 -4.0 4.7 -6 5 C-6.3 3.7 -6.7 2.4 -7 1 C-4 0 -4 0 0 0 Z " fill="#1A5232" transform="translate(412,129)"/><path d="M0 0 C0.7 0.3 1.3 0.7 2 1 C0.4 2.8 -1.2 4.6 -2.9 6.4 C-3.3 6.9 -3.8 7.4 -4.3 7.9 C-6.1 10.0 -8.0 12 -10 14 C-9.4 10 -8.0 8.5 -5.6 5.9 C-4.9 5.2 -4.3 4.5 -3.7 3.8 C-2.5 2.5 -1.2 1.2 0 0 Z " fill="#1E4E31" transform="translate(480,465)"/><path d="M0 0 C2 3 2 3 1.6 5.2 C1.4 5.8 1.2 6.4 1 7 C0.4 6.8 -0.2 6.6 -0.8 6.4 C-3.2 6.0 -4.6 6.2 -7 7 C-4.7 4.7 -2.3 2.3 0 0 Z " fill="#E2F0E6" transform="translate(291,405)"/><path d="M0 0 C1.3 0.3 2.6 0.7 4 1 C1.7 3.3 -0.6 5.6 -3 8 C-3.7 7.0 -4.3 6.0 -5 5 C-2.8 2.4 -2.8 2.4 0 0 Z " fill="#266240" transform="translate(246,363)"/><path d="M0 0 C1.0 0.3 2.0 0.7 3 1 C5.6 1 7.5 0.7 10 0 C5.3 4.9 5.3 4.9 1.3 5.1 C0.2 5.1 0.2 5.1 -1 5 C-0.7 3.4 -0.3 1.7 0 0 Z " fill="#1E5334" transform="translate(380,140)"/><path d="M0 0 C0.7 0 1.3 0 2 0 C2.2 0.6 2.5 1.2 2.8 1.9 C4.2 4.4 5.4 5.0 8 6 C3.8 7.4 1.9 5.8 -2 4 C-1.3 2.7 -0.7 1.4 0 0 Z " fill="#2C6143" transform="translate(473,537)"/><path d="M0 0 C2.7 4.1 2.3 6.2 2 11 C1.3 12 0.7 12 0 13 C-1.3 4.6 -1.3 4.6 0 0 Z " fill="#346B4D" transform="translate(199,446)"/><path d="M0 0 C0.3 0 0.7 0 1 0 C0.7 4.6 0.3 9.2 0 14 C-2.4 9.2 -2.3 7.2 -2 2 C-1.3 1.3 -0.7 0.7 0 0 Z " fill="#306F4D" transform="translate(363,438)"/><path d="M0 0 C1.5 4.5 0.3 7.5 -1 12 C-1.7 11 -2.3 11 -3 10 C-2.7 6.2 -1.9 3.3 0 0 Z " fill="#1D6A43" transform="translate(208,431)"/><path d="M0 0 C0.9 3.1 1.2 4.9 0 8 C-1.6 9.8 -1.6 9.8 -3 11 C-4 8 -4 8 -3.2 6.0 C-2.8 5.2 -2.5 4.5 -2.1 3.8 C-1.7 3.1 -1.3 2.4 -0.9 1.6 C-0.6 1.1 -0.3 0.6 0 0 Z " fill="#DBE9DA" transform="translate(411,425)"/><path d="M0 0 C2.0 1.7 2.9 2.5 3.4 5.2 C3.3 6.0 3.3 6.8 3.3 7.6 C3.3 8.3 3.3 9.1 3.3 9.9 C3 12 3 12 1 14 C0.0 9.2 -0.1 4.8 0 0 Z " fill="#2C6948" transform="translate(155,422)"/><path d="M0 0 C0.3 0.7 0.7 1.3 1 2 C0.1 4.6 0.1 4.6 -1 7 C-1.7 7 -2.3 7 -3 7 C-3.3 7.9 -3.6 8.9 -3.9 9.9 C-5 13 -5 13 -7 15 C-6.4 11 -5.1 8.2 -2.9 4.7 C-2.4 3.8 -1.8 2.9 -1.3 2.0 C-0.6 1.0 -0.6 1.0 0 0 Z " fill="#1E5236" transform="translate(375,358)"/><path d="M0 0 C1.3 0.3 2.6 0.7 4 1 C2.9 2.2 1.8 3.3 0.6 4.5 C-0.0 5.1 -0.6 5.8 -1.3 6.5 C-3 8 -3 8 -5 8 C-4.6 5.1 -4.2 4.2 -1.9 2.3 C-1.0 1.7 -1.0 1.7 0 1 C0 0.7 0 0.3 0 0 Z " fill="#14502F" transform="translate(264,350)"/><path d="M0 0 C1.0 0.3 2.0 0.7 3 1 C1.6 4.4 -0.3 6.5 -3 9 C-3.7 8.3 -4.3 7.7 -5 7 C-3.4 4.7 -1.7 2.4 0 0 Z " fill="#266140" transform="translate(194,341)"/><path d="M0 0 C0.7 0.3 1.3 0.7 2 1 C1.7 2.0 1.3 3.0 1 4 C2.3 3.7 3.6 3.3 5 3 C3.2 5 3.2 5 1 7 C0.0 7 -1.0 7 -2 7 C-2.3 5.3 -2.7 3.7 -3 2 C-2.0 1.3 -1.0 0.7 0 0 Z " fill="#225A38" transform="translate(357,301)"/><path d="M0 0 C0.3 1.0 0.7 2.0 1 3 C-1.6 6.0 -4.3 8.9 -7 12 C-7.7 11 -8.3 11 -9 10 C-6.0 6.7 -3.1 3.4 0 0 Z " fill="#D8EBDD" transform="translate(373,260)"/><path d="M0 0 C0.9 2.6 1.1 3.6 0.1 6.2 C-0.5 7.1 -0.5 7.1 -1 8 C-2.0 8 -3.0 8 -4 8 C-4 6.3 -4 4.7 -4 3 C-2.7 2.7 -1.4 2.3 0 2 C0 1.3 0 0.7 0 0 Z " fill="#255A3B" transform="translate(516,251)"/><path d="M0 0 C1.1 3.4 0.9 4.0 -0.4 7.2 C-0.7 7.9 -1.0 8.6 -1.3 9.4 C-1.5 9.9 -1.8 10 -2 11 C-2.7 10 -3.3 9.0 -4 8 C-3.1 4.8 -3.1 4.8 -2 2 C-1.3 2 -0.7 2 0 2 C0 1.3 0 0.7 0 0 Z " fill="#255F3F" transform="translate(398,209)"/><path d="M0 0 C0.1 0.6 0.2 1.3 0.3 1.9 C0.5 2.6 0.8 3.3 1 4 C2.0 4.3 3.0 4.7 4 5 C1.5 6.5 1.5 6.5 -1 8 C-2.0 7.3 -3.0 6.7 -4 6 C-3.3 6 -2.7 6 -2 6 C-2 4.3 -2 2.7 -2 1 C-1.3 0.7 -0.7 0.3 0 0 Z " fill="#275E3E" transform="translate(378,141)"/><path d="M0 0 C0.7 1.0 1.3 2.0 2 3 C-2.5 3.5 -2.5 3.5 -7 4 C-6.3 3.7 -5.7 3.3 -5 3 C-5 2.3 -5 1.7 -5 1 C-6.0 0.7 -7.0 0.3 -8 0 C-4.7 -1.1 -3.3 -1.0 0 0 Z " fill="#1D5533" transform="translate(381,124)"/><path d="M0 0 C3.6 2.0 7.3 4.0 11 6 C7.3 7.2 6.3 6.6 2.8 5.1 C1.9 4.7 1.0 4.3 0.1 3.9 C-0.6 3.6 -1.3 3.3 -2 3 C-1.3 2.7 -0.7 2.3 0 2 C0 1.3 0 0.7 0 0 Z " fill="#A6D0B9" transform="translate(359,552)"/><path d="M0 0 C0.3 0 0.7 0 1 0 C1.0 1.4 1.0 2.8 1.1 4.2 C1.1 5.0 1.1 5.8 1.1 6.6 C1.0 8.9 0.6 11 0 13 C-0.7 13 -1.3 13 -2 13 C-1.9 11 -1.7 9.4 -1.6 7.6 C-1.5 6.6 -1.4 5.6 -1.3 4.6 C-1 2 -1 2 0 0 Z " fill="#16562F" transform="translate(559,460)"/><path d="M0 0 C0.7 0.7 1.3 1.3 2 2 C1.7 2.5 1.4 3.0 1.1 3.6 C-0.3 6.6 -1.1 9.7 -2 13 C-2.7 13 -3.3 12 -4 12 C-3.5 10 -3.0 8.7 -2.6 7.1 C-2.3 6.2 -2.0 5.3 -1.8 4.4 C-1 2 -1 2 0 0 Z " fill="#DEEEDF" transform="translate(338,401)"/><path d="M0 0 C1.0 1.0 2.0 2.0 3 3 C2.7 3.7 2.3 4.3 2 5 C1.3 4.7 0.7 4.3 0 4 C-2.5 5.3 -2.9 6.5 -4 9 C-5 6 -5 6 -4.2 3.4 C-3 1 -3 1 0 0 Z " fill="#275F40" transform="translate(188,372)"/><path d="M0 0 C2 1 2 1 2.9 2.8 C3 5 3 5 1.1 7.2 C0.4 7.8 -0.3 8.4 -1 9 C-1.7 8.0 -2.3 7.0 -3 6 C-2.3 5.3 -1.7 4.7 -1 4 C-0.4 1.9 -0.4 1.9 0 0 Z " fill="#2A6B4A" transform="translate(387,337)"/><path d="M0 0 C0.7 0.3 1.3 0.7 2 1 C-2.0 4.5 -2.0 4.5 -6 8 C-6.7 7.7 -7.3 7.3 -8 7 C-5.5 2.2 -5.5 2.2 -2.9 1.2 C-2.3 1.2 -1.6 1.1 -1 1 C-0.7 0.7 -0.3 0.3 0 0 Z " fill="#1E5836" transform="translate(342,289)"/><path d="M0 0 C0.3 1.3 0.7 2.6 1 4 C1.7 4 2.3 4 3 4 C2 7 2 7 -0.1 8.2 C-0.7 8.5 -1.3 8.7 -2 9 C-3 6 -3 6 -1.6 2.8 C-1.0 1.9 -0.5 1.0 0 0 Z " fill="#276342" transform="translate(231,288)"/><path d="M0 0 C0.7 0.3 1.3 0.7 2 1 C-0.1 4.1 -0.8 4.6 -4 6 C-4.7 6.4 -5.5 6.7 -6.2 7.1 C-6.8 7.4 -7.4 7.7 -8 8 C-8.3 7.0 -8.7 6.0 -9 5 C-7.5 4.1 -6.1 3.3 -4.6 2.4 C-3.4 1.7 -3.4 1.7 -2.2 1.0 C-1.4 0.7 -0.7 0.3 0 0 Z " fill="#DDECDD" transform="translate(291,285)"/><path d="M0 0 C0.7 0.3 1.3 0.7 2 1 C1.0 2.3 0.0 3.6 -1 5 C-0.3 5.7 0.3 6.3 1 7 C-0.9 8.1 -0.9 8.1 -3 9 C-3.7 8.7 -4.3 8.3 -5 8 C-3.8 4.6 -2.7 2.4 0 0 Z " fill="#16532E" transform="translate(393,275)"/><path d="M0 0 C0.3 0 0.7 0 1 0 C1.3 5.3 1.7 11 2 16 C1.3 16 0.7 17 0 17 C-1.0 11 -0.9 5.9 0 0 Z " fill="#D6EBDA" transform="translate(492,267)"/><path d="M0 0 C1.6 0 3.3 0 5 0 C3.8 4.4 2.5 7.0 -1 10 C-0.7 9.2 -0.3 8.4 0 7.6 C1.1 5.2 1.1 5.2 1 3 C0.0 3.5 0.0 3.5 -1 4 C-0.7 2.7 -0.3 1.4 0 0 Z " fill="#215637" transform="translate(383,237)"/><path d="M0 0 C0.7 0.7 1.3 1.3 2 2 C-0.8 5.0 -3.2 7.4 -7 9 C-2.9 2.6 -2.9 2.6 0 0 Z " fill="#E2F1E4" transform="translate(269,164)"/><path d="M0 0 C1.0 0 2.0 0 3 0 C2.7 3.0 2.3 5.9 2 9 C1.0 8.3 0.0 7.7 -1 7 C-0.7 4.7 -0.3 2.4 0 0 Z " fill="#224C33" transform="translate(459,161)"/><path d="M0 0 C0.7 0 1.3 0 2 0 C2.7 1.3 3.3 2.6 4 4 C2.7 5.3 1.4 6.6 0 8 C-0.7 7.7 -1.3 7.3 -2 7 C-1.3 4.7 -0.7 2.4 0 0 Z " fill="#1F6A42" transform="translate(209,421)"/><path d="M0 0 C0.7 0 1.3 0 2 0 C1.7 2.0 1.3 4.0 1 6 C-0.7 6.3 -2.3 6.7 -4 7 C-3.7 5.3 -3.3 3.7 -3 2 C-2.3 2 -1.7 2 -1 2 C-0.7 1.3 -0.3 0.7 0 0 Z " fill="#245D3B" transform="translate(393,221)"/><path d="M0 0 C-1.0 0.5 -1.0 0.5 -2 1 C-2.3 2.0 -2.7 3.0 -3 4 C-2.3 4.3 -1.7 4.7 -1 5 C-2.9 5.6 -2.9 5.6 -5 6 C-5.7 5.3 -6.3 4.7 -7 4 C-6.8 1.9 -6.8 1.9 -6 0 C-3 -1 -3 -1 0 0 Z " fill="#97C29F" transform="translate(477,530)"/><path d="M0 0 C1.3 0.7 2.6 1.3 4 2 C3.3 4.3 2.7 6.6 2 9 C0 8 0 8 -0.7 6.2 C-1.0 3.8 -0.7 2.3 0 0 Z " fill="#E3EFE2" transform="translate(327,403)"/><path d="M0 0 C2.2 3.2 2.2 4.3 2 8 C0.7 8.3 -0.6 8.7 -2 9 C-1.1 1.1 -1.1 1.1 0 0 Z " fill="#21633D" transform="translate(181,395)"/><path d="M0 0 C-1.5 3.8 -3.6 5.8 -7 8 C-8.0 7.7 -9.0 7.3 -10 7 C-8.7 5.8 -7.4 4.7 -6.1 3.5 C-5.0 2.5 -5.0 2.5 -3.9 1.5 C-2 0 -2 0 0 0 Z " fill="#E2F1E5" transform="translate(330,377)"/><path d="M0 0 C0.7 0.3 1.3 0.7 2 1 C-0.8 7.9 -0.8 7.9 -3 9 C-3.8 7.3 -3.8 7.3 -4 5 C-2.1 2.2 -2.1 2.2 0 0 Z " fill="#246341" transform="translate(370,369)"/><path d="M0 0 C0 1.0 0 2.0 0 3 C0.7 3.3 1.3 3.7 2 4 C0.2 7.9 0.2 7.9 -2 9 C-2 7.7 -2 6.4 -2 5 C-2.7 4.7 -3.3 4.3 -4 4 C-2.7 2.7 -1.4 1.4 0 0 Z " fill="#154F2D" transform="translate(362,355)"/><path d="M0 0 C0.3 0 0.7 0 1 0 C1.4 1.4 1.8 2.9 2.2 4.3 C2.4 5.1 2.6 5.9 2.9 6.7 C3 9 3 9 1.6 11 C1.0 11 0.5 12 0 12 C-1.0 12 -2.0 11 -3 11 C-2.3 10 -1.7 9.0 -1 8 C-0.5 6.0 -0.5 6.0 -0.4 3.8 C-0.3 2.6 -0.1 1.3 0 0 Z " fill="#CFE3D4" transform="translate(525,318)"/><path d="M0 0 C2 4 2 4 1.9 6 C1 8 1 8 -3 12 C-2.0 8.0 -1.0 4.1 0 0 Z " fill="#C5E3D1" transform="translate(221,297)"/><path d="M0 0 C0.7 0.3 1.3 0.7 2 1 C2 1.7 2 2.3 2 3 C0.0 4.5 0.0 4.5 -2.5 6.1 C-3.3 6.7 -4.2 7.2 -5.0 7.8 C-5.7 8.2 -6.3 8.6 -7 9 C-5.3 5.2 -3.0 2.8 0 0 Z " fill="#AEB9AA" transform="translate(264,284)"/><path d="M0 0 C5.8 0.8 5.8 0.8 8 3 C5.0 3.7 2.1 4.3 -1 5 C-0.7 3.4 -0.3 1.7 0 0 Z " fill="#DDF4E4" transform="translate(434,132)"/><path d="M0 0 C1.9 0.8 1.9 0.8 4 2 C4.3 3.0 4.7 4.0 5 5 C2.0 4.5 2.0 4.5 -1 4 C-1 1 -1 1 0 0 Z " fill="#DDF1E5" transform="translate(354,549)"/><path d="M0 0 C1.6 1.2 1.6 1.2 3 3 C2.9 5.3 2.9 5.3 2.2 7.7 C2.0 8.5 1.8 9.3 1.5 10 C1.3 11 1.3 11 1 12 C0.7 12 0.3 12 0 12 C-0.2 10 -0.4 8.8 -0.6 7.1 C-0.7 6.2 -0.8 5.3 -0.9 4.4 C-1 2 -1 2 0 0 Z " fill="#DFEFE1" transform="translate(211,293)"/><path d="M0 0 C0.7 0 1.3 0 2 0 C0.9 3.3 0.3 3.8 -2.4 5.7 C-3.4 6.3 -3.4 6.3 -4.3 7.0 C-6 8 -6 8 -8 8 C-7.7 7.0 -7.3 6.0 -7 5 C-4.9 4.3 -4.9 4.3 -3 4 C-3 3.3 -3 2.7 -3 2 C-2.0 2 -1.0 2 0 2 C0 1.3 0 0.7 0 0 Z " fill="#DAEDDD" transform="translate(330,291)"/><path d="M0 0 C1.0 0 2.0 0 3 0 C4.0 3.1 4.0 4.9 3 8 C0.9 6.2 0.9 6.2 -1 4 C-0.8 1.8 -0.8 1.8 0 0 Z " fill="#276644" transform="translate(242,264)"/><path d="M0 0 C1.2 0.0 1.2 0.0 2.4 0.1 C2.8 1.1 3.1 2.0 3.4 3.1 C1.8 3.7 0.1 4.4 -1.6 5.1 C-2.2 3.7 -2.9 2.4 -3.6 1.1 C-2.6 0.1 -2.6 0.1 0 0 Z " fill="#296742" transform="translate(421.5625,247.9375)"/><path d="M0 0 C1.7 0 3.3 0 5 0 C4 3 4 3 1 5 C0.7 6.0 0.3 7.0 0 8 C-0.7 8 -1.3 8 -2 8 C-1.3 5.4 -0.7 2.7 0 0 Z " fill="#437459" transform="translate(395,207)"/><path d="M0 0 C1.0 1.0 2.0 2.0 3 3 C2.0 3.7 1.0 4.3 0 5 C-2.7 4.1 -2.7 4.1 -5 3 C-3 1 -3 1 0 0 Z " fill="#27613D" transform="translate(309,156)"/><path d="M0 0 C1.3 0 2.6 0 4 0 C4.3 2.0 4.7 4.0 5 6 C3.0 5.3 1.0 4.7 -1 4 C-0.7 2.7 -0.3 1.4 0 0 Z " fill="#DDE9DD" transform="translate(461,132)"/><path d="M0 0 C1.0 0 2.0 0 3 0 C3 2.6 3 5.3 3 8 C2.0 8.5 2.0 8.5 1 9 C0.7 6.0 0.3 3.1 0 0 Z " fill="#23583B" transform="translate(284,466)"/><path d="M0 0 C0.7 1.0 1.3 2.0 2 3 C0.8 6.6 0.8 6.6 -1 10 C-2.0 10 -3.0 11 -4 11 C-2.8 7.3 -1.5 3.6 0 0 Z " fill="#D9EADC" transform="translate(219,414)"/><path d="M0 0 C1 3 1 3 0.0 5.5 C-0.5 6.4 -0.9 7.3 -1.4 8.2 C-1.9 9.1 -2.4 10.0 -2.9 11 C-3.2 12 -3.6 12 -4 13 C-5.2 9.3 -4.6 8.5 -3 5 C-2.0 3.3 -1.0 1.6 0 0 Z " fill="#28593E" transform="translate(380,361)"/><path d="M0 0 C1.0 0.3 2.0 0.7 3 1 C2.3 3.0 1.7 5.0 1 7 C0.3 6.0 -0.3 5.0 -1 4 C-2.0 4 -3.0 4 -4 4 C-2.7 2.7 -1.4 1.4 0 0 Z " fill="#2D6949" transform="translate(195,358)"/><path d="M0 0 C-0.7 2.4 -0.7 2.4 -2 5 C-4.6 6.3 -4.6 6.3 -7 7 C-6.7 6.3 -6.3 5.7 -6 5 C-5.3 5 -4.7 5 -4 5 C-4 4.0 -4 3.0 -4 2 C-4.7 1.7 -5.3 1.3 -6 1 C-3.9 0.4 -2.2 0 0 0 Z " fill="#16512E" transform="translate(279,349)"/><path d="M0 0 C0.7 0 1.3 0 2 0 C2 1.3 2 2.6 2 4 C-0.5 6.2 -0.5 6.2 -3 8 C-3.7 7.7 -4.3 7.3 -5 7 C-4.2 5.8 -3.4 4.7 -2.6 3.5 C-2.2 2.9 -1.7 2.2 -1.3 1.5 C-0.7 0.8 -0.7 0.8 0 0 Z " fill="#C3E1D0" transform="translate(221,315)"/><path d="M0 0 C0.7 0 1.3 0 2 0 C1.6 6.1 1.6 6.1 1 8 C-1.0 9.0 -1.0 9.0 -3 10 C-2.0 6.7 -1.0 3.4 0 0 Z " fill="#2D5D41" transform="translate(210,307)"/><path d="M0 0 C0 2 0 4 0 6 C-2.0 6.7 -4.0 7.3 -6 8 C-4.6 4.6 -2.7 2.5 0 0 Z " fill="#1E5C36" transform="translate(412,257)"/><path d="M0 0 C1.2 3.6 0.7 4.3 -0.9 7.7 C-1.3 8.5 -1.7 9.3 -2.1 10 C-2.4 11 -2.7 11 -3 12 C-4 10 -4 10 -3.5 7.9 C-3.1 6.7 -3.1 6.7 -2.6 5.4 C-2.3 4.6 -2.1 3.8 -1.8 3.0 C-1 1 -1 1 0 0 Z " fill="#194C2F" transform="translate(253,248)"/><path d="M0 0 C0.7 0.7 1.3 1.3 2 2 C1.8 5.6 1.8 5.6 1 9 C0.0 9.5 0.0 9.5 -1 10 C-1.0 8.5 -1.0 7.0 -1.1 5.6 C-1.1 4.7 -1.1 3.9 -1.1 3.1 C-1 1 -1 1 0 0 Z " fill="#1E5A38" transform="translate(272,199)"/><path d="M0 0 C0.7 0.7 1.3 1.3 2 2 C1.6 5.2 0.3 8.1 -1 11 C-2.0 11 -2.0 11 -3 12 C-2.0 8.0 -1.0 4.1 0 0 Z " fill="#D8E9DC" transform="translate(457,183)"/><path d="M0 0 C0.7 0.7 1.3 1.3 2 2 C1.6 4.6 1.6 4.6 1 7 C0.3 6.0 -0.3 5.0 -1 4 C-2.0 4.5 -2.0 4.5 -3 5 C-3.7 4.3 -4.3 3.7 -5 3 C-3.4 2.0 -1.7 1.0 0 0 Z " fill="#296541" transform="translate(351,167)"/><path d="M0 0 C0.7 1.0 1.3 2.0 2 3 C-0.4 5.9 -2.3 6.5 -6 7 C-4.0 4.7 -2.0 2.4 0 0 Z " fill="#2E6141" transform="translate(414,148)"/><path d="M0 0 C0.3 0.7 0.7 1.3 1 2 C-0.2 4.6 -0.2 4.6 -2 7 C-3.0 7.3 -4.0 7.7 -5 8 C-4.8 5.1 -4.8 5.1 -4 2 C-1.9 0.6 -1.9 0.6 0 0 Z " fill="#23603A" transform="translate(332,315)"/><path d="M0 0 C0 3.5 -0.8 4.4 -3 7 C-3.7 6.7 -4.3 6.3 -5 6 C-4.8 4.1 -4.8 4.1 -4 2 C-1.9 0.8 -1.9 0.8 0 0 Z " fill="#296843" transform="translate(428,291)"/><path d="M0 0 C2 3 2 3 2 5 C0.4 6.4 -1.3 7.7 -3 9 C-3.7 8.7 -4.3 8.3 -5 8 C-3.4 5.4 -1.7 2.7 0 0 Z " fill="#2B6142" transform="translate(446,263)"/><path d="M0 0 C1.1 3.4 0.9 4.0 -0.4 7.2 C-0.7 7.9 -1.0 8.6 -1.3 9.4 C-1.5 9.9 -1.8 10 -2 11 C-2.7 11 -3.3 11 -4 11 C-3.5 9.4 -3.0 7.7 -2.6 6.1 C-2.3 5.1 -2.0 4.2 -1.8 3.3 C-1 1 -1 1 0 0 Z " fill="#35674A" transform="translate(463,227)"/><path d="M0 0 C0.7 0.3 1.3 0.7 2 1 C0.0 3.3 -2.0 5.6 -4 8 C-5.0 7.7 -6.0 7.3 -7 7 C-4.7 4.7 -2.4 2.4 0 0 Z " fill="#2C5D3D" transform="translate(353,230)"/><path d="M0 0 C1.0 0.7 2.0 1.3 3 2 C1.4 3.7 -0.3 5.4 -2 7 C-2.7 7 -3.3 7 -4 7 C-4.3 5.7 -4.7 4.4 -5 3 C-3.4 2.0 -1.7 1.0 0 0 Z " fill="#1F5E3C" transform="translate(433,233)"/><path d="M0 0 C0.7 1.0 1.3 2.0 2 3 C0.0 4.0 0.0 4.0 -2 5 C-1.3 3.4 -0.7 1.7 0 0 Z M2 0 C3.0 0.3 4.0 0.7 5 1 C4.7 2.6 4.3 4.3 4 6 C3.3 5.3 2.7 4.7 2 4 C2 2.7 2 1.4 2 0 Z " fill="#2A5F3F" transform="translate(435,224)"/><path d="M0 0 C1 2 1 2 0.9 3.8 C-0.5 7.2 -3.1 8.8 -6 11 C-4.5 6.9 -2.5 3.6 0 0 Z " fill="#DFEEE3" transform="translate(259,176)"/><path d="M0 0 C0.7 0.3 1.3 0.7 2 1 C1.7 1.7 1.3 2.3 1 3 C1.3 4.0 1.7 5.0 2 6 C0.0 7.0 0.0 7.0 -2 8 C-2.7 6.2 -2.7 6.2 -3 4 C-1.6 1.8 -1.6 1.8 0 0 Z " fill="#144E2C" transform="translate(371,146)"/><path d="M0 0 C1.0 0.3 2.0 0.7 3 1 C2.9 2.9 2.9 2.9 2 5 C-1.1 6.2 -1.1 6.2 -4 7 C-3.7 6.3 -3.3 5.7 -3 5 C-2.3 5 -1.7 5 -1 5 C-0.7 3.4 -0.3 1.7 0 0 Z " fill="#1F5837" transform="translate(340,135)"/><path d="M0 0 C3.0 0 5.9 0 9 0 C6.2 2.8 5.6 3.4 2 4 C2 3.0 2 2.0 2 1 C1.3 0.7 0.7 0.3 0 0 Z " fill="#E5F1E3" transform="translate(400,127)"/><path d="M0 0 C4.1 0.6 7.3 2.0 11 4 C8 5 8 5 6.0 4.2 C5.2 3.8 4.5 3.5 3.8 3.1 C3.1 2.7 2.4 2.3 1.6 1.9 C1.1 1.6 0.6 1.3 0 1 C0 0.7 0 0.3 0 0 Z " fill="#285940" transform="translate(351,559)"/><path d="M0 0 C2.9 1.3 5.0 2.6 7 5 C7 5.7 7 6.3 7 7 C6.0 7.3 5.0 7.7 4 8 C2.7 5.3 1.3 2.7 0 0 Z " fill="#2B6E49" transform="translate(346,537)"/><path d="M0 0 C1.0 0 2.0 0 3 0 C5.2 3 5.2 3 7 6 C4 6 4 6 1.8 4.1 C0 2 0 2 0 0 Z " fill="#3A6B51" transform="translate(383,505)"/><path d="M0 0 C2.0 0.5 2.0 0.5 4 1 C4 2.0 4 3.0 4 4 C3.0 4 2.0 4 1 4 C0.3 5.3 -0.3 6.6 -1 8 C-1.1 2.2 -1.1 2.2 0 0 Z " fill="#1A512F" transform="translate(325,425)"/><path d="M0 0 C0.6 2.1 1 3.8 1 6 C-0.3 6.3 -1.6 6.7 -3 7 C-2.2 2.2 -2.2 2.2 0 0 Z " fill="#E5F3E6" transform="translate(497,382)"/><path d="M0 0 C0.7 0 1.3 0 2 0 C0.4 7.8 0.4 7.8 -3 10 C-2.0 6.7 -1.0 3.4 0 0 Z " fill="#D6EADA" transform="translate(373,378)"/><path d="M0 0 C0.3 0.7 0.7 1.3 1 2 C-0.2 5.1 -0.2 5.1 -2 8 C-3.3 8.3 -4.6 8.7 -6 9 C-4.0 6.0 -2.0 3.1 0 0 Z " fill="#B1D7C3" transform="translate(188,365)"/><path d="M0 0 C0.7 0.3 1.3 0.7 2 1 C-1.1 4.7 -3.2 5.6 -8 6 C-5.6 3.4 -3.1 1.6 0 0 Z " fill="#E1F0E5" transform="translate(290,345)"/><path d="M0 0 C0.7 0.3 1.3 0.7 2 1 C0.0 2.0 0.0 2.0 -2 3 C-2 4.3 -2 5.6 -2 7 C-3.0 7 -4.0 7 -5 7 C-5.3 6.0 -5.7 5.0 -6 4 C-4.0 2.7 -2.0 1.4 0 0 Z " fill="#E2EFE4" transform="translate(252,308)"/><path d="M0 0 C0.3 1.0 0.7 2.0 1 3 C-1.3 3.6 -1.3 3.6 -4 4 C-5.0 3.3 -6.0 2.7 -7 2 C-4.4 0.5 -3.1 0 0 0 Z " fill="#155631" transform="translate(387,284)"/><path d="M0 0 C-1.5 4.4 -4.0 4.9 -8 7 C-8 6.0 -8 5.0 -8 4 C-2.7 0 -2.7 0 0 0 Z " fill="#17693B" transform="translate(319,264)"/><path d="M0 0 C0 4.4 -2.1 5.8 -5 9 C-5.7 8.7 -6.3 8.3 -7 8 C-4.7 5.4 -2.4 2.7 0 0 Z " fill="#DAECDC" transform="translate(293,257)"/><path d="M0 0 C0.7 0.7 1.3 1.3 2 2 C1.6 4.1 1.6 4.1 1 6 C0.3 5.3 -0.3 4.7 -1 4 C-1.7 4.7 -2.3 5.3 -3 6 C-3 4.7 -3 3.4 -3 2 C-2.0 1.3 -1.0 0.7 0 0 Z " fill="#1D5434" transform="translate(254,241)"/><path d="M0 0 C1.1 3.2 1.0 4.0 0 7 C-1.0 8.5 -1.0 8.5 -2 10 C-2.7 10 -3.3 10 -4 10 C-2.9 6.5 -1.7 3.2 0 0 Z " fill="#2E6141" transform="translate(242,187)"/><path d="M0 0 C0 1.0 0 2.0 0 3 C0.3 4.7 0.6 6.3 1 8 C0.0 8.5 0.0 8.5 -1 9 C-2.0 7.0 -3.0 5.0 -4 3 C-2.7 2.0 -1.4 1.0 0 0 Z " fill="#245A3A" transform="translate(369,147)"/><path d="M0 0 C0.7 0.3 1.3 0.7 2 1 C2 1.7 2 2.3 2 3 C4.5 4.0 4.5 4.0 7 5 C4.5 5.9 3.3 6.1 0.8 5.2 C-1 4 -1 4 -2 1 C-1.3 0.7 -0.7 0.3 0 0 Z " fill="#DBEBDB" transform="translate(451,129)"/><path d="M0 0 C4.1 6.2 4.1 6.2 3.6 9.2 C3.4 9.8 3.2 10 3 11 C3 10 3 9.7 3 9 C2.3 9 1.7 9 1 9 C0.7 6.0 0.3 3.1 0 0 Z " fill="#265438" transform="translate(370,470)"/><path d="M0 0 C1 3 1 3 -0.4 6.2 C-1.2 7.6 -1.2 7.6 -2 9 C-2.7 9 -3.3 9 -4 9 C-3.7 7.7 -3.4 6.4 -3.1 5.1 C-3.0 4.3 -2.8 3.6 -2.6 2.8 C-2 1 -2 1 0 0 Z " fill="#245437" transform="translate(255,446)"/><path d="M0 0 C1.3 3.9 0.2 6.1 -1 10 C-1.3 10 -1.7 10 -2 10 C-2.2 3.9 -2.2 3.9 -2 2 C-1.3 1.3 -0.7 0.7 0 0 Z " fill="#F5FCF2" transform="translate(295,434)"/><path d="M0 0 C1.0 0 2.0 0 3 0 C3 1.6 3 3.3 3 5 C2.3 5 1.7 5 1 5 C0.7 5.7 0.3 6.3 0 7 C0 4.7 0 2.4 0 0 Z " fill="#1E6E46" transform="translate(289,427)"/><path d="M0 0 C1.0 0 2.0 0 3 0 C3 0.7 3 1.3 3 2 C3.7 2 4.3 2 5 2 C4 4 4 4 2 5 C1.0 4.7 0.0 4.3 -1 4 C-0.7 2.7 -0.3 1.4 0 0 Z " fill="#326949" transform="translate(334,397)"/><path d="M0 0 C-1.3 2.9 -2.7 4.9 -5 7 C-5 3 -5 3 -3.6 1.2 C-2 0 -2 0 0 0 Z " fill="#C9E8D9" transform="translate(387,339)"/><path d="M0 0 C1.0 0.3 2.0 0.7 3 1 C2.7 3.0 2.3 5.0 2 7 C1.0 7.3 0.0 7.7 -1 8 C-1.6 5.6 -1.6 5.6 -2 3 C-1.3 2.3 -0.7 1.7 0 1 C0 0.7 0 0.3 0 0 Z " fill="#2A6745" transform="translate(304,330)"/><path d="M0 0 C1.0 0 2.0 0 3 0 C1.7 2.9 0.3 4.9 -2 7 C-2.7 6.7 -3.3 6.3 -4 6 C-2.2 3 -2.2 3 0 0 Z " fill="#DAEADE" transform="translate(228,305)"/><path d="M0 0 C1.0 0.3 2.0 0.7 3 1 C0.5 4.5 0.5 4.5 -2 8 C-2.7 7.7 -3.3 7.3 -4 7 C-2.7 4.7 -1.4 2.4 0 0 Z " fill="#DEEEE2" transform="translate(234,295)"/><path d="M0 0 C0.7 0 1.3 0 2 0 C1.7 3.3 1.0 4.0 -1.6 6.2 C-2.4 6.8 -3.2 7.4 -4 8 C-3.7 6.1 -3.7 6.1 -3 4 C-2.0 3.7 -1.0 3.3 0 3 C0 2.0 0 1.0 0 0 Z " fill="#D8ECDC" transform="translate(363,260)"/><path d="M0 0 C0.7 1.0 1.3 2.0 2 3 C1.0 4.5 1.0 4.5 0 6 C-0.7 6 -1.3 6 -2 6 C-1.3 4.0 -0.7 2.0 0 0 Z M3 0 C3.7 1.0 4.3 2.0 5 3 C4.3 3.7 3.7 4.3 3 5 C2.4 3.1 2.4 3.1 2 1 C2.3 0.7 2.7 0.3 3 0 Z " fill="#326747" transform="translate(388,226)"/><path d="M0 0 C1.0 0.3 2.0 0.7 3 1 C1.4 3.6 -0.3 6.3 -2 9 C-3 5 -3 5 -1.6 2.2 C-1.0 1.5 -0.5 0.8 0 0 Z " fill="#D3E9D7" transform="translate(319,206)"/><path d="M0 0 C2.3 0.3 4.6 0.7 7 1 C6.4 1.1 5.7 1.2 5.1 1.3 C4.0 1.7 4.0 1.7 3 2 C2.7 3.0 2.3 4.0 2 5 C1.0 4.7 0.0 4.3 -1 4 C-0.7 2.7 -0.3 1.4 0 0 Z " fill="#275C3E" transform="translate(485,165)"/><path d="M0 0 C0.7 1.3 1.3 2.6 2 4 C0.7 5.0 -0.6 6.0 -2 7 C-2.7 5.2 -2.7 5.2 -3 3 C-1.6 1.2 -1.6 1.2 0 0 Z " fill="#E5F0E3" transform="translate(305,164)"/><path d="M0 0 C0.3 1.0 0.7 2.0 1 3 C-0.3 4.4 -1.6 5.7 -3 7 C-3.7 7 -4.3 7 -5 7 C-3.7 4.1 -2.3 2.1 0 0 Z " fill="#D8EADB" transform="translate(417,418)"/><path d="M0 0 C4.3 0 8.6 0 13 0 C13 0.3 13 0.7 13 1 C5.4 2 5.4 2 2 2 C1.3 1.3 0.7 0.7 0 0 Z " fill="#E0F2E6" transform="translate(421,416)"/><path d="M0 0 C0.3 1.3 0.7 2.6 1 4 C-0.9 6.8 -0.9 6.8 -3 9 C-3.7 8.7 -4.3 8.3 -5 8 C-3.4 5.4 -1.7 2.7 0 0 Z " fill="#D9EBDC" transform="translate(229,397)"/><path d="M0 0 C0.7 1.0 1.3 2.0 2 3 C0.7 5.3 -0.6 7.6 -2 10 C-3 8 -3 8 -2.4 6.1 C-2.2 5.3 -1.9 4.6 -1.6 3.9 C-1.3 3.2 -1.0 2.4 -0.7 1.7 C-0.5 1.1 -0.2 0.6 0 0 Z " fill="#D7EADB" transform="translate(191,374)"/><path d="M0 0 C0.3 0 0.7 0 1 0 C1.4 7.5 1.4 7.5 -0.5 10 C-1.0 10 -1.5 11 -2 11 C-1.4 7.3 -0.8 3.7 0 0 Z " fill="#1E573A" transform="translate(507,350)"/><path d="M0 0 C0.7 0.7 1.3 1.3 2 2 C-1.5 5.0 -1.5 5.0 -5 8 C-5.7 7.7 -6.3 7.3 -7 7 C-4.7 4.7 -2.4 2.4 0 0 Z " fill="#A5D0B6" transform="translate(266,352)"/><path d="M0 0 C2 3 2 3 1.8 5.6 C1.5 6.4 1.3 7.2 1 8 C0.0 8.5 0.0 8.5 -1 9 C-0.7 6.0 -0.3 3.1 0 0 Z " fill="#CDE1D5" transform="translate(499,348)"/><path d="M0 0 C0 3 0 3 -1.9 5.2 C-4 7 -4 7 -6 7 C-4.6 3.6 -3.0 2.0 0 0 Z " fill="#E1EFE4" transform="translate(227,326)"/><path d="M0 0 C2.9 0.6 3.9 0.9 6 3 C2.7 4.1 1.3 3.8 -2 3 C-1.3 2.0 -0.7 1.0 0 0 Z " fill="#134E2B" transform="translate(375,289)"/><path d="M0 0 C0 0.7 0 1.3 0 2 C-2.3 3.3 -4.6 4.6 -7 6 C-7.7 5.3 -8.3 4.7 -9 4 C-2.2 0 -2.2 0 0 0 Z " fill="#D7E9DA" transform="translate(307,277)"/><path d="M0 0 C1.0 0 2.0 0 3 0 C2.4 2.0 1.7 4.0 1 6 C0.0 6.5 0.0 6.5 -1 7 C-1.0 5.0 -1.0 3.0 -1 1 C-0.7 0.7 -0.3 0.3 0 0 Z " fill="#386848" transform="translate(272,274)"/><path d="M0 0 C0.2 1.0 0.2 1.0 0.4 1.9 C0.7 3.0 0.7 3.0 1 4 C1.7 4.3 2.3 4.7 3 5 C2.7 6.3 2.3 7.6 2 9 C0.7 7.3 -0.6 5.7 -2 4 C-1.3 2.7 -0.7 1.4 0 0 Z " fill="#326948" transform="translate(303,234)"/><path d="M0 0 C0.3 0 0.7 0 1 0 C1.3 2.0 1.7 4.0 2 6 C1.0 6.7 0.0 7.3 -1 8 C-2.2 4.4 -1.5 3.4 0 0 Z " fill="#DDEDE1" transform="translate(476,212)"/><path d="M0 0 C1 3 1 3 0.1 5.2 C-0.5 6.1 -0.5 6.1 -1 7 C-2.5 5.6 -2.5 5.6 -4 4 C-4 3.3 -4 2.7 -4 2 C-2.7 1.3 -1.4 0.7 0 0 Z " fill="#1E5234" transform="translate(451,198)"/><path d="M0 0 C0.7 0 1.3 0 2 0 C2.7 2.8 2.7 2.8 3 6 C2.0 7.3 1.0 8.6 0 10 C0 6.7 0 3.4 0 0 Z " fill="#A5CDB7" transform="translate(483,165)"/><path d="M0 0 C-1.4 2 -1.4 2 -3 4 C-3.7 4 -4.3 4 -5 4 C-5.3 2.7 -5.7 1.4 -6 0 C-3.5 -1.2 -2.6 -0.8 0 0 Z " fill="#E0EBE0" transform="translate(441,144)"/></svg> 