<?xml version="1.0" encoding="UTF-8"?><svg xmlns="http://www.w3.org/2000/svg" viewBox="99 1365 741 773"><path d="M0 0 C-0.6 4.0 -2.7 6.6 -5 9.9 C-14 23 -20 38 -23 53 C-23 54 -23 54 -23 55 C-29 80 -26 106 -20 131 C-19 134 -19 136 -19 139 C20 138 64 134 93 105 C95 104 95 104 97 104 C97 103 98 103 98 102 C99 100 100 99 102 97 C103 96 103 96 104 95 C105 94 105 94 106 93 C106 93 107 92 107 91 C109 90 110 88 112 87 C113 87 114 88 115 88 C114 97 105 104 99 110 C98 111 97 112 96 113 C95 114 95 114 94 115 C93 116 93 116 92 117 C65 143 19 148 -17 148 C-17 149 -16 150 -16 151 C-8.5 179 -6.5 210 -14 239 C-14 240 -14 240 -15 241 C-20 262 -30 279 -45 294 C-46 295 -46 295 -47 296 C-62 312 -83 321 -103 327 C-104 327 -104 327 -105 328 C-130 335 -157 337 -183 337 C-183 338 -183 338 -182 339 C-176 363 -173 390 -178 414 C-178 415 -178 416 -178 416 C-183 438 -191 461 -207 477 C-208 477 -210 476 -211 476 C-210 472 -208 469 -206 466 C-185 433 -181 396 -188 358 C-188 356 -189 353 -189 351 C-190 349 -190 347 -190 345 C-191 342 -191 340 -191 337 C-234 340 -234 340 -275 353 C-277 354 -277 354 -278 355 C-296 363 -309 376 -322 390 C-323 390 -325 389 -326 389 C-325 377 -314 368 -305 360 C-302 357 -298 355 -295 353 C-294 352 -293 352 -292 351 C-262 333 -228 327 -194 328 C-194 327 -194 326 -194 325 C-195 322 -196 319 -196 316 C-196 314 -197 313 -197 312 C-204 272 -201 231 -177 197 C-154 164 -119 150 -81 143 C-63 141 -46 140 -28 140 C-28 139 -28 139 -28 138 C-38 94 -39 53 -15 14 C-14 13 -14 13 -13 11 C-6.3 0 -6.3 0 0 0 Z " fill="#F4F3ED" transform="translate(468,1425)"/><path d="M0 0 C-0.6 4.0 -2.7 6.6 -5 9.9 C-14 23 -20 38 -23 53 C-23 54 -23 54 -23 55 C-29 80 -26 106 -20 131 C-19 134 -19 136 -19 139 C20 138 64 134 93 105 C95 104 95 104 97 104 C97 103 98 103 98 102 C99 100 100 99 102 97 C103 96 103 96 104 95 C105 94 105 94 106 93 C106 93 107 92 107 91 C109 90 110 88 112 87 C113 87 114 88 115 88 C114 97 105 104 99 110 C98 111 97 112 96 113 C95 114 95 114 94 115 C93 116 93 116 92 117 C65 143 19 148 -17 148 C-17 149 -16 150 -16 151 C-8.5 179 -6.5 210 -14 239 C-14 240 -14 240 -15 241 C-20 262 -30 279 -45 294 C-46 295 -46 295 -47 296 C-62 312 -83 321 -103 327 C-104 327 -104 327 -105 328 C-130 335 -157 337 -183 337 C-183 338 -183 338 -182 339 C-176 363 -173 390 -178 414 C-178 415 -178 416 -178 416 C-183 438 -191 461 -207 477 C-208 477 -210 476 -211 476 C-210 472 -208 469 -206 466 C-185 433 -181 396 -188 358 C-188 356 -189 353 -189 351 C-190 349 -190 347 -190 345 C-191 342 -191 340 -191 337 C-234 340 -234 340 -275 353 C-277 354 -277 354 -278 355 C-296 363 -309 376 -322 390 C-323 390 -325 389 -326 389 C-325 377 -314 368 -305 360 C-302 357 -298 355 -295 353 C-294 352 -293 352 -292 351 C-262 333 -228 327 -194 328 C-194 327 -194 326 -194 325 C-195 322 -196 319 -196 316 C-196 314 -197 313 -197 312 C-204 272 -201 231 -177 197 C-154 164 -119 150 -81 143 C-63 141 -46 140 -28 140 C-28 139 -28 139 -28 138 C-38 94 -39 53 -15 14 C-14 13 -14 13 -13 11 C-6.3 0 -6.3 0 0 0 Z M-93 155 C-94 155 -95 155 -96 156 C-115 160 -134 168 -149 181 C-150 182 -150 182 -152 183 C-176 204 -189 234 -191 266 C-191 267 -191 267 -191 268 C-192 288 -189 308 -185 327 C-179 327 -173 327 -167 327 C-166 327 -166 327 -165 327 C-154 327 -143 325 -132 324 C-132 324 -131 323 -130 323 C-96 318 -64 305 -42 277 C-15 239 -17 196 -25 152 C-25 150 -25 150 -26 149 C-48 148 -71 151 -93 155 Z " fill="#5D3F93" transform="translate(468,1425)"/><path d="M0 0 C4.9 0.5 7.8 2.9 11 5.9 C13 6.9 14 7.9 15 8.9 C16 9.4 16 9.9 17 10 C20 13 23 15 26 17 C26 18 27 18 27 19 C32 22 37 26 42 30 C47 34 52 38 57 41 C58 42 59 43 60 44 C63 46 65 48 68 50 C72 54 75 56 80 56 C82 56 82 56 83 56 C86 56 88 57 90 59 C92 63 92 65 92 69 C91 72 90 73 87 75 C83 77 80 77 76 75 C74 72 74 71 73 67 C73 62 71 60 67 58 C65 56 63 55 62 54 C59 52 56 50 53 48 C50 45 46 42 42 39 C34 34 27 28 20 23 C18 21 16 19 14 18 C13 17 11 16 10 15 C9.6 15 9.1 14 8.5 14 C5.1 11 1.9 8.2 -1 5 C-0.8 2.2 -0.8 2.2 0 0 Z " fill="#624099" transform="translate(303,1644)"/><path d="M0 0 C2.8 1.3 4.5 2.2 6.2 4.8 C7 7 7 7 7.1 10 C8.3 15 11 17 15 20 C15 20 16 21 17 21 C19 23 21 24 23 26 C24 27 26 28 27 29 C30 31 32 33 35 35 C50 46 65 58 79 70 C79 72 78 73 78 75 C73 75 70 73 66 69 C64 67 61 64 58 62 C57 61 56 61 54 60 C54 59 53 59 53 58 C44 52 35 45 27 38 C22 33 16 29 11 25 C8 23 8 23 5.4 21 C2.6 19 1.4 19 -2 19 C-5.4 19 -6.9 19 -10 18 C-13 14 -13 12 -12 7.4 C-12 5 -12 5 -9.9 1.9 C-6.2 -0.5 -4.3 -0.6 0 0 Z " fill="#593D8C" transform="translate(347,1606)"/><path d="M0 0 C5.7 0.4 8.7 1.8 13 5.4 C14 5.8 14 6.3 15 6.7 C16 7.7 17 8.6 18 9.6 C21 11 23 13 25 15 C31 19 36 24 42 29 C48 33 54 38 60 43 C62 44 64 46 65 47 C69 51 69 51 74 52 C76 52 77 52 79 51 C81 51 81 51 84 53 C87 55 88 56 88 59 C88 65 88 65 87 68 C84 71 82 71 79 71 C74 71 73 70 70 67 C70 66 70 64 70 63 C68 56 62 53 57 49 C53 47 50 44 46 41 C45 40 43 39 42 38 C39 35 35 33 32 30 C24 24 16 18 8.0 12 C2.1 7.4 2.1 7.4 0 5 C-0.2 2.3 -0.2 2.3 0 0 Z " fill="#5C3E91" transform="translate(462,1459)"/><path d="M0 0 C3.0 0.6 5.0 1.5 7.4 3.3 C8.0 3.8 8.7 4.3 9.3 4.8 C10 5.3 11 5.8 11 6.4 C12 6.9 13 7.5 14 8.0 C16 9.7 18 11 20 13 C21 13 21 14 22 14 C29 20 37 26 44 32 C48 36 53 39 57 42 C64 48 71 54 78 60 C81 61 83 63 85 65 C85 67 85 67 84 69 C82 70 82 70 79 70 C76 68 74 66 71 64 C70 63 68 61 67 60 C66 59 65 59 64 58 C61 55 58 52 54 50 C54 49 53 49 52 48 C49 46 46 44 43 41 C37 36 31 31 25 26 C20 22 16 19 11 15 C6.8 12 2.9 8.4 -1 5 C-0.7 3.4 -0.3 1.7 0 0 Z " fill="#593D87" transform="translate(178,1799)"/><path d="M0 0 C2.9 2.5 4.8 4.3 5.3 8.2 C5.3 10 5.3 10 5 14 C5.7 14 6.4 14 7.1 15 C11 16 13 19 16 21 C18 22 19 23 20 24 C21 25 21 25 22 26 C25 28 28 30 31 32 C36 36 40 40 45 44 C45 46 44 47 44 49 C40 48 37 47 34 44 C33 44 33 43 32 43 C30 42 29 40 27 39 C26 38 25 37 23 36 C19 33 14 29 10 26 C9.2 25 8.3 24 7.4 23 C6.6 23 5.9 22 5.1 21 C1.8 19 -0.4 19 -4.4 19 C-8.7 19 -10 18 -13 15 C-15 12 -14 8.5 -14 5 C-10 -0.9 -6.7 -2.1 0 0 Z " fill="#5A3A8E" transform="translate(303,1686)"/><path d="M0 0 C5.0 0.3 7.4 1.8 11 5 C16 9.1 21 13 26 17 C29 19 32 22 35 24 C38 27 41 29 45 28 C46 28 47 28 48 28 C51 28 53 29 55 31 C58 34 57 38 57 42 C55 45 54 47 51 48 C47 49 45 48 41 46 C38 44 38 42 37 39 C37 34 35 33 31 30 C29 29 28 28 26 26 C22 24 18 21 15 18 C14 17 13 17 12 16 C10 14 8.1 13 6 11 C5.1 10 5.1 10 4.2 9.6 C0.1 6.3 0.1 6.3 -0.9 3.2 C-1.0 2.5 -1.0 1.8 -1 1 C-0.7 0.7 -0.3 0.3 0 0 Z " fill="#5D3C96" transform="translate(381,1591)"/><path d="M0 0 C2.6 2.2 3.7 3.1 5 6 C5.1 7.3 5.2 8.6 5.2 9.9 C5.6 13 5.9 14 8.6 17 C9.7 17 11 18 12 19 C13 20 15 20 16 21 C17 22 17 22 18 23 C22 25 25 28 28 31 C29 31 30 32 30 32 C34 36 38 39 42 42 C42 44 41 45 41 47 C35 47 32 44 28 40 C26 39 25 38 23 37 C23 36 22 35 21 35 C18 32 15 29 11 27 C11 26 10 26 9.5 26 C8.0 24 6.5 23 5 22 C4.3 21 3.6 21 2.9 20 C0.4 19 -0.6 19 -3.4 20 C-7.2 20 -7.9 20 -12 18 C-14 15 -15 12 -15 8.2 C-15 4.9 -13 3.2 -11 1 C-7.5 -0.8 -3.8 -0.7 0 0 Z " fill="#5F4094" transform="translate(466,1501)"/><path d="M0 0 C8.6 1.1 15 8.4 22 14 C25 17 28 19 31 22 C32 22 32 23 33 23 C38 27 40 28 46 28 C49 28 50 28 52 30 C55 34 55 36 55 41 C53 44 52 46 49 47 C45 47 43 48 39 45 C37 42 37 41 36 38 C34 31 29 29 24 25 C19 22 14 18 9.6 14 C8.1 13 6.6 12 5.1 11 C4.2 10 3.4 9.3 2.6 8.6 C1.8 8.0 1.1 7.5 0.4 6.9 C-1 5 -1 5 -0.7 2.3 C-0.5 1.5 -0.2 0.8 0 0 Z " fill="#5E3E92" transform="translate(218,1779)"/><path d="M0 0 C-0.7 0.8 -1.3 1.6 -2 2.4 C-4.1 4.6 -4.1 4.6 -4 6 C-2.4 6 -0.7 6 1 6 C-6.2 13 -23 14 -33 14 C-35 14 -36 14 -37 14 C-36 13 -36 13 -35 12 C-33 10 -33 10 -33 9 C-44 9 -55 9 -67 9 C-67 8.7 -67 8.3 -67 8 C-66 7.9 -66 7.9 -64 7.8 C-43 6.2 -20 -0.6 0 0 Z " fill="#55388A" transform="translate(516,1557)"/><path d="M0 0 C4.4 1.5 7.6 3.9 11 6.8 C12 7.7 14 8.7 15 9.7 C16 11 16 11 17 11 C20 14 23 16 26 18 C29 21 33 24 37 27 C38 28 39 28 39 29 C42 31 44 32 46 34 C47 35 48 35 48 36 C50 37 51 39 53 40 C53 41 53 42 53 43 C49 42 46 40 43 38 C43 37 42 37 41 36 C38 34 35 31 32 29 C32 28 31 28 30 27 C29 26 28 25 27 24 C23 22 23 22 19 21 C19 20 19 20 18 19 C17 17 15 16 13 14 C11 12 11 12 9 11 C9 10 9 9.7 9 9 C8.4 8.9 7.9 8.9 7.3 8.8 C4.0 7.6 2.3 5.6 0 3 C0 2.0 0 1.0 0 0 Z " fill="#603F9B" transform="translate(464,1460)"/><path d="M0 0 C5.0 0.3 7.4 1.8 11 5 C16 9.3 21 13 27 17 C29 19 29 19 30 21 C28 21 27 21 25 21 C26 25 28 26 32 28 C34 29 34 29 36 30 C36 31 36 31 37 33 C34 32 31 30 28 28 C23 24 18 20 12 16 C10 14 8.0 13 6 11 C5.4 11 4.8 10 4.2 9.6 C0.1 6.3 0.1 6.3 -0.9 3.2 C-1.0 2.5 -1.0 1.8 -1 1 C-0.7 0.7 -0.3 0.3 0 0 Z " fill="#563B87" transform="translate(381,1591)"/><path d="M0 0 C0 2.2 0 2.2 -1 5 C-7.9 11 -18 15 -27 18 C-30 19 -30 19 -31 21 C-34 21 -36 21 -39 21 C-37 16 -37 16 -35 15 C-35 14 -36 14 -36 13 C-35 13 -35 13 -34 12 C-32 12 -29 11 -26 9.8 C-25 9.3 -25 9.3 -24 8.8 C-18 7.0 -14 4.9 -9 2 C-6.2 1.3 -6.2 1.3 -4 1 C-2 0 -2 0 0 0 Z " fill="#6646A1" transform="translate(550,1543)"/><path d="M0 0 C0 3 0 3 -1.5 4.8 C-2.2 5.4 -2.8 6.1 -3.5 6.7 C-4.1 7.3 -4.8 7.9 -5.5 8.6 C-6.0 9.0 -6.5 9.5 -7 10 C-6.5 11 -6.5 11 -6 13 C-3.5 13 -3.5 13 -1 14 C-8.9 25 -23 33 -36 38 C-37 38 -38 37 -39 37 C-37 36 -34 35 -32 34 C-31 33 -31 33 -30 32 C-25 30 -25 30 -23 30 C-23 29 -23 29 -23 28 C-22 28 -21 27 -20 27 C-20 25 -20 25 -21 22 C-22 22 -23 23 -24 24 C-27 25 -27 25 -29 25 C-29 24 -29 24 -29 23 C-27 22 -25 20 -23 19 C-14 14 -7.1 7.2 0 0 Z " fill="#553987" transform="translate(421,1707)"/><path d="M0 0 C1.7 5.2 -1.7 10 -4.0 15 C-8.5 24 -14 33 -21 40 C-22 40 -24 39 -25 39 C-24 35 -22 32 -20 29 C-16 23 -12 16 -9 9 C-8.0 7.0 -7.0 5.0 -6 3 C-5.7 4.3 -5.3 5.6 -5 7 C-4.3 7 -3.7 7 -3 7 C-2.7 6.0 -2.4 5.1 -2.1 4.1 C-1 1 -1 1 0 0 Z " fill="#583D87" transform="translate(282,1862)"/><path d="M0 0 C1.4 0.4 2.9 0.9 4.3 1.3 C5.5 1.7 5.5 1.7 6.7 2.1 C9.2 3.1 10 3.8 12 6 C13 8.7 13 8.7 13 12 C13 13 13 13 13 15 C13 15 13 16 13 17 C11 17 8.5 17 6.2 17 C4.3 17 4.3 17 2.4 17 C-1 17 -1 17 -2.9 16 C-4.8 13 -4.4 10 -4 7 C-2 3.6 -2 3.6 0 1 C0 0.7 0 0.3 0 0 Z " fill="#6641A3" transform="translate(340,1606)"/><path d="M0 0 C5.7 0.4 8.7 1.8 13 5.4 C14 5.8 14 6.3 15 6.7 C16 7.7 17 8.6 18 9.6 C21 11 23 13 25 15 C31 19 36 24 42 29 C50 35 58 41 66 47 C67 48 67 48 68 49 C69 50 70 50 70 51 C71 51 71 51 72 52 C72 53 72 53 72 54 C69 53 67 51 64 49 C64 49 63 48 62 48 C62 47 61 46 60 46 C55 41 49 37 43 32 C40 30 37 28 34 25 C34 25 33 24 32 24 C26 19 20 14 14 9.3 C10 6.0 6.5 3.4 2 1 C2.2 3.4 2.2 3.4 3 6 C4.8 7.3 4.8 7.3 7 8 C11 9.6 13 12 16 15 C18 16 19 18 21 19 C21 20 20 20 20 21 C17 19 14 16 11 14 C10 13 9.4 13 8.6 12 C7.8 12 7.0 11 6.1 10 C5.4 9.7 4.6 9.1 3.9 8.5 C2 7 2 7 0 5 C-0.1 2.4 -0.1 2.4 0 0 Z " fill="#533C7C" transform="translate(462,1459)"/><path d="M0 0 C4.7 4.0 4.7 4.0 6.5 6.1 C6.5 7.0 6.5 8.0 6.5 9.1 C7.2 9.3 7.9 9.5 8.7 9.7 C12 11 15 13 18 16 C17 17 17 18 17 19 C12 18 9.7 16 6.6 14 C5.8 13 5.8 13 4.9 12 C0.6 9.0 -3.6 5.5 -7.8 2.1 C-8.3 1.6 -8.9 1.1 -9.5 0.6 C-11 -0.5 -12 -1.7 -13 -2.9 C-13 -3.6 -13 -4.3 -13 -4.9 C-8.3 -7.4 -3.9 -3.1 0 0 Z " fill="#604097" transform="translate(231.453125,1785.9453125)"/><path d="M0 0 C0.7 0 1.3 0 2 0 C2.0 3.8 2.0 7.6 2.1 11 C2.1 12 2.1 13 2.1 15 C2.1 21 1.8 28 1 34 C0.3 34 -0.3 34 -1 34 C-2.0 37 -3.0 40 -4 43 C-4.7 43 -5.3 42 -6 42 C-8.4 32 -6.6 21 -6 11 C-5.7 11 -5.3 11 -5 11 C-4.7 15 -4.3 18 -4 22 C-3.3 21 -2.7 21 -2 20 C-1.7 20 -1.3 21 -1 21 C-0.7 14 -0.3 7.1 0 0 Z " fill="#674A94" transform="translate(290,1801)"/><path d="M0 0 C1.3 0 2.6 0 4 0 C4 0.7 4 1.3 4 2 C2.7 2 1.4 2 0 2 C3.1 6.2 6.5 9.2 11 12 C12 13 13 14 14 15 C15 16 16 16 16 17 C19 19 22 21 25 24 C27 25 27 25 30 25 C30 24 30 24 30 23 C28 22 27 21 25 20 C23 18 22 17 20 16 C20 15 20 15 20 14 C25 16 29 20 33 23 C33 24 34 24 35 25 C35 25 36 25 36 26 C40 28 44 28 48 28 C45 30 42 31 39 31 C38 31 37 30 36 30 C36 31 36 32 36 33 C31 32 28 29 24 26 C24 25 23 25 22 24 C21 23 20 22 19 21 C17 20 16 19 14 18 C9.0 14 3.9 9.4 -1 5 C-0.7 3.4 -0.3 1.7 0 0 Z " fill="#543B7F" transform="translate(218,1779)"/><path d="M0 0 C4.4 1.4 7.5 3.9 11 6.9 C14 9.5 17 12 20 14 C21 15 22 15 23 16 C23 17 23 17 23 18 C24 19 26 19 27 20 C27 21 27 21 27 22 C28 23 30 23 31 24 C31 25 30 26 30 27 C25 24 21 21 17 18 C16 17 14 16 13 15 C13 14 12 14 12 13 C8.5 11 5.1 8.2 1.8 5.7 C0 4 0 4 -1 1 C-0.7 0.7 -0.3 0.3 0 0 Z " fill="#5F3D98" transform="translate(230,1841)"/><path d="M0 0 C-0.1 5.2 -0.1 5.2 -1 8 C-4.0 11 -7.9 12 -12 13 C-14 14 -17 14 -19 15 C-19 12 -18 9.1 -18 6 C-16 5.0 -13 4.0 -11 3 C-9.7 2.6 -9.7 2.6 -8.6 2.1 C-5.6 0.9 -3.3 0 0 0 Z " fill="#644599" transform="translate(357,1576)"/><path d="M0 0 C1.6 0.3 3.3 0.7 5 1 C5 2.0 5 3.0 5 4 C4.3 4 3.7 4 3 4 C3.1 5.2 3.1 6.3 3.2 7.5 C3.2 12 1.8 16 0 20 C-0.7 20 -1.3 20 -2 20 C-2.7 21 -3.3 23 -4 24 C-4.3 23 -4.7 23 -5 22 C-6.3 22 -7.6 23 -9 23 C-6.9 15 -3.6 7.5 0 0 Z " fill="#60478F" transform="translate(448,1447)"/><path d="M0 0 C5.5 1.2 8.9 3.1 13 6.9 C14 7.9 15 8.9 16 9.9 C17 10 18 11 18 11 C22 15 26 18 30 20 C34 24 34 24 35 26 C31 24 28 22 24 19 C23 18 22 17 21 16 C20 16 19 15 18 14 C17 13 15 12 14 11 C13 11 13 11 12 12 C7.8 12 6.5 10 3.3 7.5 C2.3 6.7 1.3 5.8 0.3 5.0 C-0.5 4.3 -1.2 3.7 -2 3 C-1.3 2.7 -0.7 2.3 0 2 C0 1.3 0 0.7 0 0 Z " fill="#583A8A" transform="translate(218,1831)"/><path d="M0 0 C3.3 1.5 5.8 3.4 8.6 5.6 C9.5 6.3 10 7.0 11 7.8 C12 8.5 13 9.2 14 10 C16 12 18 13 20 14 C21 16 23 17 24 18 C23 18 23 19 22 19 C20 18 18 16 17 15 C16 14 15 13 14 12 C11 10 11 10 10 9 C8.3 9.0 6.7 9.0 5 9 C7.1 11 9.2 12 11 14 C12 14 12 15 13 15 C14 16 14 16 15 17 C15 17 16 17 16 18 C18 19 19 20 20 21 C22 22 22 22 22 24 C22 26 22 28 22 30 C22 30 21 30 21 30 C21 29 21 28 21 27 C20 22 19 21 15 19 C14 18 13 17 11 16 C11 16 10 16 9.8 15 C6.7 13 3.8 11 0.8 8.6 C0.2 8.1 -0.3 7.7 -0.9 7.3 C-4.9 4.2 -4.9 4.2 -6 2 C-3.0 3.0 -0.1 4.0 3 5 C2.0 4.0 1.0 3.0 0 2 C0 1.3 0 0.7 0 0 Z " fill="#51387E" transform="translate(355,1683)"/><path d="M0 0 C2.0 1.6 4.0 3.3 6 5 C7.7 5.7 9.3 6.4 11 7 C13 8.3 13 8.3 14 10 C14 13 14 13 13 15 C6.3 14 2.5 9.7 -2 5 C-2.9 4.1 -3.9 3.1 -4.8 2.2 C-5.5 1.5 -6.3 0.7 -7 0 C-4.2 -1.4 -3.0 -1.0 0 0 Z " fill="#5D3B99" transform="translate(334,1720)"/><path d="M0 0 C0.3 0 0.7 0 1 0 C4.2 14 5.5 28 5.9 42 C5.9 43 5.9 44 6.0 45 C6.0 47 6.1 50 6.1 52 C6.1 53 6.1 53 6.2 54 C6.2 59 5.4 63 4 67 C3.6 69 3.3 70 3 72 C2.3 72 1.7 72 1 72 C1.1 70 1.3 68 1.4 66 C1.6 65 1.6 65 1.7 63 C2 60 2 60 2.5 57 C3.1 53 3.2 49 3.2 45 C3.2 44 3.2 43 3.2 42 C3.1 33 2.2 24 1.2 15 C0.7 10 0.4 5.1 0 0 Z " fill="#4D3679" transform="translate(445,1586)"/><path d="M0 0 C-2.5 1.5 -2.5 1.5 -5 3 C-4.7 4.3 -4.3 5.6 -4 7 C-4.6 7.2 -5.1 7.4 -5.7 7.6 C-6.4 7.8 -7.2 8.1 -7.9 8.4 C-8.7 8.6 -9.4 8.9 -10 9.1 C-12 9.9 -12 9.9 -13 12 C-16 12 -18 12 -21 12 C-19 7.1 -19 7.1 -17 6 C-17 5.3 -18 4.7 -18 4 C-16 3.1 -13 2.3 -11 1.4 C-10.0 1.2 -9.3 0.9 -8.6 0.7 C-3.3 -1.1 -3.3 -1.1 0 0 Z " fill="#5F3F9D" transform="translate(532,1552)"/><path d="M0 0 C3.8 -0.4 5.5 -0.4 8.6 1.9 C9.5 2.8 10 3.6 11 4.4 C15 8.4 15 8.4 20 10 C21 9.7 21 9.3 22 9 C27 8.6 30 8.7 34 12 C35 15 35 15 35 17 C34 16 34 15 33 14 C31 12 30 12 27 12 C24 12 21 12 18 12 C18 13 17 13 17 14 C14 12 12 10 9.1 8.1 C8.3 7.6 7.6 7.0 6.8 6.4 C6.1 5.9 5.3 5.4 4.6 4.8 C3.9 4.3 3.3 3.8 2.6 3.3 C1 2 1 2 0 0 Z " fill="#5C3C96" transform="translate(359,1691)"/><path d="M0 0 C5.4 1.5 9.0 5.3 13 9 C12 9.7 11 10 10 11 C12 15 15 18 19 20 C19 21 20 21 20 22 C22 23 23 24 25 25 C17 25 6.3 13 0 8 C0.7 7.7 1.3 7.3 2 7 C3.0 7.3 4.0 7.7 5 8 C5.3 4.8 5.3 4.8 2.5 2.3 C1.7 1.5 0.8 0.8 0 0 Z " fill="#543981" transform="translate(324,1659)"/><path d="M0 0 C0.7 0 1.3 0 2 0 C3.3 4.3 2.6 6.9 1 11 C0.3 11 -0.3 11 -1 11 C-2.0 13 -3.0 15 -4 17 C-4.7 17 -5.3 17 -6 17 C-7.7 11 -6.0 6.6 -4 1 C-3.0 1 -2.0 1 -1 1 C-0.7 0.7 -0.3 0.3 0 0 Z " fill="#634693" transform="translate(283,1852)"/><path d="M0 0 C1.9 0.7 1.9 0.7 4 2 C4.7 4.0 4.7 4.0 4.9 6.4 C5.6 9.7 5.9 11 8.2 14 C12 15 14 16 18 15 C21 13 23 11 24 7.9 C24 5.9 24 4.0 24 2 C24 2 25 2 25 2 C25 3.6 25 5.2 25 6.8 C25 7.7 25 8.6 25 9.5 C25 12 25 12 24 15 C23 15 23 15 22 15 C22 16 22 16 22 17 C17 19 13 18 8.3 17 C3.6 14 2.5 10 1 5 C0.6 3.3 0.3 1.7 0 0 Z " fill="#F5EDF9" transform="translate(414,1623)"/><path d="M0 0 C-4.0 10 -21 17 -30 21 C-32 22 -32 22 -34 22 C-34 20 -34 20 -32 18 C-30 17 -28 16 -26 16 C-24 15 -22 14 -20 13 C-17 11 -17 11 -14 11 C-14 10 -14 9.7 -14 9 C-12 8.0 -11 7.0 -9 6 C-7.1 4.4 -5.3 2.8 -3.6 1.2 C-2 0 -2 0 0 0 Z " fill="#F1EAF6" transform="translate(561,1530)"/><path d="M0 0 C-0.7 0.3 -1.3 0.7 -2 1 C-2.3 1.7 -2.7 2.3 -3 3 C-16 3 -29 3 -43 3 C-43 2.7 -43 2.3 -43 2 C-29 0.8 -14 -0.4 0 0 Z " fill="#F1EAF7" transform="translate(442,1574)"/><path d="M0 0 C0.3 0 0.7 0 1 0 C2.0 5.0 3.0 9.9 4 15 C10 15 17 15 23 15 C23 16 22 16 22 17 C19 18 18 18 15 18 C14 18 13 18 12 18 C12 18 11 18 9.8 18 C9.0 18 8.1 18 7.3 18 C5.2 18 3.1 18 1 18 C-2.1 4.1 -2.1 4.1 0 0 Z " fill="#F6EFF9" transform="translate(282,1734)"/><path d="M0 0 C5.2 0.4 8.3 3.2 12 6.4 C13 7.2 13 7.2 14 8.0 C19 12 19 12 20 14 C15 12 11 8.3 6.8 5.0 C4.1 2.9 4.1 2.9 1 2 C1.2 4.4 1.2 4.4 2 7 C3.3 7.7 4.7 8.3 6 9 C8.3 11 11 12 13 14 C13 15 14 15 15 16 C16 17 18 18 19 19 C18 19 18 20 17 20 C15 18 13 17 11 15 C10 15 9.7 14 9.1 14 C5.4 11 2.0 8.4 -1 5 C-0.8 2.2 -0.8 2.2 0 0 Z " fill="#553E7C" transform="translate(303,1644)"/><path d="M0 0 C3.0 0.6 5.0 1.5 7.4 3.3 C8.0 3.8 8.7 4.3 9.3 4.8 C10 5.3 11 5.8 11 6.4 C12 6.9 13 7.4 13 8.0 C16 9.7 18 11 20 13 C21 14 21 14 22 15 C24 16 26 18 28 19 C29 20 29 20 30 21 C34 24 34 24 35 26 C31 24 28 22 25 19 C24 18 23 18 21 17 C21 16 20 16 20 15 C12 9.0 12 9.0 3 4 C3 3.3 3 2.7 3 2 C2.3 2 1.7 2 1 2 C1.3 3.6 1.7 5.3 2 7 C1.0 6.3 0.0 5.7 -1 5 C-0.7 3.4 -0.3 1.7 0 0 Z " fill="#533A7A" transform="translate(178,1799)"/><path d="M0 0 C3.6 0.6 6.8 1.2 10 3 C11 5.6 11 5.6 11 8 C12 8.2 12 8.2 13 8.3 C15 9.1 16 10 18 12 C16 13 16 13 14 14 C3.8 6.3 3.8 6.3 0 2 C0 1.3 0 0.7 0 0 Z " fill="#5C3B96" transform="translate(382,1593)"/><path d="M0 0 C0.7 0 1.3 0 2 0 C2 0.7 2 1.3 2 2 C2.5 2.1 3.1 2.2 3.6 2.2 C6.8 3.3 9.1 5.1 12 7.1 C13 7.8 14 8.5 15 9.3 C15 9.9 16 10 17 11 C17 12 16 14 16 15 C15 15 15 14 14 14 C13 13 13 13 12 12 C11 12 10 11 9.4 11 C7.3 9.2 5.2 8.1 3 7 C2.3 6.7 1.7 6.3 1 6 C0.4 2.9 0.4 2.9 0 0 Z " fill="#5E3B96" transform="translate(179,1801)"/><path d="M0 0 C0.3 0 0.7 0 1 0 C1.7 3.9 2.3 7.7 3 12 C3.2 13 3.4 14 3.6 15 C3.8 16 3.9 17 4.1 18 C4.3 19 4.5 20 4.6 21 C5.0 24 5.1 27 5 30 C3.7 30 2.4 29 1 29 C1.7 29 2.3 29 3 29 C2.7 28 2.4 28 2.1 27 C0.5 23 0.2 18 -0.2 13 C-0.3 12 -0.4 11 -0.5 10 C-1.1 3.4 -1.1 3.4 0 0 Z " fill="#F5EFF6" transform="translate(269,1723)"/><path d="M0 0 C1.6 0.3 3.3 0.7 5 1 C5 2.0 5 3.0 5 4 C4.3 4 3.7 4 3 4 C3 6.6 3 9.3 3 12 C2.3 12 1.7 12 1 12 C0.8 13 0.5 14 0.2 15 C-0.2 16 -0.6 17 -1 18 C-3.1 19 -3.1 19 -5 19 C-4.8 18 -4.6 18 -4.4 17 C-4.1 16 -3.8 15 -3.6 14 C-3.3 13 -3.0 12 -2.8 11 C-2.3 9.1 -1.8 7.2 -1.5 5.3 C-1 3 -1 3 0 0 Z " fill="#67489D" transform="translate(448,1447)"/><path d="M0 0 C2.2 0.5 4.0 1.0 6 2 C6 2.7 6 3.3 6 4 C7.3 4.7 8.6 5.3 10 6 C10 6.7 10 7.3 10 8 C11 8.7 13 9.3 14 10 C14 11 13 12 13 13 C8.2 10 3.9 7.8 0 4 C0 2.7 0 1.4 0 0 Z " fill="#66459D" transform="translate(247,1855)"/><path d="M0 0 C5.5 1.8 11 4.6 13 9.8 C14 11 14 11 14 12 C9.0 12 8.0 11 4.2 7.5 C3.3 6.7 2.3 5.8 1.3 5.0 C0.5 4.3 -0.2 3.7 -1 3 C-0.7 2.0 -0.3 1.0 0 0 Z " fill="#6542A1" transform="translate(375,1639)"/><path d="M0 0 C5.4 0.4 5.4 0.4 7.9 3.1 C8.4 4.0 8.4 4.0 9 5 C8.2 4.7 7.5 4.4 6.7 4.1 C4.8 3.3 2.9 2.6 1 2 C1.2 3.9 1.2 3.9 2 6 C3.3 6.7 4.7 7.3 6 8 C7.8 9.4 9.7 11 11 12 C12 13 13 14 14 15 C17 17 19 19 22 22 C16 19 11 15 6 11 C5.3 10 4.6 10.0 3.9 9.5 C1.4 7.5 0.1 6.3 -0.9 3.2 C-1.0 2.5 -1.0 1.8 -1 1 C-0.7 0.7 -0.3 0.3 0 0 Z " fill="#523B79" transform="translate(381,1591)"/><path d="M0 0 C0.3 0.7 0.7 1.3 1 2 C1.6 2.3 2.1 2.5 2.7 2.8 C5.8 4.4 8.3 6.7 11 9 C17 15 24 20 31 25 C31 26 30 26 30 27 C20 19 9.2 10 -1 2 C-0.7 1.3 -0.3 0.7 0 0 Z " fill="#563E7F" transform="translate(470,1519)"/><path d="M0 0 C1.0 0.3 2.0 0.7 3 1 C1.7 11 -7.3 18 -14 24 C-14 21 -14 21 -13 19 C-12 19 -11 18 -11 18 C-8.1 15 -7.1 14 -6 11 C-5.0 11 -4.0 11 -3 11 C-1.5 7.6 -1.5 7.6 -1 4 C-3.0 5.7 -5.0 7.3 -7 9 C-5.4 5.2 -3.0 2.8 0 0 Z " fill="#4E3777" transform="translate(580,1512)"/><path d="M0 0 C0.3 0 0.7 0 1 0 C2.3 6.4 1.7 12 1.1 19 C1.0 20 0.9 21 0.8 22 C0.5 25 0.3 27 0 30 C-0.7 30 -1.3 30 -2 30 C-2.1 27 -2.1 23 -2.1 20 C-2.1 19 -2.2 18 -2.2 17 C-2.2 11 -1.5 5.9 0 0 Z " fill="#E2D6EA" transform="translate(279,1682)"/><path d="M0 0 C4.0 1.7 7.2 4.4 11 7.1 C11 7.5 12 8.0 12 8.5 C18 13 24 17 29 22 C29 23 28 23 28 24 C27 23 26 23 26 22 C17 15 9.0 8.0 0 2 C0 1.3 0 0.7 0 0 Z " fill="#523B7A" transform="translate(396,1653)"/><path d="M0 0 C-2.4 2.4 -3.4 2.4 -6.7 2.9 C-7.7 3.0 -8.6 3.1 -9.6 3.2 C-11 3.4 -12 3.5 -13 3.6 C-14 3.8 -15 3.9 -16 4.0 C-21 4.8 -26 5.1 -32 5 C-27 2.5 -23 1.6 -17 0.9 C-17 0.8 -16 0.8 -15 0.7 C-10 0.1 -5.1 -0.2 0 0 Z " fill="#E0D6EA" transform="translate(500,1559)"/><path d="M0 0 C6.8 4.2 6.8 4.2 7.6 7.5 C7.7 8.3 7.9 9.2 8 10 C10 13 10 13 13 15 C7.9 13 2.5 11 -0.3 5.8 C-0.5 5.2 -0.8 4.6 -1 4 C-1.7 3.3 -2.3 2.7 -3 2 C-2.0 1.3 -1.0 0.7 0 0 Z " fill="#583B8D" transform="translate(518,1501)"/><path d="M0 0 C1.6 0 3.3 0 5 0 C5 0.7 5 1.3 5 2 C5.6 2.3 6.2 2.5 6.8 2.8 C9.0 4.0 11 5.4 13 7 C13 8.0 12 9.0 12 10 C7.4 8.2 3.6 6.5 0 3 C0 2.0 0 1.0 0 0 Z " fill="#63429E" transform="translate(406,1612)"/><path d="M0 0 C4.1 0.6 6.6 2.7 9.8 5.2 C11 6.0 12 6.8 13 7.6 C14 8.4 15 9.2 16 10 C18 11 19 12 21 14 C22 14 23 15 24 16 C23 17 23 17 22 18 C22 17 22 17 22 16 C21 16 20 16 19 16 C19 15 19 15 19 14 C18 14 17 13 17 13 C14 12 14 12 11 10 C11 9.3 11 8.7 11 8 C9.7 8 8.4 8 7 8 C4.8 6.1 4.8 6.1 3 4 C3 3.3 3 2.7 3 2 C2.0 1.7 1.0 1.3 0 1 C0 0.7 0 0.3 0 0 Z " fill="#F3ECF8" transform="translate(335,1677)"/><path d="M0 0 C1.4 4.2 0.6 6.7 -1.2 11 C-1.6 12 -2.1 12 -2.6 13 C-3.0 14 -3.5 15 -3.9 16 C-4.3 17 -4.6 17 -5 18 C-6.2 16 -5.8 15 -5 12 C-4.3 12 -3.7 12 -3 12 C-3.3 11 -3.7 10 -4 9 C-4.7 8.7 -5.3 8.3 -6 8 C-6.3 8.7 -6.7 9.3 -7 10 C-6.1 5.2 -6.1 5.2 -5 3 C-4.0 3 -3.0 3 -2 3 C-2 2.3 -2 1.7 -2 1 C-1.3 0.7 -0.7 0.3 0 0 Z " fill="#5F448D" transform="translate(456,1439)"/><path d="M0 0 C5.0 1.1 7.6 2.2 11 6 C13 7.2 13 7.2 15 8 C15 8.7 15 9.3 15 10 C16 10 18 11 19 11 C19 13 20 14 20 16 C18 15 16 13 15 12 C13 10 11 9.1 8.8 7.6 C8.3 7.2 7.7 6.8 7.1 6.4 C5.5 5.2 3.9 4.0 2.3 2.9 C1.6 2.2 0.8 1.6 0 1 C0 0.7 0 0.3 0 0 Z " fill="#EEE6F4" transform="translate(368,1630)"/><path d="M0 0 C7.1 5.3 14 11 21 16 C20 16 19 17 18 17 C16 16 14 14 12 12 C11 12 10 11 9.9 11 C8.8 10 7.7 9.2 6.6 8.3 C5.1 7.1 3.6 6.0 2.1 4.9 C1.4 4.2 0.7 3.6 0 3 C0 2.0 0 1.0 0 0 Z " fill="#EFE8F6" transform="translate(497,1491)"/><path d="M0 0 C0.5 0.4 1.0 0.8 1.5 1.3 C2.1 1.8 2.7 2.4 3.4 2.9 C4.0 3.5 4.6 4.0 5.3 4.6 C7.0 6.1 7.0 6.1 9 7 C9 7.7 9 8.3 9 9 C10 9.3 12 9.7 13 10 C13 11 13 11 13 12 C14 13 16 13 17 14 C16 15 16 15 15 16 C9.7 12 4.4 7.4 -1 3 C-0.7 2.0 -0.3 1.0 0 0 Z " fill="#F1EAF5" transform="translate(202,1812)"/><path d="M0 0 C-7.2 2.6 -14 3.4 -21 3.2 C-22 3.2 -23 3.2 -24 3.1 C-26 3.1 -29 3.1 -31 3 C-31 2.7 -31 2.3 -31 2 C-27 1.5 -22 1.0 -18 0.4 C-16 0.2 -16 0.2 -14 -0.0 C-13 -0.2 -12 -0.3 -10 -0.4 C-8.6 -0.6 -8.6 -0.6 -6.9 -0.8 C-4.3 -1.0 -2.5 -0.8 0 0 Z " fill="#E0D6ED" transform="translate(342,1758)"/><path d="M0 0 C0.7 0.3 1.3 0.7 2 1 C-0.6 3.4 -3.1 5.8 -5.7 8.2 C-6.4 8.9 -7.1 9.6 -7.9 10 C-11 14 -15 17 -19 20 C-18 17 -16 15 -14 13 C-14 12 -13 11 -13 10 C-10 8.1 -7.1 6.5 -4 5 C-4 4.0 -4 3.0 -4 2 C-2.1 0.9 -2.1 0.9 0 0 Z " fill="#4F377A" transform="translate(169,1789)"/><path d="M0 0 C3.5 2.0 3.5 2.0 7 4 C7 4.7 7 5.3 7 6 C8.0 6.3 9.0 6.7 10 7 C10 7.7 10 8.3 10 9 C4.3 8.6 1.4 6.4 -3 3 C-2.0 2.0 -1.0 1.0 0 0 Z " fill="#6543A3" transform="translate(348,1679)"/><path d="M0 0 C2.6 0 5.3 0 8 0 C8 0.7 8 1.3 8 2 C6.7 2 5.4 2 4 2 C4 7.0 4 12 4 17 C3.7 17 3.3 17 3 17 C2.0 11 1.0 5.8 0 0 Z " fill="#EEE8F4" transform="translate(285,1762)"/><path d="M0 0 C-6.5 3.5 -13 6.1 -20 8 C-19 5 -19 5 -16 3.4 C-14 2.8 -13 2.3 -12 1.8 C-11 1.5 -10 1.2 -9.6 0.9 C-3.5 -1.5 -3.5 -1.5 0 0 Z " fill="#F6F0FA" transform="translate(385,1734)"/><path d="M0 0 C4.5 2.5 8.3 5.5 12 8.7 C13 9.2 14 9.7 14 10 C16 11 17 13 19 14 C18 14 17 15 16 15 C14 14 14 14 12 13 C12 12 11 12 10 11 C9.7 11 9.7 11 9 10 C9 9.3 9 8.7 9 8 C8.0 8 7.0 8 6 8 C6 7.3 6 6.7 6 6 C5.3 6 4.7 6 4 6 C4 5.3 4 4.7 4 4 C2.7 3.7 1.4 3.3 0 3 C0 2.0 0 1.0 0 0 Z " fill="#F2EBF7" transform="translate(375,1645)"/><path d="M0 0 C3.5 0.3 6.3 0.5 9.3 2.4 C12 6.3 12 10 13 15 C12 15 11 15 10 15 C9.9 14 9.9 14 9.9 13 C9.8 12 9.7 11 9.6 11 C9.6 9.8 9.5 9.0 9.4 8.2 C9.2 5.8 9.2 5.8 7 4 C6.0 3.7 5.0 3.3 3.9 3 C1 2 1 2 0 0 Z " fill="#5E4489" transform="translate(342,1606)"/><path d="M0 0 C0.3 0 0.7 0 1 0 C1.4 16 1.4 16 -1 23 C-1.3 23 -1.7 23 -2 23 C-2.3 15 -1.4 7.7 0 0 Z " fill="#4E357D" transform="translate(456,1635)"/><path d="M0 0 C5.0 -0.3 8.0 -0.2 12 3 C15 6.4 14 9.9 14 14 C13 14 13 14 12 15 C12 14 12 14 12 13 C12 12 12 12 12 11 C12 9.9 12 9.1 12 8.3 C11 5.6 10 4.6 8 3 C6.0 2.4 6.0 2.4 3.8 2.3 C1.9 2.2 1.9 2.2 0 2 C0 1.3 0 0.7 0 0 Z " fill="#59417F" transform="translate(424,1619)"/><path d="M0 0 C-2.1 1.3 -4.1 2.6 -6.2 3.9 C-6.8 4.3 -7.3 4.7 -7.9 5.1 C-11 7.2 -14 8.5 -18 9 C-18 8.3 -18 7.7 -18 7 C-17 6.2 -15 5.3 -14 4.5 C-13 4.0 -12 3.6 -11 3.1 C-9 2 -9 2 -6 2 C-6 1.3 -6 0.7 -6 0 C-3 -1 -3 -1 0 0 Z " fill="#F3EBF8" transform="translate(405,1723)"/><path d="M0 0 C1.0 0.5 1.0 0.5 2 1 C2.3 3.0 2.6 5.0 2.8 7.0 C3.0 9.2 3.0 9.2 4 12 C4 13 4 14 4 15 C5.3 15 6.6 14 8 14 C8 15 8 16 8 17 C6.0 17 4.0 17 2 17 C0.7 11 -0.3 5.9 0 0 Z " fill="#FCF6FC" transform="translate(447,1547)"/><path d="M0 0 C0.7 0.3 1.3 0.7 2 1 C-1.5 7.2 -6.6 11 -12 16 C-12 13 -12 13 -9.9 11 C-9.0 9.8 -8.1 8.9 -7.1 8 C-4.4 5.4 -2.1 3.1 0 0 Z M-16 17 C-15 17 -15 18 -14 18 C-16 19 -16 19 -18 20 C-17 19 -17 18 -16 17 Z " fill="#E2D9EC" transform="translate(579,1521)"/><path d="M0 0 C1.0 1.0 2.0 2.0 3 3 C3.3 2.0 3.7 1.0 4 0 C4.3 0.7 4.7 1.3 5 2 C3.8 4.6 3.8 4.6 2.1 7.6 C1.5 8.6 0.9 9.6 0.3 11 C-0.1 11 -0.5 12 -1 13 C-1.9 10.0 -2.0 9.1 -1 6 C-1.7 6 -2.3 6 -3 6 C-3 6.7 -3 7.3 -3 8 C-3.7 7.7 -4.3 7.3 -5 7 C-3.4 4.7 -1.7 2.4 0 0 Z " fill="#533C7E" transform="translate(457,1434)"/><path d="M0 0 C3.1 0.6 5.0 1.5 7.5 3.5 C8.1 4.0 8.7 4.5 9.3 5.0 C10.0 5.5 11 6.0 11 6.6 C12 7.1 13 7.6 13 8.1 C15 9.4 16 11 18 12 C17 12 16 13 15 13 C12 11 12 11 9.3 9.2 C8.3 8.5 7.3 7.7 6.3 7.0 C5.5 6.3 4.8 5.7 4 5 C4 4.3 4 3.7 4 3 C2.7 2.3 1.4 1.7 0 1 C0 0.7 0 0.3 0 0 Z " fill="#F2EBF7" transform="translate(227,1794)"/><path d="M0 0 C0 0.3 0 0.7 0 1 C-1.0 1.1 -1.0 1.1 -2.1 1.2 C-3.0 1.3 -3.9 1.4 -4.9 1.4 C-5.8 1.5 -6.7 1.6 -7.6 1.7 C-10 1.9 -10 1.9 -12 3 C-15 2.9 -17 2.8 -20 2.6 C-21 2.5 -21 2.5 -22 2.4 C-24 2.3 -26 2.1 -28 2 C-28 1.7 -28 1.3 -28 1 C-19 0.0 -9.4 -0.1 0 0 Z " fill="#D4CAE3" transform="translate(277,1762)"/><path d="M0 0 C4.5 1.5 7.8 4.0 11 7 C12 7.7 12 7.7 13 8.4 C14 9.5 16 11 17 12 C17 13 17 13 17 14 C14 14 14 14 12 12 C11 12 11 11 11 11 C7.8 7.8 4.8 5.3 1.8 2.7 C1.2 2.1 0.6 1.6 0 1 C0 0.7 0 0.3 0 0 Z " fill="#F3EDF8" transform="translate(301,1650)"/><path d="M0 0 C0 3.6 -1.0 4.7 -3 7.7 C-3.6 8.5 -4.1 9.3 -4.7 10 C-5.1 11 -5.6 11 -6 12 C-8.0 8.3 -8.0 8.3 -7.6 5.8 C-7.4 5.2 -7.2 4.6 -7 4 C-6.0 4 -5.0 4 -4 4 C-3.7 3.3 -3.3 2.7 -3 2 C-2.0 1.3 -1.0 0.7 0 0 Z " fill="#543886" transform="translate(301,1622)"/><path d="M0 0 C1.1 0.3 1.1 0.3 2.3 0.6 C5.1 1.2 5.1 1.2 8 0 C9.0 0.3 10.0 0.7 11 1 C11 2.6 10 4.3 10 6 C6.0 5.7 4.4 5.5 1.6 2.4 C0.8 1.2 0.8 1.2 0 0 Z " fill="#5F468A" transform="translate(415,1675)"/><path d="M0 0 C2.6 3.8 1.9 5.2 1.1 9.7 C0.9 11 0.7 12 0.5 13 C0.3 14 0.2 15 0 16 C-0.3 16 -0.7 16 -1 16 C-1.3 18 -1.7 20 -2 22 C-2.3 22 -2.7 22 -3 22 C-3.5 14 -1.7 7.4 0 0 Z " fill="#E8DFF1" transform="translate(445,1474)"/><path d="M0 0 C1.3 0 2.6 0 4 0 C5.2 2.2 5.2 2.2 6 5 C4.8 8.0 4.0 9.6 0.9 11 C-1 11 -1 11 -3 10 C-3 9.3 -3 8.7 -3 8 C-1.4 7.7 0.3 7.3 2 7 C1.3 3.4 1.3 3.4 0 0 Z " fill="#FAF6FA" transform="translate(423,1673)"/><path d="M0 0 C2 3 2 3 3 6 C2.4 8.3 1.7 11 1 13 C0.6 15 0.3 16 0 18 C-0.7 18 -1.3 18 -2 18 C-1.0 5.3 -1.0 5.3 0 0 Z " fill="#553B82" transform="translate(448,1640)"/><path d="M0 0 C0.6 1.8 0.6 1.8 1 4 C0.0 5.5 0.0 5.5 -1 7 C-1.5 8.7 -1.5 8.7 -1.9 10 C-2.9 14 -3.4 15 -6 17 C-5.6 11 -3.1 5.7 0 0 Z " fill="#5E458B" transform="translate(447,1450)"/><path d="M0 0 C0.7 0.3 1.3 0.7 2 1 C0.9 3.1 -0.2 5.2 -1.2 7.2 C-2.2 9.0 -2.2 9.0 -3.1 11 C-4.8 14 -6.5 16 -9 18 C-8.3 15 -6.9 12 -5.1 9 C-3.2 6.1 -1.5 3.1 0 0 Z " fill="#EEE5F6" transform="translate(268,1878)"/><path d="M0 0 C0.7 0 1.3 0 2 0 C2 1.3 2 2.6 2 4 C1.3 4 0.7 4 0 4 C-0.1 4.8 -0.1 5.7 -0.2 6.6 C-1.2 11 -3.2 13 -6 17 C-6.3 16 -6.7 16 -7 15 C-5.9 12 -4.8 9.9 -3.6 7.4 C-3.2 6.7 -2.9 6.0 -2.5 5.2 C-1.7 3.5 -0.9 1.7 0 0 Z " fill="#584083" transform="translate(439,1676)"/><path d="M0 0 C2.3 0 4.6 0 7 0 C7 0.3 7 0.7 7 1 C5.3 1 3.7 1 2 1 C2.5 1.4 3.0 1.7 3.5 2.1 C5.6 4.8 5.3 6.7 5 10 C4.7 11 4.3 11 4 12 C3.3 12 2.7 12 2 12 C1.3 8.0 0.7 4.1 0 0 Z " fill="#EBE2F4" transform="translate(451,1573)"/><path d="M0 0 C4.9 2.9 4.9 2.9 6 4 C6.4 5.5 6.7 7.0 7 8.4 C7.5 11 7.9 13 9 15 C8.0 15 7.0 15 6 15 C4.0 12 3.7 11 3.4 7.3 C3.3 6.5 3.2 5.7 3.1 4.9 C3.1 3.9 3.1 3.9 3 3 C2.0 2.7 1.0 2.3 0 2 C0 1.3 0 0.7 0 0 Z " fill="#ECE2F4" transform="translate(525,1513)"/><path d="M0 0 C-4.1 3.4 -6.8 5.2 -12 5.1 C-14 5.0 -14 5.0 -16 5 C-13 3.1 -11 2.0 -7.4 0.8 C-6.5 0.4 -5.5 0.1 -4.5 -0.3 C-2 -1 -2 -1 0 0 Z " fill="#F3EDF8" transform="translate(385,1746)"/><path d="M0 0 C0.7 0.3 1.3 0.7 2 1 C1.3 2.0 1.3 2.0 0.5 3.0 C-0.1 3.9 -0.7 4.8 -1.4 5.7 C-2.0 6.6 -2.6 7.4 -3.3 8.3 C-5.1 11 -5.1 11 -6.0 14 C-6.4 15 -6.7 15 -7 16 C-8.0 16 -9.0 17 -10 17 C-8.7 12 -6.8 9.0 -3.9 5.1 C-3.2 4.2 -2.4 3.2 -1.7 2.2 C-1.1 1.5 -0.6 0.7 0 0 Z " fill="#EAE1F2" transform="translate(467,1428)"/><path d="M0 0 C0 0.3 0 0.7 0 1 C-2.9 1.7 -5.9 2.3 -8.8 3 C-9.6 3.2 -10 3.4 -11 3.6 C-12 3.8 -13 3.9 -14 4.1 C-15 4.3 -15 4.5 -16 4.6 C-18 5 -18 5 -21 5 C-21 4.3 -21 3.7 -21 3 C-14 0.4 -7.3 -0.2 0 0 Z " fill="#E5DAF0" transform="translate(232,1756)"/><path d="M0 0 C0.7 0 1.3 0 2 0 C4.6 3.8 4.6 6.4 5 11 C6.0 11 7.0 12 8 12 C8 13 8 13 8 14 C8.7 14 9.3 14 10 14 C9.7 15 9.3 16 9 17 C6.5 16 4.9 15 3 13 C1.9 9.7 1.5 6.4 1 3 C0.7 2.0 0.3 1.0 0 0 Z " fill="#EEE4F5" transform="translate(305,1687)"/><path d="M0 0 C0.7 0.2 1.4 0.3 2.1 0.5 C5.4 1.1 8.6 1.1 12 1 C12 1.7 13 2.3 13 3 C9.7 4.0 6.7 4.1 3.2 4.1 C2.3 4.1 1.3 4.0 0.3 4.0 C-0.5 4.0 -1.2 4.0 -2 4 C-1.3 2.7 -0.7 1.4 0 0 Z " fill="#F9F3FB" transform="translate(459,1560)"/><path d="M0 0 C0.3 0 0.7 0 1 0 C1 2.3 1 4.6 1 7 C0.3 7 -0.3 7 -1 7 C-1.3 7.9 -1.5 8.8 -1.8 9.8 C-2.9 13 -4.0 15 -6 17 C-6.3 16 -6.7 16 -7 15 C-5.8 12 -5.8 12 -4.1 9.1 C-1.8 4.6 -1.8 4.6 0 0 Z " fill="#5E4486" transform="translate(274,1868)"/><path d="M0 0 C1.9 0.7 1.9 0.7 4 2 C4.8 4.6 4.8 4.6 5 7 C2.9 7.8 2.9 7.8 0 8 C-2.3 6.6 -4.0 4.9 -6 3 C-2.3 3 -0.2 4.3 3 6 C1.5 3.0 1.5 3.0 0 0 Z " fill="#543E7C" transform="translate(343,1727)"/><path d="M0 0 C0.3 0 0.7 0 1 0 C1.7 5.6 2.3 11 3 17 C0.1 13 -0.4 12 -0.8 7.9 C-0.8 7.1 -0.9 6.2 -1.0 5.3 C-1 3 -1 3 0 0 Z " fill="#674E8D" transform="translate(278,1721)"/><path d="M0 0 C1.0 1.5 1.0 1.5 2 3 C5.4 6.6 9.1 9.8 13 13 C12 13 11 14 10 14 C8.3 13 6.7 11 5 9.8 C4.1 9.0 3.1 8.3 2.2 7.5 C0 5 0 5 -0.3 2.2 C-0.2 1.5 -0.1 0.7 0 0 Z " fill="#EEE4F6" transform="translate(379,1592)"/><path d="M0 0 C-9.2 5.7 -9.2 5.7 -15 5 C-14 2.1 -12 1.9 -8.6 0.8 C-7.2 0.3 -7.2 0.3 -5.7 -0.3 C-3 -1 -3 -1 0 0 Z " fill="#594184" transform="translate(532,1552)"/><path d="M0 0 C4.0 1.4 7.0 3.3 10 6 C11 6.7 12 7.4 13 8.1 C14 8.7 14 9.4 15 10 C15 11 15 11 15 12 C11 10 8.4 8.0 5.2 5.4 C4.3 4.6 3.3 3.8 2.3 3.0 C1.5 2.3 0.8 1.7 0 1 C0 0.7 0 0.3 0 0 Z " fill="#4F377B" transform="translate(519,1501)"/><path d="M0 0 C3.9 1.7 6.8 4.2 10 7 C9.7 8.3 9.3 9.6 9 11 C7 10 7 10 6 7 C4.0 5.3 2.0 3.7 0 2 C0 1.3 0 0.7 0 0 Z " fill="#5C4681" transform="translate(253,1857)"/><path d="M0 0 C0.7 0 1.3 0 2 0 C2.3 1.6 2.7 3.3 3 5 C2.4 5.1 1.8 5.2 1.1 5.4 C-1.2 5.9 -1.2 5.9 -3 8 C-3.3 5.7 -3.7 3.4 -4 1 C-3.0 1 -2.0 1 -1 1 C-0.7 0.7 -0.3 0.3 0 0 Z " fill="#674898" transform="translate(283,1852)"/><path d="M0 0 C3.3 0 6.6 0 10 0 C10 3.0 10 5.9 10 9 C8 5 8 5 8 2 C5.4 2 2.7 2 0 2 C0 1.3 0 0.7 0 0 Z " fill="#FDFAFC" transform="translate(267,1763)"/><path d="M0 0 C2.4 0.8 2.4 0.8 5 2 C5.3 3.0 5.7 4.0 6 5 C5.3 5.7 4.7 6.3 4 7 C2.4 5.7 0.7 4.4 -1 3 C-0.7 2.0 -0.3 1.0 0 0 Z " fill="#63409D" transform="translate(312,1705)"/><path d="M0 0 C4.9 -0.3 8.2 -0.3 12 3 C13 5.7 13 5.7 13 8 C12 7.2 12 6.4 11 5.6 C7.1 2.2 5.0 2.3 0 2 C0 1.3 0 0.7 0 0 Z " fill="#563E7E" transform="translate(381,1700)"/><path d="M0 0 C1.0 0.3 2.0 0.7 3 1 C0.7 5.0 -1.6 8.9 -4 13 C-4.3 12 -4.7 10 -5 9 C-4.3 9 -3.7 9 -3 9 C-2.9 8.3 -2.8 7.5 -2.6 6.8 C-2.0 4.2 -1.3 2.3 0 0 Z " fill="#F2EAF7" transform="translate(433,1684)"/><path d="M0 0 C0.3 0 0.7 0 1 0 C1.3 3.0 1.7 5.9 2 9 C-2.0 9 -5.9 9 -10 9 C-10 8.7 -10 8.3 -10 8 C-5.5 7.5 -5.5 7.5 -1 7 C-0.7 4.7 -0.3 2.4 0 0 Z " fill="#EDE2F8" transform="translate(438,1556)"/><path d="M0 0 C3.7 0.6 5.9 2.2 8.8 4.6 C9.9 5.5 9.9 5.5 11 6.5 C12 7.2 12 7.2 13 8 C10 9 10 9 7.6 7.9 C4.5 5.6 2.4 3.1 0 0 Z " fill="#F0EAF7" transform="translate(312,1712)"/><path d="M0 0 C3.6 2.1 6.9 4.2 10 7 C10 7.7 10 8.3 10 9 C6.4 7.3 3.2 5.4 0 3 C0 2.0 0 1.0 0 0 Z " fill="#F3EEF7" transform="translate(247,1861)"/><path d="M0 0 C3.7 0.6 5.9 2.2 8.8 4.6 C9.9 5.5 9.9 5.5 11 6.5 C12 7.2 12 7.2 13 8 C12 8.3 11 8.7 10 9 C9.0 8.3 8.0 7.7 7 7 C7 6.3 7 5.7 7 5 C6.4 4.7 5.8 4.5 5.2 4.2 C3.0 3.0 1.6 1.8 0 0 Z " fill="#EDE3F5" transform="translate(322,1667)"/><path d="M0 0 C-1 3 -1 3 -3.9 4.8 C-7 6 -7 6 -10 5 C-7.0 1.7 -4.5 0 0 0 Z " fill="#F8F5FA" transform="translate(345,1591)"/><path d="M0 0 C5.4 0.3 8.3 3.5 12 7 C12 7.7 11 8.3 11 9 C9.2 7.7 7.3 6.4 5.5 5.1 C4.5 4.3 3.5 3.6 2.4 2.8 C1.6 2.2 0.8 1.6 0 1 C0 0.7 0 0.3 0 0 Z " fill="#E8DFF2" transform="translate(474,1464)"/><path d="M0 0 C1.0 0 2.0 0 3 0 C3.7 1.3 4.3 2.6 5 4 C4.0 4.3 3.0 4.7 2 5 C1.7 5.7 1.3 6.3 1 7 C0.0 6.7 -1.0 6.3 -2 6 C-1.5 3.8 -1.0 2.0 0 0 Z " fill="#644A93" transform="translate(459,1430)"/><path d="M0 0 C1.0 0.7 2.0 1.3 3 2 C2.6 3.5 2.1 5.0 1.6 6.4 C1.2 7.7 1.2 7.7 0.9 8.9 C0 11 0 11 -2 12 C-1 3.4 -1 3.4 0 0 Z " fill="#ECE5F1" transform="translate(288,1845)"/><path d="M0 0 C0.3 0 0.7 0 1 0 C0.0 11 0.0 11 -1 15 C-1.7 14 -2.3 14 -3 13 C-2.7 8.2 -2.0 4.4 0 0 Z " fill="#E5DDEF" transform="translate(282,1836)"/><path d="M0 0 C0.7 0 1.3 0 2 0 C1.3 1.3 0.7 2.7 0 4 C-0.5 5.0 -0.9 6.1 -1.4 7.1 C-3.0 10 -3.9 11 -7 12 C-5.5 7.5 -3.2 3.5 0 0 Z " fill="#513A7C" transform="translate(296,1615)"/><path d="M0 0 C0.7 0.3 1.3 0.7 2 1 C1.0 1.7 0.0 2.3 -1 3 C-1.4 4.7 -1.7 6.3 -2 8 C-3.0 8.5 -3.0 8.5 -4 9 C-5 6 -5 6 -5 5 C-5.7 4.7 -6.3 4.3 -7 4 C-1.7 0.8 -1.7 0.8 0 0 Z " fill="#5D4190" transform="translate(540,1546)"/><path d="M0 0 C0.7 0 1.3 0 2 0 C3.1 4.8 3.1 4.8 2 7 C3.0 7.3 4.0 7.7 5 8 C5 8.7 5 9.3 5 10 C2.5 9.0 2.5 9.0 0 8 C0 5.4 0 2.7 0 0 Z " fill="#F8F1FB" transform="translate(471,1507)"/><path d="M0 0 C2 2 2 2 2.2 3.9 C2.1 6.0 2.1 8.0 2 10 C1.0 10 1.0 10 0 11 C-0.2 9.5 -0.4 8.1 -0.6 6.6 C-0.7 5.8 -0.8 5.0 -0.9 4.2 C-1 2 -1 2 0 0 Z " fill="#6A5390" transform="translate(452,1505)"/><path d="M0 0 C0.6 0.7 1.1 1.4 1.7 2.2 C4.0 5.0 6.4 7.5 9 10 C8.0 10 7.0 11 6 11 C4.5 9.6 4.5 9.6 3 8 C3 7.3 3 6.7 3 6 C2.3 6 1.7 6 1 6 C1 5.3 1 4.7 1 4 C0.3 3.7 -0.3 3.3 -1 3 C-0.7 2.0 -0.3 1.0 0 0 Z " fill="#EAE2F0" transform="translate(216,1781)"/><path d="M0 0 C2.5 0.5 2.5 0.5 5 1 C5 1.7 5 2.3 5 3 C6.0 3 7.0 3 8 3 C8 3.7 8 4.3 8 5 C9.0 5.3 10.0 5.7 11 6 C10 6.7 9.7 7.3 9 8 C7.5 6.9 6.0 5.7 4.5 4.6 C3.7 3.9 2.8 3.3 2.0 2.6 C1.3 2.1 0.7 1.6 0 1 C0 0.7 0 0.3 0 0 Z " fill="#E7DFF0" transform="translate(391,1648)"/><path d="M0 0 C0.7 0 1.3 0 2 0 C2.3 3.1 2.2 4.6 0.6 7.3 C-0.2 8.1 -0.2 8.1 -1 9 C-1.7 9 -2.3 9 -3 9 C-2.0 6.0 -1.0 3.1 0 0 Z " fill="#F0EAF4" transform="translate(291,1640)"/><path d="M0 0 C0.8 0.0 1.6 0.0 2.4 0.0 C3.0 0.0 3.6 0.1 4.2 0.1 C1.8 2.6 0.6 2.4 -2.9 2.7 C-3.8 2.8 -4.7 2.8 -5.6 2.9 C-6.7 3.0 -6.7 3.0 -7.8 3.1 C-8.1 2.4 -8.4 1.7 -8.8 1.1 C-5.8 0.2 -3.1 -0.0 0 0 Z " fill="#EAE1F4" transform="translate(495.75,1558.9375)"/><path d="M0 0 C0.8 0.5 0.8 0.5 1.6 0.9 C4.4 2.2 7.0 2.6 10 3 C11 2.0 11 1.0 12 0 C12 1.0 13 2.0 13 3 C11 5 11 5 7.6 5.3 C3.9 5.0 2.5 4.6 0 2 C0 1.3 0 0.7 0 0 Z " fill="#E7DFF0" transform="translate(497,1544)"/><path d="M0 0 C4.1 2.3 7.5 5.0 11 8 C10 8.3 9.0 8.7 8 9 C6.0 7.6 6.0 7.6 3.8 5.7 C2.7 4.7 2.7 4.7 1.6 3.8 C0 2 0 2 0 0 Z " fill="#EDE4F5" transform="translate(476,1527)"/><path d="M0 0 C2.5 1.0 2.5 1.0 5 2 C5 2.7 5 3.3 5 4 C7.5 5.0 7.5 5.0 10 6 C9.7 7.0 9.3 8.0 9 9 C7.5 7.9 6.0 6.8 4.5 5.6 C3.7 5.0 2.8 4.4 2.0 3.7 C1.3 3.2 0.7 2.6 0 2 C0 1.3 0 0.7 0 0 Z " fill="#F0EAF7" transform="translate(502,1485)"/><path d="M0 0 C0.6 0.3 1.1 0.7 1.7 1.0 C4.3 2.1 6.0 2.2 8.8 2.1 C9.9 2.1 9.9 2.1 11 2.1 C12 2.0 12 2.0 13 2 C10.0 3.6 7.4 4.7 4 5 C1.7 3.7 1.7 3.7 0 2 C0 1.3 0 0.7 0 0 Z " fill="#492C77" transform="translate(253,1805)"/><path d="M0 0 C1.0 0.3 2.0 0.7 3 1 C0.7 3.6 -1.6 6.3 -4 9 C-4.3 7.7 -4.7 6.4 -5 5 C-3.7 4.7 -2.4 4.3 -1 4 C-0.7 2.7 -0.3 1.4 0 0 Z " fill="#F2EBF8" transform="translate(419,1705)"/><path d="M0 0 C2.9 0.6 5.4 1.6 8 3 C8 3.7 8 4.3 8 5 C9.0 5.3 10.0 5.7 11 6 C10 6.7 9.7 7.3 9 8 C7.5 6.9 6.0 5.7 4.5 4.6 C3.7 3.9 2.8 3.3 2.0 2.6 C1.3 2.1 0.7 1.6 0 1 C0 0.7 0 0.3 0 0 Z " fill="#E2D7EC" transform="translate(389,1594)"/><path d="M0 0 C0 3 0 3 -1.4 4.4 C-1.9 5.0 -2.4 5.5 -3 6 C-4.2 8.1 -4.2 8.1 -5 10 C-6.0 9.7 -7.0 9.3 -8 9 C-7.0 7.9 -6.1 6.7 -5.1 5.6 C-4.6 5.0 -4.1 4.4 -3.5 3.7 C-2.4 2.4 -1.2 1.2 0 0 Z " fill="#EDE3F4" transform="translate(159,1800)"/><path d="M0 0 C1.0 0.3 2.0 0.7 3 1 C-0.2 4.5 -2.2 6.6 -7 7 C-7 6.3 -7 5.7 -7 5 C-5.6 3.7 -5.6 3.7 -3.7 2.3 C-3.1 1.9 -2.5 1.4 -1.8 0.9 C-1.2 0.6 -0.6 0.3 0 0 Z " fill="#533A80" transform="translate(170,1780)"/><path d="M0 0 C1.6 -0.1 3.2 -0.1 4.8 -0.1 C5.7 -0.1 6.6 -0.2 7.5 -0.2 C10 0 10 0 13 2 C7.1 2.5 7.1 2.5 1 3 C0.7 2.0 0.3 1.0 0 0 Z " fill="#F4EBFA" transform="translate(377,1698)"/><path d="M0 0 C2.0 0.5 2.0 0.5 4 1 C3.3 3.3 2.7 5.6 2 8 C1.3 7.7 0.7 7.3 0 7 C-1.3 2.5 -1.3 2.5 0 0 Z " fill="#5E428E" transform="translate(446,1675)"/><path d="M0 0 C3.0 1.4 5.3 2.9 7.8 5.1 C8.7 5.9 8.7 5.9 9.6 6.8 C10 7.2 11 7.6 11 8 C7.4 8 6.6 7.2 3.8 5.1 C3.1 4.6 2.4 4.1 1.6 3.5 C1.1 3.0 0.6 2.5 0 2 C0 1.3 0 0.7 0 0 Z " fill="#4E367A" transform="translate(411,1612)"/><path d="M0 0 C-1 2 -1 2 -3.8 3.2 C-6.9 4.0 -8.1 4.1 -11 3 C-7.7 -0.3 -4.5 -0.1 0 0 Z " fill="#F8F2FA" transform="translate(366,1584)"/><path d="M0 0 C1.0 0 2.0 0 3 0 C3 0.7 3 1.3 3 2 C4.3 2.3 5.6 2.7 7 3 C7.3 4.3 7.7 5.6 8 7 C5.1 5.6 2.5 4.1 0 2 C0 1.3 0 0.7 0 0 Z " fill="#F1EBF6" transform="translate(486,1524)"/><path d="M0 0 C0.3 0 0.7 0 1 0 C1.3 4.0 1.7 7.9 2 12 C1.3 12 0.7 11 0 11 C-1.3 3.8 -1.3 3.8 0 0 Z " fill="#EDE2F4" transform="translate(269,1723)"/><path d="M0 0 C4.4 0.5 6.8 3.2 10 6 C9.0 6.3 8.0 6.7 7 7 C4.8 5.7 4.8 5.7 3 4 C3 3.3 3 2.7 3 2 C2.0 2 1.0 2 0 2 C0 1.3 0 0.7 0 0 Z " fill="#EAE0F3" transform="translate(302,1704)"/><path d="M0 0 C0.6 1.8 0.6 1.8 1 4 C-1.5 6.9 -3.9 8.9 -7 11 C-5.2 7.0 -2.6 3.5 0 0 Z " fill="#513A7C" transform="translate(430,1695)"/><path d="M0 0 C1.0 0.3 2.0 0.7 3 1 C3.3 3.0 3.7 5.0 4 7 C2.0 5.7 -0.0 4.4 -2 3 C-2 2.3 -2 1.7 -2 1 C-1.3 0.7 -0.7 0.3 0 0 Z " fill="#E7E0EC" transform="translate(363,1623)"/><path d="M0 0 C0.7 0.5 1.4 0.9 2.1 1.4 C2.7 1.8 3.2 2.2 3.8 2.6 C3.1 3.2 2.4 3.9 1.8 4.6 C0.8 3.9 -0.1 3.3 -1 2.7 C-3.4 1.1 -5.7 -0.2 -8.2 -1.4 C-4.6 -2.8 -3.2 -2.2 0 0 Z " fill="#DED5E8" transform="translate(471.25,1459.4375)"/><path d="M0 0 C0.7 0.7 1.3 1.3 2 2 C4.1 1.7 4.1 1.7 6 1 C5.7 2.3 5.3 3.6 5 5 C3.4 5 1.7 5 0 5 C0 3.4 0 1.7 0 0 Z " fill="#5A3C8A" transform="translate(279,1856)"/><path d="M0 0 C2.1 3.4 2.2 6.1 2 10 C0.7 9.7 -0.6 9.3 -2 9 C-1.3 9 -0.7 9 0 9 C-0.2 8.3 -0.4 7.5 -0.6 6.8 C-1.0 4.1 -0.9 2.6 0 0 Z " fill="#EFE5F8" transform="translate(272,1743)"/><path d="M0 0 C-1.3 0.8 -2.6 1.7 -3.9 2.5 C-4.6 3.0 -5.3 3.4 -6.1 3.9 C-8 5 -8 5 -10 5 C-10 4.3 -10 3.7 -10 3 C-3.4 -1.1 -3.4 -1.1 0 0 Z " fill="#543A80" transform="translate(402,1727)"/><path d="M0 0 C2.6 0 5.3 0 8 0 C8.3 0.7 8.7 1.3 9 2 C5.7 2.3 2.4 2.7 -1 3 C-0.7 2.0 -0.3 1.0 0 0 Z " fill="#F9F2F9" transform="translate(293,1683)"/><path d="M0 0 C0.2 0.6 0.5 1.1 0.7 1.7 C2.4 4.6 4.6 6.7 7 9 C6.7 9.7 6.3 10 6 11 C1.8 8.0 1.8 8.0 0 6 C-0.4 2.7 -0.4 2.7 0 0 Z " fill="#F3E9FA" transform="translate(354,1614)"/><path d="M0 0 C0.3 1.0 0.7 2.0 1 3 C-1.6 3 -4.3 3 -7 3 C-7 2.3 -7 1.7 -7 1 C-4.5 -0.2 -2.7 -0.1 0 0 Z " fill="#F9F6FA" transform="translate(346,1603)"/><path d="M0 0 C-3.9 2.2 -6.6 3.4 -11 3 C-11 2.3 -11 1.7 -11 1 C-3.6 -1.4 -3.6 -1.4 0 0 Z " fill="#E1D6ED" transform="translate(519,1565)"/><path d="M0 0 C0.7 0.3 1.3 0.7 2 1 C-1.3 5.8 -1.3 5.8 -4.8 6.8 C-5.5 6.9 -6.2 6.9 -7 7 C-4.7 4.7 -2.3 2.3 0 0 Z " fill="#533B7F" transform="translate(559,1533)"/><path d="M0 0 C0.3 1.0 0.7 2.0 1 3 C-0.9 6.2 -0.9 6.2 -3 9 C-3.7 8.0 -4.3 7.0 -5 6 C-2.2 1.1 -2.2 1.1 0 0 Z " fill="#ECE4F2" transform="translate(456,1432)"/><path d="M0 0 C0.3 0 0.7 0 1 0 C1 2.6 1 5.3 1 8 C0.0 8.3 -1.0 8.7 -2 9 C-1.1 1.1 -1.1 1.1 0 0 Z " fill="#EDE7F3" transform="translate(291,1834)"/><path d="M0 0 C2.6 0.3 5.3 0.7 8 1 C8 2.0 8 3.0 8 4 C5.2 3.5 2.7 2.9 0 2 C0 1.3 0 0.7 0 0 Z " fill="#FDF9FB" transform="translate(379,1719)"/><path d="M0 0 C0.6 0.8 1.2 1.5 1.8 2.3 C3.5 4.3 5.1 6.2 7 8 C4.1 7.8 4.1 7.8 1 7 C-0.4 4.6 -0.4 4.6 -1 2 C-0.7 1.3 -0.3 0.7 0 0 Z " fill="#ECE4F3" transform="translate(418,1631)"/><path d="M0 0 C1.0 1.0 2.0 2.0 3 3 C0.0 3.7 -2.9 4.3 -6 5 C-6 4.3 -6 3.7 -6 3 C-4.0 2.0 -2.0 1.0 0 0 Z " fill="#F0E8F5" transform="translate(515,1553)"/><path d="M0 0 C1.0 0.5 1.0 0.5 2 1 C2.6 3.6 2.6 3.6 3 6 C4.0 6.3 5.0 6.7 6 7 C5.3 7.7 4.7 8.3 4 9 C0.1 5.7 0.1 5.7 -0.2 2.2 C-0.2 1.5 -0.1 0.8 0 0 Z " fill="#5D4783" transform="translate(462,1459)"/><path d="M0 0 C1.3 3.8 0.6 5.4 -1 9 C-2.0 9.3 -3.0 9.7 -4 10 C-2.9 6.5 -1.7 3.2 0 0 Z " fill="#F3EDF8" transform="translate(455,1448)"/><path d="M0 0 C1.0 1.0 2.0 2.0 3 3 C1.9 5 1.9 5 0 7 C-3.2 7.2 -3.2 7.2 -6 7 C-5.7 6.3 -5.3 5.7 -5 5 C-3.7 5 -2.4 5 -1 5 C-0.7 3.4 -0.3 1.7 0 0 Z " fill="#F5EEFA" transform="translate(348,1729)"/><path d="M0 0 C2.0 0.7 4.0 1.3 6 2 C6 2.7 6 3.3 6 4 C7.0 4.3 8.0 4.7 9 5 C8.3 5.7 7.7 6.3 7 7 C5.8 6.0 4.7 5.0 3.5 4.1 C2.9 3.5 2.2 3.0 1.5 2.4 C1.0 1.9 0.5 1.5 0 1 C0 0.7 0 0.3 0 0 Z " fill="#553D81" transform="translate(349,1685)"/><path d="M0 0 C3.9 1.3 5.8 2.5 8 6 C5.8 5.5 4.0 5.0 2 4 C2 3.3 2 2.7 2 2 C1.3 2 0.7 2 0 2 C0 1.3 0 0.7 0 0 Z " fill="#F1E9F7" transform="translate(488,1485)"/><path d="M0 0 C4.2 0.5 6.2 3.0 9 6 C4.8 5.5 2.8 3.0 0 0 Z " fill="#ECE3F4" transform="translate(465,1468)"/><path d="M0 0 C0.6 1.8 0.6 1.8 1 4 C-0.9 7.2 -0.9 7.2 -3 10 C-3.3 9.3 -3.7 8.7 -4 8 C-3.2 6.1 -3.2 6.1 -2.1 3.9 C-1.5 2.8 -1.5 2.8 -0.9 1.7 C-0.6 1.1 -0.3 0.6 0 0 Z " fill="#5A4280" transform="translate(447,1450)"/><path d="M0 0 C1 3 1 3 -0.4 6.2 C-1.2 7.6 -1.2 7.6 -2 9 C-2.7 7.3 -2.7 7.3 -3 5 C-1.6 2.2 -1.6 2.2 0 0 Z " fill="#50387A" transform="translate(282,1862)"/><path d="M0 0 C0.7 0 1.3 0 2 0 C1.3 3.3 0.7 6.6 0 10 C-2 6 -2 6 -1.7 3.9 C-1 2 -1 2 0 0 Z " fill="#E1D6EC" transform="translate(289,1687)"/><path d="M0 0 C2.3 0.7 4.6 1.3 7 2 C6.7 3.3 6.3 4.6 6 6 C4.0 4.4 2.0 2.7 0 1 C0 0.7 0 0.3 0 0 Z " fill="#EEE6F5" transform="translate(348,1676)"/><path d="M0 0 C0.3 0.7 0.7 1.3 1 2 C0.3 4.1 0.3 4.1 -1 6 C-3.1 6.8 -3.1 6.8 -5 7 C-3.5 4.4 -2.2 2.2 0 0 Z " fill="#EEE7F4" transform="translate(304,1621)"/></svg> 