<?xml version="1.0" encoding="UTF-8"?><svg xmlns="http://www.w3.org/2000/svg" viewBox="754 41 736 776"><path d="M0 0 C2.4 8.8 3.9 17 5.0 26 C5.1 28 5.3 29 5.5 31 C5.8 33 6.2 36 6.5 39 C7.0 43 7.4 46 7.9 50 C9.8 66 12 81 13 97 C13 98 13 99 13 99 C14 112 14 112 12 115 C8.2 114 5.6 113 2.5 110 C1.4 110 0.4 109 -0.7 108 C-1.8 108 -3.0 107 -4.1 106 C-6.2 105 -8.4 103 -11 102 C-12 101 -13 100 -14 100 C-16 98 -16 98 -19 97 C-20 98 -20 99 -21 100 C-33 122 -48 141 -65 159 C-67 162 -69 164 -70 166 C-84 182 -102 194 -119 206 C-120 206 -120 207 -121 207 C-123 209 -125 210 -127 211 C-127 212 -128 212 -129 212 C-132 215 -132 215 -135 215 C-136 214 -136 214 -137 214 C-136 213 -136 211 -135 210 C-139 211 -142 212 -146 214 C-151 217 -157 219 -163 221 C-164 222 -165 222 -166 222 C-173 225 -181 225 -189 225 C-189 225 -190 225 -191 225 C-196 225 -199 224 -204 221 C-207 216 -205 210 -204 204 C-201 191 -198 178 -194 166 C-190 153 -186 140 -185 126 C-185 125 -185 124 -185 123 C-184 115 -188 108 -191 101 C-194 94 -195 88 -195 81 C-195 80 -195 79 -195 78 C-195 76 -195 73 -194 71 C-192 70 -192 70 -190 70 C-186 71 -186 72 -184 75 C-181 83 -180 91 -179 99 C-177 110 -173 120 -164 127 C-153 134 -142 137 -129 138 C-126 138 -126 138 -124 139 C-124 140 -124 141 -124 142 C-134 147 -146 143 -156 140 C-163 137 -169 134 -175 128 C-176 127 -176 127 -177 127 C-175 137 -173 146 -170 155 C-168 163 -166 170 -164 177 C-164 178 -164 179 -164 180 C-162 187 -161 194 -161 201 C-150 192 -139 182 -130 171 C-129 170 -129 169 -128 168 C-114 153 -103 135 -93 117 C-92 116 -92 116 -91 114 C-83 99 -76 84 -69 69 C-70 69 -70 69 -71 69 C-76 68 -81 66 -86 64 C-87 64 -88 63 -89 63 C-90 63 -91 62 -92 62 C-93 62 -94 61 -95 61 C-97 60 -98 59 -100 57 C-100 56 -100 54 -100 53 C-98 51 -98 51 -95 49 C-94 49 -93 48 -93 48 C-74 37 -55 27 -36 17 C-31 14 -25 11 -20 7.8 C-18 6.9 -18 6.9 -17 6.1 C-16 5.6 -15 5.1 -14 4.6 C-13 4.2 -12 3.7 -11 3.3 C-8.9 2.0 -8.9 2.0 -6.5 0.3 C-3.6 -1.2 -2.9 -0.9 0 0 Z " fill="#DAB35A" transform="translate(1081,370)"/><path d="M0 0 C1.6 2.2 3.0 4.5 4.3 6.8 C7.0 10 11 12 14 13 C23 18 27 27 30 37 C32 48 31 60 29 71 C29 74 29 76 29 79 C31 82 31 82 34 84 C36 86 35 92 35 95 C35 105 33 118 26 126 C24 128 24 128 21 129 C20 131 20 131 20 133 C19 134 19 134 19 136 C18 137 18 137 18 138 C17 144 15 149 13 153 C10 159 10 164 11 170 C11 171 11 172 11 173 C11 179 11 184 13 190 C13 191 13 191 14 192 C18 203 31 208 40 213 C42 213 43 214 44 215 C65 226 65 226 87 233 C110 238 130 246 144 266 C159 288 162 309 161 334 C160 348 162 358 166 371 C168 375 169 380 170 385 C170 386 170 387 170 387 C172 396 173 404 173 412 C173 414 173 414 173 415 C173 418 173 421 173 424 C173 426 173 428 173 430 C173 435 173 440 173 445 C172 445 170 445 169 445 C167 440 167 436 167 431 C166 422 165 414 164 406 C163 404 163 402 162 399 C161 392 160 385 158 378 C158 377 158 376 158 376 C157 373 156 370 155 366 C151 355 151 344 151 332 C151 305 147 281 127 261 C126 260 126 260 125 259 C116 251 102 245 90 243 C64 239 25 224 9 202 C3.9 194 2.7 186 2.9 176 C2.9 176 2.9 175 2.9 174 C2.9 172 3.0 170 3 168 C2.3 169 2.3 169 1.6 169 C-13 183 -24 190 -45 189 C-56 188 -63 182 -71 175 C-72 175 -72 174 -73 174 C-74 173 -76 171 -77 170 C-77 169 -77 169 -77 168 C-78 168 -78 168 -79 168 C-79 169 -79 170 -79 172 C-79 184 -79 195 -88 205 C-95 212 -104 217 -112 221 C-114 222 -115 223 -116 223 C-120 225 -123 227 -127 229 C-128 230 -128 230 -130 230 C-141 236 -153 240 -165 243 C-185 247 -202 256 -214 273 C-220 282 -224 291 -226 302 C-226 303 -226 303 -227 304 C-228 310 -228 315 -228 321 C-228 323 -228 324 -228 326 C-228 328 -228 328 -228 329 C-227 347 -228 361 -234 378 C-239 393 -241 409 -243 425 C-243 427 -243 430 -244 433 C-244 435 -244 436 -244 438 C-245 444 -245 444 -246 446 C-247 446 -249 445 -250 445 C-250 409 -250 409 -248 394 C-248 393 -248 392 -247 390 C-246 382 -244 374 -241 366 C-241 365 -241 365 -240 364 C-240 363 -240 362 -240 362 C-238 354 -237 348 -237 340 C-237 338 -237 337 -237 335 C-237 332 -237 329 -237 326 C-238 300 -232 275 -213 256 C-200 244 -185 237 -167 234 C-146 229 -127 219 -108 208 C-107 208 -106 207 -105 207 C-98 202 -92 197 -89 188 C-86 176 -86 163 -90 152 C-91 150 -91 148 -92 147 C-92 146 -93 145 -93 144 C-94 141 -95 138 -95 134 C-96 130 -96 130 -100 127 C-101 127 -101 127 -103 126 C-110 117 -112 104 -113 92 C-113 91 -113 91 -113 90 C-113 86 -112 84 -109 81 C-109 81 -108 80 -107 79 C-106 77 -106 77 -107 75 C-107 74 -107 74 -107 72 C-107 70 -107 68 -108 66 C-110 49 -107 32 -98 17 C-95 13 -92 10 -89 7 C-88 6.4 -88 5.9 -87 5.3 C-67 -14 -22 -18 0 0 Z M-88 17 C-99 32 -102 50 -100 68 C-100 70 -99 72 -99 74 C-99 77 -98 81 -99 84 C-100 84 -101 85 -102 85 C-103 86 -103 86 -104 87 C-105 94 -104 101 -102 108 C-102 109 -102 110 -101 111 C-101 116 -101 116 -97 120 C-95 121 -95 121 -92 122 C-90 125 -90 126 -89 129 C-84 151 -74 166 -55 178 C-47 183 -36 182 -27 180 C-19 178 -14 173 -8 167 C-7.1 166 -6.3 165 -5.4 164 C5.1 154 9.2 143 13 128 C13 126 14 124 15 122 C17 121 20 120 22 119 C27 111 29 98 28 88 C26 85 26 85 23 84 C22 84 22 84 21 84 C21 83 21 82 21 82 C22 73 22 64 22 56 C22 55 22 53 22 52 C22 40 21 30 12 21 C9.8 19 7.4 17 4.4 16 C1.9 14 1.0 13 -0.7 10 C-6.3 2.4 -16 -0.2 -25 -2 C-30 -2.5 -34 -2.5 -39 -2.5 C-41 -2.5 -41 -2.5 -43 -2.5 C-61 -2.1 -75 4.1 -88 17 Z " fill="#AF8127" transform="translate(1062,113)"/><path d="M0 0 C2.4 8.8 3.9 17 5.0 26 C5.1 28 5.3 29 5.5 31 C5.8 33 6.2 36 6.5 39 C7.0 43 7.4 46 7.9 50 C9.8 66 12 81 13 97 C13 98 13 99 13 99 C14 112 14 112 12 115 C8.2 114 5.6 113 2.5 110 C1.4 110 0.4 109 -0.7 108 C-1.8 108 -3.0 107 -4.1 106 C-6.2 105 -8.4 103 -11 102 C-12 101 -13 100 -14 100 C-16 98 -16 98 -19 97 C-20 98 -20 99 -21 100 C-33 122 -48 141 -65 159 C-67 162 -69 164 -70 166 C-84 182 -102 194 -119 206 C-120 206 -120 207 -121 207 C-123 209 -125 210 -127 211 C-127 212 -128 212 -129 212 C-132 215 -132 215 -135 215 C-136 214 -136 214 -137 214 C-136 211 -134 209 -131 207 C-130 206 -130 206 -129 205 C-126 203 -124 201 -121 199 C-113 194 -106 188 -99 182 C-98 181 -97 180 -96 180 C-93 176 -89 173 -86 169 C-83 167 -83 167 -81 167 C-81 166 -81 166 -81 165 C-80 165 -80 165 -79 165 C-79 164 -79 164 -79 163 C-78 163 -78 163 -77 163 C-77 162 -76 162 -76 161 C-75 159 -73 157 -71 155 C-52 136 -37 111 -23 87 C-18 87 -14 89 -10 92 C-9.1 92 -8.1 93 -7.0 94 C-6.0 95 -5.0 95 -4 96 C-2.3 97 -0.5 98 1.2 100 C2.5 100 3.8 101 5 102 C4.7 101 4.3 100 4 99 C3.7 96 3.4 93 3.2 90 C2.4 80 1.3 71 0.1 61 C-0.0 60 -0.1 60 -0.2 59 C-0.8 55 -1.3 50 -1.8 46 C-2.6 40 -3.3 34 -4.1 29 C-4.3 27 -4.6 25 -4.8 23 C-5.0 21 -5.1 20 -5.3 19 C-5.4 18 -5.6 17 -5.7 16 C-6 13 -6 13 -6 10 C-21 17 -35 25 -49 33 C-55 37 -62 41 -69 44 C-79 49 -79 49 -86 56 C-85 56 -84 56 -84 56 C-79 57 -75 59 -71 60 C-70 61 -69 61 -68 61 C-62 64 -62 64 -61 65 C-61 73 -64 80 -67 87 C-68 88 -69 89 -69 90 C-91 138 -129 203 -181 224 C-187 226 -195 227 -201 223 C-204 221 -204 221 -206 218 C-206 201 -199 182 -194 166 C-190 153 -186 140 -185 126 C-185 125 -185 124 -185 123 C-184 115 -188 108 -191 101 C-194 94 -195 88 -195 81 C-195 80 -195 79 -195 78 C-195 76 -195 73 -194 71 C-192 70 -192 70 -190 70 C-186 71 -186 72 -184 75 C-181 83 -180 91 -179 99 C-177 110 -173 120 -164 127 C-153 134 -142 137 -129 138 C-126 138 -126 138 -124 139 C-124 140 -124 141 -124 142 C-134 147 -146 143 -156 140 C-163 137 -169 134 -175 128 C-176 127 -176 127 -177 127 C-175 137 -173 146 -170 155 C-168 163 -166 170 -164 177 C-164 178 -164 179 -164 180 C-162 187 -161 194 -161 201 C-150 192 -139 182 -130 171 C-129 170 -129 169 -128 168 C-114 153 -103 135 -93 117 C-92 116 -92 116 -91 114 C-83 99 -76 84 -69 69 C-70 69 -70 69 -71 69 C-76 68 -81 66 -86 64 C-87 64 -88 63 -89 63 C-90 63 -91 62 -92 62 C-93 62 -94 61 -95 61 C-97 60 -98 59 -100 57 C-100 56 -100 54 -100 53 C-98 51 -98 51 -95 49 C-94 49 -93 48 -93 48 C-74 37 -55 27 -36 17 C-31 14 -25 11 -20 7.8 C-18 6.9 -18 6.9 -17 6.1 C-16 5.6 -15 5.1 -14 4.6 C-13 4.2 -12 3.7 -11 3.3 C-8.9 2.0 -8.9 2.0 -6.5 0.3 C-3.6 -1.2 -2.9 -0.9 0 0 Z " fill="#B18122" transform="translate(1081,370)"/><path d="M0 0 C2.4 8.8 3.9 17 5.0 26 C5.1 28 5.3 29 5.5 31 C5.8 33 6.2 36 6.5 39 C7.0 43 7.4 46 7.9 50 C9.8 66 12 81 13 97 C13 98 13 99 13 99 C14 112 14 112 12 115 C8.2 114 5.6 113 2.5 110 C1.4 110 0.4 109 -0.7 108 C-1.8 108 -3.0 107 -4.1 106 C-6.2 105 -8.4 103 -11 102 C-12 101 -13 100 -14 100 C-16 98 -16 98 -19 97 C-20 98 -20 99 -21 100 C-33 122 -48 141 -65 159 C-67 162 -69 164 -70 166 C-84 182 -102 194 -119 206 C-120 207 -120 207 -121 207 C-123 209 -125 210 -127 211 C-127 212 -128 212 -129 212 C-132 215 -132 215 -135 215 C-136 214 -136 214 -137 214 C-136 211 -134 209 -131 207 C-130 206 -130 206 -129 205 C-126 203 -124 201 -121 199 C-113 194 -106 188 -99 182 C-98 181 -97 180 -96 180 C-93 176 -89 173 -86 169 C-83 167 -83 167 -81 167 C-81 166 -81 166 -81 165 C-80 165 -80 165 -79 165 C-79 164 -79 164 -79 163 C-78 163 -78 163 -77 163 C-77 162 -76 162 -76 161 C-75 159 -73 157 -71 155 C-52 136 -37 111 -23 87 C-18 87 -14 89 -10 92 C-9.1 92 -8.1 93 -7.0 94 C-6.0 95 -5.0 95 -4 96 C-2.3 97 -0.5 98 1.2 100 C2.5 100 3.8 101 5 102 C4.7 101 4.3 100 4 99 C3.7 96 3.4 93 3.2 90 C2.4 80 1.3 71 0.1 61 C-0.0 60 -0.1 60 -0.2 59 C-0.8 55 -1.3 50 -1.8 46 C-2.6 40 -3.3 34 -4.1 29 C-4.3 27 -4.6 25 -4.8 23 C-5.0 21 -5.1 20 -5.3 19 C-5.4 18 -5.6 17 -5.7 16 C-6 13 -6 13 -6 10 C-18 16 -29 22 -41 28 C-42 29 -43 30 -43 30 C-48 33 -53 36 -58 39 C-59 39 -60 40 -61 40 C-63 41 -65 42 -66 43 C-67 44 -68 44 -69 45 C-70 45 -70 46 -71 46 C-73 47 -73 47 -76 46 C-75 46 -74 45 -73 45 C-73 44 -74 43 -74 42 C-74 42 -74 41 -74 41 C-77 41 -77 41 -81 42 C-77 39 -74 37 -69 34 C-68 34 -68 34 -67 33 C-66 33 -65 32 -63 31 C-60 29 -56 27 -52 25 C-51 25 -51 25 -50 24 C-44 21 -38 18 -32 15 C-31 14 -31 14 -30 13 C-25 11 -21 8.4 -17 6.0 C-16 5.5 -15 5.1 -14 4.6 C-13 3.7 -11 2.8 -9.6 1.9 C-4.0 -1.4 -4.0 -1.4 0 0 Z " fill="#AF8025" transform="translate(1081,370)"/><path d="M0 0 C3.2 1.2 3.9 2.0 5.5 4.9 C8.6 13 9.7 21 11 29 C13 40 16 50 26 57 C37 63 47 66 60 68 C64 68 64 68 66 69 C66 70 66 71 66 72 C55 77 44 73 34 70 C26 67 20 64 15 58 C14 57 14 57 12 57 C12 65 13 72 15 80 C15 81 15 81 16 82 C14 84 14 84 12 85 C12 84 11 82 10 81 C12 89 14 98 16 106 C17 109 17 111 18 114 C18 115 18 116 19 117 C20 120 20 123 20 127 C21 128 21 129 21 130 C21 137 21 137 19 140 C17 142 15 143 12 144 C12 144 11 145 10 145 C3.8 148 -2.5 149 -9.5 148 C-10 147 -11 147 -12 146 C-13 140 -12 135 -9.5 130 C-7.5 125 -7.5 125 -6.5 121 C-7.2 121 -7.8 121 -8.5 121 C-8.5 119 -8.5 118 -8.5 116 C-8.0 115 -8.0 115 -7.5 115 C-7.4 113 -7.4 112 -7.3 110 C-6.9 104 -5.5 99 -3.7 94 C-1.4 87 0.4 80 1.8 73 C2.1 72 2.1 72 2.3 71 C3.2 66 3.9 61 4.5 56 C4.6 55 4.7 54 4.8 53 C5.4 45 1.9 38 -1.7 31 C-4.8 24 -5.8 18 -5.9 10 C-5.9 9.8 -5.9 9.1 -5.9 8.4 C-5.9 5.4 -5.8 3.4 -4.1 1.0 C-2.5 -0.1 -2.5 -0.1 0 0 Z M-9.5 121 C-8.9 123 -8.9 123 -8.5 125 C-9.2 126 -9.8 126 -10 127 C-10 125 -9.8 123 -9.5 121 Z " fill="#B28123" transform="translate(891.5,440.0625)"/><path d="M0 0 C2.4 0.9 2.4 0.9 4.4 3.9 C6.0 16 2.3 27 -2.8 38 C-5.7 45 -6.4 50 -5.6 57 C-5.5 58 -5.4 58 -5.4 59 C-3.0 80 3.9 100 11 120 C13 127 14 131 13 138 C10 137 10 137 9.3 135 C9.0 134 8.7 134 8.3 133 C7.9 132 7.5 131 7.1 130 C6.7 129 6.3 128 5.9 127 C5.2 126 5.2 126 4.6 124 C-0.9 111 -5.2 97 -9.6 84 C-12 88 -13 92 -14 96 C-14 97 -14 98 -15 98 C-17 106 -18 114 -20 122 C-20 125 -21 127 -21 129 C-23 138 -24 146 -25 154 C-26 157 -26 157 -27 159 C-30 157 -30 157 -32 156 C-33 126 -25 98 -16 70 C-15 65 -14 61 -15 56 C-15 56 -15 57 -16 57 C-26 69 -42 74 -57 75 C-60 75 -63 75 -66 75 C-66 75 -67 75 -68 75 C-74 75 -80 74 -86 73 C-86 71 -86 71 -87 69 C-85 67 -82 68 -79 68 C-78 68 -76 68 -75 68 C-74 68 -73 68 -73 68 C-60 67 -49 67 -38 62 C-37 61 -36 61 -35 61 C-26 56 -18 49 -14 39 C-12 33 -11 27 -10 20 C-6.8 -0.3 -6.8 -0.3 0 0 Z " fill="#B48221" transform="translate(1157.5625,440.125)"/><path d="M0 0 C0.7 0 1.3 0 2 0 C3.3 4.6 4.5 9.2 5.7 14 C6.2 15 6.6 17 7.0 19 C15 48 15 48 13 57 C11 60 8.2 61 5 63 C4.2 63 3.5 64 2.7 64 C-3.7 67 -10 68 -17 67 C-18 66 -19 66 -20 65 C-21 59 -20 55 -18 50 C-17 49 -16 47 -16 46 C-16 45 -15 44 -15 44 C-13 39 -11 34 -9.4 29 C-9.1 28 -8.7 27 -8.3 26 C-5.1 17 -2.4 8.8 0 0 Z " fill="#F5F3E7" transform="translate(899,521)"/><path d="M0 0 C6.9 3.1 12 7.1 18 12 C19 13 19 13 20 14 C35 27 44 50 45 70 C45 77 45 85 45 92 C44 106 46 116 50 129 C52 133 53 138 54 143 C54 144 54 145 54 145 C56 154 57 162 57 170 C57 171 57 172 57 173 C57 176 57 179 57 182 C57 184 57 186 57 188 C57 193 57 198 57 203 C56 203 54 203 53 203 C51 198 51 194 51 189 C50 180 49 172 48 164 C47 162 47 160 46 157 C45 150 44 143 42 136 C42 135 42 134 42 134 C41 131 40 128 39 124 C35 113 35 102 35 90 C35 64 32 41 13 21 C11 19 9.5 18 7.4 16 C6.6 15 5.8 15 5 14 C5 13 5 13 5 12 C6.3 13 7.7 13 9 14 C9.7 14 10 15 11 15 C15 18 18 22 21 26 C22 27 22 27 22 28 C26 33 28 36 29 42 C30 42 30 42 31 42 C38 60 38 76 38 95 C38 98 38 101 38 103 C38 104 38 105 38 106 C38 111 39 114 41 119 C42 119 42 118 43 118 C43 117 43 117 43 116 C42 110 42 104 42 98 C42 97 42 97 42 95 C42 92 42 89 42 85 C42 71 42 57 36 44 C36 43 35 42 35 41 C33 35 33 35 29 31 C28 29 28 28 27 26 C24 20 20 16 14 12 C14 11 14 11 14 10 C13 9.7 13 9.4 12 9.2 C10.0 8.0 7.6 6.8 5.3 5.6 C4.5 5.2 3.7 4.7 2.9 4.3 C1 3 1 3 0 0 Z " fill="#B48426" transform="translate(1178,355)"/><path d="M0 0 C0.8 0.3 1.5 0.6 2.3 0.9 C5.6 1.9 8.2 2.2 12 2.3 C17 2.7 19 4.0 22 8 C23 8.5 24 9.1 26 9.6 C34 14 43 23 48 31 C49 34 49 34 49 36 C50 36 51 37 52 37 C53 39 53 39 54 43 C55 44 55 45 56 46 C56 47 56 47 57 49 C57 50 58 50 58 51 C64 64 63 79 63 93 C63 96 63 100 63 103 C63 104 63 105 63 105 C63 111 63 116 64 121 C64 122 64 122 64 123 C63 124 63 124 62 125 C61 126 61 128 60 129 C60 128 60 128 60 127 C60 126 60 126 60 125 C60 123 60 123 59 122 C59 120 59 120 57 117 C57 114 57 111 57 109 C57 108 57 107 57 106 C57 102 57 99 57 95 C57 73 57 73 52 52 C51 50 51 50 51 47 C50 47 50 47 49 47 C49 46 48 46 48 45 C45 39 41 33 37 28 C35 25 35 25 34 22 C33 22 31 21 30 21 C29 20 28 19 27 18 C26 18 25 18 24 18 C23 17 23 17 22 16 C16 9.6 7.1 7.1 -1 5 C-0.7 3.4 -0.3 1.7 0 0 Z " fill="#B3801F" transform="translate(1158,350)"/><path d="M0 0 C0.3 0 0.7 0 1 0 C0.9 0.7 0.9 1.3 0.8 2.0 C-0.1 12 -0.3 21 -0.6 31 C-0.6 33 -0.7 35 -0.7 37 C-0.8 39 -0.8 39 -0.8 41 C-1 44 -1 44 -2 47 C-1.3 47 -0.7 47 0 47 C1.2 55 0.8 61 -2 68 C-2.7 68 -3.3 68 -4 68 C-4.3 70 -4.7 72 -5 74 C-5.7 74 -6.3 74 -7 74 C-7.1 75 -7.2 77 -7.2 78 C-7.8 84 -9.1 89 -10 95 C-12 102 -13 109 -14 116 C-14 116 -14 117 -14 118 C-14 119 -14 119 -14 120 C-15 122 -15 122 -18 124 C-18 114 -18 103 -15 94 C-15 92 -15 90 -15 88 C-15 85 -15 83 -14 80 C-13 80 -13 80 -12 80 C-12 79 -12 78 -12 77 C-12 74 -11 72 -9 69 C-8.6 67 -8.3 64 -8 62 C-7.8 61 -7.7 61 -7.5 60 C-6.9 58 -6.8 55 -6.8 53 C-6.8 52 -6.8 51 -6.8 50 C-6.7 49 -6.7 48 -6.7 47 C-6.7 46 -6.7 45 -6.7 43 C-6.6 40 -6.6 36 -6.5 33 C-6.4 28 -6.4 24 -6.3 19 C-6.3 18 -6.3 17 -6.2 16 C-6.2 15 -6.2 14 -6.2 13 C-6.2 12 -6.2 12 -6.2 10 C-6.0 8.1 -5.6 6.2 -5 4 C-4.0 4 -3.0 4 -2 4 C-1.3 2.7 -0.7 1.4 0 0 Z " fill="#B38120" transform="translate(833,411)"/><path d="M0 0 C1.6 0 3.3 0 5 0 C5 0.7 5 1.3 5 2 C4.3 2 3.7 2 3 2 C2.7 3.0 2.3 4.0 2 5 C-0.3 5.3 -2.6 5.7 -5 6 C-5.1 6.6 -5.2 7.2 -5.3 7.9 C-6 10 -6 10 -9 12 C-10.0 12 -11 12 -12 12 C-12 13 -12 13 -12 14 C-13 14 -13 14 -14 14 C-14 15 -14 15 -14 16 C-15 16 -15 16 -16 16 C-16 17 -17 19 -17 20 C-18 20 -18 20 -19 20 C-19 21 -19 22 -19 23 C-20 23 -20 23 -21 23 C-21 24 -21 24 -21 25 C-22 25 -22 25 -23 25 C-23 27 -23 28 -23 30 C-24 30 -24 30 -25 30 C-25 31 -25 33 -25 34 C-26 37 -26 38 -28 41 C-28 43 -28 43 -28 45 C-28 46 -28 47 -28 48 C-28 49 -28 50 -28 51 C-28 52 -28 53 -28 54 C-28 57 -28 61 -28 64 C-28 66 -28 68 -28 70 C-28 75 -28 81 -28 86 C-29 86 -29 86 -31 87 C-32 87 -32 86 -33 86 C-33 87 -33 88 -33 89 C-34 89 -34 89 -35 89 C-35 95 -35 100 -35 106 C-38 101 -39 95 -39 89 C-38 86 -37 85 -35 83 C-35 82 -35 82 -35 81 C-34 81 -34 81 -33 81 C-33 80 -33 79 -33 78 C-36 45 -36 45 -30 30 C-30 29 -29 28 -29 27 C-28 27 -28 27 -27 27 C-27 26 -27 26 -27 25 C-26 22 -25 20 -23 17 C-22 17 -22 17 -21 17 C-21 16 -21 16 -20 15 C-17 9.4 -12 6.7 -6.1 4.2 C-2.4 2.9 -2.4 2.9 0 0 Z " fill="#B2801F" transform="translate(990,111)"/><path d="M0 0 C1.3 0.6 2.7 1.3 4 2 C4.7 2.3 5.5 2.7 6.2 3.0 C10 5.9 13 9.7 16 14 C16 15 17 15 17 16 C21 21 23 24 24 30 C25 30 25 30 26 30 C32 47 33 63 33 81 C33 84 33 88 33 92 C33 92 33 93 33 94 C33 98 33 100 35 103 C35 105 35 105 35 107 C36 112 37 115 39 119 C40 121 40 121 40 124 C40 124 41 125 41 125 C43 127 42 128 42 130 C43 134 43 138 44 142 C47 151 47 160 48 170 C48 173 48 177 48 181 C48 182 48 182 48 183 C49 185 49 187 49 189 C50 189 50 190 51 190 C51 184 51 179 50 173 C50 171 50 169 50 167 C50 156 49 146 47 136 C46 133 46 132 47 129 C53 135 52 151 52 159 C52 163 52 167 52 171 C52 173 52 175 52 177 C52 181 52 186 52 191 C51 191 49 191 48 191 C46 186 46 182 46 177 C45 168 44 160 43 152 C42 150 42 148 41 145 C40 138 39 131 37 124 C37 123 37 122 37 122 C36 119 35 116 34 112 C30 101 30 90 30 78 C30 52 27 29 8.2 9.1 C6.3 7.3 4.5 5.6 2.4 4 C1.6 3.3 0.8 2.7 0 2 C0 1.3 0 0.7 0 0 Z " fill="#A57F35" transform="translate(1183,367)"/><path d="M0 0 C0.3 0 0.7 0 1 0 C1.2 1.7 1.2 1.7 1.3 3.4 C2.9 19 5.7 34 10 49 C10 50 10 50 11 51 C12 58 14 64 17 71 C17 72 17 73 17 74 C18 75 19 77 19 78 C21 83 21 88 21 93 C18 92 18 92 17 90 C17 89 16 89 16 88 C15 87 15 86 15 85 C14 84 14 83 13 82 C13 81 13 80 12 79 C8.7 71 5.6 63 2.8 54 C2.4 53 2.0 52 1.6 51 C1.2 50 0.9 49 0.5 47 C0.2 47 -0.1 46 -0.4 45 C-1.0 42 -0.9 41 0 38 C0.3 39 0.7 41 1 42 C1.7 42 2.3 42 3 42 C3.7 40 4.3 39 5 37 C4.3 37 3.7 37 3 37 C2.0 31 1.0 26 0 20 C-0.3 20 -0.7 20 -1 20 C-2.5 14 -2.8 5.6 0 0 Z " fill="#A4813A" transform="translate(1150,485)"/><path d="M0 0 C0.3 0 0.7 0 1 0 C1.4 12 1.4 12 -1 17 C-1.7 17 -2.3 17 -3 17 C-3 22 -3 28 -3 33 C-2.3 33 -1.7 33 -1 33 C0.2 41 -0.4 49 -1.9 57 C-2.1 58 -2.2 59 -2.4 60 C-3.8 69 -3.8 69 -5 71 C-8.9 69 -8.9 69 -10 68 C-11 45 -7.1 21 0 0 Z " fill="#B08635" transform="translate(1136,528)"/><path d="M0 0 C0.3 0 0.7 0 1 0 C1.0 2.6 1.0 5.2 1.1 7.8 C1.1 8.6 1.1 9.3 1.1 10 C1.1 13 1.0 16 0 19 C-0.7 19 -1.3 19 -2 19 C-2.0 20 -2.0 22 -2.1 23 C-2.1 24 -2.1 24 -2.1 25 C-2.1 27 -2.1 27 -1 29 C-0.3 29 0.3 29 1 29 C1.3 28 1.7 26 2 25 C2.2 30 1.4 35 -0.2 40 C-3.4 51 -5.7 62 -8 73 C-8.3 73 -8.7 73 -9 73 C-9 70 -9 68 -9 65 C-9.7 65 -10 65 -11 65 C-12 61 -12 58 -12 54 C-11 53 -11 53 -11 51 C-11 50 -11 50 -11 49 C-10 49 -9.7 49 -9 49 C-9.0 48 -9.0 47 -9.1 47 C-9 44 -9 44 -8 43 C-7.9 41 -7.8 39 -7.8 37 C-7.3 30 -5.9 25 -3.9 18 C-2.0 12 -0.8 6.2 0 0 Z " fill="#AE8025" transform="translate(1144,496)"/><path d="M0 0 C0.7 0.3 1.3 0.7 2 1 C2.5 3.7 2.8 6.3 3 9 C3.1 9.9 3.2 11 3.2 12 C3.4 14 3.4 16 3 19 C2.2 19 1.4 20 0.5 20 C-0.3 21 -1.1 21 -2 22 C-3.1 28 -1.9 35 -0.4 41 C0 43 0 43 0 47 C-0.7 47 -1.3 47 -2 47 C-2.4 46 -2.4 46 -2.9 45 C-3.8 43 -3.8 43 -6 42 C-5.7 46 -5.3 49 -5 53 C-4.3 53 -3.7 53 -3 53 C-2.7 54 -2.7 54 -2.4 56 C-0.5 60 1.7 60 6 62 C8.5 65 8.6 70 9.1 74 C9.2 74 9.3 75 9.4 76 C9.6 78 9.8 79 10 81 C6.9 78 6.7 74 5.9 69 C5.4 67 5.4 67 4 64 C1.1 62 1.1 62 -2 61 C-9.5 52 -11 39 -12 27 C-12 26 -12 26 -12 25 C-11 21 -11 18 -8 15 C-7.0 15 -6.0 16 -5 16 C-5.7 17 -6.3 18 -7 19 C-7.7 19 -8.3 19 -9 19 C-9.2 25 -8.5 30 -7 36 C-6.7 31 -6.3 27 -6 22 C-5.3 22 -4.7 22 -4 22 C-4 21 -4 20 -4 19 C-2.4 19 -0.7 19 1 19 C0.7 13 0.3 6.5 0 0 Z " fill="#A98131" transform="translate(961,178)"/><path d="M0 0 C0.7 2.0 1.4 4.0 2 6 C1.7 6.7 1.3 7.3 1 8 C-5.3 9.1 -12 9.2 -18 9.2 C-19 9.2 -20 9.2 -21 9.2 C-27 9.2 -32 8.5 -38 7 C-39 5.1 -39 5.1 -39 3 C-37 1.1 -34 1.8 -31 1.7 C-30 1.7 -30 1.7 -29 1.7 C-27 1.6 -24 1.6 -22 1.5 C-19 1.4 -16 1.4 -13 1.3 C-12 1.3 -11 1.2 -9.3 1.2 C-6.0 1.0 -3.3 0 0 0 Z " fill="#B1893B" transform="translate(1110,506)"/><path d="M0 0 C1.0 1.0 1.0 1.0 2 2.1 C3.0 3.0 4.0 4.0 5 5 C5.8 5.8 5.8 5.8 6.7 6.7 C17 17 32 21 47 22 C49 22 49 22 51 23 C51 24 51 25 51 26 C41 31 29 27 19 24 C10 21 0.9 16 -3 7 C0.5 8.4 1.3 9.7 3 13 C4.8 14 4.8 14 7 15 C7.9 15 8.8 16 9.8 16 C11 17 11 17 12 17 C12 18 12 18 12 19 C13 19 13 19 14 19 C16 20 19 21 22 22 C23 22 24 23 25 23 C26 24 26 24 27 24 C27 24 28 23 28 23 C27 23 26 22 25 22 C25 21 25 20 25 19 C24 19 23 19 22 19 C19 18 16 17 12 15 C12 14 12 14 12 13 C11 13 11 13 10 13 C7.1 12 5.8 9.7 3.8 7.1 C3.0 6.2 2.3 5.3 1.6 4.3 C0 2 0 2 0 0 Z " fill="#A68035" transform="translate(906,486)"/><path d="M0 0 C6.9 3.1 12 7.1 18 12 C19 13 19 13 20 14 C35 28 44 50 45 70 C45 78 45 86 45 94 C45 96 45 98 45 101 C45 107 45 112 45 118 C42 112 42 105 42 98 C42 97 42 95 42 93 C42 91 42 88 42 85 C42 71 42 57 36 44 C36 43 35 42 35 41 C33 35 33 35 29 31 C28 29 28 28 27 26 C24 20 20 16 14 12 C14 11 14 11 14 10 C13 9.7 13 9.4 12 9.2 C10.0 8.0 7.6 6.8 5.3 5.6 C4.5 5.2 3.7 4.7 2.9 4.3 C1 3 1 3 0 0 Z " fill="#A4813D" transform="translate(1178,355)"/><path d="M0 0 C3.2 1.2 3.9 2.0 5.5 4.9 C8.2 11 9.0 15 7.5 22 C6.8 23 6.2 23 5.5 24 C4.5 24 3.5 24 2.5 24 C2.0 22 1.5 21 1 19 C0.7 18 0.4 17 0.2 16 C-0.5 14 -0.5 14 -0.5 11 C-1.2 11 -1.8 11 -2.5 11 C-2.8 15 -3.2 19 -3.5 23 C-5.6 19 -5.8 16 -5.8 11 C-5.8 10 -5.8 9.4 -5.9 8.7 C-5.9 3.5 -5.9 3.5 -4.1 0.9 C-2.5 -0.1 -2.5 -0.1 0 0 Z " fill="#AA7F29" transform="translate(891.5,440.0625)"/><path d="M0 0 C2.4 0.2 2.4 0.2 5 1 C8.0 5.5 7.5 9.7 7 15 C5.0 25 1.1 34 -3 43 C-4.4 39 -2.8 36 -1.1 33 C1.3 27 1.3 27 3 21 C1.0 22 1.0 22 -1 23 C-0.7 19 -0.3 15 0 11 C-0.4 13 -0.4 13 -0.9 16 C-1.4 19 -1.4 19 -2 21 C-2.7 21 -3.3 22 -4 22 C-4.0 21 -4.0 20 -3.9 19 C-3.8 15 -3.8 15 -5 12 C-4.6 8.7 -4.4 7.4 -2 5 C-1.6 3.7 -1.3 2.3 -1 1 C-0.7 0.7 -0.3 0.3 0 0 Z " fill="#A27725" transform="translate(1155,442)"/><path d="M0 0 C0.3 0 0.7 0 1 0 C1.2 5.4 1.1 9.9 -1 15 C-0.3 15 0.3 15 1 15 C1.7 14 2.3 12 3 11 C2.2 16 0.1 21 -1.9 26 C-3.9 31 -4.3 35 -4 40 C-0.7 41 2.6 41 6 42 C6 42 6 43 6 43 C3.7 44 1.4 44 -1 45 C-0.1 45 -0.1 45 0.7 45 C5.5 46 10 46 15 47 C12 50 11 49 6.8 49 C0.9 49 -2.4 49 -7 45 C-10 40 -8.2 34 -7 28 C-5.0 19 -2.7 9.2 0 0 Z M-2 15 C-2.3 17 -2.7 19 -3 21 C-2.3 20 -1.7 20 -1 19 C-1.3 17 -1.3 17 -2 15 Z " fill="#AB883D" transform="translate(884,546)"/><path d="M0 0 C-0.5 0.5 -1.0 0.9 -1.5 1.4 C-3.2 2.9 -3.2 2.9 -3 5 C-6 7 -6 7 -9 7 C-9.0 7.9 -9.0 7.9 -9.1 8.8 C-11 12 -14 13 -17 15 C-17 15 -18 15 -19 16 C-22 17 -25 18 -28 19 C-29 20 -30 20 -31 21 C-33 21 -33 21 -34 22 C-35 22 -35 21 -36 21 C-37 21 -37 21 -38 21 C-39 21 -41 20 -42 20 C-40 19 -40 19 -39 19 C-37 18 -36 17 -34 17 C-33 16 -33 16 -32 16 C-31 15 -31 15 -30 15 C-29 14 -29 14 -28 14 C-26 13 -25 12 -23 10 C-20 7.9 -16 6.1 -13 4.2 C-12 3.5 -12 3.5 -10 2.7 C-9.3 2.2 -8.5 1.7 -7.6 1.2 C-6.4 0.5 -6.4 0.5 -5.1 -0.2 C-3 -1 -3 -1 0 0 Z " fill="#B58221" transform="translate(1061,382)"/><path d="M0 0 C1.0 0.5 1.0 0.5 2 1 C-4.6 5.6 -11 9.6 -18 13 C-20 14 -20 14 -22 15 C-37 23 -52 30 -69 34 C-78 36 -86 38 -94 42 C-95 43 -97 44 -99 45 C-100 45 -100 44 -101 44 C-100 44 -100 44 -98 43 C-98 42 -98 42 -98 41 C-97 41 -96 41 -95 41 C-95 40 -95 40 -95 39 C-93 38 -91 38 -89 37 C-87 36 -85 36 -83 35 C-76 32 -69 31 -62 30 C-58 29 -54 28 -50 27 C-50 26 -50 26 -50 25 C-46 25 -46 25 -42 24 C-42 23 -42 23 -41 21 C-39 20 -39 20 -37 20 C-33 18 -30 17 -26 15 C-25 15 -25 15 -24 15 C-24 14 -24 14 -24 13 C-23 13 -22 13 -21 13 C-21 12 -21 12 -21 11 C-20 11 -18 10 -17 9.6 C-16 9.3 -16 9.0 -15 8.8 C-13 8.1 -12 7.6 -10 7 C-10 6.3 -10 5.7 -10 5 C-9.0 5 -8.0 5 -7 5 C-7 4.3 -7 3.7 -7 3 C-4.7 1.9 -2.4 0.9 0 0 Z " fill="#9E7B34" transform="translate(966,322)"/><path d="M0 0 C0.3 0 0.7 0 1 0 C1.0 2.6 1.0 5.2 1.1 7.8 C1.1 8.6 1.1 9.3 1.1 10 C1.1 13 1.0 16 0 19 C-0.7 19 -1.3 19 -2 19 C-2.0 20 -2.0 22 -2.1 23 C-2.1 24 -2.1 24 -2.1 25 C-2.1 27 -2.1 27 -1 29 C-0.3 29 0.3 29 1 29 C1.3 28 1.7 26 2 25 C2.4 31 0.9 37 -1 43 C-1.3 44 -1.6 45 -1.9 46 C-2.6 48 -3.3 51 -4 53 C-5.0 49 -4.8 47 -4.1 43 C-3.9 42 -3.7 41 -3.5 40 C-3.3 40 -3.2 39 -3 38 C-4.3 39 -5.6 41 -7 42 C-7.7 33 -6.5 26 -3.9 18 C-2.0 12 -0.8 6.3 0 0 Z " fill="#A57923" transform="translate(1144,496)"/><path d="M0 0 C1.0 0.3 2.0 0.7 3 1 C2.4 1.9 1.8 2.8 1.2 3.7 C-6.7 16 -12 27 -15 41 C-15 42 -15 42 -16 43 C-16 47 -16 51 -16 55 C-16 56 -16 57 -16 58 C-16 61 -16 64 -16 67 C-16 69 -16 71 -16 73 C-16 77 -16 82 -16 87 C-16 87 -17 87 -17 87 C-17 85 -17 82 -17 80 C-18 80 -18 80 -19 80 C-19 75 -19 71 -19 66 C-19 64 -19 63 -19 61 C-18 50 -18 40 -16 29 C-15 29 -15 29 -14 29 C-13 25 -12 20 -11 16 C-10 16 -9.7 16 -9 16 C-9 15 -9 14 -9 13 C-8.3 13 -7.7 13 -7 13 C-7 12 -7 11 -7 10 C-6.3 10 -5.7 10 -5 10 C-5 8.7 -5 7.4 -5 6 C-4.0 6 -3.0 6 -2 6 C-2 4.7 -2 3.4 -2 2 C-1.3 2 -0.7 2 0 2 C0 1.3 0 0.7 0 0 Z " fill="#A27B2E" transform="translate(850,378)"/><path d="M0 0 C2.1 3.1 2.8 5.4 3.8 9 C4.9 13 6.2 18 7.6 22 C7.9 23 8.1 24 8.4 24 C9.0 26 9.5 28 10 29 C12 34 12 39 12 44 C9 43 9 43 7.8 41 C7.2 40 7.2 40 6.7 38 C6.2 37 5.8 36 5.4 35 C4.7 34 4.7 34 4.1 32 C3.6 31 3.2 30 2.7 29 C-0.2 22 -2.9 15 -5 8 C-4.3 8 -3.7 8 -3 8 C-2.3 9.8 -1.7 12 -1 13 C-0.4 15 -0.4 15 0.1 16 C1 19 1 19 1 21 C1.7 21 2.3 21 3 21 C4.0 24 5.0 27 6 30 C5.3 24 3.6 18 1.7 11 C0.6 7.6 -0.3 4.1 0 0 Z " fill="#A8853F" transform="translate(1159,534)"/><path d="M0 0 C1.2 3.5 0.8 4.5 -0.3 8.0 C-0.6 9.0 -0.9 9.9 -1.2 11 C-1.5 12 -1.9 13 -2.2 14 C-2.6 16 -2.6 16 -3.1 17 C-5.1 24 -7.4 30 -10 36 C-11 36 -11 36 -12 36 C-12 37 -13 39 -13 40 C-14 40 -14 40 -15 40 C-15 38 -15 37 -15 35 C-15 35 -15 35 -14 34 C-14 32 -14 31 -14 29 C-13 21 -11 13 -8 5 C-7.7 5 -7.3 5 -7 5 C-7.5 13 -9.1 20 -11 28 C-10 28 -9.7 28 -9 28 C-7.4 23 -5.9 18 -4.5 12 C-3.3 8.0 -1.9 4.0 0 0 Z M-16 40 C-15 42 -15 42 -15 44 C-16 45 -16 45 -17 46 C-17 44 -16 42 -16 40 Z " fill="#A57D2F" transform="translate(898,521)"/><path d="M0 0 C2.6 2.6 3.1 4.9 4.2 8.4 C4.6 9.5 4.9 11 5.3 12 C6.0 15 6.1 16 5 19 C3.8 17 2.8 15 2 12 C0.7 12 -0.6 12 -2 12 C-2.0 13 -1.9 14 -1.9 15 C-2.0 19 -3.2 23 -4.8 27 C-6.6 32 -7.4 37 -7.8 42 C-8 44 -8 44 -9 46 C-9.2 48 -9.4 49 -9.6 51 C-9.7 52 -9.7 52 -9.8 54 C-9.9 55 -9.9 55 -10 56 C-12 54 -12 54 -12 52 C-11 45 -10 39 -8.8 33 C-8.6 32 -8.4 31 -8.2 30 C-6.0 19 -3.1 9.7 0 0 Z " fill="#F5EACB" transform="translate(1147,522)"/><path d="M0 0 C-7.1 4.5 -14 8.9 -22 13 C-22 13 -23 14 -24 14 C-25 15 -27 16 -29 17 C-30 17 -31 16 -32 16 C-31 16 -30 15 -29 15 C-29 14 -30 13 -30 12 C-26 4.7 -18 3.3 -11 1 C-11 1.7 -10 2.3 -10 3 C-8.4 2.0 -8.4 2.0 -6.7 0.9 C-3.4 -1.1 -3.4 -1.1 0 0 Z " fill="#AE7C1C" transform="translate(1037,400)"/><path d="M0 0 C0.7 0 1.3 0 2 0 C2.7 2.5 3.4 4.9 4.1 7.4 C4.3 8.1 4.5 8.8 4.7 9.5 C6.1 15 6.1 15 5 17 C4.3 21 5.4 24 7.5 28 C10 33 11 37 10 42 C9.3 43 8.7 43 8 44 C8.0 43 8.0 43 8.0 42 C7.7 35 4.8 28 1.6 22 C-1.6 14 -1.5 7.7 0 0 Z " fill="#AA7E24" transform="translate(889,451)"/><path d="M0 0 C0.7 0.3 1.3 0.7 2 1 C-4.7 4.9 -11 8.7 -18 12 C-19 13 -20 13 -21 14 C-23 15 -23 15 -25 15 C-25 16 -26 17 -26 18 C-28 19 -31 20 -33 21 C-34 21 -34 22 -35 22 C-37 23 -38 23 -40 24 C-40 25 -40 25 -40 26 C-41 26 -41 26 -42 27 C-43 27 -43 27 -44 27 C-45 28 -46 28 -47 28 C-49 29 -49 29 -50 31 C-52 32 -52 32 -54 33 C-55 33 -55 33 -56 34 C-58 34 -58 34 -61 33 C-60 33 -60 32 -59 32 C-49 26 -39 21 -28 15 C-25 14 -23 12 -20 11 C-17 9.0 -14 7.2 -10 5.4 C-9.0 4.7 -7.6 3.9 -6.2 3.2 C-5.6 2.8 -5.0 2.5 -4.4 2.1 C-3.0 1.4 -1.5 0.7 0 0 Z " fill="#9E7B33" transform="translate(1061,378)"/><path d="M0 0 C-0.3 1.3 -0.7 2.6 -1 4 C-2.1 4.1 -2.1 4.1 -3.2 4.2 C-14 5.6 -23 9.9 -31 18 C-32 19 -34 20 -35 21 C-42 27 -47 34 -50 42 C-51 42 -51 42 -52 42 C-51 31 -40 21 -32 14 C-23 7.8 -11 0 0 0 Z " fill="#A27F36" transform="translate(887,349)"/><path d="M0 0 C0.7 0.3 1.3 0.7 2 1 C1.6 2.1 1.2 3.3 0.8 4.4 C-0.3 7.6 -1.2 11 -2.1 14 C-6.4 30 -14 42 -27 52 C-28 53 -30 53 -31 54 C-31 53 -31 52 -31 51 C-29 50 -28 50 -26 49 C-26 48 -26 48 -26 47 C-25 47 -25 47 -24 47 C-24 46 -24 46 -24 45 C-23 45 -23 45 -22 45 C-22 44 -22 44 -22 43 C-21 43 -21 43 -20 43 C-20 42 -20 42 -20 41 C-19 41 -19 41 -18 41 C-18 40 -18 40 -18 39 C-17 39 -17 39 -16 39 C-16 38 -16 38 -15 37 C-14 34 -13 32 -11 30 C-6.6 24 -5.0 16 -3 8 C-1.2 1.2 -1.2 1.2 0 0 Z " fill="#F8EECC" transform="translate(1075,234)"/><path d="M0 0 C-0.9 0.5 -1.8 1.1 -2.7 1.7 C-16 9.7 -26 19 -31 34 C-32 39 -32 43 -33 48 C-35 46 -35 46 -35 44 C-35 43 -35 42 -35 42 C-35 41 -35 40 -35 39 C-35 37 -35 37 -33 34 C-32 32 -32 32 -32 30 C-31 28 -31 28 -31 26 C-30 26 -30 26 -29 26 C-29 24 -29 23 -29 21 C-28 21 -28 21 -27 21 C-27 20 -27 20 -27 19 C-26 19 -26 19 -25 19 C-25 18 -25 17 -25 16 C-24 16 -24 15 -23 15 C-23 14 -22 13 -22 12 C-21 12 -21 12 -20 12 C-20 11 -20 11 -20 10 C-19 10 -19 10 -18 10 C-18 9.3 -18 8.7 -18 8 C-17 7.6 -16 7.1 -15 6.7 C-12 5.3 -12 5.3 -11 2 C-9.0 1.0 -9.0 1.0 -6.6 0.2 C-5.4 -0.1 -5.4 -0.1 -4.1 -0.5 C-2 -1 -2 -1 0 0 Z " fill="#A27D35" transform="translate(996,115)"/><path d="M0 0 C0.7 0.3 1.3 0.7 2 1 C1.0 2.5 1.0 2.5 0 4 C0 5.3 0 6.6 0 8 C-2.0 8.3 -4.0 8.7 -6 9 C-6 9.7 -6 10 -6 11 C-7.0 11 -8.0 11 -9 11 C-9 12 -9 12 -9 13 C-14 16 -18 18 -24 18 C-20 12 -17 10.0 -10 8 C-10 7.3 -10 6.7 -10 6 C-7.9 4.5 -7.9 4.5 -5.1 2.8 C-4.2 2.3 -3.3 1.7 -2.4 1.1 C-1.6 0.8 -0.8 0.4 0 0 Z " fill="#B1801E" transform="translate(965,316)"/><path d="M0 0 C0.7 1.8 0.7 1.8 1 4 C-0.4 5.5 -0.4 5.5 -2 7 C-2.7 9.1 -2.7 9.1 -3 11 C-3.7 11 -4.3 11 -5 11 C-5.1 12 -5.3 13 -5.4 13 C-5.6 14 -5.8 15 -5.9 16 C-6.1 17 -6.3 18 -6.5 19 C-7 22 -7 22 -8 23 C-10.0 35 -9.5 48 -8.0 60 C-8 62 -8 62 -10 65 C-13 41 -14 20 0 0 Z " fill="#A7833C" transform="translate(966,127)"/><path d="M0 0 C8.9 0 18 0 27 0 C27 0.3 27 0.7 27 1 C26 1.0 25 1.1 24 1.1 C23 1.2 21 1.3 20 1.4 C19 1.4 17 1.5 16 1.6 C15 1.7 14 1.9 13 2 C13 2.7 12 3.3 12 4 C20 4 28 4 36 4 C32 5.9 31 6.3 27 6.3 C26 6.3 26 6.3 24 6.3 C23 6.3 22 6.3 21 6.2 C20 6.3 19 6.3 18 6.3 C12 6.3 6.9 5.5 1 4 C0.7 2.7 0.3 1.4 0 0 Z " fill="#A17C36" transform="translate(1071,509)"/><path d="M0 0 C6.9 3.1 12 7.1 18 12 C19 13 19 13 20 14 C30 23 38 36 41 49 C41 52 41 52 41 54 C39 52 38 50 37 47 C36 43 35 41 33 38 C33 37 33 36 32 34 C31 32 31 32 29 31 C28 29 28 28 27 26 C24 20 20 16 14 12 C14 11 14 11 14 10 C13 9.7 13 9.4 12 9.2 C10.0 8.0 7.6 6.8 5.3 5.6 C4.5 5.2 3.7 4.7 2.9 4.3 C1 3 1 3 0 0 Z " fill="#9D7C37" transform="translate(1178,355)"/><path d="M0 0 C1.3 3.6 0.7 6.0 -0.4 9.7 C-0.7 11 -0.9 12 -1.2 13 C-2 15 -2 15 -3 16 C-4.8 23 -5.3 29 -5.4 36 C-5.4 37 -5.5 38 -5.5 39 C-5.5 42 -5.6 45 -5.6 48 C-5.7 50 -5.7 52 -5.7 54 C-5.8 58 -5.9 63 -6 68 C-6.3 68 -6.7 68 -7 68 C-7.4 61 -7.7 55 -8 48 C-8.0 47 -8.1 46 -8.1 45 C-8.7 29 -6.8 15 0 0 Z " fill="#ECDEBA" transform="translate(841,397)"/><path d="M0 0 C3.1 2.5 3.9 5.1 4.9 8.9 C5.3 10 5.6 11 5.9 12 C6.3 14 6.6 15 7 16 C8.1 19 9.2 23 10 26 C11 29 11 31 11 34 C8 32 8 32 7.5 30 C7.3 28 7.2 26 7 24 C6.3 24 5.7 24 5 24 C1.3 16 -0.8 9.0 0 0 Z " fill="#B48528" transform="translate(1155,531)"/><path d="M0 0 C0.5 1.5 0.5 1.5 1 3 C-2.5 8.7 -7.7 12 -13 16 C-14 16 -14 17 -15 17 C-15 18 -15 18 -15 19 C-18 21 -22 22 -25 24 C-34 27 -42 31 -49 35 C-52 36 -53 36 -55 35 C-54 35 -54 34 -53 34 C-42 29 -31 24 -21 18 C-20 17 -19 17 -18 16 C-11 12 -3.2 7.6 0 0 Z " fill="#A17E35" transform="translate(972,305)"/><path d="M0 0 C3.1 1.4 5.0 2.9 7.3 5.3 C17 15 27 18 41 18 C47 18 54 17 60 15 C56 19 51 20 46 21 C29 22 19 18 5.9 7.2 C5.3 6.8 4.7 6.3 4.1 5.8 C2.7 4.6 1.3 3.3 0 2 C0 1.3 0 0.7 0 0 Z " fill="#A2813C" transform="translate(985,281)"/><path d="M0 0 C1.6 0 3.3 0 5 0 C4.7 0.7 4.3 1.3 4 2 C3.0 2.3 2.0 2.7 1 3 C0.1 4.9 0.1 4.9 -0.5 7.2 C-0.7 8.0 -1.0 8.9 -1.2 9.8 C-1.4 11 -1.7 12 -1.9 12 C-3.3 18 -4.7 23 -7.1 27 C-9.9 33 -9.7 39 -9.8 46 C-9.8 47 -9.8 48 -9.8 49 C-9.9 52 -10.0 55 -10 58 C-10 58 -11 58 -11 58 C-12 53 -12 49 -12 44 C-12 43 -12 42 -12 41 C-12 36 -12 30 -10 25 C-9.0 25 -8.0 24 -7 24 C-7 22 -7 19 -7 17 C-6.0 17 -5.0 16 -4 16 C-3.9 15 -3.8 14 -3.7 12 C-3.1 8.0 -1.7 4.2 0 0 Z " fill="#A17D35" transform="translate(1082,239)"/><path d="M0 0 C4.4 0.8 8.7 2.0 13 3.4 C14 3.6 14 3.8 15 4.0 C19 5.3 23 6.7 27 9 C28 12 28 12 27 14 C27 14 27 15 26 16 C25 18 24 21 23 23 C21 28 19 32 16 36 C16 37 15 37 15 38 C14 40 13 42 12 44 C12 43 11 43 11 42 C12 40 13 38 14 36 C14 35 15 34 15 34 C16 32 17 30 18 28 C19 26 20 24 21 21 C21 20 22 19 23 18 C24 15 25 13 26 10 C25 9.9 25 9.7 24 9.6 C19 8.6 15 7.1 11 5.6 C9.8 5.2 8.9 4.9 8.0 4.6 C7.1 4.3 6.2 4.0 5.3 3.7 C4.5 3.4 3.7 3.1 2.9 2.9 C1 2 1 2 0 0 Z " fill="#A17F39" transform="translate(986,429)"/><path d="M0 0 C2.4 1 2.4 1 3.8 3.6 C4.1 4.8 4.1 4.8 4.4 6 C3.4 6.5 3.4 6.5 2.4 7 C2.1 5.7 1.8 4.4 1.4 3 C-0.2 3.3 -1.9 3.7 -3.6 4 C-3.9 5.7 -4.2 7.3 -4.6 9 C-5.2 9 -5.9 9 -6.6 9 C-6.7 11 -6.7 11 -6.9 13 C-7.4 18 -8.1 23 -8.9 28 C-9.1 29 -9.1 29 -9.3 30 C-10 36 -12 40 -14 45 C-14 45 -15 45 -16 45 C-16 46 -16 47 -17 48 C-17 48 -18 47 -19 47 C-18 46 -18 46 -18 45 C-14 38 -12 32 -11 24 C-6.9 0 -6.9 0 0 0 Z " fill="#A3813B" transform="translate(1157.5625,440)"/><path d="M0 0 C0.3 0 0.7 0 1 0 C1.3 5.9 1.7 12 2 18 C4.5 19 4.5 19 7 20 C7.7 33 6.0 44 1 56 C-1.3 56 -3.6 56 -6 56 C-6 56 -6 55 -6 55 C-5.2 55 -4.5 55 -3.7 55 C-0.7 54 -0.7 54 0.6 51 C2.0 47 2.8 42 3.7 38 C3.8 37 4.0 37 4.1 36 C4.9 32 5.4 27 5 23 C4.0 22 3.0 22 2 21 C-1 19 -1 19 -1.4 16 C-1.4 11 -1.0 5.4 0 0 Z " fill="#A6833E" transform="translate(1084,178)"/><path d="M0 0 C1.0 3.2 0.9 5.1 0.1 8.4 C-1.8 18 -1.2 28 -1.1 37 C-1.1 39 -1.1 41 -1.1 43 C-1.1 48 -1.0 53 -1 58 C-1.3 58 -1.7 58 -2 58 C-2.1 57 -2.1 56 -2.2 56 C-2.3 55 -2.4 54 -2.4 53 C-2.5 52 -2.6 51 -2.7 50 C-2.7 47 -2.7 47 -4 46 C-4.3 41 -4.3 37 -4.3 32 C-4.3 31 -4.3 31 -4.3 30 C-4.4 19 -3.5 9.9 0 0 Z " fill="#F7ECCC" transform="translate(827,405)"/><path d="M0 0 C3.3 1.8 4.9 2.8 7 6 C7.3 8.6 7.4 11 7.4 14 C7.4 14 7.4 15 7.4 16 C7.2 26 5.1 36 0 45 C-1.0 46 -2.0 46 -3 47 C-3.5 46 -3.5 46 -4 44 C-3.0 44 -2.0 44 -1 44 C-0.9 43 -0.8 43 -0.6 42 C0.1 38 1.1 35 2 31 C2.7 31 3.3 31 4 31 C4.1 27 4.2 23 4.2 19 C4.3 18 4.3 16 4.4 15 C4.4 14 4.4 14 4.4 12 C4.4 11 4.4 9.8 4.5 8.7 C3.9 5.3 2.5 4.3 0 2 C0 1.3 0 0.7 0 0 Z " fill="#A6823B" transform="translate(1090,192)"/><path d="M0 0 C1.7 0.3 3.3 0.6 5 1 C5.3 3.6 5.7 6.3 6 9 C4.3 8.7 2.7 8.3 1 8 C0.8 8.9 0.6 9.9 0.4 11 C0.2 12 -0.1 13 -0.4 14 C-0.6 16 -0.9 17 -1.1 18 C-1.4 19 -1.7 20 -2 21 C-2.7 21 -3.3 22 -4 22 C-4.0 21 -4.0 20 -3.9 19 C-3.8 15 -3.8 15 -5 12 C-4.6 8.7 -4.4 7.4 -2 5 C-1.6 3.7 -1.3 2.3 -1 1 C-0.7 0.7 -0.3 0.3 0 0 Z " fill="#AF7E1F" transform="translate(1155,442)"/><path d="M0 0 C2.4 0.9 2.4 0.9 3.8 3 C4.1 4.0 4.1 4.0 4.4 4.9 C3.8 4.9 3.1 4.9 2.4 4.9 C2.1 4.3 1.8 3.6 1.4 2.9 C-0.2 3.3 -1.9 3.6 -3.6 3.9 C-3.6 5.3 -3.6 6.6 -3.6 7.9 C-2.2 7.9 -0.9 7.9 0.4 7.9 C1.0 10 1.5 12 2 14 C2.3 15 2.6 17 2.9 18 C3.4 21 3.4 21 2.4 24 C1.9 22 1.4 21 0.9 19 C0.7 18 0.4 17 0.1 16 C-0.6 14 -0.6 14 -0.6 11 C-1.2 11 -1.9 11 -2.6 11 C-2.9 15 -3.2 19 -3.6 23 C-5.7 19 -5.9 16 -5.9 11 C-5.9 10 -5.9 9.4 -5.9 8.7 C-5.9 3.5 -5.9 3.5 -4.2 0.9 C-2.6 -0.1 -2.6 -0.1 0 0 Z " fill="#BD9A51" transform="translate(891.5625,440.0625)"/><path d="M0 0 C0.7 0 1.3 0 2 0 C3.3 5.3 4.7 11 6 16 C6.2 17 6.4 17 6.6 18 C7.3 21 6.9 25 6.6 28 C6.6 29 6.5 30 6.5 31 C6.2 35 5.8 38 5 42 C4.9 44 4.8 45 4.8 47 C4.7 48 4.7 49 4.7 50 C5.1 52 5.9 53 8 55 C7.7 56 7.3 57 7 58 C4.6 56 3.4 56 2 53 C1.8 49 2.4 45 3 41 C5.0 28 4.1 17 1 5 C0.7 3.3 0.3 1.7 0 0 Z " fill="#FBF2D4" transform="translate(1088,139)"/><path d="M0 0 C0 3 0 3 -1.4 4.8 C-8.1 11 -15 17 -23 22 C-24 23 -25 24 -26 24 C-29 27 -31 29 -35 30 C-36 30 -36 29 -37 29 C-36 28 -35 28 -34 27 C-22 19 -11 10.0 0 0 Z " fill="#FAF2D6" transform="translate(999,546)"/><path d="M0 0 C0.3 0 0.7 0 1 0 C1.3 2.3 1.7 4.6 2 7 C2.7 6.7 3.3 6.3 4 6 C4.1 8.9 4.2 12 4.2 15 C4.3 16 4.3 16 4.4 17 C4.4 21 4.4 23 2.0 27 C1.3 28 0.7 28 0 29 C0 28 0 27 0 26 C-0.3 25 -0.3 25 -0.5 24 C-1.1 22 -1.0 19 -0.9 17 C-0.8 16 -0.8 15 -0.7 14 C-0.7 13 -0.6 12 -0.6 11 C-0.5 9.7 -0.5 8.7 -0.4 7.6 C-0.3 5.1 -0.1 2.5 0 0 Z " fill="#B27F1D" transform="translate(977,275)"/><path d="M0 0 C0.7 0 1.3 0 2 0 C2.7 2.4 3.3 4.8 4 7.2 C4.2 7.9 4.4 8.6 4.6 9.3 C5.5 13 6 15 6 19 C6.7 19 7.3 19 8 19 C7.9 22 7.8 26 7.6 29 C7.6 30 7.6 31 7.5 32 C7.5 33 7.5 33 7.4 34 C7.4 35 7.4 36 7.3 37 C7.0 39 6.2 41 5 43 C5.0 42 5.0 42 5.0 41 C4.7 27 3.2 14 0 0 Z " fill="#FCF6DF" transform="translate(1218,402)"/><path d="M0 0 C0.3 0 0.7 0 1 0 C1.1 6.8 1.1 6.8 0 9 C-0.2 11 -0.4 13 -0.5 16 C-0.9 22 -0.9 22 -2 24 C-2.2 27 -2.2 27 -2 30 C-1.7 30 -1.3 31 -1 31 C-0.8 33 -0.8 33 -0.8 35 C-0.8 36 -0.8 37 -0.8 38 C-1 40 -1 40 -3 43 C-5.4 29 -4.6 14 0 0 Z " fill="#FBF4DC" transform="translate(966,144)"/><path d="M0 0 C3.5 0.2 3.5 0.2 5.5 1.2 C9.0 12 7.0 24 2.8 34 C1.5 36 1.5 36 -0.5 37 C-0.3 36 -0.1 36 0.1 35 C0.6 33 1.2 31 1.7 29 C2.2 27 2.6 26 3.1 24 C5.0 18 5.1 12 4.5 5.2 C3.8 4.2 3.2 3.2 2.5 2.2 C-1.2 2.5 -2.3 2.9 -4.8 5.8 C-5.4 6.6 -5.9 7.4 -6.5 8.2 C-5.5 0.3 -5.5 0.3 0 0 Z " fill="#F2E4C1" transform="translate(1156.5,438.8125)"/><path d="M0 0 C0.7 0 1.3 0 2 0 C2.9 23 2.9 23 -3.4 32 C-4.8 33 -4.8 33 -7 35 C-6.5 32 -6.5 32 -6 29 C-5.3 29 -4.7 29 -4 29 C-3.9 28 -3.8 28 -3.6 27 C-3 24 -3 24 -2 21 C-0.7 17 -0.5 13 -0.4 8.6 C-0.3 7.8 -0.3 7.0 -0.3 6.1 C-0.2 4.1 -0.1 2.0 0 0 Z " fill="#A17C33" transform="translate(981,281)"/><path d="M0 0 C1.0 3.4 0.9 5.6 0 9 C-0.7 9 -1.3 9 -2 9 C-2.3 11 -2.7 12 -3 14 C-4.0 14 -5.0 15 -6 15 C-5.9 16 -5.9 17 -5.8 17 C-6 20 -6 20 -7.4 22 C-9 23 -9 23 -11 23 C-12 25 -12 27 -13 29 C-14 29 -14 29 -15 29 C-14 25 -12 22 -10.0 18 C-9.1 17 -9.1 17 -8.2 15 C-7.3 13 -7.3 13 -6.4 12 C-5.5 10 -5.5 10 -4.5 8.3 C-3.0 5.5 -1.5 2.8 0 0 Z " fill="#A67F33" transform="translate(995,474)"/><path d="M0 0 C0.3 0 0.7 0 1 0 C1 6.6 1 13 1 20 C1.7 20 2.3 20 3 20 C4.4 26 5.8 33 7 39 C7.7 39 8.3 39 9 39 C9 42 9 45 9 48 C6.7 46 6.4 44 5.5 41 C5.3 40 5.0 39 4.7 39 C4.5 38 4.2 37 3.9 36 C3.4 34 2.9 32 2.3 30 C2.1 29 1.9 28 1.6 27 C1.1 25 0.6 24 0 22 C-0.1 20 -0.1 19 -0.1 17 C-0.1 16 -0.1 15 -0.1 14 C-0.1 13 -0.1 12 -0.1 11 C-0.1 9.8 -0.1 8.7 -0.0 7.7 C-0.0 5.1 -0.0 2.6 0 0 Z " fill="#F0E1BF" transform="translate(1222,445)"/><path d="M0 0 C2.0 1.0 2.0 1.0 4 3 C4.5 5.9 4.4 8.8 4.2 12 C4.2 12 4.2 13 4.2 14 C4.1 16 4.1 18 4 20 C3.7 20 3.3 20 3 20 C2.7 18 2.3 17 2 15 C1.7 16 1.3 16 1 17 C0.3 17 -0.3 17 -1 17 C-1.0 14 -1.0 12 -1.1 9.1 C-1.1 8.3 -1.1 7.6 -1.1 6.8 C-1.1 4.9 -1.1 2.9 -1 1 C-0.7 0.7 -0.3 0.3 0 0 Z " fill="#A9791C" transform="translate(958,158)"/><path d="M0 0 C1 3 1 3 0.4 5.4 C-1.3 8.6 -3.3 11 -6 13 C-6.7 13 -7.3 13 -8 13 C-8.1 14 -8.2 14 -8.2 15 C-9.2 18 -11 18 -13 20 C-13 21 -14 21 -14 22 C-15 24 -15 24 -18 25 C-18 25 -19 25 -20 25 C-19 24 -18 23 -18 22 C-15 19 -12 15 -8.9 12 C-8.0 11 -7.2 10.0 -6.4 9.0 C-4.0 6.1 -2.0 3.1 0 0 Z " fill="#AB873F" transform="translate(965,523)"/><path d="M0 0 C5.5 -0.3 9.5 0.3 15 2.2 C17 3.0 20 3.7 22 4.3 C27 5.9 32 8.5 36 12 C36 13 36 13 37 14 C34 13 30 11 27 9.6 C18 5.6 9.6 3.4 0 2 C0 1.3 0 0.7 0 0 Z " fill="#A6823A" transform="translate(1145,353)"/><path d="M0 0 C4.1 0.2 7.5 1.3 11 2.7 C12 2.9 13 3.2 13 3.4 C15 4.0 17 4.6 18 5.2 C18 5.8 18 6.5 18 7.2 C19 7.5 20 7.8 21 8.2 C21 8.5 20 8.8 19 9.2 C17 8.5 17 8.5 15 7.4 C6.5 3.7 -1.1 2.8 -10 2.6 C-12 2.5 -12 2.5 -13 2.4 C-16 2.4 -18 2.3 -21 2.2 C-21 1.9 -21 1.5 -21 1.2 C-18 1.0 -15 0.9 -12 0.7 C-11 0.6 -11 0.6 -10 0.5 C-6.8 0.3 -3.4 0.2 0 0 Z " fill="#AB8A49" transform="translate(1035.5625,108.8125)"/><path d="M0 0 C2.7 2.5 3.9 4.3 4.1 8.0 C4.1 10 4.0 12 4 14 C4.7 14 5.3 14 6 14 C6.7 17 7.3 20 8 23 C8.2 24 8.4 25 8.6 26 C9.5 30 10 34 10 39 C8.0 35 7.1 32 6.1 28 C5.8 27 5.8 27 5.5 26 C5.2 25 4.8 23 4.4 22 C3.9 20 3.3 17 2.7 15 C2.4 14 2.0 12 1.7 11 C1.4 9.8 1.0 8.5 0.7 7.2 C0 4 0 4 0 0 Z " fill="#9B762D" transform="translate(901,520)"/><path d="M0 0 C1.0 0 2.0 0 3 0 C2.1 4.4 -0.2 7.6 -2.6 11 C-3.1 12 -3.5 13 -4.0 13 C-7.4 18 -11 23 -15 28 C-15 25 -14 23 -13 20 C-11 19 -11 19 -9 18 C-9 17 -9 16 -9 15 C-8.4 14 -7.7 14 -7.1 13 C-4.7 11 -4.4 9.3 -4 6 C-3.3 6 -2.7 6 -2 6 C-2 5.3 -2 4.7 -2 4 C-1.3 4 -0.7 4 0 4 C0 2.7 0 1.4 0 0 Z " fill="#A68136" transform="translate(1051,478)"/><path d="M0 0 C0.7 0 1.3 0 2 0 C1.0 2.6 -0.1 5.1 -1.2 7.7 C-6.4 19 -7.2 31 -8 43 C-8.3 43 -8.7 43 -9 43 C-9.3 29 -9.5 17 -3 4 C-2.3 4 -1.7 4 -1 4 C-0.7 2.7 -0.3 1.4 0 0 Z " fill="#FCF3D6" transform="translate(962,130)"/><path d="M0 0 C-11 5.2 -23 9.4 -35 11 C-35 10 -35 9.7 -35 9 C-34 8.7 -33 8.4 -32 8.2 C-31 7.8 -30 7.4 -29 7.1 C-27 6.5 -27 6.5 -25 6.0 C-22 5.1 -22 5.1 -20 4 C-18 3.6 -15 3.3 -13 3 C-11 2.7 -9.0 2.3 -7 2 C-7 1.3 -7 0.7 -7 0 C-4.0 -0.9 -3.1 -1.0 0 0 Z " fill="#F9F0D1" transform="translate(926,337)"/><path d="M0 0 C0.7 0.3 1.3 0.7 2 1 C1.5 1.6 1.0 2.2 0.5 2.8 C-3.7 8.4 -7.2 14 -10 20 C-11 21 -11 22 -11 22 C-13 26 -15 30 -16 34 C-18 29 -16 25 -14 21 C-12 17 -10.0 14 -7.8 10 C-6.0 7.2 -6.0 7.2 -4.9 4.7 C-3.7 2.4 -2.1 1.4 0 0 Z " fill="#FAF0D2" transform="translate(845,371)"/><path d="M0 0 C3.9 1.8 7.2 4.2 11 6.7 C16 9.5 21 9.2 26 9.2 C27 9.2 28 9.2 28 9.2 C34 9.2 38 8.4 43 7 C42 10 42 10 40 11 C36 11 32 11 28 11 C27 11 26 11 25 11 C18 11 13 10 6 7 C6 6.3 6 5.7 6 5 C5.2 4.7 4.4 4.5 3.6 4.2 C2.7 3.8 1.9 3.4 1 3 C0.7 2.0 0.3 1.0 0 0 Z " fill="#A6843B" transform="translate(997,284)"/><path d="M0 0 C1.3 0.6 2.7 1.3 4 2 C5.1 2.5 5.1 2.5 6.2 3.0 C10 5.9 13 9.8 16 14 C16 15 17 15 17 16 C23 24 23 24 24 28 C24 29 23 30 23 31 C23 30 22 29 22 28 C16 19 11 11 2.4 4 C1.6 3.3 0.8 2.7 0 2 C0 1.3 0 0.7 0 0 Z " fill="#A3803A" transform="translate(1183,367)"/><path d="M0 0 C0.3 0 0.7 0 1 0 C1.8 5.7 2.1 11 2 17 C1.0 17 0.0 18 -1 18 C-2.8 21 -3.3 23 -3.4 26 C-3.5 27 -3.5 28 -3.5 29 C-3.6 30 -3.6 30 -3.6 31 C-3.7 32 -3.7 33 -3.7 34 C-3.8 36 -3.9 38 -4 40 C-4.3 40 -4.7 40 -5 40 C-5 33 -5 27 -5 20 C-4.3 20 -3.7 20 -3 20 C-2.7 19 -2.3 17 -2 16 C-1.3 16 -0.7 16 0 16 C-0.3 15 -0.7 15 -1 14 C-0.9 12 -0.8 9.2 -0.6 6.9 C-0.5 5.6 -0.4 4.3 -0.3 3.0 C-0.1 1.5 -0.1 1.5 0 0 Z " fill="#F3E7C8" transform="translate(954,175)"/><path d="M0 0 C0.3 0 0.7 0 1 0 C1 15 1 30 1 46 C0.7 46 0.3 46 0 46 C0 44 0 41 0 39 C-0.7 39 -1.3 39 -2 39 C-1.9 34 -1.8 29 -1.6 24 C-1.6 23 -1.5 21 -1.5 19 C-1.4 17 -1.4 14 -1.3 12 C-1.3 11 -1.3 11 -1.3 9.8 C-1.2 6.4 -1.0 3.2 0 0 Z " fill="#9B7529" transform="translate(833,419)"/><path d="M0 0 C7.1 0.4 14 1.3 20 3.3 C24 4.3 28 4.7 32 5 C32 6.5 32 6.5 33 8 C26 7.3 20 6.0 14 4.6 C13 4.3 12 4.1 11 3.9 C9.7 3.7 8.8 3.5 7.8 3.3 C7.0 3.1 6.1 2.9 5.2 2.7 C3 2 3 2 0 0 Z " fill="#F4E8C5" transform="translate(1134,342)"/><path d="M0 0 C0.3 1.0 0.7 2.0 1 3 C-2.2 9.2 -7.7 14 -13 18 C-15 19 -16 21 -18 22 C-19 23 -20 24 -21 25 C-22 25 -22 24 -23 24 C-22 23 -21 23 -21 22 C-15 17 -9.0 11 -4 5 C-3.2 4.0 -2.4 3.0 -1.6 2 C-1.0 1.3 -0.5 0.7 0 0 Z " fill="#F7EDCD" transform="translate(1023,521)"/><path d="M0 0 C0.7 0 1.3 0 2 0 C2.8 13 -0.0 26 -3 39 C-3.3 39 -3.7 39 -4 39 C-4.3 34 -4.2 29 -2.6 24 C-0.2 16 -0.3 8.1 0 0 Z " fill="#F7ECCA" transform="translate(895,485)"/><path d="M0 0 C0.7 1.3 1.3 2.6 2 4 C2.7 4 3.3 4 4 4 C4.3 3.3 4.7 2.7 5 2 C6.6 3.6 6.6 3.6 8 6 C7.9 9.2 7.9 9.2 7.2 13 C6.9 15 6.9 15 6.5 16 C6.4 17 6.2 18 6 19 C3.4 16 2.9 14 1.9 11 C1.5 9.5 1.2 8.3 0.8 7.2 C0 4 0 4 0 0 Z " fill="#AC7C1E" transform="translate(1149,523)"/><path d="M0 0 C0.3 0 0.7 0 1 0 C1.0 2.6 1.0 5.2 1.1 7.8 C1.1 8.6 1.1 9.3 1.1 10 C1.1 13 1.0 16 0 19 C-0.7 19 -1.3 19 -2 19 C-2.1 20 -2.3 20 -2.4 21 C-2.6 22 -2.8 23 -2.9 24 C-3.1 25 -3.3 26 -3.5 27 C-4 29 -4 29 -5 31 C-5.7 31 -6.3 31 -7 31 C-6.6 29 -6.1 28 -5.7 26 C-5.4 25 -5.1 24 -4.9 22 C-4.3 20 -3.7 18 -3.2 16 C-1.8 11 -0.6 5.4 0 0 Z " fill="#A17C32" transform="translate(1144,496)"/><path d="M0 0 C4.5 -0.0 9.0 -0.0 13 -0.1 C15 -0.1 15 -0.1 17 -0.1 C36 -0.1 36 -0.1 44 4 C44 4.7 44 5.3 44 6 C43 5.7 42 5.4 41 5.1 C27 1.4 13 1.6 -1 2 C-0.7 1.3 -0.3 0.7 0 0 Z " fill="#F6E8C1" transform="translate(1009,102)"/><path d="M0 0 C1.0 0.3 2.0 0.7 3 1 C-6.9 7.7 -18 13 -30 12 C-30 12 -30 11 -30 11 C-29 11 -29 11 -28 11 C-26 10.0 -23 9.3 -21 8.7 C-20 8.5 -19 8.3 -18 8.0 C-13 6.8 -9.4 5.3 -5 3 C-4.0 3 -3.0 3 -2 3 C-2 2.3 -2 1.7 -2 1 C-1.3 0.7 -0.7 0.3 0 0 Z " fill="#F6ECCC" transform="translate(1127,496)"/><path d="M0 0 C0.6 0.3 1.1 0.6 1.7 0.9 C12 6.4 22 12 32 17 C31 18 31 18 30 19 C29 19 28 18 27 18 C27 17 27 17 27 16 C26 16 26 16 24 15 C21 14 18 13 15 11 C14 10 13 9.8 11 9.2 C11 8.8 9.8 8.4 9 8 C9 7.3 9 6.7 9 6 C6.4 5.3 3.7 4.7 1 4 C0.7 2.7 0.3 1.4 0 0 Z " fill="#A17F36" transform="translate(1086,317)"/><path d="M0 0 C-8.4 7.4 -18 12 -29 13 C-26 10.0 -23 10 -19 10 C-19 9.3 -19 8.7 -19 8 C-16 7.3 -14 6.7 -11 6 C-11 5.3 -11 4.7 -11 4 C-8.5 0.6 -4.0 -2.0 0 0 Z " fill="#9C7932" transform="translate(1139,500)"/><path d="M0 0 C0.3 0 0.7 0 1 0 C1.7 4.2 2.3 8.3 3 12 C3.2 14 3.4 15 3.6 16 C4.5 22 5.2 28 5 34 C4.7 34 4.3 34 4 34 C-2.1 9.9 -2.1 9.9 0 0 Z " fill="#F3E7C4" transform="translate(1224,509)"/><path d="M0 0 C-3.6 2.0 -7.2 4.0 -11 6 C-12 6.9 -12 6.9 -14 7.7 C-15 8.5 -15 8.5 -17 9.4 C-18 9.9 -19 10 -20 11 C-22 12 -22 12 -24 12 C-24 11 -24 11 -24 10 C-22 9.3 -20 8.7 -18 8 C-18 7.0 -19 6.0 -19 5 C-18 4.3 -16 3.7 -15 3 C-15 3.7 -15 4.3 -15 5 C-13 4.7 -12 4.3 -10 4 C-10 3.3 -10 2.7 -10 2 C-4.1 -1.3 -4.1 -1.3 0 0 Z " fill="#AE7C1C" transform="translate(1076,379)"/><path d="M0 0 C0.6 0.2 1.2 0.4 1.8 0.6 C2.5 0.9 3.3 1.2 4.1 1.4 C4.9 1.7 5.7 2.0 6.4 2.2 C16 5.1 27 4.6 37 3 C37 3.7 37 4.3 37 5 C33 7.1 28 6.3 23 6.3 C22 6.3 21 6.4 20 6.4 C12 6.5 6.6 5.3 0 2 C0 1.3 0 0.7 0 0 Z " fill="#F9F1D3" transform="translate(1002,297)"/><path d="M0 0 C0.6 0.2 1.2 0.4 1.8 0.6 C18 6.0 18 6.0 34 9 C34 9.3 34 9.7 34 10 C27 10 20 9.5 13 8 C13 7.3 13 6.7 13 6 C11 6 9.7 6 8 6 C8 5.3 8 4.7 8 4 C7.1 3.9 6.1 3.7 5.1 3.6 C2 3 2 3 0 2 C0 1.3 0 0.7 0 0 Z " fill="#F7EDCC" transform="translate(1123,347)"/><path d="M0 0 C1.2 3.6 0.7 4.2 -0.8 7.6 C-1.2 8.4 -1.6 9.3 -2.0 10 C-2.4 11 -2.8 12 -3.2 13 C-3.7 14 -4.1 15 -4.5 16 C-7.9 23 -7.9 23 -11 26 C-9.7 21 -8.3 16 -5.8 12 C-4.0 8.4 -3.6 5.9 -4 2 C-2.7 1.3 -1.4 0.7 0 0 Z " fill="#AF7E1B" transform="translate(1017,443)"/><path d="M0 0 C2.6 0.4 2.6 0.4 5 1 C5 1.7 5 2.3 5 3 C6.0 3 7.0 3 8 3 C7.7 5.3 7.3 7.6 7 10 C6.4 9.3 5.9 8.6 5.3 7.9 C4.5 7.3 3.8 6.7 3 6 C0.3 6.1 0.3 6.1 -2 7 C-2.1 4.6 -2.1 4.6 -2 2 C-1.3 1.3 -0.7 0.7 0 0 Z " fill="#B68729" transform="translate(889,442)"/><path d="M0 0 C0.3 0 0.7 0 1 0 C1.0 1.6 1.0 3.3 1.1 4.9 C1.1 5.9 1.1 6.8 1.1 7.7 C1 10 1 10 0 11 C-0.1 12 -0.2 14 -0.3 15 C-0.7 18 -0.9 19 -3.1 22 C-3.7 22 -4.3 22 -5 23 C-5.7 23 -6.3 22 -7 22 C-5.4 17 -3.7 12 -1.9 7.7 C-1.0 5.1 -0.5 2.7 0 0 Z " fill="#F4EACD" transform="translate(1080,248)"/><path d="M0 0 C11 4.9 18 10 23 22 C23 23 22 24 22 25 C20 21 20 21 20 19 C19 19 19 19 18 19 C18 18 17 17 17 16 C15 12 14 11 10 9 C9.3 8.0 8.7 7.0 8 6 C6.1 4.8 6.1 4.8 3.9 3.8 C3.2 3.5 2.4 3.1 1.7 2.8 C1.1 2.5 0.6 2.3 0 2 C0 1.3 0 0.7 0 0 Z " fill="#A17C33" transform="translate(1067,122)"/><path d="M0 0 C0.3 0.7 0.7 1.3 1 2 C1.7 2 2.3 2 3 2 C3.3 2.9 3.7 3.9 4.1 4.8 C4.5 6.0 5.0 7.2 5.4 8.4 C5.9 9.6 6.3 11 6.8 12 C7.7 15 7.7 15 9 16 C9.2 18 9.2 18 9.2 20 C9.2 21 9.2 22 9.2 23 C9 25 9 25 7 27 C7.0 26 7.0 26 7.0 25 C6.6 18 4.3 12 1.3 6.0 C0 3 0 3 0 0 Z " fill="#A68236" transform="translate(890,468)"/><path d="M0 0 C0.7 0.3 1.3 0.7 2 1 C2.5 3.7 2.8 6.3 3 9 C3.1 9.9 3.2 11 3.2 12 C3.4 14 3.4 16 3 19 C0.6 21 0.6 21 -2 22 C-2.8 25 -2.9 27 -3 30 C-3.3 30 -3.7 30 -4 30 C-4 26 -4 23 -4 19 C-2.4 19 -0.7 19 1 19 C0.7 13 0.3 6.5 0 0 Z " fill="#A98945" transform="translate(961,178)"/><path d="M0 0 C0.3 0 0.7 0 1 0 C1.0 0.8 1.0 1.5 1.0 2.3 C1.0 3.3 0.9 4.3 0.9 5.4 C0.9 6.4 0.9 7.4 0.9 8.4 C0.8 11 0.8 11 2 13 C1.7 14 1.3 14 1 15 C0.8 17 0.6 18 0.5 20 C0.1 25 0.1 25 -1 27 C-3.0 27 -5.0 27 -7 27 C-6.7 26 -6.3 26 -6 25 C-5.0 25 -4.0 26 -3 26 C-2.0 17 -1.0 8.8 0 0 Z " fill="#F1E5C3" transform="translate(819,533)"/><path d="M0 0 C0.7 0 1.3 0 2 0 C2 0.7 2 1.3 2 2 C2.7 2 3.3 2 4 2 C7.3 9.1 7.4 15 7.2 23 C7.2 24 7.2 25 7.1 27 C7.1 29 7.1 32 7 35 C6.7 35 6.3 35 6 35 C6.0 34 6.0 34 6.0 33 C5.7 19 5.7 19 2 5 C1.6 4.0 1.2 2.9 0.8 1.9 C0.4 0.9 0.4 0.9 0 0 Z " fill="#AB8742" transform="translate(1078,139)"/><path d="M0 0 C0.5 0.5 1.1 0.9 1.6 1.4 C-0.3 1.4 -2.3 1.4 -4.4 1.4 C-4.7 0.7 -5.0 0.0 -5.4 -0.6 C-13 -4.3 -21 -4.0 -29 -3.6 C-30 -4.3 -30 -5.0 -30 -5.6 C-21 -8.0 -8.3 -5.8 0 0 Z " fill="#F8EED2" transform="translate(1055.3515625,117.6328125)"/><path d="M0 0 C0.7 0.3 1.3 0.7 2 1 C1.7 1.7 1.3 2.3 1 3 C0.0 3 -1.0 3 -2 3 C-2 3.7 -2 4.3 -2 5 C-3.3 5 -4.6 5 -6 5 C-6 5.7 -6 6.3 -6 7 C-7.0 7 -8.0 7 -9 7 C-9 7.7 -9 8.3 -9 9 C-11 10.0 -11 10.0 -13 11 C-13 13 -12 14 -12 16 C-13 15 -15 15 -16 14 C-16 13 -16 11 -16 10 C-14 8.2 -12 6.8 -9.1 5.3 C-8.1 4.7 -8.1 4.7 -7.2 4.1 C-4.8 2.6 -2.5 1.2 0 0 Z " fill="#A37F38" transform="translate(997,413)"/><path d="M0 0 C0.3 0 0.7 0 1 0 C1.0 0.6 1.0 1.3 1.0 2.0 C1.1 4.9 1.2 7.9 1.3 11 C1.3 12 1.4 13 1.4 14 C1.6 20 2.4 25 4.5 31 C5.1 33 4.8 35 4 37 C1.1 31 -0.1 25 -0.1 18 C-0.1 17 -0.1 16 -0.1 15 C-0.1 14 -0.1 13 -0.1 12 C-0.1 11 -0.1 9.4 -0.0 8.2 C-0.0 5.5 -0.0 2.7 0 0 Z " fill="#F7EBC9" transform="translate(1072,271)"/><path d="M0 0 C-0.8 12 -0.8 12 -3 17 C-3.3 17 -3.7 17 -4 17 C-4.0 16 -4.0 15 -3.9 14 C-3.8 10 -3.8 10 -5 7 C-4.8 4.4 -4.8 4.4 -4 2 C-1 0 -1 0 0 0 Z " fill="#A8781B" transform="translate(1155,447)"/><path d="M0 0 C-1.2 0.7 -2.5 1.3 -3.8 1.9 C-4.4 2.3 -5.1 2.7 -5.9 3.0 C-9.3 4.6 -12 5.1 -16 5.1 C-17 5.1 -18 5.1 -18 5.1 C-19 5.1 -20 5.1 -21 5.1 C-22 5.1 -22 5.1 -23 5.0 C-25 5.0 -27 5.0 -29 5 C-29 4.7 -29 4.3 -29 4 C-26 3.7 -24 3.3 -21 3 C-20 2.9 -20 2.9 -19 2.7 C-15 2.1 -11 1.9 -6 2 C-6 1.3 -6 0.7 -6 0 C-3 -1 -3 -1 0 0 Z " fill="#FAF2D2" transform="translate(1044,289)"/><path d="M0 0 C2.6 0 5.3 0 8 0 C8 0.3 8 0.7 8 1 C7.0 1.3 6.0 1.6 5.0 1.8 C0.2 3.2 -4.5 4.7 -9.3 6.2 C-13 7.2 -16 8.2 -19 9 C-19 8.0 -19 7.0 -19 6 C-18 5.8 -17 5.6 -17 5.4 C-16 5.2 -15 4.9 -14 4.6 C-12 4.2 -12 4.2 -11 3.9 C-7.8 3.1 -7.8 3.1 -5 1 C-2.3 1.4 -2.3 1.4 0 2 C0 1.3 0 0.7 0 0 Z " fill="#FBF4D7" transform="translate(1007,101)"/><path d="M0 0 C0.3 0 0.7 0 1 0 C1.9 3.1 2.7 6.2 3.6 9.3 C3.9 11 3.9 11 4.3 12 C4.5 13 4.8 14 5.0 15 C5.2 15 5.4 16 5.7 17 C6 19 6 19 5 22 C4.7 21 4.4 21 4.1 20 C3.0 18 3.0 18 1 15 C0.3 13 0.3 13 -0.2 10 C-0.5 8.9 -0.5 8.9 -0.7 7.6 C-1.0 4.8 -0.7 2.7 0 0 Z " fill="#AB8944" transform="translate(904,503)"/><path d="M0 0 C1.0 0 2.0 0 3 0 C1.4 3.8 -1.0 6.3 -4 9 C-4.7 9 -5.3 9 -6 9 C-6 7.0 -6 5.0 -6 3 C-4.1 1.9 -4.1 1.9 -2 1 C-1.3 1.3 -0.7 1.7 0 2 C0 1.3 0 0.7 0 0 Z " fill="#AA8233" transform="translate(1009,533)"/><path d="M0 0 C0.3 0.7 0.7 1.3 1 2 C0.0 3.7 -1.0 5.4 -2 7 C-2.4 8.2 -2.4 8.2 -2.9 9.5 C-4.3 13 -6.5 15 -9 17 C-9.3 18 -9.7 19 -10 20 C-11 20 -12 19 -13 19 C-12 18 -12 17 -11 16 C-10 15 -9.6 14 -8.8 13 C-8.4 12 -8.0 12 -7.6 11 C-5.0 7.5 -2.5 3.7 0 0 Z " fill="#A38038" transform="translate(979,503)"/><path d="M0 0 C1.0 0 2.0 0 3 0 C3.7 2.0 4.3 4.0 5 6 C1.4 6 -2.3 6 -6 6 C-6.3 5.0 -6.7 4.0 -7 3 C-4.7 2.3 -2.4 1.7 0 1 C0 0.7 0 0.3 0 0 Z " fill="#B48528" transform="translate(1107,506)"/><path d="M0 0 C0 0.7 0 1.3 0 2 C-5.1 6.4 -10 9.0 -17 10 C-19 9.5 -19 9.5 -21 9 C-20 8.5 -19 8.0 -18 7.5 C-16 6.9 -15 6.3 -13 5.6 C-12 5.1 -12 5.1 -11 4.7 C-10 4.4 -9.5 4.0 -8.8 3.7 C-7.8 3.3 -7.8 3.3 -6.8 2.9 C-0.8 0 -0.8 0 0 0 Z " fill="#9A772E" transform="translate(1131,497)"/><path d="M0 0 C2.4 0.2 2.4 0.2 5 1 C7.5 4.5 7.6 8.6 8.1 13 C8.2 13 8.3 14 8.4 15 C8.6 17 8.8 18 9 20 C5.9 17 5.5 13 4.6 8.5 C3.7 4.9 3.1 2.3 0 0 Z " fill="#A37C2F" transform="translate(962,239)"/><path d="M0 0 C0.3 0 0.7 0 1 0 C2.9 11 2.9 11 0.8 15 C-0.3 16 -1.4 17 -2.6 18 C-5.0 21 -4.9 24 -5 27 C-5.3 27 -5.7 27 -6 27 C-6.1 25 -6.2 23 -6.3 22 C-6.4 21 -6.4 20 -6.5 19 C-6.2 17 -6.2 17 -6 16 C-4.8 15 -4.8 15 -3.5 15 C-2.7 14 -1.9 14 -1 13 C-0.2 9.8 -0.2 9.8 -0.2 6.3 C-0.1 5.1 -0.1 4.0 -0.0 2.7 C-0.0 1.8 -0.0 0.9 0 0 Z " fill="#FBF5DB" transform="translate(964,184)"/><path d="M0 0 C0.7 0.3 1.3 0.7 2 1 C-0.4 3.5 -2.5 5.7 -5.5 7.4 C-7.9 8.9 -9.0 10 -11 12 C-12 14 -12 14 -13 15 C-14 15 -14 15 -15 15 C-12 8.8 -6.2 2.8 0 0 Z " fill="#A17A30" transform="translate(982,113)"/><path d="M0 0 C2.4 3.6 2.3 6.4 2.2 11 C2.3 11 2.3 12 2.3 13 C2.3 18 2.3 18 0 20 C-1.7 13 -1.4 6.6 0 0 Z " fill="#B28B3C" transform="translate(1129,557)"/><path d="M0 0 C-2.4 1.5 -4.8 3.0 -7.2 4.4 C-7.9 4.9 -8.6 5.3 -9.3 5.7 C-10.0 6.1 -11 6.5 -11 6.9 C-12 7.3 -13 7.7 -13 8.1 C-15 9.0 -17 9.6 -19 10 C-19 9.3 -19 8.7 -19 8 C-18 8 -17 8 -16 8 C-16 7.3 -16 6.7 -16 6 C-15 6 -14 6 -13 6 C-13 5.3 -13 4.7 -13 4 C-11 3.1 -9.8 2.3 -8.2 1.4 C-7.3 1.0 -6.4 0.5 -5.5 -0.0 C-3 -1 -3 -1 0 0 Z " fill="#F7ECCB" transform="translate(962,317)"/><path d="M0 0 C0.7 0.3 1.3 0.7 2 1 C1.9 3.8 1.8 6.7 1.6 9.5 C1.6 10 1.6 11 1.5 12 C1.3 17 0.6 22 -1 27 C-2.0 28 -3.0 28 -4 29 C-3.7 28 -3.7 28 -3.4 27 C-0.6 18 -0.3 9.3 0 0 Z " fill="#F3E0B5" transform="translate(983,281)"/><path d="M0 0 C2.9 2.9 3.9 4.1 4.1 8.0 C4.1 10 4.0 12 4 14 C3.3 14 2.7 13 2 13 C2 12 2 12 2 11 C1.3 11 0.7 11 0 11 C0 7.4 0 3.7 0 0 Z " fill="#B17F1C" transform="translate(1155,531)"/><path d="M0 0 C1.6 -0.0 3.2 -0.0 4.9 -0.1 C5.8 -0.1 6.7 -0.1 7.6 -0.1 C10 0 10 0 12 1 C12 2.0 12 3.0 12 4 C8.2 5.8 5.2 6.2 1 6 C3.1 3.9 4.1 3.6 7 3 C3.5 2.3 3.5 2.3 0 2 C0 1.3 0 0.7 0 0 Z " fill="#A88847" transform="translate(945,508)"/><path d="M0 0 C0.9 0.0 1.8 0.0 2.8 0.0 C3.5 0.0 4.2 0.1 4.9 0.1 C4.9 1.4 4.9 2.7 4.9 4.1 C0.2 6.2 0.2 6.2 -3.1 5.1 C-3.5 4.1 -3.8 3.1 -4.1 2.1 C-5.1 1.7 -6.1 1.4 -7.1 1.1 C-4.6 -0.2 -2.8 -0.0 0 0 Z " fill="#B68932" transform="translate(938.125,506.9375)"/><path d="M0 0 C2.4 4.8 -1.0 12 -2.6 17 C-3.1 18 -3.5 20 -4 21 C-4.7 21 -5.3 20 -6 20 C-5.6 18 -5.1 15 -4.7 13 C-4.6 12 -4.5 11 -4.3 11 C-3.5 6.6 -2.4 3.5 0 0 Z " fill="#A68137" transform="translate(1077,234)"/><path d="M0 0 C0.7 0.3 1.3 0.7 2 1 C0.3 2.5 -1.5 4.0 -3.2 5.4 C-4.2 6.3 -5.2 7.1 -6.2 7.9 C-8.7 9.7 -10 11 -13 11 C-13 10 -13 9.0 -13 8 C-12 8 -10 8 -9 8 C-9 6.7 -9 5.4 -9 4 C-8.4 3.9 -7.8 3.8 -7.2 3.6 C-4.6 2.9 -2.0 2.0 0 0 Z " fill="#AA8338" transform="translate(984,557)"/><path d="M0 0 C0 3.6 -0.5 3.9 -2.9 6.4 C-5.1 8.8 -6.6 11 -8 14 C-7.3 14 -6.7 15 -6 15 C-7.3 15 -8.6 16 -10 16 C-10 15 -10 15 -10 14 C-11 14 -12 13 -13 13 C-11 12 -9.7 12 -8 11 C-8.3 10 -8.7 9.0 -9 8 C-8.4 7.5 -7.9 7.0 -7.3 6.5 C-6.6 5.9 -5.8 5.2 -5.1 4.6 C-4.3 3.9 -3.6 3.3 -2.8 2.6 C-1.9 1.8 -0.9 0.9 0 0 Z " fill="#A67C29" transform="translate(1139,488)"/><path d="M0 0 C1.0 0.3 2.0 0.7 3 1 C1.5 3.3 0.1 5.6 -1.4 7.9 C-1.8 8.5 -2.2 9.2 -2.6 9.8 C-4.3 12 -5.8 15 -8 17 C-7.7 15 -7.3 12 -7 10 C-6.3 10 -5.7 10 -5 10 C-5 8.7 -5 7.4 -5 6 C-4.0 6 -3.0 6 -2 6 C-2 4.7 -2 3.4 -2 2 C-1.3 2 -0.7 2 0 2 C0 1.3 0 0.7 0 0 Z " fill="#A58137" transform="translate(850,378)"/><path d="M0 0 C5.4 0.5 9.2 1.9 14 4.6 C15 5.2 16 5.8 17 6.5 C18 7.0 19 7.5 20 8 C17 9.2 16 8.9 13 7.3 C12 7.0 11 6.6 11 6.2 C9.9 5.9 9.1 5.5 8.3 5.1 C7.5 4.7 6.7 4.3 5.9 3.9 C3.9 2.9 2.0 2.0 0 1 C0 0.7 0 0.3 0 0 Z " fill="#A3813C" transform="translate(1110,340)"/><path d="M0 0 C0.3 0 0.7 0 1 0 C1.1 0.8 1.1 1.6 1.2 2.4 C1.3 3.4 1.4 4.4 1.4 5.4 C1.5 6.4 1.6 7.5 1.7 8.5 C1.7 11 1.7 11 3 12 C3.2 14 3.2 14 3.2 16 C3.2 17 3.2 18 3.2 19 C3 21 3 21 1 24 C-0.3 16 -0.1 8.1 0 0 Z " fill="#E8D9B5" transform="translate(962,163)"/><path d="M0 0 C0.3 0.7 0.7 1.3 1 2 C-0.2 4.4 -1.4 6.6 -2.7 8.9 C-3.0 9.5 -3.4 10 -3.8 11 C-5.8 14 -7.9 17 -11 20 C-9.2 14 -7.4 9.2 -3 5 C-2.0 3.4 -1.0 1.7 0 0 Z " fill="#A67617" transform="translate(994,491)"/><path d="M0 0 C0.7 0.7 1.3 1.3 2 2 C-2.5 9.4 -2.5 9.4 -7 17 C-8 14 -8 14 -6.6 11 C-6.0 9.9 -5.5 9.0 -5 8 C-4.3 8 -3.7 8 -3 8 C-2.8 6.9 -2.8 6.9 -2.6 5.7 C-2 3 -2 3 0 0 Z " fill="#F6ECCD" transform="translate(986,487)"/><path d="M0 0 C0.3 0 0.7 0 1 0 C1.0 1.2 1.1 2.4 1.1 3.6 C1.5 12 2.0 20 4 28 C1.4 26 0.1 25 -0.5 21 C-0.4 20 -0.4 19 -0.4 18 C-0.4 17 -0.4 16 -0.4 15 C-0.3 14 -0.3 13 -0.2 12 C-0.2 11 -0.2 9.5 -0.2 8.3 C-0.1 5.6 -0.1 2.8 0 0 Z " fill="#E7D7AF" transform="translate(1213,450)"/><path d="M0 0 C-0.3 1.0 -0.7 2.0 -1 3 C-1.7 2.7 -2.3 2.3 -3 2 C-5.0 2.7 -5.0 2.7 -7.1 3.9 C-7.8 4.2 -8.5 4.6 -9.2 5.0 C-11 5.9 -11 5.9 -12 7 C-14 7.0 -15 7.0 -17 7 C-14 4.9 -11 3.0 -8.5 1.2 C-7.7 0.8 -7.0 0.4 -6.2 -0.1 C-3.7 -1.1 -2.5 -1.0 0 0 Z " fill="#A3813F" transform="translate(1081,370)"/><path d="M0 0 C6.8 0.5 13 2.5 19 5 C12 7.3 6.1 4.0 0 1 C0 0.7 0 0.3 0 0 Z " fill="#9E792D" transform="translate(1155,348)"/><path d="M0 0 C-7.9 4.0 -7.9 4.0 -16 8 C-16 7.3 -17 6.7 -17 6 C-16 6 -15 6 -14 6 C-14 5.0 -13 4.0 -13 3 C-12 3 -10 3 -9 3 C-9 2.3 -9 1.7 -9 1 C-3.4 -1.1 -3.4 -1.1 0 0 Z " fill="#F7EECF" transform="translate(943,328)"/><path d="M0 0 C0.3 0 0.7 0 1 0 C1.0 1.3 0.9 2.5 0.9 3.8 C0.9 5.5 0.8 7.2 0.8 8.8 C0.8 9.6 0.8 10 0.7 11 C0.7 12 0.7 13 0.7 14 C0.7 15 0.7 15 0.7 16 C1.1 19 2.1 19 4 21 C3.7 22 3.3 23 3 24 C0.6 22 -0.6 22 -2 19 C-2.2 15 -1.6 11 -1 7 C-0.8 5.8 -0.8 5.8 -0.7 4.7 C-0.5 3.1 -0.2 1.6 0 0 Z " fill="#F1E2BC" transform="translate(1092,173)"/><path d="M0 0 C0.3 0 0.7 0 1 0 C0.6 6.8 -0.6 13 -3 19 C-3.7 19 -4.3 19 -5 19 C-4.4 16 -3.7 14 -3.1 11 C-2.9 10 -2.7 9.7 -2.5 9.0 C-1.8 5.9 -1.0 3.0 0 0 Z " fill="#AC8943" transform="translate(890,526)"/><path d="M0 0 C0.3 0 0.7 0 1 0 C1.1 2.6 1.1 5.2 1.1 7.8 C1.1 8.5 1.2 9.2 1.2 10.0 C1.2 14 1.2 17 -1 20 C-2.5 14 -2.8 5.6 0 0 Z " fill="#A27A2A" transform="translate(1150,485)"/><path d="M0 0 C2.2 -0.3 2.2 -0.3 5 0 C7.2 2.1 7.2 2.1 8.4 3.4 C12 6.8 16 9.3 20 12 C17 12 16 11 13 9.6 C12 9.1 11 8.6 11 8.1 C9.9 7.6 9.1 7.1 8.3 6.6 C7.5 6.0 6.7 5.5 5.9 5.0 C1.6 2.2 1.6 2.2 0 1 C0 0.7 0 0.3 0 0 Z " fill="#9F7B37" transform="translate(1066,468)"/><path d="M0 0 C1.3 3.6 0.7 6.0 -0.2 9.6 C-0.6 11 -0.6 11 -1.0 13 C-2 15 -2 15 -5 17 C-4.5 11 -2.5 5.7 0 0 Z " fill="#F4E7C8" transform="translate(841,397)"/><path d="M0 0 C1.0 0.3 2.0 0.7 3 1 C3.3 3.0 3.7 5.0 4 7 C4.7 7 5.3 7 6 7 C6.3 11 6.7 16 7 20 C6.3 20 5.7 21 5 21 C4.8 20 4.6 19 4.4 17 C4.2 16 3.9 14 3.6 13 C3.5 12 3.4 11 3.2 10 C2.3 5.0 2.3 5.0 0 0 Z " fill="#F9F0D3" transform="translate(1079,368)"/><path d="M0 0 C0.3 0 0.7 0 1 0 C1 5.3 1 11 1 16 C0.3 16 -0.3 16 -1 16 C-1.3 17 -1.7 19 -2 20 C-2.3 13 -1.3 6.7 0 0 Z " fill="#F3E7C7" transform="translate(822,511)"/><path d="M0 0 C2 2 2 2 2.0 4.6 C1.9 5.7 1.8 6.7 1.7 7.8 C1.6 8.9 1.5 9.9 1.4 11 C1.0 14 0.6 16 0 19 C-0.3 19 -0.7 19 -1 19 C-1.0 17 -1.0 15 -1.1 12 C-1.1 10 -1.1 10 -1.1 8.6 C-1.0 5.5 -0.7 2.9 0 0 Z " fill="#A3823D" transform="translate(814,507)"/><path d="M0 0 C6.2 -0.3 11 0.4 17 3 C18 3.7 18 4.3 19 5 C17 4.7 15 4.4 13 4.1 C11 3.8 11 3.8 9.4 3.5 C6.3 3.0 3.1 2.5 0 2 C0 1.3 0 0.7 0 0 Z " fill="#A17C32" transform="translate(1145,353)"/><path d="M0 0 C0 4.6 0 9.2 0 14 C-0.3 14 -0.7 14 -1 14 C-1.3 10 -1.7 6.7 -2 3 C-3.3 4.7 -4.6 6.3 -6 8 C-7.0 7.7 -8.0 7.3 -9 7 C-7.9 5.8 -6.8 4.7 -5.6 3.5 C-4.7 2.5 -4.7 2.5 -3.7 1.5 C-2 0 -2 0 0 0 Z " fill="#E1CF9E" transform="translate(1065,281)"/><path d="M0 0 C7.4 3.1 7.4 3.1 9.5 6.4 C10 9.0 10 11 10 14 C9.3 14 8.7 14 8 14 C7.7 11 7.3 8.7 7 6 C4.7 5.3 2.4 4.7 0 4 C0 2.7 0 1.4 0 0 Z " fill="#F5E9C9" transform="translate(957,237)"/><path d="M0 0 C1.3 0.3 2.6 0.7 4 1 C0 5 -4 9 -8 13 C-7.4 9.1 -5.6 6.8 -3 4 C-2.3 4 -1.7 4 -1 4 C-0.7 2.7 -0.3 1.4 0 0 Z " fill="#F6EBCA" transform="translate(972,117)"/><path d="M0 0 C0.3 0.7 0.7 1.3 1 2 C-1.9 6.7 -5.0 10 -9 14 C-9.7 14 -10 13 -11 13 C-7.4 8.7 -3.7 4.4 0 0 Z " fill="#F8EDCD" transform="translate(1035,507)"/><path d="M0 0 C0.3 0 0.7 0 1 0 C1.9 6.5 2.4 12 0 18 C-0.3 18 -0.7 18 -1 18 C-1.2 16 -1.4 15 -1.6 13 C-1.7 12 -1.8 11 -1.9 10 C-1.9 9.5 -2.0 8.8 -2 8 C-1.7 7.7 -1.3 7.3 -1 7 C-0.6 4.7 -0.3 2.3 0 0 Z " fill="#AC8337" transform="translate(832,458)"/><path d="M0 0 C0.6 1.9 0.6 1.9 1 4 C-0.8 6.2 -0.8 6.2 -3 8 C-3.7 8 -4.3 8 -5 8 C-5.3 8.6 -5.6 9.3 -5.9 9.9 C-7 12 -7 12 -9 13 C-7.5 7.6 -3.7 4.0 0 0 Z " fill="#F7EED3" transform="translate(978,127)"/><path d="M0 0 C0.7 0 1.3 0 2 0 C3.2 3.9 4 6.9 4 11 C3.3 11 2.7 11 2 11 C1.7 10 1.3 9.0 1 8 C0.3 7.7 -0.3 7.3 -1 7 C-0.7 4.7 -0.3 2.4 0 0 Z " fill="#F3E3BA" transform="translate(899,521)"/><path d="M0 0 C3.5 0.2 3.5 0.2 5.5 1.2 C6.1 4.2 6.1 4.2 6.5 7.2 C5.2 5.5 3.9 3.9 2.5 2.2 C-1.2 2.5 -2.3 2.9 -4.8 5.8 C-5.4 6.6 -5.9 7.4 -6.5 8.2 C-5.5 0.3 -5.5 0.3 0 0 Z " fill="#FAEFCF" transform="translate(1156.5,438.8125)"/><path d="M0 0 C4.7 4.2 4.6 8.6 4.9 15 C4.9 15 5.0 16 5 17 C3.1 14 2.3 12 1.4 9.1 C1.1 8.2 0.9 7.4 0.6 6.5 C0 4 0 4 0 0 Z " fill="#A37F32" transform="translate(1149,523)"/><path d="M0 0 C0 1.0 0 2.0 0 3 C-2.3 4.1 -3.6 4.1 -6.1 4.1 C-6.9 4.1 -7.7 4.1 -8.6 4.1 C-9.4 4.1 -10 4.1 -11 4.1 C-12 4.1 -13 4.1 -14 4.0 C-16 4.0 -18 4.0 -20 4 C-20 3.7 -20 3.3 -20 3 C-19 3.0 -18 2.9 -17 2.9 C-11 2.5 -5.8 2.0 0 0 Z " fill="#B0914B" transform="translate(1039,291)"/><path d="M0 0 C0.3 0 0.7 0 1 0 C1.1 2.6 1.1 5.2 1.2 7.9 C1.2 9.0 1.2 9.0 1.3 10 C1.3 12 1.3 12 1 16 C0.0 17 -1.0 17 -2 18 C-1.3 12 -0.7 6.1 0 0 Z " fill="#AC883E" transform="translate(896,496)"/><path d="M0 0 C3.5 1.4 4.3 2.7 6 6 C7.8 7.2 7.8 7.2 10 8 C11 8.4 12 8.7 13 9.1 C14 9.6 14 9.6 15 10 C15 10 15 11 15 11 C12 11 10 11 7.8 9.6 C7.2 9.0 6.5 8.4 5.8 7.8 C5.1 7.1 4.5 6.5 3.8 5.9 C2.0 4.0 1.0 2.3 0 0 Z " fill="#A27D32" transform="translate(903,493)"/><path d="M0 0 C-1.5 1.0 -2.9 2.0 -4.4 3 C-5.6 3.8 -5.6 3.8 -6.8 4.7 C-9 6 -9 6 -11 6 C-11 7.0 -12 8.0 -12 9 C-12 4.7 -10 2.8 -7 0 C-3.9 -1.0 -3.0 -0.9 0 0 Z " fill="#F7EFD1" transform="translate(992,417)"/><path d="M0 0 C0.6 0.3 1.2 0.7 1.8 1 C4.1 2.2 4.1 2.2 7 2 C7 3.0 7 4.0 7 5 C8.9 6.7 8.9 6.7 11 8 C11 8.7 10 9.3 10 10 C8.5 8.9 7.0 7.8 5.6 6.7 C4.7 6.1 3.9 5.5 3.1 4.8 C1 3 1 3 0 0 Z " fill="#F6ECCE" transform="translate(1077,308)"/><path d="M0 0 C0.7 0.3 1.3 0.7 2 1 C0.9 2.3 -0.2 3.6 -1.4 4.9 C-2.0 5.7 -2.6 6.4 -3.3 7.2 C-5 9 -5 9 -7 10 C-7 9.0 -7 8.0 -7 7 C-6.3 7 -5.7 7 -5 7 C-4.8 6.1 -4.8 6.1 -4.6 5.1 C-4 3 -4 3 -3 1 C-2.0 0.7 -1.0 0.3 0 0 Z " fill="#F8EFD2" transform="translate(970,306)"/><path d="M0 0 C0.3 0 0.7 0 1 0 C1.1 1.6 1.1 3.2 1.2 4.8 C1.2 6.1 1.2 6.1 1.3 7.4 C0.9 10 -0.0 12 -2 14 C-2.2 8.8 -2.0 4.9 0 0 Z " fill="#A67F32" transform="translate(1132,546)"/><path d="M0 0 C0.3 0 0.7 0 1 0 C1.2 7.6 1.2 7.6 -1 11 C-1.4 13 -1.7 15 -2 17 C-3.1 15 -3.1 15 -4 13 C-3.3 9.8 -3.3 9.8 -2.1 6.2 C-1.7 5.1 -1.3 3.9 -0.9 2.7 C-0.6 1.8 -0.3 0.9 0 0 Z " fill="#F1E3C2" transform="translate(897,528)"/><path d="M0 0 C2 3 2 3 2 6 C2.7 6 3.3 6 4 6 C4 9.0 4 12 4 15 C1.4 12 1.2 10 0.3 6.9 C0.0 5.9 -0.2 4.8 -0.5 3.7 C-0.7 2.8 -0.8 1.9 -1 1 C-0.7 0.7 -0.3 0.3 0 0 Z " fill="#F6EBD0" transform="translate(1227,478)"/><path d="M0 0 C3.5 0.7 6.9 1.5 10 2.6 C11 2.8 12 3.1 13 3.4 C14 3.6 14 3.8 15 4 C15 4.7 14 5.3 14 6 C12 5.6 10 5.1 8.7 4.7 C7.7 4.4 6.7 4.2 5.7 3.9 C3.0 3.0 1.8 2.2 0 0 Z " fill="#AA8845" transform="translate(986,429)"/><path d="M0 0 C-6.9 3.5 -6.9 3.5 -14 7 C-12 2.4 -12 2.4 -8.1 0.7 C-7.4 0.3 -6.8 -0.0 -6.1 -0.4 C-4 -1 -4 -1 0 0 Z " fill="#F7EDCB" transform="translate(1013,405)"/><path d="M0 0 C0.7 1.0 1.3 2.0 2 3 C1.3 3.6 0.6 4.1 -0.2 4.7 C-3.0 7.0 -5.5 9.4 -8 12 C-6.5 7.0 -3.4 3.8 0 0 Z " fill="#F7F0D2" transform="translate(855,376)"/><path d="M0 0 C1.0 0 2.0 0 3 0 C3 0.7 3 1.3 3 2 C-1.0 4.0 -4.9 6.0 -9 8 C-9 7.0 -9 6.0 -9 5 C-3.4 2 -3.4 2 0 2 C0 1.3 0 0.7 0 0 Z " fill="#F6ECCC" transform="translate(1074,368)"/><path d="M0 0 C5.1 0.6 10.0 1.7 15 3 C14 3.7 14 4.3 13 5 C8.0 4.7 4.3 3.4 0 1 C0 0.7 0 0.3 0 0 Z " fill="#AA8846" transform="translate(1002,296)"/><path d="M0 0 C0.7 0 1.3 0 2 0 C0.6 3.4 -1.3 5.4 -4.1 7.8 C-5.2 8.7 -5.2 8.7 -6.3 9.6 C-6.9 10 -7.4 11 -8 11 C-8.3 10 -8.7 9.0 -9 8 C-7.3 7.3 -5.7 6.7 -4 6 C-4 5.3 -4 4.7 -4 4 C-3.3 4 -2.7 4 -2 4 C-2 3.3 -2 2.7 -2 2 C-1.3 2 -0.7 2 0 2 C0 1.3 0 0.7 0 0 Z " fill="#FCF5D8" transform="translate(1053,277)"/><path d="M0 0 C4.2 4.0 5.6 7.2 6 13 C5.3 14 4.7 14 4 15 C3.5 13 3.0 12 2.6 10 C2.3 9.4 2.0 8.6 1.8 7.7 C1.0 5.1 0.5 2.6 0 0 Z " fill="#A68139" transform="translate(971,260)"/><path d="M0 0 C0.7 0 1.3 0 2 0 C0.2 7.6 0.2 7.6 -2 11 C-5.1 12 -5.1 12 -8 12 C-8.3 11 -8.7 11 -9 10 C-5.5 9.5 -5.5 9.5 -2 9 C-1.9 8.1 -1.7 7.1 -1.6 6.2 C-1 3 -1 3 0 0 Z " fill="#F6ECC9" transform="translate(1085,222)"/><path d="M0 0 C0.7 0 1.3 0 2 0 C1.7 2.0 1.4 3.9 1.1 5.9 C1.0 7.0 0.8 8.1 0.6 9.2 C0 12 0 12 -2 14 C-2.2 8.8 -2.0 4.9 0 0 Z " fill="#F8EFD1" transform="translate(881,550)"/><path d="M0 0 C0.7 0.3 1.3 0.7 2 1 C-1.2 4.3 -4.4 7.3 -8 10 C-9.0 9.7 -10.0 9.3 -11 9 C-7.4 6.0 -3.7 3.1 0 0 Z " fill="#F7EDCB" transform="translate(867,366)"/><path d="M0 0 C-3.3 2.2 -5.3 2.5 -9.2 3.1 C-10 3.3 -11 3.5 -12 3.6 C-13 3.8 -14 3.9 -15 4 C-15 3.3 -15 2.7 -15 2 C-9.8 0.5 -5.4 -0.2 0 0 Z " fill="#F2E6BF" transform="translate(906,344)"/><path d="M0 0 C0.7 0.3 1.3 0.7 2 1 C1.3 5.3 0.7 9.6 0 14 C-0.7 14 -1.3 13 -2 13 C-1.9 12 -1.7 10 -1.6 8.8 C-1.5 8.0 -1.4 7.2 -1.3 6.4 C-1.0 4.2 -0.6 2.1 0 0 Z " fill="#AC8943" transform="translate(828,405)"/><path d="M0 0 C-2.0 1.0 -3.9 2.0 -5.9 3.1 C-7.0 3.6 -8.1 4.2 -9.2 4.8 C-10 5.2 -11 5.6 -12 6 C-13 5.7 -13 5.3 -14 5 C-13 4.7 -12 4.3 -11 4 C-11 3.3 -11 2.7 -11 2 C-10 2 -9.0 2 -8 2 C-8 1.3 -8 0.7 -8 0 C-4.7 -0.8 -3.3 -1.1 0 0 Z " fill="#A48137" transform="translate(879,361)"/><path d="M0 0 C0.3 0.7 0.7 1.3 1 2 C-2 5 -5 8 -8 11 C-7.9 8.2 -7.9 8.2 -7 5 C-4 2.7 -4 2.7 -1 1 C-0.7 0.7 -0.3 0.3 0 0 Z " fill="#F1E5C2" transform="translate(1089,237)"/><path d="M0 0 C4.9 2.4 7.0 3.9 9 9 C11 11 11 11 12 12 C7.8 11 5.8 9.0 3.2 5.4 C2.6 4.6 2.0 3.8 1.4 3.0 C0 1 0 1 0 0 Z " fill="#9D7933" transform="translate(1057,118)"/><path d="M0 0 C0.3 0 0.7 0 1 0 C1.2 5.4 1.1 9.9 -1 15 C-1.7 15 -2.3 14 -3 14 C-2.0 9.4 -1.0 4.8 0 0 Z " fill="#AF8B44" transform="translate(884,546)"/><path d="M0 0 C2.0 1.4 2.9 2.5 3.4 5.0 C3.7 7.0 3.8 9.0 4 11 C3.0 11 3.0 11 2 12 C0.9 7.7 0 4.4 0 0 Z " fill="#A67D2D" transform="translate(901,520)"/><path d="M0 0 C5.0 1.8 9.4 4.4 14 7 C13 7.5 13 7.5 12 8 C9.2 6.8 9.2 6.8 5.9 5.1 C4.8 4.5 3.7 3.9 2.6 3.3 C1.7 2.9 0.9 2.5 0 2 C0 1.3 0 0.7 0 0 Z " fill="#FBF2D3" transform="translate(1107,339)"/><path d="M0 0 C0.7 1.0 1.3 2.0 2 3 C-0.2 5.1 -0.2 5.1 -3 7 C-4.3 6.7 -5.6 6.3 -7 6 C-4.7 4.0 -2.4 2.0 0 0 Z " fill="#A98331" transform="translate(1058,276)"/><path d="M0 0 C0.7 0.7 1.3 1.3 2 2 C1.8 5.0 1.8 5.0 1.1 8.6 C0.9 9.8 0.7 11 0.5 12 C0.3 13 0.2 14 0 15 C-2.2 12 -2.2 11 -1.7 7.5 C-1.6 6.7 -1.5 6.0 -1.4 5.2 C-1 3 -1 3 0 0 Z " fill="#AF8C48" transform="translate(957,144)"/><path d="M0 0 C1.0 0.5 1.0 0.5 2 1 C2.6 4.1 2.6 4.1 3 7 C4.3 7.3 5.6 7.7 7 8 C6.3 8 5.7 8 5 8 C5 8.7 5 9.3 5 10 C4.0 10 3.0 11 2 11 C1.3 7.4 0.7 3.7 0 0 Z " fill="#F6EFD6" transform="translate(918,555)"/><path d="M0 0 C0.3 0 0.7 0 1 0 C1.1 5.8 1.1 5.8 0 8 C-0.7 8 -1.3 8 -2 8 C-2.2 4.3 -2.2 3.2 0 0 Z M-3 8 C-2.4 9.9 -2.4 9.9 -2 12 C-2.7 13 -3.3 13 -4 14 C-3.7 12 -3.3 10 -3 8 Z " fill="#B8882A" transform="translate(885,553)"/><path d="M0 0 C0.3 0 0.7 0 1 0 C0.6 8.2 0.6 8.2 -2.1 12 C-2.7 12 -3.3 13 -4 13 C-3.5 11 -3.0 9.8 -2.6 8.2 C-2.3 7.3 -2.0 6.4 -1.8 5.5 C-1.2 3.6 -0.6 1.8 0 0 Z " fill="#F4E9C9" transform="translate(892,544)"/><path d="M0 0 C4 1.3 8 2.7 12 4 C12 5.0 13 6.0 13 7 C8.2 5.6 4.3 3.6 0 1 C0 0.7 0 0.3 0 0 Z " fill="#F5EACB" transform="translate(918,497)"/><path d="M0 0 C0.7 0 1.3 0 2 0 C-0.9 9.6 -0.9 9.6 -4 13 C-4 11 -4 9.7 -4 8 C-3.3 8 -2.7 8 -2 8 C-1.9 7.2 -1.7 6.5 -1.6 5.7 C-1 3 -1 3 0 0 Z " fill="#F5EACB" transform="translate(1001,458)"/><path d="M0 0 C-2.1 2.3 -4.0 3.9 -7 5 C-9.2 4.6 -9.2 4.6 -11 4 C-7.0 1.0 -5.0 -0.1 0 0 Z " fill="#AC8435" transform="translate(1036,394)"/><path d="M0 0 C0.3 1.0 0.7 2.0 1 3 C-0.2 5.0 -0.2 5.0 -1.9 7.2 C-2.5 7.9 -3.1 8.6 -3.7 9.4 C-4.1 9.9 -4.5 10 -5 11 C-5.7 10 -6.3 9.7 -7 9 C-4.7 6.0 -2.4 3.1 0 0 Z " fill="#FBF5DC" transform="translate(966,519)"/><path d="M0 0 C3.4 1.5 6.1 3.6 9 6 C6.6 5.5 4.2 5.1 1.8 4.4 C-0.1 3.8 -0.1 3.8 -2 5 C-1.3 3.4 -0.7 1.7 0 0 Z " fill="#F8EAC4" transform="translate(1062,466)"/><path d="M0 0 C0.7 0.3 1.3 0.7 2 1 C2 1.7 2 2.3 2 3 C0.7 3.5 -0.5 4.1 -1.8 4.6 C-2.5 4.9 -3.2 5.1 -4.0 5.4 C-6 6 -6 6 -9 5 C-7.5 4.1 -6.1 3.3 -4.6 2.4 C-3.4 1.7 -3.4 1.7 -2.2 1.0 C-1.4 0.7 -0.7 0.3 0 0 Z " fill="#A68136" transform="translate(1009,406)"/><path d="M0 0 C0.7 0.3 1.3 0.7 2 1 C1.8 1.6 1.6 2.2 1.4 2.8 C0.0 6.8 -1.3 11 -2 15 C-2.3 15 -2.7 15 -3 15 C-2.9 13 -2.8 11 -2.6 8.6 C-2.6 7.4 -2.5 6.3 -2.4 5.0 C-2 2 -2 2 0 0 Z " fill="#F5E9C5" transform="translate(1075,234)"/><path d="M0 0 C1.6 0.8 3.3 1.5 4.9 2.3 C5.8 2.7 6.7 3.2 7.6 3.6 C10 5 10 5 12 8 C11 8 10 8 9 8 C8.7 7.0 8.3 6.0 8 5 C6.8 4.7 5.7 4.3 4.5 4 C3.3 3.7 2.2 3.3 1 3 C0.7 2.0 0.3 1.0 0 0 Z " fill="#A5823C" transform="translate(1052,108)"/><path d="M0 0 C1.0 0.3 2.0 0.7 3 1 C0.4 3.6 -2.3 6.3 -5 9 C-5.3 8.0 -5.7 7.0 -6 6 C-5.3 6 -4.7 6 -4 6 C-4 5.3 -4 4.7 -4 4 C-3.3 4 -2.7 4 -2 4 C-1.3 2.7 -0.7 1.4 0 0 Z " fill="#F0E3BE" transform="translate(937,553)"/><path d="M0 0 C0.7 0 1.3 0 2 0 C1.4 4.1 -0.0 7.3 -2 11 C-3.0 8.8 -3.1 7.4 -2.4 5.2 C-1.6 3.4 -0.8 1.7 0 0 Z " fill="#F4E8C8" transform="translate(1010,439)"/><path d="M0 0 C3.0 0.5 3.0 0.5 6 1 C6 1.7 6 2.3 6 3 C7.7 3.3 9.3 3.7 11 4 C11 4.7 11 5.3 11 6 C6.5 4.7 3.5 3.1 0 0 Z " fill="#F5EAC8" transform="translate(1103,326)"/><path d="M0 0 C1.6 1.3 3.3 2.6 5 4 C4.0 4.5 4.0 4.5 3 5 C2.3 4.7 1.7 4.3 1 4 C1 7.3 1 11 1 14 C0.7 14 0.3 14 0 14 C0 9.4 0 4.8 0 0 Z " fill="#FCF3D5" transform="translate(984,282)"/><path d="M0 0 C2.0 3.0 2.5 4.7 3.1 8.2 C3.4 9.5 3.4 9.5 3.6 11 C3.8 12 3.9 12 4 13 C3.0 13 2.0 12 1 12 C0.7 8.0 0.3 4.1 0 0 Z " fill="#F1E4C2" transform="translate(951,219)"/><path d="M0 0 C0.3 0 0.7 0 1 0 C1.3 1.6 1.7 3.2 2 4.8 C2.2 5.6 2.4 6.5 2.6 7.4 C3 10 3 10 3 14 C2.3 14 1.7 14 1 14 C-0.4 11 -0.1 9.0 -0.1 5.9 C-0.1 4.8 -0.0 3.7 -0.0 2.6 C-0.0 1.7 -0.0 0.9 0 0 Z " fill="#AB8944" transform="translate(958,211)"/><path d="M0 0 C0.7 0 1.3 0 2 0 C0.4 4.0 -1.3 8.0 -3 12 C-3.3 12 -3.7 12 -4 12 C-3.7 9.4 -3.3 6.7 -3 4 C-2.3 4 -1.7 4 -1 4 C-0.7 2.7 -0.3 1.4 0 0 Z " fill="#F7ECCD" transform="translate(962,130)"/><path d="M0 0 C1 3 1 3 0.0 5.0 C-0.5 5.8 -0.9 6.5 -1.4 7.2 C-1.9 7.9 -2.4 8.6 -2.9 9.4 C-3.2 9.9 -3.6 10 -4 11 C-5 9 -5 9 -4.1 5.9 C-3.7 4.9 -3.4 4.0 -3 3 C-2.3 3 -1.7 3 -1 3 C-0.7 2.0 -0.3 1.0 0 0 Z " fill="#A87A18" transform="translate(1000,480)"/><path d="M0 0 C1.4 4.1 0.6 6.8 0 11 C-2 9 -2 9 -2.2 6.1 C-2 3 -2 3 0 0 Z " fill="#B48528" transform="translate(891,454)"/><path d="M0 0 C0.7 1.3 1.3 2.6 2 4 C1.0 4.3 0.0 4.7 -1 5 C-1 6.7 -1 8.3 -1 10 C-2.0 10 -2.0 10 -3 11 C-2.2 3.4 -2.2 3.4 0 0 Z " fill="#9C7528" transform="translate(1152,444)"/><path d="M0 0 C0.3 0 0.7 0 1 0 C1.2 1.4 1.4 2.8 1.6 4.2 C1.7 5.0 1.9 5.8 2.0 6.6 C2.0 9.3 1.4 11 0 13 C-0.2 11 -0.4 9.4 -0.6 7.6 C-0.7 6.6 -0.8 5.6 -0.9 4.6 C-1 2 -1 2 0 0 Z " fill="#AA843D" transform="translate(1082,377)"/><path d="M0 0 C-5.0 2.5 -5.0 2.5 -10 5 C-10 4.0 -10 3.0 -10 2 C-9.0 2 -8.0 2 -7 2 C-7 1.3 -7 0.7 -7 0 C-4.0 -0.9 -3.1 -1.0 0 0 Z " fill="#F6EBC8" transform="translate(1064,377)"/><path d="M0 0 C-3.6 2.0 -7.3 4.0 -11 6 C-11 4.7 -10 3.4 -10 2 C-8.7 2 -7.4 2 -6 2 C-6 1.3 -6 0.7 -6 0 C-3 -1 -3 -1 0 0 Z " fill="#F9EFCF" transform="translate(987,111)"/><path d="M0 0 C2.1 1.8 2.1 1.8 4 4 C3.8 6.2 3.8 6.2 3 8 C2.0 8 1.0 8 0 8 C-1.1 4.7 -0.8 3.3 0 0 Z " fill="#AF8333" transform="translate(907,521)"/><path d="M0 0 C1 3 1 3 0.0 5.0 C-0.4 5.8 -0.9 6.5 -1.4 7.2 C-1.8 7.9 -2.3 8.6 -2.8 9.4 C-3.2 9.9 -3.6 10 -4 11 C-4.3 11 -4.7 11 -5 11 C-5.2 8.8 -5.2 8.8 -5 6 C-3.1 3.8 -3.1 3.8 -1 2 C-0.7 1.3 -0.3 0.7 0 0 Z " fill="#9F7B33" transform="translate(1060,466)"/><path d="M0 0 C0.3 0.7 0.7 1.3 1 2 C1.7 2 2.3 2 3 2 C4.3 4.9 5 6.8 5 10 C4.3 10 3.7 10 3 10 C0 3.4 0 3.4 0 0 Z " fill="#A07A2C" transform="translate(890,468)"/><path d="M0 0 C0.7 1.3 1.3 2.6 2 4 C0.0 7.0 0.0 7.0 -2 10 C-3.1 6.2 -3.1 6.2 -2 4 C-1.3 4 -0.7 4 0 4 C0 2.7 0 1.4 0 0 Z " fill="#AB8437" transform="translate(977,306)"/><path d="M0 0 C3.9 0.6 6.1 2.5 9 5 C8.7 6.0 8.3 7.0 8 8 C6.7 6.9 5.3 5.7 4 4.6 C3.3 3.9 2.5 3.3 1.8 2.6 C1.2 2.1 0.6 1.6 0 1 C0 0.7 0 0.3 0 0 Z " fill="#F3E8C4" transform="translate(994,280)"/><path d="M0 0 C2 2 2 2 2.1 5.6 C2.1 6.7 2.0 7.9 2 9 C1.3 9 0.7 9 0 9 C-0.9 2.8 -0.9 2.8 -1 1 C-0.7 0.7 -0.3 0.3 0 0 Z " fill="#A57C2D" transform="translate(1230,496)"/><path d="M0 0 C4.2 -0.4 6.6 0.5 10 3 C10 3.7 10 4.3 10 5 C6.1 3.8 3.1 2.6 0 0 Z " fill="#F9F1D2" transform="translate(1124,337)"/><path d="M0 0 C1.0 0 2.0 0 3 0 C2.3 2.0 1.7 4.0 1 6 C0.0 6 -1.0 6 -2 6 C-1.3 4.0 -0.7 2.0 0 0 Z " fill="#AD8333" transform="translate(822,478)"/><path d="M0 0 C1.3 0.6 2.5 1.2 3.8 1.9 C4.5 2.2 5.2 2.6 6.0 2.9 C8 4 8 4 11 6 C7.1 5.4 3.7 4.6 0 3 C0 2.0 0 1.0 0 0 Z " fill="#F8EFD0" transform="translate(981,427)"/><path d="M0 0 C0.7 0 1.3 0 2 0 C1.7 3.4 1.7 3.4 1 7 C0.0 7.7 -1.0 8.3 -2 9 C-1.3 6.0 -0.7 3.1 0 0 Z " fill="#F1E7C9" transform="translate(981,301)"/><path d="M0 0 C0.7 0.3 1.3 0.7 2 1 C0.3 2.6 -1.3 4.3 -3 6 C-3.7 5.3 -4.3 4.7 -5 4 C-3.4 2.7 -1.7 1.4 0 0 Z " fill="#F6EFD4" transform="translate(945,545)"/><path d="M0 0 C1.6 1.6 3.3 3.3 5 5 C4.0 5.3 3.0 5.7 2 6 C1.7 7.0 1.3 8.0 1 9 C0.7 6.0 0.3 3.1 0 0 Z " fill="#F4E4B7" transform="translate(903,494)"/><path d="M0 0 C0.7 0 1.3 0 2 0 C0.1 5.8 0.1 5.8 -1 8 C-1.7 8 -2.3 8 -3 8 C-1.1 2.2 -1.1 2.2 0 0 Z " fill="#FCF7DD" transform="translate(1005,450)"/><path d="M0 0 C0.7 0.3 1.3 0.7 2 1 C-2.3 4.9 -2.3 4.9 -5.8 5.2 C-6.5 5.2 -7.3 5.1 -8 5 C-5.5 3.0 -3.0 1.2 0 0 Z " fill="#9E7A31" transform="translate(1072,372)"/><path d="M0 0 C-0.3 1.3 -0.7 2.6 -1 4 C-2.3 4 -3.6 4 -5 4 C-5.3 3.0 -5.7 2.0 -6 1 C-3 0 -3 0 0 0 Z " fill="#AD8735" transform="translate(912,343)"/><path d="M0 0 C0.3 0 0.7 0 1 0 C1.4 6.5 1.4 6.5 -0.5 8.9 C-1.0 9.3 -1.5 9.6 -2 10 C-1.5 6.5 -1.1 3.3 0 0 Z " fill="#F3E8CA" transform="translate(966,144)"/><path d="M0 0 C0 3 0 3 -2 6 C-3.3 5.7 -4.6 5.3 -6 5 C-4.0 3.4 -2.0 1.7 0 0 Z " fill="#F9EFD3" transform="translate(985,121)"/><path d="M0 0 C0 0.7 0 1.3 0 2 C-3.5 3.2 -6.4 3.1 -10 3 C-4 0 -4 0 0 0 Z " fill="#F7ECD0" transform="translate(1008,112)"/></svg> 