<?xml version="1.0" encoding="UTF-8"?><svg xmlns="http://www.w3.org/2000/svg" viewBox="1465 1365 651 771"><path d="M0 0 C1.2 0.3 2.4 0.6 3.7 0.9 C20 5.1 36 12 46 26 C46 27 46 27 46 28 C47 28 48 28 49 28 C49 27 49 27 49 26 C60 25 70 31 79 38 C81 40 84 43 86 45 C87 46 88 46 88 47 C110 69 116 99 115 129 C115 134 114 138 113 143 C112 150 114 157 115 164 C118 183 113 201 105 218 C104 224 106 230 107 236 C115 274 99 305 84 339 C81 345 78 351 75 357 C73 362 71 368 69 373 C67 376 66 379 64 382 C59 394 53 404 40 410 C33 412 27 414 20 414 C19 413 19 413 17 413 C5.9 413 -5.6 411 -16 406 C-20 405 -20 405 -23 405 C-38 422 -44 447 -48 469 C-50 469 -51 469 -53 469 C-55 449 -48 426 -36 410 C-33 407 -31 405 -28 403 C-29 403 -29 402 -30 402 C-33 401 -37 399 -40 398 C-41 398 -41 397 -42 397 C-60 389 -78 380 -94 368 C-96 367 -98 365 -100 364 C-104 361 -109 357 -113 353 C-115 352 -117 350 -119 349 C-122 346 -125 343 -128 339 C-129 338 -129 338 -130 337 C-142 322 -145 300 -146 281 C-147 281 -148 282 -148 282 C-153 284 -156 285 -160 284 C-173 278 -181 266 -187 253 C-189 247 -191 240 -192 233 C-194 226 -196 214 -201 209 C-206 219 -210 229 -213 240 C-213 241 -213 241 -214 242 C-214 247 -214 253 -214 258 C-214 260 -214 262 -214 264 C-215 289 -206 312 -189 330 C-182 337 -173 344 -164 346 C-162 332 -162 319 -161 305 C-161 303 -161 301 -161 299 C-161 295 -161 290 -161 285 C-159 285 -159 285 -157 286 C-152 294 -154 305 -154 314 C-154 315 -154 316 -154 316 C-154 328 -155 340 -157 352 C-157 353 -157 353 -157 354 C-163 378 -174 401 -190 420 C-190 421 -191 421 -191 422 C-193 423 -194 425 -195 426 C-196 426 -197 426 -198 426 C-198 419 -195 415 -191 410 C-180 392 -171 373 -166 352 C-167 352 -168 352 -169 352 C-184 349 -197 335 -206 323 C-222 299 -228 270 -223 242 C-220 228 -214 207 -204 197 C-204 196 -204 194 -204 193 C-204 192 -204 191 -204 190 C-204 188 -204 185 -204 182 C-208 149 -201 115 -185 85 C-184 84 -184 83 -183 81 C-179 73 -174 67 -168 60 C-167 59 -166 58 -165 57 C-126 13 -59 -14 0 0 Z " fill="#F6F5EC" transform="translate(1742,1430)"/><path d="M0 0 C2.1 0.0 4.2 -0.0 6.3 -0.0 C29 -0.2 54 5.2 71 21 C75 26 76 31 76 37 C74 49 66 59 56 66 C52 69 49 71 45 73 C44 74 42 75 41 75 C32 80 23 84 14 88 C-29 104 -59 126 -80 167 C-97 199 -97 199 -105 203 C-108 203 -110 203 -112 203 C-113 203 -113 202 -113 201 C-117 194 -121 187 -128 182 C-135 181 -141 180 -148 183 C-156 190 -159 198 -160 209 C-161 209 -162 209 -162 209 C-163 207 -163 205 -163 202 C-163 201 -163 201 -164 200 C-164 195 -163 193 -160 189 C-159 187 -158 186 -156 184 C-155 183 -155 183 -154 182 C-149 176 -144 171 -138 166 C-137 165 -137 165 -136 164 C-123 153 -107 145 -92 136 C-88 134 -84 131 -80 129 C-79 129 -79 129 -79 128 C-76 126 -74 125 -72 122 C-81 125 -89 130 -97 134 C-99 135 -101 136 -103 137 C-125 149 -146 162 -162 181 C-163 182 -163 182 -163 182 C-164 182 -165 182 -165 182 C-167 132 -157 90 -122 51 C-100 28 -69 12 -38 4.6 C-37 4.4 -37 4.2 -36 4.0 C-24 1.1 -12 -0.0 0 0 Z " fill="#F5F5EC" transform="translate(1710.2763671875,1434.684326171875)"/><path d="M0 0 C1.2 0.3 2.4 0.6 3.7 0.9 C20 5.2 36 12 46 26 C46 27 47 27 47 28 C51 35 51 43 49 51 C42 71 23 82 4.2 91 C-3.5 95 -11 98 -19 101 C-58 117 -85 136 -104 173 C-122 209 -122 209 -134 214 C-138 215 -141 216 -145 215 C-148 212 -150 210 -152 206 C-155 201 -159 196 -164 193 C-167 192 -171 192 -174 193 C-180 197 -182 204 -184 210 C-185 214 -185 217 -184 221 C-184 222 -184 223 -184 224 C-184 242 -176 259 -163 272 C-160 275 -156 277 -151 278 C-150 278 -150 279 -149 279 C-148 279 -148 279 -147 279 C-147 280 -147 281 -147 282 C-151 284 -155 285 -160 284 C-173 278 -181 266 -187 253 C-189 247 -191 240 -192 233 C-194 226 -196 214 -201 209 C-206 219 -210 229 -213 240 C-213 241 -213 241 -214 242 C-214 247 -214 253 -214 258 C-214 260 -214 262 -214 264 C-215 289 -206 312 -189 330 C-182 337 -173 344 -164 346 C-162 332 -162 319 -161 305 C-161 303 -161 301 -161 299 C-161 295 -161 290 -161 285 C-159 285 -159 285 -157 286 C-152 294 -154 305 -154 314 C-154 315 -154 316 -154 316 C-154 328 -155 340 -157 352 C-157 353 -157 353 -157 354 C-163 378 -174 401 -190 420 C-190 421 -191 421 -191 422 C-193 423 -194 425 -195 426 C-196 426 -197 426 -198 426 C-198 419 -195 415 -191 410 C-180 392 -171 373 -166 352 C-167 352 -168 352 -169 352 C-184 349 -197 335 -206 323 C-222 299 -228 270 -223 242 C-220 228 -214 207 -204 197 C-204 196 -204 194 -204 193 C-204 192 -204 191 -204 190 C-204 188 -204 185 -204 182 C-208 149 -201 115 -185 85 C-184 84 -184 83 -183 81 C-179 73 -174 67 -168 60 C-167 59 -166 58 -165 57 C-126 13 -59 -14 0 0 Z M-65 8 C-66 8.2 -67 8.4 -67 8.6 C-99 16 -128 32 -152 54 C-153 55 -153 55 -154 56 C-163 65 -171 76 -177 87 C-178 88 -178 89 -179 90 C-196 120 -198 153 -197 187 C-196 187 -196 187 -195 187 C-193 185 -193 185 -192 184 C-174 163 -152 151 -128 139 C-125 137 -122 136 -120 134 C-119 134 -118 133 -117 133 C-116 132 -114 131 -113 131 C-110 129 -107 128 -104 127 C-109 133 -115 136 -121 139 C-124 140 -126 142 -128 143 C-129 143 -129 144 -130 144 C-145 153 -160 162 -173 174 C-174 175 -176 177 -177 178 C-189 188 -189 188 -196 201 C-196 203 -195 205 -195 207 C-195 208 -195 210 -194 211 C-194 212 -194 213 -194 214 C-193 214 -193 214 -192 214 C-192 213 -192 213 -192 212 C-190 202 -187 194 -180 188 C-175 185 -169 186 -164 186 C-156 188 -152 194 -148 200 C-146 203 -145 205 -144 208 C-141 208 -138 209 -135 207 C-131 203 -128 200 -125 195 C-125 194 -124 193 -124 193 C-118 183 -112 172 -107 162 C-91 129 -61 109 -27 96 C14 81 14 81 42 50 C45 43 45 38 43 31 C36 19 21 13 8.4 9.2 C7.8 9.0 7.1 8.8 6.5 8.6 C-5.2 5.3 -17 4.6 -29 4.7 C-30 4.7 -30 4.7 -31 4.7 C-43 4.7 -54 5.3 -65 8 Z " fill="#C08D3E" transform="translate(1742,1430)"/><path d="M0 0 C6.8 0.4 12 1.8 18 5 C19 5.4 20 5.9 21 6.4 C34 14 44 26 51 39 C52 40 52 41 53 42 C58 51 61 60 63 70 C63 72 63 72 64 73 C65 81 65 88 65 96 C65 97 65 98 65 100 C65 106 65 111 63 117 C62 124 64 131 65 138 C68 157 63 175 55 192 C54 198 56 204 57 210 C65 248 49 279 34 313 C31 319 28 325 25 331 C23 336 21 342 19 347 C17 350 16 353 14 356 C8.8 368 3.0 378 -10 384 C-17 386 -23 388 -30 388 C-31 387 -31 387 -33 387 C-44 387 -56 385 -66 380 C-70 379 -70 379 -73 379 C-88 396 -94 421 -98 443 C-100 443 -101 443 -103 443 C-105 423 -98 400 -86 384 C-83 381 -81 379 -78 377 C-79 377 -79 376 -80 376 C-83 375 -87 373 -90 372 C-91 372 -91 371 -92 371 C-110 363 -128 354 -144 342 C-146 341 -148 339 -150 338 C-154 335 -159 331 -163 327 C-165 326 -167 324 -169 323 C-172 320 -175 317 -178 313 C-179 312 -179 312 -180 311 C-191 297 -196 273 -195 255 C-195 254 -195 254 -194 253 C-192 253 -191 254 -189 254 C-189 256 -189 256 -188 257 C-187 261 -186 265 -186 269 C-185 272 -185 274 -184 277 C-181 291 -177 301 -167 312 C-166 313 -166 313 -165 314 C-153 327 -137 337 -122 346 C-120 347 -119 348 -117 349 C-90 366 -49 384 -16 377 C-4.5 373 1.4 364 6.4 354 C7.9 351 9.3 348 11 344 C11 343 12 342 12 341 C13 338 14 336 15 334 C17 329 19 325 21 321 C22 319 23 316 24 314 C26 309 29 303 31 298 C37 286 42 274 46 261 C46 260 47 259 47 258 C52 243 52 229 50 214 C47 201 47 191 52 179 C55 170 56 161 58 152 C46 152 36 155 26 161 C24 162 24 162 21 162 C21 159 21 157 24 154 C26 153 28 151 30 150 C31 150 31 149 32 149 C40 144 48 144 57 144 C52 106 41 67 10 42 C9.2 41 8.4 41 7.4 40 C4.9 38 2.9 36 1 33 C1 32 1 32 1 31 C5.8 30 7.9 32 12 35 C12 35 13 36 13 36 C37 55 50 75 58 104 C59 75 51 46 32 25 C23 15 12 8.0 0 2 C0 1.3 0 0.7 0 0 Z " fill="#C28D3C" transform="translate(1792,1456)"/><path d="M0 0 C1.3 0 2.6 0 4 0 C4.3 1.2 4.5 2.4 4.8 3.7 C5.1 5.3 5.5 6.9 5.8 8.6 C6.0 9.4 6.1 10 6.3 11 C8.4 21 12 30 20 36 C26 38 31 40 37 41 C37 43 37 43 38 46 C35 47 32 48 29 49 C22 50 16 54 12 60 C8.0 67 6.5 74 5.4 83 C5 86 5 86 4 88 C2.4 88 0.7 87 -1 87 C-1.2 86 -1.3 85 -1.5 84 C-3.5 72 -5.4 61 -15 53 C-18 51 -21 50 -25 49 C-26 49 -27 48 -28 48 C-30 47 -33 47 -35 46 C-35 44 -34 43 -34 41 C-33 41 -32 41 -32 41 C-24 39 -17 37 -11 31 C-5.3 22 -3.3 13 -1.5 3.0 C-1 1 -1 1 0 0 Z " fill="#C48F3D" transform="translate(1682,1651)"/><path d="M0 0 C3.7 1.7 5.8 1.5 9.8 1.4 C16 1.2 16 1.2 19 3.6 C23 9.4 24 15 23 22 C22 24 22 24 21 26 C19 26 17 26 15 26 C14 26 13 26 12 26 C9.1 26 6.5 25 3.5 25 C-5.8 23 -15 23 -25 23 C-49 23 -49 23 -58 16 C-57 15 -57 14 -57 12 C-56 12 -55 12 -55 12 C-43 11 -34 7.2 -24 2.8 C-17 -0.4 -7.8 -4.2 0 0 Z " fill="#C18D3C" transform="translate(1787.75,1739.5)"/><path d="M0 0 C2.7 2.4 5.1 4.9 7 8 C7 9.0 7 10.0 7 11 C1.3 11 -2.8 8.9 -7.8 6.2 C-9.2 5.5 -11 4.7 -12 4 C-13 3.7 -13 3.3 -14 2.9 C-33 -6.5 -52 -7.0 -72 -1 C-76 0.2 -79 1.6 -83 3.0 C-86 4 -86 4 -90 4 C-90 1.0 -89 -0.6 -87 -2.6 C-61 -18 -25 -18 0 0 Z " fill="#BA8B42" transform="translate(1768,1597)"/><path d="M0 0 C1.3 0 2.6 0 4 0 C2 6 2 6 1.2 8.0 C-0.7 13 -1.6 18 -1.6 24 C-1.6 24 -1.6 25 -1.6 26 C-1.1 41 4.6 56 9.8 70 C12 76 13 82 10 89 C6.3 95 0.5 99 -7 101 C-9.7 101 -12 101 -15 101 C-15 100 -15 99 -15 98 C-14 97 -13 97 -12 96 C-11 96 -9.2 95 -7.8 94 C-7.1 94 -6.5 94 -5.8 93 C-1.0 91 2.2 89 5 84 C5.6 78 3.0 72 0.7 66 C-6.6 47 -11 26 -4.2 6.5 C-3.0 4.0 -1.9 2.0 0 0 Z " fill="#BB8F49" transform="translate(1808,1619)"/><path d="M0 0 C2.7 1.3 3.0 2.7 4.1 5.4 C4.5 6.2 4.8 7.0 5.2 7.9 C6 10 6 10 6 12 C6.5 12 7.1 12 7.6 13 C11 14 13 17 16 19 C17 20 18 20 19 21 C19 22 19 22 19 23 C17 24 17 24 15 25 C8.3 29 3.8 35 1 43 C-1.0 41 -1.7 40 -2.9 37 C-6.5 30 -11 26 -18 22 C-17 21 -17 21 -16 20 C-15 20 -14 19 -13 18 C-12 18 -12 17 -11 17 C-5.5 12 -2.9 6.6 0 0 Z " fill="#F8F5E8" transform="translate(1683,1673)"/><path d="M0 0 C0.8 0.5 1.5 1.0 2.3 1.5 C5.7 3.4 8.0 3.3 12 3.2 C13 3.2 14 3.1 15 3.1 C16 3.1 17 3.0 18 3 C20 7.2 21 10 21 15 C20 15 18 15 16 15 C16 15 15 15 14 15 C11 15 11 15 7.4 14 C2.9 13 -1.3 13 -5.9 13 C-7.1 13 -7.1 13 -8.3 13 C-11 12 -13 12 -16 12 C-18 12 -19 12 -21 12 C-25 12 -30 12 -34 12 C-34 11 -34 11 -34 10 C-33 9.6 -32 9.2 -31 8.8 C-29 8.3 -28 7.8 -27 7.2 C-26 7.0 -25 6.7 -24 6.4 C-20 5.0 -17 3.5 -13 1.6 C-8.8 -0.3 -4.6 -0.9 0 0 Z " fill="#F6F1DF" transform="translate(1784,1744)"/><path d="M0 0 C3.7 1.7 5.8 1.5 9.8 1.4 C16 1.2 16 1.2 19 3.6 C23 9.4 24 15 23 22 C23 22 23 23 22 24 C22 24 21 24 20 24 C20 23 19 22 18 22 C16 21 14 21 12 20 C12 20 12 20 12 20 C14 20 16 20 17 20 C17 18 17 17 16 15 C16 14 16 14 16 13 C15 10 15 10 14 8.5 C13 8.5 12 8.6 12 8.6 C10 8.6 9.3 8.7 8.1 8.7 C6.9 8.7 5.8 8.8 4.6 8.8 C1.2 8.5 1.2 8.5 -1.1 7.0 C-5.0 4.8 -8.4 4.9 -13 5.5 C-16 6.6 -19 8.0 -23 9.6 C-24 10 -26 11 -28 12 C-28 12 -29 13 -30 13 C-32 14 -32 14 -35 12 C-34 12 -33 11 -33 9.5 C-33 9.7 -34 9.9 -35 10 C-35 10 -36 10 -37 10 C-37 9.8 -38 9.2 -39 8.5 C-35 7.0 -31 5.5 -28 4.1 C-26 3.6 -25 3.2 -24 2.8 C-23 2.4 -22 2.0 -21 1.6 C-20 1.2 -19 0.8 -18 0.4 C-12 -1.7 -5.8 -3.1 0 0 Z " fill="#C28F41" transform="translate(1787.75,1739.5)"/><path d="M0 0 C1.3 0 2.6 0 4 0 C4.3 1.2 4.5 2.4 4.8 3.7 C5.1 5.3 5.5 6.9 5.8 8.6 C6.0 9.4 6.1 10 6.3 11 C7.4 16 8.9 20 11 25 C12 31 12 31 11 33 C9.0 33 9.0 33 7 34 C5.3 30 3.7 27 2 23 C0.8 25 0.8 25 -0.4 28 C-4.0 34 -8.8 41 -16 43 C-16 42 -16 42 -16 41 C-15 41 -15 41 -14 40 C-14 39 -13 38 -13 37 C-15 37 -16 37 -18 37 C-17 36 -17 36 -16 35 C-5.8 27 -3.7 15 -1.5 3.0 C-1 1 -1 1 0 0 Z " fill="#C99544" transform="translate(1682,1651)"/><path d="M0 0 C1.1 -0.0 1.1 -0.0 2.3 -0.0 C7.7 0.0 12 0.7 18 2.2 C18 2.8 18 3.5 18 4.2 C18 4.2 19 4.2 19 4.3 C24 4.6 28 5.6 33 8.1 C35 9.2 35 9.2 37 10 C42 12 45 16 49 20 C46 22 44 21 41 20 C36 18 31 16 27 13 C27 13 27 12 27 11 C26 11 25 11 24 11 C23 10 22 10 21 9.8 C20 9.6 19 9.3 18 9.0 C15 8.2 15 8.2 12 7.1 C8.4 6.1 5.5 6.0 1.8 6.0 C-0.2 6.0 -0.2 6.0 -2.1 6.0 C-3.5 6.0 -4.8 6.0 -6.2 6.1 C-7.6 6.1 -8.9 6.1 -10 6.1 C-14 6.1 -17 6.1 -20 6.2 C-21 5.5 -21 4.9 -21 4.2 C-21 4.2 -20 4.2 -19 4.2 C-19 3.5 -19 2.9 -19 2.2 C-18 1.8 -16 1.5 -14 1.2 C-13 1.0 -13 0.8 -12 0.7 C-7.8 0.1 -3.9 -0.0 0 0 Z " fill="#C98E36" transform="translate(1724.3125,1584.8125)"/><path d="M0 0 C4.3 0.6 7.7 2.1 12 4 C20 8.2 29 9.7 39 7.3 C40 6.8 42 6.2 43 5.7 C46 4.7 48 4.8 51 5 C51 7.8 50 9.0 48 11 C40 16 30 17 20 15 C12 13 5.6 9.6 0 4 C0 2.7 0 1.4 0 0 Z " fill="#C7923F" transform="translate(1751,1772)"/><path d="M0 0 C-1.5 4.1 -3.8 5.4 -7.5 7.5 C-8.6 8.2 -9.8 8.9 -11 9.5 C-12 10 -13 11 -15 12 C-16 12 -17 13 -18 14 C-21 15 -23 17 -26 18 C-29 20 -33 22 -37 24 C-38 25 -39 26 -41 27 C-44 29 -46 30 -49 32 C-52 34 -52 34 -55 34 C-55 33 -55 32 -55 31 C-56 31 -58 30 -59 30 C-8.9 0 -8.9 0 0 0 Z " fill="#B78B46" transform="translate(1638,1557)"/><path d="M0 0 C2.0 -0.0 4.0 -0.0 6.0 -0.0 C15 -0.1 23 0.7 32 2.2 C32 3.7 32 3.7 33 5.2 C34 5.7 34 5.7 35 6.2 C35 6.5 34 6.8 34 7.2 C31 7.1 28 7.0 25 6.8 C23 6.7 21 6.6 19 6.5 C16 6.3 13 6.1 10 5.9 C-0.2 5.3 -10 4.8 -20 6.7 C-25 7.4 -29 7.4 -33 7.2 C-32 5.3 -32 5.3 -31 3.2 C-29 2.4 -29 2.4 -27 2.0 C-26 1.9 -26 1.7 -25 1.6 C-17 0.4 -8.4 -0.0 0 0 Z " fill="#CB8D32" transform="translate(1709.154541015625,1428.814697265625)"/><path d="M0 0 C1.0 0.3 2.0 0.7 3 1 C3 3.6 3 6.3 3 9 C2.3 9 1.7 9 1 9 C1.0 9.6 0.9 10 0.9 11 C0.3 18 -1.2 24 -3 31 C-3.7 31 -4.3 31 -5 31 C-5.2 32 -5.4 33 -5.6 33 C-7.6 38 -10 43 -13 48 C-15 44 -15 41 -15 37 C-14 34 -13 31 -12 28 C-11 28 -11 27 -11 26 C-9.2 23 -7.7 19 -6 16 C-5.7 16 -5.3 17 -5 17 C-4.9 16 -4.7 16 -4.6 15 C-4.1 12 -3.5 9.7 -3 7 C-2.9 6.1 -2.7 5.2 -2.6 4.3 C-2 2 -2 2 0 0 Z " fill="#C78F39" transform="translate(1580,1776)"/><path d="M0 0 C0 0.7 0 1.3 0 2 C0.7 2.7 1.3 3.3 2 4 C-2.0 6.7 -6.2 8.3 -11 10 C-13 11 -13 11 -15 12 C-17 13 -17 13 -21 13 C-21 14 -21 14 -21 15 C-23 16 -24 17 -26 18 C-27 19 -28 19 -29 20 C-32 21 -34 21 -37 21 C-37 17 -37 17 -36 15 C-32 12 -29 10 -25 8.4 C-24 8.1 -23 7.7 -22 7.3 C-15 3.5 -8.4 0 0 0 Z " fill="#C58B30" transform="translate(1651,1440)"/><path d="M0 0 C0.7 0 1.3 0 2 0 C2 1.6 2 3.3 2 5 C0.7 5.3 -0.6 5.7 -2 6 C-2 7.7 -2 9.3 -2 11 C-3.0 11 -3.0 11 -4 12 C-4.2 13 -4.5 14 -4.7 16 C-6.1 23 -9.7 29 -13 35 C-14 35 -16 35 -17 35 C-17 36 -17 38 -17 39 C-18 39 -18 39 -19 39 C-20 41 -20 44 -21 46 C-23 46 -23 46 -26 47 C-25 42 -23 38 -21 33 C-20 33 -20 33 -19 33 C-19 32 -19 31 -18 31 C-17 26 -15 23 -12 19 C-11 16 -9.4 13 -8 10 C-7.0 10 -6.0 10 -5 10 C-4.3 7.7 -3.7 5.4 -3 3 C-2.3 3 -1.7 3 -1 3 C-0.7 2.0 -0.3 1.0 0 0 Z " fill="#C88C30" transform="translate(1648,1574)"/><path d="M0 0 C0.6 0.3 1.3 0.7 1.9 1.0 C2.8 1.5 3.7 1.9 4.6 2.4 C5.8 3.0 5.8 3.0 7.1 3.7 C10 5.2 14 6.1 17 7 C17 16 18 24 18 33 C18 35 18 37 18 39 C18 48 17 56 15 65 C15 65 14 65 14 65 C14 64 14 64 14 63 C15 55 15 47 15 39 C15 37 15 35 15 33 C15 21 15 21 13 9 C11 7.6 11 7.6 9 7 C9.0 8.2 9.0 9.5 9.0 11 C9.1 15 9.1 20 9.1 25 C9.1 27 9.1 29 9.2 31 C9.3 43 9.3 56 6 68 C-0.1 68 -4.3 65 -9 61 C-9 61 -9 60 -9 60 C-7.3 60 -5.7 60 -4 60 C-3.7 61 -3.3 62 -3 63 C-0.4 63 2.3 63 5 63 C5.0 62 5.0 61 4.9 60 C5 56 5 56 6 55 C7.2 44 7.1 32 7.1 21 C7.1 19 7.1 18 7.0 16 C7.0 13 7.0 8.8 7 5 C6.2 4.7 5.4 4.4 4.6 4.1 C2 3 2 3 0 2 C0 1.3 0 0.7 0 0 Z " fill="#F8E8C6" transform="translate(1572,1708)"/><path d="M0 0 C2.2 0.5 4.0 1.0 6 2 C6 2.7 6 3.3 6 4 C6.8 4.3 7.6 4.5 8.4 4.8 C9.3 5.2 10 5.6 11 6 C11 7.0 12 8.0 12 9 C13 9 14 9 15 9 C16 10 17 11 18 12 C20 14 21 15 22 16 C26 20 30 24 33 29 C33 29 34 30 34 31 C36 33 37 35 37 38 C36 38 36 38 35 38 C35 39 35 39 34 40 C33 38 32 37 31 35 C30 34 29 33 29 32 C27 29 27 28 26 25 C24 24 24 24 22 23 C22 22 22 22 22 21 C21 21 21 21 20 21 C20 20 20 20 20 19 C19 19 19 19 18 19 C14 17 12 14 8.9 12 C8.2 11 7.6 11 7.0 10 C3.6 6.9 1.2 4.5 0 0 Z " fill="#C48F3F" transform="translate(1797,1490)"/><path d="M0 0 C1.0 0.3 2.0 0.7 3 1 C4.2 4.0 4.1 7.0 4.1 10 C4.1 11 4.1 12 4.1 13 C4.1 14 4.1 15 4.1 16 C4.1 17 4.1 19 4.1 20 C3.9 43 3.9 43 0 50 C-1.5 50 -1.5 50 -3 51 C-2.9 50 -2.7 48 -2.6 47 C-1.0 31 -0.4 16 0 0 Z " fill="#C48A35" transform="translate(1583,1724)"/><path d="M0 0 C0.7 0.3 1.3 0.7 2 1 C1.3 1.7 0.6 2.3 -0.1 3.0 C-9.2 12 -16 21 -23 32 C-23 32 -24 32 -24 32 C-24 30 -24 29 -24 27 C-23 27 -22 26 -21 26 C-21 24 -21 23 -21 21 C-20 21 -19 20 -18 20 C-18 18 -17 17 -17 15 C-21 17 -21 17 -23 21 C-23 22 -23 22 -23 23 C-23 24 -24 24 -24 25 C-25 25 -26 25 -27 25 C-27 26 -27 27 -28 27 C-29 32 -31 36 -34 40 C-34 41 -34 41 -35 42 C-36 44 -37 46 -38 48 C-39 48 -39 48 -40 48 C-33 30 -23 15 -10 1 C-9.3 1.3 -8.7 1.7 -8 2 C-11 5.0 -13 7.9 -16 11 C-13 11 -12 10 -9 9 C-7.4 7.3 -5.9 5.5 -4.4 3.7 C-3 2 -3 2 0 0 Z " fill="#B98A40" transform="translate(1667,1559)"/><path d="M0 0 C1.9 -0.0 1.9 -0.0 3.8 -0.0 C9.9 0.0 15 0.2 21 2.3 C21 2.6 21 3.0 21 3.3 C20 3.3 19 3.3 18 3.2 C-18 2.5 -49 9.0 -82 23 C-82 22 -82 21 -82 20 C-81 20 -79 20 -78 20 C-78 20 -78 19 -78 18 C-76 18 -75 18 -73 18 C-73 18 -73 17 -73 16 C-71 16 -69 15 -68 14 C-67 14 -66 14 -65 13 C-62 12 -62 12 -60 12 C-60 12 -60 11 -60 10 C-59 10 -58 10 -57 9.9 C-53 9.3 -50 8.4 -46 7.3 C-42 6.1 -37 4.9 -33 3.8 C-31 3.4 -29 2.9 -28 2.4 C-18 0.3 -9.4 0.0 0 0 Z " fill="#FAEDC9" transform="translate(1710.0625,1424.6875)"/><path d="M0 0 C-0.4 2.2 -0.4 2.2 -2 5 C-4.8 6.7 -7.8 7.9 -11 9.1 C-12 9.8 -14 10 -16 11 C-16 11 -17 12 -18 12 C-20 13 -20 13 -23 15 C-25 16 -25 16 -28 16 C-28 17 -28 17 -28 18 C-29 18 -31 18 -32 18 C-32 19 -32 19 -32 20 C-34 21 -37 21 -39 22 C-39 21 -38 19 -38 18 C-37 18 -37 18 -36 18 C-36 17 -35 16 -35 15 C-33 14 -33 14 -31 14 C-30 14 -30 15 -29 15 C-29 14 -29 14 -29 13 C-28 11 -28 11 -25 9.3 C-22 8 -22 8 -19 7.4 C-18 7.3 -18 7.1 -17 7 C-17 6.3 -16 5.7 -16 5 C-15 5 -15 5 -14 5 C-14 4.3 -14 3.7 -14 3 C-4.6 -0.4 -4.6 -0.4 0 0 Z " fill="#CA8F30" transform="translate(1714,1529)"/><path d="M0 0 C1.3 0.3 2.6 0.7 4 1 C4 1.7 4 2.3 4 3 C8.6 3 13 3 18 3 C18 4.0 18 4.0 19 5 C18 4.9 18 4.9 16 4.9 C8.6 4.6 8.6 4.6 1.5 6.5 C-6.4 14 -10 22 -11 33 C-12 33 -12 33 -13 33 C-13 31 -14 28 -14 26 C-14 25 -14 25 -14 24 C-15 19 -14 16 -11 12 C-9.6 11 -8.3 9.5 -7 8 C-5.7 6.5 -4.4 5.0 -3.1 3.4 C-2.0 2.3 -1.0 1.1 0 0 Z " fill="#FAEED0" transform="translate(1561,1611)"/><path d="M0 0 C4.5 3.6 8.1 6.9 11 12 C11 13 11 13 11 14 C12 14 13 15 14 15 C16 23 14 30 12 38 C10 40 10 40 7.8 41 C7.2 41 6.6 41 6 41 C6.5 38 7.1 36 8.0 33 C10 26 10 18 6.8 11 C5.3 8.4 4.2 7.1 1.8 5.5 C1.2 5.0 0.6 4.5 0 4 C0 2.7 0 1.4 0 0 Z M5 41 C6 44 6 44 5 47 C4.0 47 3.0 47 2 47 C2.6 44 2.9 43 5 41 Z " fill="#C38C34" transform="translate(1777,1447)"/><path d="M0 0 C4.8 -0.5 7.9 -0.8 12 2.1 C16 7.8 16 13 16 20 C16 21 15 21 15 22 C14 22 14 22 13 22 C12 21 12 21 11 20 C9.0 20 7.0 19 5 19 C5 19 5 18 5 18 C6.7 18 8.3 18 10 18 C9.7 17 9.4 15 9.1 14 C8.9 13 8.7 12 8.5 11 C8.1 9.0 8.1 9.0 7 7 C4.4 7 1.7 7 -1 7 C-1 6.3 -1 5.7 -1 5 C-0.3 5 0.3 5 1 5 C0.7 3.4 0.3 1.7 0 0 Z " fill="#C39247" transform="translate(1795,1741)"/><path d="M0 0 C0.7 2.2 1.1 3.6 0.5 5.8 C-0.1 8.5 -0.1 11 -0.1 14 C-0.1 15 -0.1 16 -0.1 17 C-0.1 18 -0.1 20 -0.1 21 C-0.1 22 -0.1 23 -0.0 24 C-0.0 27 -0.0 30 0 33 C-1.9 33 -1.9 33 -4 32 C-5.8 28 -5.9 24 -6.4 20 C-7.0 17 -7.8 15 -9 12 C-8.0 11 -7.0 11 -6 10 C-5.7 9.2 -5.3 8.3 -5 7.4 C-4.7 6.6 -4.3 5.8 -4 5 C-3.0 4.7 -2.0 4.3 -1 4 C-0.3 2.0 -0.3 2.0 0 0 Z " fill="#CB9038" transform="translate(1556,1635)"/><path d="M0 0 C1.1 0.0 1.1 0.0 2.1 0.0 C4.4 0.0 6.6 0.0 8.9 0.1 C10 0.1 12 0.1 13 0.1 C17 0.1 21 0.2 25 0.2 C25 1.5 25 2.8 25 4.2 C11 4.5 -2.4 4.9 -16 5.2 C-17 4.5 -17 3.9 -17 3.2 C-16 3.1 -15 2.9 -14 2.8 C-8.8 1.9 -5.5 -0.1 0 0 Z " fill="#C38932" transform="translate(1762.29296875,1756.8046875)"/><path d="M0 0 C4.3 3.9 6.1 7.3 6.4 13 C6.1 24 -0.5 33 -8.4 41 C-13 44 -17 47 -22 50 C-22 49 -22 49 -23 47 C-20 45 -20 45 -17 45 C-17 44 -17 44 -17 43 C-15 42 -14 42 -12 41 C-12 40 -12 39 -12 38 C-11 38 -11 38 -10 38 C-10 37 -10 37 -10 36 C-9.3 36 -8.7 36 -8 36 C-8 35 -8 35 -8 34 C-7.4 34 -6.7 33 -6.1 33 C-3.7 32 -3.7 32 -3 29 C-2.3 29 -1.7 29 -1 29 C-0.7 28 -0.3 26 0 25 C0.7 25 1.3 25 2 25 C2.1 22 2.1 19 2.1 16 C2.1 15 2.2 14 2.2 13 C2.2 12 2.2 11 2.2 10 C2.2 9.7 2.2 8.9 2.2 8.1 C2.1 5.7 2.1 5.7 0 3 C0 2.0 0 1.0 0 0 Z " fill="#F7EAC6" transform="translate(1780,1456)"/><path d="M0 0 C1.0 3.1 0.9 4.0 0 7 C1.3 7 2.6 7 4 7 C5.0 5.0 6.0 3.0 7 1 C8.2 4.6 7.4 5.8 5.8 9.1 C5.4 9.8 5.1 10 4.8 11 C2.0 17 -0.2 22 -2 28 C-3.0 25 -3.0 22 -2.6 19 C-2.4 18 -2.4 18 -2.3 17 C-2.2 16 -2.1 16 -2 15 C-5.9 18 -6.2 20 -7.2 25 C-7.4 25 -7.5 26 -7.7 27 C-8.2 29 -8.6 30 -9 32 C-9.7 32 -10 31 -11 31 C-9.5 20 -5.3 9.6 0 0 Z " fill="#BE8E45" transform="translate(1532,1637)"/><path d="M0 0 C1.9 3.7 2.2 4.8 2.1 8.8 C2.1 9.5 2.1 10 2.1 11 C2.0 12 2.0 12 2 13 C0.2 13 0.2 13 -1.7 13 C-13 15 -24 16 -32 25 C-33 28 -34 30 -34 33 C-36 33 -37 33 -39 33 C-42 38 -44 43 -45 49 C-45 49 -46 49 -46 49 C-46 42 -45 37 -41 31 C-38 31 -38 31 -35 31 C-35 30 -35 29 -35 28 C-35 25 -35 25 -33 22 C-30 20 -29 19 -26 19 C-26 18 -26 18 -26 17 C-17 12 -9.9 11 0 12 C0 8.0 0 4.1 0 0 Z " fill="#F9ECC9" transform="translate(1847,1587)"/><path d="M0 0 C-1.0 0.3 -2.0 0.7 -3 1 C-4.2 3.0 -4.2 3.0 -5 5 C-4.1 4.8 -4.1 4.8 -3.3 4.6 C1.5 3.5 6.2 2.6 11 2 C8.2 4.8 4.8 5.4 1.1 6.6 C-13 11 -26 17 -39 25 C-40 25 -40 26 -41 26 C-42 26 -43 25 -44 25 C-42 24 -41 23 -39 22 C-38 22 -37 21 -37 20 C-34 19 -33 18 -30 18 C-30 17 -30 17 -30 16 C-29 16 -28 15 -27 15 C-21 13 -14 10.0 -8 7 C-8.7 6.3 -9.3 5.7 -10 5 C-9.7 4.3 -9.3 3.7 -9 3 C-11 3.3 -14 3.7 -16 4 C-13 2.3 -11 1.3 -8.6 0.3 C-7.4 -0.1 -7.4 -0.1 -6.3 -0.5 C-3.8 -1.0 -2.4 -0.8 0 0 Z " fill="#B5873E" transform="translate(1660,1437)"/><path d="M0 0 C2.8 2.8 2.9 6.0 3.6 9.8 C3.8 11 4.1 13 4.3 14 C4.5 15 4.8 17 5 18 C5.2 19 5.4 20 5.5 20 C6.4 25 6.2 31 6.2 36 C6.2 37 6.2 38 6.2 39 C6.2 45 5.8 51 4.4 57 C3.8 60 3.8 64 3.9 67 C3.9 68 3.9 70 3.9 71 C4.0 72 4.0 73 4 74 C3.7 74 3.3 74 3 74 C1.6 67 0.5 62 2.5 55 C3.2 52 3.1 49 3.1 46 C3.1 45 3.1 45 3.1 44 C3.1 42 3.1 41 3.1 39 C3.1 37 3.1 35 3.1 32 C3.1 31 3.1 29 3.1 28 C3.1 27 3.1 25 3.1 24 C3.2 21 3.2 21 2 19 C1.8 17 1.6 16 1.5 14 C1.1 9.2 0.6 4.6 0 0 Z " fill="#B48945" transform="translate(1851,1516)"/><path d="M0 0 C1.0 0.3 2.0 0.7 3 1 C3 6.3 3 12 3 17 C3.7 17 4.3 17 5 17 C5 18 5 18 5 19 C4.3 19 3.7 20 3 20 C3.5 21 3.9 22 4.4 24 C6.4 30 7.2 36 8 42 C8.1 43 8.2 44 8.3 45 C8.6 46 8.8 48 9 50 C6.5 48 6.3 46 5.5 42 C5.2 41 5.0 40 4.7 39 C4.1 37 3.6 34 3.2 31 C2.2 26 0.1 21 -2.0 16 C-4 11 -4 11 -4 9 C-3.0 8.4 -3.0 8.4 -2 7.8 C0.4 6.1 0.4 6.1 0.2 2.8 C0.2 1.9 0.1 1.0 0 0 Z " fill="#C6954A" transform="translate(1545,1627)"/><path d="M0 0 C-0.4 6.6 -1.6 13 -3.3 19 C-4.0 22 -4.5 25 -5 28 C-5.3 28 -5.7 28 -6 28 C-6.3 26 -6.7 23 -7 21 C-8.3 23 -9.6 25 -11 27 C-12 23 -12 21 -11 17 C-10 17 -9.7 17 -9 17 C-8.8 16 -8.5 15 -8.3 14 C-7.9 13 -7.6 11 -7.2 10 C-6.9 8.9 -6.6 7.7 -6.3 6.4 C-5.2 3.4 -3.7 0 0 0 Z " fill="#C88F38" transform="translate(1531,1651)"/><path d="M0 0 C0 0.7 0 1.3 0 2 C-0.7 2 -1.3 2 -2 2 C-2.1 2.6 -2.1 3.2 -2.2 3.8 C-3.4 7.0 -5.3 7.9 -8.2 9.7 C-9.2 10 -10 11 -11 12 C-14 13 -16 14 -19 14 C-19 13 -19 12 -19 11 C-20 11 -22 10 -23 10 C-20 8.3 -18 6.7 -15 5 C-14 4.5 -13 4.0 -13 3.6 C-8.2 0.9 -5.2 -0.7 0 0 Z " fill="#BE914B" transform="translate(1602,1577)"/><path d="M0 0 C1.1 -0.0 2.3 -0.0 3.5 -0.0 C6.5 0.2 6.5 0.2 9.5 2.2 C9.5 3.5 9.5 4.8 9.5 6.2 C8.1 6.1 8.1 6.1 6.6 6.1 C5.4 6.1 4.2 6.0 2.9 6 C1.6 6.0 0.4 5.9 -0.9 5.9 C-4.8 6.2 -7.1 7.3 -10 9.2 C-11 9.2 -12 9.2 -14 9.2 C-13 5.5 -12 3.5 -9.5 1.2 C-6.2 0.1 -3.5 0.0 0 0 Z " fill="#BB8C43" transform="translate(1783.5,1705.8125)"/><path d="M0 0 C0.3 0 0.7 0 1 0 C3.1 13 4.5 25 4 38 C2.2 35 1.3 33 0.4 30 C0.1 29 -0.2 29 -0.5 28 C-1.1 26 -1.7 24 -2.3 22 C-3.9 17 -5.7 13 -8 8 C-8.2 5.1 -8.2 5.1 -8 3 C-6.3 5.5 -5.1 7.7 -3.9 10 C-3.6 11 -3.3 12 -2.9 13 C-2.1 15 -1.5 17 -1 19 C-0.3 19 0.3 19 1 19 C0.8 18 0.7 17 0.5 16 C-0.2 10 -0.1 5.3 0 0 Z " fill="#F9ECCC" transform="translate(1847,1525)"/><path d="M0 0 C1.3 0.3 2.6 0.7 4 1 C3 4 3 4 1 5 C0.3 7.0 0.3 7.0 0 9 C-0.7 9 -1.3 9 -2 9 C-2.1 9.8 -2.2 11 -2.2 12 C-3.2 16 -4.8 18 -7 22 C-7.7 22 -8.3 22 -9 22 C-9 23 -9 23 -9 24 C-9.7 24 -10 24 -11 24 C-11 22 -11 21 -11 19 C-11 18 -11 17 -11 17 C-11 14 -10 12 -8 10 C-7.5 9.4 -7.1 8.8 -6.6 8.1 C-4.5 5.3 -2.3 2.7 0 0 Z " fill="#C58A30" transform="translate(1565,1506)"/><path d="M0 0 C1.0 0.3 2.0 0.7 3 1 C1.8 2.0 0.7 2.9 -0.5 3.8 C-1.1 4.3 -1.8 4.9 -2.5 5.4 C-9.0 9.5 -15 10 -23 10 C-24 10 -24 10 -25 10 C-33 10 -40 9.0 -47 7 C-47 6.7 -47 6.3 -47 6 C-42 5.4 -36 4.9 -31 5 C-31 6.3 -31 7.6 -31 9 C-30 8.7 -29 8.3 -28 8 C-25 7.0 -22 7.0 -18 7.1 C-13 7.2 -8.1 6.2 -3 4 C-3 3.3 -3 2.7 -3 2 C-2.0 1.3 -1.0 0.7 0 0 Z " fill="#F8EAC9" transform="translate(1786,1825)"/><path d="M0 0 C0.3 0 0.7 0 1 0 C0.9 0.6 0.9 1.3 0.8 1.9 C0.0 10 -0.1 18 -0.1 26 C-0.1 27 -0.1 28 -0.1 30 C-0.1 36 0.3 42 1 49 C1.5 56 1.4 60 -3 65 C-4 62 -4 62 -3.1 60 C-2.5 59 -2.5 59 -2 58 C-1.7 56 -1.7 56 -1.8 54 C-1.8 53 -1.8 52 -1.8 51 C-1.8 50 -1.8 50 -1.8 49 C-1.8 48 -1.8 47 -1.8 46 C-1.5 42 -1.5 42 -3 39 C-3.3 35 -3.2 30 -3.2 26 C-3.3 25 -3.3 24 -3.3 23 C-3.3 15 -2.3 7.6 0 0 Z " fill="#FCF0D0" transform="translate(1538,1568)"/><path d="M0 0 C0.3 0 0.7 0 1 0 C1 12 1 23 1 35 C-1 34 -1 34 -3 31 C-3.4 27 -3.3 22 -3.3 18 C-3.3 17 -3.3 16 -3.4 15 C-3.4 13 -3.4 12 -3.4 11 C-3.4 10 -3.4 9.0 -3.4 7.9 C-2.9 4.6 -1.9 2.7 0 0 Z " fill="#C98B2B" transform="translate(1542,1577)"/><path d="M0 0 C0.3 0 0.7 0 1 0 C1 3.3 1 6.6 1 10 C2.3 10 3.6 11 5 11 C4.7 13 4.4 15 4.1 17 C3.9 18 3.7 19 3.5 20 C3.1 22 2.6 25 2 27 C0.3 27 -1.3 27 -3 27 C-3.5 18 -1.9 9.1 0 0 Z " fill="#BE8F48" transform="translate(1692,1872)"/><path d="M0 0 C0.3 0 0.7 0 1 0 C1.0 2.7 1.0 5.5 1.1 8.2 C1.1 9.0 1.1 9.7 1.1 11 C1.1 11 1.1 12 1.1 13 C1.1 13 1.1 14 1.1 15 C1 17 1 17 0.5 19 C-0.1 22 -0.2 25 -0.3 29 C-0.4 30 -0.4 31 -0.4 32 C-0.5 34 -0.5 35 -0.6 36 C-0.6 38 -0.6 39 -0.7 40 C-0.8 44 -0.9 47 -1 50 C-0.0 50 1.0 51 2 51 C0.6 53 0.6 53 -1 55 C-1.7 55 -2.3 55 -3 55 C-3.1 50 -3.1 45 -3.2 40 C-3.2 39 -3.2 37 -3.2 35 C-3.4 23 -2.4 12 0 0 Z " fill="#F7E6C3" transform="translate(1548,1562)"/><path d="M0 0 C0.7 0.3 1.3 0.7 2 1 C1.6 1.5 1.2 2.0 0.8 2.6 C-12 20 -20 39 -27 60 C-27 60 -28 60 -28 60 C-27 49 -23 39 -18 29 C-17 27 -16 24 -15 22 C-14 21 -14 19 -13 18 C-13 17 -12 17 -12 16 C-11 14 -9.5 12 -8 10 C-7.5 9.3 -7.0 8.6 -6.5 7.9 C-6.0 7.3 -5.5 6.6 -4.9 5.9 C-4.4 5.2 -3.9 4.5 -3.4 3.8 C-2 2 -2 2 0 0 Z " fill="#FAEDCD" transform="translate(1570,1492)"/><path d="M0 0 C0.7 0.3 1.3 0.7 2 1 C7.5 19 5.4 40 -2.7 57 C-3.1 57 -3.6 58 -4 59 C-5.3 56 -4.8 56 -4.0 53 C-3.8 52 -3.6 52 -3.4 51 C-3.1 50 -2.9 49 -2.6 48 C0.1 39 1.2 31 1.1 21 C1.1 20 1.1 19 1.1 18 C1.1 12 0.8 6.0 0 0 Z " fill="#FEF6DD" transform="translate(1849,1668)"/><path d="M0 0 C4.8 -0.6 6.9 1.0 11 3.9 C11 4.3 12 4.8 12 5.2 C44 31 44 31 47 47 C46 47 46 47 45 47 C45 46 44 46 44 45 C38 34 30 21 19 14 C19 13 19 13 19 12 C18 12 17 12 16 12 C15 11 13 9.4 12 8 C11 7.7 11 7.3 10 7 C10 6.3 10 5.7 10 5 C8.0 4.3 6.0 3.7 4 3 C5.0 4.3 6.0 5.6 7 7 C6.0 7 5.0 7 4 7 C0 2.7 0 2.7 0 0 Z " fill="#B58D4C" transform="translate(1793,1487)"/><path d="M0 0 C1.8 0.0 1.8 0.0 3.5 0.0 C4.4 0.0 5.3 0.1 6.2 0.1 C5.8 11 2.8 21 -0.8 32 C-1.1 32 -1.4 32 -1.8 32 C-1.3 28 -0.5 24 0.8 20 C2.2 15 2.9 9.5 3.2 4.1 C-4.7 2.9 -11 2.6 -18 7.1 C-19 7.1 -20 7.1 -21 7.1 C-21 6.4 -21 5.7 -21 5.1 C-19 4.4 -18 3.8 -16 3.1 C-15 2.8 -14 2.4 -13 2.0 C-8.7 0.3 -5.0 -0.0 0 0 Z " fill="#FBEFD0" transform="translate(1843.75,1607.9375)"/><path d="M0 0 C-0.7 2.0 -1.3 4.0 -2 6 C-2.9 6.1 -3.9 6.2 -4.9 6.2 C-5.9 6.5 -6.9 6.7 -8 7 C-8.7 8.3 -9.4 9.7 -10 11 C-13 15 -17 18 -22 18 C-21 14 -18 11 -15 7.9 C-14 6.6 -14 6.6 -13 5.3 C-8.5 1.7 -5.6 -0.5 0 0 Z " fill="#CA9236" transform="translate(1672,1554)"/><path d="M0 0 C0.7 0.3 1.3 0.7 2 1 C1.2 1.6 0.4 2.1 -0.4 2.7 C-3.1 5.1 -4.0 6.6 -5 10 C-4.4 9.6 -3.8 9.3 -3.2 8.9 C-1 8 -1 8 2 9 C-1.1 11 -4.1 12 -7.2 14 C-8.1 14 -8.9 15 -9.8 15 C-11 16 -11 16 -12 17 C-13 17 -14 18 -15 18 C-17 19 -19 20 -22 20 C-22 19 -22 19 -22 18 C-21 18 -21 18 -20 17 C-19 17 -19 17 -18 17 C-17 17 -17 16 -16 16 C-14 15 -14 15 -13 13 C-13 12 -13 12 -13 11 C-15 11 -17 12 -19 12 C-16 8.5 -12 6.5 -7.9 4.2 C-7.2 3.8 -6.5 3.4 -5.7 3.0 C-5.0 2.6 -4.3 2.2 -3.6 1.8 C-2.9 1.4 -2.3 1.0 -1.6 0.7 C-1.1 0.4 -0.6 0.2 0 0 Z " fill="#BC8E44" transform="translate(1758,1505)"/><path d="M0 0 C0.3 0 0.7 0 1 0 C1.5 1.7 2.0 3.5 2.4 5.2 C2.7 6.2 3.0 7.1 3.2 8.1 C4 11 4 11 4.5 14 C4.7 15 4.7 15 5 16 C5.7 16 6.3 17 7 17 C10 24 10 31 10 38 C9.0 37 8.0 37 7 36 C6.8 34 6.7 32 6.5 30 C5.8 26 4.5 23 3.1 19 C0.8 13 -0.9 8.0 -2 2 C-1.3 2 -0.7 2 0 2 C0 1.3 0 0.7 0 0 Z " fill="#C68D38" transform="translate(1808,1668)"/><path d="M0 0 C0.3 0 0.7 0 1 0 C1.5 26 1.0 51 -9 76 C-10 72 -9.2 68 -8.1 64 C-7.9 63 -7.7 62 -7.5 61 C-7.0 60 -6.5 58 -6 56 C-5.3 56 -4.7 56 -4 56 C-4.0 55 -4.1 54 -4.1 53 C-4.1 50 -3.8 47 -3.1 44 C-1.3 36 -1.3 27 -0.9 18 C-0.8 17 -0.7 15 -0.6 13 C-0.4 8.7 -0.2 4.3 0 0 Z " fill="#B68A47" transform="translate(1587,1729)"/><path d="M0 0 C0.1 4.1 -0.2 7.9 -1 12 C-1.7 12 -2.3 12 -3 12 C-3.4 14 -3.4 14 -3.9 16 C-4.6 19 -5.2 20 -7 23 C-9.6 24 -9.6 24 -12 25 C-11 21 -10 18 -9.4 15 C-9.2 14 -8.9 13 -8.6 12 C-8.3 11 -8.3 11 -8 10 C-7.0 10 -6.0 10 -5 10 C-5.1 9.1 -5.2 8.2 -5.2 7.2 C-5 4 -5 4 -3.1 1.6 C-1 0 -1 0 0 0 Z " fill="#C88F38" transform="translate(1846,1711)"/><path d="M0 0 C0.8 -0.0 1.6 -0.0 2.4 -0.0 C4.0 -0.0 5.7 -0.0 7.3 0.0 C9.9 0.0 12 0.0 15 -0.0 C17 -0.0 18 -0.0 20 0 C21 -0.0 21 -0.0 22 -0.0 C27 0.0 32 0.5 37 2.1 C37 2.8 37 3.5 37 4.1 C38 4.3 39 4.4 40 4.5 C48 6.0 48 6.0 51 9.1 C51 9.8 51 10 51 11 C48 10.0 44 8.8 41 7.7 C39 7.1 38 6.6 36 6.1 C35 5.8 34 5.5 34 5.3 C33 5.0 32 4.7 31 4.5 C31 4.2 30 4.0 29 3.8 C25 2.5 22 2.0 17 2 C16 2.0 16 2.0 14 2.0 C13 2.0 12 2.0 10 2.0 C8.6 2.0 8.6 2.0 6.8 2.0 C1.1 2.0 -4.3 2.1 -9.9 3.1 C-9.9 2.5 -9.9 1.8 -9.9 1.1 C-6.7 -0.4 -3.4 -0.0 0 0 Z " fill="#F4E5C2" transform="translate(1711.859375,1582.8671875)"/><path d="M0 0 C2.1 0.1 4.2 0.2 6.3 0.3 C8.1 0.4 8.1 0.4 9.9 0.5 C13 1 13 1 15 2.4 C16 4 16 4 16 6 C14 6.7 11 7.4 8.7 8.1 C8.0 8.3 7.3 8.5 6.6 8.7 C1.3 10 1.3 10 -2 9 C-2 8.0 -2 7.0 -2 6 C-1.3 6 -0.7 6 0 6 C0 4.0 0 2.0 0 0 Z " fill="#CA8D35" transform="translate(1703,1690)"/><path d="M0 0 C-1.0 0.7 -2.0 1.3 -3 2 C-4.2 4.1 -4.2 4.1 -5 6 C-5.7 6 -6.3 6 -7 6 C-7 6.7 -7 7.3 -7 8 C-8.7 9.0 -10 10 -12 11 C-14 12 -14 12 -15 13 C-18 14 -20 14 -23 14 C-23 10 -23 10 -22 8 C-19 8.5 -19 8.5 -16 9 C-16 8.0 -16 7.0 -16 6 C-14 5.0 -13 4.0 -11 3 C-9.8 2.4 -8.9 1.9 -7.9 1.3 C-5.0 -0.0 -3.2 -0.3 0 0 Z " fill="#CB8F31" transform="translate(1637,1447)"/><path d="M0 0 C0.6 1.9 0.6 1.9 1 4 C-1 6 -1 6 -4.2 6.2 C-6.1 6.2 -6.1 6.2 -8.1 6.2 C-9.3 6.2 -11 6.2 -12 6.2 C-15 6 -15 6 -16 5 C-18 4.9 -20 4.9 -23 4.9 C-24 4.9 -25 5.0 -26 5.0 C-28 5.0 -28 5.0 -29 5 C-29 4.0 -30 3.0 -30 2 C-40 2 -49 2 -59 2 C-59 1.7 -59 1.3 -59 1 C-54 1.0 -50 0.9 -45 0.9 C-44 0.9 -42 0.9 -40 0.8 C-32 0.8 -24 0.8 -16 2.6 C-13 3.2 -10 3.2 -6.8 3.1 C-5.7 3.1 -4.6 3.1 -3.5 3.1 C-2.2 3.0 -2.2 3.0 -1 3 C-0.7 2.0 -0.3 1.0 0 0 Z " fill="#F5E4BF" transform="translate(1810,1761)"/><path d="M0 0 C0.7 0 1.3 0 2 0 C1.7 2.3 1.3 4.6 1 7 C1.7 7.3 2.3 7.7 3 8 C2.3 8 1.7 8 1 8 C1 9.0 1 10.0 1 11 C0.3 11 -0.3 11 -1 11 C-1.3 12 -1.7 13 -2 14 C-1.9 12 -1.7 11 -1.6 9.2 C-1.5 8.4 -1.4 7.5 -1.3 6.6 C-1.0 4.3 -0.6 2.2 0 0 Z M4 3 C4.3 3.7 4.7 4.3 5 5 C5.7 5 6.3 5 7 5 C6.9 6.6 6.8 8.2 6.6 9.8 C6.6 11 6.5 12 6.4 12 C6.1 15 5.6 18 5 22 C3.8 28 3.6 35 3.4 42 C3.3 43 3.3 45 3.3 46 C3.2 49 3.1 52 3 55 C2.7 55 2.3 55 2 55 C1.9 51 1.9 46 1.9 42 C1.9 41 1.8 39 1.8 38 C1.8 31 2.2 24 3.5 18 C4.4 13 4.5 8.5 3 4 C3.3 3.7 3.7 3.3 4 3 Z " fill="#B89050" transform="translate(1542,1552)"/><path d="M0 0 C2.5 0.5 2.5 0.5 5 1 C5 2.3 5 3.6 5 5 C1.9 6.4 -0.9 7.2 -4.2 7.8 C-11 9.2 -17 13 -21 18 C-21 19 -22 20 -22 21 C-22 20 -23 19 -23 18 C-22 16 -22 16 -20 14 C-20 14 -19 13 -19 12 C-17 11 -17 11 -15 11 C-15 10 -15 9.7 -15 9 C-19 9.5 -22 11 -25 14 C-23 9.8 -21 7.7 -17 5 C-16 4.7 -15 4.3 -14 4 C-14 5.0 -13 6.0 -13 7 C-12 6.8 -11 6.6 -9.8 6.3 C-8.4 6.1 -7.0 5.8 -5.6 5.5 C-4.9 5.4 -4.2 5.2 -3.5 5.1 C1.8 4 1.8 4 4 4 C3.0 1.7 3.0 1.7 0 0 Z " fill="#B78942" transform="translate(1715,1692)"/><path d="M0 0 C4.0 0.3 7.9 0.7 12 1 C12 2.5 12 2.5 13 4 C14 4.3 14 4.7 15 5 C15 5.3 14 5.7 14 6 C11 5.9 8.4 5.8 5.6 5.7 C4.3 5.6 4.3 5.6 3.0 5.5 C0.3 5.4 -2.4 5.2 -5.1 5.1 C-6.9 5.0 -8.7 4.9 -11 4.8 C-15 4.5 -20 4.3 -24 4 C-24 3.7 -24 3.3 -24 3 C-12 2.5 -12 2.5 1 2 C0.7 1.3 0.3 0.7 0 0 Z " fill="#BD8633" transform="translate(1729,1430)"/><path d="M0 0 C-0.3 2.8 -1.0 4.0 -2.9 6.1 C-11 11 -21 12 -31 10 C-33 9.7 -36 9.1 -38 8 C-38 7.3 -39 6.7 -39 6 C-33 7 -33 7 -30 7.6 C-22 8.7 -12 8.9 -4 4 C-3.7 3.3 -3.3 2.7 -3 2 C-5.0 2 -7.0 2 -9 2 C-5.6 -0.3 -4.0 -0.2 0 0 Z " fill="#B8904F" transform="translate(1802,1777)"/><path d="M0 0 C0.3 0 0.7 0 1 0 C4.7 11 5.2 21 5.3 32 C5.3 34 5.3 34 5.4 35 C5.4 42 4.6 46 2 52 C1.7 52 1.3 52 1 52 C1.9 43 1.9 43 2.6 40 C3.9 32 2.8 24 1.5 17 C0.5 11 -0.2 5.8 0 0 Z " fill="#FCF2D6" transform="translate(1854,1575)"/><path d="M0 0 C0.3 0 0.7 0 1 0 C0.2 15 0.2 15 -2 21 C-3.3 21 -4.6 20 -6 20 C-6.5 13 -6.0 8.8 -2 3 C-1.3 2.0 -0.7 1.0 0 0 Z " fill="#C28935" transform="translate(1699,1862)"/><path d="M0 0 C1.3 -0.0 2.5 -0.0 3.8 -0.0 C9.9 0.0 15 0.2 21 2.3 C21 2.6 21 3.0 21 3.3 C20 3.3 19 3.3 18 3.3 C14 3.3 10 3.3 6.4 3.3 C4.8 3.3 3.1 3.2 1.5 3.2 C-0.9 3.2 -3.3 3.2 -5.6 3.2 C-6.3 3.2 -7.1 3.2 -7.8 3.2 C-13 3.2 -17 3.7 -22 4.3 C-24 4.4 -25 4.4 -27 4.4 C-28 4.4 -29 4.4 -29 4.3 C-30 4.3 -30 4.3 -31 4.3 C-31 4.0 -31 3.7 -31 3.3 C-21 0.6 -11 0.0 0 0 Z " fill="#FDF3D6" transform="translate(1710.0625,1424.6875)"/><path d="M0 0 C0 0.7 0 1.3 0 2 C1.0 2.0 2.1 2.0 3.2 2.1 C7.0 2.1 11 2.2 15 2.3 C16 2.4 18 2.4 20 2.4 C22 2.5 25 2.5 27 2.6 C28 2.6 29 2.6 29 2.6 C33 2.7 35 2.9 38 5 C40 5.5 40 5.5 42 5.6 C43 5.7 45 5.9 46 6 C46 4.3 46 2.7 46 1 C46 1 47 1 47 1 C47 3.0 47 5.0 47 7 C46 7.1 44 7.1 42 7.1 C42 7.1 41 7.2 40 7.2 C37 7 37 7 33 6.0 C29 4.9 25 4.7 20 4.6 C19 4.6 19 4.5 18 4.5 C15 4.5 13 4.4 10 4.4 C8.3 4.3 6.5 4.3 4.8 4.3 C0.5 4.2 -3.7 4.1 -8 4 C-8 3.3 -8 2.7 -8 2 C-2.2 0 -2.2 0 0 0 Z " fill="#FCE5BB" transform="translate(1758,1752)"/><path d="M0 0 C4.3 0.6 7.7 2.1 12 4 C18 7.0 22 8.1 29 8.1 C30 8.1 31 8.1 33 8.1 C36 8.0 38 7.7 41 7 C40 9.7 39 10.0 36 11 C23 12 13 8.7 2 2 C2 2.7 2 3.3 2 4 C2.7 4 3.3 4 4 4 C4.3 5.3 4.7 6.6 5 8 C2.5 6.2 2.5 6.2 0 4 C0 2.7 0 1.4 0 0 Z " fill="#B88F4B" transform="translate(1751,1772)"/><path d="M0 0 C-0.3 0.3 -0.7 0.7 -1 1 C-0.3 1.7 0.3 2.3 1 3 C-3.6 6 -3.6 6 -7 6 C-7 6.7 -7 7.3 -7 8 C-8.3 8 -9.6 8 -11 8 C-11 8.7 -11 9.3 -11 10 C-13 11 -16 11 -18 12 C-18 11 -17 9.4 -17 8 C-16 8 -16 8 -15 8 C-15 7.0 -14 6.0 -14 5 C-12 4.2 -12 4.2 -10 4 C-9.3 4.3 -8.7 4.7 -8 5 C-7.9 4.4 -7.8 3.8 -7.8 3.1 C-7 1 -7 1 -5.1 -0.3 C-3 -1 -3 -1 0 0 Z " fill="#CD953B" transform="translate(1693,1539)"/><path d="M0 0 C0.3 0.7 0.7 1.3 1 2 C3.0 2.7 5.0 3.4 7 4 C6.4 4.1 5.7 4.2 5.1 4.4 C4.4 4.6 3.7 4.8 3 5 C1.8 7.4 2.0 8.6 2.2 11 C2.2 12 2.3 13 2.4 14 C2.5 15 2.6 17 2.8 19 C2.8 20 2.9 21 2.9 22 C3.0 23 3.0 23 3.1 24 C3.0 26 2.2 28 1 30 C2.6 30 4.3 30 6 30 C4.7 30 3.4 31 2 31 C2 32 2 32 2 33 C-1.0 33 -1.0 33 -4 34 C-2 28 -2 28 -0.9 25 C0.1 22 0.3 19 0.2 15 C0.3 14 0.3 13 0.3 11 C-0.0 8.0 -0.8 5.2 -2 2 C-1.3 2 -0.7 2 0 2 C0 1.3 0 0.7 0 0 Z " fill="#F5E4BF" transform="translate(1791,1456)"/><path d="M0 0 C-1.6 3.2 -2.5 4.8 -5.8 6.4 C-6.8 6.7 -7.9 7.0 -8.9 7.4 C-10.0 7.7 -11 8.1 -12 8.4 C-15 9.0 -16 9.0 -19 8 C-18 5.7 -18 5.7 -16 3 C-11 0.9 -5.6 -0.2 0 0 Z " fill="#CE9134" transform="translate(1673,1434)"/><path d="M0 0 C0.3 0 0.7 0 1 0 C1.1 3.0 1.0 5.1 0 8 C-0.7 8 -1.3 8 -2 8 C-2.1 8.7 -2.1 9.3 -2.2 10.0 C-3.3 14 -5.5 18 -7.8 21 C-8.2 22 -8.6 23 -9.1 24 C-12 28 -15 32 -18 36 C-18 32 -17 31 -15 28 C-15 27 -14 26 -14 25 C-13 24 -12 23 -12 22 C-7.6 15 -3.6 7.5 0 0 Z " fill="#FBF0D4" transform="translate(1642,1593)"/><path d="M0 0 C1.3 0.3 2.6 0.7 4 1 C-1.3 4.3 -6.1 7.0 -12 9 C-12 10.0 -13 11 -13 12 C-13 10 -13 8.0 -13 6 C-12 5.9 -12 5.8 -11 5.6 C-8.0 5.1 -8.0 5.1 -5.9 3.9 C-4 3 -4 3 -1 3 C-0.7 2.0 -0.3 1.0 0 0 Z M-13 -1 C-12 -0.7 -11 -0.3 -10 0 C-9.7 1.0 -9.3 2.0 -9 3 C-10.0 4.5 -10.0 4.5 -12 6 C-15 6.1 -17 6.0 -20 5.7 C-21 5.6 -22 5.6 -22 5.5 C-24 5.3 -26 5.2 -28 5 C-26 3 -26 3 -24 2.8 C-20 2.8 -16 3.0 -12 4 C-12 2.4 -13 0.7 -13 -1 Z " fill="#F7E7C4" transform="translate(1805,1708)"/><path d="M0 0 C0.0 1.4 0.0 2.8 0.1 4.2 C0.1 5.0 0.1 5.8 0.1 6.6 C0.0 8.9 -0.4 11 -1 13 C-1.7 13 -2.3 13 -3 13 C-3.3 15 -3.7 16 -4 18 C-4.7 18 -5.3 18 -6 18 C-6.2 16 -6.4 15 -6.6 13 C-6.7 12 -6.7 12 -6.9 10 C-7 8 -7 8 -6 5 C-5.3 5 -4.7 5 -4 5 C-4 4.0 -4 3.0 -4 2 C-1 0 -1 0 0 0 Z " fill="#C88B30" transform="translate(1547,1558)"/><path d="M0 0 C-0.3 1.3 -0.7 2.6 -1 4 C-7.3 4 -14 4 -20 4 C-19 2.7 -19 1.4 -18 0 C-15 -0.5 -13 -0.7 -11 -0.8 C-9.5 -0.9 -9.5 -0.9 -8.5 -0.9 C-5.3 -1.1 -3.0 -1.0 0 0 Z " fill="#C58A33" transform="translate(1775,1837)"/><path d="M0 0 C2.4 0.4 2.4 0.4 5 1 C5.3 1.7 5.7 2.3 6 3 C6.8 2.9 7.5 2.9 8.3 2.8 C11 3 11 3 13 4.3 C14 6 14 6 14 9 C15 9.1 15 9.2 16 9.2 C19 10 21 12 24 14 C27 16 29 17 32 18 C32 18 33 19 34 19 C34 20 34 20 35 22 C30 21 26 18 21 15 C21 15 20 15 19 14 C13 9.9 6.2 5.7 0 1 C0 0.7 0 0.3 0 0 Z " fill="#F9EBCB" transform="translate(1646,1786)"/><path d="M0 0 C2 1 2 1 2.6 2.9 C4.0 9.7 4.3 16 4.2 23 C4.2 24 4.2 25 4.2 26 C4.2 31 4.0 36 3 41 C2.7 41 2.3 41 2 41 C2.0 40 1.9 40 1.9 39 C1.3 19 1.3 19 0 0 Z " fill="#BA9352" transform="translate(1847,1666)"/><path d="M0 0 C1.3 0 2.6 0 4 0 C4.8 1.7 4.8 1.7 5 4 C3.2 6.3 3.2 6.3 0.8 8.7 C-0.1 9.5 -0.9 10 -1.7 11 C-4 13 -4 13 -7 14 C-7 13 -7 13 -7 12 C-7.7 12 -8.3 12 -9 12 C-7.5 8.2 -5.2 6.5 -2 4 C-0.7 1.9 -0.7 1.9 0 0 Z " fill="#CB9138" transform="translate(1588,1476)"/><path d="M0 0 C1.0 0.3 2.0 0.7 3 1 C3 2.0 3 3.0 3 4 C2.3 4 1.7 4 1 4 C0.7 5.3 0.3 6.6 0 8 C0 7.3 0 6.7 0 6 C-3.1 7.7 -3.1 7.7 -3.9 10 C-5.3 12 -6.4 13 -9 14 C-9.7 14 -10 13 -11 13 C-11 14 -12 14 -12 15 C-13 14 -13 13 -14 12 C-11 8.1 -11 8.1 -7.5 7.6 C-4.7 7.2 -4.7 7.2 -2.8 4 C-2.2 3.0 -1.6 2.0 -1 1 C-0.7 0.7 -0.3 0.3 0 0 Z " fill="#CB9237" transform="translate(1774,1495)"/><path d="M0 0 C1.1 0.4 1.1 0.4 2.3 0.9 C5.7 2.2 9.2 3.5 13 4.8 C14 5.3 15 5.7 16 6.2 C24 9.1 32 11 40 13 C40 13 40 14 40 14 C31 15 22 12 14 8.0 C11 6.3 6.9 5.2 3.2 4.0 C2.5 3.7 1.8 3.3 1 3 C0.7 2.0 0.3 1.0 0 0 Z " fill="#BA8D48" transform="translate(1703,1819)"/><path d="M0 0 C0.9 0.5 1.9 1.0 2.8 1.5 C4.1 2.1 5.3 2.7 6.6 3.4 C7.2 3.7 7.8 4.0 8.4 4.3 C20 10 31 10 43 7 C43 7.7 43 8.3 43 9 C35 13 21 12 12 10.0 C9.7 8.8 7.4 7.6 5 6 C4.1 5.5 3.2 5.0 2.2 4.5 C1.5 4.0 0.8 3.5 0 3 C0 2.0 0 1.0 0 0 Z " fill="#FBF3D6" transform="translate(1753,1778)"/><path d="M0 0 C0.7 0.3 1.3 0.7 2 1 C0.6 5.3 -1.0 9.4 -2.8 13 C-3.4 15 -3.9 16 -4.4 17 C-5.0 18 -5.6 20 -6.1 21 C-6.7 22 -7.3 23 -7.8 25 C-9.2 28 -11 31 -12 34 C-13 30 -12 27 -11 23 C-11 22 -10 22 -10 21 C-9.4 19 -9.4 19 -8 16 C-7.0 16 -6.0 15 -5 15 C-5.1 14 -5.1 14 -5.1 13 C-5.0 9.9 -4.4 8.4 -3 6 C-2.3 6 -1.7 6 -1 6 C-1.0 5.2 -1.0 4.4 -1.1 3.6 C-1 1 -1 1 0 0 Z " fill="#FBF0D3" transform="translate(1808,1783)"/><path d="M0 0 C4.2 4.2 5.1 8.5 5.2 14 C5 18 5 18 4 20 C3.3 20 2.7 20 2 20 C1.3 19 0.7 19 0 18 C-2.0 18 -4.0 17 -6 17 C-6 17 -6 16 -6 16 C-4.3 16 -2.7 16 -1 16 C-1 15 -1 13 -1 12 C-0.3 12 0.3 12 1 12 C0.7 8.0 0.3 4.1 0 0 Z " fill="#C0995A" transform="translate(1806,1743)"/><path d="M0 0 C1.9 0.3 1.9 0.3 4 1 C5.2 2.7 5.2 2.7 6.1 4.8 C7.5 8.0 9.1 11 11 14 C14 14 14 14 18 13 C18 12 18 12 18 11 C19 11 19 11 20 11 C20 10 20 9.7 20 9 C21 9 21 9 22 9 C22 7.7 22 6.4 22 5 C23 5 23 5 24 5 C25 3.7 25 2.4 26 1 C27 1.3 27 1.7 28 2 C20 14 20 14 16 16 C12 16 12 16 9 16 C8.6 15 8.2 15 7.8 14 C7.3 13 6.7 12 6.2 11 C5.4 9.4 5.4 9.4 4.6 7.9 C3.1 5.2 1.6 2.6 0 0 Z " fill="#FBEECC" transform="translate(1589,1622)"/><path d="M0 0 C0.7 0.7 1.3 1.3 2 2 C-0.3 2.6 -0.3 2.6 -3 3 C-4.0 2.3 -5.0 1.7 -6 1 C-6.3 1.7 -6.7 2.3 -7 3 C-8.4 3.9 -8.4 3.9 -9.9 4.8 C-16 9.0 -17 15 -20 22 C-21 18 -20 16 -19 12 C-15 2.8 -11 -2.0 0 0 Z " fill="#FBF3D9" transform="translate(1578,1622)"/><path d="M0 0 C5.3 0.3 11 0.7 16 1 C16 2.0 16 3.0 16 4 C13 5.8 11 6.2 7.2 6.1 C6.5 6.1 5.7 6.1 4.8 6.1 C4.2 6.0 3.6 6.0 3 6 C3 5.3 3 4.7 3 4 C2.3 4 1.7 4 1 4 C0.7 2.7 0.3 1.4 0 0 Z " fill="#CD943F" transform="translate(1594,1637)"/><path d="M0 0 C3.8 3.4 5.7 6.0 7 11 C7.7 11 8.3 11 9 11 C9 12 9 12 9 13 C10 13 12 13 13 13 C14 12 15 12 16 12 C19 12 19 12 22 11 C22 10 23 9.0 23 8 C26 6.8 26 6.8 29 6 C25 11 23 13 17 15 C13 16 10 16 6.8 14 C0 3.9 0 3.9 0 0 Z " fill="#B48844" transform="translate(1588,1630)"/><path d="M0 0 C0.3 1.0 0.7 2.0 1 3 C-0.2 5.4 -1.5 7.6 -2.9 9.9 C-8.4 19 -12 29 -16 39 C-18 33 -15 26 -12 21 C-11 18 -9.1 16 -7.5 13 C-6.2 10 -5.5 8.6 -5 6 C-4.3 6 -3.7 6 -3 6 C-2.9 5.2 -2.8 4.4 -2.6 3.6 C-2.4 2.7 -2.2 1.9 -2 1 C-1.3 0.7 -0.7 0.3 0 0 Z " fill="#B48945" transform="translate(1568,1509)"/><path d="M0 0 C4 1 4 1 5.2 3.1 C6.2 6.8 6.1 10 6 14 C5.7 13 5.4 13 5.1 12 C4.2 9.8 4.2 9.8 2 9 C1.7 17 1.3 25 1 33 C0.7 33 0.3 33 0 33 C0 22 0 11 0 0 Z " fill="#C29E62" transform="translate(1581,1715)"/><path d="M0 0 C5.9 1.8 12 4.3 17 6.6 C18 7.0 19 7.5 20 7.9 C23 8.9 25 10.0 28 11 C25 14 23 16 20 18 C21 14 21 14 22 10 C21 9.9 21 9.8 20 9.7 C13 8.2 6.7 5.4 0 2 C0 1.3 0 0.7 0 0 Z " fill="#FAEECC" transform="translate(1687,1821)"/><path d="M0 0 C2.3 -0.0 4.7 -0.0 7 0 C8 1 8 1 8.2 4.4 C8.2 5.6 8.1 6.8 8 8 C5 10 5 10 2.8 9.6 C2.2 9.4 1.6 9.2 1 9 C1.8 8.4 2.6 7.8 3.4 7.2 C6.2 5.2 6.2 5.2 7 2 C5.1 2.5 3.1 3.0 1.2 3.4 C-0.4 3.8 -0.4 3.8 -2.1 4.2 C-4.1 4.8 -6.0 5.3 -8 6 C-10 6.1 -13 6.1 -15 6.1 C-16 6.1 -18 6.0 -19 6.0 C-21 6.0 -21 6.0 -22 6 C-22 5.7 -22 5.3 -22 5 C-21 4.9 -21 4.9 -20 4.9 C-15 4.4 -10 3.8 -5 2 C-2.1 1.9 -2.1 1.9 0 2 C0 1.3 0 0.7 0 0 Z " fill="#F7E7C3" transform="translate(1795,1775)"/><path d="M0 0 C1.2 0.0 1.2 0.0 2.4 0.1 C1.4 0.7 0.5 1.4 -0.6 2.1 C-1.2 4.6 -1.6 7.0 -2 9.6 C-3.5 19 -6.1 26 -12 33 C-13 34 -13 34 -14 34 C-13 33 -13 31 -13 30 C-12 30 -11 30 -11 30 C-10 28 -9.9 26 -9.6 24 C-8.9 24 -8.2 24 -7.6 24 C-7.4 23 -7.3 23 -7.2 22 C-6.7 19 -6.2 16 -5.6 13 C-5.4 11 -5.4 11 -5.1 9.3 C-4.9 8.3 -4.7 7.3 -4.5 6.2 C-4.4 5.2 -4.2 4.3 -4.0 3.3 C-3.4 0.1 -3.3 0.1 0 0 Z " fill="#FBEDCD" transform="translate(1682.5625,1649.9375)"/><path d="M0 0 C1.0 0.3 2.0 0.7 3 1 C2.4 1.7 1.7 2.4 1.1 3.2 C-5.1 10 -10 18 -15 26 C-16 22 -15 21 -14 17 C-13 17 -13 16 -12 16 C-12 15 -11 14 -10 13 C-10 13 -9.5 12 -9 11 C-8.3 11 -7.7 11 -7 11 C-6.7 9.3 -6.3 7.7 -6 6 C-5.3 6 -4.7 6 -4 6 C-3.7 5.0 -3.3 4.0 -3 3 C-2.3 3 -1.7 3 -1 3 C-0.7 2.0 -0.3 1.0 0 0 Z " fill="#FAECCB" transform="translate(1652,1562)"/><path d="M0 0 C-6.9 3.7 -13 6.7 -21 8 C-21 9.3 -22 11 -22 12 C-19 12 -19 12 -16 13 C-16 13 -16 14 -16 14 C-18 14 -21 13 -23 13 C-24 10 -24 10 -24 7 C-21 4.5 -20 4.2 -16 3.4 C-15 3.1 -14 2.9 -13 2.6 C-10 2 -10 2 -6 2 C-6 1.3 -6 0.7 -6 0 C-3.5 -1.2 -2.6 -0.8 0 0 Z " fill="#FCF0D2" transform="translate(1669,1685)"/><path d="M0 0 C0.3 0 0.7 0 1 0 C3.3 12 4.4 23 4 35 C3.7 35 3.3 35 3 35 C2.7 33 2.3 32 2 30 C1.7 30 1.3 30 1 30 C0.7 20 0.3 10 0 0 Z " fill="#F1E2BE" transform="translate(1840,1661)"/><path d="M0 0 C1.1 3.3 0.9 5.3 0.1 8.6 C-1.1 14 -1.2 19 -1 24 C-4.0 25 -6.7 25 -10 25 C-9.7 24 -9.3 24 -9 23 C-7.7 23 -6.4 24 -5 24 C-4.9 23 -4.8 22 -4.7 21 C-3.9 13 -3.1 6.8 0 0 Z " fill="#F5E5C3" transform="translate(1691,1715)"/><path d="M0 0 C4.1 1.6 8.2 1.5 13 1.6 C16 2.1 17 2.9 20 5.1 C19 5.7 19 6.4 19 7.1 C18 6.4 17 5.7 16 5.1 C13 4.9 13 4.9 9.3 5.1 C4.1 5.2 1.1 4.7 -3.4 2.1 C-7.1 1.3 -7.1 1.3 -10 1.1 C-10 0.7 -10 0.4 -10 0.1 C-3.0 -1.2 -3.0 -1.2 0 0 Z " fill="#F9EAC8" transform="translate(1788.359375,1736.94921875)"/><path d="M0 0 C3.0 0.5 3.0 0.5 6 1 C7.0 4.0 8.0 6.9 9 10 C8.0 10 8.0 10 7 11 C6.7 12 6.3 13 6 14 C2.6 10.0 0 5.4 0 0 Z " fill="#CA9442" transform="translate(1674,1706)"/><path d="M0 0 C0.9 0.4 1.8 0.8 2.7 1.3 C3.9 1.8 5.0 2.4 6.2 2.9 C7.4 3.5 8.6 4.0 9.8 4.6 C12 5.7 14 6.5 17 7 C16 15 14 22 11 29 C10.0 26 10 24 11 21 C11 20 11 19 12 19 C12 18 12 17 12 16 C13 15 13 15 13 14 C14 12 14 9.9 15 8 C14 7.9 13 7.7 12 7.6 C9.4 7.1 7.3 6.4 4.7 5.1 C4.0 4.8 3.3 4.5 2.6 4.1 C1 3 1 3 0 0 Z " fill="#FBEECC" transform="translate(1559,1775)"/><path d="M0 0 C0.3 0 0.7 0 1 0 C1.0 1.0 1.1 2.1 1.1 3.1 C1.2 4.5 1.3 5.9 1.4 7.2 C1.4 8.3 1.4 8.3 1.5 9.3 C1.7 13 2.2 16 4 19 C4.0 21 4.0 24 4 26 C4.3 28 4.6 31 5 33 C-1.5 26 -1.1 12 -1.1 3.3 C-1 1 -1 1 0 0 Z " fill="#FBF0D5" transform="translate(1528,1694)"/><path d="M0 0 C2.2 2.2 2.7 3.5 3.7 6.4 C7.2 15 12 24 19 30 C19 31 18 32 18 33 C9.6 24 0 13 0 0 Z " fill="#B48B46" transform="translate(1554,1675)"/><path d="M0 0 C0.7 0.3 1.3 0.7 2 1 C-1.6 9.4 -5.4 16 -13 21 C-14 21 -15 22 -16 22 C-16 21 -16 21 -16 20 C-15 20 -15 19 -14 19 C-14 18 -13 17 -13 16 C-11 16 -9.7 15 -8 15 C-8.3 14 -8.7 12 -9 11 C-7.0 10 -5.0 9.7 -3 9 C-3 7.7 -3 6.4 -3 5 C-2.3 5 -1.7 5 -1 5 C-0.7 3.4 -0.3 1.7 0 0 Z " fill="#C0934C" transform="translate(1682,1672)"/><path d="M0 0 C0.3 0 0.7 0 1 0 C2.1 9.0 2.1 18 2 27 C-0.1 24 -1.0 21 -2.1 17 C-2.5 16 -2.8 15 -3.2 14 C-4 11 -4 11 -4 9 C-3.3 9 -2.7 9 -2 9 C-1.7 10.0 -1.3 11 -1 12 C-0.7 8.0 -0.3 4.1 0 0 Z " fill="#F3DDAE" transform="translate(1849,1536)"/><path d="M0 0 C0 3 0 3 -1.2 4.6 C-1.8 5.1 -2.3 5.6 -2.9 6.2 C-3.4 6.7 -3.9 7.2 -4.5 7.8 C-6 9 -6 9 -8 9 C-8.4 9.8 -8.4 9.8 -8.7 11 C-10 14 -12 16 -15 18 C-15 19 -16 20 -17 21 C-18 22 -18 22 -19 23 C-20 23 -20 22 -21 22 C-15 14 -8.3 6.2 0 0 Z " fill="#FAF1D4" transform="translate(1599,1476)"/><path d="M0 0 C3.0 0.5 3.0 0.5 6 1 C5.6 6.4 5.6 6.4 3.1 8.8 C-0.5 10 -3.8 11 -7.6 11 C-11 12 -13 14 -16 16 C-17 15 -17 15 -18 14 C-11 8.9 -4.4 7.4 4 6 C3.7 4.1 3.7 4.1 3 2 C2.0 1.3 1.0 0.7 0 0 Z " fill="#F5E6C4" transform="translate(1716,1691)"/><path d="M0 0 C1.0 0.3 2.0 0.7 3 1 C1.8 2.0 0.5 2.9 -0.8 3.9 C-1.8 4.7 -1.8 4.7 -2.9 5.5 C-6.6 8.1 -9.2 9.3 -14 9.2 C-15 9.2 -16 9.2 -16 9.2 C-17 9.2 -18 9.1 -19 9.1 C-20 9.1 -21 9.1 -22 9.1 C-24 9.1 -27 9.0 -29 9 C-29 8.7 -29 8.3 -29 8 C-20 7.0 -20 7.0 -15 7.1 C-11 7.0 -7.2 5.6 -3 4 C-3 3.3 -3 2.7 -3 2 C-2.0 1.3 -1.0 0.7 0 0 Z " fill="#FAEFD4" transform="translate(1786,1825)"/><path d="M0 0 C1.1 0.0 2.3 0.0 3.4 0.1 C2.4 2.8 1.8 3.9 -0.8 5.2 C-9.3 7.7 -9.3 7.7 -13 6.1 C-13 5.4 -13 4.7 -13 4.1 C-12 3.9 -11 3.7 -11 3.4 C-10 3.2 -9.4 2.9 -8.6 2.6 C-7.9 2.4 -7.2 2.1 -6.4 1.8 C-2.0 0.0 -2.0 0.0 0 0 Z " fill="#C38C34" transform="translate(1795.5625,1778.9375)"/><path d="M0 0 C0.7 0 1.3 0 2 0 C8.0 9.8 8.6 22 10 33 C7.5 31 7.3 29 6.5 26 C6.1 24 6.1 24 5.7 22 C5.1 19 4.5 17 4 14 C3.1 9.0 1.7 4.6 0 0 Z " fill="#BB914F" transform="translate(1544,1644)"/><path d="M0 0 C-7.2 4.0 -7.2 4.0 -11 3.9 C-14 4.0 -14 4.7 -16 6.6 C-19 8.9 -20 9.0 -24 8.8 C-25 8.5 -26 8.3 -27 8 C-20 3.5 -8.2 -2.4 0 0 Z " fill="#F7EBCA" transform="translate(1673,1441)"/><path d="M0 0 C1.6 0.3 3.3 0.7 5 1 C6.6 5.8 7.2 9.1 6 14 C5.7 14 5.3 14 5 14 C4.9 13 4.8 12 4.6 12 C4.5 11 4.3 9.6 4.1 8.6 C4.0 7.6 3.8 6.5 3.6 5.5 C3.4 4.7 3.2 3.9 3 3 C2.3 2.7 1.7 2.3 1 2 C1 6.3 1 11 1 15 C0.3 15 -0.3 14 -1 14 C-1.0 12 -1.0 10 -1.1 8.1 C-1.1 7.0 -1.1 5.9 -1.1 4.8 C-1 2 -1 2 0 0 Z " fill="#BA9253" transform="translate(1598,1709)"/><path d="M0 0 C0.7 1.8 0.7 1.8 1 4 C-0.1 5.9 -0.1 5.9 -1.8 7.6 C-2.3 8.2 -2.8 8.8 -3.4 9.4 C-5 11 -5 11 -8 13 C-9.0 14 -9.0 14 -10 16 C-11 15 -13 13 -14 12 C-13 12 -13 11 -12 11 C-7.2 7.7 -3.5 4.8 0 0 Z " fill="#FAF0D2" transform="translate(1679,1682)"/><path d="M0 0 C2.0 0.1 3.9 0.2 5.9 0.4 C7.0 0.4 8.1 0.5 9.2 0.6 C12 1 12 1 14 3 C11 4.8 8.8 5.2 5.2 5.1 C4.5 5.1 3.7 5.1 2.8 5.1 C2.2 5.0 1.6 5.0 1 5 C0.7 3.4 0.3 1.7 0 0 Z " fill="#C58B32" transform="translate(1830,1602)"/><path d="M0 0 C-0.7 1.3 -1.3 2.6 -2 4 C-2.3 3.3 -2.7 2.7 -3 2 C-4.0 2.5 -4.0 2.5 -5 3 C-5 4.0 -5 5.0 -5 6 C-12 9 -12 9 -16 9 C-16 8.3 -16 7.7 -16 7 C-13 5.7 -11 4.4 -8 3 C-8 2.3 -8 1.7 -8 1 C-5.1 0.2 -3.1 0 0 0 Z " fill="#C99341" transform="translate(1814,1709)"/><path d="M0 0 C1.0 0.0 1.0 0.0 2.1 0.1 C4.1 0.3 6.0 0.6 8 1.2 C7.7 2.6 7.3 3.9 7 5.2 C-0.4 4.3 -0.4 4.3 -8 3.2 C-3.5 -0.1 -3.5 -0.1 0 0 Z " fill="#C3882F" transform="translate(1572,1615.75)"/><path d="M0 0 C1.0 0.3 2.0 0.7 3 1 C3 2.0 3 3.0 3 4 C2.3 4 1.7 4 1 4 C0.3 6.3 -0.3 8.6 -1 11 C-2.6 11 -4.3 12 -6 12 C-5.4 7.9 -4.1 4.6 -2 1 C-1.3 0.7 -0.7 0.3 0 0 Z " fill="#CB9239" transform="translate(1628,1609)"/><path d="M0 0 C0.7 0 1.3 0 2 0 C2 0.7 2 1.3 2 2 C2.7 2 3.3 2 4 2 C7.1 4.6 9.0 7.5 11 11 C12 12 13 14 13 15 C14 16 14 17 15 18 C15 18 16 19 16 20 C17 22 17 22 16 25 C16 24 15 23 15 23 C11 17 7.8 11 3.5 5.9 C2.0 4.0 1.0 2.2 0 0 Z " fill="#B78D4D" transform="translate(1815,1509)"/><path d="M0 0 C-4.0 1.7 -7.9 3.3 -12 5 C-14 5.7 -14 5.7 -15 6.4 C-16 6.9 -17 7.3 -19 7.8 C-20 8.2 -21 8.7 -22 9.1 C-24 10 -24 10 -26 10 C-26 9.3 -26 8.7 -26 8 C-24 7.7 -23 7.3 -21 7 C-21 6.3 -21 5.7 -21 5 C-19 5 -18 5 -16 5 C-16 4.3 -16 3.7 -16 3 C-15 3 -13 3 -12 3 C-12 2.3 -12 1.7 -12 1 C-4.3 -1.2 -4.3 -1.2 0 0 Z " fill="#FCEFCB" transform="translate(1724,1522)"/><path d="M0 0 C2.0 0.2 2.0 0.2 4.4 0.8 C5.6 1.0 5.6 1.0 6.8 1.2 C9 2 9 2 12 5 C8.7 5 5.4 5 2 5 C1.7 8.6 1.3 12 1 16 C0.7 16 0.3 16 0 16 C-0.2 14 -0.4 11 -0.6 8.6 C-0.6 7.9 -0.7 7.1 -0.7 6.4 C-0.9 4.6 -0.9 2.8 -1 1 C-0.7 0.7 -0.3 0.3 0 0 Z " fill="#F9F0D7" transform="translate(1793,1460)"/><path d="M0 0 C0.3 0 0.7 0 1 0 C1.4 5.5 1.4 5.5 -0.5 8.0 C-2.8 13 -2.3 17 -2.2 22 C-2.2 23 -2.2 24 -2.1 25 C-2.1 27 -2.1 30 -2 32 C-2.3 32 -2.7 32 -3 32 C-4.7 21 -6.0 9.7 0 0 Z " fill="#C09857" transform="translate(1844,1636)"/><path d="M0 0 C2.7 4.1 3.5 8.2 4.7 13 C5.0 14 5.0 14 5.4 16 C5.6 17 5.8 17 6.1 18 C6.3 19 6.5 20 6.7 21 C7.0 23 6.7 25 6 27 C3.6 22 2.3 17 1.3 12 C1.2 11 1.1 10 0.9 9.7 C0.3 6.4 0 3.4 0 0 Z " fill="#F6E7C5" transform="translate(1840,1557)"/><path d="M0 0 C1.5 0.0 1.5 0.0 3.1 0.0 C4.1 0.0 5.1 0.1 6.1 0.1 C7.3 0.1 7.3 0.1 8.5 0.1 C8.5 0.4 8.5 0.8 8.5 1.1 C5.2 1.1 1.9 1.1 -1.5 1.1 C-1.5 2.1 -1.5 3.1 -1.5 4.1 C3.4 5.1 8.4 6.1 13 7.1 C13 7.8 12 8.4 11 9.1 C6.2 8.8 2.0 8.1 -2.5 5.1 C-3.4 3.0 -3.4 3.0 -3.5 1.1 C-2.5 0.1 -2.5 0.1 0 0 Z " fill="#BA904C" transform="translate(1733.50390625,1751.90234375)"/><path d="M0 0 C1.3 0 2.6 0 4 0 C4 0.7 4 1.3 4 2 C6.1 2.2 8.2 2.3 10 2.5 C12 2.6 12 2.6 14 2.8 C16 2.9 17 3 19 3 C19 2.3 19 1.7 19 1 C20 1 21 1 22 1 C22 2.0 22 3.0 22 4 C18 6.1 14 6.9 9 6 C5.8 4.6 2.9 2.9 0 1 C0 0.7 0 0.3 0 0 Z " fill="#BA914F" transform="translate(1573,1708)"/><path d="M0 0 C0.3 0.7 0.7 1.3 1 2 C0.7 2.7 0.3 3.3 0 4 C1.0 4 2.0 4 3 4 C4.0 4.3 5.0 4.7 6 5 C4.6 5.8 3.1 6.7 1.7 7.5 C0.5 8.2 0.5 8.2 -0.7 8.9 C-3 10 -3 10 -6 10 C-5.7 6.0 -5.5 4.4 -2.4 1.6 C-1.6 1.1 -0.8 0.6 0 0 Z " fill="#BA904D" transform="translate(1819,1608)"/><path d="M0 0 C8.2 -0.5 16 1.1 23 6 C25 7.7 25 7.7 26 9 C26 9.7 25 10 25 11 C24 11 24 10 23 9.8 C16 5.1 8.7 2.1 0 1 C0 0.7 0 0.3 0 0 Z " fill="#F7E7C1" transform="translate(1792,1455)"/><path d="M0 0 C2.7 2.4 3.9 4.6 5.1 8 C5.5 8.9 5.8 9.7 6.1 11 C7.6 15 8.0 17 7.6 21 C7.5 22 7.4 23 7.3 24 C7.2 25 7.1 25 7 26 C6.7 26 6.3 26 6 26 C5.8 25 5.6 24 5.4 23 C4.1 16 2.6 9.6 0 3 C0 2.0 0 1.0 0 0 Z " fill="#FBEFD1" transform="translate(1814,1678)"/><path d="M0 0 C2.2 0.3 2.2 0.3 4 1 C4 1.7 4 2.3 4 3 C8.6 3 13 3 18 3 C18 3.7 19 4.3 19 5 C18 5.0 17 5.0 16 4.9 C15 4.9 14 4.9 12 4.9 C11 4.9 9.8 4.8 8.6 4.8 C5.2 5.0 3.0 5.5 0 7 C-0.3 6.0 -0.7 5.0 -1 4 C-1.7 3.7 -2.3 3.3 -3 3 C-1.8 1.4 -1.8 1.4 0 0 Z " fill="#F4E3BF" transform="translate(1561,1611)"/><path d="M0 0 C0.3 0.7 0.7 1.3 1 2 C0.4 3.7 0.4 3.7 -0.7 5.7 C-1.0 6.4 -1.4 7.1 -1.8 7.9 C-2.1 8.6 -2.5 9.4 -2.9 10 C-3.3 11 -3.7 12 -4.1 12 C-5.1 14 -6.0 16 -7 18 C-8.0 15 -7.9 14 -7 11 C-7.7 11 -8.3 11 -9 11 C-7.5 7.2 -7.5 7.2 -5.1 6.1 C-2.3 4.6 -1.4 2.7 0 0 Z " fill="#B98A3E" transform="translate(1642,1591)"/><path d="M0 0 C0.7 0.7 1.4 1.4 2.1 2.1 C2.5 2.5 3.0 3.0 3.4 3.4 C4.5 4.5 5.6 5.6 6.7 6.7 C10 10 14 14 18 17 C17 17 16 18 15 18 C14 18 14 17 13 17 C13 16 13 15 13 14 C11 13 11 13 8 12 C8 11 8 11 8 10 C7.0 10 6.0 10 5 10 C2.6 6.8 0.6 4.0 0 0 Z " fill="#B5873D" transform="translate(1620,1763)"/><path d="M0 0 C2.6 1.5 2.6 1.5 4 3 C2.7 3.0 1.4 2.9 0.1 2.9 C-4.2 2.9 -7.9 3.5 -12 4.7 C-14 5.0 -16 4.7 -18 4 C-12 0.9 -6.8 -1.2 0 0 Z " fill="#F8E6C0" transform="translate(1784,1744)"/><path d="M0 0 C0.3 0 0.7 0 1 0 C1.5 10.0 -0.3 17 -5 26 C-6.3 23 -5.8 23 -5.0 20 C-4.7 19 -4.7 19 -4.4 18 C-4.1 17 -3.9 16 -3.6 15 C-2.1 10 -0.7 5.2 0 0 Z " fill="#F8EAC8" transform="translate(1850,1701)"/><path d="M0 0 C0.3 0 0.7 0 1 0 C0.1 7.6 0.1 7.6 -1 11 C-1.7 11 -2.3 11 -3 11 C-3.2 12 -3.5 12 -3.8 13 C-5.3 15 -6.8 18 -9 20 C-12 20 -12 20 -14 20 C-13 19 -13 19 -12 18 C-6.2 14 -3.7 8.5 -1 2 C-0.7 1.3 -0.3 0.7 0 0 Z " fill="#C19551" transform="translate(1678,1668)"/><path d="M0 0 C1.3 0 2.6 0 4 0 C5.2 6.1 6.3 12 6 18 C4.1 15 3.5 12 2.9 7.8 C2.7 6.7 2.5 5.6 2.4 4.5 C2.2 3.7 2.1 2.8 2 2 C1.3 2 0.7 2 0 2 C0 4.6 0 7.3 0 10 C-0.3 10 -0.7 10 -1 10 C-1.0 8.5 -1.0 7.0 -1.1 5.6 C-1.1 4.7 -1.1 3.9 -1.1 3.1 C-1 1 -1 1 0 0 Z " fill="#BB9048" transform="translate(1682,1651)"/><path d="M0 0 C2.0 -0.0 4.0 -0.0 6 0 C6.3 0.3 6.7 0.7 7 1 C8.5 1.1 10 1.1 12 1.1 C12 1.1 13 1.0 14 1.0 C15 1.0 15 1.0 16 1 C16 2.0 17 3.0 17 4 C18 4 18 4 19 4 C19 4.7 19 5.3 19 6 C12 5.5 6.4 3.5 0 1 C0 0.7 0 0.3 0 0 Z " fill="#F8EDCF" transform="translate(1719,1825)"/><path d="M0 0 C4.2 6.1 3.5 13 3.3 20 C1.2 16 0.5 13 -0.3 8.7 C-0.6 7.4 -0.8 6.2 -1.1 4.9 C-1.3 3.9 -1.5 2.9 -1.7 1.9 C-3.0 1.6 -4.3 1.3 -5.7 0.9 C-6.0 1.6 -6.3 2.3 -6.7 2.9 C-6.7 1.9 -6.7 1.0 -6.7 -0.1 C-2.2 -1.4 -2.2 -1.4 0 0 Z " fill="#FAECCF" transform="translate(1603.6875,1708.0625)"/><path d="M0 0 C0.3 0 0.7 0 1 0 C0.5 6.4 -1.1 11 -4 17 C-4.7 17 -5.3 17 -6 17 C-6 18 -6 19 -6 20 C-6.7 20 -7.3 20 -8 20 C-5.8 13 -3.1 6.6 0 0 Z " fill="#F9EBCC" transform="translate(1817,1786)"/><path d="M0 0 C1.5 2.8 2.4 5.2 2.9 8.3 C3.0 9.1 3.1 9.9 3.2 11 C3.4 12 3.5 12 3.6 13 C3.8 14 3.9 15 4.0 16 C4.4 18 4.7 20 5 22 C4.3 22 3.7 22 3 22 C3 21 3 21 3 20 C2.3 20 1.7 19 1 19 C1.0 18 1.0 17 1.1 17 C1.3 14 1.3 14 0 13 C-0.1 11 -0.1 8.6 -0.1 6.4 C-0.1 5.2 -0.0 4.0 -0.0 2.8 C-0.0 1.9 -0.0 1.0 0 0 Z " fill="#F9EAC9" transform="translate(1597,1723)"/><path d="M0 0 C2.4 2.4 2.5 3.8 3 7 C2.2 7.4 1.4 7.9 0.6 8.3 C-2.2 9.9 -2.2 9.9 -4 13 C-4.7 13 -5.3 13 -6 13 C-4.6 8.2 -2.6 4.3 0 0 Z " fill="#FBF4E0" transform="translate(1541,1638)"/><path d="M0 0 C0 0.7 0 1.3 0 2 C-2.3 3.2 -4.6 4.3 -6.9 5.5 C-7.5 5.8 -8.2 6.2 -8.8 6.5 C-14 9 -14 9 -16 9 C-16 10.0 -16 11 -16 12 C-18 12 -19 11 -21 11 C-17 7.7 -13 5.4 -8.8 3.2 C-8.2 2.9 -7.6 2.6 -6.9 2.3 C-2.3 0 -2.3 0 0 0 Z " fill="#B98B40" transform="translate(1637,1444)"/><path d="M0 0 C0 3 0 3 -2.4 5.7 C-5 8 -5 8 -7 8 C-7.2 8.6 -7.4 9.2 -7.6 9.9 C-9 12 -9 12 -12 13 C-16 14 -16 14 -19 12 C-18 12 -18 12 -17 11 C-10 8.9 -5.3 5.3 0 0 Z " fill="#BB8E4A" transform="translate(1792,1822)"/><path d="M0 0 C0.3 1.3 0.7 2.6 1 4 C-0.7 4 -2.3 4 -4 4 C-6.9 9.3 -8.7 14 -10 20 C-10 20 -11 20 -11 20 C-11 13 -9.9 7.8 -6 2 C-2.9 1.8 -2.9 1.8 0 2 C0 1.3 0 0.7 0 0 Z " fill="#FAEDCD" transform="translate(1812,1616)"/><path d="M0 0 C0 1.3 0 2.6 0 4 C-3.3 5.3 -6.6 6.6 -10 8 C-10 7.3 -11 6.7 -11 6 C-10 6 -9.7 6 -9 6 C-8.9 5.4 -8.9 4.8 -8.8 4.1 C-8 2 -8 2 -5.6 0.8 C-3 0 -3 0 0 0 Z " fill="#C78E35" transform="translate(1828,1606)"/><path d="M0 0 C1.0 0.3 2.0 0.7 3 1 C0.7 3.0 -1.6 5.0 -3.9 6.9 C-4.9 7.8 -4.9 7.8 -5.8 8.6 C-6.5 9.2 -7.1 9.7 -7.7 10 C-8.3 11 -8.9 11 -9.5 12 C-11 13 -11 13 -13 14 C-13 12 -13 12 -12 10 C-11 9.7 -10 9.3 -9 9 C-9 8.3 -9 7.7 -9 7 C-7.5 5.5 -7.5 5.5 -5.6 3.9 C-5.0 3.4 -4.4 2.9 -3.7 2.3 C-2 1 -2 1 0 0 Z " fill="#FBF0D2" transform="translate(1668,1548)"/><path d="M0 0 C0.7 0.3 1.3 0.7 2 1 C1.3 1.7 0.5 2.4 -0.2 3.2 C-7.4 10 -7.4 10 -14 18 C-15 16 -15 16 -14 14 C-13 10 -10 9.1 -7 7 C-4.6 4.8 -2.3 2.4 0 0 Z " fill="#B0843E" transform="translate(1593,1479)"/><path d="M0 0 C5.0 1.0 5.0 1.0 10 2 C10 3.0 11 4.0 11 5 C7.3 6.0 4.7 6.0 1 5 C0.7 3.4 0.3 1.7 0 0 Z " fill="#C89039" transform="translate(1742,1432)"/><path d="M0 0 C3.7 0.6 6.5 1.6 9.8 3.4 C14 5.6 18 7.4 23 9 C23 9.7 22 10 22 11 C17 9.5 12 7.3 7.6 4.9 C6.9 4.5 6.2 4.1 5.4 3.7 C3.6 2.8 1.8 1.9 0 1 C0 0.7 0 0.3 0 0 Z " fill="#B98C47" transform="translate(1675,1814)"/><path d="M0 0 C6.9 0.3 14 0.7 21 1 C21 1.7 20 2.3 20 3 C6.4 3.4 6.4 3.4 0 1 C0 0.7 0 0.3 0 0 Z " fill="#B98E4A" transform="translate(1789,1762)"/><path d="M0 0 C0.3 0 0.7 0 1 0 C1 2.0 1 4.0 1 6 C-7.9 6.6 -16 4.8 -25 3 C-25 2.7 -25 2.3 -25 2 C-23 1.9 -20 1.9 -18 1.9 C-17 1.9 -16 1.8 -14 1.8 C-11 2 -11 2 -8 4 C-6.0 4.5 -6.0 4.5 -3.8 4.6 C-2.6 4.7 -1.3 4.9 0 5 C0 3.4 0 1.7 0 0 Z " fill="#F9E9C1" transform="translate(1804,1753)"/><path d="M0 0 C2 1 2 1 2.8 3.4 C4.2 9.3 5.4 15 6 21 C7.0 21 8.0 22 9 22 C7.1 23 7.1 23 5 23 C2.9 21 3.0 17 2.5 14 C2.4 14 2.2 13 2.1 12 C1.4 8.1 0.7 4.1 0 0 Z " fill="#B58740" transform="translate(1677,1716)"/><path d="M0 0 C0.7 0 1.3 0 2 0 C1.7 2.3 1.3 4.6 1 7 C1.7 7.3 2.3 7.7 3 8 C2.3 8 1.7 8 1 8 C1 9.0 1 10.0 1 11 C0.3 11 -0.3 11 -1 11 C-1.3 12 -1.7 13 -2 14 C-1.9 12 -1.7 11 -1.6 9.2 C-1.5 8.4 -1.4 7.5 -1.3 6.6 C-1.0 4.3 -0.6 2.2 0 0 Z M4 3 C4.3 3.7 4.7 4.3 5 5 C5.7 5 6.3 5 7 5 C6.3 6.3 5.7 7.6 5 9 C4.3 8.3 3.7 7.7 3 7 C3.4 4.9 3.4 4.9 4 3 Z " fill="#C19148" transform="translate(1542,1552)"/><path d="M0 0 C2.4 0.6 2.4 0.6 5 2 C6.1 4.7 6.1 4.7 7 8 C7.6 9.2 8.1 10 8.7 12 C10 15 10 16 9 19 C7.7 16 6.4 14 5.1 11 C4.7 10 4.3 9.7 3.9 9.0 C3.6 8.2 3.2 7.5 2.8 6.8 C2.5 6.1 2.2 5.5 1.8 4.8 C1 3 1 3 0 0 Z " fill="#F9EDCF" transform="translate(1840,1490)"/><path d="M0 0 C2.2 0.5 4.0 1.0 6 2 C6 2.7 6 3.3 6 4 C6.8 4.2 7.6 4.5 8.4 4.8 C11 6 11 6 12 8.1 C12 8.7 12 9.4 12 10 C7.2 8.5 3.4 5.6 0 2 C0 1.3 0 0.7 0 0 Z " fill="#C68F38" transform="translate(1797,1490)"/><path d="M0 0 C0.7 0 1.3 0 2 0 C1.7 1.4 1.4 2.8 1.1 4.2 C1.0 5.0 0.8 5.8 0.6 6.6 C0.0 9.0 -0.8 11 -2 13 C-3.6 10 -3.6 10 -5 7 C-4.7 6.0 -4.3 5.0 -4 4 C-3.3 4 -2.7 4 -2 4 C-1.3 2.7 -0.7 1.4 0 0 Z " fill="#C48933" transform="translate(1809,1794)"/><path d="M0 0 C5 7.5 5 7.5 5 12 C5.7 12 6.3 12 7 12 C7.3 13 7.7 15 8 16 C8.7 16 9.3 16 10 16 C10 17 11 19 11 20 C6.5 17 4.5 14 2.1 9.1 C0.9 6.8 0.9 6.8 -1 4 C-0.6 1.8 -0.6 1.8 0 0 Z " fill="#B98F4D" transform="translate(1606,1751)"/><path d="M0 0 C0.3 0 0.7 0 1 0 C1.1 7.8 1.1 7.8 0 10 C-0.7 10 -1.3 10 -2 10 C-1.8 11 -1.6 12 -1.4 13 C-1.0 17 -1.0 18 -3 21 C-4.1 16 -3.7 12 -2.1 6.6 C-1.7 5.3 -1.3 4.1 -0.9 2.8 C-0.6 1.9 -0.3 1.0 0 0 Z " fill="#F6E9CC" transform="translate(1532,1656)"/><path d="M0 0 C0.7 0.3 1.3 0.7 2 1 C-3.0 9.9 -3.0 9.9 -8 19 C-9 15 -9 15 -8 13 C-7.3 13 -6.7 13 -6 13 C-5.9 12 -5.9 12 -5.8 11 C-4.7 6.8 -2.4 3.6 0 0 Z " fill="#FBF0D1" transform="translate(1626,1604)"/><path d="M0 0 C0.3 1.6 0.7 3.3 1 5 C-1.6 5.3 -4.3 5.7 -7 6 C-7.7 4.7 -8.3 3.4 -9 2 C-5.9 0.1 -3.6 -0.2 0 0 Z " fill="#C58E3A" transform="translate(1694,1590)"/><path d="M0 0 C0.3 0 0.7 0 1 0 C4.4 8.6 4.2 18 4 27 C3.7 27 3.3 27 3 27 C2.5 24 2.0 21 1.5 17 C1.4 17 1.2 16 1.1 15 C0.3 9.7 -0.2 5.0 0 0 Z " fill="#F9ECCC" transform="translate(1854,1575)"/><path d="M0 0 C4.9 4.7 4.9 4.7 5.2 8.2 C5.2 9.1 5.2 10.0 5.2 11 C5.2 12 5.2 13 5.2 13 C5.0 16 4.3 18 3 20 C2.9 19 2.9 19 2.9 17 C2.8 16 2.7 14 2.6 13 C2.6 12 2.5 11 2.4 9.4 C2.2 5.9 2.2 5.9 0 3 C0 2.0 0 1.0 0 0 Z " fill="#FAEFD1" transform="translate(1780,1456)"/><path d="M0 0 C4.0 0 7.9 0 12 0 C12 1.0 12 2.0 12 3 C11 3.1 10 3.2 9.6 3.4 C8.3 3.7 8.3 3.7 7 4 C6.7 4.7 6.3 5.3 6 6 C5.0 6 4.0 6 3 6 C2.0 4.0 1.0 2.0 0 0 Z " fill="#F8F0D6" transform="translate(1785,1452)"/><path d="M0 0 C1.0 0.3 2.0 0.7 3 1 C2.4 1.5 1.8 2.0 1.2 2.6 C-0.6 4.6 -1.7 6.1 -3 8.5 C-4.6 11 -6.4 14 -9 16 C-9.7 16 -10 15 -11 15 C-7.4 10 -3.7 5.1 0 0 Z " fill="#F9EFD2" transform="translate(1563,1834)"/><path d="M0 0 C1.3 1.3 2.6 2.6 4 4 C-1.6 4 -7.2 4 -13 4 C-13 3.3 -13 2.7 -13 2 C-8.5 0.2 -4.8 -0.5 0 0 Z " fill="#F5E6C7" transform="translate(1788,1703)"/><path d="M0 0 C1.5 3.9 0.5 6.5 -0.8 10 C-1.2 11 -1.6 13 -1.9 14 C-2.3 15 -2.6 16 -3 17 C-3.7 19 -4.3 22 -5 24 C-5.3 24 -5.7 24 -6 24 C-6.9 15 -3.6 8.1 0 0 Z " fill="#F9EBCD" transform="translate(1852,1633)"/><path d="M0 0 C0.7 0.3 1.3 0.7 2 1 C-2.1 4.8 -6.1 8.3 -11 11 C-12 12 -14 13 -15 14 C-16 14 -16 13 -17 13 C-11 8.5 -5.9 4.1 0 0 Z " fill="#FAEFD4" transform="translate(1589,1588)"/><path d="M0 0 C1 2 1 2 0.8 4.0 C-0.2 6.5 -1.2 7.1 -3.4 8.6 C-6.2 10 -7.1 11 -9 14 C-9.7 14 -10 14 -11 14 C-9.4 10 -7.1 7.7 -4.4 4.8 C-3.6 3.9 -2.7 3.0 -1.9 2.0 C-1.3 1.4 -0.6 0.7 0 0 Z " fill="#F9EDCD" transform="translate(1663,1565)"/><path d="M0 0 C1.3 0 2.6 0 4 0 C4.3 0.7 4.7 1.3 5 2 C7.3 3.3 9.7 4.5 12 5.6 C13 5.9 13 6.3 14 6.6 C16 7.4 17 8.2 19 9 C18 9.7 17 10 16 11 C14 9.5 11 8.1 8.6 6.6 C7.9 6.2 7.1 5.8 6.4 5.4 C5.7 5.0 5.1 4.6 4.4 4.2 C3.8 3.8 3.1 3.4 2.5 3.1 C1 2 1 2 0 0 Z " fill="#BA8C49" transform="translate(1657,1803)"/><path d="M0 0 C1.0 0.3 2.0 0.7 3 1 C-1.0 9.9 -1.0 9.9 -5 19 C-6.2 15 -5.4 14 -3.9 11 C-2.3 7.5 -1.2 3.7 0 0 Z " fill="#B58944" transform="translate(1814,1787)"/><path d="M0 0 C1.1 -0.0 2.3 -0.0 3.5 -0.0 C6.5 0.2 6.5 0.2 9.5 2.2 C9.5 3.6 9.5 4.9 9.5 6.2 C7.8 6.2 6.2 6.2 4.5 6.2 C4.8 5.3 5.2 4.3 5.5 3.2 C2.6 1.8 0.1 2.2 -3.1 2.2 C-4.9 2.2 -4.9 2.2 -6.7 2.2 C-8.1 2.2 -8.1 2.2 -9.5 2.2 C-5.9 -0.1 -4.2 -0.0 0 0 Z " fill="#BA914E" transform="translate(1783.5,1705.75)"/><path d="M0 0 C3.9 0.4 6.1 2.5 9 5 C8.7 5.7 8.3 6.3 8 7 C4.0 6.4 1.3 5.2 -2 3 C-1 1 -1 1 0 0 Z " fill="#C8903D" transform="translate(1692,1682)"/><path d="M0 0 C-0.7 2.0 -1.3 4.0 -2 6 C-2.9 5.8 -3.9 5.6 -4.8 5.4 C-8.2 4.6 -8.2 4.6 -11 7 C-11 5.2 -11 5.2 -10 3 C-6.6 0.4 -4.2 -0.4 0 0 Z " fill="#CE9944" transform="translate(1672,1554)"/><path d="M0 0 C0.7 0 1.3 0 2 0 C2.3 1.0 2.7 2.0 3 3 C0.9 4.5 -1.2 6.0 -3.4 7.5 C-4.0 7.9 -4.6 8.4 -5.2 8.8 C-9.8 12 -9.8 12 -12 12 C-12 11 -12 11 -12 10 C-11 10 -10 10 -9 10 C-9 9.0 -9 8.0 -9 7 C-8.4 6.9 -7.8 6.7 -7.1 6.6 C-3.9 5.7 -3.2 5.4 -1.5 2.4 C-1.0 1.6 -0.5 0.8 0 0 Z " fill="#B88C46" transform="translate(1772,1501)"/><path d="M0 0 C-0.3 0.7 -0.7 1.3 -1 2 C-0.2 2.1 0.6 2.3 1.4 2.4 C4 3 4 3 6 4 C6 4.7 6 5.3 6 6 C2.3 5.4 -0.9 4.4 -4.3 2.9 C-5.6 2.4 -5.6 2.4 -7.0 1.8 C-7.7 1.6 -8.3 1.3 -9 1 C-5.5 -0.9 -3.9 -1.1 0 0 Z " fill="#F7E9C9" transform="translate(1713,1819)"/><path d="M0 0 C1.2 3.7 0.6 5.4 -1.0 8.9 C-2.2 11 -3.2 14 -4.2 16 C-4.5 17 -4.9 18 -5.2 19 C-5.5 20 -5.7 20 -6 21 C-6.7 21 -7.3 20 -8 20 C-6.5 15 -4.8 11 -2.9 6.6 C-2.6 6.0 -2.3 5.3 -2.0 4.7 C-1.4 3.1 -0.7 1.6 0 0 Z " fill="#BD9657" transform="translate(1831,1736)"/><path d="M0 0 C0.3 0.7 0.7 1.3 1 2 C0.2 4.3 0.2 4.3 -1 7 C-1.5 8.3 -1.5 8.3 -2.1 9.7 C-3.0 12 -4.0 15 -5 17 C-6.3 13 -5.6 9.1 -4 5 C-1.9 2 -1.9 2 0 0 Z " fill="#F8F3E2" transform="translate(1697,1706)"/><path d="M0 0 C0.3 0 0.7 0 1 0 C1.6 2.9 1.6 2.9 2 6 C1.3 6.7 0.7 7.3 0 8 C-0.3 8.8 -0.6 9.7 -0.9 11 C-1.3 11 -1.6 12 -2 13 C-3.0 13 -4.0 14 -5 14 C-4.5 12 -4.1 11 -3.6 9.2 C-3.4 8.4 -3.1 7.5 -2.9 6.6 C-2.1 4.2 -1.2 2.2 0 0 Z " fill="#F8EED4" transform="translate(1560,1526)"/><path d="M0 0 C0.7 0.3 1.3 0.7 2 1 C0.7 2.5 0.7 2.5 -1 4 C-2.0 4 -3.0 4 -4 4 C-4.3 5.0 -4.7 6.0 -5 7 C-7.3 8.8 -7.3 8.8 -10 10 C-12 9.1 -12 9.1 -14 8 C-12 6.6 -9.4 5.3 -7.1 3.9 C-6.5 3.5 -5.8 3.2 -5.2 2.8 C-3.5 1.8 -1.7 0.9 0 0 Z " fill="#F8EFD4" transform="translate(1765,1510)"/><path d="M0 0 C2.7 3.3 4.2 5.6 3.8 10 C3.6 12 3.3 14 3 16 C2.3 16 1.7 16 1 16 C0.1 11 -0.1 5.5 0 0 Z " fill="#F9E4B9" transform="translate(1547,1628)"/><path d="M0 0 C7.0 0.5 13 2.1 19 5 C19 5.3 19 5.7 19 6 C17 6 15 6 13 6 C13 5.3 13 4.7 13 4 C12 4.1 12 4.1 10 4.2 C6.3 4.0 3.7 2.8 0 1 C0 0.7 0 0.3 0 0 Z " fill="#FAEECF" transform="translate(1733,1593)"/><path d="M0 0 C0.3 1.0 0.7 2.0 1 3 C-1 5 -3 7 -5 9 C-6.0 9 -7.0 9 -8 9 C-7.7 5.8 -7.0 5.0 -4.6 2.8 C-2 1 -2 1 0 0 Z " fill="#C89443" transform="translate(1591,1582)"/><path d="M0 0 C0.3 0 0.7 0 1 0 C1.4 2.1 1.4 2.1 1 5 C-0.4 6.9 -1.9 8.6 -3.5 10 C-5.3 12 -6.7 15 -8 17 C-8.3 16 -8.7 16 -9 15 C-7.8 13 -6.5 10 -5.1 7.9 C-4.7 7.3 -4.4 6.6 -4.0 6.0 C-1.2 1.2 -1.2 1.2 0 0 Z " fill="#B4863D" transform="translate(1566,1500)"/><path d="M0 0 C2 1 2 1 3.3 4.6 C3.7 6.1 4.2 7.6 4.6 9.1 C4.9 9.8 5.1 11 5.3 11 C5.9 13 6.4 15 7 17 C6.3 17 5.7 17 5 17 C4.7 15 4.3 14 4 12 C3.3 12 2.7 12 2 12 C0.9 7.7 0 4.4 0 0 Z " fill="#B68842" transform="translate(1607,1737)"/><path d="M0 0 C1.0 0.3 2.0 0.7 3 1 C1.7 4.0 0.4 6.9 -1 10 C-3.4 7.6 -3.5 6.2 -4 3 C-3.3 3 -2.7 3 -2 3 C-2 2.3 -2 1.7 -2 1 C-1.3 0.7 -0.7 0.3 0 0 Z " fill="#FBF1D3" transform="translate(1685,1706)"/><path d="M0 0 C-0.3 1.0 -0.7 2.0 -1 3 C-5.5 3.5 -5.5 3.5 -10 4 C-10 5.0 -10 6.0 -10 7 C-11 7 -12 7 -13 7 C-13 5.3 -12 3.7 -12 2 C-11 1.7 -9.1 1.3 -7.7 1 C-6.9 0.8 -6.1 0.6 -5.3 0.4 C-3 0 -3 0 0 0 Z " fill="#B98D48" transform="translate(1660,1690)"/><path d="M0 0 C1.4 2.8 2.8 5.7 4.1 8.6 C4.5 9.3 4.8 10 5.2 11 C6 13 6 13 6 16 C5.3 16 4.7 16 4 16 C1.2 10 -0.5 6.3 0 0 Z " fill="#F8EBC9" transform="translate(1551,1671)"/><path d="M0 0 C1.2 3.6 0.7 4.5 -0.8 7.9 C-1.3 9.2 -1.3 9.2 -1.8 11 C-3.0 13 -4.3 15 -6 17 C-5.6 11 -3.1 5.7 0 0 Z " fill="#F8E9C9" transform="translate(1563,1627)"/><path d="M0 0 C1.0 0.3 2.0 0.7 3 1 C0.0 6.3 -2.9 12 -6 17 C-7 14 -7 14 -6.0 12 C-5.5 11 -5.1 9.7 -4.6 8.8 C-4.1 7.9 -3.6 7.0 -3.1 6.1 C-2.8 5.4 -2.4 4.7 -2 4 C-1.3 4 -0.7 4 0 4 C0 2.7 0 1.4 0 0 Z " fill="#B88E4C" transform="translate(1631,1609)"/><path d="M0 0 C0.7 0 1.3 0 2 0 C4.8 4.8 5.7 8.6 6 14 C5.3 15 4.7 15 4 16 C3.3 14 2.7 12 2 9.7 C1.4 7.9 1.4 7.9 0.9 6.1 C0 3 0 3 0 0 Z " fill="#F7E9C9" transform="translate(1850,1510)"/><path d="M0 0 C0.7 0.3 1.3 0.7 2 1 C0.4 6.2 -1.7 11 -4 16 C-5.2 12 -4.5 9.8 -3 6 C-2.3 6 -1.7 6 -1 6 C-1.0 5.2 -1.0 4.4 -1.1 3.6 C-1 1 -1 1 0 0 Z " fill="#F9EBC9" transform="translate(1808,1783)"/><path d="M0 0 C0.3 0 0.7 0 1 0 C1.4 6.5 1.0 11 -2 17 C-3.0 14 -3.0 13 -2.6 9.6 C-2.5 8.8 -2.4 8.0 -2.4 7.3 C-1.4 1.4 -1.4 1.4 0 0 Z " fill="#FAF4E0" transform="translate(1836,1714)"/><path d="M0 0 C0.4 0.4 0.8 0.8 1.2 1.1 C5.6 5.0 10 8.1 15 11 C12 12 11 12 8.1 10 C4.0 8.3 2.1 6.1 0 2 C0 1.3 0 0.7 0 0 Z " fill="#BA914E" transform="translate(1573,1697)"/><path d="M0 0 C3.6 0 7.3 0 11 0 C11 0.3 11 0.7 11 1 C8.0 1.7 5.1 2.3 2 3 C1.7 4.3 1.3 5.6 1 7 C4.0 7.5 4.0 7.5 7 8 C7 8.3 7 8.7 7 9 C4.7 8.7 2.4 8.3 0 8 C-1.1 2.2 -1.1 2.2 0 0 Z " fill="#FAEBC8" transform="translate(1646,1690)"/><path d="M0 0 C0.7 0.3 1.3 0.7 2 1 C0.9 2.6 -0.2 4.3 -1.4 5.9 C-2.3 7.2 -2.3 7.2 -3.3 8.6 C-5 11 -5 11 -7 13 C-8.0 13 -9.0 12 -10 12 C-9.3 12 -8.7 12 -8 12 C-8 11 -8 11 -8 10 C-7.3 10 -6.7 10 -6 10 C-6 9.3 -6 8.7 -6 8 C-5.3 8 -4.7 8 -4 8 C-4 6.7 -4 5.4 -4 4 C-3.3 4 -2.7 4 -2 4 C-1.3 2.7 -0.7 1.4 0 0 Z " fill="#FDF4D8" transform="translate(1615,1623)"/><path d="M0 0 C3.2 2.6 4.3 5.7 5.8 9.5 C6.4 11 6.4 11 7.1 13 C8 16 8 16 7 19 C1.6 6.5 1.6 6.5 0 0 Z " fill="#B48B49" transform="translate(1843,1497)"/><path d="M0 0 C1.0 0.3 2.0 0.7 3 1 C3 2.0 3 3.0 3 4 C2.3 4 1.7 4 1 4 C0.7 5.3 0.3 6.6 0 8 C0 7.3 0 6.7 0 6 C-2.0 7.0 -2.0 7.0 -4 8 C-3.5 4.3 -2.9 2.4 0 0 Z " fill="#C68B31" transform="translate(1774,1495)"/><path d="M0 0 C-2.3 1.3 -4.6 2.6 -6.9 3.9 C-7.5 4.3 -8.2 4.7 -8.8 5.1 C-14 7.9 -14 7.9 -16 9 C-16 8.0 -16 7.0 -16 6 C-13 3.2 -12 3 -8 3 C-8 2.3 -8 1.7 -8 1 C-3.4 -1.1 -3.4 -1.1 0 0 Z " fill="#FAECC7" transform="translate(1627,1449)"/><path d="M0 0 C0.1 1.4 0.1 2.8 0.1 4.2 C0.1 5.0 0.2 5.8 0.2 6.6 C-0.0 9.2 -0.7 11 -2 13 C-2.3 11 -2.7 8.4 -3 6 C-3.7 7.0 -4.3 8.0 -5 9 C-4.7 5.6 -4.7 5.6 -4 2 C-1 0 -1 0 0 0 Z " fill="#CB9039" transform="translate(1547,1558)"/><path d="M0 0 C2.1 3.2 2.3 4.3 2.3 8 C2.3 8.9 2.3 9.7 2.4 11 C2 13 2 13 -1 16 C-0.7 11 -0.3 5.4 0 0 Z " fill="#BB904C" transform="translate(1856,1599)"/><path d="M0 0 C0 0.3 0 0.7 0 1 C-6.1 2.9 -11 3.1 -17 2 C-11 -1.1 -6.5 -1.2 0 0 Z " fill="#C2944E" transform="translate(1716,1585)"/><path d="M0 0 C0 0.7 0 1.3 0 2 C-1.0 2 -2.0 2 -3 2 C-3.3 3.0 -3.7 4.0 -4 5 C-5.8 6.1 -5.8 6.1 -8 7 C-8.7 7.4 -9.5 7.7 -10 8.1 C-11 8.4 -11 8.7 -12 9 C-13 8.3 -13 7.7 -14 7 C-12 5.8 -10 4.7 -8.1 3.5 C-7.0 2.9 -5.9 2.2 -4.8 1.5 C-2 0 -2 0 0 0 Z " fill="#F9EBCD" transform="translate(1633,1563)"/><path d="M0 0 C0.7 0.3 1.3 0.7 2 1 C-0.4 3.6 -3.0 5.2 -6 7 C-7.7 8.3 -9.4 9.6 -11 11 C-11 10 -11 9.0 -11 8 C-9.4 6.5 -9.4 6.5 -7.2 4.9 C-6.5 4.4 -5.8 3.9 -5.0 3.4 C-3.4 2.3 -1.7 1.1 0 0 Z " fill="#FCF4D7" transform="translate(1614,1465)"/><path d="M0 0 C2.8 0.5 5.3 1.1 8 2 C8 2.7 8 3.3 8 4 C8.7 4 9.3 4 10 4 C10 4.7 10 5.3 10 6 C6.4 5.7 4.4 5.4 1.6 3 C0 1 0 1 0 0 Z " fill="#CD9742" transform="translate(1757,1437)"/><path d="M0 0 C4.6 0 9.2 0 14 0 C15 1.6 15 3.3 16 5 C15 5 15 5 14 5 C14 4.3 13 3.7 13 3 C10.0 2.5 10.0 2.5 6.4 2.4 C5.2 2.3 4.0 2.2 2.8 2.1 C1.9 2.1 1.0 2.1 0 2 C0 1.3 0 0.7 0 0 Z " fill="#F6E5BF" transform="translate(1788,1747)"/><path d="M0 0 C1.0 0.5 1.0 0.5 2 1 C2 1.7 2 2.3 2 3 C2.7 3 3.3 3 4 3 C6.3 10.0 6.3 10.0 5 14 C4.2 12 3.3 10 2.5 8.7 C2.0 7.7 1.6 6.7 1.1 5.7 C0 3 0 3 0 0 Z " fill="#F9EED1" transform="translate(1533,1727)"/><path d="M0 0 C-2.1 1.2 -4.2 2.3 -6.4 3.5 C-7.0 3.8 -7.6 4.2 -8.2 4.5 C-13 7 -13 7 -15 7 C-15 6.0 -14 5.0 -14 4 C-13 4 -11 4 -10 4 C-10 3.3 -10 2.7 -10 2 C-3.4 -1.1 -3.4 -1.1 0 0 Z " fill="#FAEDCD" transform="translate(1613,1569)"/><path d="M0 0 C5.6 0.3 11 0.7 17 1 C17 1.7 17 2.3 17 3 C18 3.3 18 3.7 19 4 C13 3.3 6.3 2.2 0 1 C0 0.7 0 0.3 0 0 Z " fill="#F6E4BD" transform="translate(1731,1428)"/><path d="M0 0 C2 3 2 3 1.3 6.5 C0.2 9.6 -0.5 11 -3 13 C-2.5 8.4 -1.6 4.3 0 0 Z " fill="#C0934E" transform="translate(1696,1859)"/><path d="M0 0 C5.9 0.5 11 1.5 17 3 C17 3.3 17 3.7 17 4 C11 4.4 5.8 3.0 0 1 C0 0.7 0 0.3 0 0 Z " fill="#B38541" transform="translate(1732,1837)"/><path d="M0 0 C-3.4 2.7 -7.5 6 -12 6 C-9.8 -0.7 -6.5 -0.3 0 0 Z " fill="#FBEED0" transform="translate(1632,1558)"/><path d="M0 0 C0.3 0.7 0.7 1.3 1 2 C2.3 2 3.6 2 5 2 C4.2 3.9 4.2 3.9 3 6 C0.9 6.8 0.9 6.8 -1 7 C-0.7 4.7 -0.3 2.4 0 0 Z " fill="#B79050" transform="translate(1545,1849)"/><path d="M0 0 C0.3 0 0.7 0 1 0 C1.5 5.6 -0.0 8.4 -3 13 C-3.7 13 -4.3 13 -5 13 C-3.6 8.5 -1.9 4.3 0 0 Z " fill="#BD924B" transform="translate(1818,1765)"/><path d="M0 0 C1 3 1 3 0.4 5.1 C-1 7 -1 7 -4.1 7.8 C-5.5 7.9 -5.5 7.9 -7 8 C-5.1 4.5 -3.4 2.2 0 0 Z " fill="#C19146" transform="translate(1611,1569)"/><path d="M0 0 C0.3 1.0 0.7 2.0 1 3 C-1.8 7.0 -4.5 9.9 -9 12 C-9.7 12 -10 11 -11 11 C-10 10 -9.6 9.7 -8.8 9.1 C-7.5 7.9 -7.5 7.9 -6.1 6.6 C-5.1 5.8 -4.2 5.0 -3.3 4.2 C-1.0 2.2 -1.0 2.2 0 0 Z " fill="#FCF0D0" transform="translate(1781,1496)"/><path d="M0 0 C0.9 0.3 0.9 0.3 1.8 0.6 C0.4 1.8 -1.1 2.9 -2.6 4.1 C-3.4 4.7 -4.2 5.3 -5.0 6.0 C-7.2 7.6 -7.2 7.6 -9.2 8.6 C-8.9 6.7 -8.9 6.7 -8.2 4.6 C-7.2 4.3 -6.2 4.0 -5.2 3.6 C-5.2 3.0 -5.2 2.3 -5.2 1.6 C-2.2 -0.4 -2.2 -0.4 0 0 Z " fill="#F9ECCB" transform="translate(1600.1875,1464.375)"/><path d="M0 0 C0.7 0.3 1.3 0.7 2 1 C0.9 2.5 0.9 2.5 -1 4 C-4.1 4.3 -4.1 4.3 -7.7 4.2 C-9.5 4.1 -9.5 4.1 -11 4.1 C-13 4.1 -13 4.1 -14 4 C-14 3.7 -14 3.3 -14 3 C-13 2.9 -12 2.7 -12 2.6 C-11 2.4 -9.7 2.2 -8.7 2.1 C-7.7 1.9 -6.7 1.7 -5.7 1.5 C-2.9 1.0 -2.9 1.0 0 0 Z " fill="#F2E2C0" transform="translate(1807,1717)"/><path d="M0 0 C4.9 -0.3 5.8 -0.2 10 3 C6.7 3 3.4 3 0 3 C0 2.0 0 1.0 0 0 Z " fill="#C68F3A" transform="translate(1781,1707)"/><path d="M0 0 C2 1 2 1 2.9 3.5 C3.1 4.5 3.4 5.5 3.6 6.6 C3.9 7.6 4.1 8.6 4.4 9.6 C4.6 10 4.8 11 5 12 C4.0 12 3.0 11 2 11 C0.4 7.2 -0.2 4.1 0 0 Z " fill="#BB9352" transform="translate(1809,1668)"/><path d="M0 0 C0.7 0.1 1.4 0.3 2.2 0.4 C3.6 0.7 3.6 0.7 5 1 C6.7 1.3 8.3 1.7 10 2 C8.9 3.6 8.9 3.6 7 5 C3.8 4.7 3.8 4.7 1 4 C0.7 2.7 0.3 1.4 0 0 Z " fill="#C28931" transform="translate(1594,1637)"/><path d="M0 0 C0.7 0 1.3 0 2 0 C0.7 4.2 -0.9 8.1 -3 12 C-4.0 9.4 -4.1 8.2 -3.2 5.4 C-2 3 -2 3 0 0 Z " fill="#FBF1D5" transform="translate(1532,1633)"/><path d="M0 0 C4.7 2.4 8.0 5.7 11 10 C11 11 11 11 11 12 C10 12 9.7 12 9 12 C7.9 11 7.9 11 6.6 8.7 C4.7 5.8 2.8 4.0 0 2 C0 1.3 0 0.7 0 0 Z " fill="#B68E50" transform="translate(1582,1617)"/><path d="M0 0 C-3.3 2.3 -6.6 4.6 -10 7 C-10 6.0 -11 5.0 -11 4 C-10 4 -9.0 4 -8 4 C-7.7 3.0 -7.3 2.0 -7 1 C-4.1 -1.0 -3.5 -1.2 0 0 Z " fill="#F9ECCB" transform="translate(1578,1589)"/><path d="M0 0 C0.7 0 1.3 0 2 0 C1.7 1.6 1.4 3.2 1.1 4.8 C0.9 6.1 0.9 6.1 0.6 7.4 C0.0 9.9 -0.8 12 -2 14 C-2.4 4.6 -2.4 4.6 0 0 Z " fill="#FDF2D4" transform="translate(1693,1862)"/><path d="M0 0 C1.4 3.2 0.9 4.3 -0.4 7.6 C-1.2 9.4 -2.1 11 -3 13 C-3.7 13 -4.3 13 -5 13 C-3.6 8.5 -1.9 4.3 0 0 Z " fill="#BF9452" transform="translate(1803,1799)"/><path d="M0 0 C7.4 1.0 7.4 1.0 15 2 C12 4.2 11 4.4 7 4 C4.7 3.4 2.3 2.7 0 2 C0 1.3 0 0.7 0 0 Z " fill="#FDF2D4" transform="translate(1743,1761)"/><path d="M0 0 C2.0 3.0 2.3 4.2 2.6 7.7 C2.7 8.5 2.8 9.3 2.9 10 C2.9 11 2.9 11 3 12 C2.0 11 1.0 11 0 10 C-0.3 7.6 -0.3 7.6 -0.2 4.9 C-0.2 4.0 -0.1 3.1 -0.1 2.1 C-0.1 1.4 -0.0 0.7 0 0 Z " fill="#F6E7C6" transform="translate(1811,1691)"/><path d="M0 0 C1.4 0.3 2.8 0.6 4.2 0.9 C5.0 1.0 5.8 1.2 6.6 1.4 C9.0 2.0 11 2.8 13 4 C10 4.9 9.3 5.1 6.6 4.2 C5.9 3.8 5.1 3.5 4.2 3.1 C3.5 2.7 2.7 2.3 1.8 1.9 C1.2 1.6 0.6 1.3 0 1 C0 0.7 0 0.3 0 0 Z " fill="#F7E8C3" transform="translate(1702,1686)"/><path d="M0 0 C3.1 2.5 4.1 5.2 5 9 C4.6 11 4.6 11 4 13 C3.7 11 3.3 9.7 3 8 C2.3 8 1.7 8 1 8 C0.7 5.4 0.3 2.7 0 0 Z " fill="#B2843D" transform="translate(1842,1541)"/><path d="M0 0 C0.7 0.3 1.3 0.7 2 1 C0.0 4.6 -2.0 8.3 -4 12 C-4.3 12 -4.7 12 -5 12 C-5.2 8.3 -5.2 7.2 -3 4 C-2.3 4 -1.7 4 -1 4 C-0.7 2.7 -0.3 1.4 0 0 Z " fill="#FBF1D5" transform="translate(1704,1840)"/><path d="M0 0 C0.7 0.3 1.3 0.7 2 1 C2.6 3.6 2.6 3.6 3 6 C2.0 6.3 1.0 6.7 0 7 C-0.3 7.7 -0.7 8.3 -1 9 C-1.7 9 -2.3 9 -3 9 C-2.0 6.0 -1.0 3.1 0 0 Z " fill="#FAEECC" transform="translate(1683,1673)"/><path d="M0 0 C0.7 0 1.3 0 2 0 C2 0.7 2 1.3 2 2 C2.7 2 3.3 2 4 2 C4.7 5.3 5.3 8.6 6 12 C0 4 0 4 0 0 Z " fill="#FAECC8" transform="translate(1561,1674)"/><path d="M0 0 C0.7 0.3 1.3 0.7 2 1 C-0.3 4.0 -2.6 6.9 -5 10 C-6.0 9.7 -7.0 9.3 -8 9 C-6.9 7.9 -6.9 7.9 -5.7 6.8 C-3.6 4.6 -1.7 2.5 0 0 Z " fill="#FBF0CE" transform="translate(1570,1492)"/><path d="M0 0 C0.3 0.7 0.7 1.3 1 2 C-2 5 -5 8 -8 11 C-8.7 11 -9.3 10 -10 10 C-6.7 6.7 -3.4 3.4 0 0 Z " fill="#B68D4A" transform="translate(1587,1476)"/><path d="M0 0 C0.7 0.7 1.3 1.3 2 2 C-0.6 4.6 -3.3 7.3 -6 10 C-7.0 9.7 -8.0 9.3 -9 9 C-7.6 7.9 -7.6 7.9 -6.2 6.8 C-3.7 4.7 -1.8 2.7 0 0 Z " fill="#FBF1D5" transform="translate(1799,1825)"/><path d="M0 0 C1.3 0.3 2.6 0.7 4 1 C4 1.7 4 2.3 4 3 C4.9 3.1 4.9 3.1 5.9 3.2 C8 4 8 4 9.2 6.1 C9.5 6.7 9.7 7.3 10 8 C2.4 4 2.4 4 0 0 Z " fill="#F8E8C3" transform="translate(1636,1778)"/><path d="M0 0 C3.3 3.2 6.2 6.4 9 10 C7.7 10 6.4 10 5 10 C2.5 6.9 0.6 4.0 0 0 Z " fill="#B98E49" transform="translate(1620,1763)"/><path d="M0 0 C0.7 0.3 1.3 0.7 2 1 C1.4 2.3 0.8 3.6 0.2 4.9 C-0.1 5.6 -0.5 6.3 -0.8 7.1 C-2 9 -2 9 -5 11 C-3.8 6.9 -2.3 3.6 0 0 Z " fill="#FCF1D5" transform="translate(1827,1766)"/><path d="M0 0 C1.0 0 2.0 0 3 0 C3 2.3 3 4.6 3 7 C2.0 6.3 1.0 5.7 0 5 C-2.0 4.6 -4.0 4.3 -6 4 C-6 3.7 -6 3.3 -6 3 C-4.0 3 -2.0 3 0 3 C0 2.0 0 1.0 0 0 Z " fill="#C5964C" transform="translate(1806,1756)"/><path d="M0 0 C0.3 0 0.7 0 1 0 C1.3 4.6 0.8 7.3 -2 11 C-2.7 11 -3.3 11 -4 11 C-3.5 9.5 -3.0 8.1 -2.6 6.6 C-2.3 5.8 -2.0 5.0 -1.8 4.2 C-1 2 -1 2 0 0 Z " fill="#F8EDD1" transform="translate(1840,1735)"/><path d="M0 0 C1.3 0 2.6 0 4 0 C3.7 1.6 3.3 3.3 3 5 C2.7 4.0 2.3 3.0 2 2 C1.3 2 0.7 2 0 2 C0 4.6 0 7.3 0 10 C-0.3 10 -0.7 10 -1 10 C-1.0 8.5 -1.0 7.0 -1.1 5.6 C-1.1 4.7 -1.1 3.9 -1.1 3.1 C-1 1 -1 1 0 0 Z " fill="#B58A43" transform="translate(1682,1651)"/><path d="M0 0 C1.0 0.3 2.0 0.7 3 1 C2.1 1.7 1.1 2.5 0.2 3.2 C-2.3 5.3 -4.2 7.3 -6 10 C-5.6 5.2 -3.5 3.2 0 0 Z " fill="#FCF1D3" transform="translate(1818,1606)"/><path d="M0 0 C0.3 1.0 0.7 2.0 1 3 C-0.2 4.8 -0.2 4.8 -1.9 6.7 C-2.5 7.3 -3.1 7.9 -3.7 8.6 C-4.1 9.0 -4.5 9.5 -5 10 C-5.7 9.7 -6.3 9.3 -7 9 C-4.7 6.0 -2.4 3.1 0 0 Z " fill="#F8EBCA" transform="translate(1585,1489)"/><path d="M0 0 C1.0 0.3 2.0 0.7 3 1 C0.7 3.3 -1.6 5.6 -4 8 C-4.3 6.7 -4.7 5.4 -5 4 C-2.7 1.9 -2.7 1.9 0 0 Z " fill="#FDF1D3" transform="translate(1582,1478)"/><path d="M0 0 C0 0.7 0 1.3 0 2 C-1.0 2.3 -1.9 2.6 -2.9 2.9 C-6.1 3.6 -6.1 3.6 -7 6 C-8.3 5.3 -9.6 4.7 -11 4 C-9.5 3.3 -8.1 2.7 -6.6 2 C-5.8 1.6 -5.0 1.3 -4.2 0.9 C-2 0 -2 0 0 0 Z " fill="#FAEECC" transform="translate(1646,1449)"/><path d="M0 0 C1 3 1 3 0.3 5.6 C-1.2 8.3 -2.1 8.9 -5 10 C-3.7 6.4 -2.0 3.2 0 0 Z " fill="#BE924A" transform="translate(1551,1839)"/><path d="M0 0 C0.3 0 0.7 0 1 0 C1.2 6.6 1.2 6.6 -1 10 C-1.7 10 -2.3 10 -3 10 C-2.7 8.5 -2.4 7.0 -2.1 5.6 C-1.9 4.7 -1.7 3.9 -1.5 3.1 C-1 1 -1 1 0 0 Z " fill="#FAF0D4" transform="translate(1584,1786)"/><path d="M0 0 C2.8 -0.2 2.8 -0.2 6 0 C8.4 2 8.4 2 10 4 C9.0 4.5 9.0 4.5 8 5 C6.1 4.2 6.1 4.2 3.9 3.1 C3.2 2.7 2.4 2.3 1.7 1.9 C1.1 1.6 0.6 1.3 0 1 C0 0.7 0 0.3 0 0 Z " fill="#F9ECCB" transform="translate(1752,1771)"/><path d="M0 0 C1.6 0 3.3 0 5 0 C5 1.0 5 2.0 5 3 C3.2 4.1 3.2 4.1 1 5 C0.0 4.7 -1.0 4.3 -2 4 C-1.3 2.7 -0.7 1.4 0 0 Z " fill="#C88A30" transform="translate(1605,1638)"/><path d="M0 0 C1.0 0.3 2.0 0.7 3 1 C-1.0 4.5 -1.0 4.5 -5 8 C-5.3 7.3 -5.7 6.7 -6 6 C-2.2 1.1 -2.2 1.1 0 0 Z " fill="#FAECC9" transform="translate(1564,1596)"/><path d="M0 0 C0 3 0 3 -1.5 4.6 C-2.2 5.1 -2.8 5.6 -3.5 6.2 C-4.1 6.7 -4.8 7.2 -5.5 7.8 C-6.0 8.2 -6.5 8.6 -7 9 C-7.7 8.7 -8.3 8.3 -9 8 C-6.0 5.4 -3.1 2.7 0 0 Z " fill="#F9EECE" transform="translate(1673,1556)"/><path d="M0 0 C0.3 0 0.7 0 1 0 C3.3 8.0 3.3 8.0 2 12 C1.7 10 1.3 8.7 1 7 C0.3 7 -0.3 7 -1 7 C-0.7 4.7 -0.3 2.4 0 0 Z " fill="#BC914D" transform="translate(1528,1713)"/><path d="M0 0 C1.1 2.8 1.0 4.2 0.2 7.2 C-0.4 8.6 -0.4 8.6 -1 10 C-2.0 10 -3.0 11 -4 11 C-3.5 9.5 -3.0 8.1 -2.6 6.6 C-2.3 5.8 -2.0 5.0 -1.8 4.2 C-1 2 -1 2 0 0 Z " fill="#C3954B" transform="translate(1687,1707)"/><path d="M0 0 C0.2 0.6 0.5 1.2 0.8 1.9 C2.2 4.4 3.4 4.8 6 6 C6.3 6.7 6.7 7.3 7 8 C3 8 3 8 1.2 6.8 C-0.4 4.4 -0.2 2.8 0 0 Z " fill="#F6EBCB" transform="translate(1687,1681)"/><path d="M0 0 C2.4 2.4 2.5 3.8 3 7 C2.4 6.8 1.8 6.6 1.1 6.4 C-1.0 5.8 -1.0 5.8 -3 7 C-1.1 1.1 -1.1 1.1 0 0 Z " fill="#FBEECC" transform="translate(1541,1638)"/><path d="M0 0 C2.3 0.7 4.6 1.3 7 2 C7.3 3.6 7.7 5.3 8 7 C6.7 6.0 5.3 5.0 4 4.1 C3.3 3.5 2.5 3.0 1.8 2.4 C1.2 1.9 0.6 1.5 0 1 C0 0.7 0 0.3 0 0 Z " fill="#F9EBCC" transform="translate(1765,1595)"/><path d="M0 0 C0 0.7 0 1.3 0 2 C-7.0 5.3 -7.0 5.3 -11 4 C-9.5 3.3 -8.1 2.7 -6.6 2 C-5.8 1.6 -5.0 1.3 -4.2 0.9 C-2 0 -2 0 0 0 Z " fill="#BE9248" transform="translate(1711,1527)"/><path d="M0 0 C-1 3 -1 3 -3 4 C-5.3 4.0 -7.7 4.0 -10 4 C-6.9 1.9 -3.9 0 0 0 Z " fill="#F8EACA" transform="translate(1738,1525)"/><path d="M0 0 C1.1 2.8 1.0 4.2 0.2 7.2 C-0.4 8.6 -0.4 8.6 -1 10 C-2.0 10 -3.0 11 -4 11 C-2.8 7.3 -1.5 3.6 0 0 Z " fill="#B78B44" transform="translate(1811,1781)"/><path d="M0 0 C3.6 1.6 7.3 3.3 11 5 C8 6 8 6 4.4 4.8 C1 3 1 3 0 0 Z " fill="#F9E8C3" transform="translate(1559,1775)"/><path d="M0 0 C-0.3 1.3 -0.7 2.6 -1 4 C-3.3 4 -5.6 4 -8 4 C-8 3.3 -8 2.7 -8 2 C-2.2 0 -2.2 0 0 0 Z " fill="#F4DCA8" transform="translate(1758,1752)"/><path d="M0 0 C0 0.7 0 1.3 0 2 C-2.0 2.3 -4.0 2.7 -6 3 C-6 2.0 -6 1.0 -6 0 C-3.5 -1.2 -2.6 -0.8 0 0 Z " fill="#C49244" transform="translate(1592,1709)"/><path d="M0 0 C1.1 3.3 0.9 5.1 -0.4 8.2 C-0.7 9.0 -1.0 9.7 -1.3 10 C-1.5 11 -1.8 11 -2 12 C-2.7 12 -3.3 12 -4 12 C-2.7 8 -1.3 4 0 0 Z " fill="#F7E6C3" transform="translate(1852,1633)"/><path d="M0 0 C1.0 0 2.0 0 3 0 C1.5 3.8 -0.8 5.6 -4 8 C-2.7 5.3 -1.3 2.7 0 0 Z " fill="#B68942" transform="translate(1554,1615)"/><path d="M0 0 C0.3 1.0 0.7 2.0 1 3 C4.5 2.5 4.5 2.5 8 2 C5.2 4.8 2.8 4.6 -1 5 C-0.7 3.4 -0.3 1.7 0 0 Z " fill="#B08846" transform="translate(1679,1596)"/><path d="M0 0 C1.2 1.7 1.2 1.7 2 4 C0.6 6.8 0.6 6.8 -1 9 C-2.0 6.2 -2.0 5.1 -1.1 2.2 C-0.7 1.5 -0.4 0.8 0 0 Z " fill="#F8EACA" transform="translate(1792,1477)"/><path d="M0 0 C4 1 4 1 5.8 2.9 C6.2 3.6 6.6 4.3 7 5 C6.7 6.0 6.3 7.0 6 8 C4.0 5.4 2.0 2.7 0 0 Z " fill="#F9EDCD" transform="translate(1829,1476)"/><path d="M0 0 C1.2 0.0 1.2 0.0 2.4 0.1 C-0.4 2.5 -3.1 4.5 -6.6 6.1 C-3.0 0.1 -3.0 0.1 0 0 Z " fill="#FDF5DC" transform="translate(1720.5625,1835.9375)"/><path d="M0 0 C1.6 1.3 3.3 2.6 5 4 C4.7 5.3 4.3 6.6 4 8 C2.4 6.0 0.7 4.0 -1 2 C-0.7 1.3 -0.3 0.7 0 0 Z " fill="#FBF3D7" transform="translate(1620,1760)"/><path d="M0 0 C0.7 0.3 1.3 0.7 2 1 C1.7 3.6 1.3 6.3 1 9 C0.3 9 -0.3 9 -1 9 C-1.1 2.2 -1.1 2.2 0 0 Z " fill="#BD8E44" transform="translate(1840,1712)"/><path d="M0 0 C0.7 1.3 1.3 2.6 2 4 C0.3 5.7 -1.3 7.3 -3 9 C-3.7 8.7 -4.3 8.3 -5 8 C-4.4 7.2 -3.7 6.5 -3.1 5.7 C-0.9 3.1 -0.9 3.1 0 0 Z " fill="#FAEED3" transform="translate(1819,1704)"/><path d="M0 0 C3.0 3.0 2.6 5.8 3 10 C1.5 8.9 1.5 8.9 0 7 C-0.2 3.3 -0.2 3.3 0 0 Z " fill="#B68D4B" transform="translate(1525,1700)"/><path d="M0 0 C1.6 -0.1 3.2 -0.1 4.9 -0.1 C5.8 -0.1 6.7 -0.2 7.6 -0.2 C10 0 10 0 12 2 C7.5 3.4 4.4 2.5 0 1 C0 0.7 0 0.3 0 0 Z " fill="#F9ECCC" transform="translate(1568,1622)"/><path d="M0 0 C0.3 0 0.7 0 1 0 C1.1 3.0 1.0 5.1 0 8 C-1.3 8.3 -2.6 8.7 -4 9 C-2.7 6.0 -1.4 3.1 0 0 Z " fill="#F8EAC9" transform="translate(1642,1593)"/><path d="M0 0 C-0.6 1.9 -0.6 1.9 -2 4 C-5.1 4.8 -5.1 4.8 -8 5 C-3.2 0 -3.2 0 0 0 Z " fill="#F9EBCD" transform="translate(1619,1571)"/><path d="M0 0 C3.5 2.0 6.2 4.0 9 7 C7.3 6.7 5.7 6.3 4 6 C3.7 5.0 3.3 4.0 3 3 C2.0 2.7 1.0 2.3 0 2 C0 1.3 0 0.7 0 0 Z " fill="#FBEFCD" transform="translate(1812,1470)"/><path d="M0 0 C0.7 0.3 1.3 0.7 2 1 C1.7 2.6 1.3 4.3 1 6 C0.0 6 -1.0 6 -2 6 C-1.1 1.1 -1.1 1.1 0 0 Z " fill="#C68932" transform="translate(1695,1876)"/><path d="M0 0 C0.7 1.0 1.3 2.0 2 3 C1.0 5.0 0.0 7.0 -1 9 C-1.7 9 -2.3 9 -3 9 C-2.0 6.0 -1.0 3.1 0 0 Z " fill="#F8ECCF" transform="translate(1808,1806)"/><path d="M0 0 C0 0.7 0 1.3 0 2 C-3.8 3.8 -5.9 4.2 -10 3 C-10 2.7 -10 2.3 -10 2 C-8.7 1.7 -7.4 1.3 -6.1 1 C-5.4 0.8 -4.7 0.6 -3.9 0.4 C-2 0 -2 0 0 0 Z " fill="#FBEED0" transform="translate(1796,1785)"/><path d="M0 0 C0.7 0 1.3 0 2 0 C5 5.8 5 5.8 5 8 C4.0 7.7 3.0 7.3 2 7 C2 5.7 2 4.4 2 3 C1.3 3 0.7 3 0 3 C0 2.0 0 1.0 0 0 Z " fill="#F8ECCD" transform="translate(1527,1738)"/><path d="M0 0 C0.7 0 1.3 0 2 0 C2.1 2.9 2.1 2.9 2 6 C1.3 6.7 0.7 7.3 0 8 C-1.0 4.9 -1.0 3.1 0 0 Z " fill="#C09249" transform="translate(1837,1734)"/><path d="M0 0 C0.3 0.7 0.7 1.3 1 2 C-0.7 4.3 -2.3 6.6 -4 9 C-4.3 8.3 -4.7 7.7 -5 7 C-1.1 1.1 -1.1 1.1 0 0 Z " fill="#FBEECB" transform="translate(1697,1706)"/><path d="M0 0 C0.7 0.3 1.3 0.7 2 1 C1.4 3.9 1.1 4.9 -1 7 C-2.0 6.7 -3.0 6.3 -4 6 C-3.3 6 -2.7 6 -2 6 C-2 5.0 -2 4.0 -2 3 C-1.3 3 -0.7 3 0 3 C0 2.0 0 1.0 0 0 Z " fill="#FDF4DC" transform="translate(1811,1701)"/><path d="M0 0 C1.0 0.5 1.0 0.5 2 1 C2.4 3.3 2.7 5.7 3 8 C2.0 8.5 2.0 8.5 1 9 C0.7 6.0 0.3 3.1 0 0 Z " fill="#FCF2D7" transform="translate(1849,1668)"/><path d="M0 0 C0.6 1.8 0.6 1.8 1 4 C0.0 5.5 0.0 5.5 -1 7 C-2.0 7 -3.0 7 -4 7 C-2.8 4.5 -1.5 2.3 0 0 Z " fill="#F8EED4" transform="translate(1622,1629)"/><path d="M0 0 C0.7 0 1.3 0 2 0 C2.2 2.9 2.2 2.9 2 6 C1.0 6.7 0.0 7.3 -1 8 C-0.7 5.4 -0.3 2.7 0 0 Z " fill="#BE924C" transform="translate(1847,1624)"/><path d="M0 0 C0.3 1.3 0.7 2.6 1 4 C0.2 3.9 -0.5 3.9 -1.3 3.8 C-4.0 3.7 -4.0 3.7 -5.8 5.5 C-6.2 6.0 -6.6 6.5 -7 7 C-6.7 5.3 -6.3 3.7 -6 2 C-4.0 2 -2.0 2 0 2 C0 1.3 0 0.7 0 0 Z " fill="#EEDEB8" transform="translate(1812,1616)"/><path d="M0 0 C2.1 0.4 2.1 0.4 4 1 C3.4 1.4 2.8 1.8 2.1 2.2 C-0.1 4.1 -0.9 5.4 -2 8 C-2.1 5.1 -2.1 5.1 -2 2 C-1.3 1.3 -0.7 0.7 0 0 Z " fill="#F3E3C0" transform="translate(1679,1593)"/><path d="M0 0 C-2.9 1.9 -3.9 2.3 -7.2 2.6 C-8.4 2.7 -9.7 2.9 -11 3 C-7.5 -0.4 -4.7 -0.3 0 0 Z " fill="#FEF7DE" transform="translate(1702,1585)"/><path d="M0 0 C0 0.7 0 1.3 0 2 C-1.0 2.3 -2.0 2.7 -3 3 C-3.7 3.7 -4.3 4.3 -5 5 C-6.3 4.3 -7.6 3.7 -9 3 C-2.2 0 -2.2 0 0 0 Z " fill="#F6E8C4" transform="translate(1718,1533)"/><path d="M0 0 C-1.3 0.7 -2.6 1.3 -3.9 2 C-4.6 2.4 -5.3 2.7 -6.1 3.1 C-8 4 -8 4 -10 4 C-9 1 -9 1 -6.7 -0.2 C-3.8 -1.0 -2.8 -0.8 0 0 Z " fill="#FBF2D6" transform="translate(1673,1441)"/></svg> 