<?xml version="1.0" encoding="UTF-8"?><svg xmlns="http://www.w3.org/2000/svg" viewBox="106 741 720 751"><path d="M0 0 C-3.0 2.4 -5.9 4.0 -9.4 5.6 C-49 25 -78 59 -92 101 C-95 108 -97 115 -97 123 C-97 124 -97 125 -97 126 C-98 139 -95 150 -92 162 C-90 169 -90 175 -90 182 C-89 197 -86 208 -76 219 C-74 221 -72 223 -70 224 C-69 225 -68 225 -68 226 C-61 230 -53 234 -46 238 C-41 241 -36 243 -31 247 C-30 250 -30 250 -31 253 C-33 257 -36 261 -39 264 C-41 269 -41 274 -39 279 C-35 284 -30 288 -25 291 C-25 294 -26 296 -28 298 C-30 299 -33 301 -35 302 C-36 302 -36 303 -37 303 C-47 309 -58 311 -70 310 C-70 312 -70 312 -69 314 C-62 317 -51 316 -44 314 C-36 311 -30 308 -23 303 C-21 302 -19 301 -17 301 C-14 304 -13 307 -12 312 C-11 319 -6.6 323 -0.9 327 C5.1 331 12 334 18 337 C20 338 20 338 21 339 C50 351 86 352 116 343 C117 342 117 342 119 342 C140 335 160 326 177 312 C177 313 178 314 178 315 C177 318 177 318 175 320 C174 322 173 323 172 324 C172 325 171 326 170 327 C169 328 169 328 168 330 C158 345 145 358 131 369 C129 370 129 370 128 371 C102 392 70 405 38 411 C37 411 36 412 35 412 C-20 421 -79 407 -125 377 C-153 357 -174 329 -187 297 C-187 296 -188 296 -188 295 C-195 278 -200 261 -203 243 C-204 242 -204 242 -204 241 C-213 191 -200 136 -173 94 C-165 83 -158 73 -149 64 C-148 63 -148 63 -147 62 C-134 48 -118 36 -101 26 C-100 26 -100 25 -99 25 C-69 7.3 -35 -0.3 0 0 Z " fill="#F5F4EE" transform="translate(373,809)"/><path d="M0 0 C0.8 -0.0 1.6 -0.0 2.4 -0.0 C4.7 -0.0 7.1 -0.0 9.4 0.0 C10 0.0 11 0.0 11 0.0 C16 0.1 19 0.6 23 2.3 C24 4.4 24 4.4 24 6.3 C21 9.5 16 11 12 12 C-13 20 -36 37 -53 57 C-54 58 -54 59 -55 60 C-77 87 -89 119 -86 154 C-85 159 -84 165 -82 170 C-81 173 -81 176 -80 180 C-80 181 -80 181 -80 183 C-80 186 -80 188 -80 191 C-79 202 -77 212 -68 220 C-59 227 -49 233 -39 238 C-39 238 -38 238 -37 239 C-36 240 -34 240 -33 241 C-28 244 -24 246 -21 250 C-19 255 -19 258 -21 263 C-23 267 -25 270 -28 273 C-30 275 -30 275 -30 278 C-30 282 -28 284 -25 286 C-23 287 -22 288 -20 289 C-16 292 -15 294 -14 299 C-12 301 -12 301 -9.4 303 C-5.4 306 -3.8 307 -2.9 312 C-2.8 313 -2.7 314 -2.6 314 C-2.0 319 -1.0 322 2.6 325 C16 334 32 340 47 343 C48 344 49 344 50 344 C58 346 66 346 74 346 C76 346 79 346 81 346 C120 346 158 329 186 303 C187 302 188 301 188 301 C191 299 192 299 195 299 C196 303 196 304 195 308 C194 309 193 310 193 312 C192 312 192 313 192 314 C190 316 189 318 188 320 C188 321 187 322 187 322 C162 368 119 403 69 419 C61 422 53 424 45 425 C44 426 43 426 42 426 C29 429 15 430 1.6 430 C0.9 430 0.1 430 -0.6 430 C-58 430 -111 408 -152 368 C-153 368 -153 367 -154 366 C-160 360 -166 353 -171 346 C-172 345 -172 345 -173 344 C-178 336 -183 328 -187 320 C-187 319 -188 318 -189 317 C-202 291 -209 263 -213 234 C-213 234 -213 233 -213 232 C-217 199 -211 165 -199 134 C-199 134 -198 133 -198 132 C-189 109 -175 89 -159 70 C-158 70 -158 69 -157 69 C-126 34 -84 13 -39 3.3 C-38 3.1 -37 3.0 -37 2.8 C-24 0.2 -12 0.0 0 0 Z M-32 8.3 C-33 8.4 -33 8.5 -34 8.7 C-73 16 -110 34 -138 62 C-139 63 -140 64 -142 65 C-178 99 -202 151 -204 202 C-204 216 -204 231 -202 245 C-202 246 -202 247 -202 248 C-196 284 -181 322 -157 350 C-156 351 -156 351 -155 353 C-153 355 -150 358 -148 360 C-147 361 -147 362 -146 362 C-136 372 -127 381 -115 388 C-114 389 -113 390 -112 390 C-87 405 -59 413 -31 418 C-30 418 -29 419 -28 419 C-6.2 423 19 422 41 417 C42 417 43 417 44 416 C94 406 141 379 170 336 C171 336 171 335 171 334 C173 332 174 330 176 328 C176 328 177 327 177 326 C178 325 179 323 180 321 C180 320 179 319 179 318 C178 319 178 319 177 320 C160 334 139 343 118 349 C117 349 116 350 115 350 C80 360 41 355 9.2 338 C1.4 334 -6.7 329 -9.9 320 C-10 318 -11 316 -11 313 C-12 311 -13 309 -15 307 C-18 308 -21 309 -24 312 C-37 320 -49 323 -65 321 C-66 321 -66 321 -67 320 C-68 318 -68 318 -68 316 C-67 316 -66 316 -66 316 C-51 317 -37 312 -25 303 C-23 301 -23 301 -23 298 C-24 296 -26 295 -28 293 C-33 290 -36 288 -38 282 C-39 277 -38 273 -35 269 C-34 267 -33 266 -32 264 C-30 262 -29 260 -28 256 C-29 252 -32 251 -35 249 C-39 246 -44 244 -48 242 C-56 238 -64 233 -71 227 C-72 227 -72 226 -73 226 C-82 219 -85 209 -87 198 C-87 197 -87 196 -87 194 C-87 182 -89 170 -92 158 C-99 130 -91 104 -78 79 C-77 78 -77 77 -76 76 C-70 64 -61 54 -52 44 C-51 43 -51 43 -50 43 C-41 33 -31 26 -20 19 C-19 18 -18 18 -17 17 C-11 13 -4.6 10 2.1 7.3 C2.1 7.0 2.1 6.7 2.1 6.3 C-9.4 6.1 -20 6.2 -32 8.3 Z " fill="#4B4092" transform="translate(370.875,802.6875)"/><path d="M0 0 C10 7.6 17 18 23 29 C24 30 24 31 25 32 C31 45 36 59 38 73 C41 73 43 73 46 73 C46 73 47 73 48 73 C53 73 56 73 60 70 C63 68 63 68 65 65 C69 60 69 60 71 59 C73 59 75 59 77 59 C77 62 76 64 74 66 C73 67 73 67 72 68 C69 70 67 72 64 75 C60 80 56 82 49 82 C39 83 39 83 34 79 C33 77 33 77 32 75 C32 74 31 73 31 72 C30 70 29 67 29 65 C18 32 18 32 -4.2 7.6 C-14 3.2 -26 3.4 -36 7.1 C-38 8.0 -40 8.8 -42 9.7 C-45 11 -47 11 -50 11 C-50 8.3 -50 8.3 -49 5 C-37 -6.1 -14 -8.1 0 0 Z " fill="#473C8F" transform="translate(350,994)"/><path d="M0 0 C0.5 2.0 0.5 2.0 1 4 C-3.2 5.5 -7.4 6.9 -12 7.9 C-35 14 -51 25 -65 44 C-67 44 -68 43 -70 43 C-71 35 -66 30 -61 24 C-45 6.8 -23 -0.8 0 0 Z " fill="#4C4195" transform="translate(441,926)"/><path d="M0 0 C-0.7 5.1 -2.5 7.4 -6.1 11 C-10 14 -15 16 -20 18 C-25 20 -28 22 -31 26 C-36 30 -40 32 -46 35 C-49 36 -52 37 -54 39 C-58 41 -61 43 -65 43 C-66 41 -66 41 -66 39 C-65 37 -65 37 -63 36 C-63 35 -62 34 -62 34 C-61 33 -61 33 -60 32 C-59 31 -59 31 -58 30 C-54 25 -50 23 -43 23 C-42 23 -41 22 -40 22 C-38 19 -38 19 -37 16 C-33 12 -27 10 -21 8.1 C-16 6.2 -11 4.1 -6.7 1.0 C-4.4 -0.3 -2.6 -0.4 0 0 Z " fill="#4B4095" transform="translate(468,1069)"/><path d="M0 0 C2.4 1.5 2.4 1.5 4 3 C3.7 4.7 3.3 6.3 3 8 C-0.9 9.6 -4.4 10 -8.6 10 C-25 11 -36 21 -46 32 C-48 34 -49 36 -51 39 C-51 39 -52 40 -52 40 C-53 40 -54 40 -55 40 C-55 30 -48 22 -41 15 C-29 5.3 -16 -2.7 0 0 Z " fill="#4B428E" transform="translate(266,994)"/><path d="M0 0 C12 3.4 23 4.6 35 4.9 C37 4.9 38 5.0 40 5.0 C43 5.1 47 5.2 50 5.2 C50 5.6 50 5.9 50 6.2 C53 6.6 55 6.9 57 7.2 C56 7.6 55 7.9 53 8.2 C54 10 54 10 54 12 C30 16 5.5 15 -17 4.2 C-16 2.4 -16 2.4 -15 0.2 C-9.4 -2.1 -5.4 -1.6 0 0 Z " fill="#50479A" transform="translate(409.75,1143.75)"/><path d="M0 0 C0.8 0.1 1.5 0.2 2.3 0.2 C0.4 12 -5.8 22 -15 29 C-27 37 -37 38 -51 37 C-51 35 -51 35 -52 33 C-50 31 -48 30 -44 29 C-43 29 -43 29 -42 28 C-40 28 -38 28 -36 27 C-23 24 -15 18 -7.3 6.6 C-3.0 0.3 -3.0 0.3 0 0 Z " fill="#473B93" transform="translate(444.6875,957.75)"/><path d="M0 0 C-0.6 4.1 -1.4 5.6 -4.6 8.4 C-8.1 11 -12 13 -16 14 C-17 15 -17 15 -18 16 C-39 25 -39 25 -45 25 C-46 22 -46 22 -46 20 C-46 19 -47 17 -47 16 C-46 16 -46 16 -45 15 C-27 9.3 -27 9.3 -11 1.3 C-6.7 -0.6 -4.2 -1.4 0 0 Z " fill="#4C4595" transform="translate(480,1198)"/><path d="M0 0 C2.7 3.1 3.8 6.1 5 10 C6.0 11 6.0 11 7 13 C7 14 7 15 7 16 C9.5 16 12 16 15 16 C16 16 16 16 17 16 C22 16 25 16 29 13 C32 11 32 11 34 7.9 C38 3.1 38 3.1 40 2 C42 2.0 44 2.0 46 2 C46 5.1 45 6.7 43 9.0 C42 9.7 42 10 41 11 C38 13 36 15 34 18 C29 23 25 25 18 25 C7.7 26 7.7 26 3 22 C1.3 18 0.6 14 0 10 C-0.1 9.3 -0.2 8.6 -0.3 7.9 C-1.1 2.2 -1.1 2.2 0 0 Z " fill="#544898" transform="translate(381,1051)"/><path d="M0 0 C1.3 0 2.6 0 4 0 C4 5.0 3.0 7.5 -0.4 11 C-8.6 19 -18 21 -29 21 C-30 21 -31 21 -31 21 C-33 21 -33 21 -34 21 C-35 21 -35 21 -36 21 C-38 21 -40 20 -42 19 C-42 17 -42 17 -41 15 C-37 13 -35 13 -31 13 C-19 12 -8.5 8.5 0 0 Z " fill="#463C87" transform="translate(277,1034)"/><path d="M0 0 C1.2 -0.0 1.2 -0.0 2.4 -0.0 C4.0 -0.0 5.6 -0.0 7.3 -0.0 C9.8 -0.0 12 -0.0 15 -0.1 C16 -0.1 18 -0.1 20 -0.1 C20 -0.1 21 -0.1 22 -0.1 C26 -0.1 27 0.0 30 2.2 C24 2.2 18 2.2 11 2.2 C11 2.8 11 3.5 11 4.2 C13 4.5 14 4.8 15 5.2 C15 5.8 15 6.5 14 7.2 C14 7.2 13 7.1 13 7.1 C1.4 7.0 -9.6 7.1 -21 8.7 C-24 9.1 -26 9.2 -29 9.2 C-32 9.2 -34 9.3 -37 10 C-38 10 -39 11 -41 11 C-41 10 -41 9.2 -41 8.2 C-41 7.5 -42 6.8 -43 6.2 C-38 5.4 -34 4.5 -30 3.7 C-29 3.5 -28 3.3 -26 3.0 C-25 2.8 -24 2.6 -23 2.4 C-22 2.2 -21 2.0 -20 1.7 C-13 0.6 -6.8 0.0 0 0 Z " fill="#5A518B" transform="translate(360.55078125,802.83203125)"/><path d="M0 0 C0.7 0.3 1.3 0.7 2 1 C1.5 5.2 0.1 7.7 -2.5 11 C-5.0 14 -5.0 14 -6.5 18 C-8.1 24 -15 31 -20 35 C-21 36 -21 36 -21 36 C-25 39 -27 41 -31 41 C-32 41 -33 41 -34 42 C-35 42 -35 42 -36 42 C-33 38 -29 34 -26 31 C-18 23 -12 14 -6.2 4.6 C-5.8 4.1 -5.4 3.5 -5 3 C-4.3 3 -3.7 3 -3 3 C-1.4 1.5 -1.4 1.5 0 0 Z " fill="#4F4594" transform="translate(551,1127)"/><path d="M0 0 C11 -0.7 20 0.7 28 8.2 C36 15 41 24 46 33 C47 34 47 34 48 36 C51 43 54 49 56 56 C57 58 57 58 57 59 C59 64 59 68 59 73 C57 70 56 66 55 63 C54 66 55 68 56 71 C56 73 56 75 55 77 C53 72 52 68 50 63 C49 61 48 59 48 57 C47 55 47 55 46 54 C44 47 44 47 41 41 C40 39 40 39 40 37 C41 37 41 37 42 37 C43 39 44 41 44 43 C45 44 45 45 46 46 C47 49 47 49 47 51 C48 51 48 50 49 50 C48 44 47 40 44 35 C44 35 44 34 43 33 C37 21 30 9.0 17 3.7 C11 2.2 4.9 2.2 -1 2 C-0.7 1.3 -0.3 0.7 0 0 Z " fill="#483E82" transform="translate(327,990)"/><path d="M0 0 C0.3 0 0.7 0 1 0 C1.0 1.2 1.1 2.5 1.1 3.8 C1.4 13 2.0 21 6 30 C6.3 31 6.5 32 6.8 33 C8.8 37 12 39 16 42 C18 44 18 44 18 48 C13 48 11 45 7 42 C7 41 7 41 7 40 C6.3 40 5.7 40 5 40 C5 39 5 39 5 38 C4.3 38 3.7 38 3 38 C1.8 36 1.8 36 0.5 34 C0.1 34 -0.3 33 -0.8 32 C-1.9 30 -3.0 28 -4 26 C-4.4 25 -4.7 25 -5.1 24 C-6.2 22 -6.2 20 -6.0 17 C-5.9 16 -5.9 15 -5.8 15 C-5.8 14 -5.7 13 -5.6 12 C-5.6 11 -5.5 9.9 -5.5 8.9 C-5.3 6.6 -5.2 4.3 -5 2 C-3.7 2 -2.4 2 -1 2 C-0.7 1.3 -0.3 0.7 0 0 Z " fill="#4D4097" transform="translate(290,985)"/><path d="M0 0 C1.0 0 2.0 0 3 0 C3.5 5.3 2.4 7.9 -1 12 C-6.9 18 -15 24 -24 24 C-25 24 -25 24 -26 24 C-28 24 -28 24 -30 24 C-30 22 -31 21 -31 19 C-30 18 -30 18 -28 18 C-18 14 -9.5 9.8 -2 2 C-1.3 1.3 -0.7 0.7 0 0 Z " fill="#483F8A" transform="translate(457,1096)"/><path d="M0 0 C7.4 0.7 11 4.6 16 10 C24 20 32 33 33 45 C32 45 31 46 30 46 C29 44 28 42 28 41 C27 39 27 39 26 38 C25 35 25 35 25 32 C24 32 23 32 22 32 C20 30 20 30 18 26 C18 25 17 24 17 23 C15 21 14 19 14 16 C11 10 4.9 6.1 -1 3 C-0.7 2.0 -0.3 1.0 0 0 Z " fill="#51459D" transform="translate(344,995)"/><path d="M0 0 C0.0 0.9 0.1 1.8 0.1 2.8 C0.7 6.2 0.7 6.2 3.9 7.8 C8.2 11 8.7 14 10 19 C11 21 11 23 12 24 C12 27 13 30 14 33 C13 33 13 33 12 33 C12 34 11 34 11 35 C10 34 9.8 33 9.2 33 C7.2 30 7.2 30 5.2 29 C3.4 26 4.0 24 4.1 21 C3.9 17 2.4 16 0 13 C-3.2 12 -3.2 12 -6 13 C-8.2 9.5 -7.8 7.9 -7 4 C-7.8 1.7 -7.8 1.7 -9 0 C-5.9 -1.5 -3.3 -0.5 0 0 Z " fill="#5347A1" transform="translate(356,1096)"/><path d="M0 0 C1.1 0.1 2.2 0.2 3.4 0.2 C6.3 0.7 6.3 0.7 9.3 2.7 C12 3.1 12 3.1 14 3.3 C15 3.4 16 3.5 16 3.5 C17 3.6 18 3.6 18 3.7 C18 4.3 18 5.0 17 5.7 C16 6.0 15 6.3 14 6.7 C15 8.2 15 8.2 16 9.7 C13 9.9 11 10 7.6 10 C6.4 10 6.4 10 5.2 10 C-3.0 11 -7.1 9.7 -14 4.7 C-13 3.4 -13 2.0 -13 0.7 C-8.3 -0.2 -4.4 -0.3 0 0 Z " fill="#50479C" transform="translate(344.6875,1220.3125)"/><path d="M0 0 C15 0.3 30 0.7 46 1 C46 1.3 46 1.7 46 2 C34 2.5 34 2.5 21 3 C23 3.3 26 3.7 28 4 C27 4.1 27 4.2 26 4.3 C25 4.7 25 4.7 24 5 C24 6.0 23 7.0 23 8 C31 8.1 38 7.9 46 7.5 C47 7.5 48 7.4 49 7.4 C51 7.2 54 7.1 56 7 C56 7.3 56 7.7 56 8 C47 10 38 10 29 10 C27 10 24 10 22 10 C20 10 19 10 17 10 C16 10 16 10 15 10 C11 10 7.6 9.9 4 9 C4 8.7 4 8.3 4 8 C6.6 7.7 9.3 7.3 12 7 C12 6.0 12 5.0 12 4 C14 3.3 15 2.7 17 2 C16 2.0 16 2.0 15 2.0 C10 2.1 5.2 1.7 0 1 C0 0.7 0 0.3 0 0 Z " fill="#403780" transform="translate(346,1222)"/><path d="M0 0 C0.5 1.5 0.5 1.5 1 3 C-0.4 5.5 -0.4 5.5 -2.4 8.5 C-3.2 9.6 -3.9 11 -4.7 12 C-5.5 13 -6.2 14 -7 15 C-7.9 16 -7.9 16 -8.9 18 C-16 28 -25 38 -34 47 C-34 46 -34 46 -35 44 C-34 44 -34 44 -33 44 C-33 43 -33 42 -33 41 C-31 41 -31 41 -29 40 C-29 39 -29 39 -29 38 C-28 38 -28 38 -27 38 C-27 37 -27 37 -26 36 C-25 32 -22 30 -20 27 C-18 25 -18 25 -17 23 C-16 23 -16 23 -15 23 C-14 21 -14 19 -13 17 C-12 17 -12 17 -11 17 C-11 16 -12 15 -12 14 C-12 13 -11 13 -11 12 C-16 14 -16 14 -20 17 C-20 16 -21 15 -21 14 C-20 14 -19 13 -19 13 C-12 8.9 -5.9 4.9 0 0 Z " fill="#F1EEF7" transform="translate(550,1121)"/><path d="M0 0 C-0.7 0.3 -1.3 0.7 -2 1 C-2.7 3.0 -3.4 5.0 -4 7 C-0.5 6.5 -0.5 6.5 3 6 C0.3 7.8 -1.1 8.4 -4.1 9.1 C-4.8 9.2 -5.5 9.4 -6.3 9.5 C-14 11 -22 11 -30 11 C-31 11 -32 11 -33 11 C-35 11 -38 11 -40 11 C-40 11 -40 10 -40 10 C-32 9.7 -24 9.3 -16 9 C-16 7.7 -17 6.4 -17 5 C-30 4.5 -30 4.5 -43 4 C-43 3.7 -43 3.3 -43 3 C-42 3.0 -42 3.0 -41 2.9 C-25 2.4 -25 2.4 -8.8 0.4 C-5.9 -0.0 -3.0 -0.1 0 0 Z " fill="#3F3682" transform="translate(480,1147)"/><path d="M0 0 C-1.6 0.3 -3.3 0.7 -5 1 C-4.3 3.0 -3.7 5.0 -3 7 C-7.4 8.2 -11 8.2 -16 8.2 C-17 8.2 -18 8.2 -18 8.2 C-20 8.2 -20 8.2 -21 8.2 C-22 8.2 -22 8.2 -23 8.2 C-25 8.0 -27 7.2 -29 6 C-29 4.1 -29 4.1 -28 2 C-25 -0.1 -24 -0.2 -21 -0.2 C-20 -0.1 -20 -0.1 -19 -0.1 C-17 -0.1 -17 -0.1 -16 -0.1 C-14 -0.0 -13 0.0 -11 0.0 C-11 0.0 -9.8 0.1 -9.1 0.1 C-7.0 0.1 -7.0 0.1 -4.9 -0.6 C-3 -1 -3 -1 0 0 Z " fill="#574D9B" transform="translate(264,1047)"/><path d="M0 0 C0.7 0.3 1.3 0.6 2 0.9 C0.1 7.0 -4.0 12 -9.4 15 C-13 17 -16 17 -20 17 C-21 17 -21 16 -22 16 C-22 14 -22 14 -21 12 C-19 10 -19 10 -16 9 C-13 7.0 -9.8 5.0 -6.7 2.4 C-3.4 -0.1 -3.4 -0.1 0 0 Z " fill="#4F468D" transform="translate(350,1020.125)"/><path d="M0 0 C1.1 -0.0 2.2 -0.0 3.4 -0.1 C6.7 0.3 8.1 1.1 10 3.3 C10 5.0 9.8 6.6 9.5 8.3 C2.5 11 -4.2 11 -12 9.3 C-10 7.3 -10 7.3 -8.5 6.3 C-9.2 6.0 -9.8 5.7 -10 5.3 C-10 4.3 -10 3.3 -10 2.3 C-7.0 0.2 -4.1 0.0 0 0 Z " fill="#574E9A" transform="translate(259.5,993.6875)"/><path d="M0 0 C2.0 2.0 2.9 3.5 4.1 5.9 C4.4 6.6 4.7 7.3 5.1 8.0 C6 10 6 10 7 13 C7.7 13 8.3 13 9 13 C9 14 9 14 9 15 C9.7 15 10 15 11 15 C11 16 11 16 11 17 C12 17 12 18 13 18 C15 19 15 19 17 21 C19 22 19 22 22 23 C21 18 18 16 15 13 C14 12 13 12 12 11 C11 10 11 9.6 10 9 C10 8.3 11 7.7 11 7 C12 7.6 12 8.1 13 8.7 C19 15 26 19 33 24 C30 25 28 25 25 25 C28 28 31 30 34 32 C35 33 36 33 37 34 C38 34 39 35 40 35 C41 36 42 36 43 37 C46 38 48 40 51 41 C50 41 50 41 49 42 C47 41 47 41 44 40 C43 39 42 39 41 38 C40 37 40 37 38 37 C37 36 36 36 35 35 C27 31 21 27 14 21 C13 20 12 20 12 19 C6.1 15 1.9 9.7 0.2 2.5 C0.1 1.7 0.1 0.8 0 0 Z " fill="#493F7C" transform="translate(286,1010)"/><path d="M0 0 C0.7 0.3 1.3 0.7 2 1 C0.9 2.1 -0.2 3.2 -1.2 4.3 C-1.9 5.0 -2.5 5.6 -3.2 6.3 C-5 8 -5 8 -7.4 9.5 C-8.0 10.0 -8.5 10 -9 11 C-9.0 12 -9.0 13 -8.9 14 C-9 18 -9 18 -11 20 C-12 21 -13 21 -14 22 C-17 25 -18 28 -19 32 C-20 32 -20 32 -21 32 C-22 33 -22 33 -23 34 C-23 33 -24 33 -24 32 C-24 33 -25 34 -25 35 C-25 37 -26 38 -26 39 C-27 39 -27 39 -28 40 C-29 33 -29 33 -27 30 C-27 29 -26 29 -26 28 C-22 25 -22 25 -20 25 C-20 24 -20 24 -20 23 C-19 21 -18 19 -16 17 C-15 17 -15 17 -14 17 C-14 16 -14 16 -14 15 C-13 11 -11 8.9 -8 6 C-7.3 5.0 -6.7 4.0 -6 3 C-4.4 2.3 -2.7 1.6 -1 1 C-0.7 0.7 -0.3 0.3 0 0 Z " fill="#4F429C" transform="translate(231,856)"/><path d="M0 0 C0 1.0 0 2.0 0 3 C-3.5 4.5 -3.5 4.5 -7 6 C-7 6.7 -7 7.3 -7 8 C-10 8 -14 8 -17 8 C-17 8.7 -17 9.3 -17 10 C-20 12 -22 12 -26 12 C-26 10 -27 8.0 -27 6 C-24 5.0 -22 4.0 -19 3.1 C-19 2.8 -18 2.5 -17 2.2 C-11 -0.0 -6.3 -1.7 0 0 Z " fill="#4E45A1" transform="translate(521,1136)"/><path d="M0 0 C0.5 0.2 1.1 0.5 1.6 0.7 C1.6 1.7 1.6 2.7 1.6 3.7 C-6.8 11 -17 13 -27 13 C-28 11 -28 9.4 -28 7.7 C-28 7.6 -27 7.5 -26 7.4 C-18 6.3 -12 4.8 -5.2 0.9 C-2.4 -0.3 -2.4 -0.3 0 0 Z " fill="#4F449F" transform="translate(344.375,1110.3125)"/><path d="M0 0 C-1.4 2.8 -2.8 5.6 -4.2 8.4 C-4.6 9.2 -5.0 10.0 -5.4 11 C-8.4 17 -8.4 17 -12 19 C-14 19 -16 19 -18 18 C-17 14 -15 11 -14 7 C-13 7 -13 7 -12 7 C-11 6.1 -11 5.1 -10 4.1 C-7.2 -0.1 -5.0 -1.7 0 0 Z " fill="#4E4196" transform="translate(193,914)"/><path d="M0 0 C0.3 0.7 0.7 1.3 1 2 C-0.1 3.9 -1.2 5.8 -2.4 7.6 C-6.8 15 -10 22 -14 29 C-16 32 -17 36 -19 39 C-20 39 -22 38 -23 38 C-22 32 -20 27 -18 22 C-19 22 -19 22 -20 22 C-20 18 -19 16 -16 14 C-16 16 -17 17 -17 19 C-16 19 -15 18 -14 18 C-14 19 -14 20 -14 21 C-13 21 -13 21 -12 21 C-12 20 -12 19 -11 18 C-9.7 14 -7.4 11 -4.9 7.1 C-4.4 6.4 -3.9 5.7 -3.5 5.0 C-2.3 3.4 -1.2 1.7 0 0 Z " fill="#443A82" transform="translate(309,868)"/><path d="M0 0 C3.5 1.2 4.1 2.2 6.2 5.1 C12 13 12 13 19 18 C19 19 19 19 19 20 C20 20 20 20 21 21 C23 22 25 24 27 26 C37 35 49 44 61 48 C61 49 61 49 61 50 C62 50 63 50 63 51 C68 52 73 55 77 57 C74 58 74 58 72 57 C70 56 70 56 69 56 C68 55 67 55 66 54 C65 54 64 53 63 53 C62 52 61 51 60 51 C53 47 46 43 39 38 C38 37 37 36 36 36 C23 26 9.8 15 0 2 C0 1.3 0 0.7 0 0 Z " fill="#443E79" transform="translate(206,1155)"/><path d="M0 0 C1.7 0.0 1.7 0.0 3.4 0.1 C4.6 0.1 5.8 0.1 7.0 0.1 C8.3 0.1 9.6 0.2 11 0.2 C12 0.2 13 0.2 15 0.3 C18 0.3 21 0.4 24 0.5 C23 0.8 22 1.1 20 1.5 C21 2.8 21 4.1 21 5.5 C16 6.2 12 6.6 6.6 6.6 C5.3 6.7 4.0 6.7 2.7 6.7 C-0.6 6.5 -2.8 5.9 -5.8 4.5 C-4.1 1.5 -3.4 0.6 0 0 Z " fill="#4A419F" transform="translate(442.819091796875,1150.5458984375)"/><path d="M0 0 C2.3 1.4 2.3 1.4 3.4 3.8 C3.3 6.4 3.3 6.4 1.1 9.1 C-2.8 12 -4.7 14 -9.7 13 C-9.7 13 -9.7 12 -9.7 11 C-11 11 -13 11 -15 11 C-15 10 -15 8.8 -16 7.4 C-12 6.9 -12 6.9 -8.7 6.4 C-8.4 5.7 -8.2 4.9 -7.9 4.1 C-6.7 1.4 -6.7 1.4 -4.9 0 C-2.7 -0.6 -2.7 -0.6 0 0 Z " fill="#4D4299" transform="translate(436.6875,1084.5625)"/><path d="M0 0 C0.3 0 0.7 0 1 0 C1.1 0.6 1.2 1.3 1.2 1.9 C3.3 19 3.3 19 6 35 C5.3 35 4.7 34 4 34 C3.0 37 2.0 39 1 42 C-1.1 39 -1.7 37 -2.6 33 C-3.0 32 -3.0 32 -3.4 30 C-4.0 27 -4.1 25 -4 22 C-3.3 23 -2.7 23 -2 24 C0.2 22 0.2 22 0.2 20 C0.2 19 0.2 18 0.2 17 C0.2 16 0.2 15 0.2 14 C0.2 13 0.1 12 0.1 11 C0.1 9.8 0.1 8.8 0.1 7.7 C0.1 5.1 0.0 2.6 0 0 Z " fill="#453986" transform="translate(282,937)"/><path d="M0 0 C-2.0 1.0 -2.0 1.0 -4 2 C-4 2.7 -4 3.3 -4 4 C-0.7 4 2.6 4 6 4 C2.1 6.0 -1.8 7.6 -5.9 9.1 C-7.0 9.5 -7.0 9.5 -8.1 10.0 C-12 11 -15 12 -19 12 C-19 9.3 -19 9.3 -18 6 C-13 1.8 -6.2 -2.1 0 0 Z " fill="#483F83" transform="translate(319,993)"/><path d="M0 0 C0.3 0.7 0.7 1.3 1 2 C1.7 2.3 2.3 2.7 3 3 C2.0 3.3 1.0 3.7 0 4 C-1.4 5.8 -1.4 5.8 -2.7 8.0 C-3.1 8.8 -3.6 9.6 -4.1 10 C-4.6 11 -5.1 12 -5.6 13 C-6.1 14 -6.6 15 -7.1 15 C-9.7 20 -9.7 20 -12 24 C-13 24 -13 24 -14 24 C-14 23 -15 23 -15 22 C-16 22 -17 23 -18 23 C-17 18 -14 14 -11 9.1 C-10 8.4 -9.9 7.7 -9.5 7.0 C-8.3 5.4 -7.2 3.7 -6 2 C-5.3 2.3 -4.7 2.7 -4 3 C-4.3 3.7 -4.7 4.3 -5 5 C-3.4 3.4 -1.7 1.7 0 0 Z " fill="#4F439A" transform="translate(309,865)"/><path d="M0 0 C3.3 2.8 5.0 6.5 6.9 10 C18 30 34 46 50 62 C46 62 44 59 41 57 C40 56 40 56 39 55 C24 40 8.5 22 0 2 C0 1.3 0 0.7 0 0 Z " fill="#4A427C" transform="translate(190,1117)"/><path d="M0 0 C1.0 0 2.0 0 3 0 C3.3 2.7 3.3 2.7 3 6 C0.9 8.5 0.9 8.5 -2 11 C-2.6 12 -3.1 12 -3.7 13 C-7.0 16 -9.4 18 -14 18 C-14 16 -15 14 -15 12 C-14 11 -14 11 -13 11 C-9.4 8.4 -5.8 6.0 -2.6 2.6 C-1.8 1.8 -0.9 0.9 0 0 Z " fill="#504691" transform="translate(457,1096)"/><path d="M0 0 C0.7 0.1 1.5 0.2 2.3 0.3 C1.1 7.6 -1.3 13 -5.7 19 C-6.7 20 -7.7 21 -8.7 21 C-7.5 19 -6.3 17 -4.7 14 C-8.4 14 -9.7 15 -13 17 C-14 18 -15 19 -17 19 C-16 19 -16 18 -16 18 C-15 17 -15 17 -14 16 C-13 15 -13 15 -13 14 C-11 12 -10.0 10 -8.7 8.3 C-8.1 7.3 -7.4 6.3 -6.7 5.3 C-6.1 4.4 -5.4 3.4 -4.8 2.4 C-2.7 0.3 -2.7 0.3 0 0 Z " fill="#493E89" transform="translate(444.74609375,957.6875)"/><path d="M0 0 C-2 2 -2 2 -4.6 2.1 C-5.4 2.1 -6.2 2.0 -7 2 C-7 2.7 -7 3.3 -7 4 C-4.4 4 -1.7 4 1 4 C1 4.3 1 4.7 1 5 C-12 7.2 -12 7.2 -16 7 C-21 7 -24 7.8 -28 9 C-28 8.0 -28 7.0 -28 6 C-29 5.3 -29 4.7 -30 4 C-27 3.3 -23 2.7 -20 2 C-19 1.8 -18 1.6 -17 1.4 C-11 0.3 -6.0 -0.2 0 0 Z " fill="#4F448D" transform="translate(348,805)"/><path d="M0 0 C0.7 0.3 1.3 0.7 2 1 C-7.0 5.7 -15 8.5 -25 8.3 C-26 8.3 -26 8.3 -27 8.3 C-34 8.3 -34 8.3 -37 6 C-37 4.7 -37 3.4 -37 2 C-32 2 -27 2 -22 2 C-23 2.5 -23 2.5 -24 3 C-24 3.7 -23 4.3 -23 5 C-15 5.6 -7.4 3.7 0 0 Z " fill="#433A82" transform="translate(340,1117)"/><path d="M0 0 C0.3 0 0.7 0 1 0 C1.3 7.3 1.7 15 2 22 C-2 23 -2 23 -6 22 C-5.7 15 -5.3 8.8 -5 2 C-3.7 2 -2.4 2 -1 2 C-0.7 1.3 -0.3 0.7 0 0 Z " fill="#5C4EA0" transform="translate(290,985)"/><path d="M0 0 C0.7 0.1 1.4 0.2 2.1 0.2 C5.4 1.5 6.4 4.0 8 7 C7.7 8.3 7.3 9.6 7 11 C5.7 8.4 4.4 5.7 3 3 C-0.8 3.9 -2.6 4.9 -5.8 7.1 C-6.5 7.6 -7.3 8.2 -8.2 8.7 C-8.8 9.1 -9.4 9.6 -10 10 C-10 7 -10 7 -8.5 5.3 C-8.0 4.9 -7.5 4.4 -7 4 C-8.8 3.3 -8.8 3.3 -11 3 C-13 3.9 -13 3.9 -15 5.3 C-20 8.2 -24 9.2 -30 10 C-29 8 -29 8 -27 7.1 C-26 6.8 -25 6.5 -24 6.2 C-19 4.6 -16 2.8 -12 0.1 C-7.3 -2.6 -4.7 -1.8 0 0 Z " fill="#4D438B" transform="translate(353,1108)"/><path d="M0 0 C0.3 0 0.7 0 1 0 C1 13 1 26 1 40 C0.7 40 0.3 40 0 40 C0 38 0 37 0 35 C-0.7 35 -1.3 35 -2 35 C-1.9 31 -1.8 27 -1.6 22 C-1.6 21 -1.5 20 -1.5 18 C-1.4 16 -1.4 14 -1.3 12 C-1.3 11 -1.2 9.6 -1.2 8.3 C-1.0 5.4 -0.7 2.8 0 0 Z M-5 34 C-4.0 34 -3.0 35 -2 35 C-2.3 37 -2.7 40 -3 42 C-3.3 42 -3.7 42 -4 42 C-4.3 45 -4.7 48 -5 51 C-7.3 48 -7.3 46 -7.2 42 C-7.3 41 -7.3 40 -7.3 39 C-7 36 -7 36 -5 34 Z " fill="#453A81" transform="translate(166,997)"/><path d="M0 0 C2.5 0.8 4.7 1.8 7 3 C7 3.7 7 4.3 7 5 C11 3.7 11 3.7 15 2 C14 5.2 13 5.9 10 7.5 C8.3 8.2 8.3 8.2 6.5 8.9 C1.9 11 -2.3 13 -6.5 15 C-10 18 -13 19 -17 19 C-18 17 -18 17 -18 15 C-17 13 -17 13 -15 11 C-14 11 -13 10 -13 9.4 C-12 8.9 -12 8.5 -11 8 C-11 12 -13 14 -16 17 C-14 16 -13 16 -11 15 C-9.4 14 -8.1 14 -6.7 13 C-4.5 12 -3.9 10 -3 8 C-3 8.7 -3 9.3 -3 10 C-0.7 9.0 1.6 8.0 4 7 C3.7 6.3 3.3 5.7 3 5 C2.0 5.5 2.0 5.5 1 6 C0.7 4.0 0.3 2.0 0 0 Z " fill="#463D89" transform="translate(420,1093)"/><path d="M0 0 C-0.3 1.6 -0.7 3.3 -1 5 C-4.3 6.1 -5.7 5.8 -9 5 C-9 5.7 -9 6.3 -9 7 C-13 9.0 -17 11 -21 13 C-21 14 -21 14 -21 15 C-22 15 -24 14 -25 14 C-24 14 -24 14 -23 14 C-23 13 -23 13 -23 12 C-25 13 -26 13 -28 14 C-28 13 -28 12 -28 11 C-27 11 -27 11 -26 10 C-20 7.9 -14 5.1 -8 2 C-8 1.3 -8 0.7 -8 0 C-4.7 -0.8 -3.3 -1.1 0 0 Z " fill="#544AA1" transform="translate(480,1198)"/><path d="M0 0 C-0.3 2.3 -0.7 4.6 -1 7 C-4.8 8.3 -8.3 8.1 -12 8.1 C-13 8.1 -14 8.1 -14 8.0 C-16 8.0 -18 8.0 -20 8 C-20 7.0 -21 6.0 -21 5 C-17 1.1 -12 1.6 -6.7 1.3 C-4.2 1.0 -2.5 0 0 0 Z " fill="#584CA3" transform="translate(408,1066)"/><path d="M0 0 C0.3 1.3 0.7 2.6 1 4 C-3.0 6.0 -3.0 6.0 -7 8 C-7 8.7 -7 9.3 -7 10 C-8.6 10 -10 11 -12 11 C-13 11 -14 12 -15 12 C-17 12 -17 12 -20 10 C-20 9.3 -21 8.7 -21 8 C-20 7.7 -19 7.5 -18 7.2 C-14 5.6 -9.3 3.4 -4.8 1.2 C-2 0 -2 0 0 0 Z " fill="#53469E" transform="translate(373,812)"/><path d="M0 0 C0 0.7 0 1.3 0 2 C-0.9 2.3 -1.8 2.7 -2.7 3.0 C-3.9 3.5 -5.0 3.9 -6.2 4.4 C-7.4 4.8 -8.6 5.3 -9.8 5.7 C-15 7.7 -15 7.7 -19 12 C-23 13 -23 13 -26 14 C-26 15 -26 15 -26 16 C-26 17 -27 17 -27 18 C-28 18 -29 19 -29 19 C-33 20 -34 22 -36 25 C-38 28 -40 31 -43 33 C-40 21 -28 13 -18 7 C-4.9 0 -4.9 0 0 0 Z " fill="#4F4682" transform="translate(416,929)"/><path d="M0 0 C0.6 0.3 1.2 0.6 1.8 0.9 C4.1 2.1 4.1 2.1 7 3 C7.3 2.0 7.7 1.0 8 0 C9.0 0.7 10.0 1.3 11 2 C-3.1 14 -3.1 14 -8 16 C-9.0 16 -10.0 15 -11 15 C-7.0 12 -3.1 9.7 1 7 C-2.0 7 -4.9 7 -8 7 C-5.4 4.4 -3.1 2.1 0 0 Z " fill="#413883" transform="translate(495,1184)"/><path d="M0 0 C20 0.5 20 0.5 41 1 C41 1.3 41 1.7 41 2 C25 2.5 25 2.5 9 3 C8.7 4.3 8.3 5.6 8 7 C3.7 7 -0.6 7 -5 7 C-4.3 6.7 -3.7 6.3 -3 6 C-3 5.3 -3 4.7 -3 4 C-2.0 4 -1.0 4 0 4 C0 2.7 0 1.4 0 0 Z " fill="#5F569A" transform="translate(419,1148)"/><path d="M0 0 C0.7 0.3 1.3 0.7 2 1 C1.7 1.7 1.3 2.3 1 3 C1.7 3.3 2.3 3.7 3 4 C1.4 5.1 -0.2 6.3 -1.8 7.4 C-2.6 8.0 -3.5 8.6 -4.4 9.3 C-10 13 -10 13 -14 13 C-16 12 -16 12 -17 12 C-16 12 -16 11 -15 11 C-15 10 -15 9.7 -15 9 C-11 6 -11 6 -8 6 C-7.7 5.0 -7.3 4.0 -7 3 C-5.7 3.3 -4.4 3.7 -3 4 C-2.7 3.0 -2.3 2.0 -2 1 C-1.3 0.7 -0.7 0.3 0 0 Z " fill="#5146A3" transform="translate(539,1122)"/><path d="M0 0 C1.3 0.7 2.6 1.3 4 2 C3.7 5.0 3.3 7.9 3 11 C3.7 11 4.3 11 5 11 C6.4 13 7.7 14 9 16 C7.7 16 6.4 16 5 16 C4.7 17 4.3 18 4 19 C3.3 18 2.7 16 2 15 C1.0 15 0.0 16 -1 16 C-2.5 10 -1.3 5.6 0 0 Z " fill="#4C3F9B" transform="translate(335,1074)"/><path d="M0 0 C1.4 0.0 2.9 0.0 4.3 0.0 C7.8 0.0 11 0.0 15 0.1 C15 1.1 15 1.1 16 2.1 C14 2.1 14 2.1 13 2.1 C9.5 2.2 6.0 2.3 2.5 2.4 C1.0 2.5 -0.5 2.5 -2.0 2.6 C-12 2.8 -22 3.3 -32 4.1 C-24 -2.7 -9.9 -0.1 0 0 Z " fill="#F7F4FC" transform="translate(369.25,800.9375)"/><path d="M0 0 C7.3 0 15 0 22 0 C22 0.7 22 1.3 22 2 C23 2.3 25 2.7 26 3 C26 3.7 25 4.3 25 5 C17 4.7 8.5 4.3 0 4 C0 3.7 0 3.3 0 3 C1.6 2.7 3.3 2.3 5 2 C3.4 1.7 1.7 1.3 0 1 C0 0.7 0 0.3 0 0 Z " fill="#4B3E93" transform="translate(350,805)"/><path d="M0 0 C0.3 0 0.7 0 1 0 C1.1 1.6 1.1 3.3 1.2 4.9 C1.2 5.9 1.3 6.8 1.3 7.7 C1.0 11 0.5 12 -0.5 15 C-2.5 21 -2.6 26 -2.7 32 C-2.7 33 -2.8 34 -2.8 35 C-2.9 38 -2.9 40 -3 43 C-9.0 32 -4.1 14 -0.9 3.0 C-0.6 2.0 -0.3 1.0 0 0 Z " fill="#524B84" transform="translate(280,909)"/><path d="M0 0 C15 0 30 0 46 0 C46 0.3 46 0.7 46 1 C31 3.1 15 4.6 0 1 C0 0.7 0 0.3 0 0 Z " fill="#EDEBF6" transform="translate(349,1232)"/><path d="M0 0 C0.7 0.3 1.3 0.7 2 1 C-0.7 2.5 -3.5 4.0 -6.2 5.4 C-7.0 5.9 -7.8 6.3 -8.6 6.7 C-9.7 7.3 -9.7 7.3 -11 7.9 C-12 8.3 -12 8.7 -13 9.1 C-15 10 -15 10 -17 11 C-19 11 -19 11 -20 12 C-24 16 -30 16 -34 16 C-35 16 -35 16 -36 16 C-35 13 -33 13 -31 12 C-30 12 -29 12 -28 11 C-27 11 -26 11 -25 10 C-17 7.5 -9.6 4.6 -2.3 0.9 C-1.5 0.6 -0.8 0.3 0 0 Z " fill="#4D4484" transform="translate(471,1199)"/><path d="M0 0 C1.0 0.3 2.0 0.7 3 1 C3 1.7 3 2.3 3 3 C1.7 3.3 0.4 3.7 -1 4 C-0.7 4.7 -0.3 5.3 0 6 C2.6 6 5.3 6 8 6 C4.8 8.6 1.6 10 -2.1 12 C-3.2 12 -4.2 13 -5.3 13 C-8 14 -8 14 -10 13 C-3.2 9 -3.2 9 -1 9 C-1.3 7.7 -1.7 6.4 -2 5 C-3.1 5.6 -4.3 6.2 -5.4 6.8 C-6.9 7.5 -8.4 8.3 -9.9 9.1 C-11 9.5 -11 9.8 -12 10 C-13 11 -13 11 -14 11 C-15 12 -15 12 -16 12 C-17 13 -17 13 -18 13 C-19 13 -19 12 -20 12 C-14 7.3 -7.5 4.4 0 2 C0 1.3 0 0.7 0 0 Z " fill="#473D7F" transform="translate(375,807)"/><path d="M0 0 C0.3 0.7 0.7 1.3 1 2 C0.1 4.3 0.1 4.3 -1.2 7.1 C-1.7 8.1 -2.2 9.1 -2.7 10 C-3.2 11 -3.8 12 -4.3 13 C-5.1 15 -5.1 15 -5.9 17 C-7.9 21 -9.9 25 -12 29 C-12 28 -13 28 -13 27 C-12 25 -12 24 -11 22 C-11 21 -11 20 -11 19 C-13 21 -14 22 -16 24 C-16 22 -16 21 -16 19 C-17 20 -17 22 -18 23 C-18 22 -19 21 -19 20 C-18 19 -18 19 -17 17 C-15 17 -14 17 -12 17 C-9.6 16 -8.3 15 -6.9 13 C-5.8 11 -4.8 9.4 -3.8 7.4 C-3.2 6.3 -3.2 6.3 -2.6 5.2 C-1.8 3.5 -0.9 1.7 0 0 Z " fill="#44397E" transform="translate(192,915)"/><path d="M0 0 C-9.7 6.5 -23 5.3 -34 5.1 C-35 5.1 -37 5.1 -38 5.1 C-41 5.1 -45 5.0 -48 5 C-48 4.7 -48 4.3 -48 4 C-47 4.0 -47 4.0 -46 3.9 C-27 3.5 -27 3.5 -7.2 -0.1 C-4.2 -1.0 -2.9 -1.2 0 0 Z " fill="#E1DEF2" transform="translate(488,1154)"/><path d="M0 0 C0.9 0.8 1.9 1.7 2.9 2.6 C9.1 7.9 16 12 23 17 C20 18 18 18 15 18 C15 19 14 19 14 20 C13 19 11 17 10 16 C11 16 11 16 12 16 C11 11 8.5 9.3 4.9 6.3 C3.2 4.9 1.6 3.5 0 2 C0 1.3 0 0.7 0 0 Z " fill="#443B85" transform="translate(296,1017)"/><path d="M0 0 C0.8 0.3 1.6 0.6 2.4 0.9 C3.2 1.2 4.0 1.5 4.8 1.8 C6.8 2.6 6.8 2.6 7.8 3.6 C7.8 5.2 7.8 6.9 7.8 8.6 C6.1 9.2 6.1 9.2 3.8 9.6 C1.4 8.4 1.4 8.4 -1.0 6.8 C-1.8 6.2 -2.6 5.7 -3.4 5.1 C-4.0 4.6 -4.6 4.1 -5.2 3.6 C-5.2 2.9 -5.2 2.3 -5.2 1.6 C-2.2 -0.4 -2.2 -0.4 0 0 Z " fill="#4A3F97" transform="translate(316.2265625,1033.42578125)"/><path d="M0 0 C0.7 0.3 1.3 0.7 2 1 C0.5 4.4 -1.5 7.2 -4 10 C-4.7 10 -5.3 10 -6 10 C-6.3 11 -6.5 11 -6.8 12 C-9.0 16 -12 19 -16 22 C-20 22 -20 22 -22 21 C-20 20 -18 19 -16 17 C-13 15 -10 12 -7.7 8.9 C-5.7 6.6 -3.4 4.9 -1 3 C-0.7 2.0 -0.3 1.0 0 0 Z " fill="#EEECF4" transform="translate(427,1054)"/><path d="M0 0 C5.6 0 11 0 17 0 C16 0.5 16 0.5 15 1 C15 2.0 15 3.0 15 4 C12 5.5 9.6 4.8 6.4 4.6 C5.2 4.5 4.0 4.4 2.8 4.3 C1.9 4.2 0.9 4.1 0 4 C0 2.7 0 1.4 0 0 Z " fill="#5247A3" transform="translate(238,1049)"/><path d="M0 0 C0 0.7 0 1.3 0 2 C0.7 2.3 1.3 2.7 2 3 C2 3.7 2 4.3 2 5 C2.3 5.7 2.7 6.3 3 7 C-2.9 7.5 -2.9 7.5 -9 8 C-9.3 6.7 -9.7 5.4 -10 4 C-8.5 1.9 -7.4 1.1 -5 0.3 C-3 0 -3 0 0 0 Z " fill="#51478C" transform="translate(403,987)"/><path d="M0 0 C0.7 0.3 1.3 0.7 2 1 C2.6 3.1 2.6 3.1 3 5 C1.9 5.6 1.9 5.6 0.7 6.3 C-2.0 7.8 -2.0 7.8 -3.5 9.6 C-6.2 12 -9.4 12 -13 12 C-11 10 -9.4 8.4 -7.6 6.6 C-7.1 6.0 -6.6 5.5 -6.1 5.0 C-2.2 1.1 -2.2 1.1 0 0 Z " fill="#5349A0" transform="translate(530,1156)"/><path d="M0 0 C-0.4 4.9 -2.4 6.7 -6.1 9.8 C-7.0 11 -7.9 11 -8.8 12 C-9.6 13 -10 13 -11 14 C-11 11 -11 11 -9.1 8.8 C-7 7 -7 7 -5 7 C-5.7 5.7 -6.3 4.4 -7 3 C-9.3 5.0 -12 7.0 -14 9 C-11 2.7 -7.3 -0.9 0 0 Z " fill="#4A4282" transform="translate(427,1053)"/><path d="M0 0 C0 0.7 0 1.3 0 2 C1.6 2 3.3 2 5 2 C2.7 4.6 0.8 5.7 -2.4 6.8 C-3.2 7.0 -4.0 7.3 -4.7 7.5 C-7.2 8.0 -8.6 7.8 -11 7 C-10 6.3 -9.7 5.7 -9 5 C-8.7 4.0 -8.3 3.0 -8 2 C-5.3 0.9 -3.0 0 0 0 Z " fill="#47408F" transform="translate(447,1214)"/><path d="M0 0 C-0.3 0.7 -0.7 1.3 -1 2 C-3.6 2.6 -3.6 2.6 -6 3 C-6 4.0 -6 5.0 -6 6 C0.9 6.5 0.9 6.5 8 7 C8 7.3 8 7.7 8 8 C1.1 8 -5.9 8 -13 8 C-12 3.3 -12 3.3 -9 1 C-5.8 -0.1 -3.3 -0.1 0 0 Z " fill="#554B97" transform="translate(327,990)"/><path d="M0 0 C6.6 0 13 0 20 0 C17 2.5 14 4.3 9.9 6.1 C8.9 6.6 7.9 7.2 6.8 7.7 C4 9 4 9 1 10 C2.3 6.0 4.4 5.1 8 3 C8.7 3 9.3 3 10 3 C10 2.3 10 1.7 10 1 C6.7 1 3.4 1 0 1 C0 0.7 0 0.3 0 0 Z " fill="#EDEAF8" transform="translate(353,809)"/><path d="M0 0 C-1.5 4.4 -4.4 5.7 -8.4 7.8 C-9.5 8.4 -11 9.1 -12 9.7 C-15 11 -15 11 -17 11 C-18 10 -18 10 -19 10 C-15 7.0 -12 4.8 -7.8 2.8 C-6.8 2.2 -5.7 1.7 -4.6 1.2 C-2 0 -2 0 0 0 Z " fill="#F8F6FA" transform="translate(530,1136)"/><path d="M0 0 C3.1 1.4 3.6 2.8 5 5.9 C5.8 9.6 6.4 13 7 17 C4 16 4 16 2.8 14 C1.6 11 1.9 7.7 2 3.9 C-0.6 4.3 -3.3 4.6 -6 4.9 C-4.9 1.6 -3.8 -0.1 0 0 Z " fill="#F1EEF7" transform="translate(355,1110.0625)"/><path d="M0 0 C2.2 2.2 2.8 3.7 3.9 6.6 C4.2 7.5 4.6 8.4 4.9 9.3 C5.5 11 5.5 11 6 12 C6.5 14 6.5 14 7.1 15 C8.8 20 10 24 12 29 C11 29 11 29 10 29 C7.1 24 4.8 18 2.8 12 C2.5 12 2.2 11 1.9 10 C1.7 9.3 1.4 8.6 1.2 7.8 C0.8 6.9 0.8 6.9 0.5 5.9 C0 4 0 4 0 0 Z " fill="#564D88" transform="translate(179,1088)"/><path d="M0 0 C1.4 0.0 1.4 0.0 2.8 0.0 C3.7 0.0 4.6 0.1 5.6 0.1 C6.3 0.1 7.0 0.1 7.7 0.1 C7.7 0.4 7.7 0.8 7.7 1.1 C5.1 1.4 2.4 1.8 -0.3 2.1 C-0.3 2.8 -0.3 3.4 -0.3 4.1 C4.0 5.2 8.1 5.2 13 5.2 C13 5.2 14 5.2 15 5.1 C16 5.1 18 5.1 20 5.1 C17 7.4 17 7.4 14 7.4 C13 7.4 12 7.4 11 7.4 C11 7.4 9.7 7.4 8.8 7.3 C8.0 7.4 7.2 7.4 6.4 7.4 C5.6 7.4 4.8 7.4 4.0 7.4 C3.3 7.4 2.5 7.4 1.8 7.4 C-0.6 7.1 -2.2 6.3 -4.3 5.1 C-3.2 0.1 -3.2 0.1 0 0 Z " fill="#4B437E" transform="translate(239.28515625,1047.90234375)"/><path d="M0 0 C0 3 0 3 -1.5 4.9 C-2.2 5.5 -2.9 6.2 -3.6 6.9 C-4.3 7.7 -5.1 8.4 -5.8 9.2 C-6.6 9.9 -7.4 11 -8.2 12 C-9.0 12 -9.8 13 -11 14 C-14 17 -17 20 -21 23 C-22 23 -22 22 -23 22 C-22 20 -21 18 -19 16 C-18 16 -18 16 -17 16 C-14 15 -13 14 -11 12 C-11 11 -10 10 -9.3 9.6 C-8.3 8.5 -8.3 8.5 -7.2 7.4 C-6.6 6.7 -5.9 6.0 -5.1 5.3 C-3.4 3.5 -1.7 1.8 0 0 Z " fill="#382F6E" transform="translate(530,1161)"/><path d="M0 0 C3.6 -0.1 7.2 -0.1 11 -0.1 C12 -0.1 13 -0.2 14 -0.2 C15 -0.2 16 -0.2 17 -0.2 C18 -0.2 18 -0.2 20 -0.2 C22 0 22 0 24 2 C22 2.3 20 2.7 18 3 C17 3.2 16 3.4 14 3.6 C11 4.0 8.2 4.1 5 4 C5 3.3 5 2.7 5 2 C3.4 1.7 1.7 1.3 0 1 C0 0.7 0 0.3 0 0 Z " fill="#FBF9FC" transform="translate(385,1075)"/><path d="M0 0 C2.3 0.3 4.6 0.7 7 1 C7.3 2.6 7.7 4.3 8 6 C7.3 6 6.7 6 6 6 C5.7 6.7 5.3 7.3 5 8 C2.7 8 0.4 8 -2 8 C-2.3 7.0 -2.7 6.0 -3 5 C-2.5 4.5 -2.0 4.1 -1.5 3.6 C0.2 2.1 0.2 2.1 0 0 Z " fill="#4A429A" transform="translate(478,1146)"/><path d="M0 0 C0 1.0 0 2.0 0 3 C-3.5 4.5 -3.5 4.5 -7 6 C-7 6.7 -7 7.3 -7 8 C-7.7 8 -8.3 8 -9 8 C-9.7 5.4 -10 2.7 -11 0 C-7.0 -0.8 -4.0 -1.1 0 0 Z " fill="#534AA2" transform="translate(521,1136)"/><path d="M0 0 C0.7 1.0 1.3 2.0 2 3 C0.8 4.2 -0.5 5.3 -1.7 6.4 C-2.7 7.4 -2.7 7.4 -3.8 8.4 C-6.2 10 -8.0 11 -11 11 C-11 9.7 -12 8.4 -12 7 C-11 6.7 -11 6.5 -10 6.2 C-9.3 5.9 -8.5 5.5 -7.7 5.2 C-6.9 4.9 -6.1 4.5 -5.3 4.2 C-3.0 3.0 -1.7 1.9 0 0 Z " fill="#4D42A2" transform="translate(454,1103)"/><path d="M0 0 C2 1 2 1 2 1 Z M-1 1 C-0.7 1.7 -0.3 2.3 0 3 C1.0 3 2.0 3 3 3 C1.8 5.5 0.5 7.7 -1 10 C-2.6 9.7 -4.3 9.3 -6 9 C-6 7.0 -6 5.0 -6 3 C-4.7 3.3 -3.4 3.7 -2 4 C-1.7 3.0 -1.3 2.0 -1 1 Z " fill="#4D4388" transform="translate(377,960)"/><path d="M0 0 C1.0 0.3 2.0 0.7 3 1 C2.7 2.6 2.3 4.3 2 6 C-1.3 7.1 -2.7 6.8 -6 6 C-2.2 3 -2.2 3 0 3 C0 2.0 0 1.0 0 0 Z M-6 6 C-6 6.7 -6 7.3 -6 8 C-7.0 8.3 -8.0 8.7 -9 9 C-9.3 8.3 -9.7 7.7 -10 7 C-8 6 -8 6 -6 6 Z M-10 8 C-10 8.7 -10 9.3 -10 10 C-13 12 -13 12 -16 13 C-17 13 -18 12 -19 12 C-12 8 -12 8 -10 8 Z " fill="#4A42A0" transform="translate(477,1197)"/><path d="M0 0 C0 0.7 0 1.3 0 2 C0.7 2 1.3 2 2 2 C2.3 3.0 2.7 4.0 3 5 C2.0 6.5 2.0 6.5 1 8 C-1.6 7.3 -4.3 6.7 -7 6 C-6.3 5.7 -5.7 5.3 -5 5 C-6.0 3.7 -7.0 2.4 -8 1 C-5.1 0.2 -3.1 0 0 0 Z " fill="#564B99" transform="translate(424,927)"/><path d="M0 0 C2.4 2.4 2.3 3.1 2.4 6.4 C2.8 10 3.3 12 6 15 C5.0 15 4.0 15 3 15 C-0.6 11 -2.6 6.4 -3 1 C-2.0 0.7 -1.0 0.3 0 0 Z " fill="#EDE9F1" transform="translate(295,1004)"/><path d="M0 0 C2.7 7.2 -2.8 17 -5.8 23 C-6.5 25 -7.2 26 -8 28 C-9.1 25 -8.9 23 -7.6 20 C-7.3 19 -7.0 18 -6.7 17 C-6.4 16 -6.0 15 -5.7 15 C-5.4 14 -5.0 13 -4.7 12 C-3.2 8.0 -1.6 4.0 0 0 Z " fill="#E7E2F2" transform="translate(184,933)"/><path d="M0 0 C0.7 0.3 1.3 0.7 2 1 C1.5 1.5 1.0 2.0 0.4 2.5 C-3.1 5.9 -6.2 9.0 -8.6 13 C-11 17 -13 18 -17 20 C-15 16 -13 14 -11 11 C-9.6 9.8 -9.6 9.8 -8.3 8.5 C-5.6 5.6 -2.8 2.8 0 0 Z " fill="#473E7D" transform="translate(324,841)"/><path d="M0 0 C0.7 1.6 1.3 3.3 2 5 C-5.3 8.6 -5.3 8.6 -10 7 C-9.7 6.3 -9.3 5.7 -9 5 C-8.0 5 -7.0 5 -6 5 C-6.3 4.0 -6.7 3.0 -7 2 C-2.2 0 -2.2 0 0 0 Z " fill="#564999" transform="translate(300,815)"/><path d="M0 0 C0.7 0.3 1.3 0.7 2 1 C2 2.3 2 3.6 2 5 C5.0 4.3 7.9 3.7 11 3 C11 2.3 11 1.7 11 1 C14 0.7 16 0.3 19 0 C17 3.4 13 3.9 10 5.1 C9.4 5.4 8.7 5.7 7.9 6.0 C4.8 7.1 2.3 8 -1 8 C-1.3 6.3 -1.7 4.7 -2 3 C-1.3 3 -0.7 3 0 3 C0 2.0 0 1.0 0 0 Z " fill="#3F3682" transform="translate(493,1143)"/><path d="M0 0 C0.3 1.6 0.7 3.3 1 5 C0.3 5 -0.3 5 -1 5 C-1.9 6.0 -1.9 6.0 -2.9 7 C-5 9 -5 9 -9 9 C-8.7 8.3 -8.3 7.7 -8 7 C-8 6.0 -8 5.0 -8 4 C-5.2 0.5 -4.6 0 0 0 Z " fill="#554C98" transform="translate(344,1025)"/><path d="M0 0 C0.7 0 1.3 0 2 0 C1.5 2.6 1.0 4.0 -0.6 6.2 C-3.1 11 -2.5 17 -1 22 C-2.0 22 -3.0 22 -4 22 C-5.6 16 -5.8 11 -3.6 5.6 C-2.5 3.7 -1.2 1.9 0 0 Z " fill="#F0EBF7" transform="translate(335,1067)"/><path d="M0 0 C0.7 0 1.3 0 2 0 C2.7 0.7 3.3 1.3 4 2 C6.0 2.4 8.0 2.7 10 3 C9.7 4.1 9.3 5.2 9 6.3 C7.9 9.8 7.9 9.8 8 13 C6.7 11 5.3 9.4 4 7.6 C3.3 6.6 2.5 5.6 1.8 4.6 C0 2 0 2 0 0 Z " fill="#49408F" transform="translate(193,1137)"/><path d="M0 0 C0.3 1.6 0.7 3.3 1 5 C0.0 5.5 0.0 5.5 -1 6 C-1 4.7 -1 3.4 -1 2 C-3.7 3.5 -6.1 5.1 -8.5 7.1 C-11 9.0 -13 10 -16 11 C-7.0 -1.3 -7.0 -1.3 0 0 Z " fill="#44397B" transform="translate(566,1102)"/><path d="M0 0 C0.7 0.1 1.4 0.2 2.2 0.3 C1.9 5.7 -1.0 7.8 -4.8 11 C-5.5 11 -6.1 11 -6.8 10 C-5.5 9.0 -4.2 7.7 -2.8 6.3 C-4.5 6.0 -6.1 5.7 -7.8 5.3 C-3.5 0.4 -3.5 0.4 0 0 Z " fill="#453D7C" transform="translate(465.8125,1068.6875)"/><path d="M0 0 C1.3 0.3 2.6 0.7 4 1 C3.5 4.8 1.8 6.4 -1 9 C-2.1 10 -2.1 10 -3.2 11 C-3.8 12 -4.4 12 -5 13 C-4.5 7.7 -2.7 4.4 0 0 Z " fill="#4F479A" transform="translate(218,1019)"/><path d="M0 0 C2.0 0 4.0 0 6 0 C6 0.7 6 1.3 6 2 C8.3 2 11 2 13 2 C11 4.0 11 4.0 9 6 C6.0 6.2 6.0 6.2 2.8 5.8 C1.7 5.6 0.6 5.5 -0.5 5.4 C-1.3 5.2 -2.2 5.1 -3 5 C-3 4.3 -3 3.7 -3 3 C-1.4 2.7 0.3 2.3 2 2 C1.3 1.3 0.7 0.7 0 0 Z " fill="#5A4E9F" transform="translate(344,804)"/><path d="M0 0 C2.4 0.6 4.7 1.2 7 2 C7 2.7 7 3.3 7 4 C8.7 4 10 4 12 4 C12 4.7 12 5.3 12 6 C14 6.3 15 6.7 17 7 C17 8.0 18 9.0 18 10 C11 8.0 5.2 5.3 -1 2 C-0.7 1.3 -0.3 0.7 0 0 Z " fill="#ECE9F3" transform="translate(272,1197)"/><path d="M0 0 C-1.0 0.5 -1.0 0.5 -2 1 C-2.3 1.7 -2.7 2.3 -3 3 C-4.4 4.6 -4.4 4.6 -6 6 C-6.7 6 -7.3 6 -8 6 C-8.7 7.3 -9.3 8.6 -10 10 C-11 9.7 -11 9.3 -12 9 C-12 4.7 -9.1 2.7 -6 0 C-3 -1 -3 -1 0 0 Z " fill="#504592" transform="translate(421,1094)"/><path d="M0 0 C0.3 0.7 0.7 1.3 1 2 C0.0 3.8 -1.0 5.5 -2.1 7.2 C-3.2 9.1 -3.2 9.1 -3 12 C-1.0 9.4 1.0 6.7 3 4 C3 7.5 2.3 8.4 0.2 11 C-0.3 12 -0.9 13 -1.4 13 C-1.9 14 -2.5 14 -3 15 C-4.0 15 -5.0 15 -6 15 C-5.6 8.8 -3.5 5.0 0 0 Z " fill="#433C74" transform="translate(217,1019)"/><path d="M0 0 C4.0 0 7.9 0 12 0 C12 0.7 12 1.3 12 2 C9.5 4.5 8.3 5.0 4.8 5.2 C3.8 5.1 2.9 5.1 2 5 C2 4.0 2 3.0 2 2 C1.3 2 0.7 2 0 2 C0 1.3 0 0.7 0 0 Z M-2 2 C0 3 0 3 0 3 Z " fill="#FAF9F5" transform="translate(351,810)"/><path d="M0 0 C0.7 0.3 1.3 0.7 2 1 C-0.5 4.2 -3.0 7.2 -5.6 10 C-6.1 11 -6.7 12 -7.3 12 C-9 14 -9 14 -12 14 C-8.3 8.9 -4.6 4.3 0 0 Z " fill="#E9E6F1" transform="translate(392,951)"/><path d="M0 0 C6.3 2.6 13 5.3 19 8 C19 8.7 18 9.3 18 10 C14 9.4 11 8.0 6.8 6.1 C5.7 5.6 4.6 5.1 3.5 4.6 C1 3 1 3 0 0 Z " fill="#F1EFF9" transform="translate(379,1141)"/><path d="M0 0 C0.3 1.0 0.7 2.0 1 3 C0.7 3.7 0.3 4.3 0 5 C1.0 4.7 2.0 4.3 3 4 C3.3 5.7 3.7 7.3 4 9 C3.3 9 2.7 9 2 9 C0.7 11 -0.6 14 -2 16 C-3 14 -3 14 -2.1 11 C-1.7 9.9 -1.4 9.0 -1 8 C-1.7 8 -2.3 8 -3 8 C-2.5 4.6 -1.9 2.9 0 0 Z " fill="#473C8B" transform="translate(292,882)"/><path d="M0 0 C0.3 0.7 0.7 1.3 1 2 C0.3 2 -0.3 2 -1 2 C-1.3 3.3 -1.7 4.6 -2 6 C-3.3 5.3 -4.6 4.7 -6 4 C-4.0 2.7 -2.0 1.4 0 0 Z M-4 6 C-1.5 7.0 -1.5 7.0 1 8 C-4.1 14 -4.1 14 -8 14 C-6.7 13 -5.4 11 -4 10 C-4.7 9.3 -5.3 8.7 -6 8 C-5.3 7.3 -4.7 6.7 -4 6 Z " fill="#443A82" transform="translate(259,834)"/><path d="M0 0 C0.7 0.3 1.3 0.7 2 1 C-2.8 5.9 -7.8 11 -13 15 C-13 11 -11 9.2 -8 6 C-7.3 5.0 -6.7 4.0 -6 3 C-4.4 2.3 -2.7 1.6 -1 1 C-0.7 0.7 -0.3 0.3 0 0 Z " fill="#524694" transform="translate(231,856)"/><path d="M0 0 C1.0 0.3 2.0 0.7 3 1 C3 1.7 3 2.3 3 3 C3.7 3 4.3 3 5 3 C5.3 9.3 4.3 14 2 20 C1.3 20 0.7 19 0 19 C0.3 18 0.7 17 1 16 C2.7 11 2.8 5.5 0 0 Z " fill="#F2EEF8" transform="translate(348,1050)"/><path d="M0 0 C1.0 0 2.0 0 3 0 C1.6 4.4 -0.3 6.3 -4 9 C-5.1 7.2 -5.1 7.2 -6 5 C-5.7 4.0 -5.3 3.0 -5 2 C-3 1.4 -3 1.4 -1 1 C-0.7 0.7 -0.3 0.3 0 0 Z " fill="#4E429B" transform="translate(277,1036)"/><path d="M0 0 C-1.3 3.9 -3.1 4.8 -6.4 7.2 C-7.4 7.9 -8.4 8.6 -9.4 9.4 C-12 11 -12 11 -14 11 C-14 10 -14 9.0 -14 8 C-12 6.7 -12 6.7 -10 5.5 C-7.9 4.1 -5.8 2.8 -3.6 1.2 C-2 0 -2 0 0 0 Z " fill="#F1EEF6" transform="translate(347,1019)"/><path d="M0 0 C4.8 0.8 9.2 2.4 14 4.1 C15 4.3 15 4.6 16 4.9 C18 5.6 20 6.3 22 7 C22 7.3 22 7.7 22 8 C15 7.6 7.8 5.2 1 2 C0.7 1.3 0.3 0.7 0 0 Z " fill="#46417B" transform="translate(286,1214)"/><path d="M0 0 C-0.7 0 -1.3 0 -2 0 C-2.2 0.6 -2.4 1.3 -2.6 1.9 C-4 4 -4 4 -7.4 4.8 C-10 5.0 -12 4.8 -15 4 C-13 3.1 -11 2.3 -9.2 1.4 C-8.1 1.0 -7.0 0.5 -5.9 -0.0 C-3 -1 -3 -1 0 0 Z " fill="#4C4389" transform="translate(511,1138)"/><path d="M0 0 C2.0 0.7 2.0 0.7 4 2 C4.5 4.1 4.5 4.1 4.6 6.6 C4.7 8.9 4.7 8.9 5 11 C5.7 11 6.3 12 7 12 C7 14 7 16 7 18 C4.5 15 3.1 12 1.8 8.4 C1.5 7.5 1.1 6.5 0.8 5.6 C0 3 0 3 0 0 Z " fill="#4A3F85" transform="translate(171,1090)"/><path d="M0 0 C1.0 0.3 2.0 0.7 3 1 C3 1.7 3 2.3 3 3 C4.0 3.3 5.0 3.7 6 4 C4.3 4.7 2.7 5.3 1 6 C2.6 6.3 4.3 6.7 6 7 C3 9 3 9 -0.1 8.8 C-3 8 -3 8 -5 6 C-4.4 5.8 -3.7 5.5 -3.1 5.2 C-0.8 4.2 -0.8 4.2 -0.2 1.9 C-0.2 1.3 -0.1 0.6 0 0 Z " fill="#42378C" transform="translate(248,996)"/><path d="M0 0 C0 4.4 -2.1 5.8 -5 9 C-2.0 8.0 0.9 7.0 4 6 C4 6.7 4 7.3 4 8 C-1.3 11 -1.3 11 -4.9 11 C-5.6 10 -6.3 10 -7 10 C-6.4 6.6 -5.4 5.1 -2.9 2.8 C-2.4 2.2 -1.8 1.7 -1.3 1.2 C-0.6 0.6 -0.6 0.6 0 0 Z " fill="#433A77" transform="translate(409,1101)"/><path d="M0 0 C-1 2 -1 2 -3.5 3.1 C-7.7 4.2 -11 4.0 -15 3.6 C-16 3.6 -17 3.5 -18 3.5 C-19 3.3 -21 3.2 -23 3 C-23 2.7 -23 2.3 -23 2 C-22 1.9 -22 1.9 -20 1.9 C-15 1.6 -4.0 -2.0 0 0 Z " fill="#E7E3F4" transform="translate(266,1053)"/><path d="M0 0 C5.4 -0.1 11 -0.1 16 1 C16 1.7 15 2.3 15 3 C12 3.5 12 3.5 9.2 3.8 C8.1 3.8 7.1 3.9 6.0 4.0 C3.0 4.0 1.5 3.6 -1 2 C-0.7 1.3 -0.3 0.7 0 0 Z " fill="#4B3F9F" transform="translate(250,997)"/><path d="M0 0 C0.7 0 1.3 0 2 0 C1.4 5.5 -0.6 10 -3 15 C-3.7 14 -4.3 13 -5 12 C-4.4 9.3 -4.4 9.3 -3.2 6.4 C-2.6 4.9 -2.6 4.9 -2.0 3.4 C-1 1 -1 1 0 0 Z " fill="#EEECF3" transform="translate(178,918)"/><path d="M0 0 C-1 3 -1 3 -3.2 4.2 C-6.0 5.0 -8.2 5.2 -11 5 C-11 4.0 -11 3.0 -11 2 C-12 1.7 -12 1.3 -13 1 C-12 1.0 -11 1.0 -9.7 1.1 C-6.2 1.0 -3.4 0 0 0 Z " fill="#54489C" transform="translate(314,813)"/><path d="M0 0 C0 0.7 0 1.3 0 2 C-2.2 2.4 -4.5 2.8 -6.8 3.1 C-8.0 3.3 -9.3 3.5 -11 3.8 C-14 4.0 -15 3.9 -18 2 C-12 0.6 -6.3 -0.2 0 0 Z " fill="#E8E5F3" transform="translate(351,810)"/><path d="M0 0 C0.3 1.0 0.7 2.0 1 3 C-2.3 6.3 -5.7 9.7 -9 13 C-10.0 13 -11 12 -12 12 C-11 11 -11 11 -9.8 9.9 C-7.8 7.9 -6.1 5.9 -4.3 3.8 C-2 1 -2 1 0 0 Z " fill="#EDEBF5" transform="translate(282,1038)"/><path d="M0 0 C3.3 0 6.6 0 10 0 C8.3 1.6 6.7 3.3 5 5 C5.7 5.3 6.3 5.7 7 6 C5.6 7.5 5.6 7.5 4 9 C3.3 9 2.7 9 2 9 C1 6 1 6 1 4 C0.7 2.7 0.3 1.4 0 0 Z " fill="#51499D" transform="translate(433,1214)"/><path d="M0 0 C1.3 3.6 0.7 5.5 -0.8 8.9 C-1.2 9.8 -1.5 11 -1.9 11 C-2.3 12 -2.6 13 -3 14 C-3.7 16 -4.3 17 -5 19 C-5.3 19 -5.7 19 -6 19 C-5.6 12 -3.2 6.4 0 0 Z " fill="#48407B" transform="translate(287,892)"/><path d="M0 0 C5.6 0 11 0 17 0 C17 1.0 17 2.0 17 3 C15 2.9 12 2.8 10 2.6 C8.9 2.6 7.7 2.5 6.4 2.4 C3 2 3 2 0 0 Z " fill="#5B518F" transform="translate(358,807)"/><path d="M0 0 C0.7 0.3 1.3 0.7 2 1 C1.3 1.6 1.3 1.6 0.6 2.3 C-1.2 4.0 -1.2 4.0 -2 7 C-1.3 7 -0.7 7 0 7 C-1 10 -1 10 -3.2 11 C-6.3 12 -8.8 12 -12 12 C-12 12 -12 11 -12 11 C-9.4 11 -6.7 10 -4 10 C-3.9 8.9 -3.8 7.8 -3.7 6.7 C-3.0 3.1 -2.8 2.1 0 0 Z " fill="#453B84" transform="translate(411,1063)"/><path d="M0 0 C0.7 0 1.3 0 2 0 C3.0 1.8 4.0 3.6 5 5.4 C5.8 6.9 5.8 6.9 6.7 8.4 C8 11 8 11 8 13 C7.0 13 6.0 13 5 13 C4.2 11 3.3 9.4 2.5 7.6 C1.8 6.1 1.8 6.1 1.1 4.6 C0 2 0 2 0 0 Z " fill="#EEEBF5" transform="translate(360,1018)"/><path d="M0 0 C1.1 0.0 2.2 0.1 3.3 0.1 C4.5 0.2 4.5 0.2 5.8 0.2 C3.0 1.7 0.2 2.9 -2.8 3.9 C-3.6 4.2 -4.3 4.5 -5.1 4.8 C-7.2 5.2 -7.2 5.2 -10 4.2 C-7.0 0.3 -5.1 -0.2 0 0 Z " fill="#3F3680" transform="translate(319.25,996.75)"/><path d="M0 0 C5.8 -0.1 5.8 -0.1 8 1 C7.2 2.9 7.2 2.9 6 5 C5.0 5.3 4.0 5.7 3 6 C2.3 6.7 1.7 7.3 1 8 C-0.3 7.3 -1.6 6.7 -3 6 C-0.4 3.4 1.5 3.5 5 3 C5 2.7 5 2.3 5 2 C3.4 1.7 1.7 1.3 0 1 C0 0.7 0 0.3 0 0 Z " fill="#4F4799" transform="translate(404,1220)"/><path d="M0 0 C1.2 0.2 1.2 0.2 2.5 0.3 C3.4 0.4 3.4 0.4 4.4 0.6 C4.4 0.9 4.4 1.2 4.4 1.6 C2.1 1.6 -0.2 1.6 -2.6 1.6 C-3.0 2.6 -3.3 3.5 -3.6 4.6 C-4.9 4.2 -6.3 3.9 -7.6 3.6 C-7.3 2.6 -7.0 1.6 -6.6 0.6 C-4.1 -0.7 -2.8 -0.4 0 0 Z M-9.6 4.6 C-8.6 4.6 -7.6 4.6 -6.6 4.6 C-6.6 5.2 -6.6 5.9 -6.6 6.6 C-7.6 6.6 -8.6 6.6 -9.6 6.6 C-9.6 5.9 -9.6 5.2 -9.6 4.6 Z " fill="#453E8E" transform="translate(422.625,1147.4375)"/><path d="M0 0 C1.3 0.3 2.6 0.7 4 1 C4 2.0 4 3.0 4 4 C5.0 4.3 6.0 4.7 7 5 C8.2 7.4 8.2 7.4 9 10 C8.7 11 8.3 12 8 13 C6.7 11 5.3 9.4 4 7.6 C3.3 6.6 2.5 5.6 1.8 4.6 C0 2 0 2 0 0 Z " fill="#ECE9F2" transform="translate(203,1137)"/><path d="M0 0 C0.3 1.0 0.7 2.0 1 3 C-2.8 6 -2.8 6 -5 6 C-5 6.7 -5 7.3 -5 8 C-5.7 8 -6.3 8 -7 8 C-7 8.7 -7 9.3 -7 10 C-8.7 11 -10 11 -12 12 C-8.3 7.5 -4.6 3.6 0 0 Z " fill="#F9F7FC" transform="translate(234,1012)"/><path d="M0 0 C5.3 0 11 0 16 0 C16 1.3 17 2.6 17 4 C16 4.3 14 4.7 13 5 C13 4.3 13 3.7 13 3 C10 1.7 8.2 1.7 5.4 1.4 C4.4 1.4 3.4 1.3 2.3 1.2 C1.6 1.1 0.8 1.1 0 1 C0 0.7 0 0.3 0 0 Z " fill="#584F87" transform="translate(425,926)"/><path d="M0 0 C0 4.1 -1.7 5.2 -4.5 8.2 C-5.3 9.1 -6.2 10.0 -7.0 11 C-7.7 12 -8.3 12 -9 13 C-9 8.4 -9 8.4 -8 6 C-5.1 3.9 -5.1 3.9 -2 2 C-1.3 1.3 -0.7 0.7 0 0 Z " fill="#403678" transform="translate(222,873)"/><path d="M0 0 C1.0 0.3 2.0 0.7 3 1 C1.9 2.7 0.7 4.3 -0.4 6 C-1.1 6.9 -1.7 7.9 -2.4 8.8 C-2.9 9.5 -3.4 10 -4 11 C-4.3 11 -4.7 11 -5 11 C-5.4 5.5 -5.4 5.5 -3.6 3.1 C-2 2 -2 2 0 2 C0 1.3 0 0.7 0 0 Z " fill="#ECEAF1" transform="translate(300,865)"/><path d="M0 0 C5.1 1.9 9.8 4.4 14 8 C14 8.7 14 9.3 14 10 C10 8.7 7.3 6.9 4.2 4.4 C3.4 3.8 2.6 3.2 1.8 2.6 C0.9 1.8 0.9 1.8 0 1 C0 0.7 0 0.3 0 0 Z " fill="#EBE7F3" transform="translate(242,1180)"/><path d="M0 0 C0.7 0.3 1.3 0.7 2 1 C0.5 4.5 -1.4 6.6 -4.1 9.2 C-4.8 10.0 -5.6 11 -6.3 11 C-6.9 12 -7.4 12 -8 13 C-8.3 12 -8.7 11 -9 10 C-8.3 10 -7.7 10 -7 10 C-7 9.0 -7 8.0 -7 7 C-5.7 6.7 -4.4 6.3 -3 6 C-3 5.3 -3 4.7 -3 4 C-2.3 4 -1.7 4 -1 4 C-0.7 2.7 -0.3 1.4 0 0 Z " fill="#EDE9F5" transform="translate(524,1155)"/><path d="M0 0 C1.0 0.3 2.0 0.7 3 1 C2.7 3.0 2.3 5.0 2 7 C-1 7 -1 7 -3 6 C-2.6 3.6 -2.6 3.6 -2 1 C-1.3 0.7 -0.7 0.3 0 0 Z " fill="#4C429A" transform="translate(543,1119)"/><path d="M0 0 C-1.9 4.8 -1.9 4.8 -3 7 C-5 6 -5 6 -6.1 2.9 C-6.4 2.0 -6.7 1.0 -7 0 C-4.3 -1.3 -2.8 -0.7 0 0 Z " fill="#4B3F9F" transform="translate(354,1096)"/><path d="M0 0 C1.6 0.3 3.3 0.7 5 1 C4.6 3.4 4.6 3.4 4 6 C1.2 7.4 -1.0 7.1 -4.1 7.1 C-5.2 7.1 -6.3 7.0 -7.4 7.0 C-8.7 7.0 -8.7 7.0 -10 7 C-10 6.7 -10 6.3 -10 6 C-4.6 5.5 -4.6 5.5 1 5 C1.3 3.7 1.7 2.4 2 1 C1.3 0.7 0.7 0.3 0 0 Z " fill="#483F7C" transform="translate(265,996)"/><path d="M0 0 C0 3 0 3 -1.7 4.8 C-2.8 5.6 -2.8 5.6 -3.9 6.6 C-5.0 7.5 -5.0 7.5 -6.1 8.4 C-7.0 9.2 -7.0 9.2 -8 10 C-8.7 11 -9.3 11 -10 12 C-11 12 -11 12 -12 12 C-11 8.9 -10 8.1 -8 6 C-7.3 5.3 -6.7 4.7 -6 4 C-4.7 3.3 -3.3 2.7 -2 2 C-1.3 1.3 -0.7 0.7 0 0 Z " fill="#54469E" transform="translate(434,972)"/><path d="M0 0 C1.0 0.7 2.0 1.3 3 2 C1.8 3.2 0.5 4.3 -0.8 5.4 C-1.8 6.4 -1.8 6.4 -2.9 7.4 C-5.0 9.0 -6.4 9.6 -9 10 C-8.1 8.9 -7.1 7.8 -6.2 6.7 C-5.7 6.1 -5.1 5.5 -4.6 4.8 C-3.1 3.1 -1.6 1.6 0 0 Z " fill="#EAE8F3" transform="translate(456,1094)"/><path d="M0 0 C4.0 0.6 6.9 2.4 10 5 C10 8.2 10 8.2 10 11 C9.8 10 9.6 9.8 9.4 9.2 C7.5 6.2 5.2 5.4 2 4 C2 3.3 2 2.7 2 2 C1.3 2 0.7 2 0 2 C0 1.3 0 0.7 0 0 Z " fill="#F2F0F9" transform="translate(332,1051)"/><path d="M0 0 C1.0 0 2.0 0 3 0 C3 0.7 3 1.3 3 2 C3.7 2.3 4.3 2.7 5 3 C5 3.7 5 4.3 5 5 C5.3 5.7 5.7 6.3 6 7 C3.0 7 0.1 7 -3 7 C-2.3 6.7 -1.7 6.3 -1 6 C-0.3 3.0 -0.3 3.0 0 0 Z " fill="#52469D" transform="translate(400,987)"/><path d="M0 0 C1.0 0.3 2.0 0.7 3 1 C-0.6 4.6 -4.3 8.3 -8 12 C-8.3 11 -8.7 9.4 -9 8 C-8.0 8 -7.0 8 -6 8 C-6 7.3 -6 6.7 -6 6 C-5.3 6 -4.7 6 -4 6 C-4 5.3 -4 4.7 -4 4 C-3.3 4 -2.7 4 -2 4 C-2 3.3 -2 2.7 -2 2 C-1.3 2 -0.7 2 0 2 C0 1.3 0 0.7 0 0 Z " fill="#F3F1FB" transform="translate(323,839)"/><path d="M0 0 C0 2.3 0 4.6 0 7 C-3.9 9 -3.9 9 -5 9 C-5.2 6.8 -5.2 6.8 -5 4 C-1.6 0 -1.6 0 0 0 Z " fill="#493C94" transform="translate(168,1038)"/><path d="M0 0 C2.5 2.3 3.9 4.4 5.2 7.5 C5.6 8.3 6.0 9.0 6.3 9.8 C7 12 7 12 6 15 C3.8 13 3.0 11 1.9 8.1 C1.5 7.2 1.2 6.3 0.8 5.4 C0 3 0 3 0 0 Z " fill="#453B7F" transform="translate(373,1026)"/><path d="M0 0 C0.7 0.3 1.3 0.7 2 1 C-1.6 6.1 -3.9 7.8 -10 9 C-11 8.3 -11 7.7 -12 7 C-11 6.7 -11 6.3 -9.9 6.0 C-9.0 5.5 -8.1 5.1 -7.1 4.6 C-6.2 4.2 -5.3 3.7 -4.4 3.3 C-1.9 2.1 -1.9 2.1 0 0 Z " fill="#ECE8F5" transform="translate(430,985)"/><path d="M0 0 C0.7 0.3 1.3 0.7 2 1 C0.6 2.8 -0.9 4.5 -2.3 6.3 C-3.5 7.8 -3.5 7.8 -4.7 9.3 C-6.4 11 -8.1 13 -10 15 C-8.7 8.5 -4.4 4.6 0 0 Z " fill="#463D77" transform="translate(383,947)"/><path d="M0 0 C0.7 1.0 1.3 2.0 2 3 C-1.3 7.3 -4.3 10 -9 13 C-7.7 10 -6.1 7.8 -3.9 5.4 C-2.3 3.6 -1.1 2.2 0 0 Z " fill="#55489B" transform="translate(326,839)"/><path d="M0 0 C-3.6 2.3 -7.3 4.6 -11 7 C-11 6.0 -12 5.0 -12 4 C-11 3.7 -10 3.3 -9 3 C-8.3 2.0 -7.7 1.0 -7 0 C-4.0 -1.2 -3.1 -1.0 0 0 Z " fill="#E8E5F3" transform="translate(489,1189)"/><path d="M0 0 C1.4 -0.1 2.9 -0.1 4.3 -0.1 C5.1 -0.1 5.9 -0.2 6.7 -0.2 C9 0 9 0 12 2 C11 3 11 3 7.8 3.1 C4.7 3.0 2.0 2.7 -1 2 C-0.7 1.3 -0.3 0.7 0 0 Z " fill="#F8F7FB" transform="translate(422,1157)"/><path d="M0 0 C-0.6 0.3 -1.1 0.5 -1.7 0.8 C-4.3 2.1 -6.8 3.6 -9.2 5.1 C-10 5.7 -11 6.2 -12 6.8 C-13 7.2 -13 7.6 -14 8 C-14 7.0 -14 6.0 -14 5 C-13 5 -13 5 -12 5 C-12 4.3 -12 3.7 -12 3 C-4.7 -0.4 -4.7 -0.4 0 0 Z " fill="#E4E2EF" transform="translate(467,1068)"/><path d="M0 0 C0.2 0.6 0.5 1.2 0.8 1.9 C2.2 4.4 3.4 5.0 6 6 C-0.8 6.1 -0.8 6.1 -3 5 C-2.6 3.1 -2.6 3.1 -2 1 C-1.3 0.7 -0.7 0.3 0 0 Z " fill="#605890" transform="translate(331,1031)"/><path d="M0 0 C0.7 0.3 1.3 0.7 2 1 C-4.6 6.8 -4.6 6.8 -9 8 C-10 7.7 -12 7.4 -13 7 C-11 5.8 -8.8 4.6 -6.6 3.4 C-6.0 3.1 -5.4 2.8 -4.8 2.4 C-3.2 1.5 -1.6 0.8 0 0 Z " fill="#483E80" transform="translate(425,978)"/><path d="M0 0 C4.0 1.7 7.7 4.1 11 7 C11 7.7 11 8.3 11 9 C9.7 8.3 8.3 7.7 7 7 C5.4 6.3 5.4 6.3 3.8 5.6 C1 4 1 4 0.1 1.8 C0.1 1.2 0.0 0.6 0 0 Z " fill="#EEEDF6" transform="translate(234,1185)"/><path d="M0 0 C1.0 0.3 2.0 0.7 3 1 C4.2 3.6 4.2 3.6 5 6 C5.7 6 6.3 6 7 6 C7.3 7.3 7.7 8.6 8 10 C4.5 8.1 2.1 6.5 0 3 C0 2.0 0 1.0 0 0 Z " fill="#E8E5F2" transform="translate(368,1119)"/><path d="M0 0 C1.6 0.2 1.6 0.2 3.2 0.5 C6.2 0.9 9.0 1.1 12 1 C7.1 4.3 2.8 4.1 -3 4 C-2.3 3.7 -1.7 3.3 -1 3 C-0.7 2.0 -0.3 1.0 0 0 Z " fill="#3B337A" transform="translate(407,1225)"/><path d="M0 0 C0 1.0 0 2.0 0 3 C-5.0 2.7 -9.9 2.3 -15 2 C-15 1.7 -15 1.3 -15 1 C-9.9 -0.0 -5.1 -0.1 0 0 Z " fill="#3C3277" transform="translate(409,1221)"/><path d="M0 0 C1.6 0.3 3.3 0.7 5 1 C4.7 2.3 4.3 3.6 4 5 C2.0 5 0.0 5 -2 5 C-1.3 3.4 -0.7 1.7 0 0 Z " fill="#4B4198" transform="translate(545,1132)"/><path d="M0 0 C-1.5 4.6 -5.2 6.5 -9 9 C-9.3 8.0 -9.7 7.0 -10 6 C-9.0 6 -8.0 6 -7 6 C-6.7 5.0 -6.3 4.0 -6 3 C-2.6 0 -2.6 0 0 0 Z " fill="#EDEAF6" transform="translate(277,1033)"/><path d="M0 0 C0.7 0.3 1.3 0.7 2 1 C1.3 2.6 0.7 4.3 0 6 C-1.0 6 -2.0 6 -3 6 C-3.3 6.6 -3.5 7.2 -3.8 7.9 C-5 10 -5 10 -8 12 C-8.3 11 -8.7 11 -9 10 C-8.3 9.3 -7.5 8.6 -6.8 7.8 C-4.3 5.3 -2.1 2.8 0 0 Z " fill="#EAE7F4" transform="translate(221,1024)"/><path d="M0 0 C-1 3 -1 3 -3.9 4.8 C-7 6 -7 6 -10 5 C-7.0 1.7 -4.5 0 0 0 Z " fill="#463D98" transform="translate(314,995)"/><path d="M0 0 C0.7 0.7 1.3 1.3 2 2 C-3.9 5.5 -3.9 5.5 -10 9 C-10 8.0 -10 7.0 -10 6 C-8.0 5.3 -6.0 4.7 -4 4 C-4 3.3 -4 2.7 -4 2 C-2.7 1.3 -1.4 0.7 0 0 Z " fill="#EAE8F3" transform="translate(263,829)"/><path d="M0 0 C5.8 -0.2 10 0.4 16 2 C16 2.3 16 2.7 16 3 C10 3.2 5.5 2.9 0 1 C0 0.7 0 0.3 0 0 Z " fill="#4C4584" transform="translate(417,1154)"/><path d="M0 0 C-0.7 1.3 -1.3 2.6 -2 4 C-3.1 3.8 -3.1 3.8 -4.1 3.5 C-7.1 3.0 -9.9 2.9 -13 3 C-4.6 -1.5 -4.6 -1.5 0 0 Z " fill="#DFDCEC" transform="translate(501,1150)"/><path d="M0 0 C1.0 0.3 2.0 0.7 3 1 C3 2.6 3 4.3 3 6 C0.4 6.3 -2.3 6.7 -5 7 C-4.3 6.7 -3.7 6.3 -3 6 C-3 5.3 -3 4.7 -3 4 C-2.0 4 -1.0 4 0 4 C0 2.7 0 1.4 0 0 Z " fill="#534C9F" transform="translate(419,1148)"/><path d="M0 0 C-0.3 1.0 -0.7 2.0 -1 3 C-3.0 3.3 -5.0 3.7 -7 4 C-7.3 3.0 -7.7 2.0 -8 1 C-4.9 -0.9 -3.4 -1.2 0 0 Z " fill="#4C428C" transform="translate(434,1114)"/><path d="M0 0 C1.0 0.7 2.0 1.3 3 2 C0.7 4.6 -1.6 7.3 -4 10 C-5 6 -5 6 -4.0 4.3 C-2.7 2.9 -1.3 1.4 0 0 Z " fill="#EEEBF5" transform="translate(416,1053)"/><path d="M0 0 C1.0 0 2.0 0 3 0 C3.3 0.7 3.7 1.3 4 2 C2.0 4.6 0.0 7.3 -2 10 C-2 2 -2 2 0 0 Z " fill="#463C80" transform="translate(207,887)"/><path d="M0 0 C0.7 0.3 1.3 0.7 2 1 C0.5 4.0 -0.4 5.7 -3.5 7.3 C-6 8 -6 8 -9 8 C-6.0 5.4 -3.1 2.7 0 0 Z " fill="#413779" transform="translate(236,850)"/><path d="M0 0 C0.7 0.3 1.3 0.7 2 1 C-0.4 3.5 -1.7 4.9 -5 6 C-5.7 5.7 -6.3 5.3 -7 5 C-7 4.3 -7 3.7 -7 3 C-4.7 1.9 -2.4 0.9 0 0 Z " fill="#EBE8F3" transform="translate(511,1144)"/><path d="M0 0 C3 1 3 1 4.0 2.7 C4.2 3.4 4.5 4.1 4.8 4.9 C5.0 5.6 5.3 6.3 5.5 7.0 C6 9 6 9 5 12 C4.2 11 3.3 9.1 2.5 7.7 C1.8 6.5 1.8 6.5 1.1 5.3 C0 3 0 3 0 0 Z " fill="#EBE6F2" transform="translate(194,1121)"/><path d="M0 0 C2 3 2 3 1.8 5.2 C1.5 6.4 1.5 6.4 1.2 7.6 C1.1 8.4 0.9 9.2 0.7 10 C0 12 0 12 -2 13 C-1.9 11 -1.7 9.8 -1.6 8.2 C-1.5 7.3 -1.4 6.4 -1.3 5.5 C-1 3 -1 3 0 0 Z " fill="#E1DDEE" transform="translate(171,974)"/><path d="M0 0 C0.3 0 0.7 0 1 0 C1.3 2.3 1.3 2.3 1 5 C-1.2 6.7 -1.2 6.7 -4 8 C-5.3 8.7 -6.7 9.3 -8 10 C-7.0 8.7 -6.1 7.4 -5.1 6.1 C-4.6 5.4 -4.1 4.7 -3.5 3.9 C-2 2 -2 2 0 0 Z " fill="#443980" transform="translate(436,967)"/><path d="M0 0 C1.4 4.2 -0.2 6.1 -2 10 C-3.0 9.0 -4.0 8.0 -5 7 C-3.5 4.4 -2.2 2.2 0 0 Z " fill="#EEECF3" transform="translate(288,886)"/><path d="M0 0 C0.3 1.0 0.7 2.0 1 3 C-0.8 4.6 -0.8 4.6 -3 6 C-4.0 5.7 -5.0 5.3 -6 5 C-4.0 3.4 -2.0 1.7 0 0 Z M-8 6 C-7.3 6.3 -6.7 6.7 -6 7 C-7.0 7 -8.0 7 -9 7 C-8.7 6.7 -8.3 6.3 -8 6 Z " fill="#EAE6F4" transform="translate(513,1180)"/><path d="M0 0 C5.3 0 11 0 16 0 C16 0.7 16 1.3 16 2 C14 2.3 13 2.7 11 3 C11 2.7 11 2.3 11 2 C7.4 1.7 3.7 1.3 0 1 C0 0.7 0 0.3 0 0 Z " fill="#CAC5DF" transform="translate(397,995)"/><path d="M0 0 C2 1 2 1 2 1 Z M-1 1 C-0.7 1.7 -0.3 2.3 0 3 C1.0 3 2.0 3 3 3 C1.2 6.9 1.2 6.9 -1 8 C-0.7 6.7 -0.3 5.4 0 4 C-0.7 4 -1.3 4 -2 4 C-1.7 3.0 -1.3 2.0 -1 1 Z M-5 3 C-4.0 3.3 -3.0 3.7 -2 4 C-2.3 4.7 -2.7 5.3 -3 6 C-3.7 5.7 -4.3 5.3 -5 5 C-5 4.3 -5 3.7 -5 3 Z " fill="#403586" transform="translate(377,960)"/><path d="M0 0 C0.7 0 1.3 0 2 0 C1.2 1.9 1.2 1.9 0 4 C-2.1 4.8 -2.1 4.8 -4 5 C-2.7 3.3 -1.4 1.6 0 0 Z M-5 5 C-4.7 5.7 -4.3 6.3 -4 7 C-4.7 6.7 -5.3 6.3 -6 6 C-5.7 5.7 -5.3 5.3 -5 5 Z M-7 7 C-7 8.0 -7 9.0 -7 10 C-8.0 10 -8.0 10 -9 11 C-8.3 9.7 -7.7 8.4 -7 7 Z " fill="#FCFAFD" transform="translate(235,862)"/><path d="M0 0 C4.3 1.7 6.9 4.7 10 8 C9.7 8.7 9.3 9.3 9 10 C8.6 9.6 8.2 9.2 7.8 8.7 C7.3 8.2 6.7 7.6 6.2 7.1 C5.7 6.5 5.1 6.0 4.6 5.4 C2.9 3.8 2.9 3.8 0 3 C0 2.0 0 1.0 0 0 Z " fill="#F4F2FC" transform="translate(217,1170)"/><path d="M0 0 C0.7 0.3 1.3 0.7 2 1 C0.2 3.3 -1.2 4.8 -4.0 5.5 C-6.0 5.7 -8.0 5.9 -10 6 C-8.0 4.0 -6.5 3.1 -4 1.8 C-3.3 1.4 -2.6 1.1 -1.9 0.7 C-1.3 0.5 -0.6 0.2 0 0 Z " fill="#EAE6F6" transform="translate(449,1113)"/><path d="M0 0 C-5.0 3.0 -5.0 3.0 -10 6 C-9 2 -9 2 -6.7 0.2 C-4 -1 -4 -1 0 0 Z " fill="#F9F7FB" transform="translate(352,1115)"/><path d="M0 0 C0.7 0 1.3 0 2 0 C3.0 3.3 4.0 6.6 5 10 C4.0 10 4.0 10 3 11 C2.5 9.7 2.0 8.5 1.5 7.2 C1.2 6.5 0.9 5.8 0.7 5.0 C0 3 0 3 0 0 Z " fill="#EBE7F4" transform="translate(173,1101)"/><path d="M0 0 C-2.6 2.1 -5.2 4.1 -8 6 C-7.8 3.6 -7.8 3.6 -7 1 C-4.1 -1.1 -3.5 -1.2 0 0 Z " fill="#EAE7F2" transform="translate(243,1009)"/><path d="M0 0 C-0.3 1.3 -0.7 2.6 -1 4 C-2.6 4.3 -4.3 4.7 -6 5 C-6 4.3 -6 3.7 -6 3 C-6.7 2.3 -7.3 1.7 -8 1 C-5.2 0.4 -2.8 0 0 0 Z " fill="#544995" transform="translate(412,985)"/><path d="M0 0 C0.7 0.3 1.3 0.7 2 1 C-2.0 4.5 -2.0 4.5 -6 8 C-6.7 7.7 -7.3 7.3 -8 7 C-6.7 5 -6.7 5 -5 3 C-4.0 3 -3.0 3 -2 3 C-2 2.3 -2 1.7 -2 1 C-1.3 0.7 -0.7 0.3 0 0 Z " fill="#E9E6F2" transform="translate(231,852)"/><path d="M0 0 C4.6 0 9.2 0 14 0 C10 3 10 3 7 3 C7 2.3 7 1.7 7 1 C4.7 1 2.4 1 0 1 C0 0.7 0 0.3 0 0 Z " fill="#C7C2DD" transform="translate(309,1125)"/><path d="M0 0 C1 3 1 3 0.3 5.6 C-1 8 -1 8 -5 10 C-3.4 6.7 -1.7 3.4 0 0 Z " fill="#E4E1F1" transform="translate(561,1118)"/><path d="M0 0 C3.7 1.2 4.7 2.9 7 6 C3.0 6 1.2 4.3 -2 2 C-1.3 1.3 -0.7 0.7 0 0 Z " fill="#E9E5F1" transform="translate(359,1101)"/><path d="M0 0 C0.7 0.3 1.3 0.7 2 1 C1.6 3.9 1.2 4.8 -1.1 6.8 C-1.7 7.2 -2.3 7.6 -3 8 C-3 6.3 -3 4.7 -3 3 C-2.3 3 -1.7 3 -1 3 C-0.7 2.0 -0.3 1.0 0 0 Z " fill="#524A95" transform="translate(414,1064)"/><path d="M0 0 C0.3 1.3 0.7 2.6 1 4 C-2 6 -2 6 -6 6 C-4.6 3.2 -2.4 1.9 0 0 Z " fill="#554AA8" transform="translate(341,1028)"/><path d="M0 0 C2.6 3.2 4.9 6.4 7 10 C5.1 9.3 5.1 9.3 3 8 C2.3 6.4 1.6 4.7 1 3 C0.3 2.7 -0.3 2.3 -1 2 C-0.7 1.3 -0.3 0.7 0 0 Z " fill="#E5E3F2" transform="translate(196,1143)"/><path d="M0 0 C0.7 0 1.3 0 2 0 C1.5 3.8 0.5 6.1 -2 9 C-3 6 -3 6 -1.6 2.8 C-1.0 1.9 -0.5 1.0 0 0 Z " fill="#E3DFEE" transform="translate(565,1109)"/><path d="M0 0 C2.3 3.6 2.2 6.8 2 11 C-1.0 8.0 -0.7 5.2 -1 1 C-0.7 0.7 -0.3 0.3 0 0 Z " fill="#FBF9FB" transform="translate(368,1110)"/><path d="M0 0 C1.0 0 2.0 0 3 0 C3.3 1.3 3.7 2.6 4 4 C2.1 5.1 2.1 5.1 0 6 C-0.7 5.7 -1.3 5.3 -2 5 C-1.3 3.4 -0.7 1.7 0 0 Z " fill="#463A93" transform="translate(443,1079)"/><path d="M0 0 C2 1 2 1 2.8 3.2 C3.0 6.7 2.0 8.2 0 11 C-1.1 7.7 -0.8 6.4 0 3 C0 2.0 0 1.0 0 0 Z " fill="#FCFAFC" transform="translate(269,994)"/><path d="M0 0 C4.1 0.6 7.3 2.0 11 4 C8 5 8 5 6.0 4.2 C5.2 3.8 4.5 3.5 3.8 3.1 C3.1 2.7 2.4 2.3 1.6 1.9 C1.1 1.6 0.6 1.3 0 1 C0 0.7 0 0.3 0 0 Z " fill="#443E7D" transform="translate(383,1142)"/><path d="M0 0 C2.2 3.3 3.0 6.2 4 10 C3.3 10 2.7 10 2 10 C-1.1 3.4 -1.1 3.4 0 0 Z " fill="#EBE7F5" transform="translate(169,1088)"/><path d="M0 0 C0.7 0.3 1.3 0.7 2 1 C1.7 2.0 1.3 3.0 1 4 C0.3 4 -0.3 4 -1 4 C-1.3 5.0 -1.7 6.0 -2 7 C-2.7 6.0 -3.3 5.0 -4 4 C-3 2 -3 2 0 0 Z " fill="#55489F" transform="translate(434,1084)"/><path d="M0 0 C0.7 0 1.3 0 2 0 C2.7 3.0 3.3 5.9 4 9 C3.3 9 2.7 9 2 9 C1.3 6.0 0.7 3.1 0 0 Z " fill="#524887" transform="translate(379,1040)"/><path d="M0 0 C5.8 1.8 5.8 1.8 8 4 C5 5 5 5 1.8 3.6 C0.9 3.0 -0.0 2.5 -1 2 C-0.7 1.3 -0.3 0.7 0 0 Z " fill="#EFECF5" transform="translate(317,1043)"/><path d="M0 0 C0.7 0 1.3 0 2 0 C5.1 5.5 5.1 5.5 4.6 8.2 C4.4 8.8 4.2 9.4 4 10 C3.3 8.7 2.7 7.4 2 6.1 C1.6 5.4 1.3 4.7 0.9 3.9 C0 2 0 2 0 0 Z " fill="#E8E5F2" transform="translate(372,1021)"/><path d="M0 0 C-2.9 2.5 -5.2 3.5 -9 4 C-9 3.3 -9 2.7 -9 2 C-8.0 2 -7.0 2 -6 2 C-6 1.3 -6 0.7 -6 0 C-3 -1 -3 -1 0 0 Z " fill="#EEEAF7" transform="translate(420,981)"/><path d="M0 0 C0.7 0.7 1.3 1.3 2 2 C1.6 5.1 1.6 5.1 1 8 C0.3 8 -0.3 8 -1 8 C-1.3 9.0 -1.7 10.0 -2 11 C-1 3.6 -1 3.6 0 0 Z " fill="#E3DDEF" transform="translate(174,961)"/><path d="M0 0 C1.1 3.4 0.9 4.0 -0.4 7.2 C-0.9 8.3 -0.9 8.3 -1.3 9.4 C-1.5 9.9 -1.8 10 -2 11 C-2.3 11 -2.7 11 -3 11 C-3 8.7 -3 6.4 -3 4 C-2.3 4 -1.7 4 -1 4 C-0.7 2.7 -0.3 1.4 0 0 Z " fill="#41377A" transform="translate(178,945)"/><path d="M0 0 C0.3 1.0 0.7 2.0 1 3 C-0.9 6.2 -0.9 6.2 -3 9 C-3.7 8.3 -4.3 7.7 -5 7 C-1.1 1.1 -1.1 1.1 0 0 Z " fill="#EAE8F2" transform="translate(196,890)"/><path d="M0 0 C3.1 0.5 6.0 1.0 9 2 C8.7 3.0 8.3 4.0 8 5 C5.0 4.0 2.1 3.0 -1 2 C-0.7 1.3 -0.3 0.7 0 0 Z " fill="#E7E3F1" transform="translate(386,801)"/><path d="M0 0 C2.0 0 4.0 0 6 0 C6.3 0.7 6.7 1.3 7 2 C4.4 2.3 1.7 2.7 -1 3 C-0.7 2.0 -0.3 1.0 0 0 Z " fill="#EDE6F5" transform="translate(409,1217)"/><path d="M0 0 C1.3 0.7 2.6 1.3 4 2 C2.4 3.6 0.7 5.3 -1 7 C-1.7 6.7 -2.3 6.3 -3 6 C-2 4 -1 2 0 0 Z " fill="#423881" transform="translate(510,1177)"/><path d="M0 0 C0.3 0.7 0.7 1.3 1 2 C1.7 2 2.3 2 3 2 C3 2.7 3 3.3 3 4 C2.3 4 1.7 4 1 4 C0.7 4.7 0.3 5.3 0 6 C-0.3 5.3 -0.7 4.7 -1 4 C-2.0 4 -3.0 4 -4 4 C-4 3.3 -4 2.7 -4 2 C-2.7 1.3 -1.4 0.7 0 0 Z " fill="#ECE9ED" transform="translate(423,1102)"/><path d="M0 0 C0.5 0.4 1.0 0.8 1.6 1.2 C-5.9 3.6 -5.9 3.6 -9.4 2.2 C-3.0 -1.0 -3.0 -1.0 0 0 Z " fill="#E8E5F4" transform="translate(449.4375,1075.8125)"/><path d="M0 0 C0.7 1.0 1.3 2.0 2 3 C0.0 6.0 0.0 6.0 -2 9 C-3.0 5.9 -3.1 5.0 -2 2 C-1.3 1.3 -0.7 0.7 0 0 Z " fill="#EAE6F0" transform="translate(376,951)"/><path d="M0 0 C0.7 1.0 1.3 2.0 2 3 C-1.0 5.5 -1.0 5.5 -4 8 C-2.9 5.0 -1.8 2.7 0 0 Z " fill="#473E7E" transform="translate(192,899)"/><path d="M0 0 C0 0.7 0 1.3 0 2 C-3.5 3.5 -3.5 3.5 -7 5 C-7 4.0 -7 3.0 -7 2 C-4 0 -4 0 0 0 Z " fill="#ECEAF3" transform="translate(273,825)"/><path d="M0 0 C0.9 0.1 1.9 0.2 2.8 0.2 C1.8 2.2 1.8 2.2 -0.0 2.9 C-0.8 3.0 -1.5 3.2 -2.2 3.4 C-3.4 3.6 -3.4 3.6 -4.5 3.9 C-5.0 4.0 -5.6 4.1 -6.2 4.2 C-4.4 1.0 -3.8 0.3 0 0 Z " fill="#F9F8F9" transform="translate(449.1875,1218.75)"/><path d="M0 0 C0 0.7 0 1.3 0 2 C-3.0 1.7 -5.9 1.3 -9 1 C-4.8 -1.1 -4.2 -1.2 0 0 Z " fill="#E3DFED" transform="translate(338,1218)"/><path d="M0 0 C4.9 4.8 4.9 4.8 6 7 C4.3 6.7 2.7 6.3 1 6 C1 5.0 1 4.0 1 3 C0.3 2.7 -0.3 2.3 -1 2 C-0.7 1.3 -0.3 0.7 0 0 Z " fill="#E9E5F3" transform="translate(362,1127)"/><path d="M0 0 C0.3 0.7 0.7 1.3 1 2 C-0.4 4.6 -0.4 4.6 -2 7 C-3.0 6.7 -4.0 6.3 -5 6 C-3.4 4.0 -1.7 2.0 0 0 Z " fill="#EAE5F4" transform="translate(345,1072)"/><path d="M0 0 C1.0 0.3 2.0 0.7 3 1 C3.7 3.1 3.7 3.1 4 5 C2.4 4.7 0.7 4.3 -1 4 C-1.3 3.0 -1.7 2.0 -2 1 C-1.3 0.7 -0.7 0.3 0 0 Z " fill="#50449D" transform="translate(257,1049)"/><path d="M0 0 C0.7 0 1.3 0 2 0 C2 1.0 2 2.0 2 3 C2.7 3.3 3.3 3.7 4 4 C3.0 5.0 2.0 6.0 1 7 C0.0 5.7 -1.0 4.4 -2 3 C-1.3 3 -0.7 3 0 3 C0 2.0 0 1.0 0 0 Z " fill="#4F409B" transform="translate(377,1044)"/><path d="M0 0 C0.7 0.7 1.3 1.3 2 2 C1.3 2 0.7 2 0 2 C0 2.7 0 3.3 0 4 C-2.0 5.0 -4.0 6.0 -6 7 C-4.6 3.6 -3.0 2.0 0 0 Z " fill="#FCFBFC" transform="translate(351,1026)"/><path d="M0 0 C1.4 2.6 2.4 5.1 3 8 C1.7 7.3 0.4 6.7 -1 6 C-0.7 4.0 -0.3 2.0 0 0 Z " fill="#ECE7F3" transform="translate(284,1007)"/><path d="M0 0 C1.3 0.3 2.6 0.7 4 1 C4 2.0 4 3.0 4 4 C4.7 4 5.3 4 6 4 C5.7 5.0 5.3 6.0 5 7 C3.3 5.4 1.6 3.7 0 2 C0 1.3 0 0.7 0 0 Z " fill="#E8E6F2" transform="translate(355,997)"/><path d="M0 0 C1.0 0.7 2.0 1.3 3 2 C3.2 4.6 3.2 4.6 3 7 C2.3 7 1.7 7 1 7 C0.9 6.4 0.8 5.8 0.7 5.1 C0.1 2.6 0.1 2.6 -3 1 C-2.0 0.7 -1.0 0.3 0 0 Z " fill="#FCF8FC" transform="translate(446,955)"/></svg> 