<?xml version="1.0" encoding="UTF-8"?><svg xmlns="http://www.w3.org/2000/svg" viewBox="747 1367 757 773"><path d="M0 0 C7.8 4.7 12 11 14 20 C18 34 18 50 13 65 C10.0 68 8.4 69 4.6 71 C-2.5 71 -2.5 71 -5.4 70 C-5.5 72 -5.6 74 -5.7 76 C-5.7 77 -5.7 78 -5.8 79 C-5.3 83 -4.0 85 -1.4 89 C-0.7 90 -0.0 91 0.7 92 C1.4 93 2.2 94 2.9 95 C16 113 16 113 17 125 C17 131 19 137 22 143 C22 144 23 144 23 145 C28 155 32 161 41 167 C43 168 45 169 46 170 C47 171 48 171 49 172 C52 174 54 175 57 177 C61 180 65 183 70 185 C71 185 72 186 74 187 C74 187 75 187 76 188 C78 189 80 190 82 191 C83 191 83 191 84 192 C90 195 94 201 97 208 C97 213 96 216 93 221 C90 223 90 223 87 223 C79 223 74 219 69 214 C68 213 68 212 67 212 C58 203 47 199 35 195 C25 192 16 188 11 180 C9.7 186 9.4 192 9.2 199 C8.9 206 8.6 213 7.0 220 C5.6 230 7.3 235 13 243 C26 265 36 288 45 312 C45 312 45 313 45 314 C48 322 50 330 51 339 C54 355 58 369 63 384 C64 387 66 390 67 393 C69 400 72 408 75 415 C76 416 76 417 77 418 C80 422 83 423 88 424 C92 425 96 425 100 425 C101 425 102 425 103 425 C104 425 104 425 105 425 C106 425 107 425 107 425 C110 425 112 424 114 424 C115 423 117 423 119 423 C120 423 120 423 121 423 C124 424 124 424 125 425 C127 427 127 429 126 432 C124 438 120 442 114 445 C109 448 102 449 96 451 C89 453 84 456 78 460 C74 462 71 462 67 462 C61 459 59 455 57 450 C56 446 55 443 54 440 C50 428 44 420 36 410 C21 391 12 372 10 348 C9.7 339 7.7 333 1.6 327 C1.1 326 0.6 326 0.1 325 C-3.2 322 -6.7 318 -10 315 C-14 311 -18 306 -22 302 C-23 299 -23 299 -25 298 C-26 298 -26 299 -26 299 C-33 318 -40 332 -53 347 C-54 347 -55 348 -55 349 C-60 354 -65 357 -70 361 C-80 369 -89 378 -98 387 C-99 388 -99 388 -100 389 C-105 394 -109 398 -113 403 C-114 404 -115 405 -116 407 C-119 410 -121 413 -121 417 C-121 426 -119 438 -114 445 C-113 445 -113 445 -111 446 C-107 447 -105 449 -102 453 C-102 456 -102 458 -103 460 C-106 462 -110 462 -113 462 C-114 462 -114 462 -115 462 C-123 462 -129 461 -135 455 C-137 452 -140 449 -142 445 C-145 439 -149 436 -155 431 C-158 428 -161 424 -162 418 C-161 411 -155 407 -150 403 C-138 392 -132 379 -125 365 C-117 348 -107 335 -91 325 C-84 321 -81 316 -78 308 C-78 303 -77 299 -76 295 C-74 282 -70 270 -66 257 C-65 252 -64 249 -66 244 C-71 228 -67 216 -61 202 C-56 192 -55 184 -55 174 C-55 173 -55 172 -55 171 C-55 165 -56 159 -57 153 C-57 150 -57 148 -57 146 C-59 147 -61 148 -63 150 C-64 150 -65 151 -66 152 C-71 157 -74 160 -75 168 C-78 182 -85 196 -91 209 C-93 214 -94 216 -93 221 C-93 222 -93 223 -93 224 C-93 227 -93 229 -93 231 C-93 238 -94 243 -95 250 C-97 250 -98 250 -99 250 C-100 248 -100 247 -100 246 C-101 246 -102 246 -102 246 C-103 246 -103 247 -103 248 C-104 261 -104 261 -108 266 C-114 265 -116 263 -120 260 C-125 252 -125 245 -124 237 C-123 232 -122 228 -119 224 C-117 218 -116 213 -115 207 C-115 206 -114 205 -114 204 C-114 201 -113 199 -113 196 C-111 184 -109 173 -107 162 C-107 161 -107 161 -106 159 C-103 148 -97 139 -91 129 C-88 125 -85 120 -82 116 C-81 115 -81 115 -80 114 C-78 110 -76 107 -74 103 C-67 92 -60 82 -49 75 C-44 72 -42 68 -40 64 C-40 56 -42 49 -46 42 C-49 34 -50 25 -47 16 C-44 7.8 -36 1.3 -28 -2.4 C-18 -5.3 -8.9 -4.3 0 0 Z " fill="#EDA284" transform="translate(1038.40625,1430.453125)"/><path d="M0 0 C7.8 4.7 12 11 14 20 C18 34 18 50 13 65 C10.0 68 8.4 69 4.6 71 C-2.5 71 -2.5 71 -5.4 70 C-5.5 72 -5.6 74 -5.7 76 C-5.7 77 -5.7 78 -5.8 79 C-5.3 83 -4.0 85 -1.4 89 C-0.7 90 -0.0 91 0.7 92 C1.4 93 2.2 94 2.9 95 C16 113 16 113 17 125 C17 131 19 137 22 143 C22 144 23 144 23 145 C28 155 32 161 41 167 C43 168 45 169 46 170 C47 171 48 171 49 172 C52 174 54 175 57 177 C61 180 65 183 70 185 C71 185 72 186 74 187 C74 187 75 187 76 188 C78 189 80 190 82 191 C83 191 83 191 84 192 C90 195 94 201 97 208 C97 213 96 216 93 221 C90 223 90 223 87 223 C79 223 74 219 69 214 C68 213 68 212 67 212 C58 203 47 199 35 195 C25 192 16 188 11 180 C9.7 186 9.4 192 9.2 199 C8.9 206 8.6 213 7.0 220 C5.6 230 7.3 235 13 243 C26 265 36 288 45 312 C45 312 45 313 45 314 C48 322 50 330 51 339 C54 355 58 369 63 384 C64 387 66 390 67 393 C69 400 72 408 75 415 C76 416 76 417 77 418 C80 422 83 423 88 424 C92 425 96 425 100 425 C101 425 102 425 103 425 C104 425 104 425 105 425 C106 425 107 425 107 425 C110 425 112 424 114 424 C115 423 117 423 119 423 C120 423 120 423 121 423 C124 424 124 424 125 425 C127 427 127 429 126 432 C124 438 120 442 114 445 C109 448 102 449 96 451 C89 453 84 456 78 460 C74 462 71 462 67 462 C61 459 59 455 57 450 C56 446 55 443 54 440 C50 428 44 420 36 410 C21 391 12 372 10 348 C9.7 339 7.7 333 1.6 327 C1.1 326 0.6 326 0.1 325 C-3.2 322 -6.7 318 -10 315 C-14 311 -18 306 -22 302 C-23 299 -23 299 -25 298 C-26 298 -26 299 -26 299 C-33 318 -40 332 -53 347 C-54 347 -55 348 -55 349 C-60 354 -65 357 -70 361 C-80 369 -89 378 -98 387 C-99 388 -99 388 -100 389 C-105 394 -109 398 -113 403 C-114 404 -115 405 -116 407 C-119 410 -121 413 -121 417 C-121 426 -119 438 -114 445 C-113 445 -113 445 -111 446 C-107 447 -105 449 -102 453 C-102 456 -102 458 -103 460 C-106 462 -110 462 -113 462 C-114 462 -114 462 -115 462 C-123 462 -129 461 -135 455 C-137 452 -140 449 -142 445 C-145 439 -149 436 -155 431 C-158 428 -161 424 -162 418 C-161 411 -155 407 -150 403 C-138 392 -132 379 -125 365 C-117 348 -107 335 -91 325 C-84 321 -81 316 -78 308 C-78 303 -77 299 -76 295 C-74 282 -70 270 -66 257 C-65 252 -64 249 -66 244 C-71 228 -67 216 -61 202 C-56 192 -55 184 -55 174 C-55 173 -55 172 -55 171 C-55 165 -56 159 -57 153 C-57 150 -57 148 -57 146 C-59 147 -61 148 -63 150 C-64 150 -65 151 -66 152 C-71 157 -74 160 -75 168 C-78 182 -85 196 -91 209 C-93 214 -94 216 -93 221 C-93 222 -93 223 -93 224 C-93 227 -93 229 -93 231 C-93 238 -94 243 -95 250 C-97 250 -98 250 -99 250 C-100 248 -100 247 -100 246 C-101 246 -102 246 -102 246 C-103 246 -103 247 -103 248 C-104 261 -104 261 -108 266 C-114 265 -116 263 -120 260 C-125 252 -125 245 -124 237 C-123 232 -122 228 -119 224 C-117 218 -116 213 -115 207 C-115 206 -114 205 -114 204 C-114 201 -113 199 -113 196 C-111 184 -109 173 -107 162 C-107 161 -107 161 -106 159 C-103 148 -97 139 -91 129 C-88 125 -85 120 -82 116 C-81 115 -81 115 -80 114 C-78 110 -76 107 -74 103 C-67 92 -60 82 -49 75 C-44 72 -42 68 -40 64 C-40 56 -42 49 -46 42 C-49 34 -50 25 -47 16 C-44 7.8 -36 1.3 -28 -2.4 C-18 -5.3 -8.9 -4.3 0 0 Z M-39 14 C-42 20 -43 27 -41 34 C-40 38 -38 43 -36 47 C-33 53 -32 60 -34 67 C-35 70 -38 73 -40 77 C-40 77 -40 78 -40 79 C-39 79 -39 79 -37 80 C-38 80 -39 80 -39 80 C-54 85 -61 95 -68 107 C-70 111 -73 115 -75 119 C-76 120 -76 121 -77 122 C-80 127 -84 132 -87 137 C-99 154 -102 170 -105 189 C-108 204 -110 218 -116 231 C-119 239 -119 245 -116 253 C-115 255 -115 255 -113 258 C-113 258 -112 258 -111 258 C-111 256 -111 255 -110 254 C-110 253 -109 251 -109 250 C-108 249 -108 248 -108 247 C-106 242 -106 242 -103 240 C-102 240 -101 240 -99 240 C-99 239 -99 238 -100 237 C-100 222 -99 210 -93 195 C-90 191 -89 186 -87 181 C-86 180 -86 179 -85 178 C-83 173 -82 169 -81 163 C-79 153 -70 147 -63 141 C-55 133 -48 125 -41 117 C-41 116 -41 115 -41 115 C-40 114 -38 114 -36 114 C-38 118 -39 121 -42 125 C-42 126 -43 127 -44 128 C-45 130 -47 132 -49 134 C-51 136 -51 137 -52 140 C-51 145 -51 149 -50 153 C-47 171 -46 188 -54 205 C-55 207 -56 209 -57 211 C-58 212 -58 213 -58 214 C-62 223 -62 235 -59 244 C-54 254 -48 260 -40 268 C-32 275 -26 283 -19 292 C-14 299 -7.4 306 -0.9 313 C0.3 314 1.6 315 2.8 317 C4.0 318 5.2 319 6.4 320 C15 329 17 338 18 350 C19 359 20 367 24 376 C24 377 24 378 25 379 C29 387 34 394 39 401 C50 414 57 427 61 443 C62 444 62 445 62 446 C62 447 62 447 63 448 C64 451 65 453 67 455 C72 454 76 452 81 450 C88 446 94 444 101 442 C108 441 115 438 120 433 C120 432 120 431 120 430 C118 430 118 430 116 430 C101 432 85 433 73 424 C70 419 68 414 66 410 C65 409 65 408 65 407 C55 386 48 363 44 340 C44 339 44 339 43 338 C43 336 43 334 42 332 C40 321 36 311 32 300 C32 299 32 299 31 298 C24 280 15 262 5.8 244 C5.2 243 4.6 242 4.0 241 C1.6 236 -0.9 231 -3.6 227 C-4.0 226 -4.4 225 -4.8 225 C-5.8 223 -6.9 221 -7.9 220 C-9.4 217 -9.4 217 -9.4 213 C-8.7 213 -8.1 213 -7.4 213 C-5.7 215 -4.3 218 -2.8 220 C-2.4 221 -1.9 222 -1.4 223 C-0.7 223 -0.1 223 0.6 223 C1.4 216 1.8 209 2.2 203 C3.0 187 4.7 172 7.1 156 C9.7 140 12 126 4.6 111 C4.2 110 3.8 109 3.5 108 C0.7 102 -2.7 97 -6.4 91 C-10 85 -10 82 -10.0 75 C-9.8 70 -9.8 70 -12 65 C-14 64 -14 64 -17 63 C-18 62 -18 62 -19 59 C-18 59 -17 59 -16 60 C-15 60 -13 61 -12 61 C-11 61 -11 62 -9.8 62 C-4.8 63 -0.6 64 4.6 64 C11 57 9.9 46 9.9 38 C9.9 37 9.9 36 10.0 35 C10.0 26 8.4 18 2.6 11 C-2.6 5.5 -9.1 2.4 -16 2.0 C-25 2.5 -33 7.2 -39 14 Z " fill="#BD512E" transform="translate(1038.40625,1430.453125)"/><path d="M0 0 C7.8 4.7 12 11 14 20 C18 34 18 50 13 65 C10.0 68 8.4 69 4.6 71 C-2.5 71 -2.5 71 -5.4 70 C-5.5 72 -5.6 74 -5.7 76 C-5.7 77 -5.7 78 -5.8 79 C-5.3 83 -4.0 85 -1.4 89 C-0.7 90 -0.0 91 0.7 92 C1.4 93 2.2 94 2.9 95 C16 113 16 113 17 125 C17 131 19 137 22 143 C22 144 23 144 23 145 C28 155 32 161 41 167 C43 168 45 169 46 170 C47 171 48 171 49 172 C52 174 54 175 57 177 C61 180 65 183 70 185 C71 185 72 186 74 187 C74 187 75 187 76 188 C78 189 80 190 82 191 C83 191 83 191 84 192 C90 195 94 201 97 208 C97 213 96 216 93 221 C90 223 90 223 87 223 C79 223 74 219 69 214 C68 213 68 212 67 212 C58 203 47 199 35 195 C25 192 16 188 11 180 C9.9 181 9.3 182 8.6 184 C7.3 183 6.0 182 4.6 182 C4.3 189 3.9 196 3.6 204 C3.3 204 2.9 204 2.6 204 C2.0 188 3.6 172 6.1 157 C8.7 140 11 126 3.6 111 C3.2 110 2.8 109 2.5 108 C-0.3 102 -3.7 97 -7.4 91 C-12 84 -11 79 -11 71 C-11 67 -11 67 -14 65 C-15 65 -16 64 -17 64 C-18 63 -19 62 -19 62 C-19 61 -19 60 -19 59 C-16 59 -12 60 -8.5 61 C-4.0 63 -0.2 63 4.6 63 C5.1 62 5.5 60 6.0 59 C6.3 59 6.6 58 6.8 58 C9.1 51 8.8 45 8.8 38 C8.9 37 8.9 36 8.9 35 C9.0 26 7.6 18 1.6 11 C-1.0 8.6 -3.6 7.1 -6.4 5.5 C-7.6 4.9 -7.6 4.9 -8.8 4.2 C-16 2.4 -22 3.1 -28 6.4 C-34 9.8 -38 14 -40 21 C-42 30 -39 38 -35 47 C-32 54 -31 61 -34 68 C-36 72 -38 75 -40 79 C-38 79 -36 79 -34 79 C-37 80 -39 81 -43 82 C-55 87 -60 97 -67 107 C-69 111 -72 115 -74 119 C-75 120 -75 121 -76 122 C-79 127 -83 132 -86 137 C-98 154 -101 170 -104 189 C-107 204 -109 218 -115 231 C-118 240 -118 246 -114 255 C-114 256 -114 256 -113 258 C-113 258 -112 258 -111 258 C-111 257 -111 256 -111 255 C-108 244 -108 244 -104 240 C-102 239 -102 239 -100 239 C-100 238 -100 237 -101 237 C-101 221 -100 209 -94 195 C-91 191 -90 186 -88 181 C-87 180 -87 180 -86 178 C-84 173 -83 169 -82 163 C-80 153 -71 147 -63 140 C-56 134 -49 126 -44 118 C-41 115 -41 115 -39 114 C-38 114 -37 114 -36 114 C-36 118 -37 121 -40 124 C-41 125 -41 127 -42 128 C-44 130 -46 132 -48 134 C-50 136 -50 137 -51 140 C-50 145 -50 149 -49 153 C-46 171 -45 188 -53 205 C-54 207 -55 209 -56 211 C-57 212 -57 213 -57 214 C-59 219 -60 223 -60 227 C-60 229 -60 229 -60 231 C-60 232 -60 233 -60 234 C-61 234 -61 234 -61 234 C-61 228 -61 223 -61 218 C-62 219 -63 220 -64 222 C-65 222 -66 222 -66 222 C-66 234 -66 234 -63 246 C-62 248 -62 251 -62 254 C-69 241 -70 229 -66 215 C-65 211 -63 206 -61 202 C-56 192 -55 184 -55 174 C-55 173 -55 172 -55 171 C-55 165 -56 159 -57 153 C-57 150 -57 148 -57 146 C-59 147 -61 148 -63 150 C-64 150 -65 151 -66 152 C-71 157 -74 160 -75 168 C-78 182 -85 196 -91 209 C-93 214 -94 216 -93 221 C-93 222 -93 223 -93 224 C-93 227 -93 229 -93 231 C-93 238 -94 243 -95 250 C-97 250 -98 250 -99 250 C-100 248 -100 248 -100 246 C-101 246 -102 246 -102 246 C-103 246 -103 247 -103 248 C-104 261 -104 261 -108 266 C-114 265 -116 263 -120 260 C-125 252 -125 245 -124 237 C-123 232 -122 228 -119 224 C-117 218 -116 213 -115 207 C-115 206 -114 205 -114 204 C-114 201 -113 199 -113 196 C-111 184 -109 173 -107 162 C-107 161 -106 160 -106 159 C-103 148 -97 139 -91 129 C-88 125 -85 120 -82 116 C-81 115 -81 115 -80 114 C-78 110 -76 107 -74 103 C-67 92 -60 82 -49 75 C-44 72 -42 68 -40 64 C-40 56 -42 49 -46 42 C-49 34 -50 25 -47 16 C-44 7.8 -36 1.3 -28 -2.4 C-18 -5.3 -8.9 -4.3 0 0 Z " fill="#B95332" transform="translate(1038.40625,1430.453125)"/><path d="M0 0 C0.6 0.6 1.3 1.3 1.9 1.9 C2.4 2.4 2.8 2.8 3.3 3.3 C4.6 4.6 5.9 6.0 7.3 7.3 C8.1 8.1 8.9 8.9 9.7 9.8 C10 11 11 11 12 12 C14 14 14 14 16 15 C16 16 16 16 16 17 C17 17 17 17 18 18 C21 19 23 22 25 25 C26 25 26 26 27 26 C28 28 28 28 30 31 C30 34 28 37 27 40 C26 41 26 41 26 43 C21 54 16 65 8 75 C7.4 76 6.7 77 6.1 78 C1.1 83 -4.6 88 -11 92 C-21 100 -29 108 -38 117 C-39 118 -40 119 -41 120 C-49 128 -56 136 -63 146 C-64 147 -64 148 -65 149 C-69 156 -69 164 -67 171 C-67 173 -66 175 -66 176 C-66 177 -65 178 -65 179 C-64 184 -62 188 -58 192 C-56 193 -56 193 -53 194 C-52 194 -52 194 -51 195 C-50 195 -50 195 -49 195 C-49 196 -49 196 -49 197 C-64 198 -64 198 -69 194 C-71 192 -73 189 -75 186 C-80 179 -85 173 -92 167 C-94 164 -94 164 -94 160 C-94 157 -94 157 -92 155 C-90 153 -90 153 -88 153 C-88 152 -88 152 -88 151 C-87 150 -86 149 -85 148 C-73 138 -66 124 -59 110 C-57 104 -54 98 -50 93 C-49 92 -49 91 -48 91 C-43 83 -35 78 -27 72 C-14 63 -12 52 -9.1 37 C-8.7 35 -8.4 34 -8.1 32 C-7.9 31 -7.7 30 -7.6 29 C-6.3 23 -4.7 17 -2.9 11 C-1.8 7.3 -0.9 3.7 0 0 Z " fill="#EEA285" transform="translate(979,1689)"/><path d="M0 0 C0.1 0.9 0.1 0.9 0.2 1.9 C0.5 2.6 0.7 3.3 1 4 C1.6 4.3 2.3 4.5 2.9 4.8 C5 6 5 6 6.1 8.9 C7.4 14 7.3 19 7.2 24 C7.2 26 7.2 26 7.2 27 C6.9 49 6.9 49 2.6 54 C-1.9 58 -5.5 57 -11 57 C-12 57 -12 56 -13 56 C-13 58 -13 60 -13 62 C-13 64 -13 64 -13 66 C-13 70 -12 72 -9 75 C-8.3 76 -7.6 77 -6.9 78 C-6.2 79 -5.4 80 -4.7 81 C8.5 100 8.5 100 9.1 111 C9.5 118 11 123 14 129 C15 130 15 131 15 132 C20 142 25 147 34 153 C35 154 37 155 39 156 C40 157 41 158 41 158 C44 160 47 162 49 164 C53 167 58 169 62 171 C63 172 65 172 66 173 C67 173 67 174 68 174 C70 175 72 176 74 177 C75 177 76 178 76 178 C83 181 87 187 89 194 C90 200 89 203 85 207 C83 209 82 209 79 210 C72 209 67 206 62 201 C60 199 60 199 59 198 C50 189 39 186 27 182 C18 178 8.8 175 3 166 C2.0 168 2.0 168 1 170 C-0.3 169 -1.6 169 -3 168 C-3.3 175 -3.7 183 -4 190 C-4.3 190 -4.7 190 -5 190 C-5.6 174 -4.0 159 -1.5 143 C1.1 127 3.2 112 -4 97 C-4.4 96 -4.7 95 -5.1 94 C-7.9 89 -11 83 -15 78 C-20 71 -19 66 -18 58 C-19 54 -19 54 -22 52 C-23 51 -24 51 -25 50 C-26 49 -26 49 -27 48 C-27 47 -27 46 -27 45 C-23 45 -20 46 -16 48 C-12 49 -7.8 49 -3 49 C-2.5 48 -2.1 47 -1.6 46 C-1.3 45 -1.0 45 -0.8 44 C1.5 38 1.2 31 1.2 25 C1.2 23 1.2 23 1.2 22 C1.2 16 0.6 10 -0.7 4.2 C-1 2 -1 2 0 0 Z " fill="#BD522F" transform="translate(1046,1444)"/><path d="M0 0 C2 2 2 2 2.1 4.2 C1.5 12 0.4 20 -0.9 28 C-1.0 29 -1.2 30 -1.4 31 C-1.5 32 -1.7 33 -1.9 34 C-2.0 35 -2.2 36 -2.3 37 C-3.1 39 -4.2 41 -6 43 C-8.0 43 -8.0 43 -10 42 C-10 34 -9.9 26 -9 18 C-9.8 19 -11 20 -11 21 C-25 36 -48 59 -70 61 C-72 61 -72 61 -73 60 C-73 58 -73 56 -73 54 C-72 54 -71 53 -70 53 C-48 43 -32 29 -15 12 C-16 12 -16 12 -18 13 C-19 13 -20 14 -21 14 C-22 14 -23 15 -25 15 C-30 17 -34 17 -40 17 C-40 15 -40 15 -39 12 C-36 10 -33 9.5 -30 8.5 C-29 8.2 -29 7.9 -28 7.6 C-26 7.0 -24 6.4 -22 5.8 C-20 5.1 -18 4.3 -16 3.4 C-15 3.0 -13 2.5 -12 2.1 C-11 1.7 -10 1.3 -9.0 0.8 C-5.8 -0.1 -3.3 -0.3 0 0 Z " fill="#BE5533" transform="translate(1244,1802)"/><path d="M0 0 C2.8 3.6 4.2 7.0 5.7 11 C9.1 18 15 22 21 27 C22 27 22 28 23 29 C35 37 47 44 61 50 C72 55 72 55 75 61 C76 65 77 68 75 71 C72 73 70 72 67 71 C64 69 62 66 59 64 C57 62 55 61 53 59 C52 58 51 57 50 56 C42 50 31 47 21 43 C14 41 8.2 38 2 34 C1.0 33 -0.1 33 -1.1 32 C-3.5 29 -3.2 28 -3.2 24 C-2.9 20 -2.2 15 -1.5 10 C-1.4 9.5 -1.2 8.5 -1.1 7.4 C-0.7 5.0 -0.4 2.5 0 0 Z " fill="#EF9C7C" transform="translate(1053,1575)"/><path d="M0 0 C5.9 -0.3 10 0.5 16 2.6 C17 2.9 17 3.2 18 3.5 C25 6.3 32 9.1 39 12 C80 29 80 29 123 38 C125 39 127 40 129 42 C129 45 129 45 129 47 C123 47 117 47 111 46 C110 45 110 45 108 45 C87 40 66 32 45 24 C44 24 44 23 43 23 C2.1 7.1 2.1 7.1 0 5 C-0.0 3.3 -0.0 1.7 0 0 Z " fill="#BC5632" transform="translate(950,1817)"/><path d="M0 0 C0.9 -0.0 1.9 -0.0 2.8 -0.0 C4.2 -0.0 4.2 -0.0 5.5 -0.0 C6.3 -0.0 7.1 -0.1 7.9 -0.1 C10 0.2 12 1.0 14 2.2 C14 3.8 14 5.5 13 7.2 C12 7.2 12 7.2 11 7.2 C-8.0 7.7 -8.0 7.7 -27 10 C-28 10 -28 10 -30 11 C-46 14 -62 22 -75 33 C-77 34 -77 34 -81 34 C-77 24 -66 18 -57 13 C-39 4.2 -20 0.0 0 0 Z " fill="#B65837" transform="translate(883.8125,1802.8125)"/><path d="M0 0 C0.1 0.9 0.1 0.9 0.2 1.9 C0.5 2.6 0.7 3.3 1 4 C1.6 4.3 2.3 4.5 2.9 4.8 C5 6 5 6 6.1 8.9 C7.4 14 7.3 19 7.2 24 C7.2 26 7.2 26 7.2 27 C6.9 49 6.9 49 2.6 54 C-1.9 58 -5.5 57 -11 57 C-12 57 -12 56 -13 56 C-13 58 -13 60 -14 63 C-14 64 -14 64 -14 66 C-14 70 -13 73 -11 76 C-13 76 -13 76 -16 77 C-19 70 -19 65 -19 57 C-19 54 -19 54 -22 52 C-23 51 -24 51 -25 50 C-26 49 -26 49 -27 48 C-27 47 -27 46 -27 45 C-23 45 -20 46 -16 48 C-12 49 -7.8 49 -3 49 C-2.5 48 -2.1 47 -1.6 46 C-1.3 45 -1.0 45 -0.8 44 C1.5 38 1.2 31 1.2 25 C1.2 23 1.2 23 1.2 22 C1.2 16 0.6 10 -0.7 4.2 C-1 2 -1 2 0 0 Z " fill="#BA4D2B" transform="translate(1046,1444)"/><path d="M0 0 C0.3 0.7 0.7 1.3 1 2 C2.3 1.3 3.6 0.7 5 0 C5 4.3 5 8.6 5 13 C5.7 13 6.3 13 7 13 C7.3 14 7.5 15 7.8 17 C8.2 18 8.5 20 8.9 21 C9.0 22 9.2 23 9.4 24 C9.6 24 9.8 25 9.9 26 C10 27 10 27 10 28 C11 30 12 32 13 34 C15 35 15 35 17 35 C21 37 23 38 25 42 C25 45 26 47 24 50 C21 52 17 51 14 51 C13 51 12 51 12 51 C9.7 51 7.8 51 6 51 C7.0 51 7.0 51 8 50 C9.1 48 9.1 48 10 46 C11 46 11 47 12 47 C12 46 12 46 12 45 C14 45 17 45 19 45 C18 43 18 43 16 42 C15 42 13 42 11 41 C7.2 39 4.8 36 3.1 32 C2.4 29 1.8 27 1.2 24 C1.0 23 0.8 23 0.5 22 C-1.2 14 -2.1 7.2 0 0 Z " fill="#C05936" transform="translate(911,1841)"/><path d="M0 0 C5.4 3.4 11 6.7 16 10 C21 14 27 17 32 19 C42 23 47 27 52 36 C53 40 53 42 53 46 C51 49 50 51 47 54 C45 54 45 54 42 54 C42 54 41 54 40 54 C39 54 39 54 38 54 C41 52 43 52 47 52 C47 50 48 48 48 46 C49 46 49 46 50 46 C49 40 47 34 45 28 C42 29 42 29 40 31 C39 30 38 30 37 29 C34 28 30 26 26 25 C18 21 10 17 3 12 C3 11 3 11 3 10 C3.7 9.7 4.3 9.3 5 9 C5.7 7.0 5.7 7.0 6 5 C4.3 4.7 2.7 4.3 1 4 C0.7 2.7 0.3 1.4 0 0 Z " fill="#C75D39" transform="translate(1082,1599)"/><path d="M0 0 C2.4 2.8 4.2 5.3 5.6 8.8 C6.0 9.8 6.5 11 7 12 C8.0 12 9.0 13 10 13 C12 16 12 16 13 19 C14 20 14 21 15 22 C16 25 16 28 17 31 C18 33 18 33 19 36 C20 38 21 41 22 44 C21 44 21 44 19 45 C19 46 19 46 19 47 C18 47 18 47 17 47 C17 46 16 45 16 44 C14 41 12 37 10 33 C9.7 32 9.0 30 8.2 29 C7.5 27 6.8 26 6.1 24 C5.3 23 4.6 21 3.9 20 C1.6 15 -0.8 10 -3.3 5.8 C-3.5 5.2 -3.8 4.6 -4 4 C-3.7 3.3 -3.3 2.7 -3 2 C-2.3 2.3 -1.7 2.7 -1 3 C-0.7 2.0 -0.3 1.0 0 0 Z " fill="#BC4E2B" transform="translate(1048,1672)"/><path d="M0 0 C11 -0.7 20 -0.2 29 6.6 C38 15 41 27 41 38 C42 48 41 56 38 65 C38 65 37 65 37 65 C37 64 37 64 37 63 C38 56 38 49 38 41 C38 40 38 39 38 38 C38 32 38 25 33 20 C33 20 33 20 32 19 C31 19 31 19 30 20 C30 19 29 18 28 17 C26 13 22 11 18 9 C17 8.4 16 7.8 15 7.2 C12 6.0 9.2 5.4 6 5 C6 4.7 6 4.3 6 4 C7.7 4 9.3 4 11 4 C11 3.3 11 2.7 11 2 C7.0 2 3.1 2 -1 2 C-0.7 1.3 -0.3 0.7 0 0 Z " fill="#B45C3B" transform="translate(1014,1427)"/><path d="M0 0 C0.7 0 1.3 0 2 0 C2 3.0 2 5.9 2 9 C2.7 9 3.3 9 4 9 C4.3 8.0 4.7 7.0 5 6 C5.7 18 3.3 29 0 40 C-1.3 39 -2.6 39 -4 38 C-4.3 45 -4.7 53 -5 60 C-5.3 60 -5.7 60 -6 60 C-6.7 40 -4.2 20 0 0 Z " fill="#BB4B27" transform="translate(1047,1574)"/><path d="M0 0 C1.0 0.3 2.0 0.7 3 1 C1.4 5.5 -0.6 9.0 -3.4 13 C-8.6 20 -11 28 -14 36 C-14 36 -15 36 -15 36 C-15 34 -16 33 -16 31 C-16 32 -17 32 -17 33 C-18 33 -18 33 -19 33 C-19 34 -19 34 -19 35 C-19 42 -20 48 -22 54 C-23 54 -23 54 -24 54 C-20 18 -20 18 -9 9 C-9 11 -9 12 -9 14 C-8.0 14 -7.0 13 -6 13 C-5.7 11 -5.3 9.7 -5 8 C-3.7 7.7 -2.4 7.3 -1 7 C-1.3 5.3 -1.7 3.7 -2 2 C-1.3 2 -0.7 2 0 2 C0 1.3 0 0.7 0 0 Z " fill="#B15A3B" transform="translate(952,1560)"/><path d="M0 0 C1.0 0.3 2.0 0.7 3 1 C2.4 1.5 1.9 1.9 1.3 2.4 C-7.4 9.7 -13 18 -18 28 C-20 32 -23 35 -25 38 C-29 43 -32 48 -35 53 C-36 55 -37 57 -38 58 C-43 65 -46 72 -49 80 C-50 82 -50 83 -51 85 C-53 79 -50 73 -48 68 C-45 63 -42 58 -39 53 C-35 48 -32 43 -28 37 C-28 36 -27 35 -26 34 C-24 30 -21 26 -18 22 C-13 14 -8.0 5.4 0 0 Z " fill="#F9D9C5" transform="translate(990,1514)"/><path d="M0 0 C0.3 0 0.7 0 1 0 C2.0 5.5 1.8 9.9 0.9 15 C0.7 16 0.6 17 0.5 18 C0.2 19 -0.1 21 -0.4 23 C-0.8 25 -1.2 27 -1.6 30 C-1.9 32 -2.2 33 -2.5 35 C-2.6 35 -2.7 36 -2.8 37 C-3.6 41 -4.7 46 -6 50 C-7.0 50 -8.0 50 -9 50 C-9.2 36 -9.2 36 -8 29 C-8.0 27 -7.9 26 -8 24 C-7.3 24 -6.7 24 -6 24 C-6.1 23 -6.1 23 -6.1 22 C-6 19 -6 19 -5.0 17 C-3.9 14 -3.6 11 -3.4 8.2 C-3.3 6.7 -3.3 6.7 -3.1 5.2 C-3.1 4.5 -3.1 3.8 -3 3 C-2.3 3 -1.7 3 -1 3 C-0.7 2.0 -0.3 1.0 0 0 Z " fill="#BD4B28" transform="translate(936,1590)"/><path d="M0 0 C3 1 3 1 4.2 2.8 C4.5 3.6 4.8 4.3 5.2 5.1 C5.5 5.8 5.9 6.5 6.2 7.3 C6.5 7.9 6.7 8.4 7 9 C6.3 9 5.7 9 5 9 C5.3 11 5.7 13 6 15 C6.7 15 7.3 15 8 15 C8 14 8 13 8 12 C9.3 12 11 12 12 12 C14 15 14 15 15 18 C17 23 19 27 22 31 C23 33 23 33 24 34 C25 36 27 39 28 41 C27 42 27 42 26 43 C26 42 25 41 25 41 C24 40 24 39 23 38 C23 37 22 36 21 35 C20 32 20 32 19 31 C19 32 18 32 18 33 C17 33 15 33 14 33 C14 32 13 32 13 31 C12 29 11 27 9.3 24 C8.9 23 8.4 22 8.0 22 C7.6 21 7.1 20 6.7 19 C6.0 18 6.0 18 5.4 17 C4.4 15 3.5 13 2.5 12 C1.8 10 1.8 10 1.1 9.2 C0.7 8.5 0.3 7.8 -0.2 7.1 C-1.2 4.4 -0.8 2.7 0 0 Z " fill="#C8522F" transform="translate(1029,1642)"/><path d="M0 0 C0.8 0.3 1.6 0.6 2.5 0.9 C5.7 1.9 8.9 2.9 12 3.6 C16 4.6 16 4.6 17 6.0 C19 8.0 21 8.7 24 9.7 C29 12 29 12 31 13 C31 13 31 14 31 15 C30 15 29 15 29 15 C29 15 29 16 29 17 C23 16 17 13 12 9.6 C10 9.7 10 9.7 8.7 9.7 C3.9 9.6 -0.2 8.4 -4.2 5.6 C-5.0 3.5 -5.0 3.5 -5.2 1.6 C-2.2 -0.4 -2.2 -0.4 0 0 Z " fill="#C25530" transform="translate(978.19921875,1826.390625)"/><path d="M0 0 C0.7 0 1.3 0 2 0 C11 22 20 43 20 67 C19 64 17 62 17 59 C16 57 16 57 16 56 C16 55 15 54 15 53 C15 52 15 51 14 50 C13 45 11 39 9.9 33 C8.4 26 6.4 20 4.2 13 C2.6 9.0 1.3 4.5 0 0 Z " fill="#FADFCD" transform="translate(1064,1721)"/><path d="M0 0 C0 2.0 0 4.0 0 6 C-5.6 9 -5.6 9 -9 9 C-9 9.7 -9 10 -9 11 C-11 13 -13 15 -15 16 C-17 18 -17 18 -17 21 C-18 21 -20 21 -21 21 C-21 22 -22 24 -22 25 C-23 25 -23 25 -24 25 C-24 26 -25 26 -25 27 C-25 27 -26 27 -26 27 C-26 29 -26 29 -27 31 C-28 34 -28 35 -31 37 C-32 37 -33 37 -34 37 C-31 29 -28 23 -22 17 C-20 15 -19 13 -17 11 C-16 10 -16 10 -13 9 C-12 8.2 -11 7.3 -11 6.5 C-8.2 4.2 -7.2 3.4 -4 3 C-4 2.3 -4 1.7 -4 1 C-2 0 -2 0 0 0 Z " fill="#C15430" transform="translate(997,1504)"/><path d="M0 0 C2.2 1.4 3.8 2.7 5.6 4.6 C5.2 5.3 4.9 5.9 4.6 6.6 C4.0 6.3 3.5 5.9 2.9 5.5 C2.2 5.1 1.5 4.6 0.8 4.2 C0.0 3.7 -0.7 3.3 -1.4 2.8 C-7.4 -0.7 -15 -0.0 -21 0.6 C-26 2.2 -29 4.2 -32 8.4 C-33 9.1 -33 9.9 -33 11 C-34 11 -35 11 -35 11 C-35 11 -36 12 -36 12 C-36 17 -36 21 -38 25 C-39 25 -39 25 -39 25 C-40 17 -40 12 -35 5.6 C-25 -5.8 -13 -6.9 0 0 Z " fill="#F9D7C2" transform="translate(1036.43359375,1437.39453125)"/><path d="M0 0 C0.7 0.7 1.3 1.3 2 2 C1.7 2.7 1.3 3.3 1 4 C0.2 13 1.4 20 5 28 C4.0 28 3.0 28 2 28 C2 29 2 30 2 31 C2.3 31 2.7 32 3 32 C3.1 35 3.2 37 3.2 40 C3.2 41 3.2 42 3.2 42 C3.2 47 2.7 51 1 56 C-1.6 57 -1.6 57 -4 58 C-4 59 -4 59 -4 60 C-5.8 61 -7.5 62 -9.3 63 C-11 64 -11 64 -13 67 C-14 68 -14 68 -15 68 C-19 71 -22 75 -25 79 C-26 79 -26 78 -27 78 C-22 71 -17 65 -9.9 61 C-4.6 57 -1.1 53 1 47 C1.7 39 -0.9 33 -4.2 25 C-5 23 -5 23 -4 20 C-3.0 22 -2.0 23 -1 25 C-0.7 25 -0.3 24 0 24 C-0.1 23 -0.3 22 -0.4 21 C-1.1 18 -1.1 14 -1.1 9.8 C-1.1 8.7 -1.1 8.7 -1.1 7.6 C-1.1 2.3 -1.1 2.3 0 0 Z " fill="#B15838" transform="translate(997,1447)"/><path d="M0 0 C1.2 3.7 0.6 6.2 0 10 C1.0 9.7 2.0 9.3 3 9 C3.7 7.0 3.7 7.0 4 5 C4.4 12 3.1 17 1 23 C0.7 22 0.3 22 0 21 C-1.9 21 -1.9 21 -4 22 C-8.0 29 -8.4 37 -9.5 45 C-10.0 48 -10 50 -11 53 C-12 52 -12 52 -13 51 C-13 44 -11 38 -9.8 32 C-9.6 31 -9.4 30 -9.2 29 C-3.1 3.1 -3.1 3.1 0 0 Z " fill="#B95636" transform="translate(974,1684)"/><path d="M0 0 C2.5 1.3 2.8 2.5 4 5 C5.0 6.5 5.0 6.5 6 8 C6.7 10 7.4 13 8 15 C9.5 21 9.5 21 12 27 C11 27 10 27 9 27 C7.7 24 6.4 20 5 17 C4.7 17 4.3 17 4 17 C4.7 20 5.3 24 6 27 C6.7 27 7.3 27 8 27 C8 28 8 29 8 30 C15 32 21 32 27 29 C27 28 27 28 27 27 C29 27 30 26 32 26 C28 30 24 33 18 34 C14 35 12 34 8.8 32 C4.5 29 1.3 23 0.9 17 C0.9 11 0.9 11 2 9 C1.3 9 0.7 9 0 9 C-1.1 2.2 -1.1 2.2 0 0 Z " fill="#B35332" transform="translate(1093,1858)"/><path d="M0 0 C0.3 0 0.7 0 1 0 C0.9 1.9 0.9 1.9 0.9 3.9 C0.6 14 0.9 22 4.2 31 C5 34 5 34 4 37 C3.0 37 2.0 37 1 37 C1 36 1 35 1 34 C-0.3 34 -1.6 33 -3 33 C-4.6 27 -5.4 22 -5.4 16 C-5.4 16 -5.4 15 -5.4 14 C-5.5 10 -5.4 8.5 -3.0 5.6 C-2.4 5.1 -1.7 4.6 -1 4 C-0.2 1.9 -0.2 1.9 0 0 Z " fill="#BC4926" transform="translate(977,1644)"/><path d="M0 0 C0.7 0.3 1.3 0.7 2 1 C2 2.0 2 3.0 2 4 C2.7 4.3 3.3 4.7 4 5 C3.4 5.4 2.9 5.8 2.3 6.1 C-7.4 13 -13 23 -19 33 C-19 32 -20 32 -20 31 C-19 30 -19 28 -18 27 C-18 26 -18 25 -18 24 C-19 23 -19 23 -20 22 C-19 21 -19 21 -18 19 C-17 19 -17 19 -16 19 C-16 18 -16 17 -16 16 C-15 16 -15 16 -14 16 C-14 15 -14 14 -14 13 C-13 13 -13 13 -12 13 C-12 12 -11 12 -11 11 C-9.4 7.9 -7.6 6.4 -4.4 4.5 C-1.8 3.1 -1.8 3.1 0 0 Z " fill="#BA4F2D" transform="translate(941,1762)"/><path d="M0 0 C1.3 4.2 1.0 8.1 0.8 12 C0.8 15 0.8 15 3 18 C3.3 15 3.7 11 4 8 C4.3 8 4.7 8 5 8 C6.4 19 6.8 29 4 39 C2.7 39 1.4 39 0 39 C-0.1 38 -0.2 38 -0.4 37 C-0.6 36 -0.8 36 -1 35 C-1.7 35 -2.3 34 -3 34 C-2.7 33 -2.3 33 -2.0 32 C-0.9 29 -0.8 26 -0.8 23 C-0.9 22 -0.9 21 -0.9 19 C-0.9 18 -0.9 17 -0.9 16 C-1.0 14 -1.0 11 -1.0 8.8 C-1.0 7.8 -1.1 6.7 -1.1 5.6 C-1 3 -1 3 0 0 Z " fill="#C55B37" transform="translate(939,1641)"/><path d="M0 0 C3.0 2.6 4.3 5.5 5.9 9.0 C6.2 9.6 6.5 10 6.7 11 C7.6 13 8.5 15 9.3 17 C9.6 17 9.9 18 10 19 C14 26 17 34 20 42 C20 43 20 43 21 44 C22 47 22 49 21 52 C19 48 17 43 15 38 C14 35 13 32 11 29 C10 26 10 26 10 24 C9.3 24 8.7 25 8 25 C8.7 31 8.7 31 10 36 C9.3 36 8.7 36 8 36 C6.0 31 4.0 25 2 20 C2.7 20 3.3 20 4 20 C4 19 4 19 4 18 C4.7 18 5.3 17 6 17 C5.0 14 4.0 12 2.9 9.4 C2.4 8.1 2.4 8.1 1.9 6.8 C1.3 5.5 1.3 5.5 0.8 4.2 C0 2 0 2 0 0 Z " fill="#B05537" transform="translate(1063,1699)"/><path d="M0 0 C0 5.1 -3.8 8.3 -7 12 C-9.3 14 -12 16 -14 18 C-11 20 -8.4 21 -5 22 C-2.2 23 -2.2 23 0 24 C0.3 25 0.7 26 1 27 C-4.3 26 -9.6 25 -15 24 C-15 25 -16 27 -16 28 C-17 26 -17 25 -18 23 C-21 23 -21 23 -23 25 C-24 26 -24 26 -25 27 C-26 27 -26 26 -27 26 C-24 23 -21 20 -18 17 C-17 16 -16 15 -15 14 C-5.4 4.3 -5.4 4.3 0 0 Z " fill="#F9E8D9" transform="translate(965,1793)"/><path d="M0 0 C0 0.7 0 1.3 0 2 C-2.0 3.0 -4.0 4.0 -6 5 C-5.0 6.0 -4.0 7.0 -3 8 C-11 12 -18 13 -26 13 C-26 11 -26 11 -25 8 C-22 6.3 -19 5.3 -16 4.2 C-14 3.8 -14 3.8 -13 3.3 C-3.4 0 -3.4 0 0 0 Z " fill="#B45634" transform="translate(1230,1806)"/><path d="M0 0 C0.8 0.3 1.5 0.6 2.3 0.9 C18 6.8 33 13 49 18 C46 19 44 19 41 18 C40 18 39 17 39 17 C38 17 37 16 36 16 C31 14 26 13 21 12 C21 11 21 11 21 10 C19 9.5 19 9.5 16 9 C16 10 15 12 15 13 C18 14 20 14 23 15 C21 16 21 16 19 17 C16 16 16 16 12 15 C12 15 11 14 11 14 C8.7 13 6.7 12 4.8 12 C3.4 11 2.1 11 0.8 10 C-2.5 8.7 -5.8 7.3 -9 6 C-9 5.3 -9 4.7 -9 4 C-4.8 3.5 -2.6 4.7 1.0 6.8 C4.8 9.0 8.9 10 13 12 C13 11 13 11 13 10 C14 10 14 10 15 10 C15 9.3 15 8.7 15 8 C14 7.8 13 7.5 13 7.2 C8.3 5.7 4.1 3.9 0 2 C0 1.3 0 0.7 0 0 Z " fill="#AB5434" transform="translate(994,1831)"/><path d="M0 0 C0.1 0.6 0.2 1.2 0.2 1.9 C0.5 2.6 0.7 3.3 1 4 C1.6 4.3 2.3 4.5 2.9 4.8 C5 6 5 6 6.1 8.8 C7.5 14 7.2 20 7.1 25 C7.1 26 7.1 27 7.1 28 C7.1 31 7.0 33 7 36 C6.0 36 5.0 36 4 36 C3.7 37 3.3 37 3 38 C3.0 37 3.1 35 3.1 34 C3.1 29 2.4 24 1.6 18 C1.4 17 1.4 17 1.2 16 C0.6 12 0.0 8.2 -0.7 4.5 C-1 2 -1 2 0 0 Z " fill="#BD4825" transform="translate(1046,1444)"/><path d="M0 0 C2.0 3.0 2.3 4.0 2.6 7.4 C2.7 8.3 2.8 9.1 2.9 10 C3.0 11 3.0 12 3.1 13 C3.2 14 3.3 14 3.4 15 C3.6 18 3.8 20 4 22 C4.7 22 5.3 22 6 22 C7.3 26 6.6 29 5 33 C4.0 33 3.0 33 2 33 C1.5 32 1.0 30 0.6 29 C0.3 28 0.0 27 -0.2 27 C-1.8 21 -2.2 16 -2.2 10 C-2.2 9.0 -2.2 7.7 -2.2 6.4 C-2 3 -2 3 0 0 Z " fill="#BF4F2C" transform="translate(1086,1765)"/><path d="M0 0 C0.7 0 1.3 0 2 0 C2 0.7 2 1.3 2 2 C2.7 2.3 3.3 2.7 4 3 C4.4 5.3 4.7 7.7 5 10 C6.0 9.3 7.0 8.7 8 8 C8.7 8.7 9.3 9.3 10 10 C10 10 11 10 11 10 C12 14 12 18 13 22 C13 23 13 24 14 25 C14 26 14 27 14 28 C14 30 14 30 15 31 C15 34 15 34 15 38 C14 38 14 38 13 38 C12 32 11 25 10 19 C9.3 19 8.7 20 8 20 C8 25 8 29 8 34 C5.7 32 5.7 31 5.3 28 C5.1 27 5.0 26 4.9 25 C4.8 24 4.7 24 4.6 23 C3.5 15 2.1 7.5 0 0 Z " fill="#AC5536" transform="translate(1077,1749)"/><path d="M0 0 C1.0 0 2.0 0 3 0 C6.6 4.6 9.2 11 8.8 17 C8 19 8 19 6 20 C5.7 21 5.3 23 5 24 C0.1 24 0.1 24 -5 25 C-5 24 -5 24 -5 23 C-6.3 22 -7.6 20 -9 19 C-8.0 18 -7.0 18 -6 17 C-5.2 18 -5.2 18 -4.3 18 C-1.4 19 0.1 19 3 18 C3.3 18 3.7 17 4 17 C3.7 11 2.5 8.0 -1 3 C-0.7 2.0 -0.3 1.0 0 0 Z " fill="#C1522E" transform="translate(1124,1627)"/><path d="M0 0 C0.3 1.0 0.7 2.0 1 3 C-0.5 5.5 -2.0 7.7 -3.8 10 C-4.2 11 -4.7 11 -5.1 12 C-9.5 18 -9.5 18 -12 20 C-13 20 -14 20 -15 20 C-15 18 -14 16 -14 14 C-16 16 -19 19 -21 21 C-22 21 -22 20 -23 20 C-22 19 -22 19 -21 18 C-20 17 -19 16 -18 15 C-17 14 -16 13 -15 12 C-13 10 -13 10 -12 8 C-11 7.5 -10 7.1 -9.2 6.6 C-6.1 5.1 -4.3 3.5 -2 1 C-1.3 1.3 -0.7 1.7 0 2 C0 1.3 0 0.7 0 0 Z " fill="#B74D2B" transform="translate(910,1815)"/><path d="M0 0 C1.0 0.3 2.0 0.7 3 1 C0.7 4.6 -1.5 8.2 -3.8 12 C-4.8 13 -4.8 13 -5.8 15 C-6.4 16 -7.0 17 -7.6 18 C-8.2 19 -8.8 20 -9.4 21 C-11 23 -12 24 -14 26 C-14 24 -14 22 -14 20 C-15 20 -16 21 -17 21 C-17 22 -17 23 -17 24 C-19 25 -20 25 -22 26 C-21 25 -21 25 -21 24 C-16 17 -11 8.8 -7 1 C-6 4 -6 4 -7.4 6.9 C-8.1 8.0 -8.8 9.1 -9.4 10 C-10 11 -11 12 -11 13 C-12 14 -12 15 -13 16 C-11 15 -11 15 -8 14 C-6.9 12 -6.9 12 -6.4 9.4 C-5.9 7.0 -5.9 7.0 -5 5 C-2.9 4.2 -2.9 4.2 -1 4 C-0.7 2.7 -0.3 1.4 0 0 Z " fill="#AB5637" transform="translate(976,1525)"/><path d="M0 0 C0.7 0.3 1.3 0.7 2 1 C-1.1 5.0 -3.6 7.4 -8 10 C-9.0 11 -10 13 -11 14 C-12 14 -12 14 -13 14 C-13 15 -13 16 -13 17 C-14 17 -14 17 -15 17 C-15 18 -15 19 -15 20 C-16 20 -16 20 -17 20 C-17 21 -17 22 -18 23 C-19 27 -21 30 -23 34 C-24 34 -24 34 -25 34 C-25 35 -25 35 -25 36 C-26 40 -28 43 -30 47 C-30 48 -31 48 -31 49 C-32 51 -33 52 -34 54 C-34 53 -35 53 -35 52 C-34 48 -32 45 -30 41 C-29 39 -28 37 -27 36 C-22 25 -17 15 -8.2 6.9 C-7.3 6.0 -6.4 5.1 -5.4 4.2 C-3 2 -3 2 0 0 Z " fill="#A55234" transform="translate(940,1761)"/><path d="M0 0 C8.2 3.2 13 7.2 17 15 C18 19 18 21 18 25 C16 28 15 30 12 33 C9.8 33 9.8 33 7.4 33 C6.6 33 5.7 33 4.9 33 C4.3 33 3.6 33 3 33 C6.4 31 8.0 31 12 31 C12 29 13 27 13 25 C14 25 14 25 15 25 C14 19 12 13 10 7 C6.9 7.8 6.9 7.8 5 10 C4 7 4 7 4 3 C2.7 2.7 1.4 2.3 0 2 C0 1.3 0 0.7 0 0 Z " fill="#B15C3D" transform="translate(1117,1620)"/><path d="M0 0 C6.1 3.0 11 7.8 13 14 C19 29 19 46 14 61 C14 61 13 61 13 61 C13 60 13 60 13 59 C16 34 16 34 8.5 9.6 C6.6 7.3 4.7 5.4 2 4 C2 3.3 2 2.7 2 2 C1.3 2 0.7 2 0 2 C0 1.3 0 0.7 0 0 Z " fill="#AF664D" transform="translate(1038,1431)"/><path d="M0 0 C-0.9 7.8 -0.9 7.8 -2 10 C-5.0 9.5 -5.0 9.5 -8 9 C-7.0 7.0 -6.0 5.0 -5 3 C-9.0 3.7 -13 4.3 -17 5 C-18 3.4 -18 1.7 -19 0 C-4.3 -2.1 -4.3 -2.1 0 0 Z " fill="#C45431" transform="translate(1163,1857)"/><path d="M0 0 C0.5 4.8 -1.0 7.2 -3.7 11 C-4.4 12 -5.1 13 -5.8 14 C-8.0 17 -10 19 -13 21 C-13 20 -13 20 -12 19 C-11 17 -10 15 -10 13 C-13 15 -13 15 -16 18 C-15 14 -13 11 -10 7.3 C-9.4 6.4 -9.4 6.4 -8.7 5.5 C-4.4 0 -4.4 0 0 0 Z " fill="#BA4D2A" transform="translate(1002,1544)"/><path d="M0 0 C0.3 0 0.7 0 1 0 C2.0 5.1 1.9 9.5 1.0 15 C0.9 15 0.8 16 0.7 17 C0.3 19 -0.1 21 -0.4 23 C-0.7 25 -0.9 26 -1.2 28 C-1.8 32 -2.4 35 -3 39 C-3.3 39 -3.7 39 -4 39 C-4.4 37 -4.7 36 -5.1 34 C-5.3 33 -5.5 32 -5.7 31 C-6 29 -6 29 -5 27 C-4.3 27 -3.7 27 -3 27 C-3.0 26 -3.0 24 -3.1 23 C-3.1 20 -2.9 19 -2 16 C-2.7 16 -3.3 16 -4 16 C-3.7 12 -3.3 7.4 -3 3 C-2.3 3 -1.7 3 -1 3 C-0.7 2.0 -0.3 1.0 0 0 Z " fill="#BE5432" transform="translate(936,1590)"/><path d="M0 0 C0.3 0.7 0.7 1.3 1 2 C2.3 1.3 3.6 0.7 5 0 C5.0 0.7 5.0 1.5 5.0 2.2 C5.0 3.2 4.9 4.2 4.9 5.2 C4.9 6.2 4.9 7.1 4.9 8.1 C5.0 11 5.4 13 6 16 C6.1 17 6.3 19 6.4 20 C6.9 24 7.9 28 9 32 C7.1 31 7.1 31 5 30 C4.0 28 3.4 25 2.8 23 C2.6 22 2.5 21 2.3 21 C0.8 14 0.2 7.0 0 0 Z " fill="#C2522F" transform="translate(911,1841)"/><path d="M0 0 C1.8 2.3 3.7 4.6 5.4 6.9 C10 14 15 18 23 20 C23 21 22 22 22 23 C16 23 11 22 7 18 C4.7 14 2.8 9.4 1 5 C0.7 5 0.3 5 0 5 C0 3.4 0 1.7 0 0 Z " fill="#F0BBA1" transform="translate(894,1871)"/><path d="M0 0 C1.0 0 2.0 0 3 0 C4.0 5.6 5.0 11 6 17 C5.0 17 4.0 18 3 18 C2.3 19 1.7 20 1 21 C-1.8 15 -2.4 9.8 -2 3 C-1.3 3 -0.7 3 0 3 C0 2.0 0 1.0 0 0 Z " fill="#C3522E" transform="translate(1055,1786)"/><path d="M0 0 C0.3 0 0.7 0 1 0 C1.2 6.5 0.5 13 -0.5 19 C-0.7 20 -0.7 20 -0.9 22 C-1.3 24 -1.6 27 -2 29 C-3.0 28 -4.0 28 -5 27 C-5.2 24 -5.2 24 -5 21 C-6.3 21 -7.6 21 -9 21 C-9 22 -9 23 -9 24 C-9.7 24 -10 24 -11 24 C-11 22 -12 20 -12 18 C-11 18 -10 18 -9 18 C-9 19 -9 19 -9 20 C-8.3 20 -7.7 20 -7 20 C-7 17 -7 14 -7 11 C-6.3 12 -5.7 12 -5 13 C-2.0 11 -1.4 8.6 -0.8 4.8 C-0.6 3.5 -0.6 3.5 -0.3 2.1 C-0.2 1.4 -0.1 0.7 0 0 Z " fill="#C26547" transform="translate(1046,1633)"/><path d="M0 0 C0.7 0 1.3 0 2 0 C2.2 1.1 2.5 2.2 2.7 3.3 C3.0 4.7 3.4 6.2 3.7 7.6 C3.8 8.3 4.0 9.1 4.1 9.8 C5.4 15 7.1 18 11 22 C13 23 13 23 16 24 C17 24 17 24 18 25 C19 25 19 25 20 25 C20 26 20 26 20 27 C18 27 16 27 14 27 C12 27 11 27 10 27 C7 27 7 27 5 25 C5.7 25 6.3 24 7 24 C7.7 24 8.3 25 9 25 C9 24 9 24 9 23 C8.3 23 7.7 23 7 23 C2.4 16 0 8.3 0 0 Z " fill="#F7A989" transform="translate(910,1859)"/><path d="M0 0 C1.0 0.7 2.0 1.3 3 2 C2.2 2.0 1.4 1.9 0.5 1.9 C-8.9 1.6 -17 2.8 -24 9 C-27 14 -29 21 -30 27 C-31 27 -32 27 -33 27 C-32 22 -30 16 -29 11 C-28 11 -28 11 -27 11 C-27 10 -27 10 -27 9.2 C-26 5.4 -23 4.0 -20 1.8 C-14 -1.1 -6.5 -0.7 0 0 Z " fill="#DFA186" transform="translate(1030,1437)"/><path d="M0 0 C3.4 0.5 6.0 1.4 9 3 C9 3.7 9 4.3 9 5 C10 5.3 12 5.7 13 6 C13 7.7 14 9.3 14 11 C9.9 10 6.5 9.1 2.7 7.4 C1.6 7.0 0.6 6.5 -0.6 6.1 C-1.4 5.7 -2.2 5.4 -3 5 C-1.1 1.1 -1.1 1.1 0 0 Z " fill="#C25B37" transform="translate(1108,1617)"/><path d="M0 0 C0.7 0.3 1.3 0.7 2 1 C1.6 1.7 1.2 2.4 0.7 3.1 C-5.3 13 -11 24 -15 35 C-17 29 -14 23 -12 18 C-8.8 12 -4.5 5.7 0 0 Z " fill="#F8DDCA" transform="translate(954,1564)"/><path d="M0 0 C1.0 0.3 2.0 0.7 3 1 C3.9 3.0 3.9 3.0 4.7 5.4 C4.9 6.2 5.2 7.0 5.4 7.9 C6 10 6 10 6 12 C7.0 12 8.0 12 9 12 C9.3 11 9.7 10 10 9 C10 9.8 11 11 11 11 C12 14 12 14 14 17 C14 19 14 19 15 22 C15 22 15 23 15 24 C15 25 15 25 15 26 C14 25 13 24 12 23 C11 24 11 24 10 25 C9.9 24 9.7 24 9.6 23 C9.4 22 9.2 22 9.1 21 C8.9 20 8.7 19 8.5 18 C8.0 16 8.0 16 7 13 C6.3 13 5.7 13 5 13 C3.4 8.7 1.7 4.4 0 0 Z " fill="#AD5334" transform="translate(1072,1736)"/><path d="M0 0 C6.3 1.0 12 3.1 18 6 C18 6.7 18 7.3 18 8 C17 8 17 8 16 8 C16 8.7 15 9.3 15 10 C13 9.7 12 9.5 10 9.2 C8.9 9.0 8.9 9.0 7.6 8.7 C4.8 7.9 3.2 6.8 1 5 C0.3 4.7 -0.3 4.3 -1 4 C-0.7 2.7 -0.3 1.4 0 0 Z " fill="#C0512C" transform="translate(1010,1840)"/><path d="M0 0 C0.7 0.3 1.3 0.7 2 1 C1.7 1.5 1.3 2.0 1.0 2.5 C-0.4 5.9 -0.3 9.1 -0.2 13 C-0.2 13 -0.2 14 -0.2 15 C-0.1 20 0.2 24 1 29 C0.0 29 -1.0 29 -2 29 C-4.4 25 -4.6 21 -5 17 C-4.3 17 -3.7 17 -3 17 C-3.2 15 -3.2 15 -3.4 13 C-3.5 12 -3.6 12 -3.7 11 C-3.9 8.9 -3.9 8.9 -5 7 C-4.2 3.9 -4.2 3.9 -3 1 C-2.0 0.7 -1.0 0.3 0 0 Z " fill="#C55632" transform="translate(997,1444)"/><path d="M0 0 C13 0.8 13 0.8 18 3 C18 2.3 18 1.7 18 1 C20 0.3 20 0.3 22 0 C24 1.3 24 1.3 26 3 C26 3.7 26 4.3 26 5 C27 5.3 29 5.7 30 6 C30 6.7 29 7.3 29 8 C19 6.7 9.6 4.0 0 1 C0 0.7 0 0.3 0 0 Z " fill="#C8613E" transform="translate(1033,1854)"/><path d="M0 0 C2 2 2 2 2 5 C0.1 6.0 -1.8 7.0 -3.7 8 C-5.3 8.8 -5.3 8.8 -6.9 9.7 C-9.9 11 -12 11 -15 11 C-15 10 -16 9.0 -16 8 C-11 5.4 -5.4 2.7 0 0 Z " fill="#C65632" transform="translate(1188,1850)"/><path d="M0 0 C1.9 0.2 1.9 0.2 4 1 C5.7 3.1 5.7 3.1 7.2 5.6 C7.8 6.4 8.3 7.2 8.8 8.1 C9.2 8.7 9.6 9.3 10 10 C9.3 10 8.7 10 8 10 C8 11 8 11 8 12 C8.7 12 9.3 12 10 12 C10 13 10 13 10 14 C9.3 14 8.7 14 8 14 C7.7 15 7.3 15 7 16 C6.7 15 6.3 14 6 13 C5.3 13 4.7 13 4 13 C4 12 4 11 4 10 C3.3 10 2.7 10 2 10 C1.0 7.0 0.0 4.1 -1 1 C-0.7 0.7 -0.3 0.3 0 0 Z " fill="#BD4D29" transform="translate(1081,1839)"/><path d="M0 0 C0.3 0.7 0.7 1.3 1 2 C1.7 2 2.3 2 3 2 C3.7 4.6 4.3 7.3 5 10 C5.7 10 6.3 10 7 10 C7 11 7 12 7 13 C7.7 13 8.3 13 9 13 C9.3 14 9.7 15 10 15 C14 23 19 29 25 34 C26 36 27 38 27 40 C28 40 28 40 29 40 C29 41 28 42 28 43 C0 9.3 0 9.3 0 0 Z " fill="#A45438" transform="translate(1056,1809)"/><path d="M0 0 C0.7 0 1.3 0 2 0 C3.3 2.6 4.6 5.3 6 8 C7.0 4.9 6.9 4.0 6 1 C10 4.6 13 9.0 15 14 C16 15 16 15 17 16 C18 18 19 20 20 22 C19 23 19 23 18 24 C18 23 17 22 17 22 C16 21 16 20 15 19 C15 18 14 17 13 16 C12 13 12 13 11 12 C11 13 10 13 10 14 C8.7 14 7.4 14 6 14 C5.0 12 4.0 10 3 8.1 C2.2 6.5 2.2 6.5 1.3 4.8 C0 2 0 2 0 0 Z " fill="#B35231" transform="translate(1037,1661)"/><path d="M0 0 C1.1 3.4 0.8 5.8 0.1 9.2 C-0.1 10 -0.3 11 -0.5 12 C-0.7 13 -0.8 13 -1 14 C-1.7 14 -2.3 14 -3 14 C-2.7 26 -2.7 26 0.4 38 C1.3 41 1.2 43 1 46 C-5.6 34 -6.9 21 -2.9 7.4 C-2.0 4.9 -1.0 2.5 0 0 Z " fill="#A55136" transform="translate(975,1638)"/><path d="M0 0 C1.5 2.9 2.6 5.7 3.6 8.8 C3.9 9.5 4.1 10 4.4 11 C4.6 12 4.8 12 5 13 C4.0 13 3.0 14 2 14 C2 16 2 18 2 20 C-0.1 17 -1.3 14 -2.7 10 C-3.1 9.4 -3.6 8.2 -4.1 7.0 C-5 4 -5 4 -4 1 C-1.9 0.3 -1.9 0.3 0 0 Z " fill="#C25430" transform="translate(1098,1811)"/><path d="M0 0 C4.3 4.3 4.3 12 4.8 18 C5.0 20 5.4 22 6 24 C5.3 24 4.7 24 4 24 C2.4 22 2.4 22 1 19 C0.0 20 -1.0 20 -2 21 C-2.3 16 -2.0 13 1 9 C0.0 9.3 -1.0 9.7 -2 10 C-2 9.3 -2 8.7 -2 8 C-1.3 8 -0.7 8 0 8 C-0.3 6.3 -0.3 6.3 -0.6 4.6 C-0.8 2.8 -0.8 2.8 -1 1 C-0.7 0.7 -0.3 0.3 0 0 Z " fill="#B85D40" transform="translate(1051,1543)"/><path d="M0 0 C1.7 0.3 3.3 0.6 5 1 C6.7 6.7 8.0 12 6 18 C3.9 20 3.9 20 2 21 C1.9 19 1.9 19 1.9 18 C1.8 16 1.7 15 1.6 13 C1.6 13 1.6 12 1.5 11 C1.3 7.3 1.1 4.2 -1 1 C-0.7 0.7 -0.3 0.3 0 0 Z " fill="#C1522F" transform="translate(998,1474)"/><path d="M0 0 C2.2 2.1 3.7 4.0 5.0 6.7 C5.5 7.8 5.5 7.8 6.1 8.9 C6.4 9.6 6.8 10 7.1 11 C7.5 12 7.8 13 8.2 13 C9.1 15 10 17 11 19 C11 20 12 20 12 21 C8.3 20 7.1 18 5.2 14 C4.8 14 4.4 13 4.0 12 C3.6 11 3.3 11 3 10 C1.7 13 2.2 13 2.9 16 C3.1 17 3.3 18 3.5 18 C3.7 19 3.8 19 4 20 C4.7 20 5.3 20 6 20 C5.7 21 5.3 22 5 23 C1.5 19 -0.9 15 -2 10 C-1.6 7.8 -1.6 7.8 -1 6 C-0.0 6.3 1.0 6.7 2 7 C1.3 4.7 0.7 2.4 0 0 Z " fill="#AF5232" transform="translate(1057,1569)"/><path d="M0 0 C0.3 1.3 0.7 2.6 1 4 C-5.3 5.1 -12 6.1 -18 7 C-18 5.7 -19 4.4 -19 3 C-13 -0.4 -7.1 -0.3 0 0 Z " fill="#B64F2C" transform="translate(1025,1429)"/><path d="M0 0 C0.3 0 0.7 0 1 0 C1.5 6.4 1.5 6.4 -0.9 9.4 C-3 11 -3 11 -5 11 C-5 12 -5 12 -5 13 C-6.8 14 -8.5 15 -10 16 C-12 17 -12 17 -14 20 C-15 21 -15 21 -16 21 C-20 24 -23 28 -26 32 C-27 32 -27 31 -28 31 C-23 24 -18 18 -11 14 C-5.6 9.7 -2.1 6.4 0 0 Z " fill="#A75A3D" transform="translate(998,1494)"/><path d="M0 0 C1.0 0.3 2.0 0.7 3 1 C2.5 1.7 2.0 2.4 1.5 3.1 C-3.1 9.2 -7.2 15 -11 22 C-11 21 -12 21 -12 20 C-11 19 -11 17 -10 16 C-10 15 -10 14 -10 13 C-11 12 -11 12 -12 11 C-11 10 -11 9.0 -10 8 C-9.3 8 -8.7 8 -8 8 C-8 7.0 -8 6.0 -8 5 C-6.3 5.3 -4.7 5.7 -3 6 C-3 5.3 -3 4.7 -3 4 C-2.3 3.7 -1.7 3.3 -1 3 C-0.7 2.0 -0.3 1.0 0 0 Z " fill="#AD4C2B" transform="translate(933,1773)"/><path d="M0 0 C0.7 1.3 1.3 2.6 2 4 C5.1 3.2 5.1 3.2 7 1 C6.4 5.3 4.8 8.9 2.9 13 C2.4 14 1.8 15 1.3 16 C0.9 17 0.4 18 0 19 C-0.3 19 -0.7 19 -1 19 C-0.1 11 -0.1 11 1 9 C0.0 9 -1.0 9 -2 9 C-2 9.7 -2 10 -2 11 C-2.7 11 -3.3 11 -4 11 C-3.5 9.5 -3.0 8.1 -2.6 6.6 C-2.3 5.8 -2.0 5.0 -1.8 4.2 C-1 2 -1 2 0 0 Z " fill="#BF5532" transform="translate(950,1614)"/><path d="M0 0 C1.1 4.2 1.0 4.9 -0.6 8.7 C-0.9 9.6 -1.3 10 -1.7 11 C-2.0 12 -2.4 13 -2.8 14 C-3.4 16 -3.4 16 -3.9 17 C-6.7 24 -6.7 24 -9 26 C-8.9 25 -8.9 25 -8.8 24 C-8.7 23 -8.6 23 -8.5 22 C-8.4 21 -8.3 20 -8.2 19 C-8.0 17 -8.0 17 -8 14 C-8.7 14 -9.3 13 -10 13 C-10 12 -10 12 -10 11 C-7.1 9.0 -5.6 8 -2 8 C-1.3 5.4 -0.7 2.7 0 0 Z " fill="#AF5131" transform="translate(1011,1727)"/><path d="M0 0 C2.5 0.5 2.5 0.5 5 1 C4.9 4.2 4.7 7.4 4.6 11 C4.5 11 4.5 12 4.4 13 C4.2 18 3.8 23 3 28 C2.7 28 2.3 28 2 28 C2 22 2 16 2 10 C1.3 10 0.7 10 0 10 C0 6.7 0 3.4 0 0 Z " fill="#B05233" transform="translate(1043,1612)"/><path d="M0 0 C3.4 -0.1 6.8 -0.1 10 -0.1 C11 -0.1 12 -0.2 13 -0.2 C14 -0.2 15 -0.2 16 -0.2 C17 -0.2 18 -0.2 19 -0.2 C21 0.0 23 0.7 25 2 C25 3.6 24 5.3 24 7 C21 6.7 18 6.3 15 6 C17 5 19 4 21 3 C14 2.7 7.1 2.3 0 2 C0 1.3 0 0.7 0 0 Z " fill="#AA5F43" transform="translate(873,1803)"/><path d="M0 0 C0.7 0.2 1.4 0.5 2.1 0.7 C3.9 1.3 5.6 1.9 7.3 2.6 C7.0 3.6 6.7 4.5 6.3 5.6 C3.1 6.9 0.6 6.4 -2.7 5.6 C-2.7 4.6 -2.7 3.6 -2.7 2.6 C-4.7 2.6 -6.6 2.6 -8.7 2.6 C-9.3 1.2 -10 -0.1 -11 -1.4 C-6.6 -2.8 -3.9 -1.4 0 0 Z " fill="#C35732" transform="translate(1087.6875,1622.4375)"/><path d="M0 0 C0.8 0.0 1.7 0.0 2.6 0.0 C3.4 0.0 4.3 0.0 5.2 0.0 C6.6 0.0 6.6 0.0 7.9 0.0 C10 0.1 12 0.1 15 0.1 C15 1.1 15 1.1 16 2.1 C15 2.1 14 2.1 14 2.2 C3.8 2.5 -6.0 3.0 -16 4.7 C-19 5.2 -22 5.3 -25 5.1 C-25 4.8 -25 4.4 -25 4.1 C-20 2.0 -16 1.7 -10 1.3 C-6.6 1.0 -3.6 -0.0 0 0 Z " fill="#FEE9D8" transform="translate(878.44921875,1800.90234375)"/><path d="M0 0 C0.7 0.3 1.3 0.7 2 1 C1.9 4.2 1.6 6.3 -0.6 8.7 C-2.4 10 -4.2 12 -6 13 C-7.0 11 -8.0 8.4 -9 6 C-6.4 4.0 -3.9 2.4 -1 1 C-0.7 0.7 -0.3 0.3 0 0 Z " fill="#BD5635" transform="translate(987,1767)"/><path d="M0 0 C2.6 0 5.3 0 8 0 C8 0.7 8 1.3 8 2 C8.6 2.1 9.2 2.2 9.9 2.4 C16 3.5 21 4.7 27 6 C27 7.3 27 8.6 27 10 C21 9.4 16 7.1 10 4.9 C8.7 4.4 8.7 4.4 7.2 3.8 C4.8 2.9 2.4 1.9 0 1 C0 0.7 0 0.3 0 0 Z " fill="#F6E0CF" transform="translate(1004,1835)"/><path d="M0 0 C2.7 2.7 3.6 6.0 4.9 9.5 C5.1 10 5.4 11 5.7 12 C6.2 13 6.8 15 7.3 17 C8.2 19 9.1 21 9.9 24 C10 25 11 27 12 28 C12 29 12 30 12 31 C14 36 14 36 13 39 C11 36 10 35 9.4 32 C9.1 31 8.8 30 8.5 29 C8.2 28 7.9 28 7.6 27 C7.3 26 7.0 25 6.7 24 C0 4.5 0 4.5 0 0 Z " fill="#A9593F" transform="translate(1093,1793)"/><path d="M0 0 C1.0 0 2.0 0 3 0 C3 0.7 3 1.3 3 2 C3.6 2.2 4.1 2.4 4.7 2.6 C8.0 4.6 9.8 6.9 12 10 C13 13 13 13 13 16 C12 16 11 15 10 15 C9.7 14 9.3 14 9 13 C8.0 13 8.0 13 7 14 C6.6 13 6.2 12 5.8 11 C4.3 7.4 2.4 4.9 0 2 C0 1.3 0 0.7 0 0 Z " fill="#C25632" transform="translate(1037,1433)"/><path d="M0 0 C0.3 0 0.7 0 1 0 C0.7 4.0 0.3 7.9 0 12 C-0.3 12 -0.7 12 -1 12 C-1 10 -1 8.7 -1 7 C-2.0 7 -3.0 7 -4 7 C-4.2 7.6 -4.5 8.1 -4.8 8.7 C-7.0 13 -9.4 16 -14 18 C-14 15 -14 15 -12 13 C-11 12 -11 11 -9.8 11 C-7.1 8.0 -4.4 5.4 -2 2.4 C-1.3 1.6 -0.7 0.8 0 0 Z " fill="#FBDDCB" transform="translate(1235,1819)"/><path d="M0 0 C1.0 0.0 2.0 0.1 3.0 0.1 C4.0 0.1 5.0 0.2 6 0.2 C7.1 0.2 7.1 0.2 8.3 0.3 C7.3 1.3 6.3 2.3 5.3 3.3 C6.3 4.0 7.3 4.6 8.3 5.3 C-0.6 5.3 -9.5 5.3 -19 5.3 C-19 5.0 -19 4.6 -19 4.3 C-17 4.2 -17 4.2 -16 4.2 C-15 4.1 -14 4.0 -12 4.0 C-11 3.9 -10 3.9 -8.8 3.8 C-4.8 3.1 -3.9 0.4 0 0 Z " fill="#AF4E2E" transform="translate(886.69921875,1804.70703125)"/><path d="M0 0 C2.5 3.8 4.2 7.8 5.9 12 C6.3 13 6.7 14 7.0 15 C9.5 21 12 27 13 33 C12 33 12 33 11 34 C11 33 11 33 10 32 C7.5 23 4.5 15 0.9 6.4 C0 4 0 4 0 0 Z " fill="#A95B40" transform="translate(1072,1717)"/><path d="M0 0 C0.7 0.3 1.3 0.7 2 1 C1.8 1.9 1.6 2.7 1.4 3.6 C-0.2 11 -1.5 18 -2.6 25 C-3.0 28 -3.5 30 -4 33 C-4.7 32 -5.3 32 -6 31 C-5.6 24 -4.1 17 -2.4 10 C-2.2 9.4 -2.0 8.4 -1.7 7.4 C-1.2 4.9 -0.6 2.5 0 0 Z " fill="#AB593C" transform="translate(967,1704)"/><path d="M0 0 C3 1 3 1 4.2 2.8 C4.5 3.6 4.8 4.3 5.2 5.1 C5.5 5.8 5.9 6.5 6.2 7.3 C6.5 7.9 6.7 8.4 7 9 C6.3 9 5.7 9 5 9 C5.3 11 5.7 13 6 15 C6.7 15 7.3 15 8 15 C7.7 16 7.3 18 7 19 C5.6 17 4.3 15 2.9 12 C2.5 12 2.2 11 1.8 10 C-0.0 7.4 -1.0 5.6 -0.7 2.0 C-0.5 1.4 -0.3 0.7 0 0 Z " fill="#AF5838" transform="translate(1029,1642)"/><path d="M0 0 C0.7 0.3 1.3 0.7 2 1 C-3.7 6.8 -9.0 8.7 -17 10 C-18 10 -19 10 -20 10 C-15 5.1 -15 5.1 -12 4 C-10 2.5 -10 2.5 -9 1 C-8.3 2.3 -7.7 3.6 -7 5 C-4.7 3.4 -2.4 1.7 0 0 Z M-8 2 C-6 3 -6 3 -6 3 Z " fill="#B84F2D" transform="translate(1211,1840)"/><path d="M0 0 C2.1 0.4 2.1 0.4 4 1 C3.5 1.5 3.0 2.0 2.5 2.5 C-3.6 9.0 -7.8 16 -12 24 C-12 24 -13 24 -13 24 C-14 19 -12 16 -9 12 C-8.3 12 -7.7 12 -7 12 C-6.7 11 -6.3 9.4 -6 8 C-5.3 8 -4.7 8 -4 8 C-4 6.7 -4 5.4 -4 4 C-2.2 1.7 -2.2 1.7 0 0 Z " fill="#FAE4D4" transform="translate(928,1768)"/><path d="M0 0 C0.3 0 0.7 0 1 0 C2.4 11 2.8 21 0 31 C-1.3 31 -2.6 31 -4 31 C-4.3 30 -4.7 29 -5 28 C-3.7 28 -2.4 29 -1 29 C-0.7 19 -0.3 9.9 0 0 Z " fill="#AF684E" transform="translate(943,1649)"/><path d="M0 0 C5.0 1.8 9.4 4.0 13 8 C13 8.7 12 9.3 12 10 C11 9.7 11 9.3 10 9.0 C2.4 3.7 -4.5 2.6 -14 2 C-9.5 -1.0 -5.3 -0.7 0 0 Z " fill="#FDE8D8" transform="translate(1029,1434)"/><path d="M0 0 C0.7 0 1.3 0 2 0 C2.1 0.6 2.2 1.3 2.4 1.9 C2.7 3.0 2.7 3.0 3 4 C3.7 4.3 4.3 4.7 5 5 C4.0 6.5 4.0 6.5 3 8 C2.5 11 2.5 11 2.4 14 C2.3 15 2.2 16 2.1 17 C2.1 17 2.1 18 2 19 C0 17 0 17 -0.2 15 C-0.2 13 -0.2 13 -0.1 12 C-0.1 11 -0.1 10 -0.1 9.1 C-0.0 8.4 -0.0 7.7 0 7 C-1.0 7.3 -2.0 7.7 -3 8 C-2.5 4.6 -1.9 2.9 0 0 Z " fill="#B45233" transform="translate(915,1835)"/><path d="M0 0 C0.7 0.3 1.3 0.7 2 1 C2 1.7 2 2.3 2 3 C1.0 3 0.0 3 -1 3 C-1 3.7 -1 4.3 -1 5 C-1.7 5 -2.3 5 -3 5 C-2.7 6.7 -2.3 8.3 -2 10 C-3.3 10 -4.6 11 -6 11 C-6 13 -6 14 -6 16 C-7.3 16 -8.6 17 -10 17 C-10 15 -10 14 -10 12 C-9.3 12 -8.7 12 -8 12 C-7.8 11 -7.5 11 -7.2 9.9 C-3.8 1.9 -3.8 1.9 0 0 Z " fill="#C1532E" transform="translate(953,1557)"/><path d="M0 0 C0 0.7 0 1.3 0 2 C-2.6 3.5 -3.9 4 -7 4 C-5.3 7.2 -5.3 7.2 -2 8 C-4.6 9.7 -7.3 11 -10 13 C-10 12 -10 10 -10 9 C-10 8.7 -11 8.3 -11 8 C-14 10 -14 10 -17 13 C-14 6.9 -7.0 0 0 0 Z " fill="#AA5131" transform="translate(1013,1428)"/><path d="M0 0 C1.0 0 2.0 0 3 0 C1.8 3.1 0.5 6.1 -1 9 C-1.7 9 -2.3 9 -3 9 C-3.1 9.7 -3.2 10 -3.2 11 C-4.2 15 -6.1 18 -8.1 22 C-8.4 23 -8.8 23 -9.2 24 C-10 26 -11 27 -12 29 C-12 28 -13 28 -13 27 C-12 24 -12 24 -10 21 C-10.0 20 -9.7 20 -9.4 19 C-8.4 17 -7.5 15 -6.6 13 C-5.9 12 -5.3 11 -4.7 9.5 C-3.1 6.3 -1.6 3.2 0 0 Z " fill="#AB5A3D" transform="translate(918,1786)"/><path d="M0 0 C3.4 1.2 6.4 2.4 9 5 C9.2 8.2 9.2 8.2 9 11 C5.1 10 2.8 8.7 0 6 C-0.9 3.9 -0.9 3.9 -1 2 C-0.7 1.3 -0.3 0.7 0 0 Z " fill="#BB4E2A" transform="translate(1101,1631)"/><path d="M0 0 C1.8 2.7 3.2 5.3 4.6 8.2 C5.1 9.1 5.5 10.0 6.0 11 C6.3 12 6.7 12 7 13 C6.0 13 6.0 13 5 14 C5 13 5 13 5 12 C4.3 12 3.7 12 3 12 C2.7 11 2.3 10 2 9 C1.3 8.7 0.7 8.3 0 8 C0.3 10 0.7 13 1 15 C-1.8 12 -2.9 10 -3.4 6.4 C-3 3 -3 3 -1.5 1.1 C-1.0 0.7 -0.5 0.4 0 0 Z " fill="#B55535" transform="translate(1110,1839)"/><path d="M0 0 C3.3 1.4 5.2 3.1 7.5 5.9 C8.4 6.9 8.4 6.9 9.3 8.0 C9.9 8.7 10 9.3 11 10 C14 13 16 15 20 17 C21 18 21 18 21 21 C21 21 21 22 21 23 C20 22 20 22 19 21 C17 19 14 16 12 14 C11 13 9.1 11 7.7 9.8 C6.6 8.7 6.6 8.7 5.4 7.6 C4.7 6.9 4.0 6.2 3.3 5.5 C2.7 4.9 2.0 4.3 1.4 3.6 C0 2 0 2 0 0 Z " fill="#A7583B" transform="translate(1023,1738)"/><path d="M0 0 C2.2 2.0 3.7 4.0 5.2 6.6 C5.5 7.3 5.9 8.0 6.3 8.7 C6.7 9.4 7.1 10 7.5 11 C8.1 12 8.1 12 8.7 13 C9.8 15 11 17 12 19 C13 20 13 21 14 22 C15 25 15 25 14 28 C13 27 13 25 12 24 C12 23 11 23 11 22 C10 20 10 20 10 18 C9.3 18 8.7 18 8 18 C6.7 16 5.3 13 4 11 C3.6 10.0 3.2 9.3 2.8 8.6 C0 3.3 0 3.3 0 0 Z " fill="#F8CDB4" transform="translate(1029,1650)"/><path d="M0 0 C0.3 0 0.7 0 1 0 C-0.5 22 -0.5 22 -6 28 C-5.1 20 -5.1 20 -4 19 C-4.0 18 -4.1 17 -4.1 16 C-4.2 10 -2.8 5.8 -1 1 C-0.7 0.7 -0.3 0.3 0 0 Z " fill="#FCE8D9" transform="translate(962,1721)"/><path d="M0 0 C0.3 0 0.7 0 1 0 C1.2 4.9 0.6 9.1 -0.6 14 C-1.1 16 -1.1 19 -1 21 C-1 22 -1 23 -1 24 C-3.0 25 -3.0 25 -5 26 C-4.6 17 -2.3 8.6 0 0 Z " fill="#F39B7A" transform="translate(934,1621)"/><path d="M0 0 C7.5 3.6 12 9.6 14 17 C16 21 16 23 15 27 C13 24 12 22 12 18 C10 13 8.4 8.8 4 5 C3.3 4.7 2.7 4.3 2 4 C2 3.3 2 2.7 2 2 C1.3 2 0.7 2 0 2 C0 1.3 0 0.7 0 0 Z " fill="#AB6044" transform="translate(1038,1431)"/><path d="M0 0 C2 2 2 2 2.0 4.8 C1.9 6.0 1.8 7.1 1.7 8.2 C1.6 9.4 1.5 10 1.4 12 C1.0 15 0.6 18 0 21 C-0.3 21 -0.7 21 -1 21 C-1 15 -1 9.1 -1 3 C-4.6 3 -8.3 3 -12 3 C-7.8 0.2 -4.9 -0.3 0 0 Z " fill="#AA5A3E" transform="translate(1244,1802)"/><path d="M0 0 C0.7 0.3 1.3 0.7 2 1 C2.5 6.7 1.6 9.5 -2 14 C-4 16 -4 16 -6.2 16 C-7.0 16 -7.8 16 -8.6 16 C-9.4 16 -10 16 -11 16 C-12 16 -12 16 -13 16 C-9.6 14 -8.0 14 -4 14 C-3.7 12 -3.3 10 -3 8 C-2.3 8 -1.7 8 -1 8 C-0.7 5.4 -0.3 2.7 0 0 Z " fill="#AE5F43" transform="translate(1133,1637)"/><path d="M0 0 C0.3 0 0.7 0 1 0 C2.3 5.9 3.6 12 5 18 C1 16 1 16 -0.0 14 C-0.3 13 -0.5 12 -0.8 11 C-1.0 10 -1.2 9.4 -1.5 8.5 C-2 6 -2 6 -2 2 C-1.3 2 -0.7 2 0 2 C0 1.3 0 0.7 0 0 Z " fill="#CA5934" transform="translate(915,1855)"/><path d="M0 0 C0.9 -0.0 1.7 -0.1 2.6 -0.1 C4.9 0.2 4.9 0.2 6.8 1.5 C8.9 4.7 7.6 7.6 6.9 11 C6.3 11 5.6 11 4.9 10 C5.3 7.9 5.6 5.6 5.9 3.2 C0.3 3.2 -5.3 3.2 -11 3.2 C-7.8 0.0 -4.4 0.1 0 0 Z " fill="#AC5A3F" transform="translate(1157.0625,1853.75)"/><path d="M0 0 C1 3 1 3 -0.2 5.8 C-1.1 7.4 -1.1 7.4 -2 9 C-2.4 10.0 -2.8 11 -3.2 12 C-5.5 16 -8.5 18 -12 21 C-10 16 -7.6 12 -4.9 7.7 C-4.4 6.9 -3.9 6.2 -3.5 5.4 C-2.3 3.6 -1.2 1.8 0 0 Z " fill="#E2A88D" transform="translate(961,1556)"/><path d="M0 0 C-0.3 3.0 -0.7 5.9 -1 9 C-2.6 9.3 -4.3 9.7 -6 10 C-6 11 -6 11 -6 12 C-7.0 12 -8.0 12 -9 12 C-8.8 9.6 -8.8 9.6 -8 7 C-5.9 5.7 -5.9 5.7 -4 5 C-4 4.0 -4 3.0 -4 2 C-1 0 -1 0 0 0 Z " fill="#BE512D" transform="translate(963,1544)"/><path d="M0 0 C0.2 0.6 0.4 1.2 0.6 1.8 C2.5 4.8 5.0 6.2 8 8 C7.2 8.6 7.2 8.6 6.4 9.2 C6.0 9.8 5.5 10 5 11 C5.2 13 5.2 13 6 15 C2.3 12 0.1 10 -1 6 C-0.6 2.7 -0.6 2.7 0 0 Z " fill="#B55233" transform="translate(1049,1601)"/><path d="M0 0 C5.6 0.3 11 0.7 17 1 C17 1.7 17 2.3 17 3 C21 3 26 3 30 3 C30 3.3 30 3.7 30 4 C9.5 4.6 9.5 4.6 0 1 C0 0.7 0 0.3 0 0 Z " fill="#E9C3AE" transform="translate(1118,1852)"/><path d="M0 0 C0.3 0 0.7 0 1 0 C1.3 8.3 0.9 15 -2 23 C-2.7 23 -3.3 23 -4 23 C-3.0 15 -1.8 7.6 0 0 Z " fill="#B36246" transform="translate(932,1591)"/><path d="M0 0 C3.3 1.8 4.9 2.8 7 6 C7.3 9.1 7.5 11 6 14 C2.7 16 -0.3 15 -4 15 C-4 15 -4 14 -4 14 C-0.5 14 -0.5 14 3 13 C3.7 11 4.3 9.7 5 8 C4.0 7.7 3.0 7.3 2 7 C2 5.3 2 3.7 2 2 C1.3 2 0.7 2 0 2 C0 1.3 0 0.7 0 0 Z M1 8 C2.0 8.5 2.0 8.5 3 9 C2.0 9.5 2.0 9.5 1 10 C1 9.3 1 8.7 1 8 Z " fill="#AB6045" transform="translate(929,1877)"/><path d="M0 0 C-2.8 1.9 -4.7 2.6 -7.9 3.5 C-9.3 3.9 -9.3 3.9 -11 4.3 C-12 4.7 -12 4.7 -14 5.1 C-15 5.5 -15 5.5 -17 6.0 C-19 6.6 -22 7.3 -24 8 C-24 7.3 -24 6.7 -24 6 C-16 1.7 -8.9 -0.5 0 0 Z " fill="#A95234" transform="translate(1150,1876)"/><path d="M0 0 C-2 2 -2 2 -5 4 C-4.0 3.7 -4.0 3.7 -2.9 3.5 C-2.0 3.3 -1.1 3.1 -0.1 2.9 C0.8 2.7 1.7 2.5 2.6 2.2 C3.4 2.2 4.2 2.1 5 2 C5.7 2.7 6.3 3.3 7 4 C1.5 5.4 -3.4 6.2 -9 6 C-8.8 3.6 -8.8 3.6 -8 1 C-4.7 -0.9 -3.6 -1.2 0 0 Z " fill="#A6583B" transform="translate(1213,1813)"/><path d="M0 0 C-0.5 3.4 -1.1 6.7 -2 10 C-2.7 10 -3.3 10 -4 10 C-4 9.3 -4 8.7 -4 8 C-5.3 8.3 -6.6 8.7 -8 9 C-5.4 0 -5.4 0 0 0 Z " fill="#BE5634" transform="translate(938,1669)"/><path d="M0 0 C0.3 0.7 0.7 1.3 1 2 C0.4 2.9 -0.2 3.8 -0.8 4.7 C-3.2 8.3 -5.5 12 -7.5 16 C-8.0 17 -8.5 17 -9 18 C-10.0 18 -11 18 -12 18 C-12 16 -12 15 -12 13 C-11 13 -11 13 -10 12 C-7.2 11 -5.8 8.3 -3.8 5.4 C-3.0 4.4 -2.3 3.4 -1.6 2.3 C-0.8 1.2 -0.8 1.2 0 0 Z " fill="#E19E81" transform="translate(937,1775)"/><path d="M0 0 C2.3 3.4 2.2 4.2 1.8 8.1 C1.7 9.1 1.6 10 1.5 11 C1.4 12 1.2 13 1.1 14 C1.0 15 0.9 16 0.8 17 C0.5 20 0.3 22 0 25 C-2 23 -2 23 -2.3 21 C-2.2 14 -1.5 6.9 0 0 Z " fill="#B05436" transform="translate(927,1616)"/><path d="M0 0 C1.0 0 2.0 0 3 0 C2.3 3.3 1.7 6.6 1 10 C0.3 10 -0.3 10 -1 10 C-1 11 -1 13 -1 14 C-1.7 14 -2.3 14 -3 14 C-3.1 5.4 -3.1 5.4 -2 2 C-1.3 2 -0.7 2 0 2 C0 1.3 0 0.7 0 0 Z " fill="#C34E2A" transform="translate(948,1623)"/><path d="M0 0 C0.7 0 1.3 0 2 0 C0.3 4.9 -2.4 9.0 -5.1 13 C-5.6 14 -6.1 15 -6.5 16 C-7.7 17 -8.8 19 -10 21 C-11 18 -11 18 -10 16 C-9.8 15 -9.5 15 -9.1 14 C-8.7 13 -8.3 12 -7.9 12 C-7.5 11 -7.5 11 -7 10 C-6.3 10 -5.7 10 -5 10 C-5 9.3 -5 8.7 -5 8 C-4.3 8 -3.7 8 -3 8 C-2.7 6.3 -2.3 4.7 -2 3 C-1.3 3 -0.7 3 0 3 C0 2.0 0 1.0 0 0 Z " fill="#F9E4D4" transform="translate(964,1531)"/><path d="M0 0 C4.9 0.9 4.9 0.9 6 2 C6.0 3.7 6.0 5.3 6 7 C4.5 7.1 3.1 7.1 1.6 7.1 C0.8 7.1 0.0 7.2 -0.8 7.2 C-3 7 -3 7 -5 5 C-2.7 4.3 -0.4 3.7 2 3 C2 2.3 2 1.7 2 1 C1.3 0.7 0.7 0.3 0 0 Z " fill="#AD4F2E" transform="translate(1073,1857)"/><path d="M0 0 C1.0 0.7 2.0 1.3 3 2 C2.7 2.7 2.3 3.3 2 4 C2.7 3.9 3.5 3.9 4.2 3.8 C7.5 4.0 8.6 4.9 11 7 C4.0 6.4 -2.4 4.1 -9 2 C-5.8 0.3 -3.7 -0.4 0 0 Z " fill="#F5DBC9" transform="translate(1040,1844)"/><path d="M0 0 C4.2 -0.5 6.4 0.7 10.0 2.8 C14 5.0 18 6.5 22 8 C22 8.7 22 9.3 22 10 C14 7.9 7.2 5.1 0 2 C0 1.3 0 0.7 0 0 Z " fill="#AF5F40" transform="translate(985,1835)"/><path d="M0 0 C-2.9 1.5 -5.7 2.7 -8.8 3.7 C-9.7 4.0 -11 4.3 -11 4.7 C-12 5.0 -13 5.3 -14 5.6 C-15 5.9 -16 6.3 -17 6.6 C-19 7.4 -22 8.2 -24 9 C-24 7.7 -24 6.4 -24 5 C-23 4.9 -22 4.8 -21 4.7 C-17 4.0 -15 3.0 -12 1 C-8.0 0.1 -4.1 -0.1 0 0 Z " fill="#FAE3D0" transform="translate(1228,1806)"/><path d="M0 0 C0.3 0 0.7 0 1 0 C1.1 1.5 1.1 2.9 1.1 4.4 C1.1 5.2 1.2 6.0 1.2 6.8 C1 9 1 9 -1 11 C-1.6 14 -1.6 14 -2 16 C-4.0 16 -6.0 16 -8 16 C-7.6 15 -7.2 15 -6.8 14 C-3.5 9.6 -1.2 5.6 0 0 Z " fill="#F5C1A8" transform="translate(1006,1492)"/><path d="M0 0 C0.9 0.3 0.9 0.3 1.9 0.6 C-0.5 1.8 -2.9 2.9 -5.3 4.1 C-6.0 4.4 -6.7 4.7 -7.4 5.1 C-11 6.9 -14 8.1 -18 7.6 C-19 6.6 -19 6.6 -19 3.5 C-19 2.5 -19 1.6 -19 0.6 C-17 3.6 -17 3.6 -17 5.6 C-10 3.8 -10 3.8 -4.3 0.8 C-2.1 -0.4 -2.1 -0.4 0 0 Z " fill="#A96147" transform="translate(1190.1328125,1855.421875)"/><path d="M0 0 C4.3 0 8.6 0 13 0 C14 2.0 14 4.0 15 6 C4.4 2.9 4.4 2.9 0 1 C0 0.7 0 0.3 0 0 Z " fill="#F6E0CD" transform="translate(972,1822)"/><path d="M0 0 C3.0 0.3 5.9 0.7 9 1 C8.0 1.5 8.0 1.5 7 2 C7 2.7 7 3.3 7 4 C3.0 5.8 -0.7 6.5 -5 7 C-4 4 -4 4 -1.9 2.8 C-1.3 2.5 -0.7 2.3 0 2 C0 1.3 0 0.7 0 0 Z " fill="#C25632" transform="translate(1212,1811)"/><path d="M0 0 C0.3 0.7 0.7 1.3 1 2 C-2.6 4.3 -5.6 4.2 -9.8 4.1 C-11 4.1 -12 4.1 -13 4.1 C-15 4.0 -15 4.0 -16 4 C-11 0.5 -6.3 -0.3 0 0 Z " fill="#C35632" transform="translate(884,1805)"/><path d="M0 0 C0.7 0.7 1.3 1.3 2 2 C2.7 1.3 3.3 0.7 4 0 C5.0 3.0 6.0 5.9 7 9 C5.3 9.7 3.7 10 2 11 C2 10 2 9.0 2 8 C1.3 8 0.7 8 0 8 C0 5.4 0 2.7 0 0 Z " fill="#C0502C" transform="translate(917,1677)"/><path d="M0 0 C0.1 0.6 0.2 1.2 0.2 1.9 C0.5 2.6 0.7 3.3 1 4 C1.7 4.3 2.3 4.5 3 4.8 C3.7 5.2 4.3 5.6 5 6 C5.8 9.6 5.8 9.6 6 13 C4.3 13 2.7 13 1 13 C0.6 11 0.3 9.4 -0.1 7.6 C-0.3 6.6 -0.5 5.6 -0.7 4.6 C-1 2 -1 2 0 0 Z " fill="#BC4D29" transform="translate(1046,1444)"/><path d="M0 0 C-2.6 2.6 -5.3 5.3 -8 8 C-8.3 7.3 -8.7 6.7 -9 6 C-9.7 6 -10 6 -11 6 C-11 5.3 -11 4.7 -11 4 C-12 3.7 -13 3.3 -14 3 C-12 2.3 -10 1.6 -8.1 0.9 C-7.0 0.6 -5.9 0.2 -4.8 -0.2 C-2 -1 -2 -1 0 0 Z " fill="#FBDCC7" transform="translate(1230,1814)"/><path d="M0 0 C1.3 0 2.6 0 4 0 C4 4.3 4 8.6 4 13 C0 10 0 10 -0.4 7.5 C-0.3 6.6 -0.3 5.7 -0.2 4.8 C-0.2 3.9 -0.2 3.0 -0.1 2.1 C-0.1 1.1 -0.1 1.1 0 0 Z " fill="#B84925" transform="translate(916,1668)"/><path d="M0 0 C3 1 3 1 3.9 2.8 C4.3 3.9 4.3 3.9 4.7 5.1 C5.1 6.2 5.1 6.2 5.4 7.3 C5.6 7.9 5.8 8.4 6 9 C0.4 7.3 -4.3 5.5 -9 2 C-8.3 1.7 -7.7 1.3 -7 1 C-6.0 1.7 -5.0 2.3 -4 3 C-1.4 3.2 -1.4 3.2 1 3 C0.7 2.0 0.3 1.0 0 0 Z " fill="#AA5336" transform="translate(1065,1615)"/><path d="M0 0 C1.6 0 3.3 0 5 0 C4.7 0.7 4.3 1.3 4 2 C2.7 1.3 1.4 0.7 0 0 Z M0 2 C2.9 2.6 5.4 3.6 8 5 C4.9 7.1 4.3 7.2 0.8 7.1 C-1.1 7.1 -1.1 7.1 -3 7 C-3 6.3 -3 5.7 -3 5 C-2.3 5 -1.7 5 -1 5 C-0.7 4.0 -0.3 3.0 0 2 Z " fill="#B4583D" transform="translate(1038,1494)"/><path d="M0 0 C0.3 0 0.7 0 1 0 C1.0 0.6 1.0 1.3 1.0 1.9 C1.4 8.6 3.1 13 7 18 C7.7 19 8.3 20 9 21 C3.1 19 3.1 19 2 18 C2.0 16 2.0 15 2 13 C1.0 13 0.0 12 -1 12 C-0.7 8.0 -0.3 4.1 0 0 Z " fill="#F4DCCC" transform="translate(913,1672)"/><path d="M0 0 C0 0.3 0 0.7 0 1 C-4.5 1.5 -4.5 1.5 -9 2 C-6.0 2.3 -3.1 2.7 0 3 C0 3.3 0 3.7 0 4 C-8.4 4.5 -8.4 4.5 -17 5 C-17 4.0 -16 3.0 -16 2 C-11 -0.5 -5.6 -0.2 0 0 Z " fill="#F0CAB6" transform="translate(1027,1433)"/><path d="M0 0 C0.9 0.4 1.8 0.8 2.7 1.2 C-1.1 4.7 -5.5 5.8 -10 7.2 C-8.1 2.4 -5.8 -1.3 0 0 Z " fill="#F7E3D3" transform="translate(1185.3125,1846.75)"/><path d="M0 0 C1.0 0.7 2.0 1.3 3 2 C1.4 3.1 -0.1 4.3 -1.7 5.4 C-2.6 6.0 -3.4 6.6 -4.3 7.3 C-6.8 8.9 -9.2 10.0 -12 11 C-12 9.7 -12 8.4 -12 7 C-11 6.6 -9.5 6.2 -8.2 5.8 C-4.7 4.4 -2.5 3.0 0 0 Z " fill="#F8E0CD" transform="translate(1200,1837)"/><path d="M0 0 C2.9 2.9 5.6 5.7 8 9 C7.4 8.7 6.8 8.4 6.2 8.1 C3.9 6.9 3.9 6.9 1 6 C0.0 9.5 0.0 9.5 -1 13 C-1.3 13 -1.7 13 -2 13 C-1.9 11 -1.7 9.4 -1.6 7.6 C-1.5 6.6 -1.4 5.6 -1.3 4.6 C-1 2 -1 2 0 0 Z " fill="#F7A989" transform="translate(979,1689)"/><path d="M0 0 C4.2 3.6 6.6 8.0 9.2 13 C9.7 14 10 14 11 15 C12 17 13 19 14 21 C13 22 13 22 12 23 C11 21 11 21 10 20 C9.3 18 8.5 17 7.7 15 C7.3 15 6.9 14 6.5 13 C4.8 10 3.0 7.1 1.2 4.1 C0 2 0 2 0 0 Z " fill="#A0553C" transform="translate(1043,1662)"/><path d="M0 0 C2.5 3.7 2.6 6.7 2 11 C0.5 14 0.5 14 -1 15 C-2.7 12 -3.1 11 -2.5 7.4 C-1.7 4.9 -0.9 2.5 0 0 Z " fill="#BD6143" transform="translate(923,1642)"/><path d="M0 0 C5.4 1.5 5.4 1.5 11 3 C11 4.3 12 5.6 12 7 C11 6.7 9.1 6.4 7.6 6.1 C6.8 5.9 6.0 5.7 5.2 5.5 C3 5 3 5 1 4 C1 3.3 1 2.7 1 2 C0.3 1.7 -0.3 1.3 -1 1 C-0.7 0.7 -0.3 0.3 0 0 Z " fill="#C85732" transform="translate(920,1876)"/><path d="M0 0 C0.7 0.3 1.3 0.7 2 1 C1.2 1.6 0.4 2.2 -0.4 2.9 C-4.1 6.5 -3.9 11 -4 16 C-4 17 -4 18 -4 19 C-6.1 17 -7.0 15 -7.4 12 C-6.7 7.0 -3.8 3.4 0 0 Z " fill="#AB5D3F" transform="translate(884,1837)"/><path d="M0 0 C-0.9 2 -0.9 2 -3 4 C-5.4 4.3 -7.6 4.2 -9.9 4.0 C-12 3.8 -12 3.8 -14 5 C-15 4.3 -15 3.7 -16 3 C-14 2.3 -12 1.6 -10 0.9 C-9.2 0.6 -8.1 0.2 -7.0 -0.2 C-4.1 -1.0 -2.8 -1.1 0 0 Z " fill="#F7E0CF" transform="translate(855,1814)"/><path d="M0 0 C2.0 -0.0 3.9 -0.0 5.9 -0.1 C7.0 -0.1 8.1 -0.1 9.2 -0.1 C12 0 12 0 14 1 C14 2.0 14 3.0 14 4 C15 4.3 16 4.7 17 5 C15 6 15 6 12 5.0 C10 4.5 8.8 4.1 7.4 3.6 C6.3 3.2 6.3 3.2 5.2 2.8 C3.5 2.2 1.7 1.6 0 1 C0 0.7 0 0.3 0 0 Z " fill="#AE5D43" transform="translate(1071,1624)"/><path d="M0 0 C0.7 0 1.3 0 2 0 C2 0.7 2 1.3 2 2 C3.3 2.3 4.6 2.7 6 3 C6.3 4.7 6.7 6.3 7 8 C3.7 7.4 1.0 6.6 -2 5 C-1.3 3.4 -0.7 1.7 0 0 Z " fill="#C2512D" transform="translate(1115,1620)"/><path d="M0 0 C0.5 0.7 0.9 1.3 1.4 2 C1.9 2.7 2.4 3.3 3 4 C3.7 4 4.3 4 5 4 C4.8 6.4 4.8 6.4 4 9 C1.4 10 1.4 10 -1 11 C-1.1 3.4 -1.1 3.4 0 0 Z " fill="#C05230" transform="translate(952,1608)"/><path d="M0 0 C1.0 0.3 2.0 0.7 3 1 C3 2.0 3 3.0 3 4 C2.0 4.5 2.0 4.5 1 5 C0.3 7.3 -0.4 9.6 -1 12 C-2.0 12 -3.0 12 -4 12 C-3.5 7.2 -2.8 4.0 0 0 Z " fill="#C25532" transform="translate(940,1575)"/><path d="M0 0 C2.3 0.3 4.6 0.7 7 1 C7.3 2.3 7.7 3.6 8 5 C4.2 6.3 2.6 5.4 -1 4 C-0.7 2.7 -0.3 1.4 0 0 Z " fill="#C55531" transform="translate(958,1820)"/><path d="M0 0 C-1.0 0.7 -2.0 1.3 -3 2 C-3.3 3.0 -3.7 4.0 -4 5 C-6.3 5.3 -8.6 5.7 -11 6 C-11 5.3 -10 4.7 -10 4 C-9.3 4 -8.7 4 -8 4 C-8 3.3 -8 2.7 -8 2 C-8.7 1.7 -9.3 1.3 -10 1 C-3.7 -1.4 -3.7 -1.4 0 0 Z " fill="#BB5D3A" transform="translate(850,1809)"/><path d="M0 0 C0.7 0 1.3 0 2 0 C4.2 3.4 4.3 4.6 4.2 8.6 C4.3 9.5 4.3 11 4.3 12 C4 14 4 14 2 16 C1.0 16 0.0 15 -1 15 C-0.7 14 -0.3 14 0 13 C1.8 9.1 1.4 4.4 0 0 Z " fill="#FBEBDD" transform="translate(1133,1634)"/><path d="M0 0 C3.3 1.6 6.6 3.3 10 5 C8.0 8.0 8.0 8.0 6 11 C5.0 11 4.0 10 3 10 C3.7 8.0 4.3 6.0 5 4 C3.7 4 2.4 4 1 4 C0.7 2.7 0.3 1.4 0 0 Z " fill="#BC6243" transform="translate(1099,1611)"/><path d="M0 0 C0 0.7 0 1.3 0 2 C-0.6 2.2 -1.1 2.4 -1.7 2.6 C-5.5 3.8 -9.3 5.1 -13 6.8 C-14 7.4 -14 7.4 -16 8 C-17 7.7 -17 7.3 -18 7 C-16 5.8 -14 4.7 -11 3.5 C-10 3.0 -10 3.0 -9.3 2.5 C-5.9 0.7 -4.0 0 0 0 Z " fill="#A85432" transform="translate(842,1811)"/><path d="M0 0 C7.2 0.4 13 1.1 20 4 C20 4.3 20 4.7 20 5 C13 4.6 6.7 3.3 0 1 C0 0.7 0 0.3 0 0 Z " fill="#AE5F43" transform="translate(1033,1854)"/><path d="M0 0 C11 -0.4 11 -0.4 15 2 C15 3.0 16 4.0 16 5 C11 4.0 5.4 3.0 0 2 C0 1.3 0 0.7 0 0 Z " fill="#F7D8C2" transform="translate(950,1815)"/><path d="M0 0 C0.7 0.3 1.3 0.7 2 1 C-3.0 7.9 -3.0 7.9 -8 15 C-8.3 14 -8.7 13 -9 12 C-7.9 9.8 -7.9 9.8 -6.2 7.5 C-5.5 6.3 -5.5 6.3 -4.6 5.2 C-3.2 3.3 -1.7 1.6 0 0 Z " fill="#FACFB8" transform="translate(935,1775)"/><path d="M0 0 C0.7 0.3 1.3 0.7 2 1 C0.5 7.6 0.5 7.6 -2.1 9.4 C-2.7 9.6 -3.4 9.8 -4 10 C-4 11 -4 12 -4 13 C-5.0 13 -6.0 12 -7 12 C-4.7 8.0 -2.4 4.1 0 0 Z " fill="#E2A98F" transform="translate(973,1538)"/><path d="M0 0 C2.0 0 4.0 0 6 0 C6.3 1.6 6.7 3.3 7 5 C4.4 4.7 1.7 4.3 -1 4 C-0.7 2.7 -0.3 1.4 0 0 Z " fill="#BA4926" transform="translate(1144,1871)"/><path d="M0 0 C2.5 1.0 2.5 1.0 5 2 C2.8 4.5 2.8 4.5 0 7 C-1.3 7 -2.6 7 -4 7 C-2.9 4.1 -2.2 2.2 0 0 Z " fill="#A96143" transform="translate(807,1830)"/><path d="M0 0 C3.1 2.6 4.0 5.2 5.2 9 C5.6 10 6.0 11 6.3 12 C7 15 7 15 6 18 C2.4 13 0 6.3 0 0 Z " fill="#F8A989" transform="translate(1090,1808)"/><path d="M0 0 C0.3 0 0.7 0 1 0 C2.0 5.3 3.0 11 4 16 C3.3 16 2.7 17 2 17 C-0.2 11 -1.5 6.4 0 0 Z " fill="#B7684B" transform="translate(917,1854)"/><path d="M0 0 C1.9 0.2 1.9 0.2 3.8 0.3 C5.2 0.4 5.2 0.4 6.6 0.6 C6.6 0.9 6.6 1.2 6.6 1.6 C-0.1 2.4 -6.6 2.7 -13 2.6 C-13 1.9 -13 1.2 -13 0.6 C-8.8 -0.4 -4.7 -0.4 0 0 Z " fill="#FDE9DA" transform="translate(1154.375,1852.4375)"/><path d="M0 0 C0.3 0 0.7 0 1 0 C1.3 2.2 1.7 4.4 2 6.6 C2.2 7.8 2.4 9.0 2.6 10 C3.0 14 3.1 17 3 21 C-0.5 15 -1.9 6.9 0 0 Z " fill="#FAD2B9" transform="translate(1081,1767)"/><path d="M0 0 C1.4 4.3 -0.5 6.9 -2.4 11 C-2.8 11 -3.1 12 -3.5 13 C-4.3 15 -5.1 16 -6 18 C-6.3 18 -6.7 18 -7 18 C-6.3 10.0 -6.3 10.0 -3 7 C-1.9 4.7 -0.9 2.4 0 0 Z " fill="#A6583E" transform="translate(956,1615)"/><path d="M0 0 C12 7.1 12 7.1 16 12 C15 12 14 12 13 12 C13 11 13 11 13 10 C11 9.3 8.4 8.7 6 8 C6 7.0 6 6.0 6 5 C4.3 4.7 2.7 4.3 1 4 C0.7 2.7 0.3 1.4 0 0 Z " fill="#AA5C3E" transform="translate(1082,1599)"/><path d="M0 0 C2.4 2.9 3.8 5.6 5.1 9.1 C6.4 13 6.4 13 8 16 C4.5 15 3.9 14 2 11 C0.1 7.2 -0.2 4.2 0 0 Z " fill="#F8AA8C" transform="translate(1053,1575)"/><path d="M0 0 C0.3 0 0.7 0 1 0 C1 3.0 1 5.9 1 9 C0.3 8.0 -0.3 7.0 -1 6 C-1.3 8.0 -1.7 10.0 -2 12 C-4 10 -4 10 -4.2 7.8 C-4.2 7.0 -4.1 6.2 -4.1 5.4 C-4.1 4.6 -4.1 3.7 -4.1 2.9 C-4.0 2.3 -4.0 1.6 -4 1 C-3.3 1.7 -2.7 2.3 -2 3 C-1.3 2.0 -0.7 1.0 0 0 Z " fill="#B14525" transform="translate(1031,1503)"/><path d="M0 0 C2.6 0 5.3 0 8 0 C8 0.7 8 1.3 8 2 C8.8 2.1 9.5 2.3 10 2.4 C13 3 13 3 16 4 C16 4.7 16 5.3 16 6 C12 5.3 8.8 4.3 5.2 2.9 C4.2 2.6 3.2 2.2 2.2 1.8 C1.5 1.6 0.8 1.3 0 1 C0 0.7 0 0.3 0 0 Z " fill="#F8DAC6" transform="translate(1004,1835)"/><path d="M0 0 C1.0 0.3 2.0 0.7 3 1 C1.7 2.3 0.4 3.6 -1 5 C-0.3 5 0.3 5 1 5 C1 5.7 1 6.3 1 7 C-1.3 7.3 -3.6 7.7 -6 8 C-5.7 4.9 -4.9 3.9 -2.6 1.7 C-1.8 1.1 -0.9 0.6 0 0 Z " fill="#AD5738" transform="translate(814,1824)"/><path d="M0 0 C1.0 0.3 2.0 0.7 3 1 C3.3 2.6 3.7 4.3 4 6 C4.7 6 5.3 6 6 6 C5.3 8.0 4.7 10.0 4 12 C1.2 9.2 1.5 6.8 1 3 C0.7 2.0 0.3 1.0 0 0 Z " fill="#C14F2B" transform="translate(1079,1749)"/><path d="M0 0 C2.7 2.5 4.6 4.6 6 8 C4.0 7.3 2.0 6.7 0 6 C-1.0 7.0 -2.0 8.0 -3 9 C-2.0 6.0 -1.0 3.1 0 0 Z " fill="#F9E2D2" transform="translate(1013,1727)"/><path d="M0 0 C0.3 0 0.7 0 1 0 C1.8 5.1 2.3 9.9 2 15 C1.0 16 0.0 16 -1 17 C-0.7 11 -0.3 5.8 0 0 Z " fill="#FCF0E4" transform="translate(945,1661)"/><path d="M0 0 C1.0 0.3 2.0 0.7 3 1 C4.2 3.6 4.2 3.6 5 6 C3.0 7.0 3.0 7.0 1 8 C-1 5 -1 5 -0.6 2.3 C-0.4 1.5 -0.2 0.8 0 0 Z " fill="#B95431" transform="translate(1029,1642)"/><path d="M0 0 C2.1 3.2 2.5 5.3 3 9 C2.3 9 1.7 9 1 9 C0.7 10.0 0.3 11 0 12 C-0.4 10 -0.8 8.8 -1.1 7.1 C-1.4 5.8 -1.4 5.8 -1.8 4.4 C-1.8 3.6 -1.9 2.8 -2 2 C-1.3 1.3 -0.7 0.7 0 0 Z " fill="#F8D9C6" transform="translate(1074,1742)"/><path d="M0 0 C1.5 1.0 1.5 1.0 3 2 C2.9 4.0 2.8 5.9 2.7 7.9 C2.6 9.0 2.6 10 2.5 11 C2.3 12 2.2 13 2 14 C1.0 15 0.0 15 -1 16 C-0.7 11 -0.3 5.4 0 0 Z " fill="#C24D2A" transform="translate(1042,1621)"/><path d="M0 0 C0.7 0.3 1.3 0.7 2 1 C1.4 1.3 0.7 1.5 0.1 1.8 C-2.3 2.9 -2.3 2.9 -3 6 C-5.9 8.2 -5.9 8.2 -9 10 C-10.0 9.7 -11 9.3 -12 9 C-8.0 6.0 -4.1 3.1 0 0 Z " fill="#FBE6D5" transform="translate(819,1827)"/><path d="M0 0 C1.3 0.7 2.6 1.3 4 2 C3.7 3.6 3.3 5.3 3 7 C2.3 7 1.7 7 1 7 C1 8.0 1 9.0 1 10 C0.3 10 -0.3 10 -1 10 C-1.1 2.2 -1.1 2.2 0 0 Z " fill="#C45A39" transform="translate(1084,1757)"/><path d="M0 0 C6.7 2.4 6.7 2.4 8.1 5 C8 7 8 7 6.6 8.8 C5.8 9.4 5.8 9.4 5 10 C4 7 4 7 4 3 C2.7 2.7 1.4 2.3 0 2 C0 1.3 0 0.7 0 0 Z " fill="#B65635" transform="translate(1117,1620)"/><path d="M0 0 C0.3 0 0.7 0 1 0 C1.5 6.3 1.5 6.3 -0.8 9.4 C-3.0 11 -4.4 11 -7 12 C-6.6 11 -6.2 11 -5.7 10 C-4.9 8.9 -4.9 8.9 -4.1 7.7 C-3.5 6.9 -3.0 6.1 -2.4 5.3 C-0.9 3.0 -0.9 3.0 0 0 Z " fill="#B66347" transform="translate(998,1494)"/><path d="M0 0 C0.7 0 1.3 0 2 0 C2.4 0.8 2.8 1.5 3.2 2.3 C3.8 3.3 4.3 4.3 4.9 5.3 C5.4 6.3 5.9 7.3 6.5 8.3 C8.0 11 8.0 11 10 14 C8.2 14 8.2 14 6 13 C4.3 11 4.3 11 2.8 7.6 C2.0 6.1 2.0 6.1 1.2 4.6 C0 2 0 2 0 0 Z " fill="#F9A787" transform="translate(1103,1843)"/><path d="M0 0 C1.3 -0.0 2.5 -0.1 3.8 -0.1 C4.5 -0.1 5.2 -0.2 6.0 -0.2 C8 0 8 0 11 2 C8.4 2.3 5.7 2.7 3 3 C3 4.0 3 5.0 3 6 C2.0 5.7 1.0 5.3 0 5 C0 3.4 0 1.7 0 0 Z " fill="#A75231" transform="translate(950,1817)"/><path d="M0 0 C1.1 3.4 0.8 5.8 0.1 9.2 C-0.1 10 -0.3 11 -0.5 12 C-0.7 13 -0.8 13 -1 14 C-2.0 14 -3.0 14 -4 14 C-3.0 9.2 -2.0 4.5 0 0 Z " fill="#AB5D43" transform="translate(975,1638)"/><path d="M0 0 C0.3 0.7 0.7 1.3 1 2 C0.2 3.9 0.2 3.9 -1 6 C-1.3 6.7 -1.7 7.4 -2 8.1 C-3 10 -3 10 -5 12 C-4.6 3.6 -4.6 3.6 -1.9 0.9 C-1.3 0.6 -0.7 0.3 0 0 Z " fill="#C6532E" transform="translate(979,1639)"/><path d="M0 0 C0.3 0 0.7 0 1 0 C1.7 5.6 2.3 11 3 17 C2.0 18 1.0 18 0 19 C0 13 0 6.5 0 0 Z " fill="#F8DDCF" transform="translate(1047,1618)"/><path d="M0 0 C0.7 0.7 1.3 1.3 2 2 C1.6 6.5 -0.4 11 -2 15 C-3.3 11 -2.7 8.9 -1.6 5.2 C-1.3 4.3 -1.0 3.3 -0.7 2.3 C-0.5 1.5 -0.2 0.8 0 0 Z " fill="#FCDAC5" transform="translate(941,1584)"/><path d="M0 0 C0.7 1.0 1.3 2.0 2 3 C-0.3 6.3 -2.6 9.6 -5 13 C-6.0 13 -7.0 12 -8 12 C-7.5 11 -7.0 11 -6.5 9.9 C-5.9 9.0 -5.2 8.1 -4.6 7.1 C-3.9 6.2 -3.3 5.3 -2.6 4.4 C-1.0 2.1 -1.0 2.1 0 0 Z " fill="#F6D2BC" transform="translate(962,1551)"/><path d="M0 0 C2.3 0.3 4.6 0.7 7 1 C6.7 1.7 6.3 2.3 6 3 C3.4 3.6 3.4 3.6 1 4 C0.7 7.0 0.3 9.9 0 13 C-0.3 13 -0.7 13 -1 13 C-1.0 11 -1.0 9.4 -1.1 7.6 C-1.1 6.6 -1.1 5.6 -1.1 4.6 C-1 2 -1 2 0 0 Z " fill="#EECEBE" transform="translate(1033,1500)"/><path d="M0 0 C0.7 0.7 1.3 1.3 2 2 C1.8 4 1.8 4 1 6 C-2 8 -2 8 -4.2 7.6 C-4.8 7.4 -5.4 7.2 -6 7 C-4.7 5.6 -3.4 4.3 -2 3 C-1.3 3 -0.7 3 0 3 C0 2.0 0 1.0 0 0 Z " fill="#C04927" transform="translate(1047,1490)"/><path d="M0 0 C0.7 0.3 1.3 0.7 2 1 C0.7 3.5 0.7 3.5 -1 6 C-2.0 6 -3.0 6 -4 6 C-4.3 7.3 -4.7 8.6 -5 10 C-5.7 10 -6.3 10 -7 10 C-5.1 3.5 -5.1 3.5 -2 1 C-1.3 0.7 -0.7 0.3 0 0 Z " fill="#B95D3F" transform="translate(998,1439)"/><path d="M0 0 C1.9 3.3 2.5 6.3 3 10 C3.7 10 4.3 10 5 10 C4.7 11 4.3 13 4 14 C1.0 10 -0.7 7.0 -1 2 C-0.7 1.3 -0.3 0.7 0 0 Z " fill="#A65031" transform="translate(1096,1875)"/><path d="M0 0 C6.4 0.3 11 1.5 16 5 C14 6 14 6 11 5.0 C9.5 4.5 8.2 4.1 6.9 3.6 C6.2 3.3 5.6 3.1 4.9 2.8 C3.3 2.2 1.6 1.6 0 1 C0 0.7 0 0.3 0 0 Z " fill="#AB5B3E" transform="translate(1016,1848)"/><path d="M0 0 C0.3 0 0.7 0 1 0 C1.5 5.3 1.5 5.3 1 8 C-2 10 -2 10 -5 12 C-5.7 11 -6.3 11 -7 10 C-6.4 9.8 -5.8 9.7 -5.2 9.5 C-1.8 7.2 -1.2 3.8 0 0 Z " fill="#F8E0D1" transform="translate(1242,1835)"/><path d="M0 0 C1.0 0.3 2.0 0.7 3 1 C2.7 2.6 2.3 4.3 2 6 C-1.0 5.7 -3.9 5.3 -7 5 C-5.7 4.3 -4.4 3.7 -3 3 C-1.3 1.5 -1.3 1.5 0 0 Z " fill="#B46447" transform="translate(895,1804)"/><path d="M0 0 C0.7 1.6 0.7 1.6 1 4 C-0.2 6.8 -0.2 6.8 -1.9 9.8 C-2.5 11 -3.1 12 -3.7 13 C-4.1 13 -4.5 14 -5 15 C-6 12 -6 12 -4.8 9.1 C-4.2 8.0 -3.6 6.9 -3.1 5.8 C-2.5 4.7 -1.9 3.6 -1.3 2.5 C-0.9 1.7 -0.5 0.9 0 0 Z " fill="#F5A88A" transform="translate(920,1799)"/><path d="M0 0 C1.2 0.0 2.5 0.0 3.8 0.1 C5.2 0.1 5.2 0.1 6.6 0.1 C6.6 0.5 6.6 0.8 6.6 1.1 C-7.0 3.4 -7.0 3.4 -13 3.1 C-13 2.8 -13 2.5 -13 2.1 C-8.8 0.3 -4.9 -0.1 0 0 Z " fill="#F8DECB" transform="translate(866.375,1802.875)"/><path d="M0 0 C0.3 0 0.7 0 1 0 C1.7 5.6 2.3 11 3 17 C2.3 17 1.7 17 1 17 C-0.5 14 -0.1 11 -0.1 7.4 C-0.1 6.7 -0.1 6.0 -0.0 5.2 C-0.0 3.5 -0.0 1.7 0 0 Z " fill="#B36246" transform="translate(1089,1770)"/><path d="M0 0 C0.3 0 0.7 0 1 0 C0.6 4.6 0.1 7.6 -3 11 C-5.9 11 -5.9 11 -9 10 C-9.3 9.3 -9.7 8.7 -10 8 C-7.7 8 -5.4 8 -3 8 C-2.0 5.4 -1.0 2.7 0 0 Z " fill="#A75C43" transform="translate(933,1685)"/><path d="M0 0 C0.3 0 0.7 0 1 0 C1.7 4.0 2.3 7.9 3 12 C2.0 12 1.0 12 0 12 C-0.7 10 -1.3 8.7 -2 7 C-1.3 7 -0.7 7 0 7 C0 4.7 0 2.4 0 0 Z " fill="#C15635" transform="translate(1042,1657)"/><path d="M0 0 C-0.3 2.0 -0.7 4.0 -1 6 C-2.0 6.3 -3.0 6.7 -4 7 C-4 6.3 -4 5.7 -4 5 C-4.7 4.7 -5.3 4.3 -6 4 C-5.7 3.7 -5.3 3.3 -5 3 C-6.3 2.3 -7.6 1.7 -9 1 C-5.8 -0.1 -3.3 -0.1 0 0 Z " fill="#BC5332" transform="translate(1155,1869)"/><path d="M0 0 C0.3 0 0.7 0 1 0 C1.2 1.6 1.4 3.2 1.6 4.9 C1.7 5.8 1.8 6.7 1.9 7.6 C2 10 2 10 1 12 C-0.3 12 -1.6 11 -3 11 C-2.7 10 -2.4 9.6 -2.1 8.9 C-1.0 5.9 -0.4 3.1 0 0 Z " fill="#CD623F" transform="translate(939,1664)"/><path d="M0 0 C1.0 0 2.0 0 3 0 C2.6 2.9 2.6 2.9 2 6 C1.0 6.5 1.0 6.5 0 7 C-0.7 6.7 -1.3 6.3 -2 6 C-1.5 3.8 -1.0 2.0 0 0 Z " fill="#BC4B29" transform="translate(983,1629)"/><path d="M0 0 C0.3 1.0 0.7 2.0 1 3 C-1.3 5.0 -3.6 7.0 -6 9 C-6.7 8.3 -7.3 7.7 -8 7 C-6.7 6.7 -5.4 6.3 -4 6 C-4 4.3 -4 2.7 -4 1 C-2.7 0.7 -1.4 0.3 0 0 Z " fill="#F4A889" transform="translate(969,1573)"/><path d="M0 0 C1.3 0.3 2.6 0.7 4 1 C4.7 4.0 5.3 6.9 6 10 C5.0 10 5.0 10 4 11 C3.3 9.5 2.7 8.1 2 6.6 C1.6 5.8 1.3 5.0 0.9 4.2 C0 2 0 2 0 0 Z " fill="#F9E5D6" transform="translate(1059,1570)"/><path d="M0 0 C0 4.2 -1.8 6.4 -4 10 C-4.7 10 -5.3 10 -6 10 C-5.6 5.2 -3.5 3.2 0 0 Z " fill="#FCE3D2" transform="translate(969,1543)"/><path d="M0 0 C2.0 0.6 4.0 1.3 6 2 C7.4 4.8 6.9 7.0 6.6 10 C6.5 11 6.4 12 6.3 13 C6.2 14 6.1 15 6 16 C5.7 16 5.3 16 5 16 C5.0 15 5.0 15 4.9 14 C4.9 12 4.8 11 4.8 10 C4.7 9.2 4.7 8.1 4.6 7.0 C3.9 3.5 2.7 2.3 0 0 Z " fill="#F79C7C" transform="translate(1021,1495)"/><path d="M0 0 C0.7 0.3 1.3 0.7 2 1 C0.9 2.3 -0.2 3.7 -1.3 5 C-2.2 6.1 -2.2 6.1 -3.2 7.2 C-5 9 -5 9 -8 9 C-7.0 7.8 -6.1 6.7 -5.1 5.5 C-4.3 4.5 -4.3 4.5 -3.5 3.5 C-2.8 2.8 -2.8 2.8 -2 2 C-1.3 2 -0.7 2 0 2 C0 1.3 0 0.7 0 0 Z " fill="#FCE3D2" transform="translate(897,1822)"/><path d="M0 0 C-3.8 3.4 -8.2 4.6 -13 6 C-12 3 -12 3 -8.8 1.3 C-5.5 0.2 -3.4 -0.3 0 0 Z " fill="#F9DFCA" transform="translate(840,1810)"/><path d="M0 0 C1.3 4.0 0.2 5.4 -1.4 9.2 C-1.9 10 -2.4 11 -2.9 12 C-3.4 14 -3.4 14 -4 15 C-4.7 14 -5.3 14 -6 13 C-4.0 8.7 -2.0 4.4 0 0 Z " fill="#F7A98A" transform="translate(952,1605)"/><path d="M0 0 C0.7 0 1.3 0 2 0 C3.6 3.5 4.2 6.1 4 10 C1 8 1 8 0.5 6.1 C0.3 4.0 0.2 2.0 0 0 Z " fill="#FCE6D6" transform="translate(1070,1735)"/><path d="M0 0 C1.5 1.2 1.5 1.2 3 3 C3.2 5.7 3.2 5.7 3 8 C2.0 8 1.0 8 0 8 C-1.1 2.2 -1.1 2.2 0 0 Z " fill="#BF522E" transform="translate(940,1651)"/><path d="M0 0 C1.6 4.0 0.3 7.0 -1 11 C-2.0 11 -3.0 11 -4 11 C-3.0 7.1 -2.0 3.5 0 0 Z " fill="#E2AD94" transform="translate(945,1582)"/><path d="M0 0 C4.9 2.6 4.9 2.6 6 6 C5.7 6.7 5.3 7.3 5 8 C4.0 7.7 3.0 7.3 2 7 C2 5.3 2 3.7 2 2 C1.3 2 0.7 2 0 2 C0 1.3 0 0.7 0 0 Z M1 8 C2.0 8.5 2.0 8.5 3 9 C2.0 9.5 2.0 9.5 1 10 C1 9.3 1 8.7 1 8 Z " fill="#B96140" transform="translate(929,1877)"/><path d="M0 0 C0 0.7 0 1.3 0 2 C-1.2 2.9 -1.2 2.9 -2.4 3.9 C-4.9 5.9 -5.9 7.1 -7 10 C-7.3 10 -7.7 10 -8 10 C-8.4 7.8 -8.4 7.8 -8 5 C-5.8 2.5 -3.4 0 0 0 Z " fill="#B45837" transform="translate(952,1754)"/><path d="M0 0 C0.3 0 0.7 0 1 0 C1 3.6 1 7.3 1 11 C0.3 11 -0.3 11 -1 11 C-2.0 6.6 -2.0 4.1 0 0 Z " fill="#F9A889" transform="translate(1038,1642)"/><path d="M0 0 C1.3 0.1 2.5 0.2 3.8 0.4 C4.9 0.5 4.9 0.5 6.0 0.6 C8 1 8 1 11 3 C11 3.7 11 4.3 11 5 C12 5 12 5 13 5 C13 5.7 12 6.3 12 7 C8.0 5.0 4.1 3.0 0 1 C0 0.7 0 0.3 0 0 Z " fill="#A95A3F" transform="translate(1088,1630)"/><path d="M0 0 C0.3 0.7 0.7 1.3 1 2 C0.2 3.9 0.2 3.9 -0.9 6.1 C-1.3 6.8 -1.7 7.6 -2.1 8.3 C-2.4 8.9 -2.7 9.4 -3 10 C-3.7 10 -4.3 10 -5 10 C-4.6 5.2 -3.7 3.1 0 0 Z " fill="#FEEEE1" transform="translate(947,1576)"/><path d="M0 0 C4.8 0.5 7.6 0.8 12 3 C8.0 3 4.1 3 0 3 C0 2.0 0 1.0 0 0 Z " fill="#AE5637" transform="translate(1051,1852)"/><path d="M0 0 C0.3 0 0.7 0 1 0 C1 2.6 1 5.3 1 8 C2.6 7.0 4.3 6.0 6 5 C5.7 6.3 5.3 7.6 5 9 C3.1 9.6 3.1 9.6 1 10 C0 9 0 9 -0.1 6.9 C-0.1 6.1 -0.1 5.3 -0.1 4.4 C-0.1 3.6 -0.0 2.8 -0.0 1.9 C-0.0 1.3 -0.0 0.7 0 0 Z " fill="#9D4B2E" transform="translate(1234,1835)"/><path d="M0 0 C3 2 3 2 3.7 4.6 C3.9 5.6 4.0 6.6 4.2 7.6 C4.3 8.6 4.5 9.6 4.7 11 C4.8 11 4.9 12 5 13 C2.6 10 1.5 7.9 0.8 4.2 C0.7 3.5 0.5 2.7 0.3 1.8 C0.2 1.2 0.1 0.6 0 0 Z " fill="#FAE2D3" transform="translate(1106,1826)"/><path d="M0 0 C-0.3 1.6 -0.7 3.3 -1 5 C-3.3 5.3 -5.6 5.7 -8 6 C-7.0 3.5 -6.3 2.2 -4 0.8 C-2 0 -2 0 0 0 Z " fill="#C6603C" transform="translate(824,1821)"/><path d="M0 0 C2 2 2 2 2.2 3.9 C2.1 6.0 2.1 8.0 2 10 C1.3 10 0.7 10 0 10 C-1.1 2.2 -1.1 2.2 0 0 Z " fill="#FEE9D8" transform="translate(1079,1763)"/><path d="M0 0 C0.7 0 1.3 0 2 0 C0.5 3.4 -1.5 6.2 -4 9 C-5.0 9.3 -6.0 9.7 -7 10 C-5.3 6.0 -2.9 3.2 0 0 Z " fill="#F8AB8C" transform="translate(963,1751)"/><path d="M0 0 C1.3 3.8 0.4 5.4 -1 9 C-2.5 7.8 -2.5 7.8 -4 6 C-4.2 3.3 -4.2 3.3 -4 1 C-3.3 1.7 -2.7 2.3 -2 3 C-1.3 2.0 -0.7 1.0 0 0 Z " fill="#C45230" transform="translate(1031,1498)"/><path d="M0 0 C1.9 -0.3 1.9 -0.3 4.1 -0.2 C5.4 -0.1 6.7 -0.1 8 0 C8 0.7 8 1.3 8 2 C4.7 2.3 1.4 2.7 -2 3 C-1.3 2.0 -0.7 1.0 0 0 Z " fill="#C4532B" transform="translate(1017,1429)"/><path d="M0 0 C1.3 0.3 2.6 0.7 4 1 C4 1.7 4 2.3 4 3 C5.7 3 7.3 3 9 3 C9.3 4.0 9.7 5.0 10 6 C8.5 5.6 7.0 5.1 5.6 4.7 C4.7 4.4 3.9 4.2 3.1 3.9 C2.0 3.5 2.0 3.5 1 3 C0.7 2.0 0.3 1.0 0 0 Z " fill="#FCE5D2" transform="translate(922,1872)"/><path d="M0 0 C2.8 2.8 3.4 3.4 4 7 C3.0 7 2.0 7 1 7 C0.7 8.0 0.3 9.0 0 10 C0 6.7 0 3.4 0 0 Z " fill="#EEB398" transform="translate(1062,1714)"/><path d="M0 0 C2.0 0 4.0 0 6 0 C6 0.7 6 1.3 6 2 C6.7 2 7.3 2 8 2 C7.3 3.3 6.7 4.6 6 6 C6 5.3 6 4.7 6 4 C5.2 3.7 4.4 3.4 3.6 3.1 C1 2 1 2 0 0 Z " fill="#C85732" transform="translate(1093,1629)"/><path d="M0 0 C2.6 0 5.3 0 8 0 C8 1.0 8 2.0 8 3 C5.4 2.7 2.7 2.3 0 2 C0 1.3 0 0.7 0 0 Z " fill="#B66344" transform="translate(1054,1859)"/><path d="M0 0 C1.0 0.3 2.0 0.7 3 1 C4.2 4.1 4.2 4.1 5 7 C5.7 7 6.3 7 7 7 C6.7 8.0 6.3 9.0 6 10 C5.0 8.7 4.0 7.4 3 6.1 C2.4 5.4 1.9 4.7 1.3 3.9 C0 2 0 2 0 0 Z " fill="#A35032" transform="translate(1078,1842)"/><path d="M0 0 C-2 2 -2 2 -5 3 C-5.3 3.7 -5.7 4.3 -6 5 C-6.7 5 -7.3 5 -8 5 C-8 3.7 -8 2.4 -8 1 C-3.4 -1.1 -3.4 -1.1 0 0 Z " fill="#B45D3F" transform="translate(1213,1813)"/><path d="M0 0 C1 2 1 2 0.2 4.6 C-0.2 5.6 -0.5 6.6 -0.9 7.6 C-1.5 9.1 -1.5 9.1 -2.1 11 C-2.4 11 -2.7 12 -3 13 C-4.1 9.7 -3.9 8.0 -2.6 4.8 C-2.3 4.1 -2.1 3.4 -1.8 2.7 C-1 1 -1 1 0 0 Z " fill="#F8DCCA" transform="translate(960,1736)"/><path d="M0 0 C3.9 1.7 6.8 4.2 10 7 C9.3 7.7 8.7 8.3 8 9 C6.7 7.7 5.3 6.4 4 5.1 C3.3 4.3 2.5 3.6 1.8 2.8 C0 1 0 1 0 0 Z " fill="#A4593E" transform="translate(1101,1637)"/><path d="M0 0 C0.7 0 1.3 0 2 0 C1.7 0.7 1.4 1.4 1.1 2.1 C-0.0 5.1 -1.0 8.0 -2 11 C-3.2 9.4 -3.2 9.4 -4 7 C-2.9 4.4 -1.5 2.3 0 0 Z " fill="#FAE3D3" transform="translate(993,1440)"/><path d="M0 0 C-7.5 5 -7.5 5 -11 5 C-11 4.3 -11 3.7 -11 3 C-10 3 -9.0 3 -8 3 C-8 2.3 -8 1.7 -8 1 C-5.3 -0.4 -3.0 -0.1 0 0 Z " fill="#F8DECC" transform="translate(1014,1427)"/><path d="M0 0 C1.5 2.3 2.8 4.5 4 7 C1.0 6.5 1.0 6.5 -2 6 C-1.5 3.8 -1.0 2.0 0 0 Z " fill="#FAF0E3" transform="translate(897,1880)"/><path d="M0 0 C1.6 0 3.3 0 5 0 C5.7 1.6 6.3 3.3 7 5 C5.7 4.7 4.4 4.3 3 4 C3.3 3.0 3.7 2.0 4 1 C2.0 2.0 2.0 2.0 0 3 C0 2.0 0 1.0 0 0 Z " fill="#BD502C" transform="translate(1119,1879)"/><path d="M0 0 C0.3 1.0 0.7 2.0 1 3 C-0.7 4.7 -2.3 6.3 -4 8 C-4.3 6.7 -4.7 5.4 -5 4 C-3.4 2.7 -1.7 1.4 0 0 Z " fill="#F8E5D6" transform="translate(882,1836)"/><path d="M0 0 C3.0 0.3 5.9 0.7 9 1 C8.0 1.5 8.0 1.5 7 2 C7 2.7 7 3.3 7 4 C5.3 3.7 3.7 3.3 2 3 C2 2.3 2 1.7 2 1 C1.3 0.7 0.7 0.3 0 0 Z " fill="#C55D3A" transform="translate(1212,1811)"/><path d="M0 0 C2.6 3.1 3.8 6.1 5 10 C4.0 10 3.0 10 2 10 C1.3 6.7 0.7 3.3 0 0 Z " fill="#A8563B" transform="translate(1057,1685)"/><path d="M0 0 C0.7 0.3 1.3 0.7 2 1 C0.0 5.5 0.0 5.5 -2 10 C-2.3 10 -2.7 10 -3 10 C-3 7.7 -3 5.4 -3 3 C-2.0 2.7 -1.0 2.3 0 2 C0 1.3 0 0.7 0 0 Z " fill="#A95E42" transform="translate(943,1577)"/><path d="M0 0 C1.0 0.3 2.0 0.7 3 1 C1.0 3.3 -1.0 5.6 -3 8 C-3.3 7.0 -3.7 6.0 -4 5 C-3.3 4.0 -2.7 3.0 -2 2 C-1.3 2 -0.7 2 0 2 C0 1.3 0 0.7 0 0 Z " fill="#FAE4D2" transform="translate(976,1514)"/><path d="M0 0 C0.7 1.3 1.3 2.6 2 4 C1.0 5.0 0.0 6.0 -1 7 C-2.0 6.0 -3.0 5.0 -4 4 C-2.7 2.7 -1.4 1.4 0 0 Z " fill="#C0502C" transform="translate(1003,1434)"/><path d="M0 0 C1.0 0.3 2.0 0.7 3 1 C-0.5 4.0 -0.5 4.0 -4 7 C-3.7 5.3 -3.3 3.7 -3 2 C-2.0 2 -1.0 2 0 2 C0 1.3 0 0.7 0 0 Z " fill="#F5D9C5" transform="translate(1000,1432)"/><path d="M0 0 C3.0 0 5.9 0 9 0 C8.7 1.0 8.3 2.0 8 3 C6.3 3 4.7 3 3 3 C3 2.3 3 1.7 3 1 C2.0 0.7 1.0 0.3 0 0 Z " fill="#F7EDDF" transform="translate(1132,1852)"/><path d="M0 0 C3.0 1.0 5.9 2.0 9 3 C9 3.3 9 3.7 9 4 C6.7 4 4.4 4 2 4 C1.3 2.7 0.7 1.4 0 0 Z " fill="#FEECDC" transform="translate(976,1833)"/><path d="M0 0 C0.3 0.7 0.7 1.3 1 2 C-1.0 4.0 -2.5 4.8 -5 6 C-5 5.0 -5 4.0 -5 3 C-2.5 1.3 -2.5 1.3 0 0 Z " fill="#FCE9D9" transform="translate(1226,1831)"/><path d="M0 0 C1.3 0.1 2.5 0.2 3.8 0.4 C4.9 0.5 4.9 0.5 6.0 0.6 C8 1 8 1 11 3 C8.8 4.0 7.4 4.1 5.2 3.4 C3.4 2.6 1.7 1.8 0 1 C0 0.7 0 0.3 0 0 Z " fill="#B36547" transform="translate(965,1828)"/><path d="M0 0 C0.7 0 1.3 0 2 0 C1.8 2.4 1.8 2.4 1 5 C-1.6 6.3 -1.6 6.3 -4 7 C-2.7 4.7 -1.4 2.4 0 0 Z " fill="#AC5336" transform="translate(903,1816)"/><path d="M0 0 C1.0 0.3 2.0 0.7 3 1 C1.0 2.0 1.0 2.0 -1 3 C-1 3.7 -1 4.3 -1 5 C-3.0 6.0 -3.0 6.0 -5 7 C-3.7 4.1 -2.3 2.1 0 0 Z " fill="#B74B27" transform="translate(940,1806)"/><path d="M0 0 C2.0 1.0 2.0 1.0 4 2 C4 4.6 4 7.3 4 10 C1.8 6.7 1.0 3.8 0 0 Z " fill="#FCEADB" transform="translate(1081,1738)"/><path d="M0 0 C0.7 0 1.3 0 2 0 C2.7 1.8 2.7 1.8 3 4 C1.7 5.6 1.7 5.6 0 7 C-0.7 8.0 -1.3 9.0 -2 10 C-1.5 6.5 -1.1 3.3 0 0 Z " fill="#F4D0BD" transform="translate(936,1676)"/><path d="M0 0 C2.6 3.9 1.8 5.6 1 10 C0.3 10 -0.3 10 -1 10 C-0.7 6.7 -0.3 3.4 0 0 Z " fill="#AE5B3F" transform="translate(927,1616)"/><path d="M0 0 C3.4 1.1 6.0 2.0 9 4 C9 4.7 9 5.3 9 6 C5.1 4.7 2.8 3.1 0 0 Z " fill="#F5A384" transform="translate(1096,1618)"/><path d="M0 0 C1.6 0 3.3 0 5 0 C5.7 1.6 6.3 3.3 7 5 C3.5 3.0 3.5 3.0 0 1 C0 0.7 0 0.3 0 0 Z " fill="#F6E4D4" transform="translate(1073,1592)"/><path d="M0 0 C1.3 0 2.6 0 4 0 C3.7 1.9 3.7 1.9 3 4 C2.0 4.7 1.0 5.3 0 6 C0 4.0 0 2.0 0 0 Z " fill="#FCF0E0" transform="translate(1217,1820)"/><path d="M0 0 C0.7 0.3 1.3 0.7 2 1 C0.0 3.0 -2.0 5.0 -4 7 C-5.0 6.7 -6.0 6.3 -7 6 C-4.7 4.0 -2.4 2.0 0 0 Z " fill="#F9E4D4" transform="translate(975,1785)"/><path d="M0 0 C0.7 0 1.3 0 2 0 C2.3 1.0 2.7 2.0 3 3 C1.4 4.3 -0.3 5.6 -2 7 C-1.3 4.7 -0.7 2.4 0 0 Z " fill="#AC5132" transform="translate(991,1764)"/><path d="M0 0 C0.7 0.3 1.3 0.7 2 1 C1.2 3.4 1.2 3.4 0 6 C-2.1 6.8 -2.1 6.8 -4 7 C-2.7 4.7 -1.4 2.4 0 0 Z " fill="#F19877" transform="translate(999,1552)"/><path d="M0 0 C0.7 1.8 0.7 1.8 1 4 C-0.4 5.8 -0.4 5.8 -2 7 C-2.3 5.3 -2.7 3.7 -3 2 C-2.0 1.3 -1.0 0.7 0 0 Z " fill="#F7ECDE" transform="translate(971,1519)"/></svg> 