<?xml version="1.0" encoding="UTF-8"?><svg xmlns="http://www.w3.org/2000/svg" viewBox="1490 620 597 878"><path d="M0 0 C12 5.7 19 15 24 28 C27 37 28 46 30 55 C31 54 31 53 32 53 C43 40 57 26 75 25 C83 25 89 25 94 30 C99 35 100 39 102 45 C104 55 104 55 110 62 C111 62 112 62 113 63 C119 66 122 69 126 74 C127 75 127 76 128 77 C130 85 129 93 126 101 C124 106 121 109 118 113 C117 114 117 115 116 115 C114 118 111 120 109 122 C108 123 107 124 106 124 C104 126 104 126 102 127 C103 128 104 128 105 129 C118 135 129 142 135 156 C137 164 136 171 132 179 C128 184 124 187 119 190 C112 195 110 200 107 208 C103 216 99 222 91 225 C79 229 66 227 55 222 C45 217 38 211 31 203 C30 202 29 201 28 200 C28 201 28 201 29 202 C36 221 38 239 38 259 C38 260 38 261 38 262 C38 275 38 288 35 301 C35 302 34 303 34 304 C30 323 23 341 15 359 C13 363 12 368 9.9 372 C11 371 12 371 12 370 C25 361 38 355 53 350 C53 350 54 349 55 349 C58 348 61 347 65 345 C82 339 97 330 111 317 C111 316 112 316 113 315 C124 304 132 286 135 270 C134 270 134 271 134 271 C121 285 103 292 87 300 C64 310 46 325 33 347 C31 350 30 352 28 355 C27 355 27 355 26 355 C26 349 28 345 30 340 C31 339 31 339 32 338 C45 313 66 301 91 289 C111 280 126 270 141 253 C142 253 144 254 145 254 C147 278 133 303 119 321 C113 327 107 332 100 337 C98 338 98 338 97 339 C85 347 71 351 58 356 C30 367 7.5 377 -6.4 405 C-7.0 406 -7.6 407 -8.1 408 C-19 430 -25 453 -31 476 C-32 476 -34 475 -35 475 C-36 461 -34 450 -29 437 C-23 420 -17 402 -25 384 C-25 384 -26 383 -26 382 C-27 381 -27 380 -27 379 C-33 367 -44 359 -54 351 C-60 347 -65 343 -70 338 C-71 337 -72 337 -72 336 C-85 323 -91 305 -97 289 C-97 288 -97 287 -98 287 C-98 285 -99 282 -100 280 C-100 280 -100 279 -101 278 C-102 275 -102 272 -102 268 C-97 268 -95 269 -91 272 C-85 276 -79 280 -72 283 C-47 296 -47 296 -37 305 C-36 306 -36 306 -35 307 C-25 316 -19 329 -15 342 C-15 343 -15 344 -14 345 C-12 355 -12 365 -11 375 C-11 377 -11 378 -11 380 C-11 384 -11 389 -11 393 C6.4 359 20 325 28 288 C28 287 28 285 29 284 C34 257 30 226 21 200 C21 201 21 201 21 202 C17 222 12 242 -5.2 256 C-12 260 -19 262 -27 261 C-33 259 -37 256 -42 252 C-48 247 -53 246 -60 246 C-70 245 -76 245 -82 238 C-88 231 -88 222 -87 213 C-86 203 -80 194 -74 185 C-75 185 -76 185 -77 185 C-93 188 -112 188 -126 179 C-133 174 -137 168 -138 160 C-139 155 -138 151 -136 147 C-133 139 -131 132 -134 124 C-135 123 -135 121 -136 120 C-138 114 -138 108 -136 103 C-132 95 -125 91 -117 88 C-101 84 -83 88 -67 92 C-68 91 -68 91 -68 90 C-71 85 -73 79 -75 73 C-76 72 -76 71 -76 71 C-77 68 -77 66 -78 64 C-78 63 -79 62 -79 61 C-82 49 -82 34 -76 23 C-72 15 -66 10 -57 8.0 C-53 7.4 -49 7.9 -45 9.0 C-37 11 -37 11 -28 9.0 C-24 6.3 -20 3.1 -16 -0.0 C-11 -2.5 -5.1 -1.7 0 0 Z " fill="#A84163" transform="translate(1683.11328125,782.0234375)"/><path d="M0 0 C1.1 0.5 2.2 0.9 3.3 1.4 C15 6.5 24 13 29 25 C30 31 29 35 26 40 C23 45 18 49 13 53 C5.3 59 2.4 66 -1.4 75 C-4.7 81 -9.0 83 -15 85 C-26 86 -34 85 -44 80 C-45 79 -46 79 -47 78 C-65 68 -76 48 -85 29 C-86 29 -88 29 -89 29 C-89 31 -89 32 -89 34 C-89 34 -89 35 -89 36 C-89 39 -89 39 -89 42 C-88 48 -88 53 -88 59 C-88 60 -88 62 -88 63 C-88 81 -94 99 -106 113 C-112 118 -118 120 -125 119 C-130 119 -133 116 -137 113 C-146 106 -154 105 -165 105 C-170 104 -173 103 -177 100 C-181 94 -182 88 -181 81 C-178 69 -172 57 -163 49 C-158 47 -154 45 -149 44 C-146 43 -144 42 -141 41 C-140 41 -139 41 -137 40 C-128 37 -119 32 -113 25 C-111 24 -111 24 -108 24 C-106 25 -106 25 -104 26 C-96 27 -90 26 -83 21 C-82 20 -81 18 -80 17 C-78 14 -77 13 -74 13 C-68 12 -63 12 -57 12 C-43 12 -28 7.0 -15 0.5 C-9.0 -2.3 -5.9 -2.6 0 0 Z " fill="#E096AA" transform="translate(1783,916)"/><path d="M0 0 C0.3 0 0.7 0 1 0 C1.3 1.6 1.7 3.3 2 5 C3.0 5 4.0 5 5 5 C6.0 5.5 6.0 5.5 7 6 C7.8 46 -0.1 79 -16 116 C-17 120 -19 125 -21 129 C-20 128 -19 128 -18 127 C-5.9 118 7.4 113 22 107 C22 107 23 106 24 106 C27 105 30 104 34 102 C51 96 66 87 80 74 C81 73 81 73 82 72 C93 61 101 43 104 27 C104 27 103 28 103 28 C90 42 73 49 56 57 C33 67 15 82 2 104 C0.4 107 -1.2 109 -3 112 C-3.7 112 -4.3 112 -5 112 C-4.5 106 -3.0 102 -0.4 97 C-0.1 97 0.3 96 0.6 95 C14 70 35 58 60 46 C80 37 95 27 110 10 C112 10 112 10 114 11 C116 35 102 60 88 78 C82 84 76 89 69 94 C68 95 68 95 66 96 C54 104 41 108 27 113 C-0.9 124 -23 134 -37 162 C-38 163 -38 164 -39 165 C-50 187 -56 210 -62 233 C-63 233 -65 232 -66 232 C-67 218 -64 207 -60 194 C-54 177 -48 159 -56 141 C-56 141 -57 140 -57 139 C-57 138 -58 137 -58 136 C-64 124 -75 116 -85 108 C-91 104 -96 100 -101 95 C-102 94 -102 94 -103 93 C-116 80 -122 63 -128 46 C-128 45 -128 44 -129 44 C-129 42 -130 39 -131 37 C-131 36 -131 36 -131 35 C-133 32 -133 29 -133 25 C-128 25 -125 26 -122 29 C-116 33 -110 37 -103 40 C-78 53 -78 53 -68 62 C-67 63 -67 63 -66 64 C-56 73 -50 86 -46 99 C-46 100 -45 101 -45 102 C-43 112 -42 122 -42 132 C-42 134 -42 135 -42 137 C-42 141 -42 146 -42 150 C-20 108 -1.5 63 -0.4 15 C-0.3 13 -0.3 12 -0.3 10 C-0.2 6.9 -0.1 3.4 0 0 Z " fill="#A74163" transform="translate(1714,1025)"/><path d="M0 0 C9.3 3.0 14 10 19 18 C23 26 24 34 26 43 C26 44 26 45 27 46 C29 57 26 63 20 72 C15 81 9.9 93 10 103 C10 107 10.0 110 9 114 C5.7 117 2.1 118 -2 120 C-4.3 122 -4.3 122 -6 123 C-6.7 122 -7.4 121 -8.1 121 C-17 110 -28 100 -41 96 C-50 92 -54 89 -58 80 C-60 77 -61 73 -62 70 C-62 69 -63 68 -63 68 C-68 53 -72 35 -65 21 C-62 16 -59 12 -53 10 C-47 9.6 -42 10.0 -36 12 C-29 13 -25 12 -19 8 C-17 6.6 -15 5.2 -14 3.8 C-8.5 0.1 -6.1 -1.2 0 0 Z " fill="#E096AA" transform="translate(1679,788)"/><path d="M0 0 C4.9 5.0 5.9 10 6.9 17 C7.8 23 9.1 27 14 31 C16 32 19 34 21 35 C27 38 30 42 33 48 C34 56 32 63 28 70 C22 77 16 83 8 88 C7.3 89 6.6 89 5.8 90 C2.2 91 -0.2 91 -4.1 90 C-19 89 -36 88 -50 94 C-51 94 -51 95 -52 95 C-56 96 -59 98 -63 100 C-63 99 -64 98 -64 96 C-65 93 -66 92 -69 89 C-71 87 -71 87 -71 85 C-70 82 -69 80 -68 78 C-63 66 -61 53 -61 40 C-60 32 -58 29 -52 23 C-51 21 -49 20 -48 18 C-38 6.4 -16 -11 0 0 Z " fill="#E095A9" transform="translate(1772,816)"/><path d="M0 0 C0.9 0.0 1.8 0.0 2.8 0.0 C11 0.2 19 1.8 27 4.4 C28 4.6 29 4.9 30 5.1 C39 7.4 43 12 48 19 C56 31 66 39 78 44 C81 45 83 46 85 47 C87 51 87 54 86 58 C85 59 85 59 84 59 C69 62 53 68 42 78 C33 87 18 87 6.2 87 C-17 85 -17 85 -26 76 C-30 70 -30 66 -29 59 C-28 57 -28 57 -27 55 C-24 47 -24 38 -26 30 C-27 28 -27 27 -28 25 C-29 21 -30 17 -29 13 C-25 6.8 -19 2.9 -12 0.8 C-8.0 -0.0 -4.1 -0.0 0 0 Z " fill="#E096AA" transform="translate(1581.9375,874.625)"/><path d="M0 0 C0.3 0 0.7 0 1 0 C1.7 17 -0.2 34 -8.2 49 C-9.1 51 -9.1 51 -8.9 53 C-7.5 56 -5.2 58 -3 61 C-2.3 63 -1.6 64 -1 66 C-0.0 66 0.9 65 1.9 65 C3.2 64 4.5 63 5.8 63 C6.7 62 6.7 62 7.7 62 C18 57 28 56 40 56 C41 56 41 56 43 56 C50 56 56 56 62 57 C65 57 67 56 70 54 C75 53 75 53 77 54 C77 55 76 56 76 57 C75 57 74 57 73 57 C73 58 73 60 73 61 C74 61 75 62 76 62 C77 62 78 63 79 63 C79 64 80 65 80 66 C76 68 72 66 68 66 C63 66 59 68 54 70 C48 73 42 75 36 76 C35 77 35 77 34 77 C26 79 19 80 12 80 C2.0 80 2.0 80 -6.8 83 C-8.8 85 -8.8 85 -10 88 C-13 92 -17 93 -21 94 C-30 95 -30 95 -34 93 C-36 92 -36 92 -38 92 C-40 93 -40 93 -43 96 C-46 99 -50 101 -55 103 C-55 104 -56 104 -57 104 C-62 107 -62 107 -64 107 C-64 104 -64 104 -65 101 C-66 101 -67 102 -67 102 C-68 102 -69 103 -70 103 C-71 103 -72 104 -73 104 C-76 105 -76 105 -78 104 C-72 100 -66 96 -59 93 C-60 92 -60 92 -61 91 C-61 89 -61 89 -60 87 C-55 84 -49 84 -43 84 C-43 83 -44 83 -44 82 C-44 80 -44 79 -44 77 C-44 77 -44 76 -44 75 C-44 74 -44 74 -44 73 C-46 73 -47 72 -49 72 C-49 71 -49 69 -49 68 C-47 68 -47 68 -45 67 C-46 67 -46 67 -47 66 C-56 63 -62 56 -69 50 C-69 49 -70 48 -70 48 C-75 43 -75 43 -76 40 C-75 40 -75 41 -74 41 C-72 42 -72 42 -69 43 C-70 42 -71 42 -72 41 C-72 40 -71 39 -71 38 C-68 37 -66 37 -64 38 C-54 45 -45 53 -37 61 C-36 61 -36 60 -35 60 C-34 59 -34 59 -33 58 C-33 58 -32 57 -31 57 C-29 55 -27 54 -24 53 C-24 52 -24 52 -24 50 C-23 35 -19 23 -12 10 C-12 11 -12 11 -11 12 C-12 15 -13 17 -14 20 C-15 21 -15 22 -15 22 C-16 24 -17 26 -18 28 C-17 28 -16 27 -15 27 C-15 25 -14 24 -14 22 C-13 22 -12 22 -11 22 C-9.3 19 -7.7 15 -6 12 C-5.7 12 -5.3 12 -5 12 C-5.3 15 -5.7 18 -6 21 C-4.0 21 -4.0 21 -2 22 C-1.2 15 -0.6 7.3 0 0 Z " fill="#AD3F64" transform="translate(1711,849)"/><path d="M0 0 C1.6 3.2 0.1 5.3 -0.9 8.6 C-3.8 17 -7.7 25 -12 33 C-13 34 -13 35 -14 36 C-28 61 -55 72 -80 82 C-89 85 -97 88 -105 92 C-107 93 -108 93 -110 94 C-111 94 -111 93 -112 93 C-111 92 -111 92 -110 90 C-108 87 -106 84 -104 80 C-90 55 -71 40 -45 28 C-34 23 -23 18 -13 11 C-12 11 -12 10 -11 9.8 C-6.9 6.9 -3.5 3.6 0 0 Z " fill="#E195AA" transform="translate(1818,1051)"/><path d="M0 0 C4.3 1.6 8.3 3.8 12 6.1 C17 8.5 21 11 25 13 C45 23 61 36 69 58 C73 72 74 86 74 101 C71 99 70 96 68 92 C61 80 50 71 38 62 C17 46 7.7 26 0 2 C0 1.3 0 0.7 0 0 Z " fill="#E196AA" transform="translate(1592,1063)"/><path d="M0 0 C9.3 3.0 14 10 19 18 C23 26 24 34 26 43 C26 44 26 44 27 46 C27 48 27 51 27 54 C27 55 27 56 27 57 C27 60 27 60 25 62 C25 62 25 63 24 63 C24 62 24 61 24 60 C22 44 19 24 6 13 C5.1 12 4.3 11 3.4 11 C-1.6 8.2 -5.6 7.9 -11 9 C-14 10 -17 12 -20 13 C-26 17 -31 17 -38 15 C-43 14 -48 14 -53 16 C-59 20 -63 26 -64 33 C-64 35 -64 37 -64 40 C-64 41 -64 42 -64 43 C-64 45 -64 46 -64 47 C-64 49 -64 50 -64 51 C-64 54 -64 58 -64 61 C-70 52 -69 38 -68 28 C-66 21 -62 15 -56 11 C-49 8.8 -43 9.7 -36 12 C-29 13 -25 12 -19 8 C-17 6.6 -15 5.2 -14 3.8 C-8.5 0.1 -6.1 -1.2 0 0 Z " fill="#F9E9EA" transform="translate(1679,788)"/><path d="M0 0 C12 1.2 24 8.1 32 17 C36 22 39 27 38 34 C36 43 30 49 22 55 C14 61 11 68 7.6 77 C5.0 82 1.6 84 -3 86 C-6.1 87 -8.8 87 -12 87 C-10 85 -8.2 84 -6.1 83 C-5.4 82 -4.7 82 -4 82 C-3.0 81 -3.0 81 -2 81 C3.0 77 4.8 71 6.7 65 C9.3 58 13 53 19 47 C25 40 27 35 26 26 C26 20 23 17 18 12 C14 9.2 9.7 7.7 5 6 C3.5 5.4 1.9 4.8 0.4 4.2 C-0.7 3.8 -1.9 3.4 -3 3 C-1.7 1.5 -1.7 1.5 0 0 Z " fill="#FAEEED" transform="translate(1774,914)"/><path d="M0 0 C-1.0 0.9 -1.0 0.9 -2 1.8 C-11 11 -17 21 -17 33 C-17 38 -17 41 -14 44 C-9.6 48 -4.4 50 0.9 52 C7.0 54 11 57 16 62 C21 67 27 70 34 71 C34 71 34 72 34 72 C25 73 21 70 14 65 C6.3 58 -2.2 58 -12 58 C-17 57 -20 56 -24 53 C-28 47 -29 41 -28 34 C-25 22 -19 10 -10 2 C-6.5 0.3 -3.9 -0.2 0 0 Z " fill="#F8F0ED" transform="translate(1630,963)"/><path d="M0 0 C6.4 6.6 6.5 14 7 23 C4.3 19 1.9 16 -0.5 12 C-2.5 9.3 -4.3 8.1 -7.6 7.6 C-21 7.0 -32 14 -42 23 C-44 25 -46 27 -48 29 C-49 30 -49 30 -50 31 C-53 34 -56 38 -58 42 C-58 42 -59 42 -59 42 C-60 38 -60 34 -58 30 C-56 27 -54 25 -52 23 C-51 22 -50 21 -49 20 C-39 7.6 -17 -12 0 0 Z " fill="#F9EDEB" transform="translate(1772,816)"/><path d="M0 0 C0.9 0.0 1.8 0.0 2.8 0.0 C11 0.2 19 1.8 27 4.4 C28 4.7 29 5.0 31 5.3 C37 7.2 40 8.7 44 14 C44 15 43 16 43 16 C42 16 41 15 40 15 C27 8.1 8.7 5.2 -5.8 9.5 C-12 13 -17 16 -20 22 C-21 27 -21 30 -22 35 C-22 36 -22 36 -22 37 C-22 39 -22 41 -22 43 C-22 43 -23 43 -23 43 C-23 43 -23 42 -23 42 C-24 37 -25 32 -27 28 C-29 23 -30 19 -29 13 C-25 6.8 -19 2.9 -12 0.8 C-8.0 -0.0 -4.1 -0.0 0 0 Z " fill="#F9ECEB" transform="translate(1581.9375,874.625)"/><path d="M0 0 C5.5 3 5.5 3 7 6 C7.1 12 6.3 17 2 22 C-1.9 25 -5.9 27 -11 26 C-15 25 -18 23 -20 20 C-21 16 -21 14 -20 10 C-15 2.3 -8.8 -1.1 0 0 Z " fill="#E496AC" transform="translate(1695,910)"/><path d="M0 0 C20 5.7 41 19 51 37 C56 47 61 57 60 68 C58 66 57 64 56 60 C51 47 42 36 32 26 C31 25 31 25 30 24 C22 16 12 8.9 2.0 3.2 C1.3 2.8 0.7 2.4 0 2 C0 1.3 0 0.7 0 0 Z " fill="#F9EAE9" transform="translate(1603,1070)"/><path d="M0 0 C1.0 0.5 1.0 0.5 2 1 C0.4 2.3 -1.1 3.7 -2.7 5 C-4.0 6.1 -4.0 6.1 -5.3 7.2 C-15 15 -27 21 -38 27 C-49 32 -60 38 -69 47 C-70 48 -72 49 -73 50 C-73 51 -74 51 -74 52 C-76 53 -76 53 -79 55 C-78 50 -75 47 -72 44 C-71 43 -70 43 -70 42 C-58 29 -44 21 -28 14 C-14 7.9 -14 7.9 0 0 Z " fill="#F9E9EC" transform="translate(1801,1065)"/><path d="M0 0 C1 3 1 3 -0.6 6.6 C-1.3 8.1 -2.1 9.6 -2.9 11 C-13 31 -19 52 -24 74 C-25 74 -27 73 -28 73 C-29 56 -24 41 -19 25 C-18 25 -17 25 -16 25 C-16 26 -15 27 -15 28 C-14 26 -14 25 -13 23 C-12 23 -11 23 -10 23 C-9.5 21 -9.5 21 -8.9 19 C-6.7 13 -3.3 6.3 0 0 Z " fill="#953B5B" transform="translate(1676,1184)"/><path d="M0 0 C0.7 0.7 1.3 1.3 2 2 C-16 9.8 -33 13 -52 14 C-51 9.9 -49 9.5 -45 7.6 C-31 0.8 -16 -2.3 0 0 Z " fill="#E592A8" transform="translate(1761,911)"/><path d="M0 0 C0.3 0 0.7 0 1 0 C1.3 1.6 1.7 3.3 2 5 C3.0 5 4.0 5 5 5 C5.7 5.3 6.3 5.7 7 6 C7.1 10 7.1 14 7.1 18 C7.1 20 7.1 21 7.2 23 C7.5 49 7.5 49 3.4 54 C2.7 54 2.7 54 2 55 C1.5 54 1.5 54 1 52 C-0.3 52 -1.6 52 -3 52 C-2.9 50 -2.7 48 -2.6 46 C-2.5 45 -2.4 44 -2.3 43 C-2.1 40 -1.8 38 -1.5 36 C-0.6 29 -0.6 22 -0.4 15 C-0.4 14 -0.4 12 -0.3 11 C-0.2 7.1 -0.1 3.5 0 0 Z " fill="#A03D5D" transform="translate(1714,1025)"/><path d="M0 0 C0.3 0 0.7 0 1 0 C0.9 1.4 0.7 2.8 0.6 4.2 C0.5 5.0 0.4 5.8 0.3 6.6 C0.0 8.8 -0.4 11 -1 13 C-0.3 13 0.3 13 1 13 C1 14 1 14 1 15 C1.7 15 2.3 15 3 15 C4.0 10 5.0 5.8 6 1 C6.3 1 6.7 1 7 1 C6.9 18 -2.6 33 -14 44 C-16 46 -18 47 -20 48 C-21 48 -22 47 -23 47 C-22 47 -22 47 -21 46 C-22 45 -23 44 -24 43 C-23 40 -22 39 -19 37 C-8.5 28 -3.7 13 0 0 Z " fill="#A93E61" transform="translate(1694,992)"/><path d="M0 0 C-1.0 0.4 -1.0 0.4 -1.9 0.8 C-4.3 1.9 -4.3 1.9 -5 5 C-3.6 4.4 -3.6 4.4 -2.3 3.9 C-1.1 3.4 0.1 2.9 1.3 2.4 C2.5 2.0 3.7 1.5 4.9 1.0 C8 0 8 0 11 1 C9.5 1.6 7.9 2.3 6.4 2.9 C5.3 3.4 4.2 3.9 3.1 4.3 C-0.0 5.6 -3.1 6.8 -6.2 8.1 C-19 13 -31 18 -42 27 C-43 27 -43 26 -44 26 C-44 25 -44 23 -44 22 C-45 22 -45 21 -46 21 C-37 14 -12 -4.8 0 0 Z " fill="#9B395B" transform="translate(1738,1134)"/><path d="M0 0 C2.9 3.3 3.9 6.4 5 11 C5.3 12 5.7 13 6.0 14 C6.3 16 6.7 17 7 18 C7.3 19 7.6 20 7.9 21 C11 32 14 45 11 56 C11 56 10 56 10 56 C9.7 54 9.3 52 9 50 C7.5 50 7.5 50 6 51 C3.9 48 3.7 47 3.3 43 C3.2 42 3.1 41 3.0 40 C2.9 39 2.8 38 2.7 37 C1.6 27 -0.3 18 -3.0 8.5 C-4 5 -4 5 -4 3 C-1.5 4.0 -1.5 4.0 1 5 C0.7 3.4 0.3 1.7 0 0 Z " fill="#A94969" transform="translate(1709,980)"/><path d="M0 0 C-0.3 3.5 -1.2 6.0 -3 9 C-9.1 14 -16 17 -23 19 C-23 17 -24 15 -24 13 C-25 13 -26 14 -26 14 C-27 14 -28 15 -29 15 C-30 15 -31 16 -32 16 C-35 17 -35 17 -37 16 C-31 11 -8.0 -4.0 0 0 Z " fill="#B14166" transform="translate(1670,937)"/><path d="M0 0 C8.6 1.9 14 7.9 18 15 C24 25 28 37 28 48 C28 49 28 50 28 51 C28 52 28 52 28 53 C28 53 27 53 27 53 C27 51 27 50 27 48 C26 48 25 48 24 48 C23 49 23 50 22 51 C22 50 21 48 21 47 C19 37 16 28 11 20 C11 19 10 18 10 17 C10 16 11 16 11 15 C12 16 12 17 13 18 C14 19 14 20 15 21 C16 21 16 21 17 21 C17 17 16 15 13 13 C11 10 11 10 11 8 C10 8 9.7 8 9 8 C7.7 6.7 6.3 5.3 5 4 C3.3 3.0 1.7 2.0 0 1 C0 0.7 0 0.3 0 0 Z " fill="#9D4060" transform="translate(1683,783)"/><path d="M0 0 C0.3 0.7 0.7 1.3 1 2 C1.7 2 2.3 2 3 2 C3.3 2.8 3.7 3.7 4.1 4.6 C4.5 5.7 5.0 6.7 5.4 7.9 C5.9 9.0 6.3 10 6.8 11 C7.5 13 8.2 14 9 16 C12 15 12 15 14 13 C14 14 15 14 16 15 C16 16 17 17 18 18 C18 18 19 19 20 20 C25 26 31 31 37 36 C61 54 61 54 65 64 C65 65 65 65 64 67 C63 66 62 64 62 63 C61 62 61 62 60 61 C59 59 59 59 59 57 C58 57 58 57 57 57 C56 56 55 55 54 54 C48 46 40 40 31 35 C30 34 30 34 28 33 C28 32 28 32 28 31 C27 31 27 31 26 31 C24 29 22 27 21 25 C19 23 19 23 16 22 C16 26 19 28 22 31 C23 32 24 33 25 34 C26 35 26 35 27 36 C23 36 22 35 20 32 C19 32 19 31 18 31 C17 30 17 30 17 29 C9.9 22 0 10 0 0 Z " fill="#9D3C5B" transform="translate(1595,1090)"/><path d="M0 0 C0.3 0 0.7 0 1 0 C0.5 14 -2.8 27 -8 40 C-9.3 40 -11 40 -12 40 C-13 26 -6.7 12 0 0 Z " fill="#E691A8" transform="translate(1705,861)"/><path d="M0 0 C8.8 4.2 17 9.7 25 16 C25 16 26 17 26 17 C29 19 32 22 34 25 C34 26 34 28 34 29 C24 25 15 18 7.8 10 C7.1 9.5 6.4 8.8 5.8 8.1 C1.1 3.4 1.1 3.4 0 0 Z " fill="#EC9BB2" transform="translate(1635,889)"/><path d="M0 0 C1.2 3.7 0.5 4.8 -0.9 8.4 C-3.1 15 -3.8 20 -4 27 C-5.3 27 -6.6 26 -8 26 C-5.9 32 -4.1 37 1.8 41 C5.2 42 8.4 43 12 43 C12 43 12 44 12 44 C6.0 44 1.7 44 -3 40 C-9.0 33 -10 29 -10 20 C-10 19 -10 19 -10 17 C-10 12 -9.5 8.6 -7 4 C-3.9 2.7 -3.9 2.7 -1 2 C-0.7 1.3 -0.3 0.7 0 0 Z " fill="#973E59" transform="translate(1606,982)"/><path d="M0 0 C0.3 0.7 0.7 1.3 1 2 C2.3 2 3.6 2 5 2 C5.3 2.7 5.7 3.3 6 4 C6.7 4 7.3 4 8 4 C7.2 7.4 6.2 11 5.2 14 C4.8 15 4.4 16 4.1 18 C3.7 19 3.3 20 2.9 21 C2.6 22 2.2 24 1.8 25 C0.9 28 -0.1 31 -1 34 C-2.3 34 -3.6 33 -5 33 C-4.7 22 -2.9 11 0 0 Z " fill="#AE486B" transform="translate(1710,1075)"/><path d="M0 0 C2.5 2.1 3.9 3.7 5.1 6.8 C4.9 12 2.6 15 -1 18 C-4.9 21 -8.9 23 -13 26 C-14 24 -14 24 -13 22 C-13 21 -13 20 -12 19 C-12 18 -11 17 -11 16 C-10 15 -10 14 -9.6 13 C-9.1 12 -8.7 11 -8.2 10 C-7.2 7.9 -6.1 5.5 -5 3 C-4.7 3.7 -4.3 4.3 -4 5 C-2.3 3.4 -1.1 2.1 0 0 Z " fill="#F6EBE8" transform="translate(1706,1129)"/><path d="M0 0 C0.5 1.0 0.5 1.0 1 2 C-0.3 5.8 -1.6 6.1 -5 8 C-6.0 8.7 -7.0 9.3 -8 10 C-12 11 -16 13 -20 14 C-23 14 -25 15 -28 16 C-30 17 -30 17 -33 17 C-32 14 -32 13 -30 11 C-24 6.8 -17 5.1 -10 4 C-6.6 2.8 -3.3 1.4 0 0 Z " fill="#A84164" transform="translate(1766,1122)"/><path d="M0 0 C1.3 0.7 2.6 1.3 4 2 C1.1 5.2 -1.7 7.1 -5.5 9.1 C-9.3 11 -9.3 11 -13 13 C-16 16 -19 17 -22 18 C-23 19 -23 19 -24 19 C-28 21 -31 21 -35 20 C-30 15 -25 11 -18 11 C-18 10 -19 9.0 -19 8 C-18 7.9 -17 7.8 -17 7.8 C-11 6.5 -4.7 4.1 0 0 Z " fill="#AA4365" transform="translate(1794,1063)"/><path d="M0 0 C0.3 0 0.7 0 1 0 C1.7 18 -0.2 36 -10 52 C-11 50 -11 49 -10 46 C-10 46 -11 46 -11 46 C-10 40 -9.3 35 -7.9 29 C-7.8 28 -7.6 27 -7.4 27 C-6.9 25 -6.5 23 -6 21 C-4.7 21 -3.4 22 -2 22 C-1.2 15 -0.6 7.3 0 0 Z " fill="#A53B5C" transform="translate(1711,849)"/><path d="M0 0 C1.6 0.2 3.2 0.4 4.8 0.7 C6.3 0.9 7.9 1.1 9.4 1.3 C16 2.2 20 4.1 24 9 C26 13 26 15 25 19 C22 18 22 15 20 12 C19 9.5 18 8.4 15 7 C8.9 6.2 2.8 6.6 -3.1 8.1 C-5.0 8.6 -5.0 8.6 -7 9 C-8.0 8.3 -9.0 7.7 -10 7 C-7.9 3.8 -7.3 3.5 -3.9 2.3 C-3.2 2.1 -2.4 1.8 -1.7 1.6 C-0.8 1.3 -0.8 1.3 0 1 C0 0.7 0 0.3 0 0 Z " fill="#A44162" transform="translate(1755,807)"/><path d="M0 0 C0.3 0.7 0.7 1.3 1 2 C0.7 2.7 0.3 3.3 0 4 C-0.4 9.4 -0.1 13 2 18 C4.6 25 4.4 31 4 38 C3.3 37 2.7 36 2 35 C0.7 35 -0.6 35 -2 35 C-2.1 34 -2.2 34 -2.3 33 C-3.1 29 -4.0 25 -5.7 21 C-7.0 17 -7.1 16 -6 13 C-5.3 14 -4.7 14 -4 15 C-3.9 14 -3.8 13 -3.6 12 C-3.5 11 -3.3 10 -3.1 9.2 C-3.0 8.1 -2.8 7.0 -2.6 5.9 C-2 3 -2 3 0 0 Z " fill="#9E3E5C" transform="translate(1554,884)"/><path d="M0 0 C-1.3 0.7 -2.7 1.3 -4 2 C-4.8 2.4 -5.7 2.9 -6.5 3.3 C-13 6.6 -20 9.2 -28 11 C-28 12 -29 12 -30 12 C-34 13 -38 14 -42 14 C-42 13 -42 12 -42 11 C-43 10 -43 9.7 -44 9 C-43 8.8 -43 8.7 -42 8.5 C-40 7.7 -37 6.9 -34 6.1 C-33 5.9 -32 5.6 -32 5.3 C-31 5.0 -30 4.8 -29 4.5 C-28 4.3 -27 4.0 -26 3.8 C-24 3.0 -24 3.0 -21 1.8 C-19 1 -19 1 -15 2 C-20 4.5 -20 4.5 -25 7 C-19 5.8 -13 4.0 -7.6 1.0 C-4.8 -0.1 -2.9 -0.2 0 0 Z " fill="#A63C5C" transform="translate(1778,913)"/><path d="M0 0 C1.3 0.3 2.6 0.7 4 1 C3.7 1.7 3.3 2.3 3 3 C3.2 3.8 3.4 4.5 3.6 5.3 C4.4 10 0.8 15 -2 19 C-5.6 23 -9.0 24 -14 25 C-13 19 -10 15 -5.5 12 C-2.5 8.4 -1.3 4.1 0 0 Z " fill="#A44968" transform="translate(1784,983)"/><path d="M0 0 C12 -0.3 24 -0.4 36 3 C36 3.7 36 4.3 36 5 C35 5.3 33 5.7 32 6 C35 7.0 37 8.0 40 9 C36 10 35 9.7 30 8.6 C19 5.9 7.5 6.7 -4 7 C0.0 3.0 6.9 4.0 12 3.9 C16 3.9 19 4.0 22 4 C19 1.1 11 2.0 7.7 1.9 C4.8 1.9 1.9 2.0 -1 2 C-0.7 1.3 -0.3 0.7 0 0 Z " fill="#973D5B" transform="translate(1571,869)"/><path d="M0 0 C0.3 1.0 0.7 2.0 1 3 C1.7 3 2.3 3 3 3 C4.8 5.0 4.8 5.0 6.7 7.8 C7.3 8.6 8.0 9.5 8.6 10 C10 13 10 13 9.7 15 C9.5 16 9.2 16 9 17 C5.3 16 4.4 14 2 11 C1.3 11 0.7 10 0 10 C-0.2 9.3 -0.4 8.5 -0.6 7.8 C-2.7 3.6 -5.8 1.9 -10 0 C-13 -0.9 -17 -1.5 -20 -2 C-20 -3.0 -21 -4.0 -21 -5 C-12 -6.6 -6.5 -6.4 0 0 Z " fill="#AF446A" transform="translate(1691,788)"/><path d="M0 0 C0.7 0.3 1.3 0.7 2 1 C1.3 1.7 0.7 2.3 0 3 C1.0 4.5 1.0 4.5 2 6 C0.8 7.6 -0.5 9.2 -1.7 11 C-6.0 18 -5.2 26 -5.1 34 C-5.1 36 -5.1 36 -5.1 38 C-5.1 42 -5.0 45 -5 48 C-11 39 -10 25 -9 15 C-7.5 9.2 -4.4 4.1 0 0 Z " fill="#F9DBE2" transform="translate(1620,801)"/><path d="M0 0 C0.3 0 0.7 0 1 0 C0.4 7.1 -1.0 14 -2.9 20 C-3.3 22 -3.3 22 -3.7 24 C-3.9 24 -4.2 25 -4.4 26 C-4.7 27 -4.9 28 -5.1 29 C-5.4 30 -5.7 30 -6 31 C-7.0 31 -8.0 32 -9 32 C-9.3 31 -9.7 31 -10 30 C-10 31 -11 31 -11 32 C-13 34 -13 34 -15 36 C-16 39 -18 43 -19 46 C-21 52 -21 52 -23 53 C-22 47 -20 42 -18 36 C-16 30 -13 23 -12 17 C-11 15 -11 15 -9 14 C-9.1 15 -9.2 16 -9.3 17 C-9.4 18 -9.5 19 -9.6 20 C-9.7 21 -9.8 22 -9.9 23 C-10 26 -10 26 -9 28 C-8.3 28 -7.7 28 -7 28 C-6.6 26 -6.6 26 -6.2 25 C-4.2 17 -2.1 8.3 0 0 Z " fill="#9C4563" transform="translate(1716,1081)"/><path d="M0 0 C-11 7.3 -24 14 -37 17 C-33 12 -29 10.0 -23 7.4 C-22 7.0 -21 6.7 -20 6.3 C-3.2 -1.6 -3.2 -1.6 0 0 Z " fill="#F19AB3" transform="translate(1670,937)"/><path d="M0 0 C4.1 1.6 7.2 4.6 10 8 C10 8.7 10 9.3 10 10 C11 10 11 10 12 10 C12 11 12 11 12 12 C13 12 13 12 14 13 C17 14 17 14 18 17 C19 17 19 18 19 19 C18 19 18 20 17 20 C12 16 7.3 13 2.9 8.3 C2.1 7.6 1.3 6.9 0.6 6.1 C-1 4 -1 4 -0.7 1.7 C-0.5 1.2 -0.3 0.6 0 0 Z " fill="#AF3B64" transform="translate(1611,1111)"/><path d="M0 0 C6.0 1.6 9.8 4.5 14 9.1 C15 11 15 11 15 15 C11 14 8.1 12 4.8 9.7 C3.9 9.1 3.0 8.5 2.1 7.9 C-0.4 5.7 -0.8 4.3 -1 1 C-0.7 0.7 -0.3 0.3 0 0 Z " fill="#E68BA3" transform="translate(1654,903)"/><path d="M0 0 C13 5.6 22 13 28 26 C30 32 30 39 27 45 C26 45 26 44 25 44 C25 43 25 42 25 41 C26 41 26 41 27 41 C26 29 25 20 16 12 C11 7.6 5.8 4.6 0 2 C0 1.3 0 0.7 0 0 Z " fill="#954D64" transform="translate(1790,912)"/><path d="M0 0 C2 1 2 1 3.1 3.7 C6.6 15 6.6 15 6 21 C5.3 21 4.7 21 4 21 C3.7 22 3.3 23 3 24 C2.3 24 1.7 24 1 24 C0.5 22 -0.0 20 -0.5 18 C-0.8 17 -1.1 16 -1.3 15 C-2 12 -2 12 -2 9 C-1.0 9.3 -0.0 9.7 1 10 C0.7 6.7 0.3 3.4 0 0 Z " fill="#983C5C" transform="translate(1663,1114)"/><path d="M0 0 C5.0 2.7 9.0 5.5 13 9.4 C14 9.8 14 10 15 11 C18 14 21 17 24 21 C24 22 23 23 23 24 C18 18 18 18 18 16 C15 18 15 18 14 20 C13 19 13 19 12 18 C7.5 14 3.2 10 -2 7 C-1.3 6.7 -0.7 6.3 0 6 C3.6 8.6 7.3 11 11 14 C12 13 12 13 13 12 C12 11 10 9.7 8.6 8.6 C7.8 7.9 7.0 7.3 6.2 6.6 C4.1 5.0 4.1 5.0 2 4 C2 3.3 2 2.7 2 2 C1.3 2 0.7 2 0 2 C0 1.3 0 0.7 0 0 Z " fill="#8E425B" transform="translate(1632,1077)"/><path d="M0 0 C0.3 0.6 0.5 1.3 0.8 1.9 C1.9 4.3 1.9 4.3 5 5 C3 8 3 8 1.3 8.7 C-1.9 9.1 -5.0 8.8 -8.2 8.6 C-9.5 8.5 -11 8.4 -12 8.3 C-13 8.2 -14 8.1 -15 8 C-15 7.0 -16 6.0 -16 5 C-16 4.3 -15 3.7 -15 3 C-11 3 -7.7 3 -4 3 C-3.7 2.3 -3.3 1.7 -3 1 C-2.0 0.7 -1.0 0.3 0 0 Z " fill="#B3486B" transform="translate(1669,1033)"/><path d="M0 0 C7.5 0.6 11 2.5 16 8.0 C21 13 27 15 33 16 C33 16 33 17 33 17 C24 18 20 15 13 9.6 C8.5 6.0 3.8 4.4 -2 3 C-1.3 2.7 -0.7 2.3 0 2 C0 1.3 0 0.7 0 0 Z " fill="#F9DCE5" transform="translate(1631,1018)"/><path d="M0 0 C1.0 0.3 2.0 0.7 3 1 C4.0 1 5.0 1 6 1 C5.4 7.4 4.4 14 3 20 C1.7 20 0.4 19 -1 19 C-1.0 17 -1.0 15 -1.1 13 C-1.1 12 -1.1 11 -1.1 9.4 C-1.0 6.2 -0.6 3.2 0 0 Z " fill="#9F445F" transform="translate(1649,1238)"/><path d="M0 0 C2.6 2.5 5.0 5.1 7.3 7.9 C11 12 14 15 18 18 C17 19 16 19 15 20 C14 19 14 19 13 18 C11 17 11 17 8.4 17 C7.6 18 6.8 18 6 18 C4.7 15 3.3 11 2 8 C1.4 6.7 1.4 6.7 0.9 5.4 C0 3 0 3 0 0 Z " fill="#FAF0F0" transform="translate(1710,979)"/><path d="M0 0 C0.3 0.7 0.7 1.3 1 2 C-0.3 5.8 -1.5 6.2 -5 8 C-6.3 8.4 -7.7 8.7 -9 9 C-9.8 9.4 -11 9.7 -11 10 C-14 11 -16 11 -19 11 C-19 10 -19 9.0 -19 8 C-18 8 -17 8 -16 8 C-16 7.0 -17 6.0 -17 5 C-16 4.9 -16 4.9 -14 4.8 C-9.1 4.1 -4.6 2.0 0 0 Z " fill="#B34568" transform="translate(1766,1122)"/><path d="M0 0 C-0.3 6.2 -1.2 12 -5 17 C-6.0 17 -7.0 18 -8 18 C-9.7 19 -9.7 19 -11 21 C-11 20 -12 20 -12 19 C-11 17 -10 14 -9.4 12 C-9.1 12 -8.9 11 -8.6 10 C-7.2 7.1 -4.2 0 0 0 Z " fill="#B14066" transform="translate(1707,1110)"/><path d="M0 0 C4.1 1.4 7.5 3.5 11 5.8 C13 7.0 15 8.0 17 9 C16 9.5 16 9.5 15 10 C15 11 15 11 15 12 C14 12 14 11 13 11 C11 9.8 11 9.8 7.5 9.6 C3.9 9.0 2.7 8.2 0 6 C-1.0 6 -2.0 6 -3 6 C-2 4 -1 2 0 0 Z " fill="#B4496C" transform="translate(1594,1058)"/><path d="M0 0 C0.3 0 0.7 0 1 0 C2.8 10 3.2 20 3 30 C0.2 28 -1.4 25 -3.2 21 C-3.8 20 -4.3 19 -4.9 18 C-5.3 18 -5.6 17 -6 16 C-5.7 15 -5.3 15 -5 14 C-3.5 15 -3.5 15 -2 17 C-2 18 -2 19 -2 20 C-1.3 20 -0.7 20 0 20 C0.1 16 0.0 12 -0.6 7.8 C-0.9 4.6 -1.1 2.9 0 0 Z " fill="#F0B2C4" transform="translate(1663,1134)"/><path d="M0 0 C0 1.6 0 3.3 0 5 C-6.3 4.7 -13 4.3 -19 4 C-19 3.3 -19 2.7 -19 2 C-21 2 -22 2 -24 2 C-24 1.7 -24 1.3 -24 1 C-21 0.6 -18 0.3 -15 -0.1 C-15 -0.2 -14 -0.3 -13 -0.4 C-8.4 -0.9 -4.5 -1.0 0 0 Z " fill="#B04567" transform="translate(1737,923)"/><path d="M0 0 C2.9 3.4 4.0 6.7 5.2 11 C5.6 12 6.0 13 6.3 15 C7 18 7 18 6 22 C5.0 18 4.0 15 3 11 C2.3 11 1.7 11 1 11 C1 13 1 16 1 18 C-1.1 15 -1.8 12 -2.6 8.8 C-2.9 7.7 -3.1 6.6 -3.4 5.5 C-3.6 4.7 -3.8 3.9 -4 3 C-1.5 4.0 -1.5 4.0 1 5 C0.7 3.4 0.3 1.7 0 0 Z " fill="#A04863" transform="translate(1709,980)"/><path d="M0 0 C-0.1 2.3 -0.1 2.3 -1 5 C-3.0 6.1 -5.0 7.1 -7 8 C-9.4 9.9 -12 12 -14 14 C-15 13 -16 11 -17 10 C-16 9.4 -16 9.4 -15 8.8 C-15 8.3 -14 7.8 -13 7.2 C-13 6.7 -12 6.2 -11 5.6 C-9.4 4.3 -7.8 3.0 -6.2 1.6 C-4 0 -4 0 0 0 Z " fill="#AB4569" transform="translate(1742,1094)"/><path d="M0 0 C5.8 0.3 9.2 2.8 13 7 C15 11 15 13 14 17 C11 16 11 15 10 12 C8.5 8.8 7.3 6.8 4 5 C1.9 4.3 1.9 4.3 0 4 C0 2.7 0 1.4 0 0 Z " fill="#B1446B" transform="translate(1766,809)"/><path d="M0 0 C-0.7 0.7 -1.4 1.3 -2.1 2 C-5.5 5.3 -8.2 9.2 -11 13 C-12 12 -13 10 -14 9 C-15 10 -15 10 -16 12 C-17 12 -17 11 -18 11 C-17 9.5 -16 8.1 -14 6.6 C-14 5.8 -13 5.0 -12 4.2 C-8.5 0.6 -5.1 -0.3 0 0 Z " fill="#F8DEE3" transform="translate(1630,963)"/><path d="M0 0 C1.0 0.7 2.0 1.3 3 2 C4.0 2 5.0 2 6 2 C4.9 9.7 4.9 9.7 3 13 C-0.1 14 -0.1 14 -3 15 C-2.4 9.8 -1.6 5.0 0 0 Z " fill="#A44364" transform="translate(1653,1221)"/><path d="M0 0 C0.3 0 0.7 0 1 0 C1.3 5.9 1.7 12 2 18 C2.7 18 3.3 19 4 19 C4.7 18 5.3 16 6 15 C6.7 15 7.3 15 8 15 C6.4 21 3.7 26 1 31 C0.7 31 0.3 31 0 31 C0 21 0 11 0 0 Z " fill="#EDD0DA" transform="translate(1671,1146)"/><path d="M0 0 C4.6 0.5 8.7 1.4 13 3 C13 3.7 12 4.3 12 5 C9.4 5.6 9.4 5.6 7 6 C8.0 7.0 9.0 8.0 10 9 C2.6 8.5 2.6 8.5 -0.5 5.9 C-1.0 5.3 -1.5 4.7 -2 4 C-1.3 2.7 -0.7 1.4 0 0 Z " fill="#A13C5A" transform="translate(1741,998)"/><path d="M0 0 C3.8 2.9 5.9 6.9 8.0 11 C8.0 12 8.0 13 8.0 14 C7.3 14 6.6 14 6.0 14 C5.3 12 4.6 9.5 4.0 7.1 C3.3 7.1 2.6 7.1 2.0 7.1 C2.0 6.5 2.0 5.8 2.0 5.1 C0.6 4.5 -0.7 3.8 -2.0 3.1 C-2.0 2.5 -2.0 1.8 -2.0 1.1 C-8.2 0.8 -13 1.2 -19 3.4 C-21 4.2 -24 4.7 -26 5.1 C-19 -0.8 -8.8 -3.8 0 0 Z " fill="#D4A1AC" transform="translate(1769.03125,823.87890625)"/><path d="M0 0 C1.3 0 2.6 0 4 0 C4 0.7 4 1.3 4 2 C4.7 2.2 5.4 2.4 6.1 2.6 C10.0 4.5 13 7.1 16 10 C16 11 15 11 15 12 C11 12 10 11 7 8.6 C5.7 7.7 5.7 7.7 4.4 6.7 C3.6 6.2 2.8 5.6 2 5 C1.0 4.3 0.0 3.7 -1 3 C-0.7 2.0 -0.3 1.0 0 0 Z " fill="#AF4067" transform="translate(1630,1079)"/><path d="M0 0 C-3.0 3.0 -5.9 3.0 -10 3.1 C-11 3.1 -12 3.1 -13 3.1 C-15 3.1 -16 3.1 -17 3.1 C-18 3.1 -20 3.1 -21 3.1 C-22 3.1 -23 3.1 -25 3.0 C-28 3.0 -31 3.0 -34 3 C-34 2.3 -35 1.7 -35 1 C-31 0.8 -27 0.7 -23 0.5 C-22 0.5 -21 0.4 -20 0.4 C-13 0.1 -6.6 -0.1 0 0 Z " fill="#96435E" transform="translate(1610,965)"/><path d="M0 0 C7.5 1.9 14 6.6 18 13 C19 14 19 15 20 16 C22 21 22 26 21 32 C20 33 20 33 19 34 C19 33 19 32 19 31 C18 19 18 19 12 8.8 C8.1 5.9 4.2 3.9 0 2 C0 1.3 0 0.7 0 0 Z " fill="#92475C" transform="translate(1791,843)"/><path d="M0 0 C0.3 0.7 0.7 1.3 1 2 C2.0 1.7 3.0 1.3 4 1 C5.0 1.3 6.0 1.7 7 2 C7.3 3.0 7.7 4.0 8 5 C2.4 7 2.4 7 -1 7 C-2.0 7.5 -2.0 7.5 -3 8.1 C-5 9 -5 9 -8 8 C-7.3 7.0 -6.7 6.0 -6 5 C-6.3 4.3 -6.7 3.7 -7 3 C-4.7 2.0 -2.4 1.0 0 0 Z " fill="#AD3E64" transform="translate(1719,1139)"/><path d="M0 0 C8.1 3.5 13 11 18 18 C19 19 19 20 20 20 C22 23 24 25 24 29 C22 28 22 28 20 27 C19 25 18 22 17 20 C16 19 15 18 14 17 C13 14 13 14 12 12 C11 12 11 12 10 12 C10 11 10 11 10 10 C9.3 10 8.7 10 8 10 C8 9.3 8 8.7 8 8 C7.3 8 6.7 8 6 8 C3.9 6.1 3.9 6.1 2 4 C2 3.3 2 2.7 2 2 C1.3 2 0.7 2 0 2 C0 1.3 0 0.7 0 0 Z " fill="#CF99A5" transform="translate(1631,1093)"/><path d="M0 0 C0.7 0.3 1.3 0.7 2 1 C1.0 2.5 1.0 2.5 0 4 C0.2 4.6 0.4 5.3 0.6 5.9 C0.7 6.6 0.9 7.3 1 8 C-0.7 10 -0.7 10 -2.9 12 C-3.7 13 -4.4 14 -5.2 14 C-5.8 15 -6.4 15 -7 16 C-7 12 -5.9 11 -4 8 C-6.7 9.6 -9.4 11 -12 13 C-10 9.1 -8.0 7.0 -4.9 4.2 C-4.0 3.5 -3.1 2.7 -2.1 1.8 C-1.1 0.9 -1.1 0.9 0 0 Z " fill="#943B59" transform="translate(1731,819)"/><path d="M0 0 C0 1.0 0 2.0 0 3 C-2.7 5.5 -5.4 6.7 -8.8 7.9 C-12 9.2 -15 10 -18 13 C-21 15 -23 16 -27 16 C-24 13 -21 11 -18 9.0 C-17 8.5 -16 7.9 -14 7.4 C-13 6.8 -12 6.3 -11 5.8 C-10 5.2 -9.1 4.6 -8.0 4.1 C-5.3 2.7 -2.7 1.4 0 0 Z " fill="#D49CAA" transform="translate(1781,1081)"/><path d="M0 0 C4.3 6.4 5.4 13 5 21 C2.4 18 1.6 16 0.3 13 C-0.4 11 -0.4 11 -1.1 9.2 C-2.2 5.2 -1.8 3.6 0 0 Z " fill="#FAE6E9" transform="translate(1658,1117)"/><path d="M0 0 C0.3 0.7 0.7 1.3 1 2 C0.1 4.4 -0.9 6.7 -2 9 C-2.5 10 -2.5 10 -3.0 11 C-4.0 13 -5.0 15 -6 18 C-6.3 18 -6.7 19 -7.0 20 C-9.0 24 -11 28 -13 32 C-14 32 -14 32 -15 32 C-14 28 -12 24 -10 20 C-9.7 19 -9.2 18 -8.6 17 C-7.8 15 -7.8 15 -6.9 13 C-6.4 12 -5.8 11 -5.3 9.7 C-1.1 1.1 -1.1 1.1 0 0 Z " fill="#92445D" transform="translate(1688,1143)"/><path d="M0 0 C-0.1 2.7 -0.1 2.7 -1 6 C-3.1 8.0 -5.5 9.5 -8 11 C-10 6.6 -10 6.6 -9.3 3.8 C-6.6 0.1 -4.3 -0.2 0 0 Z " fill="#A14667" transform="translate(1740,816)"/><path d="M0 0 C0 0.7 0 1.3 0 2 C-1.1 2.4 -2.3 2.9 -3.5 3.4 C-5.0 4.0 -6.5 4.6 -8.1 5.2 C-8.8 5.5 -9.6 5.8 -10 6.1 C-14 7.6 -17 9.2 -21 12 C-24 14 -24 14 -26 14 C-27 13 -27 13 -28 13 C-22 9.3 -16 6.1 -10 3.1 C-9.4 2.8 -8.8 2.5 -8.1 2.2 C-5.2 0.9 -3.2 0 0 0 Z " fill="#97455D" transform="translate(1776,1072)"/><path d="M0 0 C0.7 0.3 1.3 0.7 2 1 C-9.3 11 -9.3 11 -16 14 C-16 13 -16 12 -16 11 C-17 11 -17 10 -18 10 C-17 9.4 -16 8.9 -15 8.3 C-13 7.6 -12 6.9 -11 6.1 C-10.0 5.8 -9.3 5.4 -8.6 5.0 C-7.9 4.7 -7.3 4.3 -6.6 3.9 C-5.7 3.5 -5.7 3.5 -4.7 3.0 C-3.1 2.1 -1.5 1.0 0 0 Z " fill="#F6D8E3" transform="translate(1801,1065)"/><path d="M0 0 C-0.3 1.6 -0.7 3.3 -1 5 C-2.6 4.9 -4.3 4.7 -5.9 4.6 C-6.8 4.5 -7.7 4.4 -8.6 4.3 C-11 4 -11 4 -13 3 C-13 2.0 -12 1.0 -12 0 C-7.7 -0.8 -4.3 -1.2 0 0 Z " fill="#AF476A" transform="translate(1636,1022)"/><path d="M0 0 C0.3 0 0.7 0 1 0 C2.9 9.3 -0.0 16 -4.7 24 C-6.4 27 -8.4 28 -11 30 C-12 30 -12 29 -13 29 C-12 28 -11 27 -10 26 C-3.6 18 -1.2 10 0 0 Z " fill="#F5DDE1" transform="translate(1812,867)"/><path d="M0 0 C1.3 3.5 0.7 5.5 -0.6 8.9 C-1.0 9.9 -1.4 11 -1.8 12 C-2.2 13 -2.6 14 -3 15 C-3.6 17 -3.6 17 -4.3 19 C-4.7 20 -5.2 21 -5.6 22 C-6.0 23 -6.4 24 -6.9 25 C-8 28 -8 28 -10 29 C-9.3 23 -7.1 17 -5 12 C-4.4 10 -4.4 10 -3.9 8.6 C-1.1 1.1 -1.1 1.1 0 0 Z " fill="#92425C" transform="translate(1703,1105)"/><path d="M0 0 C4.3 1.6 8.1 3.7 12 6 C11 6.7 11 7.3 10 8 C9.3 7.7 8.7 7.3 8 7 C7.7 7.7 7.3 8.3 7 9 C6.3 9 5.7 9 5 9 C4.7 10.0 4.3 11 4 12 C3.3 10 2.7 8.8 2 7.1 C1.6 6.2 1.3 5.3 0.9 4.4 C0 2 0 2 0 0 Z " fill="#E89DB1" transform="translate(1592,1063)"/><path d="M0 0 C0.8 0.0 1.5 0.0 2.3 0.0 C4.1 0.0 6.0 0.0 7.9 0.1 C7.9 0.4 7.9 0.7 7.9 1.1 C6.7 1.2 5.6 1.3 4.4 1.4 C2.7 1.7 2.7 1.7 0.9 2.1 C0.5 2.7 0.2 3.4 -0.1 4.1 C0.5 4.4 1.2 4.7 1.9 5.1 C-2.3 5.1 -6.1 5.0 -10 4.1 C-10 3.1 -10 2.1 -10 1.1 C-6.9 -0.5 -3.5 -0.0 0 0 Z " fill="#A74161" transform="translate(1623.125,1020.9375)"/><path d="M0 0 C0.7 0 1.3 0 2 0 C5.4 6.9 5.8 13 4 21 C2.1 23 2.1 23 0 25 C-0.7 25 -1.3 25 -2 25 C0 20 0 20 1.1 18 C3.1 12 2.4 5.8 0 0 Z " fill="#9C4762" transform="translate(1809,935)"/><path d="M0 0 C0 0.7 0 1.3 0 2 C0.7 2.3 1.3 2.7 2 3 C-5.2 9 -5.2 9 -9 9 C-8.8 8.1 -8.8 8.1 -8.5 7.2 C-7.9 4.9 -7.9 4.9 -8 2 C-2.2 0 -2.2 0 0 0 Z " fill="#AF4C6D" transform="translate(1558,878)"/><path d="M0 0 C0.7 0.3 1.3 0.7 2 1 C0.9 2.3 -0.2 3.5 -1.2 4.8 C-1.9 5.5 -2.5 6.2 -3.2 7.0 C-5 9 -5 9 -7.2 11 C-9.9 14 -11 17 -12 21 C-13 21 -13 21 -14 21 C-14 16 -12 13 -9.2 9.4 C-8.6 8.5 -7.9 7.5 -7.2 6.6 C-5.0 4.0 -2.7 2.0 0 0 Z " fill="#D494A3" transform="translate(1629,964)"/><path d="M0 0 C3.4 -0.0 6.9 -0.0 10 -0.1 C11 -0.1 12 -0.1 13 -0.1 C14 -0.1 15 -0.1 16 -0.1 C17 -0.1 18 -0.1 19 -0.1 C21 0 21 0 24 1 C24 1.7 24 2.3 24 3 C16 2.7 7.5 2.3 -1 2 C-0.7 1.3 -0.3 0.7 0 0 Z " fill="#D297A4" transform="translate(1580,882)"/><path d="M0 0 C0 0.7 0 1.3 0 2 C-0.8 2.2 -1.6 2.5 -2.4 2.8 C-5.4 4.2 -5.7 5.1 -7 8 C-8.0 8.3 -9.0 8.7 -10 9 C-10 9.7 -10 10 -10 11 C-13 13 -13 13 -16 15 C-17 15 -18 14 -19 14 C-17 12 -14 10 -12 8.1 C-11 7.3 -11 7.3 -10 6.4 C-9.6 5.9 -9.0 5.4 -8.4 4.8 C-7.8 4.3 -7.2 3.8 -6.6 3.3 C-2.6 0 -2.6 0 0 0 Z " fill="#D8A5B2" transform="translate(1746,1101)"/><path d="M0 0 C0.3 0 0.7 0 1 0 C1 5.0 1 9.9 1 15 C-0.3 14 -1.6 14 -3 13 C-3.3 7.7 -3.4 4.4 0 0 Z " fill="#AC3B61" transform="translate(1600,994)"/><path d="M0 0 C0.7 0 1.3 0 2 0 C2.7 1.9 3.4 3.8 4.1 5.8 C4.4 6.8 4.8 7.9 5.2 9.0 C6.0 12 6.1 13 5 16 C4.7 15 4.3 15 4 14 C3.0 14 2.0 13 1 13 C0.7 8.7 0.3 4.4 0 0 Z " fill="#AE4367" transform="translate(1659,1109)"/><path d="M0 0 C1.5 5.1 1.2 10 1.2 16 C1.2 17 1.2 18 1.2 19 C1.2 20 1.2 21 1.2 22 C1.2 23 1.2 24 1.2 25 C1 27 1 27 -1 30 C-3.3 7.3 -3.3 7.3 0 0 Z " fill="#FDEDF0" transform="translate(1603,813)"/><path d="M0 0 C0.7 0.3 1.3 0.7 2 1 C-0.9 5.0 -3.3 8.1 -8 10 C-11 10 -11 10 -14 10 C-15 10 -16 10 -17 10 C-18 10 -18 10 -19 10 C-19 9.7 -19 9.3 -19 9 C-15 8.5 -15 8.5 -10 8 C-10 7.3 -10 6.7 -10 6 C-9.4 5.7 -8.9 5.5 -8.3 5.2 C-7.6 4.8 -6.9 4.5 -6.1 4.1 C-5.4 3.8 -4.7 3.4 -3.9 3.1 C-1.8 2.0 -1.8 2.0 0 0 Z " fill="#F9E4EB" transform="translate(1662,794)"/><path d="M0 0 C1.3 0.3 2.7 0.7 4 1 C4.7 1.2 5.4 1.4 6.1 1.5 C8.1 2.0 10 2.5 12 3 C12 4.0 11 5.0 11 6 C4.7 7.4 4.7 7.4 1.1 5.6 C0.4 5.0 -0.3 4.5 -1 4 C-0.7 2.7 -0.3 1.4 0 0 Z " fill="#21201D" transform="translate(1747,680)"/><path d="M0 0 C4.5 1.4 7.5 3.9 11 6.9 C13 8.2 13 8.2 15 7.7 C16 7.5 16 7.2 17 7 C18 8.5 18 8.5 19 10 C18 11 17 13 16 14 C15 13 15 13 14 12 C9.5 8.1 5.2 4.3 0 1 C0 0.7 0 0.3 0 0 Z " fill="#993E5E" transform="translate(1630,1083)"/><path d="M0 0 C2 3 2 3 1.6 6.2 C1.4 7.1 1.2 8.0 1 9 C0.3 9 -0.3 9 -1 9 C-1.3 9.6 -1.5 10 -1.8 11 C-3.0 13 -4.2 14 -6 16 C-6.7 17 -7.3 17 -8 18 C-8.7 17 -9.3 17 -10 16 C-9.5 16 -9.1 15 -8.6 15 C-4.3 9.9 -1.8 6.1 0 0 Z " fill="#F6E4E7" transform="translate(1818,951)"/><path d="M0 0 C-0.3 0.7 -0.7 1.3 -1 2 C-15 1.0 -15 1.0 -29 0 C-29 -0.3 -29 -0.7 -29 -1 C-9.7 -2.6 -9.7 -2.6 0 0 Z " fill="#EECAD2" transform="translate(1605,869)"/><path d="M0 0 C0.3 0 0.7 0 1 0 C1.2 2.7 1.4 5.3 1.6 8 C1.7 8.7 1.8 9.5 1.8 10 C2.2 16 1.5 20 0 25 C-0.7 25 -1.3 25 -2 25 C-2.3 26 -2.7 26 -3 27 C-4 24 -4 24 -2.6 21 C0.1 14 -0.2 7.0 0 0 Z " fill="#A55672" transform="translate(1662,1182)"/><path d="M0 0 C-1.6 1.0 -3.1 1.9 -4.7 2.9 C-5.6 3.4 -6.4 3.9 -7.3 4.5 C-9.8 5.9 -12 7.0 -15 8 C-16 7.0 -17 6.0 -18 5 C-15 4.0 -13 3.0 -10 1.9 C-9.4 1.6 -8.6 1.3 -7.9 1.0 C-2.2 -1.1 -2.2 -1.1 0 0 Z " fill="#EE95AF" transform="translate(1670,937)"/><path d="M0 0 C5.6 -0.2 9.7 0.2 15 2 C19 2.5 22 2.8 26 3 C24 5.4 23 5.3 20 5.3 C16 5.2 13 4.3 8.9 2.7 C6.0 1.6 3.1 1.3 0 1 C0 0.7 0 0.3 0 0 Z " fill="#8F415C" transform="translate(1628,796)"/><path d="M0 0 C0.3 0 0.7 0 1 0 C1.0 6.5 -0.5 12 -2.9 18 C-3.3 19 -3.3 19 -3.7 20 C-5.0 23 -6.2 26 -9 28 C-8.6 27 -8.6 27 -8.1 26 C-6.9 22 -5.9 18 -5 14 C-4.3 14 -3.7 14 -3 14 C-2.0 9.4 -1.0 4.8 0 0 Z " fill="#96465F" transform="translate(1700,993)"/><path d="M0 0 C0.7 0.3 1.3 0.7 2 1 C0.4 8.1 -1.3 13 -6 19 C-6.3 19 -6.7 19 -7 19 C-7 17 -7 16 -7 14 C-6.3 14 -5.7 14 -5 14 C-5 13 -5 13 -5 12 C-4.3 12 -3.7 12 -3 12 C-2.8 11 -2.8 11 -2.6 9.4 C-2.0 6.1 -1.1 3.1 0 0 Z " fill="#D7A3B0" transform="translate(1780,975)"/><path d="M0 0 C4.0 2.9 6.1 5.5 8.3 9.9 C8.8 11 9.3 12 9.9 13 C11 16 11 18 11 21 C9 18 9 18 9 16 C8.3 16 7.7 15 7 15 C6.3 13 5.6 11 5 9 C4.7 8.0 4.3 7.0 4 6 C3.3 6 2.7 6 2 6 C1.3 4.0 0.7 2.0 0 0 Z " fill="#CE97A3" transform="translate(1687,803)"/><path d="M0 0 C0.7 0 1.3 0 2 0 C0.5 8.0 -2.2 15 -5 23 C-5.7 22 -6.3 21 -7 20 C-6.6 18 -6.6 18 -5.8 16 C-5.5 15 -5.2 15 -4.9 14 C-4.6 13 -4.3 13 -4 12 C-2.4 8.1 -1.1 4.1 0 0 Z " fill="#FAE5EA" transform="translate(1702,1100)"/><path d="M0 0 C0.3 0 0.7 0 1 0 C1.7 2.6 2.3 5.3 3 8 C4.0 6.7 5.0 5.4 6 4 C5.5 8.6 4.2 12 2 16 C1.3 16 0.7 16 0 16 C0 11 0 5.4 0 0 Z " fill="#983256" transform="translate(1663,1181)"/><path d="M0 0 C2.0 0.1 4.0 0.1 6.1 0.2 C6.1 0.9 6.1 1.5 6.1 2.2 C4.1 4.2 2.1 6.2 0.1 8.2 C-0.6 7.9 -1.3 7.5 -1.9 7.2 C-1.9 5.9 -1.9 4.6 -1.9 3.2 C-2.6 2.9 -3.3 2.5 -3.9 2.2 C-1.9 0.2 -1.9 0.2 0 0 Z " fill="#A13C5F" transform="translate(1695.9453125,1152.8046875)"/><path d="M0 0 C8.3 3.8 14 11 18 19 C18 20 17 20 17 21 C17 20 16 20 16 19 C12 13 7.2 8.0 1.9 2.9 C1.3 2.3 0.7 1.7 0 1 C0 0.7 0 0.3 0 0 Z " fill="#90425B" transform="translate(1639,1140)"/><path d="M0 0 C3.6 3.3 6.2 7.0 9 11 C6.5 12 6.5 12 4 14 C3.3 12 2.7 10 2 8.7 C1.6 7.7 1.3 6.7 0.9 5.7 C0 3 0 3 0 0 Z " fill="#F7DAE3" transform="translate(1710,979)"/><path d="M0 0 C7.6 1.7 13 6.9 17 13 C18 15 18 15 19 17 C19 18 18 18 18 19 C17 18 16 16 14 15 C14 14 13 13 13 12 C11 10 11 10 11 8 C10 8 9.7 8 9 8 C7.7 6.7 6.3 5.3 5 4 C3.3 3.0 1.7 2.0 0 1 C0 0.7 0 0.3 0 0 Z " fill="#934A60" transform="translate(1683,783)"/><path d="M0 0 C-0.5 7.3 -2.3 13 -5 20 C-5.7 20 -6.3 19 -7 19 C-6.8 18 -6.6 18 -6.4 17 C-6.0 16 -6.0 16 -5.6 14 C-5.2 13 -5.2 13 -4.8 12 C-3.6 7.8 -3 5.0 -3 1 C-1 0 -1 0 0 0 Z " fill="#F9E6E9" transform="translate(1662,1192)"/><path d="M0 0 C3.6 0.8 7.0 2.1 10 3.4 C12 3.9 13 4.3 14 4.7 C16 5.7 19 6.8 21 8 C15 8.3 13 8.2 8 5 C6.0 4.3 4.0 3.6 2 3 C1.3 2.7 0.7 2.3 0 2 C0 1.3 0 0.7 0 0 Z " fill="#FBE8EC" transform="translate(1732,1001)"/><path d="M0 0 C1.0 0.3 2.0 0.7 3 1 C2.1 2.1 1.1 3.3 0.2 4.4 C-0.3 5.0 -0.9 5.6 -1.4 6.3 C-3 8 -3 8 -6 10 C-7.1 12 -8.1 13 -9 15 C-9.3 14 -9.7 14 -10 13 C-7.0 8.3 -3.7 4.2 0 0 Z " fill="#F7E6EC" transform="translate(1691,1164)"/><path d="M0 0 C2 3 2 3 1.8 5.0 C1.2 7.0 0.6 9.0 0 11 C-1.3 11 -2.6 10 -4 10 C-3.4 6.0 -2.2 3.3 0 0 Z " fill="#B14168" transform="translate(1709,1098)"/><path d="M0 0 C0.3 1.0 0.7 2.0 1 3 C-1.9 7.6 -5.6 12 -11 13 C-10 10 -10 10 -9 7 C-7.0 6.3 -5.0 5.6 -3 5 C-1.1 2.5 -1.1 2.5 0 0 Z " fill="#943A59" transform="translate(1815,956)"/><path d="M0 0 C1.2 0.3 1.2 0.3 2.5 0.6 C3.4 0.8 3.4 0.8 4.4 1.1 C3.7 2.4 3.1 3.7 2.4 5.1 C-2.1 4.1 -2.1 4.1 -6.6 3.1 C-6.6 2.1 -6.6 1.1 -6.6 0.1 C-4.0 -1.3 -2.8 -0.7 0 0 Z " fill="#F9E3E7" transform="translate(1778.625,914.9375)"/><path d="M0 0 C0.7 0.7 1.3 1.3 2 2 C1.5 5.2 0.3 8.2 -0.9 11 C-1.2 12 -1.5 13 -1.9 14 C-3 16 -3 16 -6 17 C-4.1 11 -2.1 5.6 0 0 Z " fill="#F6E0E6" transform="translate(1669,1201)"/><path d="M0 0 C4.8 0.5 8.0 1.2 12 4 C8.4 5.2 7.4 4.5 4 3 C4 3.7 4 4.3 4 5 C2.4 5 0.7 5 -1 5 C-0.7 3.4 -0.3 1.7 0 0 Z " fill="#FCF5F5" transform="translate(1627,1015)"/><path d="M0 0 C0.7 1.0 1.3 2.0 2 3 C-0.8 6.1 -3.1 7.7 -7 9 C-7 9.7 -7 10 -7 11 C-8.3 10 -9.6 9.7 -11 9 C-10 8.5 -9.7 8.0 -9.1 7.5 C-7.9 6.6 -7.9 6.6 -6.6 5.6 C-5.8 5.0 -5.0 4.4 -4.2 3.7 C-2.0 2.0 -2.0 2.0 0 0 Z " fill="#F5E0E5" transform="translate(1795,900)"/><path d="M0 0 C0.7 0 1.3 0 2 0 C2 0.7 2 1.3 2 2 C3.6 2 5.3 2 7 2 C3.8 4.6 0.6 6.9 -3 9 C-2.0 6.0 -1.0 3.1 0 0 Z " fill="#F5D4DD" transform="translate(1695,1146)"/><path d="M0 0 C0.3 0 0.7 0 1 0 C1.2 1.8 1.4 3.6 1.6 5.4 C1.7 6.4 1.9 7.4 2.0 8.4 C2.0 9.3 2.0 10 2 11 C1.3 12 0.7 12 0 13 C-0.7 13 -1.3 13 -2 13 C-1.9 11 -1.7 9.8 -1.6 8.2 C-1.5 7.3 -1.4 6.4 -1.3 5.5 C-1 3 -1 3 0 0 Z " fill="#A74E6E" transform="translate(1669,1132)"/><path d="M0 0 C1.0 0.3 2.0 0.7 3 1 C3 1.7 3 2.3 3 3 C1.0 4.5 1.0 4.5 -1.5 6.1 C-2.3 6.7 -3.2 7.2 -4.0 7.8 C-4.7 8.2 -5.3 8.6 -6 9 C-6.2 6.6 -6.2 6.6 -6 4 C-3.2 1.6 -3.2 1.6 0 0 Z " fill="#FDF2F4" transform="translate(1740,1100)"/><path d="M0 0 C5.0 0 9.9 0 15 0 C15 1.0 16 2.0 16 3 C14 2.9 11 2.8 9.1 2.6 C7.8 2.6 6.6 2.5 5.3 2.4 C2 2 2 2 0 0 Z " fill="#F9E8EB" transform="translate(1611,1027)"/><path d="M0 0 C0.7 0.3 1.3 0.7 2 1 C2 2.0 2 3.0 2 4 C-0.5 6.5 -1.7 6.4 -5.1 6.6 C-6.0 6.7 -6.9 6.8 -7.9 6.9 C-8.9 6.9 -8.9 6.9 -10 7 C-6.7 4.5 -3.4 2.2 0 0 Z " fill="#FBDDE5" transform="translate(1772,994)"/><path d="M0 0 C-5.3 2.7 -11 5.3 -16 8 C-16 7.0 -16 6.0 -16 5 C-11 1.0 -6.6 -1.9 0 0 Z " fill="#F8E6E7" transform="translate(1752,808)"/><path d="M0 0 C0.7 0.3 1.3 0.7 2 1 C0.2 2.5 -1.6 4.0 -3.4 5.5 C-4.9 6.8 -4.9 6.8 -6.4 8.0 C-9 10 -9 10 -11 10 C-11 11 -11 11 -11 12 C-12 12 -14 11 -15 11 C-10 7.4 -5.1 3.7 0 0 Z " fill="#D398A8" transform="translate(1801,1067)"/><path d="M0 0 C1.3 0.3 2.6 0.7 4 1 C4 3.0 4 5.0 4 7 C1.4 6.3 -1.3 5.7 -4 5 C-2.7 3.4 -1.4 1.7 0 0 Z " fill="#9D475F" transform="translate(1824,1035)"/><path d="M0 0 C3.0 0.3 5.9 0.7 9 1 C6 3 6 3 4 3 C4 2.3 4 1.7 4 1 C2.7 0.7 1.4 0.3 0 0 Z M-7 1 C-3.6 0.9 -3.6 0.9 0 1 C0.7 1.7 1.3 2.3 2 3 C0.3 3 -1.3 3 -3 3 C-3 3.7 -3 4.3 -3 5 C-5.0 5 -7.0 5 -9 5 C-7.7 4.3 -6.4 3.7 -5 3 C-5.7 2.3 -6.3 1.7 -7 1 Z " fill="#F2DEDD" transform="translate(1598,877)"/><path d="M0 0 C-1.9 1.2 -3.9 2.4 -5.8 3.6 C-7.4 4.6 -7.4 4.6 -9.1 5.6 C-12 7 -12 7 -15 6 C-13 3.7 -11 2.2 -8.1 0.8 C-7.4 0.4 -6.7 0.0 -6.0 -0.3 C-3.6 -1.1 -2.4 -0.8 0 0 Z " fill="#EC9CB2" transform="translate(1647,938)"/><path d="M0 0 C0.7 0.3 1.3 0.7 2 1 C-3.4 5.3 -8.3 7.3 -15 9 C-15 8.3 -15 7.7 -15 7 C-13 5.8 -10 4.6 -7.6 3.4 C-6.6 2.9 -6.6 2.9 -5.5 2.4 C-3.7 1.5 -1.9 0.8 0 0 Z " fill="#913F56" transform="translate(1792,1063)"/><path d="M0 0 C0.7 0.7 1.3 1.3 2 2 C2.0 4.4 2.0 4.4 1.6 7.1 C1.5 8.0 1.4 8.9 1.3 9.9 C1.2 11 1.1 11 1 12 C0.0 12 -1.0 13 -2 13 C-1.9 12 -1.7 10 -1.6 8.8 C-1.5 8.0 -1.4 7.2 -1.3 6.4 C-1.0 4.2 -0.6 2.1 0 0 Z " fill="#F7E3E7" transform="translate(1827,1046)"/><path d="M0 0 C0.7 0 1.3 0 2 0 C1.4 5.5 1.4 5.5 -0.6 7.9 C-1.3 8.4 -1.3 8.4 -2 9 C-2.3 8.3 -2.7 7.7 -3 7 C-4.0 7 -5.0 7 -6 7 C-4.7 5.3 -3.4 3.6 -2 2 C-1.3 2 -0.7 2 0 2 C0 1.3 0 0.7 0 0 Z " fill="#B5466D" transform="translate(1785,989)"/><path d="M0 0 C0.3 0 0.7 0 1 0 C1 3.3 1 6.6 1 10 C0.7 8.7 0.3 7.4 0 6 C-1.2 7.2 -1.2 7.2 -2.4 8.4 C-5 11 -5 11 -7 12 C-7.3 11 -7.7 9.4 -8 8 C-3.2 4 -3.2 4 -1 4 C-0.7 2.7 -0.3 1.4 0 0 Z " fill="#DF8CA2" transform="translate(1804,864)"/><path d="M0 0 C3.8 3.4 6.8 7.4 9 12 C8.7 13 8.3 13 8 14 C4.2 11 3.7 9.1 2 5 C0.5 3.1 0.5 3.1 -1 2 C-0.7 1.3 -0.3 0.7 0 0 Z " fill="#D6A2AD" transform="translate(1646,1108)"/><path d="M0 0 C0.7 0.3 1.3 0.7 2 1 C-4.0 9.6 -4.0 9.6 -9 12 C-7.6 8.8 -5.7 6.4 -3.4 3.8 C-2.7 3.0 -2.1 2.3 -1.5 1.6 C-1.0 1.1 -0.5 0.5 0 0 Z " fill="#FAE6ED" transform="translate(1808,1094)"/><path d="M0 0 C2.3 0.2 2.3 0.2 4 1 C4 2.3 4 3.6 4 5 C0.4 6.2 -1.4 6.2 -5 5 C-2.8 2.4 -2.8 2.4 0 0 Z " fill="#B04B6C" transform="translate(1764,1078)"/><path d="M0 0 C0.3 1.0 0.7 2.0 1 3 C-0.5 4.5 -1.9 6.0 -3.4 7.5 C-4.2 8.3 -5.0 9.2 -5.8 10 C-8 12 -8 12 -10 12 C-10 11 -10 11 -10 10 C-9.3 10 -8.7 10 -8 10 C-7.3 8.7 -6.7 7.4 -6 6 C-5.3 6 -4.7 6 -4 6 C-3.7 5.4 -3.4 4.8 -3.1 4.1 C-2 2 -2 2 0 0 Z " fill="#FBE6E9" transform="translate(1818,1039)"/><path d="M0 0 C0.3 0 0.7 0 1 0 C0.5 6.6 -1.3 12 -4 18 C-4.3 18 -4.7 18 -5 18 C-5.5 13 -4.3 10 -2.0 5.9 C-1.0 4.0 -0.5 2.1 0 0 Z " fill="#F8DFE4" transform="translate(1550,917)"/><path d="M0 0 C0 0.3 0 0.7 0 1 C-0.9 1.1 -0.9 1.1 -1.8 1.2 C-3.0 1.3 -3.0 1.3 -4.2 1.4 C-5.0 1.5 -5.8 1.6 -6.6 1.7 C-8.8 2.0 -11 2.4 -13 3 C-13 3.7 -13 4.3 -13 5 C-14 5 -15 5 -16 5 C-16 5.7 -16 6.3 -16 7 C-17 7 -17 7 -18 7 C-17 4.1 -16 3.0 -14 1.2 C-8.9 -0.4 -4.8 -0.3 0 0 Z " fill="#D49EA9" transform="translate(1639,802)"/><path d="M0 0 C3.7 0.1 6.8 0.9 10 2.2 C6.6 4.6 4.2 4.2 0 3.4 C-1.6 3.1 -1.6 3.1 -3.3 2.8 C-4.1 2.6 -4.9 2.4 -5.8 2.2 C-3.8 0.2 -3.8 0.2 0 0 Z " fill="#94425A" transform="translate(1629.75,789.75)"/><path d="M0 0 C0.7 0 1.3 0 2 0 C5 5.8 5 5.8 5 8 C2.4 7.7 -0.3 7.3 -3 7 C-2.3 6.4 -2.3 6.4 -1.5 5.8 C0.4 3.9 0.4 3.9 0 0 Z " fill="#F1CFD8" transform="translate(1611,866)"/><path d="M0 0 C-0.6 0.3 -1.2 0.6 -1.8 0.9 C-4.2 2.0 -4.2 2.0 -7 4 C-9.6 4.8 -12 5.4 -15 6 C-9.5 0.4 -7.6 -0.1 0 0 Z " fill="#F6DEE5" transform="translate(1679,788)"/><path d="M0 0 C2.6 -0.2 2.6 -0.2 5 0 C3.8 3.4 2.7 5.6 0 8 C0.2 7.2 0.4 6.4 0.6 5.6 C0.7 4.7 0.9 3.9 1 3 C0.7 2.7 0.3 2.3 0 2 C-0.3 3.3 -0.7 4.6 -1 6 C-1.3 5.0 -1.7 4.0 -2 3 C-1.3 2.0 -0.7 1.0 0 0 Z " fill="#9A3E5B" transform="translate(1715,1120)"/><path d="M0 0 C-10 7.7 -10 7.7 -16 9 C-14 6.4 -11 4.7 -8 3 C-7.3 3 -6.7 3 -6 3 C-6 2.0 -6 1.0 -6 0 C-2.2 -1.1 -2.2 -1.1 0 0 Z " fill="#8C3D5A" transform="translate(1785,1117)"/><path d="M0 0 C1.0 0.3 2.0 0.7 3 1 C2.5 4.4 1.9 6.1 0 9 C-2.6 9.7 -2.6 9.7 -5 10 C-4.7 9.3 -4.3 8.7 -4 8 C-3.3 8 -2.7 8 -2 8 C-1.3 5.4 -0.7 2.7 0 0 Z " fill="#B1476B" transform="translate(1699,893)"/><path d="M0 0 C2.1 3.2 2.2 4.0 2.1 7.7 C2.1 8.5 2.1 9.3 2.1 10 C2.0 11 2.0 11 2 12 C1.3 12 0.7 12 0 12 C-1.2 8.5 -1.1 5.7 -1 2 C-0.7 1.3 -0.3 0.7 0 0 Z " fill="#FEF4F6" transform="translate(1702,826)"/><path d="M0 0 C1.6 0.3 3.3 0.7 5 1 C2.0 5.0 2.0 5.0 -1 9 C-2.1 4.7 -1.8 3.8 0 0 Z " fill="#F8E6E9" transform="translate(1714,829)"/><path d="M0 0 C0.3 0.7 0.7 1.3 1 2 C0.0 4.5 0.0 4.5 -1.4 7.5 C-1.8 8.5 -2.3 9.5 -2.8 10 C-3.5 12 -4.2 13 -5 15 C-5.7 15 -6.3 15 -7 15 C-5.5 9.5 -2.8 4.9 0 0 Z " fill="#9A4C65" transform="translate(1680,1160)"/><path d="M0 0 C0.3 0.7 0.7 1.3 1 2 C1.7 2.3 2.3 2.7 3 3 C2.3 3 1.7 3 1 3 C0.7 4.0 0.3 5.0 0 6 C-2.3 6 -4.6 6 -7 6 C-2.2 1.1 -2.2 1.1 0 0 Z " fill="#9B3757" transform="translate(1702,1148)"/><path d="M0 0 C0.7 0.3 1.3 0.7 2 1 C0.8 2.0 -0.5 3.0 -1.8 3.9 C-2.4 4.5 -3.1 5.0 -3.9 5.6 C-6.0 7.0 -7.5 7.7 -10 8 C-11 7.7 -11 7.3 -12 7 C-10 6.0 -8.8 5.0 -7.1 4.1 C-6.2 3.5 -5.3 3.0 -4.4 2.4 C-2.9 1.6 -1.5 0.7 0 0 Z " fill="#903D55" transform="translate(1760,1078)"/><path d="M0 0 C1.0 0.3 2.0 0.7 3 1 C2.7 2.3 2.3 3.6 2 5 C0.3 5.3 -1.3 5.7 -3 6 C-3.3 5.3 -3.7 4.7 -4 4 C-2.7 2.7 -1.4 1.4 0 0 Z " fill="#B6446B" transform="translate(1778,997)"/><path d="M0 0 C0.3 1.3 0.7 2.6 1 4 C0.3 4 -0.3 4 -1 4 C-1 5.7 -1 7.3 -1 9 C-2.0 9.3 -3.0 9.7 -4 10 C-4.3 11 -4.7 11 -5 12 C-4.5 8.1 -3.7 4.6 -2 1 C-1.3 0.7 -0.7 0.3 0 0 Z " fill="#99405C" transform="translate(1552,921)"/><path d="M0 0 C-1.6 0.8 -3.2 1.7 -4.9 2.5 C-6.2 3.2 -6.2 3.2 -7.6 3.9 C-10 5 -10 5 -12 5 C-11 2 -11 2 -7.7 0.2 C-4.1 -1.0 -3.4 -1.1 0 0 Z " fill="#F6DFE3" transform="translate(1790,1065)"/><path d="M0 0 C3.9 3.4 6.1 7.3 8 12 C8 13 8 13 8 14 C7.0 14 6.0 13 5 13 C2.9 8.8 1.4 4.5 0 0 Z " fill="#954B61" transform="translate(1656,1100)"/><path d="M0 0 C4 4 4 4 5.5 5.6 C7.2 7.2 8.9 8.1 11 9 C10 9.7 9.7 10 9 11 C1.3 5.9 1.3 5.9 0 2.1 C0 1.4 0 0.7 0 0 Z " fill="#D29FAC" transform="translate(1613,1001)"/><path d="M0 0 C3.3 1.1 3.6 1.5 5.2 4.4 C5.7 5.3 5.7 5.3 6.2 6.2 C7 8 7 8 7 11 C6.3 11 5.7 11 5 11 C4.3 8.7 3.7 6.4 3 4 C2.3 4 1.7 4 1 4 C1 3.3 1 2.7 1 2 C0.3 1.7 -0.3 1.3 -1 1 C-0.7 0.7 -0.3 0.3 0 0 Z " fill="#D297A3" transform="translate(1770,827)"/><path d="M0 0 C1.3 0 2.6 0 4 0 C3.7 2.6 3.3 5.3 3 8 C2.3 7.3 1.7 6.7 1 6 C0.0 6.5 0.0 6.5 -1 7 C-0.7 4.7 -0.3 2.4 0 0 Z " fill="#F3D9DF" transform="translate(1612,813)"/><path d="M0 0 C0.7 0.3 1.3 0.7 2 1 C1.3 1.7 0.7 2.3 0 3 C1.0 4.5 1.0 4.5 2 6 C-1 8 -1 8 -4 8 C-3.5 4.3 -2.9 2.4 0 0 Z " fill="#F5DEE3" transform="translate(1620,801)"/><path d="M0 0 C3.6 1.7 6.7 3.8 10 6 C6.2 7.1 6.2 7.1 4 6 C4 5.3 4 4.7 4 4 C2.7 3.7 1.4 3.3 0 3 C0 2.0 0 1.0 0 0 Z " fill="#FAE8EC" transform="translate(1621,1128)"/><path d="M0 0 C0.3 0 0.7 0 1 0 C1 3.3 1 6.6 1 10 C-1.0 11 -1.0 11 -3 12 C-2.0 8.0 -1.0 4.1 0 0 Z " fill="#F4E0E6" transform="translate(1714,1095)"/><path d="M0 0 C0.7 0 1.3 0 2 0 C0.8 2.5 -0.5 4.7 -2 7 C-2 7.7 -2 8.3 -2 9 C-4.0 10.0 -4.0 10.0 -6 11 C-4.7 6.5 -3.2 3.4 0 0 Z " fill="#F5DEE6" transform="translate(1797,975)"/><path d="M0 0 C1.0 2.8 1.0 3.9 0.1 6.8 C-0.3 7.5 -0.6 8.2 -1 9 C-2.3 9 -3.6 9 -5 9 C-4.7 7.7 -4.3 6.4 -4 5 C-3.0 5 -2.0 5 -1 5 C-0.7 3.4 -0.3 1.7 0 0 Z " fill="#EC98B1" transform="translate(1698,892)"/><path d="M0 0 C0.9 2.6 1.1 3.7 0.2 6.4 C-0.2 7.1 -0.5 7.9 -0.9 8.8 C-1.5 9.9 -1.5 9.9 -2.1 11 C-2.4 12 -2.7 12 -3 13 C-3.3 13 -3.7 13 -4 13 C-4 11 -4 9.0 -4 7 C-3.3 7 -2.7 7 -2 7 C-1.9 6.2 -1.7 5.4 -1.6 4.6 C-1 2 -1 2 0 0 Z " fill="#F9E5E9" transform="translate(1694,1124)"/><path d="M0 0 C2.0 1.0 4.0 2.0 6 3 C5.3 3.7 4.7 4.3 4 5 C0.4 4.6 0.4 4.6 -3 4 C-2.3 3.7 -1.7 3.3 -1 3 C-0.7 2.0 -0.3 1.0 0 0 Z " fill="#AF4167" transform="translate(1612,1068)"/><path d="M0 0 C4.3 0.3 8.6 0.7 13 1 C13 1.7 13 2.3 13 3 C10 3 7.7 3 5 3 C5 2.3 5 1.7 5 1 C3.4 1 1.7 1 0 1 C0 0.7 0 0.3 0 0 Z " fill="#B54C6D" transform="translate(1713,924)"/><path d="M0 0 C1 2 1 2 0.4 3.9 C0.2 4.7 -0.1 5.4 -0.4 6.1 C-0.7 6.8 -1.0 7.6 -1.3 8.3 C-1.5 8.9 -1.8 9.4 -2 10 C-3.1 8.2 -3.1 8.2 -4 6 C-3.1 3.3 -2.0 2.0 0 0 Z " fill="#ED97B2" transform="translate(1818,1051)"/><path d="M0 0 C4.8 0.9 4.8 0.9 7 2 C7 2.7 7 3.3 7 4 C4.0 3.7 1.1 3.3 -2 3 C-1.3 2.7 -0.7 2.3 0 2 C0 1.3 0 0.7 0 0 Z " fill="#F7E8E9" transform="translate(1631,1018)"/><path d="M0 0 C1.8 3.1 2 4.2 2 8 C1.3 8 0.7 8 0 8 C0 10.0 0 12 0 14 C-0.3 14 -0.7 14 -1 14 C-1.0 12 -1.0 11 -1.1 9.2 C-1.1 8.4 -1.1 7.5 -1.1 6.6 C-1.0 4.2 -0.7 2.3 0 0 Z " fill="#EAC6CF" transform="translate(1603,993)"/><path d="M0 0 C-1.3 0.9 -2.6 1.7 -3.9 2.6 C-4.6 3.0 -5.3 3.5 -6.1 4.0 C-6.7 4.3 -7.3 4.7 -8 5 C-8.7 4.7 -9.3 4.3 -10 4 C-10 3.3 -10 2.7 -10 2 C-8.7 1.5 -7.4 1.0 -6.1 0.4 C-5.4 0.1 -4.7 -0.1 -3.9 -0.4 C-2 -1 -2 -1 0 0 Z " fill="#EB87A5" transform="translate(1670,937)"/><path d="M0 0 C1.0 0.7 2.0 1.3 3 2 C1.5 2.7 0.1 3.3 -1.4 4 C-2.6 4.6 -2.6 4.6 -3.8 5.1 C-6 6 -6 6 -8 6 C-8 5.3 -8 4.7 -8 4 C-2.2 2 -2.2 2 0 2 C0 1.3 0 0.7 0 0 Z " fill="#EC99B1" transform="translate(1747,1125)"/><path d="M0 0 C0.7 0.3 1.3 0.7 2 1 C0.0 5.5 0.0 5.5 -2 10 C-2.7 8.7 -3.3 7.4 -4 6 C-2.7 4.0 -1.4 2.0 0 0 Z " fill="#F9E5E8" transform="translate(1601,977)"/><path d="M0 0 C0.7 0.3 1.3 0.7 2 1 C1.3 3.0 0.7 5.0 0 7 C-1.6 7 -3.3 7 -5 7 C-5 6.3 -5 5.7 -5 5 C-4.0 5 -3.0 5 -2 5 C-1.3 3.4 -0.7 1.7 0 0 Z " fill="#AC486D" transform="translate(1738,816)"/><path d="M0 0 C0.7 0.3 1.3 0.7 2 1 C-1.2 4.5 -3.2 6.6 -8 7 C-5.4 4.4 -3.1 2.1 0 0 Z " fill="#F5DBE2" transform="translate(1704,1154)"/><path d="M0 0 C2.6 3.9 2.2 7.5 2 12 C-0.4 9.6 -0.6 8.4 -1 5 C-0.6 2.2 -0.6 2.2 0 0 Z " fill="#F6D5DF" transform="translate(1661,1126)"/><path d="M0 0 C0 1.0 0 2.0 0 3 C-0.7 3 -1.3 3 -2 3 C-2.3 4.3 -2.7 5.6 -3 7 C-4.0 7 -5.0 7 -6 7 C-4.2 3.7 -3.2 2.1 0 0 Z " fill="#E8A5B8" transform="translate(1808,1060)"/><path d="M0 0 C0 0.7 0 1.3 0 2 C-5.4 6 -5.4 6 -8 6 C-7.0 3.5 -6.3 2.2 -4 0.8 C-2 0 -2 0 0 0 Z " fill="#F9E7EB" transform="translate(1807,1052)"/><path d="M0 0 C0 1.0 0 2.0 0 3 C-3.9 5.6 -5.6 4.8 -10 4 C-10 3.7 -10 3.3 -10 3 C-5.0 1.5 -5.0 1.5 0 0 Z " fill="#F5DEE3" transform="translate(1777,1005)"/><path d="M0 0 C0 0.3 0 0.7 0 1 C-3.6 1.7 -7.3 2.3 -11 3 C-11 2.3 -11 1.7 -11 1 C-7.2 -1.6 -4.3 -0.8 0 0 Z " fill="#F8DEE2" transform="translate(1576,868)"/><path d="M0 0 C-1 3 -1 3 -4.4 4.8 C-8 6 -8 6 -11 5 C-9.5 4.2 -8.1 3.3 -6.6 2.5 C-5.8 2.0 -5.0 1.6 -4.2 1.1 C-2 0 -2 0 0 0 Z " fill="#D4A4AF" transform="translate(1667,797)"/><path d="M0 0 C-0.3 1.0 -0.7 2.0 -1 3 C-3.6 3 -6.3 3 -9 3 C-7 0 -7 0 -5.1 -0.8 C-3 -1 -3 -1 0 0 Z " fill="#0A0A07" transform="translate(1762,684)"/><path d="M0 0 C2.0 0.5 2.0 0.5 4 1 C3.2 2.9 3.2 2.9 2 5 C1.0 5.3 0.0 5.7 -1 6 C-0.7 4.0 -0.3 2.0 0 0 Z " fill="#B03E69" transform="translate(1658,790)"/><path d="M0 0 C1.9 0.3 1.9 0.3 4 1 C4.3 2.0 4.7 3.0 5 4 C3.0 4.7 1.0 5.3 -1 6 C-0.7 4.0 -0.3 2.0 0 0 Z " fill="#9E4567" transform="translate(1722,1140)"/><path d="M0 0 C1.0 0.3 2.0 0.7 3 1 C2.7 2.6 2.3 4.3 2 6 C1.7 5.3 1.3 4.7 1 4 C0.0 4 -1.0 4 -2 4 C-1.3 2.7 -0.7 1.4 0 0 Z " fill="#A24162" transform="translate(1725,1105)"/><path d="M0 0 C3.8 1.4 5.3 3.3 7 7 C6.7 7.7 6.3 8.3 6 9 C5.0 7.9 4.0 6.8 3 5.6 C2.4 5.0 1.9 4.4 1.3 3.7 C0 2 0 2 0 0 Z " fill="#93435F" transform="translate(1647,1097)"/><path d="M0 0 C4.6 -0.4 4.6 -0.4 6.8 1.5 C7.2 2.0 7.6 2.5 8 3 C7.7 3.7 7.3 4.3 7 5 C3.5 3.0 3.5 3.0 0 1 C0 0.7 0 0.3 0 0 Z " fill="#F6DEE3" transform="translate(1628,1074)"/><path d="M0 0 C0.7 0.3 1.3 0.7 2 1 C0.3 3.8 -0.5 4.9 -3.7 5.8 C-4.8 5.9 -4.8 5.9 -6 6 C-4 4 -2 2 0 0 Z " fill="#953A56" transform="translate(1802,963)"/><path d="M0 0 C0 1.0 0 2.0 0 3 C-4.0 5.0 -4.0 5.0 -8 7 C-6.5 2.6 -4.0 2.1 0 0 Z " fill="#EE9BB4" transform="translate(1664,947)"/><path d="M0 0 C1.7 0.3 3.3 0.6 5 1 C4.7 2.0 4.3 3.0 4 4 C4 3.3 4 2.7 4 2 C2.0 2.3 2.0 2.3 0 3 C-0.3 4.0 -0.7 5.0 -1 6 C-1.0 4.3 -1.0 2.7 -1 1 C-0.7 0.7 -0.3 0.3 0 0 Z " fill="#A73D5D" transform="translate(1694,944)"/><path d="M0 0 C1.9 0.8 1.9 0.8 3.9 3.8 C0.6 3.2 -2.7 2.5 -6.1 1.8 C-2.1 -0.2 -2.1 -0.2 0 0 Z " fill="#F2D3D8" transform="translate(1640.125,789.1875)"/><path d="M0 0 C0.7 0.3 1.3 0.7 2 1 C1.3 3.3 0.7 5.6 0 8 C-0.7 7.7 -1.3 7.3 -2 7 C-1.1 2.2 -1.1 2.2 0 0 Z " fill="#FBEAEC" transform="translate(1711,1122)"/><path d="M0 0 C1.0 0.7 2.0 1.3 3 2 C1.0 3.1 -1.0 4.1 -3 5 C-3.7 4.7 -4.3 4.3 -5 4 C-4.7 3.0 -4.3 2.0 -4 1 C-2.0 1.5 -2.0 1.5 0 2 C0 1.3 0 0.7 0 0 Z " fill="#F7E1E2" transform="translate(1746,1083)"/><path d="M0 0 C1.6 0 3.3 0 5 0 C5.3 1.0 5.7 2.0 6 3 C5.0 3.3 4.0 3.7 3 4 C2.0 3.3 1.0 2.7 0 2 C0 1.3 0 0.7 0 0 Z " fill="#A2395D" transform="translate(1626,1076)"/><path d="M0 0 C3.0 0.3 5.9 0.7 9 1 C9 1.3 9 1.7 9 2 C5.7 2.3 2.4 2.7 -1 3 C-0.7 2.0 -0.3 1.0 0 0 Z " fill="#ED98B2" transform="translate(1710,922)"/><path d="M0 0 C0.7 1.0 1.3 2.0 2 3 C0.3 4.3 -1.3 5.6 -3 7 C-3 3.5 -2.2 2.6 0 0 Z " fill="#9C4764" transform="translate(1718,831)"/><path d="M0 0 C-2.9 1.5 -5.9 2.8 -9 4 C-9 3.0 -9 2.0 -9 1 C-5.6 -1.1 -3.8 -1.0 0 0 Z " fill="#F2D7DB" transform="translate(1752,808)"/><path d="M0 0 C0.7 0 1.3 0 2 0 C2.3 1.0 2.7 2.0 3 3 C2 4 2 4 -0.5 4.1 C-2.0 4.1 -2.0 4.1 -3.6 4.1 C-4.6 4.1 -5.6 4.0 -6.6 4.0 C-7.4 4.0 -8.2 4.0 -9 4 C-9 3.7 -9 3.3 -9 3 C-4.5 2.5 -4.5 2.5 0 2 C0 1.3 0 0.7 0 0 Z " fill="#F7DBE1" transform="translate(1652,800)"/><path d="M0 0 C0.7 0.3 1.3 0.7 2 1 C2 2.0 2 3.0 2 4 C1.0 4.3 0.0 4.7 -1 5 C-1.7 4.3 -2.3 3.7 -3 3 C-2.0 2.0 -1.0 1.0 0 0 Z " fill="#FCEDEC" transform="translate(1622,801)"/></svg> 